<svg version="1.1" xmlns="http://www.w3.org/2000/svg" xmlns:xlink="http://www.w3.org/1999/xlink" width="153.74811" height="146.96867" viewBox="0,0,153.74811,146.96867"><g transform="translate(-169.9036,-87.47466)"><g data-paper-data="{&quot;isPaintingLayer&quot;:true}" fill-rule="nonzero" stroke-linejoin="miter" stroke-miterlimit="10" stroke-dasharray="" stroke-dashoffset="0" style="mix-blend-mode: normal"><path d="M259.28129,197.02788l23.4314,-64.24739l5.38032,1.96224l-23.4314,64.24739z" fill="#a5a5a5" stroke="#828282" stroke-width="2.5" stroke-linecap="butt"/><path d="M268.59004,201.94902c0,24.47103 -22.06404,32.36059 -49.34322,32.36059c-27.27918,0 -49.34322,-7.88957 -49.34322,-32.36059c0,-11.50005 3.20932,-24.73847 10.29655,-35.43619l-5.75002,-19.38961c-1.06977,-3.61048 2.67443,-7.08724 6.15119,-5.6163l19.12217,8.02329c5.6163,-2.54071 12.03493,-4.01164 19.52333,-4.01164c7.35468,0 13.77331,1.60466 19.38961,4.14537l19.25589,-8.02329c3.47676,-1.47094 7.22096,2.00582 6.15119,5.6163l-5.88374,19.65705c6.95352,10.564 10.29655,23.6687 10.43027,35.03502z" fill="#ff7319" stroke="none" stroke-width="1" stroke-linecap="butt"/><path d="M257.7586,217.46071c0,12.83726 -17.25007,16.98263 -38.6455,16.98263c-21.39543,0 -38.6455,-4.14537 -38.6455,-16.98263c0,-12.83726 11.50005,-29.55244 38.6455,-29.55244c26.61057,0 38.6455,16.71518 38.6455,29.55244z" fill="#ffffff" stroke="none" stroke-width="1" stroke-linecap="butt"/><path d="M214.83401,193.79201c0,-1.73838 1.8721,-2.27326 4.27909,-2.27326c2.40699,0 4.27909,0.53489 4.27909,2.27326c0,1.73838 -1.33721,3.87792 -4.27909,3.87792c-2.94187,0 -4.27909,-2.13954 -4.27909,-3.87792z" fill="#945600" stroke="#000000" stroke-width="1.5" stroke-linecap="butt"/><path d="M211.75842,206.62927c4.01164,0 7.35468,-3.34304 7.35468,-7.35468c0,-0.26744 0,-0.26744 0,-0.26744c0,-0.26744 0,-0.40116 0,-0.40116c0,0 0,0.13372 0,0.40116c0,0 0,0 0,0.26744c0,4.14537 3.34304,7.35468 7.35468,7.35468" fill="none" stroke="#000000" stroke-width="2.5" stroke-linecap="round"/><path d="M206.58627,179.08265c0,-2.28942 1.85595,-4.14537 4.14537,-4.14537c2.28942,0 4.14537,1.85595 4.14537,4.14537c0,2.28942 -1.85595,4.14537 -4.14537,4.14537c-2.28942,0 -4.14537,-1.85595 -4.14537,-4.14537z" fill="#000000" stroke="none" stroke-width="1" stroke-linecap="butt"/><path d="M223.70262,179.08265c0,-2.28942 1.85595,-4.14537 4.14537,-4.14537c2.28942,0 4.14537,1.85595 4.14537,4.14537c0,2.28942 -1.85595,4.14537 -4.14537,4.14537c-2.28942,0 -4.14537,-1.85595 -4.14537,-4.14537z" fill="#000000" stroke="none" stroke-width="1" stroke-linecap="butt"/><path d="M189.15949,156.88489c-2.80815,2.40699 -5.08142,4.68025 -7.22096,8.15701l-5.21514,-18.0524c-0.40116,-2.13954 1.60466,-4.01164 3.7442,-3.34304l17.25007,7.22096c-3.87792,1.60466 -6.15119,3.7442 -8.55817,6.01747z" fill="#77500c" stroke="none" stroke-width="1" stroke-linecap="butt"/><path d="M241.04342,150.86742l17.25007,-7.22096c2.13954,-0.66861 4.14537,1.20349 3.7442,3.34304l-5.08142,18.0524c-2.00582,-3.47676 -4.41281,-5.75002 -7.08724,-8.15701c-2.67443,-2.27326 -4.94769,-4.41281 -8.82562,-6.01747z" fill="#77500c" stroke="none" stroke-width="1" stroke-linecap="butt"/><path d="M214.82984,177.46589c0.26744,0 0.26744,0 0.26744,0c0.26744,0 0.40116,0 0.40116,0c0,0 -0.13372,0 -0.40116,0c0,0 0,0 -0.26744,0c-4.01164,0 -7.35468,-3.34304 -7.35468,-7.35468" fill="none" stroke="#000000" stroke-width="2.5" stroke-linecap="round"/><path d="M230.99545,169.88142c0,4.01164 -3.34304,7.35468 -7.35468,7.35468c-0.26744,0 -0.26744,0 -0.26744,0c-0.26744,0 -0.40116,0 -0.40116,0c0,0 0.13372,0 0.40116,0c0,0 0,0 0.26744,0" data-paper-data="{&quot;index&quot;:null}" fill="none" stroke="#000000" stroke-width="2.5" stroke-linecap="round"/><g stroke-linecap="butt"><path d="M271.63627,137.15261l-6.74589,-20.40006l7.8087,-18.91914l19.48504,-8.99491l22.35224,9.22568l7.77267,20.85191l-7.27386,17.62331l-18.19581,11.01555z" fill="#f40000" stroke="#820000" stroke-width="2.5"/><text transform="translate(272.96218,116.37659) rotate(22.42795) scale(0.41244,0.41569) skewX(0)" font-size="40" xml:space="preserve" fill="#f5f5f5" fill-rule="nonzero" stroke="none" stroke-width="1" stroke-linecap="butt" stroke-linejoin="miter" stroke-miterlimit="10" stroke-dasharray="" stroke-dashoffset="0" font-family="Sans Serif" font-weight="normal" text-anchor="start" style="mix-blend-mode: normal"><tspan x="0" dy="0">STOP</tspan></text></g></g></g></svg>