<svg version="1.1" xmlns="http://www.w3.org/2000/svg" xmlns:xlink="http://www.w3.org/1999/xlink" width="333.45" height="191.0586" viewBox="0,0,333.45,191.0586"><g transform="translate(-69.64999,-45.7414)"><g data-paper-data="{&quot;isPaintingLayer&quot;:true}" fill-rule="nonzero" stroke-linejoin="miter" stroke-miterlimit="10" stroke-dasharray="" stroke-dashoffset="0" style="mix-blend-mode: normal"><path d="M172.84999,226v-104h224v99" fill="none" stroke="#350a00" stroke-width="12.5" stroke-linecap="round"/><path d="M69.64999,235.4v-18.3l9,4.7l10.8,-4l10.6,5.6l6.3,-6.3v18.3z" fill="#0fbd8c" stroke="none" stroke-width="1" stroke-linecap="butt"/><path d="M156.44999,212.3l1.3,18.3l-9.3,-4l-10.5,4.8l-10.9,-4.8l-5.9,6.8l-1.3,-18.3z" fill="#0fbd8c" stroke="none" stroke-width="1" stroke-linecap="butt"/><path d="M119.34999,229.1l-1.3,6.9l-4.9,-2.2l-2.6,3l-0.6,-8.2z" fill="#0fbd8c" stroke="none" stroke-width="1" stroke-linecap="butt"/><path d="M82.94999,228.2c0,0 0.6,-2.1 1.7,-2.9c1.1,-0.8 2.7,-1.2 3.6,-1.2c0.7,0 3,0.5 3.9,1c1.6,0.9 1.7,3.1 1.7,3.1" fill="none" stroke="#ffffff" stroke-width="1.5" stroke-linecap="round"/><path d="M81.04999,225.9c0,0 0.8,-2.7 2.3,-3.8c1.5,-1 3.6,-1.6 4.8,-1.6c1,0 4,0.6 5.2,1.3c2.1,1.2 2.3,4.1 2.3,4.1" fill="none" stroke="#ffffff" stroke-width="1.5" stroke-linecap="round"/><path d="M90.54999,231.3c0,1 -0.8,1.8 -1.8,1.8c-1,0 -1.8,-0.8 -1.8,-1.8c0,-1 0.8,-1.8 1.8,-1.8c1,0 1.8,0.8 1.8,1.8z" fill="#ffffff" stroke="none" stroke-width="1" stroke-linecap="butt"/><path d="M85.34999,229.7c0,0 0.4,-1.3 1.1,-1.8c0.7,-0.5 1.7,-0.8 2.2,-0.8c0.4,0 1.8,0.3 2.4,0.6c1,0.6 1.1,1.9 1.1,1.9" fill="none" stroke="#ffffff" stroke-width="1.5" stroke-linecap="round"/><g><path d="M258.34999,91.2c0,18.3 -16.5,24.2 -36.9,24.2c-20.4,0 -36.9,-5.9 -36.9,-24.2c0,-8.6 2.4,-18.5 7.7,-26.5l-4.3,-14.5c-0.8,-2.7 2,-5.3 4.6,-4.2l14.3,6c4.2,-1.9 9,-3 14.6,-3c5.5,0 10.3,1.2 14.5,3.1l14.4,-6c2.6,-1.1 5.4,1.5 4.6,4.2l-4.4,14.7c5.3,8 7.8,17.7 7.8,26.2z" fill="#ff7319" stroke="none" stroke-width="1" stroke-linecap="butt"/><path d="M250.34999,102.8c0,9.6 -12.9,12.7 -28.9,12.7c-16,0 -28.9,-3.1 -28.9,-12.7c0,-9.6 8.6,-22 28.9,-22c19.8,0 28.9,12.4 28.9,22z" fill="#ffffff" stroke="none" stroke-width="1" stroke-linecap="butt"/><path d="M218.14999,85.2c0,-1.3 1.4,-1.7 3.2,-1.7c1.8,0 3.2,0.4 3.2,1.7c0,1.3 -1,2.9 -3.2,2.9c-2.1,0 -3.2,-1.7 -3.2,-2.9z" fill="#945600" stroke="#000000" stroke-width="1.5" stroke-linecap="butt"/><g fill="none" stroke="#000000" stroke-width="2.5" stroke-linecap="round"><path d="M215.94999,94.8c3,0 5.5,-2.5 5.5,-5.5c0,-0.2 0,-0.2 0,-0.2c0,-0.2 0,-0.3 0,-0.3c0,0 0,0.1 0,0.3c0,0 0,0 0,0.2c0,3.1 2.5,5.5 5.5,5.5"/></g><path d="M206.44999,77.2c0,-1.71208 1.38792,-3.1 3.1,-3.1c1.71208,0 3.1,1.38792 3.1,3.1c0,1.71208 -1.38792,3.1 -3.1,3.1c-1.71208,0 -3.1,-1.38792 -3.1,-3.1z" fill="#000000" stroke="none" stroke-width="1" stroke-linecap="butt"/><path d="M219.24999,77.2c0,-1.71208 1.38792,-3.1 3.1,-3.1c1.71208,0 3.1,1.38792 3.1,3.1c0,1.71208 -1.38792,3.1 -3.1,3.1c-1.71208,0 -3.1,-1.38792 -3.1,-3.1z" fill="#000000" stroke="none" stroke-width="1" stroke-linecap="butt"/><path d="M198.94999,57.6c-2.1,1.8 -3.8,3.5 -5.4,6.1l-3.9,-13.5c-0.3,-1.6 1.2,-3 2.8,-2.5l12.9,5.4c-2.9,1.2 -4.6,2.8 -6.4,4.5z" fill="#77500c" stroke="none" stroke-width="1" stroke-linecap="butt"/><path d="M237.84999,53.1l12.9,-5.4c1.6,-0.5 3.1,0.9 2.8,2.5l-3.9,13.5c-1.6,-2.6 -3.3,-4.3 -5.4,-6.1c-1.8,-1.7 -3.5,-3.3 -6.4,-4.5z" fill="#77500c" stroke="none" stroke-width="1" stroke-linecap="butt"/></g></g></g></svg>