<svg version="1.1" xmlns="http://www.w3.org/2000/svg" xmlns:xlink="http://www.w3.org/1999/xlink" width="230.89115" height="112.01569" viewBox="0,0,230.89115,112.01569"><g transform="translate(-124.41114,-123.99216)"><g data-paper-data="{&quot;isPaintingLayer&quot;:true}" fill-rule="nonzero" stroke-linejoin="miter" stroke-miterlimit="10" stroke-dasharray="" stroke-dashoffset="0" style="mix-blend-mode: normal"><g stroke="none" stroke-linecap="butt"><path d="M269.48777,170.35762v-42.26233h40.62108v42.26233z" fill="#004502" stroke-width="0"/><path d="M296.19629,144.09753c0,2.5 -2.5,2.5 -2.5,2.5h-1.64126c-3.05937,0 -9.3646,1.02771 -11.53479,-1.96041c-1.26955,-1.74804 1.05181,-4.38015 0.47978,-6.46346c-0.08817,-0.32111 -0.65423,0.17263 -0.9868,0.15566c-3.20799,-0.16369 -5.46299,-0.55365 -8.60771,0.37606c0,0 -2.40381,0.6868 -3.09061,-1.71701c-0.6868,-2.40381 1.71701,-3.09061 1.71701,-3.09061c3.56541,-0.99079 7.42216,-1.53412 11.08736,-0.44457c1.38275,0.41105 3.17898,0.56956 3.93697,1.79692c0.93743,1.5179 0.5567,3.55011 0.46561,5.33182c-0.02654,0.51915 -0.95714,0.83725 -0.80645,1.33476c0.11204,0.36991 0.73606,-0.26468 1.12138,-0.29499c0.42166,-0.03317 5.99141,-0.02416 6.21827,-0.02416h1.64126c0,0 2.5,0 2.5,2.5z" fill="#006603" stroke-width="0.5"/><path d="M303.54383,132.57063c2.5,0 2.5,2.5 2.5,2.5v2.05157c0,2.99757 0.74839,8.36494 -0.14093,11.08536c-0.42659,1.30494 -1.43014,2.42987 -2.5327,3.24792c-0.74104,0.54982 -2.01763,0.00482 -2.69533,0.63106c-0.37092,0.34275 0.40411,0.94485 0.44519,1.44821c0.32749,4.01302 0.20884,6.41861 1.51296,10.28791c0,0 0.79057,2.37171 -1.58114,3.16228c-2.37171,0.79057 -3.16228,-1.58114 -3.16228,-1.58114c-1.35497,-4.1051 -1.99405,-7.50769 -1.76955,-11.86904c0.07401,-1.43783 -0.38379,-3.11906 0.44519,-4.29618c1.0256,-1.45633 4.35976,-0.92386 4.61951,-2.68604c0.41837,-2.83832 -0.14093,-6.53665 -0.14093,-9.43033v-2.05157c0,0 0,-2.5 2.5,-2.5z" fill="#006603" stroke-width="0.5"/></g><g stroke="none" stroke-width="0" stroke-linecap="butt"><path d="M206.65005,188.38595l3.15422,-10.38434c0,0 6.67335,1.9041 9.48478,2.70629c2.25076,0.64221 2.61866,3.80734 2.61866,3.80734l-1.48844,5.88688c0,0 -3.25908,1.06374 -4.6387,0.72988c-2.4188,-0.58533 -9.13052,-2.74605 -9.13052,-2.74605z" fill="#5d5d5d"/><path d="M190.67108,213.97466l9.28531,-32.54243l8.84305,2.52318l-9.28531,32.54244z" fill="#686868"/><path d="M185.34264,219.91343l4.54173,-15.9175l15.56377,4.44081l-4.54173,15.9175z" fill="#5d5d5d"/><path d="M195.30794,186.45299c0,0 0.92311,-4.57589 1.72466,-7.38509c0.22403,-0.78519 -1.51022,-2.97459 -3.97428,-3.5336c-1.69332,-0.38415 -4.11757,1.00174 -4.93505,0.12251c-1.69907,-1.82742 1.84812,-6.02728 1.84812,-6.02728c0,0 1.95726,0.55846 5.80356,1.65592c1.36163,0.38852 2.15412,1.95345 4.77572,2.70147c5.65353,1.61312 13.70163,3.71822 13.70163,3.71822l-4.06256,13.56784z" fill="#5d5d5d"/></g><path d="M198.49772,203.25091c0,18.3 -16.5,24.2 -36.9,24.2c-20.4,0 -36.9,-5.9 -36.9,-24.2c0,-8.6 2.4,-18.5 7.7,-26.5l-4.3,-14.5c-0.8,-2.7 2,-5.3 4.6,-4.2l14.3,6c4.2,-1.9 9,-3 14.6,-3c5.5,0 10.3,1.2 14.5,3.1l14.4,-6c2.6,-1.1 5.4,1.5 4.6,4.2l-4.4,14.7c5.2,7.9 7.7,17.7 7.8,26.2z" fill="#ff7319" stroke="none" stroke-width="1" stroke-linecap="butt"/><path d="M190.39771,214.85091c0,9.6 -12.9,12.7 -28.9,12.7c-16,0 -28.9,-3.1 -28.9,-12.7c0,-9.6 8.6,-22.1 28.9,-22.1c19.9,0 28.9,12.5 28.9,22.1z" fill="#ffffff" stroke="none" stroke-width="1" stroke-linecap="butt"/><path d="M163.49936,185.94367c0,-1.71208 1.38792,-3.1 3.1,-3.1c1.71208,0 3.1,1.38792 3.1,3.1c0,1.71208 -1.38792,3.1 -3.1,3.1c-1.71208,0 -3.1,-1.38792 -3.1,-3.1z" fill="#000000" stroke="none" stroke-width="1" stroke-linecap="butt"/><path d="M177.55055,184.7987c0,-1.71208 1.38792,-3.1 3.1,-3.1c1.71208,0 3.1,1.38792 3.1,3.1c0,1.71208 -1.38792,3.1 -3.1,3.1c-1.71208,0 -3.1,-1.38792 -3.1,-3.1z" fill="#000000" stroke="none" stroke-width="1" stroke-linecap="butt"/><path d="M139.09772,169.55091c-2.1,1.8 -3.8,3.5 -5.4,6.1l-3.9,-13.5c-0.3,-1.6 1.2,-3 2.8,-2.5l12.9,5.4c-2.9,1.2 -4.6,2.8 -6.4,4.5z" fill="#77500c" stroke="none" stroke-width="1" stroke-linecap="butt"/><path d="M177.89771,165.05091l12.9,-5.4c1.6,-0.5 3.1,0.9 2.8,2.5l-3.8,13.5c-1.5,-2.6 -3.3,-4.3 -5.3,-6.1c-2,-1.7 -3.7,-3.3 -6.6,-4.5z" fill="#77500c" stroke="none" stroke-width="1" stroke-linecap="butt"/><path d="M174.94554,196.50163v6.53572" fill="none" stroke="#000000" stroke-width="2.5" stroke-linecap="round"/><path d="M171.59451,193.77037c0,-1.3 1.4,-1.7 3.2,-1.7c1.8,0 3.2,0.4 3.2,1.7c0,1.3 -1,2.9 -3.2,2.9c-2.2,0 -3.2,-1.6 -3.2,-2.9z" fill="#945600" stroke="#000000" stroke-width="1.5" stroke-linecap="butt"/><path d="M182.86502,204.65727c0,1.14953 -0.78678,3.09234 -2.29642,3.74868c-1.09159,0.47458 -4.12022,-0.89792 -5.61212,-0.89792c-1.82568,0 -5.68089,1.59966 -6.85241,0.91944c-0.54615,-0.31712 -2.97303,-1.9818 -3.05546,-3.70575c-0.08507,-1.7791 2.16,-3.26475 2.55108,-3.55891c1.65527,-1.24506 3.80163,-0.82764 7.35679,-0.82764c2.78655,0 3.7146,-0.22758 5.09898,0.46876c0.38185,0.19207 2.80955,3.42512 2.80955,3.85335z" fill="#000000" stroke="#000000" stroke-width="2.5" stroke-linecap="butt"/><g stroke="none" stroke-width="0" stroke-linecap="butt"><path d="M194.87231,177.06933c0,7.77057 -13.43554,-0.82764 -32.27789,-0.82764c-12.59673,0 -28.93265,12.44994 -34.84239,8.26175c-2.93012,-2.07656 1.27902,-17.76762 3.11626,-19.5728c7.90855,-7.77057 12.72412,-11.5311 31.54221,-10.57538c7.64827,0.38844 16.94824,1.22491 22.16071,5.24936c9.0064,6.95368 10.3011,12.97644 10.3011,17.46471z" fill="#ec8e00"/><path d="M195.46701,175.17211c0.16295,0.65858 0.49302,3.35589 -1.04986,4.34663c-4.80965,3.08847 -18.56787,1.5803 -33.27479,5.21912c-19.42473,4.80612 -35.71546,6.50408 -36.38637,3.79251c-0.23628,-0.95495 -1.26255,-4.7204 1.9298,-6.31042c5.87232,-2.92485 20.07784,-4.45152 32.94661,-6.01413c22.9192,-2.78301 35.1637,-3.74528 35.83461,-1.03371z" fill="#ff9900"/><path d="M170.22707,168.24118c0,2.02535 1.72057,7.40984 1.19734,9.0078c-0.9594,2.93003 -4.68396,1.38366 -6.62297,1.38366c-1.58623,0 -3.93307,2.00684 -4.92515,-0.07165c-0.88202,-1.84791 -0.50047,-7.61879 -0.50047,-10.3198c0,-3.11346 -7.19362,-12.34431 -6.06103,-14.24882c0.95511,-1.60606 8.4605,-1.10846 9.83138,-1.10846c2.99649,0 7.08091,9.61823 7.08091,15.35728z" fill="#ff9900"/></g><path d="M244.90257,223.28812c0,0 -2.05157,-1.66754 -2.05157,-6.97534c0,-12.14516 0,-61.25224 0,-82.47309c0,-6.06131 2.46188,-7.79596 2.46188,-7.79596c0,0 2.72852,-2.05157 7.38565,-2.05157c4.24707,0 13.51046,0 23.44916,0c-0.32101,3.78885 0.10079,7.11721 2.99968,10.28389c0.94414,1.03136 1.85649,2.1315 3.01038,2.92121c0.07334,0.05019 3.34521,0.67656 3.39827,1.74537c0.09821,1.97796 -1.15635,3.82279 -1.29514,5.79832c-0.32965,4.69196 0.59923,10.11999 4.61484,13.19986c1.26488,0.97013 5.25964,2.58757 6.88892,3.28359c2.02417,0.56634 4.13447,0.86841 6.23512,0.94091c0.4989,0.01722 1.15567,-0.22015 1.49,0.15054c0.44992,0.49886 0.05138,1.41079 0.42295,1.97046c2.05638,3.09741 4.5734,4.97702 7.46071,6.18052c0,20.34485 0,41.12786 0,47.89753c0,4.41142 -2.87219,5.33408 -2.87219,5.33408c0,0 -2.4371,3.28251 -9.84754,3.28251c-13.63578,0 -34.3858,0 -42.26233,0c-6.033,0 -11.48879,-3.69282 -11.48879,-3.69282z" fill="#444444" stroke="none" stroke-width="NaN" stroke-linecap="butt"/><path d="M253.51916,217.13341v-86.98654h23.14751c0.471,1.42043 1.25411,2.78928 2.4807,4.12918c0.94414,1.03136 1.85649,2.1315 3.01038,2.92121c0.07334,0.05019 3.34521,0.67656 3.39827,1.74537c0.09821,1.97796 -1.15635,3.82279 -1.29514,5.79832c-0.32965,4.69196 0.59923,10.11999 4.61484,13.19986c1.26488,0.97013 5.25964,2.58757 6.88892,3.28359c1.74027,0.48691 3.5442,0.77848 5.35093,0.89676v55.01226z" fill="#787878" stroke="none" stroke-width="0" stroke-linecap="butt"/><path d="M249.00571,152.71412v-6.97534h35.20498c-0.06988,2.32027 0.18701,4.76296 0.97974,6.97534z" fill="#444444" stroke="none" stroke-width="0" stroke-linecap="butt"/><path d="M246.54383,179.38453v-8.20627h59.49551v8.20627z" fill="#444444" stroke="none" stroke-width="0" stroke-linecap="butt"/><path d="M249.00571,203.18273v-7.38565h57.03363v7.38565z" fill="#444444" stroke="none" stroke-width="0" stroke-linecap="butt"/><path d="M296.60212,165.02354c0,1.13305 -0.91852,2.05157 -2.05157,2.05157c-1.13305,0 -2.05157,-0.91852 -2.05157,-2.05157c0,-1.13305 0.91852,-2.05157 2.05157,-2.05157c1.13305,0 2.05157,0.91852 2.05157,2.05157z" fill="#00ff52" stroke="none" stroke-width="0" stroke-linecap="butt"/><path d="M297.01244,187.79596c0,1.01975 -0.91852,1.84642 -2.05157,1.84642c-1.13305,0 -2.05157,-0.82667 -2.05157,-1.84642c0,-1.01975 0.91852,-1.84641 2.05157,-1.84641c1.13305,0 2.05157,0.82666 2.05157,1.84641z" fill="#00ff52" stroke="none" stroke-width="0" stroke-linecap="butt"/><path d="M297.01244,209.13229c0,0.79314 -0.64296,1.4361 -1.4361,1.4361c-0.79314,0 -1.4361,-0.64296 -1.4361,-1.4361c0,-0.79314 0.64297,-1.4361 1.4361,-1.4361c0.79314,0 1.4361,0.64296 1.4361,1.4361z" fill="#00ff52" stroke="none" stroke-width="0" stroke-linecap="butt"/><g stroke="none" stroke-linecap="butt"><path d="M338.05651,213.70403c-1.13296,0.01462 -2.06325,-0.89197 -2.07788,-2.02492c-0.01462,-1.13296 0.89197,-2.06325 2.02492,-2.07788c1.13296,-0.01462 2.06325,0.89197 2.07788,2.02492c0.01462,1.13296 -0.89197,2.06325 -2.02492,2.07788z" fill="#00ff52" stroke-width="0"/><g><path d="M355.29885,214.30217c0.08764,6.79021 -1.52461,9.04734 -1.52461,9.04734c0,0 -1.1023,2.47631 -5.71214,2.53581c-7.59413,0.09802 -20.1672,0.26031 -33.51426,0.43258c0.76649,-1.19571 1.79358,-2.28408 3.19554,-3.24897c0.87723,-0.60374 2.27677,-0.42105 2.93734,-1.25632c2.06236,-2.60781 1.22857,-6.53819 2.06816,-9.53555c0.29462,-0.70999 1.98019,-4.86935 2.39065,-5.4518c2.50836,-3.55944 7.85467,-3.0795 11.52637,-2.5437c1.58198,0.23086 3.19968,1.15633 4.74039,0.72953c1.60418,-0.44438 2.83105,-1.84403 3.89731,-3.12229c0.57754,-0.69237 0.37022,-1.80427 0.8493,-2.56808c2.21821,-3.53656 5.37859,-3.99612 8.90454,-3.72289c0.08628,6.68447 0.17226,13.34595 0.24142,18.70432z" fill="#444444" stroke-width="NaN"/><path d="M349.16054,215.61245l-26.89363,0.34713c0.08611,-1.27963 0.16415,-2.54791 0.48196,-3.6825c0.29462,-0.70999 1.98019,-4.86935 2.39065,-5.4518c2.50836,-3.55944 7.85467,-3.0795 11.52637,-2.5437c1.58198,0.23086 3.19968,1.15633 4.74039,0.72953c1.60418,-0.44438 2.83105,-1.84403 3.89731,-3.12229c0.57754,-0.69237 0.37022,-1.80427 0.8493,-2.56808c0.80558,-1.28435 1.73542,-2.16289 2.7619,-2.74788z" fill="#787878" stroke-width="0"/><path d="M333.65464,222.37816l-6.97475,0.09003l-0.21939,-16.99729c1.8891,-1.40362 4.4991,-1.65734 6.95613,-1.53258z" fill="#444444" stroke-width="0"/></g></g><path d="M313.80168,233.34081c0,1.47297 -1.10222,2.66704 -2.46188,2.66704c-1.35966,0 -2.46188,-1.19407 -2.46188,-2.66704c0,-1.47297 1.10222,-2.66704 2.46188,-2.66704c1.35966,0 2.46188,1.19407 2.46188,2.66704z" fill="#444444" stroke="none" stroke-width="0" stroke-linecap="butt"/><path d="M328.98329,229.23767c0,0.79314 -0.64296,1.4361 -1.4361,1.4361c-0.79314,0 -1.4361,-0.64296 -1.4361,-1.4361c0,-0.79314 0.64296,-1.4361 1.4361,-1.4361c0.79314,0 1.4361,0.64296 1.4361,1.4361z" fill="#444444" stroke="none" stroke-width="0" stroke-linecap="butt"/><path d="M285.86221,133.01906c0,-1.38071 1.11929,-2.5 2.5,-2.5c1.38071,0 2.5,1.11929 2.5,2.5c0,1.38071 -1.11929,2.5 -2.5,2.5c-1.38071,0 -2.5,-1.11929 -2.5,-2.5z" fill="#ffffff" stroke="none" stroke-width="0.5" stroke-linecap="butt"/><path d="M293.65818,132.60874c0,-1.38071 1.11929,-2.5 2.5,-2.5c1.38071,0 2.5,1.11929 2.5,2.5c0,1.38071 -1.11929,2.5 -2.5,2.5c-1.38071,0 -2.5,-1.11929 -2.5,-2.5z" fill="#ffffff" stroke="none" stroke-width="0.5" stroke-linecap="butt"/><path d="M300.63351,132.19843c0,-1.38071 1.11929,-2.5 2.5,-2.5c1.38071,0 2.5,1.11929 2.5,2.5c0,1.38071 -1.11929,2.5 -2.5,2.5c-1.38071,0 -2.5,-1.11929 -2.5,-2.5z" fill="#ffffff" stroke="none" stroke-width="0.5" stroke-linecap="butt"/></g></g></svg>