<svg version="1.1" xmlns="http://www.w3.org/2000/svg" xmlns:xlink="http://www.w3.org/1999/xlink" width="161.6" height="86" viewBox="0,0,161.6,86"><g transform="translate(-159.24969,-152.95)"><g data-paper-data="{&quot;isPaintingLayer&quot;:true}" stroke-linejoin="miter" stroke-miterlimit="10" stroke-dasharray="" stroke-dashoffset="0" style="mix-blend-mode: normal"><path d="M250.94969,234.65c-2,0 -3.8,-0.2 -5.3,-0.4c-2.8,-0.5 -2.7,-4.4 0.2,-4.9c1.5,-0.3 3.3,-0.4 5.2,-0.4c5.5,0 10,1.3 10,2.9c0,1.6 -4.5,2.8 -10.1,2.8z" fill="#000000" fill-rule="nonzero" stroke="none" stroke-width="1" stroke-linecap="butt"/><path d="M237.04969,235.15c-1.3,0 -2.4,-0.2 -3.4,-0.4c-1.8,-0.5 -1.7,-4.4 0.1,-4.9c1,-0.3 2.1,-0.4 3.3,-0.4c1.2,0 2.4,0.2 3.3,0.4c1.8,0.5 1.8,4.5 -0.2,5c-0.8,0.1 -1.9,0.3 -3.1,0.3z" fill="#000000" fill-rule="nonzero" stroke="none" stroke-width="1" stroke-linecap="butt"/><path d="M265.44969,225.35c-2,0 -3.8,-0.2 -5.3,-0.4c-2.8,-0.5 -2.7,-4.4 0.2,-4.9c1.5,-0.3 3.3,-0.4 5.2,-0.4c5.5,0 10,1.3 10,2.9c0,1.6 -4.5,2.8 -10.1,2.8z" fill="#000000" fill-rule="nonzero" stroke="none" stroke-width="1" stroke-linecap="butt"/><path d="M251.54969,225.85c-1.3,0 -2.4,-0.2 -3.4,-0.4c-1.8,-0.5 -1.7,-4.4 0.1,-4.9c1,-0.3 2.1,-0.4 3.3,-0.4c1.2,0 2.4,0.2 3.3,0.4c1.8,0.5 1.8,4.5 -0.2,5c-0.8,0.2 -1.9,0.3 -3.1,0.3z" fill="#000000" fill-rule="nonzero" stroke="none" stroke-width="1" stroke-linecap="butt"/><path d="M296.24969,234.65c-2,0 -3.8,-0.2 -5.3,-0.4c-2.8,-0.5 -2.7,-4.4 0.2,-4.9c1.5,-0.3 3.3,-0.4 5.2,-0.4c5.5,0 10,1.3 10,2.9c0,1.6 -4.6,2.8 -10.1,2.8z" fill="#000000" fill-rule="nonzero" stroke="none" stroke-width="1" stroke-linecap="butt"/><path d="M282.34969,235.15c-1.3,0 -2.4,-0.2 -3.4,-0.4c-1.8,-0.5 -1.7,-4.4 0.1,-4.9c1,-0.3 2.1,-0.4 3.3,-0.4c1.2,0 2.4,0.2 3.3,0.4c1.8,0.5 1.8,4.5 -0.2,5c-0.9,0.1 -1.9,0.3 -3.1,0.3z" fill="#000000" fill-rule="nonzero" stroke="none" stroke-width="1" stroke-linecap="butt"/><path d="M310.74969,225.35c-2,0 -3.8,-0.2 -5.3,-0.4c-2.8,-0.5 -2.7,-4.4 0.2,-4.9c1.5,-0.3 3.3,-0.4 5.2,-0.4c5.5,0 10,1.3 10,2.9c0,1.6 -4.6,2.8 -10.1,2.8z" fill="#000000" fill-rule="nonzero" stroke="none" stroke-width="1" stroke-linecap="butt"/><path d="M296.84969,225.85c-1.3,0 -2.4,-0.2 -3.4,-0.4c-1.8,-0.5 -1.7,-4.4 0.1,-4.9c1,-0.3 2.1,-0.4 3.3,-0.4c1.2,0 2.4,0.2 3.3,0.4c1.8,0.5 1.8,4.5 -0.2,5c-0.9,0.2 -1.9,0.3 -3.1,0.3z" fill="#000000" fill-rule="nonzero" stroke="none" stroke-width="1" stroke-linecap="butt"/><g><path d="M233.04969,214.65c0,18.3 -16.5,24.2 -36.9,24.2c-20.4,0 -36.9,-5.9 -36.9,-24.2c0,-8.6 2.4,-18.5 7.7,-26.5l-4.3,-14.5c-0.8,-2.7 2,-5.3 4.6,-4.2l14.3,6c4.2,-1.9 9,-3 14.6,-3c5.5,0 10.3,1.2 14.5,3.1l14.4,-6c2.6,-1.1 5.4,1.5 4.6,4.2l-4.4,14.7c5.2,7.9 7.7,17.7 7.8,26.2z" fill="#ff7319" fill-rule="nonzero" stroke="none" stroke-width="1" stroke-linecap="butt"/><path d="M224.94969,226.25c0,9.6 -12.9,12.7 -28.9,12.7c-16,0 -28.9,-3.1 -28.9,-12.7c0,-9.6 8.6,-22.1 28.9,-22.1c19.9,0 28.9,12.5 28.9,22.1z" fill="#ffffff" fill-rule="nonzero" stroke="none" stroke-width="1" stroke-linecap="butt"/><path d="M192.84969,208.55c0,-1.3 1.4,-1.7 3.2,-1.7c1.8,0 3.2,0.4 3.2,1.7c0,1.3 -1,2.9 -3.2,2.9c-2.2,0 -3.2,-1.6 -3.2,-2.9z" fill="#945600" fill-rule="nonzero" stroke="#000000" stroke-width="1.5" stroke-linecap="butt"/><g fill="none" fill-rule="nonzero" stroke="#000000" stroke-width="2.5" stroke-linecap="round"><path d="M190.54969,218.15c3,0 5.5,-2.5 5.5,-5.5c0,-0.2 0,-0.2 0,-0.2c0,-0.2 0,-0.3 0,-0.3c0,0 0,0.1 0,0.3c0,0 0,0 0,0.2c0,3.1 2.5,5.5 5.5,5.5"/></g><path d="M191.04969,197.55c0,-1.71208 1.38792,-3.1 3.1,-3.1c1.71208,0 3.1,1.38792 3.1,3.1c0,1.71208 -1.38792,3.1 -3.1,3.1c-1.71208,0 -3.1,-1.38792 -3.1,-3.1z" fill="#000000" fill-rule="nonzero" stroke="none" stroke-width="1" stroke-linecap="butt"/><path d="M203.84969,197.55c0,-1.71208 1.38792,-3.1 3.1,-3.1c1.71208,0 3.1,1.38792 3.1,3.1c0,1.71208 -1.38792,3.1 -3.1,3.1c-1.71208,0 -3.1,-1.38792 -3.1,-3.1z" fill="#000000" fill-rule="nonzero" stroke="none" stroke-width="1" stroke-linecap="butt"/><path d="M173.64969,180.95c-2.1,1.8 -3.8,3.5 -5.4,6.1l-3.9,-13.5c-0.3,-1.6 1.2,-3 2.8,-2.5l12.9,5.4c-2.9,1.2 -4.6,2.8 -6.4,4.5z" fill="#77500c" fill-rule="nonzero" stroke="none" stroke-width="1" stroke-linecap="butt"/><path d="M212.44969,176.45l12.9,-5.4c1.6,-0.5 3.1,0.9 2.8,2.5l-3.8,13.5c-1.5,-2.6 -3.3,-4.3 -5.3,-6.1c-2,-1.7 -3.7,-3.3 -6.6,-4.5z" fill="#77500c" fill-rule="nonzero" stroke="none" stroke-width="1" stroke-linecap="butt"/><path d="M197.34969,197.15h-7.4c-0.8,0 -1.4,-0.6 -1.4,-1.4v0c0,-0.8 0.6,-1.4 1.4,-1.4h7.4c0.8,0 1.4,0.6 1.4,1.4v0c0,0.7 -0.6,1.4 -1.4,1.4z" fill="#000000" fill-rule="nonzero" stroke="none" stroke-width="1" stroke-linecap="butt"/><g stroke="none" stroke-width="1" stroke-linecap="butt"><path d="M208.34969,177.95c2.6,-0.1 14.6,-0.1 18.3,0.1c2.4,0.1 6.7,0.2 6.6,1.9c-0.1,2.2 -17,1.9 -17,1.9c0,0 -8,-3.2 -7.9,-3.9z" fill="#305959" fill-rule="evenodd"/><path d="M185.54969,181.25l-10.6,-0.2c-2.2,-12.1 3.8,-25.2 20.1,-26.7z" fill="#68a19a" fill-rule="evenodd"/><path d="M216.34969,181.85l-30.8,-0.6c0,0 -3.1,-17.6 9.5,-26.9c17.2,3.2 22.9,14.3 21.3,27.5z" fill="#508276" fill-rule="evenodd"/><path d="M197.14969,154.75c0,0.8 -0.9,1 -2,1c-1.1,0 -2,-0.2 -2,-1c0,-0.8 0.6,-1.8 2,-1.8c1.4,0 2,1 2,1.8z" fill="#281446" fill-rule="nonzero"/></g><g fill-rule="nonzero"><path d="M227.24969,204.75l12.4,-12.4" fill="none" stroke="#7b7b7b" stroke-width="2.5" stroke-linecap="round"/><path d="M237.24969,186.05c0,-4.5 3.6,-8.1 8.1,-8.1c4.5,0 8.1,3.6 8.1,8.1c0,4.5 -3.6,8.1 -8.1,8.1c-4.5,0 -8.1,-3.6 -8.1,-8.1z" fill="#ffffff" stroke="none" stroke-width="1" stroke-linecap="butt" opacity="0.5"/><path d="M237.24969,186.05c0,-4.5 3.6,-8.1 8.1,-8.1c4.5,0 8.1,3.6 8.1,8.1c0,4.5 -3.6,8.1 -8.1,8.1c-4.5,0 -8.1,-3.6 -8.1,-8.1z" fill="none" stroke="#7b7b7b" stroke-width="2" stroke-linecap="butt"/></g></g></g></g></svg>