<svg version="1.1" xmlns="http://www.w3.org/2000/svg" xmlns:xlink="http://www.w3.org/1999/xlink" width="186.82796" height="96.09938" viewBox="0,0,186.82796,96.09938"><g transform="translate(-226.58602,-131.95031)"><g data-paper-data="{&quot;isPaintingLayer&quot;:true}" fill-rule="nonzero" stroke-linejoin="miter" stroke-miterlimit="10" stroke-dasharray="" stroke-dashoffset="0" style="mix-blend-mode: normal"><g stroke="none" stroke-width="0" stroke-linecap="butt"><path d="M308.82493,188.88473l3.15422,-10.38434c0,0 6.67335,1.9041 9.48478,2.70629c2.25076,0.64221 2.61866,3.80734 2.61866,3.80734l-1.48844,5.88688c0,0 -3.25908,1.06374 -4.6387,0.72988c-2.4188,-0.58533 -9.13052,-2.74605 -9.13052,-2.74605z" fill="#5d5d5d"/><path d="M292.84596,214.47344l9.28531,-32.54243l8.84305,2.52318l-9.28531,32.54244z" fill="#686868"/><path d="M287.51752,220.41221l4.54173,-15.9175l15.56377,4.44081l-4.54173,15.9175z" fill="#5d5d5d"/><path d="M297.48282,186.95177c0,0 0.92311,-4.57589 1.72466,-7.38509c0.22403,-0.78519 -1.51022,-2.97459 -3.97428,-3.5336c-1.69332,-0.38415 -4.11757,1.00174 -4.93505,0.12251c-1.69907,-1.82742 1.84812,-6.02728 1.84812,-6.02728c0,0 1.95726,0.55846 5.80356,1.65592c1.36163,0.38852 2.15412,1.95345 4.77572,2.70147c5.65353,1.61312 13.70163,3.71822 13.70163,3.71822l-4.06256,13.56784z" fill="#5d5d5d"/></g><path d="M300.6726,203.74969c0,18.3 -16.5,24.2 -36.9,24.2c-20.4,0 -36.9,-5.9 -36.9,-24.2c0,-8.6 2.4,-18.5 7.7,-26.5l-4.3,-14.5c-0.8,-2.7 2,-5.3 4.6,-4.2l14.3,6c4.2,-1.9 9,-3 14.6,-3c5.5,0 10.3,1.2 14.5,3.1l14.4,-6c2.6,-1.1 5.4,1.5 4.6,4.2l-4.4,14.7c5.2,7.9 7.7,17.7 7.8,26.2z" fill="#ff7319" stroke="none" stroke-width="1" stroke-linecap="butt"/><path d="M292.57259,215.34969c0,9.6 -12.9,12.7 -28.9,12.7c-16,0 -28.9,-3.1 -28.9,-12.7c0,-9.6 8.6,-22.1 28.9,-22.1c19.9,0 28.9,12.5 28.9,22.1z" fill="#ffffff" stroke="none" stroke-width="1" stroke-linecap="butt"/><path d="M265.67424,186.44245c0,-1.71208 1.38792,-3.1 3.1,-3.1c1.71208,0 3.1,1.38792 3.1,3.1c0,1.71208 -1.38792,3.1 -3.1,3.1c-1.71208,0 -3.1,-1.38792 -3.1,-3.1z" fill="#000000" stroke="none" stroke-width="1" stroke-linecap="butt"/><path d="M279.72543,185.29748c0,-1.71208 1.38792,-3.1 3.1,-3.1c1.71208,0 3.1,1.38792 3.1,3.1c0,1.71208 -1.38792,3.1 -3.1,3.1c-1.71208,0 -3.1,-1.38792 -3.1,-3.1z" fill="#000000" stroke="none" stroke-width="1" stroke-linecap="butt"/><path d="M241.2726,170.04969c-2.1,1.8 -3.8,3.5 -5.4,6.1l-3.9,-13.5c-0.3,-1.6 1.2,-3 2.8,-2.5l12.9,5.4c-2.9,1.2 -4.6,2.8 -6.4,4.5z" fill="#77500c" stroke="none" stroke-width="1" stroke-linecap="butt"/><path d="M280.07259,165.54969l12.9,-5.4c1.6,-0.5 3.1,0.9 2.8,2.5l-3.8,13.5c-1.5,-2.6 -3.3,-4.3 -5.3,-6.1c-2,-1.7 -3.7,-3.3 -6.6,-4.5z" fill="#77500c" stroke="none" stroke-width="1" stroke-linecap="butt"/><path d="M273.76939,194.26915c0,-1.3 1.4,-1.7 3.2,-1.7c1.8,0 3.2,0.4 3.2,1.7c0,1.3 -1,2.9 -3.2,2.9c-2.2,0 -3.2,-1.6 -3.2,-2.9z" fill="#945600" stroke="#000000" stroke-width="1.5" stroke-linecap="butt"/><g stroke="none" stroke-width="0" stroke-linecap="butt"><path d="M297.04719,177.56811c0,7.77057 -13.43554,-0.82764 -32.27789,-0.82764c-12.59673,0 -28.93265,12.44994 -34.84239,8.26175c-2.93012,-2.07656 1.27902,-17.76762 3.11626,-19.5728c7.90855,-7.77057 12.72412,-11.5311 31.54221,-10.57538c7.64827,0.38844 16.94824,1.22491 22.16071,5.24936c9.0064,6.95368 10.3011,12.97644 10.3011,17.46471z" fill="#ec8e00"/><path d="M297.64189,175.67089c0.16295,0.65858 0.49302,3.35589 -1.04986,4.34663c-4.80965,3.08847 -18.56787,1.5803 -33.27479,5.21912c-19.42473,4.80612 -35.71546,6.50408 -36.38637,3.79251c-0.23628,-0.95495 -1.26255,-4.7204 1.9298,-6.31042c5.87232,-2.92485 20.07784,-4.45152 32.94661,-6.01413c22.9192,-2.78301 35.1637,-3.74528 35.83461,-1.03371z" fill="#ff9900"/><path d="M272.40195,168.73996c0,2.02535 1.72057,7.40984 1.19734,9.0078c-0.9594,2.93003 -4.68396,1.38366 -6.62297,1.38366c-1.58623,0 -3.93307,2.00684 -4.92515,-0.07165c-0.88202,-1.84791 -0.50047,-7.61879 -0.50047,-10.3198c0,-3.11346 -7.19362,-12.34431 -6.06103,-14.24882c0.95511,-1.60606 8.4605,-1.10846 9.83138,-1.10846c2.99649,0 7.08091,9.61823 7.08091,15.35728z" fill="#ff9900"/></g><path d="M285.31272,198.15755c0,2.25352 -1.87794,4.13146 -4.13146,4.13146c-2.25352,0 -4.13146,-1.80282 -4.13146,-4.13146c0,-0.15023 0,-0.15023 0,-0.15023c0,-0.15023 0,-0.22535 0,-0.22535c0,0 0,0.07512 0,0.22535c0,0 0,0 0,0.15023c0,2.25352 -1.87794,4.13146 -4.13146,4.13146c-2.25352,0 -4.13146,-1.80282 -4.13146,-4.13146" fill="none" stroke="#000000" stroke-width="2.5" stroke-linecap="round"/><g stroke="none" stroke-width="0" stroke-linecap="butt"><path d="M348.04354,223.07822c-2.90767,-3.23997 -3.18714,-8.924 -3.18714,-8.924v-71.39202c0,0 0.28474,-6.0216 3.18714,-8.924c2.9024,-2.9024 7.33043,-1.59357 7.33043,-1.59357l48.12587,0c0,0 4.69042,-1.21676 7.33043,1.59357c2.64001,2.81033 2.54971,8.924 2.54971,8.924v72.34816c0,0 0.52482,5.66861 -2.54971,8.924c-3.07454,3.25539 -8.28657,2.54971 -8.28657,2.54971l-46.5323,0c0,0 -5.06019,-0.26589 -7.96786,-3.50586z" fill="#444444"/><path d="M352.18683,151.68621v-14.66086h55.13758v14.66086z" fill="#787878"/><path d="M352.40611,172.30321v-14.66086h55.13759v14.66086z" fill="#787878"/><path d="M352.6254,194.19507v-14.66086h55.13759v14.66086z" fill="#787878"/><path d="M352.84468,215.76822v-14.66086h55.13759v14.66086z" fill="#787878"/><path d="M401.26884,211.76386c0,-1.32016 1.0702,-2.39036 2.39036,-2.39036c1.32016,0 2.39036,1.0702 2.39036,2.39036c0,1.32016 -1.0702,2.39036 -2.39036,2.39036c-1.32016,0 -2.39036,-1.0702 -2.39036,-2.39036z" fill="#00ff52"/><path d="M401.80683,190.31057c0,-1.32016 1.0702,-2.39035 2.39036,-2.39035c1.32016,0 2.39035,1.0702 2.39035,2.39035c0,1.32016 -1.0702,2.39036 -2.39035,2.39036c-1.32016,0 -2.39036,-1.0702 -2.39036,-2.39036z" fill="#00ff52"/><path d="M402.02612,168.85728c0,-1.32016 1.0702,-2.39035 2.39036,-2.39035c1.32016,0 2.39035,1.0702 2.39035,2.39035c0,1.32016 -1.0702,2.39036 -2.39035,2.39036c-1.32016,0 -2.39036,-1.0702 -2.39036,-2.39036z" fill="#00ff52"/><path d="M402.2454,148.36013c0,-1.32016 1.0702,-2.39035 2.39036,-2.39035c1.32016,0 2.39035,1.0702 2.39035,2.39035c0,1.32016 -1.0702,2.39036 -2.39035,2.39036c-1.32016,0 -2.39036,-1.0702 -2.39036,-2.39036z" fill="#00ff52"/></g></g></g></svg>