<svg width="350" height="200" viewBox="0 0 350 200" fill="none" xmlns="http://www.w3.org/2000/svg">
<g clip-path="url(#clip0_50_2)">
<rect width="350" height="200" fill="#F29E2E"/>
<path d="M218.797 128.397L256.791 122.623C261.811 117.216 268.119 112.23 275.985 107.889C283.677 103.248 291.149 100.277 298.342 98.6333L322.339 68.6172C328.028 63.8156 336.671 65.9553 339.015 72.7462L351.98 105.333C364.643 114.943 373.825 126.715 378.298 134.462C389.788 154.363 395.408 184.203 338.885 216.836C282.363 249.469 259.331 229.683 247.841 209.781C243.368 202.034 237.765 188.196 235.774 172.425L214.035 144.903C209.326 139.478 211.795 130.923 218.797 128.397Z" fill="#F29E2E"/>
<path fill-rule="evenodd" clip-rule="evenodd" d="M217.656 123.793L217.213 123.952C207.299 127.528 203.435 139.836 210.348 147.924L231.229 174.361C233.44 190.256 239.081 204.143 243.713 212.165C249.771 222.659 259.287 233.835 275.342 237.613C291.288 241.365 312.48 237.529 341.245 220.922C370.009 204.315 383.927 187.879 388.65 172.195C393.407 156.401 388.485 142.572 382.427 132.079C377.795 124.056 368.589 112.228 355.929 102.366L343.475 71.0634C339.927 61.0318 327.335 58.2251 319.282 65.0226L318.922 65.3264L295.659 94.4242C288.484 96.245 281.121 99.2909 273.626 103.803C265.97 108.038 259.652 112.891 254.487 118.195L217.656 123.793ZM256.791 122.623C261.811 117.216 268.12 112.231 275.986 107.89C283.677 103.249 291.15 100.278 298.342 98.6339L322.339 68.6177C328.028 63.8161 336.671 65.9558 339.015 72.7467L351.981 105.334C364.643 114.943 373.826 126.715 378.298 134.462C389.788 154.363 395.408 184.203 338.886 216.836C282.363 249.469 259.331 229.683 247.841 209.782C243.368 202.035 237.765 188.196 235.774 172.426L214.036 144.904C209.327 139.478 211.795 130.923 218.798 128.398L256.791 122.623Z" fill="#D68B00"/>
<path fill-rule="evenodd" clip-rule="evenodd" d="M217.656 123.793L217.213 123.952C207.299 127.528 203.435 139.836 210.348 147.924L231.229 174.361C233.44 190.256 239.081 204.143 243.713 212.165C249.771 222.659 259.287 233.835 275.342 237.613C291.288 241.365 312.48 237.529 341.245 220.922C370.009 204.315 383.927 187.879 388.65 172.195C393.407 156.401 388.485 142.572 382.427 132.079C377.795 124.056 368.589 112.228 355.929 102.366L343.475 71.0634C339.927 61.0318 327.335 58.2251 319.282 65.0226L318.922 65.3264L295.659 94.4242C288.484 96.245 281.121 99.2909 273.626 103.803C265.97 108.038 259.652 112.891 254.487 118.195L217.656 123.793ZM256.791 122.623C261.811 117.216 268.12 112.231 275.986 107.89C283.677 103.249 291.15 100.278 298.342 98.6339L322.339 68.6177C328.028 63.8161 336.671 65.9558 339.015 72.7467L351.981 105.334C364.643 114.943 373.826 126.715 378.298 134.462C389.788 154.363 395.408 184.203 338.886 216.836C282.363 249.469 259.331 229.683 247.841 209.782C243.368 202.035 237.765 188.196 235.774 172.426L214.036 144.904C209.327 139.478 211.795 130.923 218.798 128.398L256.791 122.623Z" fill="black" fill-opacity="0.5"/>
<path d="M336.291 212.342C363.652 196.546 381.482 176.206 371.19 158.38C360.899 140.554 329.25 130.338 299.022 147.79C268.793 165.242 261.817 197.759 272.109 215.585C282.401 233.411 308.931 228.139 336.291 212.342Z" fill="#F2F2F2"/>
<path d="M303.091 136.724L310.639 149.797C312.724 153.408 317.371 154.627 321.019 152.521C324.667 150.415 325.935 145.78 323.85 142.17L316.302 129.096C314.218 125.486 309.57 124.267 305.922 126.373C302.274 128.479 301.007 133.113 303.091 136.724Z" fill="#D68B00"/>
<path d="M303.091 136.724L310.639 149.797C312.724 153.408 317.371 154.627 321.019 152.521C324.667 150.415 325.935 145.78 323.85 142.17L316.302 129.096C314.218 125.486 309.57 124.267 305.922 126.373C302.274 128.479 301.007 133.113 303.091 136.724Z" fill="black" fill-opacity="0.5"/>
<path d="M274.192 153.408L281.741 166.482C283.825 170.093 288.472 171.312 292.12 169.206C295.768 167.099 297.036 162.465 294.952 158.855L287.403 145.781C285.319 142.171 280.672 140.951 277.024 143.058C273.376 145.164 272.108 149.798 274.192 153.408Z" fill="#D68B00"/>
<path d="M274.192 153.408L281.741 166.482C283.825 170.093 288.472 171.312 292.12 169.206C295.768 167.099 297.036 162.465 294.952 158.855L287.403 145.781C285.319 142.171 280.672 140.951 277.024 143.058C273.376 145.164 272.108 149.798 274.192 153.408Z" fill="black" fill-opacity="0.5"/>
<path d="M311.819 165.665C313.533 163.902 314.132 161.567 313.211 159.972C312.03 157.926 309.299 158.744 306.335 160.455C303.37 162.167 301.296 164.123 302.477 166.169C303.398 167.764 305.721 168.413 308.104 167.81L309.902 170.924C311.596 173.858 310.566 177.623 307.603 179.334C305.986 180.267 304.127 180.396 302.497 179.845C301.527 179.516 300.299 179.914 300.035 180.904L299.913 181.36C299.633 182.412 300.102 183.548 301.135 183.892C303.882 184.806 307.006 184.581 309.726 183.011C312.672 181.31 314.488 178.41 314.905 175.3C317.806 176.494 321.226 176.371 324.172 174.67C326.892 173.1 328.649 170.507 329.231 167.671C329.449 166.605 328.7 165.63 327.649 165.347L327.193 165.224C326.203 164.958 325.245 165.823 325.045 166.827C324.707 168.515 323.666 170.059 322.049 170.993C319.086 172.704 315.31 171.713 313.617 168.78L311.819 165.665Z" fill="#D68B00"/>
<path d="M311.819 165.665C313.533 163.902 314.132 161.567 313.211 159.972C312.03 157.926 309.299 158.744 306.335 160.455C303.37 162.167 301.296 164.123 302.477 166.169C303.398 167.764 305.721 168.413 308.104 167.81L309.902 170.924C311.596 173.858 310.566 177.623 307.603 179.334C305.986 180.267 304.127 180.396 302.497 179.845C301.527 179.516 300.299 179.914 300.035 180.904L299.913 181.36C299.633 182.412 300.102 183.548 301.135 183.892C303.882 184.806 307.006 184.581 309.726 183.011C312.672 181.31 314.488 178.41 314.905 175.3C317.806 176.494 321.226 176.371 324.172 174.67C326.892 173.1 328.649 170.507 329.231 167.671C329.449 166.605 328.7 165.63 327.649 165.347L327.193 165.224C326.203 164.958 325.245 165.823 325.045 166.827C324.707 168.515 323.666 170.059 322.049 170.993C319.086 172.704 315.31 171.713 313.617 168.78L311.819 165.665Z" fill="black" fill-opacity="0.5"/>
<path d="M28.5985 85.8148C28.5195 85.8148 28.4523 85.7911 28.397 85.7437C28.3496 85.6884 28.3259 85.6212 28.3259 85.5422V78.5733H26.0503C25.9713 78.5733 25.9042 78.5496 25.8489 78.5022C25.8014 78.4469 25.7777 78.3798 25.7777 78.3007V77.803C25.7777 77.7161 25.8014 77.6489 25.8489 77.6015C25.9042 77.5462 25.9713 77.5185 26.0503 77.5185H31.7629C31.8498 77.5185 31.917 77.5462 31.9644 77.6015C32.0197 77.6489 32.0474 77.7161 32.0474 77.803V78.3007C32.0474 78.3798 32.0197 78.4469 31.9644 78.5022C31.917 78.5496 31.8498 78.5733 31.7629 78.5733H29.4992V85.5422C29.4992 85.6212 29.4716 85.6884 29.4163 85.7437C29.3689 85.7911 29.3017 85.8148 29.2148 85.8148H28.5985ZM33.2633 85.8148C33.1843 85.8148 33.1171 85.7911 33.0618 85.7437C33.0144 85.6884 32.9907 85.6212 32.9907 85.5422V77.6726C32.9907 77.5936 33.0144 77.5304 33.0618 77.483C33.1171 77.4277 33.1843 77.4 33.2633 77.4H33.8559C33.9428 77.4 34.01 77.4277 34.0574 77.483C34.1048 77.5304 34.1285 77.5936 34.1285 77.6726V80.4341C34.3418 80.1654 34.6026 79.9482 34.9107 79.7822C35.2189 79.6163 35.61 79.5333 36.084 79.5333C36.5976 79.5333 37.0322 79.6479 37.3877 79.877C37.7512 80.0983 38.0238 80.4104 38.2055 80.8133C38.3952 81.2084 38.49 81.6706 38.49 82.2V85.5422C38.49 85.6212 38.4663 85.6884 38.4189 85.7437C38.3714 85.7911 38.3043 85.8148 38.2174 85.8148H37.6248C37.5458 85.8148 37.4786 85.7911 37.4233 85.7437C37.3759 85.6884 37.3522 85.6212 37.3522 85.5422V82.2593C37.3522 81.7062 37.2179 81.2756 36.9492 80.9674C36.6806 80.6514 36.2855 80.4933 35.764 80.4933C35.2742 80.4933 34.8791 80.6514 34.5789 80.9674C34.2786 81.2756 34.1285 81.7062 34.1285 82.2593V85.5422C34.1285 85.6212 34.1048 85.6884 34.0574 85.7437C34.01 85.7911 33.9428 85.8148 33.8559 85.8148H33.2633ZM42.6544 85.9333C41.8406 85.9333 41.1927 85.6844 40.7107 85.1867C40.2287 84.681 39.964 83.9936 39.9166 83.1244C39.9087 83.0217 39.9048 82.8914 39.9048 82.7333C39.9048 82.5674 39.9087 82.4331 39.9166 82.3304C39.9482 81.7694 40.0786 81.2795 40.3077 80.8607C40.5369 80.4341 40.849 80.1062 41.244 79.877C41.647 79.6479 42.1171 79.5333 42.6544 79.5333C43.2549 79.5333 43.7566 79.6598 44.1596 79.9126C44.5705 80.1654 44.8826 80.5249 45.0959 80.9911C45.3092 81.4573 45.4159 82.0025 45.4159 82.6267V82.8282C45.4159 82.9151 45.3882 82.9822 45.3329 83.0296C45.2855 83.077 45.2223 83.1007 45.1433 83.1007H41.0426C41.0426 83.1086 41.0426 83.1244 41.0426 83.1482C41.0426 83.1719 41.0426 83.1916 41.0426 83.2074C41.0584 83.5314 41.1295 83.8356 41.2559 84.12C41.3823 84.3965 41.564 84.6217 41.8011 84.7956C42.0381 84.9694 42.3226 85.0563 42.6544 85.0563C42.9389 85.0563 43.1759 85.0128 43.3655 84.9259C43.5551 84.839 43.7092 84.7442 43.8277 84.6415C43.9463 84.5309 44.0253 84.4479 44.0648 84.3926C44.1359 84.2899 44.1912 84.2306 44.2307 84.2148C44.2702 84.1911 44.3334 84.1793 44.4203 84.1793H44.9892C45.0682 84.1793 45.1314 84.203 45.1789 84.2504C45.2342 84.2899 45.2579 84.3491 45.25 84.4282C45.2421 84.5467 45.1789 84.6928 45.0603 84.8667C44.9418 85.0326 44.7719 85.1985 44.5507 85.3644C44.3295 85.5304 44.0608 85.6686 43.7448 85.7793C43.4287 85.882 43.0653 85.9333 42.6544 85.9333ZM41.0426 82.283H44.29V82.2474C44.29 81.8919 44.2228 81.5758 44.0885 81.2993C43.9621 81.0227 43.7764 80.8054 43.5314 80.6474C43.2865 80.4815 42.9942 80.3985 42.6544 80.3985C42.3147 80.3985 42.0223 80.4815 41.7774 80.6474C41.5403 80.8054 41.3586 81.0227 41.2322 81.2993C41.1058 81.5758 41.0426 81.8919 41.0426 82.2474V82.283ZM52.867 85.9333C52.1954 85.9333 51.6186 85.8188 51.1366 85.5896C50.6547 85.3526 50.2833 84.9931 50.0226 84.5111C49.7618 84.0212 49.6156 83.4089 49.584 82.6741C49.5761 82.3264 49.5722 81.9946 49.5722 81.6785C49.5722 81.3546 49.5761 81.0188 49.584 80.6711C49.6156 79.9442 49.7658 79.3398 50.0344 78.8578C50.311 78.3679 50.6902 78.0044 51.1722 77.7674C51.6621 77.5225 52.227 77.4 52.867 77.4C53.5149 77.4 54.0798 77.5225 54.5618 77.7674C55.0517 78.0044 55.4349 78.3679 55.7114 78.8578C55.988 79.3398 56.1381 79.9442 56.1618 80.6711C56.1776 81.0188 56.1855 81.3546 56.1855 81.6785C56.1855 81.9946 56.1776 82.3264 56.1618 82.6741C56.1381 83.4089 55.9919 84.0212 55.7233 84.5111C55.4626 84.9931 55.0912 85.3526 54.6092 85.5896C54.1272 85.8188 53.5465 85.9333 52.867 85.9333ZM52.867 84.9259C53.4754 84.9259 53.9692 84.7442 54.3485 84.3807C54.7356 84.0173 54.945 83.4286 54.9766 82.6148C54.9924 82.2593 55.0003 81.9432 55.0003 81.6667C55.0003 81.3822 54.9924 81.0662 54.9766 80.7185C54.9608 80.1733 54.8581 79.7309 54.6685 79.3911C54.4868 79.0514 54.2418 78.8025 53.9337 78.6444C53.6255 78.4864 53.27 78.4074 52.867 78.4074C52.4798 78.4074 52.1322 78.4864 51.824 78.6444C51.5159 78.8025 51.267 79.0514 51.0774 79.3911C50.8956 79.7309 50.7929 80.1733 50.7692 80.7185C50.7613 81.0662 50.7574 81.3822 50.7574 81.6667C50.7574 81.9432 50.7613 82.2593 50.7692 82.6148C50.8008 83.4286 51.0102 84.0173 51.3974 84.3807C51.7845 84.7442 52.2744 84.9259 52.867 84.9259ZM58.6478 85.8148C58.5688 85.8148 58.5017 85.7911 58.4464 85.7437C58.3989 85.6884 58.3752 85.6212 58.3752 85.5422V80.6H57.3678C57.2888 80.6 57.2217 80.5763 57.1664 80.5289C57.1189 80.4736 57.0952 80.4064 57.0952 80.3274V79.9244C57.0952 79.8454 57.1189 79.7822 57.1664 79.7348C57.2217 79.6795 57.2888 79.6519 57.3678 79.6519H58.3752V79.0593C58.3752 78.6563 58.4424 78.3047 58.5767 78.0044C58.711 77.6963 58.9244 77.4593 59.2167 77.2933C59.517 77.1274 59.916 77.0444 60.4138 77.0444H61.1249C61.2039 77.0444 61.2671 77.0721 61.3145 77.1274C61.3619 77.1748 61.3856 77.238 61.3856 77.317V77.72C61.3856 77.799 61.3619 77.8662 61.3145 77.9215C61.2671 77.9689 61.2039 77.9926 61.1249 77.9926H60.4375C60.0661 77.9926 59.8133 78.0914 59.6789 78.2889C59.5446 78.4785 59.4775 78.7551 59.4775 79.1185V79.6519H62.0138V79.0593C62.0138 78.6563 62.077 78.3047 62.2034 78.0044C62.3377 77.6963 62.551 77.4593 62.8434 77.2933C63.1436 77.1274 63.5427 77.0444 64.0404 77.0444H65.8775C65.9565 77.0444 66.0197 77.0721 66.0671 77.1274C66.1145 77.1748 66.1382 77.238 66.1382 77.317V77.72C66.1382 77.799 66.1145 77.8662 66.0671 77.9215C66.0197 77.9689 65.9565 77.9926 65.8775 77.9926H64.0641C63.6928 77.9926 63.4399 78.0914 63.3056 78.2889C63.1713 78.4785 63.1041 78.7551 63.1041 79.1185V79.6519H65.8775C65.9565 79.6519 66.0197 79.6795 66.0671 79.7348C66.1145 79.7822 66.1382 79.8454 66.1382 79.9244V85.5422C66.1382 85.6212 66.1145 85.6884 66.0671 85.7437C66.0197 85.7911 65.9565 85.8148 65.8775 85.8148H65.3204C65.2414 85.8148 65.1743 85.7911 65.1189 85.7437C65.0715 85.6884 65.0478 85.6212 65.0478 85.5422V80.6H63.1041V85.5422C63.1041 85.6212 63.0804 85.6884 63.033 85.7437C62.9856 85.7911 62.9185 85.8148 62.8315 85.8148H62.2864C62.2073 85.8148 62.1402 85.7911 62.0849 85.7437C62.0375 85.6884 62.0138 85.6212 62.0138 85.5422V80.6H59.4775V85.5422C59.4775 85.6212 59.4498 85.6884 59.3945 85.7437C59.3471 85.7911 59.2839 85.8148 59.2049 85.8148H58.6478ZM70.4214 85.9333C69.8605 85.9333 69.3745 85.8267 68.9637 85.6133C68.5607 85.3921 68.2486 85.08 68.0274 84.677C67.8061 84.2662 67.6876 83.7763 67.6718 83.2074C67.6639 83.0889 67.66 82.9309 67.66 82.7333C67.66 82.5358 67.6639 82.3778 67.6718 82.2593C67.6876 81.6904 67.8061 81.2044 68.0274 80.8015C68.2486 80.3906 68.5607 80.0785 68.9637 79.8652C69.3745 79.644 69.8605 79.5333 70.4214 79.5333C70.8797 79.5333 71.2708 79.5965 71.5948 79.723C71.9266 79.8494 72.1992 80.0114 72.4126 80.2089C72.6259 80.4064 72.7839 80.6198 72.8866 80.8489C72.9973 81.078 73.0565 81.2953 73.0644 81.5007C73.0723 81.5798 73.0486 81.643 72.9933 81.6904C72.938 81.7378 72.8708 81.7615 72.7918 81.7615H72.2229C72.1439 81.7615 72.0847 81.7457 72.0452 81.7141C72.0056 81.6746 71.9661 81.6114 71.9266 81.5244C71.7844 81.1373 71.5908 80.8647 71.3459 80.7067C71.101 80.5486 70.7968 80.4696 70.4333 80.4696C69.9592 80.4696 69.5721 80.6158 69.2718 80.9082C68.9795 81.2005 68.8214 81.6706 68.7977 82.3185C68.7898 82.603 68.7898 82.8795 68.7977 83.1482C68.8214 83.804 68.9795 84.278 69.2718 84.5704C69.5721 84.8548 69.9592 84.997 70.4333 84.997C70.7968 84.997 71.101 84.918 71.3459 84.76C71.5908 84.602 71.7844 84.3294 71.9266 83.9422C71.9661 83.8553 72.0056 83.7961 72.0452 83.7644C72.0847 83.7249 72.1439 83.7052 72.2229 83.7052H72.7918C72.8708 83.7052 72.938 83.7289 72.9933 83.7763C73.0486 83.8237 73.0723 83.8869 73.0644 83.9659C73.0565 84.1319 73.021 84.3017 72.9577 84.4756C72.8945 84.6494 72.7918 84.8272 72.6496 85.0089C72.5153 85.1827 72.3454 85.3407 72.14 85.483C71.9345 85.6173 71.6856 85.7279 71.3933 85.8148C71.1089 85.8938 70.7849 85.9333 70.4214 85.9333ZM74.7445 85.8148C74.6655 85.8148 74.5983 85.7911 74.543 85.7437C74.4956 85.6884 74.4719 85.6212 74.4719 85.5422V79.9244C74.4719 79.8454 74.4956 79.7822 74.543 79.7348C74.5983 79.6795 74.6655 79.6519 74.7445 79.6519H75.3134C75.3924 79.6519 75.4556 79.6795 75.503 79.7348C75.5504 79.7822 75.5741 79.8454 75.5741 79.9244V85.5422C75.5741 85.6212 75.5504 85.6884 75.503 85.7437C75.4556 85.7911 75.3924 85.8148 75.3134 85.8148H74.7445ZM74.6497 78.5022C74.5707 78.5022 74.5035 78.4785 74.4482 78.4311C74.4008 78.3758 74.3771 78.3086 74.3771 78.2296V77.5896C74.3771 77.5106 74.4008 77.4474 74.4482 77.4C74.5035 77.3447 74.5707 77.317 74.6497 77.317H75.3964C75.4754 77.317 75.5386 77.3447 75.586 77.4C75.6413 77.4474 75.6689 77.5106 75.6689 77.5896V78.2296C75.6689 78.3086 75.6413 78.3758 75.586 78.4311C75.5386 78.4785 75.4754 78.5022 75.3964 78.5022H74.6497ZM79.0608 85.9333C78.6657 85.9333 78.3062 85.8543 77.9823 85.6963C77.6583 85.5383 77.3976 85.3249 77.2001 85.0563C77.0025 84.7877 76.9038 84.4835 76.9038 84.1437C76.9038 83.5985 77.125 83.164 77.5675 82.84C78.0099 82.5161 78.5867 82.3027 79.2978 82.2L81.0638 81.9511V81.6074C81.0638 81.2282 80.9531 80.9319 80.7319 80.7185C80.5186 80.5052 80.167 80.3985 79.6771 80.3985C79.3215 80.3985 79.0331 80.4696 78.8119 80.6119C78.5986 80.7541 78.4485 80.9358 78.3615 81.157C78.3141 81.2756 78.2312 81.3348 78.1127 81.3348H77.5793C77.4924 81.3348 77.4252 81.3111 77.3778 81.2637C77.3383 81.2084 77.3186 81.1452 77.3186 81.0741C77.3186 80.9556 77.362 80.8094 77.4489 80.6356C77.5438 80.4617 77.686 80.2919 77.8756 80.1259C78.0652 79.96 78.3062 79.8217 78.5986 79.7111C78.8988 79.5926 79.2623 79.5333 79.6889 79.5333C80.163 79.5333 80.562 79.5965 80.886 79.723C81.2099 79.8415 81.4628 80.0035 81.6445 80.2089C81.8341 80.4143 81.9685 80.6474 82.0475 80.9082C82.1344 81.1689 82.1778 81.4336 82.1778 81.7022V85.5422C82.1778 85.6212 82.1502 85.6884 82.0949 85.7437C82.0475 85.7911 81.9843 85.8148 81.9052 85.8148H81.3601C81.2731 85.8148 81.206 85.7911 81.1586 85.7437C81.1112 85.6884 81.0875 85.6212 81.0875 85.5422V85.0326C80.9848 85.1748 80.8465 85.317 80.6727 85.4593C80.4988 85.5936 80.2815 85.7082 80.0208 85.803C79.7601 85.8899 79.4401 85.9333 79.0608 85.9333ZM79.3097 85.0444C79.6336 85.0444 79.9299 84.9773 80.1986 84.843C80.4672 84.7007 80.6766 84.4835 80.8267 84.1911C80.9848 83.8988 81.0638 83.5314 81.0638 83.0889V82.757L79.6889 82.9585C79.128 83.0375 78.7052 83.1719 78.4208 83.3615C78.1364 83.5432 77.9941 83.7763 77.9941 84.0607C77.9941 84.282 78.0573 84.4677 78.1838 84.6178C78.3181 84.76 78.484 84.8667 78.6815 84.9378C78.887 85.0089 79.0964 85.0444 79.3097 85.0444ZM84.1661 85.8148C84.0871 85.8148 84.0199 85.7911 83.9646 85.7437C83.9172 85.6884 83.8935 85.6212 83.8935 85.5422V77.6726C83.8935 77.5936 83.9172 77.5304 83.9646 77.483C84.0199 77.4277 84.0871 77.4 84.1661 77.4H84.7231C84.81 77.4 84.8772 77.4277 84.9246 77.483C84.972 77.5304 84.9957 77.5936 84.9957 77.6726V85.5422C84.9957 85.6212 84.972 85.6884 84.9246 85.7437C84.8772 85.7911 84.81 85.8148 84.7231 85.8148H84.1661ZM90.0953 85.8148C90.0163 85.8148 89.9492 85.7911 89.8939 85.7437C89.8464 85.6884 89.8227 85.6212 89.8227 85.5422V77.803C89.8227 77.7161 89.8464 77.6489 89.8939 77.6015C89.9492 77.5462 90.0163 77.5185 90.0953 77.5185H90.6879C90.7827 77.5185 90.8539 77.5422 90.9013 77.5896C90.9487 77.637 90.9763 77.6765 90.9842 77.7082L93.4968 82.4963L96.0213 77.7082C96.0371 77.6765 96.0647 77.637 96.1042 77.5896C96.1516 77.5422 96.2227 77.5185 96.3176 77.5185H96.8983C96.9852 77.5185 97.0524 77.5462 97.0998 77.6015C97.1551 77.6489 97.1827 77.7161 97.1827 77.803V85.5422C97.1827 85.6212 97.1551 85.6884 97.0998 85.7437C97.0524 85.7911 96.9852 85.8148 96.8983 85.8148H96.3176C96.2385 85.8148 96.1714 85.7911 96.1161 85.7437C96.0687 85.6884 96.045 85.6212 96.045 85.5422V79.7111L94.0657 83.5748C94.0341 83.6538 93.9867 83.717 93.9235 83.7644C93.8603 83.804 93.7813 83.8237 93.6864 83.8237H93.319C93.2163 83.8237 93.1334 83.804 93.0702 83.7644C93.0148 83.717 92.9674 83.6538 92.9279 83.5748L90.9487 79.7111V85.5422C90.9487 85.6212 90.921 85.6884 90.8657 85.7437C90.8183 85.7911 90.7551 85.8148 90.6761 85.8148H90.0953ZM101.532 85.9333C100.718 85.9333 100.07 85.6844 99.588 85.1867C99.106 84.681 98.8414 83.9936 98.7939 83.1244C98.786 83.0217 98.7821 82.8914 98.7821 82.7333C98.7821 82.5674 98.786 82.4331 98.7939 82.3304C98.8256 81.7694 98.9559 81.2795 99.1851 80.8607C99.4142 80.4341 99.7263 80.1062 100.121 79.877C100.524 79.6479 100.994 79.5333 101.532 79.5333C102.132 79.5333 102.634 79.6598 103.037 79.9126C103.448 80.1654 103.76 80.5249 103.973 80.9911C104.187 81.4573 104.293 82.0025 104.293 82.6267V82.8282C104.293 82.9151 104.266 82.9822 104.21 83.0296C104.163 83.077 104.1 83.1007 104.021 83.1007H99.9199C99.9199 83.1086 99.9199 83.1244 99.9199 83.1482C99.9199 83.1719 99.9199 83.1916 99.9199 83.2074C99.9357 83.5314 100.007 83.8356 100.133 84.12C100.26 84.3965 100.441 84.6217 100.678 84.7956C100.915 84.9694 101.2 85.0563 101.532 85.0563C101.816 85.0563 102.053 85.0128 102.243 84.9259C102.432 84.839 102.587 84.7442 102.705 84.6415C102.824 84.5309 102.903 84.4479 102.942 84.3926C103.013 84.2899 103.069 84.2306 103.108 84.2148C103.148 84.1911 103.211 84.1793 103.298 84.1793H103.867C103.946 84.1793 104.009 84.203 104.056 84.2504C104.111 84.2899 104.135 84.3491 104.127 84.4282C104.119 84.5467 104.056 84.6928 103.938 84.8667C103.819 85.0326 103.649 85.1985 103.428 85.3644C103.207 85.5304 102.938 85.6686 102.622 85.7793C102.306 85.882 101.943 85.9333 101.532 85.9333ZM99.9199 82.283H103.167V82.2474C103.167 81.8919 103.1 81.5758 102.966 81.2993C102.839 81.0227 102.654 80.8054 102.409 80.6474C102.164 80.4815 101.871 80.3985 101.532 80.3985C101.192 80.3985 100.9 80.4815 100.655 80.6474C100.418 80.8054 100.236 81.0227 100.11 81.2993C99.9831 81.5758 99.9199 81.8919 99.9199 82.2474V82.283ZM108.235 85.9333C107.634 85.9333 107.133 85.8188 106.73 85.5896C106.327 85.3605 106.018 85.0444 105.805 84.6415C105.592 84.2306 105.473 83.7644 105.45 83.243C105.442 83.1086 105.438 82.9388 105.438 82.7333C105.438 82.52 105.442 82.3501 105.45 82.2237C105.473 81.6943 105.592 81.2282 105.805 80.8252C106.026 80.4222 106.338 80.1062 106.741 79.877C107.144 79.6479 107.642 79.5333 108.235 79.5333C108.827 79.5333 109.325 79.6479 109.728 79.877C110.131 80.1062 110.439 80.4222 110.653 80.8252C110.874 81.2282 110.996 81.6943 111.02 82.2237C111.028 82.3501 111.032 82.52 111.032 82.7333C111.032 82.9388 111.028 83.1086 111.02 83.243C110.996 83.7644 110.878 84.2306 110.664 84.6415C110.451 85.0444 110.143 85.3605 109.74 85.5896C109.337 85.8188 108.835 85.9333 108.235 85.9333ZM108.235 85.0207C108.725 85.0207 109.116 84.8667 109.408 84.5585C109.7 84.2425 109.858 83.7842 109.882 83.1837C109.89 83.0652 109.894 82.9151 109.894 82.7333C109.894 82.5516 109.89 82.4015 109.882 82.283C109.858 81.6825 109.7 81.2282 109.408 80.92C109.116 80.604 108.725 80.4459 108.235 80.4459C107.745 80.4459 107.35 80.604 107.05 80.92C106.757 81.2282 106.603 81.6825 106.587 82.283C106.579 82.4015 106.576 82.5516 106.576 82.7333C106.576 82.9151 106.579 83.0652 106.587 83.1837C106.603 83.7842 106.757 84.2425 107.05 84.5585C107.35 84.8667 107.745 85.0207 108.235 85.0207ZM113.989 85.8148C113.887 85.8148 113.808 85.7911 113.752 85.7437C113.697 85.6884 113.65 85.6133 113.61 85.5185L111.927 80.0193C111.911 79.9798 111.903 79.9403 111.903 79.9007C111.903 79.8296 111.927 79.7704 111.975 79.723C112.03 79.6756 112.089 79.6519 112.152 79.6519H112.674C112.761 79.6519 112.828 79.6756 112.875 79.723C112.923 79.7704 112.954 79.8138 112.97 79.8533L114.286 84.3215L115.696 79.9007C115.712 79.8454 115.743 79.7901 115.791 79.7348C115.846 79.6795 115.925 79.6519 116.028 79.6519H116.431C116.534 79.6519 116.613 79.6795 116.668 79.7348C116.723 79.7901 116.755 79.8454 116.763 79.9007L118.173 84.3215L119.489 79.8533C119.497 79.8138 119.524 79.7704 119.572 79.723C119.619 79.6756 119.686 79.6519 119.773 79.6519H120.295C120.366 79.6519 120.425 79.6756 120.472 79.723C120.52 79.7704 120.543 79.8296 120.543 79.9007C120.543 79.9403 120.536 79.9798 120.52 80.0193L118.837 85.5185C118.813 85.6133 118.77 85.6884 118.706 85.7437C118.651 85.7911 118.568 85.8148 118.458 85.8148H117.995C117.893 85.8148 117.806 85.7911 117.735 85.7437C117.671 85.6884 117.628 85.6133 117.604 85.5185L116.229 81.2756L114.855 85.5185C114.823 85.6133 114.776 85.6884 114.712 85.7437C114.649 85.7911 114.562 85.8148 114.452 85.8148H113.989ZM124.147 85.9333C123.334 85.9333 122.686 85.6844 122.204 85.1867C121.722 84.681 121.457 83.9936 121.41 83.1244C121.402 83.0217 121.398 82.8914 121.398 82.7333C121.398 82.5674 121.402 82.4331 121.41 82.3304C121.441 81.7694 121.572 81.2795 121.801 80.8607C122.03 80.4341 122.342 80.1062 122.737 79.877C123.14 79.6479 123.61 79.5333 124.147 79.5333C124.748 79.5333 125.25 79.6598 125.653 79.9126C126.064 80.1654 126.376 80.5249 126.589 80.9911C126.802 81.4573 126.909 82.0025 126.909 82.6267V82.8282C126.909 82.9151 126.881 82.9822 126.826 83.0296C126.779 83.077 126.715 83.1007 126.636 83.1007H122.536C122.536 83.1086 122.536 83.1244 122.536 83.1482C122.536 83.1719 122.536 83.1916 122.536 83.2074C122.551 83.5314 122.623 83.8356 122.749 84.12C122.875 84.3965 123.057 84.6217 123.294 84.7956C123.531 84.9694 123.816 85.0563 124.147 85.0563C124.432 85.0563 124.669 85.0128 124.859 84.9259C125.048 84.839 125.202 84.7442 125.321 84.6415C125.439 84.5309 125.518 84.4479 125.558 84.3926C125.629 84.2899 125.684 84.2306 125.724 84.2148C125.763 84.1911 125.826 84.1793 125.913 84.1793H126.482C126.561 84.1793 126.625 84.203 126.672 84.2504C126.727 84.2899 126.751 84.3491 126.743 84.4282C126.735 84.5467 126.672 84.6928 126.553 84.8667C126.435 85.0326 126.265 85.1985 126.044 85.3644C125.823 85.5304 125.554 85.6686 125.238 85.7793C124.922 85.882 124.558 85.9333 124.147 85.9333ZM122.536 82.283H125.783V82.2474C125.783 81.8919 125.716 81.5758 125.582 81.2993C125.455 81.0227 125.269 80.8054 125.025 80.6474C124.78 80.4815 124.487 80.3985 124.147 80.3985C123.808 80.3985 123.515 80.4815 123.27 80.6474C123.033 80.8054 122.852 81.0227 122.725 81.2993C122.599 81.5758 122.536 81.8919 122.536 82.2474V82.283ZM128.599 85.8148C128.52 85.8148 128.453 85.7911 128.397 85.7437C128.35 85.6884 128.326 85.6212 128.326 85.5422V79.9363C128.326 79.8573 128.35 79.7901 128.397 79.7348C128.453 79.6795 128.52 79.6519 128.599 79.6519H129.144C129.223 79.6519 129.29 79.6795 129.345 79.7348C129.401 79.7901 129.428 79.8573 129.428 79.9363V80.4578C129.586 80.1891 129.804 79.9877 130.08 79.8533C130.357 79.719 130.689 79.6519 131.076 79.6519H131.55C131.629 79.6519 131.692 79.6795 131.739 79.7348C131.787 79.7822 131.811 79.8454 131.811 79.9244V80.4104C131.811 80.4894 131.787 80.5526 131.739 80.6C131.692 80.6474 131.629 80.6711 131.55 80.6711H130.839C130.412 80.6711 130.076 80.7975 129.831 81.0504C129.586 81.2953 129.464 81.6311 129.464 82.0578V85.5422C129.464 85.6212 129.436 85.6884 129.381 85.7437C129.326 85.7911 129.258 85.8148 129.179 85.8148H128.599ZM137.945 85.9333C137.384 85.9333 136.898 85.8267 136.487 85.6133C136.084 85.3921 135.772 85.08 135.551 84.677C135.329 84.2662 135.211 83.7763 135.195 83.2074C135.187 83.0889 135.183 82.9309 135.183 82.7333C135.183 82.5358 135.187 82.3778 135.195 82.2593C135.211 81.6904 135.329 81.2044 135.551 80.8015C135.772 80.3906 136.084 80.0785 136.487 79.8652C136.898 79.644 137.384 79.5333 137.945 79.5333C138.403 79.5333 138.794 79.5965 139.118 79.723C139.45 79.8494 139.722 80.0114 139.936 80.2089C140.149 80.4064 140.307 80.6198 140.41 80.8489C140.52 81.078 140.58 81.2953 140.588 81.5007C140.595 81.5798 140.572 81.643 140.516 81.6904C140.461 81.7378 140.394 81.7615 140.315 81.7615H139.746C139.667 81.7615 139.608 81.7457 139.568 81.7141C139.529 81.6746 139.489 81.6114 139.45 81.5244C139.308 81.1373 139.114 80.8647 138.869 80.7067C138.624 80.5486 138.32 80.4696 137.956 80.4696C137.482 80.4696 137.095 80.6158 136.795 80.9082C136.503 81.2005 136.345 81.6706 136.321 82.3185C136.313 82.603 136.313 82.8795 136.321 83.1482C136.345 83.804 136.503 84.278 136.795 84.5704C137.095 84.8548 137.482 84.997 137.956 84.997C138.32 84.997 138.624 84.918 138.869 84.76C139.114 84.602 139.308 84.3294 139.45 83.9422C139.489 83.8553 139.529 83.7961 139.568 83.7644C139.608 83.7249 139.667 83.7052 139.746 83.7052H140.315C140.394 83.7052 140.461 83.7289 140.516 83.7763C140.572 83.8237 140.595 83.8869 140.588 83.9659C140.58 84.1319 140.544 84.3017 140.481 84.4756C140.418 84.6494 140.315 84.8272 140.173 85.0089C140.038 85.1827 139.869 85.3407 139.663 85.483C139.458 85.6173 139.209 85.7279 138.916 85.8148C138.632 85.8938 138.308 85.9333 137.945 85.9333ZM142.28 85.8148C142.2 85.8148 142.133 85.7911 142.078 85.7437C142.031 85.6884 142.007 85.6212 142.007 85.5422V77.6726C142.007 77.5936 142.031 77.5304 142.078 77.483C142.133 77.4277 142.2 77.4 142.28 77.4H142.837C142.923 77.4 142.991 77.4277 143.038 77.483C143.085 77.5304 143.109 77.5936 143.109 77.6726V85.5422C143.109 85.6212 143.085 85.6884 143.038 85.7437C142.991 85.7911 142.923 85.8148 142.837 85.8148H142.28ZM145.265 85.8148C145.186 85.8148 145.119 85.7911 145.064 85.7437C145.016 85.6884 144.993 85.6212 144.993 85.5422V79.9244C144.993 79.8454 145.016 79.7822 145.064 79.7348C145.119 79.6795 145.186 79.6519 145.265 79.6519H145.834C145.913 79.6519 145.976 79.6795 146.024 79.7348C146.071 79.7822 146.095 79.8454 146.095 79.9244V85.5422C146.095 85.6212 146.071 85.6884 146.024 85.7437C145.976 85.7911 145.913 85.8148 145.834 85.8148H145.265ZM145.171 78.5022C145.092 78.5022 145.024 78.4785 144.969 78.4311C144.922 78.3758 144.898 78.3086 144.898 78.2296V77.5896C144.898 77.5106 144.922 77.4474 144.969 77.4C145.024 77.3447 145.092 77.317 145.171 77.317H145.917C145.996 77.317 146.059 77.3447 146.107 77.4C146.162 77.4474 146.19 77.5106 146.19 77.5896V78.2296C146.19 78.3086 146.162 78.3758 146.107 78.4311C146.059 78.4785 145.996 78.5022 145.917 78.5022H145.171ZM150.34 85.9333C149.526 85.9333 148.878 85.6844 148.396 85.1867C147.914 84.681 147.649 83.9936 147.602 83.1244C147.594 83.0217 147.59 82.8914 147.59 82.7333C147.59 82.5674 147.594 82.4331 147.602 82.3304C147.633 81.7694 147.764 81.2795 147.993 80.8607C148.222 80.4341 148.534 80.1062 148.929 79.877C149.332 79.6479 149.802 79.5333 150.34 79.5333C150.94 79.5333 151.442 79.6598 151.845 79.9126C152.256 80.1654 152.568 80.5249 152.781 80.9911C152.994 81.4573 153.101 82.0025 153.101 82.6267V82.8282C153.101 82.9151 153.073 82.9822 153.018 83.0296C152.971 83.077 152.908 83.1007 152.828 83.1007H148.728C148.728 83.1086 148.728 83.1244 148.728 83.1482C148.728 83.1719 148.728 83.1916 148.728 83.2074C148.744 83.5314 148.815 83.8356 148.941 84.12C149.068 84.3965 149.249 84.6217 149.486 84.7956C149.723 84.9694 150.008 85.0563 150.34 85.0563C150.624 85.0563 150.861 85.0128 151.051 84.9259C151.24 84.839 151.394 84.7442 151.513 84.6415C151.631 84.5309 151.71 84.4479 151.75 84.3926C151.821 84.2899 151.876 84.2306 151.916 84.2148C151.955 84.1911 152.019 84.1793 152.106 84.1793H152.674C152.753 84.1793 152.817 84.203 152.864 84.2504C152.919 84.2899 152.943 84.3491 152.935 84.4282C152.927 84.5467 152.864 84.6928 152.746 84.8667C152.627 85.0326 152.457 85.1985 152.236 85.3644C152.015 85.5304 151.746 85.6686 151.43 85.7793C151.114 85.882 150.75 85.9333 150.34 85.9333ZM148.728 82.283H151.975V82.2474C151.975 81.8919 151.908 81.5758 151.774 81.2993C151.647 81.0227 151.462 80.8054 151.217 80.6474C150.972 80.4815 150.679 80.3985 150.34 80.3985C150 80.3985 149.708 80.4815 149.463 80.6474C149.226 80.8054 149.044 81.0227 148.917 81.2993C148.791 81.5758 148.728 81.8919 148.728 82.2474V82.283ZM154.791 85.8148C154.712 85.8148 154.645 85.7911 154.589 85.7437C154.542 85.6884 154.518 85.6212 154.518 85.5422V79.9244C154.518 79.8454 154.542 79.7822 154.589 79.7348C154.645 79.6795 154.712 79.6519 154.791 79.6519H155.348C155.427 79.6519 155.49 79.6795 155.537 79.7348C155.593 79.7822 155.62 79.8454 155.62 79.9244V80.4459C155.826 80.1773 156.083 79.96 156.391 79.7941C156.707 79.6203 157.11 79.5333 157.6 79.5333C158.113 79.5333 158.548 79.6479 158.903 79.877C159.267 80.0983 159.539 80.4104 159.721 80.8133C159.903 81.2084 159.994 81.6706 159.994 82.2V85.5422C159.994 85.6212 159.97 85.6884 159.923 85.7437C159.875 85.7911 159.812 85.8148 159.733 85.8148H159.14C159.061 85.8148 158.994 85.7911 158.939 85.7437C158.892 85.6884 158.868 85.6212 158.868 85.5422V82.2593C158.868 81.7062 158.734 81.2756 158.465 80.9674C158.196 80.6514 157.801 80.4933 157.28 80.4933C156.79 80.4933 156.395 80.6514 156.095 80.9674C155.802 81.2756 155.656 81.7062 155.656 82.2593V85.5422C155.656 85.6212 155.628 85.6884 155.573 85.7437C155.526 85.7911 155.462 85.8148 155.383 85.8148H154.791ZM164.031 85.8148C163.588 85.8148 163.229 85.7319 162.952 85.5659C162.676 85.3921 162.474 85.1511 162.348 84.843C162.221 84.5269 162.158 84.1556 162.158 83.7289V80.6H161.234C161.155 80.6 161.087 80.5763 161.032 80.5289C160.985 80.4736 160.961 80.4064 160.961 80.3274V79.9244C160.961 79.8454 160.985 79.7822 161.032 79.7348C161.087 79.6795 161.155 79.6519 161.234 79.6519H162.158V77.6726C162.158 77.5936 162.182 77.5304 162.229 77.483C162.284 77.4277 162.352 77.4 162.431 77.4H162.988C163.067 77.4 163.13 77.4277 163.177 77.483C163.233 77.5304 163.26 77.5936 163.26 77.6726V79.6519H164.73C164.809 79.6519 164.872 79.6795 164.92 79.7348C164.975 79.7822 165.002 79.8454 165.002 79.9244V80.3274C165.002 80.4064 164.975 80.4736 164.92 80.5289C164.872 80.5763 164.809 80.6 164.73 80.6H163.26V83.6459C163.26 84.0173 163.323 84.3096 163.45 84.523C163.576 84.7363 163.801 84.843 164.125 84.843H164.848C164.927 84.843 164.991 84.8706 165.038 84.9259C165.093 84.9733 165.121 85.0365 165.121 85.1156V85.5422C165.121 85.6212 165.093 85.6884 165.038 85.7437C164.991 85.7911 164.927 85.8148 164.848 85.8148H164.031ZM27.9111 99.8148C27.8084 99.8148 27.7254 99.7872 27.6622 99.7319C27.6069 99.6765 27.5674 99.5975 27.5437 99.4948L26.0148 91.8859C26.0069 91.8543 26.0029 91.8267 26.0029 91.803C26.0029 91.7793 26.0029 91.7635 26.0029 91.7556C26.0029 91.6923 26.0266 91.637 26.074 91.5896C26.1214 91.5422 26.1768 91.5185 26.24 91.5185H26.8563C27.0222 91.5185 27.117 91.5857 27.1407 91.72L28.3496 97.8356L29.6296 93.64C29.6533 93.5689 29.6928 93.5057 29.7481 93.4504C29.8113 93.3872 29.8982 93.3556 30.0089 93.3556H30.4474C30.5659 93.3556 30.6528 93.3872 30.7081 93.4504C30.7634 93.5057 30.799 93.5689 30.8148 93.64L32.1066 97.8356L33.3037 91.72C33.3274 91.5857 33.4261 91.5185 33.6 91.5185H34.2163C34.2795 91.5185 34.3348 91.5422 34.3822 91.5896C34.4296 91.637 34.4533 91.6923 34.4533 91.7556C34.4533 91.7635 34.4493 91.7793 34.4414 91.803C34.4414 91.8267 34.4414 91.8543 34.4414 91.8859L32.9126 99.4948C32.8889 99.5975 32.8454 99.6765 32.7822 99.7319C32.7269 99.7872 32.6479 99.8148 32.5451 99.8148H32.0829C31.9723 99.8148 31.8854 99.7872 31.8222 99.7319C31.759 99.6765 31.7155 99.6054 31.6918 99.5185L30.2222 95.003L28.7644 99.5185C28.7328 99.6054 28.6854 99.6765 28.6222 99.7319C28.5669 99.7872 28.4839 99.8148 28.3733 99.8148H27.9111ZM35.9829 99.8148C35.9039 99.8148 35.8368 99.7911 35.7814 99.7437C35.734 99.6884 35.7103 99.6212 35.7103 99.5422V93.9363C35.7103 93.8573 35.734 93.7901 35.7814 93.7348C35.8368 93.6795 35.9039 93.6519 35.9829 93.6519H36.5281C36.6071 93.6519 36.6743 93.6795 36.7296 93.7348C36.7849 93.7901 36.8126 93.8573 36.8126 93.9363V94.4578C36.9706 94.1891 37.1879 93.9877 37.4644 93.8533C37.741 93.719 38.0728 93.6519 38.46 93.6519H38.934C39.0131 93.6519 39.0763 93.6795 39.1237 93.7348C39.1711 93.7822 39.1948 93.8454 39.1948 93.9244V94.4104C39.1948 94.4894 39.1711 94.5526 39.1237 94.6C39.0763 94.6474 39.0131 94.6711 38.934 94.6711H38.2229C37.7963 94.6711 37.4605 94.7975 37.2155 95.0504C36.9706 95.2953 36.8481 95.6311 36.8481 96.0578V99.5422C36.8481 99.6212 36.8205 99.6884 36.7651 99.7437C36.7098 99.7911 36.6427 99.8148 36.5637 99.8148H35.9829ZM40.4852 99.8148C40.4062 99.8148 40.3391 99.7911 40.2838 99.7437C40.2364 99.6884 40.2127 99.6212 40.2127 99.5422V93.9244C40.2127 93.8454 40.2364 93.7822 40.2838 93.7348C40.3391 93.6795 40.4062 93.6519 40.4852 93.6519H41.0541C41.1331 93.6519 41.1964 93.6795 41.2438 93.7348C41.2912 93.7822 41.3149 93.8454 41.3149 93.9244V99.5422C41.3149 99.6212 41.2912 99.6884 41.2438 99.7437C41.1964 99.7911 41.1331 99.8148 41.0541 99.8148H40.4852ZM40.3904 92.5022C40.3114 92.5022 40.2443 92.4785 40.1889 92.4311C40.1415 92.3758 40.1178 92.3086 40.1178 92.2296V91.5896C40.1178 91.5106 40.1415 91.4474 40.1889 91.4C40.2443 91.3447 40.3114 91.317 40.3904 91.317H41.1371C41.2161 91.317 41.2793 91.3447 41.3267 91.4C41.382 91.4474 41.4097 91.5106 41.4097 91.5896V92.2296C41.4097 92.3086 41.382 92.3758 41.3267 92.4311C41.2793 92.4785 41.2161 92.5022 41.1371 92.5022H40.3904ZM45.4889 99.8148C45.0465 99.8148 44.687 99.7319 44.4104 99.5659C44.1339 99.3921 43.9324 99.1511 43.806 98.843C43.6796 98.5269 43.6164 98.1556 43.6164 97.7289V94.6H42.6919C42.6129 94.6 42.5457 94.5763 42.4904 94.5289C42.443 94.4736 42.4193 94.4064 42.4193 94.3274V93.9244C42.4193 93.8454 42.443 93.7822 42.4904 93.7348C42.5457 93.6795 42.6129 93.6519 42.6919 93.6519H43.6164V91.6726C43.6164 91.5936 43.6401 91.5304 43.6875 91.483C43.7428 91.4277 43.8099 91.4 43.8889 91.4H44.446C44.525 91.4 44.5882 91.4277 44.6356 91.483C44.6909 91.5304 44.7186 91.5936 44.7186 91.6726V93.6519H46.1882C46.2672 93.6519 46.3304 93.6795 46.3778 93.7348C46.4331 93.7822 46.4608 93.8454 46.4608 93.9244V94.3274C46.4608 94.4064 46.4331 94.4736 46.3778 94.5289C46.3304 94.5763 46.2672 94.6 46.1882 94.6H44.7186V97.6459C44.7186 98.0173 44.7818 98.3096 44.9082 98.523C45.0346 98.7363 45.2598 98.843 45.5838 98.843H46.3067C46.3857 98.843 46.4489 98.8706 46.4964 98.9259C46.5517 98.9733 46.5793 99.0365 46.5793 99.1156V99.5422C46.5793 99.6212 46.5517 99.6884 46.4964 99.7437C46.4489 99.7911 46.3857 99.8148 46.3067 99.8148H45.4889ZM50.1186 99.8148C49.6761 99.8148 49.3166 99.7319 49.0401 99.5659C48.7635 99.3921 48.562 99.1511 48.4356 98.843C48.3092 98.5269 48.246 98.1556 48.246 97.7289V94.6H47.3215C47.2425 94.6 47.1754 94.5763 47.1201 94.5289C47.0727 94.4736 47.0489 94.4064 47.0489 94.3274V93.9244C47.0489 93.8454 47.0727 93.7822 47.1201 93.7348C47.1754 93.6795 47.2425 93.6519 47.3215 93.6519H48.246V91.6726C48.246 91.5936 48.2697 91.5304 48.3171 91.483C48.3724 91.4277 48.4396 91.4 48.5186 91.4H49.0756C49.1546 91.4 49.2178 91.4277 49.2652 91.483C49.3206 91.5304 49.3482 91.5936 49.3482 91.6726V93.6519H50.8178C50.8968 93.6519 50.9601 93.6795 51.0075 93.7348C51.0628 93.7822 51.0904 93.8454 51.0904 93.9244V94.3274C51.0904 94.4064 51.0628 94.4736 51.0075 94.5289C50.9601 94.5763 50.8968 94.6 50.8178 94.6H49.3482V97.6459C49.3482 98.0173 49.4114 98.3096 49.5378 98.523C49.6643 98.7363 49.8894 98.843 50.2134 98.843H50.9364C51.0154 98.843 51.0786 98.8706 51.126 98.9259C51.1813 98.9733 51.2089 99.0365 51.2089 99.1156V99.5422C51.2089 99.6212 51.1813 99.6884 51.126 99.7437C51.0786 99.7911 51.0154 99.8148 50.9364 99.8148H50.1186ZM54.7956 99.9333C53.9818 99.9333 53.3339 99.6844 52.8519 99.1867C52.3699 98.681 52.1052 97.9936 52.0578 97.1244C52.0499 97.0217 52.046 96.8914 52.046 96.7333C52.046 96.5674 52.0499 96.4331 52.0578 96.3304C52.0894 95.7694 52.2198 95.2795 52.4489 94.8607C52.6781 94.4341 52.9902 94.1062 53.3852 93.877C53.7882 93.6479 54.2583 93.5333 54.7956 93.5333C55.3961 93.5333 55.8978 93.6598 56.3008 93.9126C56.7117 94.1654 57.0238 94.5249 57.2371 94.9911C57.4504 95.4573 57.5571 96.0025 57.5571 96.6267V96.8282C57.5571 96.9151 57.5294 96.9822 57.4741 97.0296C57.4267 97.077 57.3635 97.1007 57.2845 97.1007H53.1838C53.1838 97.1086 53.1838 97.1244 53.1838 97.1482C53.1838 97.1719 53.1838 97.1916 53.1838 97.2074C53.1996 97.5314 53.2707 97.8356 53.3971 98.12C53.5235 98.3965 53.7052 98.6217 53.9423 98.7956C54.1793 98.9694 54.4638 99.0563 54.7956 99.0563C55.0801 99.0563 55.3171 99.0128 55.5067 98.9259C55.6964 98.839 55.8504 98.7442 55.9689 98.6415C56.0875 98.5309 56.1665 98.4479 56.206 98.3926C56.2771 98.2899 56.3324 98.2306 56.3719 98.2148C56.4114 98.1911 56.4746 98.1793 56.5615 98.1793H57.1304C57.2094 98.1793 57.2727 98.203 57.3201 98.2504C57.3754 98.2899 57.3991 98.3491 57.3912 98.4282C57.3833 98.5467 57.3201 98.6928 57.2015 98.8667C57.083 99.0326 56.9131 99.1985 56.6919 99.3644C56.4707 99.5304 56.202 99.6686 55.886 99.7793C55.5699 99.882 55.2065 99.9333 54.7956 99.9333ZM53.1838 96.283H56.4312V96.2474C56.4312 95.8919 56.364 95.5758 56.2297 95.2993C56.1033 95.0227 55.9176 94.8054 55.6727 94.6474C55.4277 94.4815 55.1354 94.3985 54.7956 94.3985C54.4559 94.3985 54.1635 94.4815 53.9186 94.6474C53.6815 94.8054 53.4998 95.0227 53.3734 95.2993C53.247 95.5758 53.1838 95.8919 53.1838 96.2474V96.283ZM59.2468 99.8148C59.1678 99.8148 59.1006 99.7911 59.0453 99.7437C58.9979 99.6884 58.9742 99.6212 58.9742 99.5422V93.9244C58.9742 93.8454 58.9979 93.7822 59.0453 93.7348C59.1006 93.6795 59.1678 93.6519 59.2468 93.6519H59.8039C59.8829 93.6519 59.9461 93.6795 59.9935 93.7348C60.0488 93.7822 60.0764 93.8454 60.0764 93.9244V94.4459C60.2819 94.1773 60.5387 93.96 60.8468 93.7941C61.1629 93.6203 61.5658 93.5333 62.0557 93.5333C62.5693 93.5333 63.0039 93.6479 63.3594 93.877C63.7229 94.0983 63.9955 94.4104 64.1772 94.8133C64.3589 95.2084 64.4498 95.6706 64.4498 96.2V99.5422C64.4498 99.6212 64.4261 99.6884 64.3787 99.7437C64.3313 99.7911 64.2681 99.8148 64.189 99.8148H63.5964C63.5174 99.8148 63.4503 99.7911 63.395 99.7437C63.3476 99.6884 63.3239 99.6212 63.3239 99.5422V96.2593C63.3239 95.7062 63.1895 95.2756 62.9209 94.9674C62.6522 94.6514 62.2572 94.4933 61.7357 94.4933C61.2458 94.4933 60.8508 94.6514 60.5505 94.9674C60.2582 95.2756 60.112 95.7062 60.112 96.2593V99.5422C60.112 99.6212 60.0843 99.6884 60.029 99.7437C59.9816 99.7911 59.9184 99.8148 59.8394 99.8148H59.2468ZM70.4246 99.8148C70.3219 99.8148 70.2429 99.7911 70.1876 99.7437C70.1322 99.6884 70.0848 99.6133 70.0453 99.5185L68.3624 94.0193C68.3466 93.9798 68.3387 93.9403 68.3387 93.9007C68.3387 93.8296 68.3624 93.7704 68.4098 93.723C68.4651 93.6756 68.5243 93.6519 68.5876 93.6519H69.109C69.196 93.6519 69.2631 93.6756 69.3105 93.723C69.3579 93.7704 69.3895 93.8138 69.4053 93.8533L70.7209 98.3215L72.1313 93.9007C72.1471 93.8454 72.1787 93.7901 72.2261 93.7348C72.2814 93.6795 72.3604 93.6519 72.4631 93.6519H72.8661C72.9688 93.6519 73.0478 93.6795 73.1031 93.7348C73.1584 93.7901 73.19 93.8454 73.1979 93.9007L74.6083 98.3215L75.9239 93.8533C75.9318 93.8138 75.9594 93.7704 76.0068 93.723C76.0542 93.6756 76.1214 93.6519 76.2083 93.6519H76.7298C76.8009 93.6519 76.8602 93.6756 76.9076 93.723C76.955 93.7704 76.9787 93.8296 76.9787 93.9007C76.9787 93.9403 76.9708 93.9798 76.955 94.0193L75.272 99.5185C75.2483 99.6133 75.2048 99.6884 75.1416 99.7437C75.0863 99.7911 75.0034 99.8148 74.8927 99.8148H74.4305C74.3278 99.8148 74.2409 99.7911 74.1698 99.7437C74.1066 99.6884 74.0631 99.6133 74.0394 99.5185L72.6646 95.2756L71.2898 99.5185C71.2582 99.6133 71.2108 99.6884 71.1476 99.7437C71.0843 99.7911 70.9974 99.8148 70.8868 99.8148H70.4246ZM78.5639 99.8148C78.4849 99.8148 78.4178 99.7911 78.3625 99.7437C78.3151 99.6884 78.2914 99.6212 78.2914 99.5422V93.9244C78.2914 93.8454 78.3151 93.7822 78.3625 93.7348C78.4178 93.6795 78.4849 93.6519 78.5639 93.6519H79.1328C79.2118 93.6519 79.2751 93.6795 79.3225 93.7348C79.3699 93.7822 79.3936 93.8454 79.3936 93.9244V99.5422C79.3936 99.6212 79.3699 99.6884 79.3225 99.7437C79.2751 99.7911 79.2118 99.8148 79.1328 99.8148H78.5639ZM78.4691 92.5022C78.3901 92.5022 78.323 92.4785 78.2677 92.4311C78.2202 92.3758 78.1965 92.3086 78.1965 92.2296V91.5896C78.1965 91.5106 78.2202 91.4474 78.2677 91.4C78.323 91.3447 78.3901 91.317 78.4691 91.317H79.2158C79.2948 91.317 79.358 91.3447 79.4054 91.4C79.4607 91.4474 79.4884 91.5106 79.4884 91.5896V92.2296C79.4884 92.3086 79.4607 92.3758 79.4054 92.4311C79.358 92.4785 79.2948 92.5022 79.2158 92.5022H78.4691ZM83.5677 99.8148C83.1252 99.8148 82.7657 99.7319 82.4891 99.5659C82.2126 99.3921 82.0111 99.1511 81.8847 98.843C81.7583 98.5269 81.6951 98.1556 81.6951 97.7289V94.6H80.7706C80.6916 94.6 80.6244 94.5763 80.5691 94.5289C80.5217 94.4736 80.498 94.4064 80.498 94.3274V93.9244C80.498 93.8454 80.5217 93.7822 80.5691 93.7348C80.6244 93.6795 80.6916 93.6519 80.7706 93.6519H81.6951V91.6726C81.6951 91.5936 81.7188 91.5304 81.7662 91.483C81.8215 91.4277 81.8886 91.4 81.9677 91.4H82.5247C82.6037 91.4 82.6669 91.4277 82.7143 91.483C82.7696 91.5304 82.7973 91.5936 82.7973 91.6726V93.6519H84.2669C84.3459 93.6519 84.4091 93.6795 84.4565 93.7348C84.5119 93.7822 84.5395 93.8454 84.5395 93.9244V94.3274C84.5395 94.4064 84.5119 94.4736 84.4565 94.5289C84.4091 94.5763 84.3459 94.6 84.2669 94.6H82.7973V97.6459C82.7973 98.0173 82.8605 98.3096 82.9869 98.523C83.1133 98.7363 83.3385 98.843 83.6625 98.843H84.3854C84.4644 98.843 84.5277 98.8706 84.5751 98.9259C84.6304 98.9733 84.658 99.0365 84.658 99.1156V99.5422C84.658 99.6212 84.6304 99.6884 84.5751 99.7437C84.5277 99.7911 84.4644 99.8148 84.3854 99.8148H83.5677ZM86.0758 99.8148C85.9968 99.8148 85.9296 99.7911 85.8743 99.7437C85.8269 99.6884 85.8032 99.6212 85.8032 99.5422V91.6726C85.8032 91.5936 85.8269 91.5304 85.8743 91.483C85.9296 91.4277 85.9968 91.4 86.0758 91.4H86.6684C86.7553 91.4 86.8225 91.4277 86.8699 91.483C86.9173 91.5304 86.941 91.5936 86.941 91.6726V94.4341C87.1543 94.1654 87.4151 93.9482 87.7232 93.7822C88.0314 93.6163 88.4225 93.5333 88.8965 93.5333C89.4101 93.5333 89.8447 93.6479 90.2002 93.877C90.5637 94.0983 90.8363 94.4104 91.018 94.8133C91.2077 95.2084 91.3025 95.6706 91.3025 96.2V99.5422C91.3025 99.6212 91.2788 99.6884 91.2314 99.7437C91.1839 99.7911 91.1168 99.8148 91.0299 99.8148H90.4373C90.3583 99.8148 90.2911 99.7911 90.2358 99.7437C90.1884 99.6884 90.1647 99.6212 90.1647 99.5422V96.2593C90.1647 95.7062 90.0304 95.2756 89.7617 94.9674C89.4931 94.6514 89.098 94.4933 88.5765 94.4933C88.0867 94.4933 87.6916 94.6514 87.3914 94.9674C87.0911 95.2756 86.941 95.7062 86.941 96.2593V99.5422C86.941 99.6212 86.9173 99.6884 86.8699 99.7437C86.8225 99.7911 86.7553 99.8148 86.6684 99.8148H86.0758ZM98.7394 99.9333C98.052 99.9333 97.4752 99.8306 97.009 99.6252C96.5429 99.4119 96.1834 99.1393 95.9305 98.8074C95.6856 98.4677 95.5552 98.1082 95.5394 97.7289C95.5394 97.6657 95.5631 97.6104 95.6105 97.563C95.6658 97.5077 95.729 97.48 95.8002 97.48H96.4046C96.4994 97.48 96.5705 97.5037 96.6179 97.5511C96.6653 97.5985 96.6969 97.6538 96.7127 97.717C96.7523 97.9067 96.8471 98.0963 96.9972 98.2859C97.1552 98.4677 97.3725 98.6217 97.649 98.7482C97.9335 98.8667 98.2969 98.9259 98.7394 98.9259C99.4189 98.9259 99.9167 98.8074 100.233 98.5704C100.557 98.3254 100.719 98.0015 100.719 97.5985C100.719 97.322 100.632 97.1007 100.458 96.9348C100.292 96.761 100.035 96.6069 99.6876 96.4726C99.3399 96.3383 98.8895 96.1921 98.3364 96.0341C97.7597 95.8682 97.2816 95.6864 96.9024 95.4889C96.5231 95.2914 96.2387 95.0464 96.049 94.7541C95.8673 94.4617 95.7764 94.0904 95.7764 93.64C95.7764 93.2133 95.891 92.8341 96.1202 92.5022C96.3493 92.1625 96.6772 91.8938 97.1039 91.6963C97.5384 91.4988 98.0639 91.4 98.6802 91.4C99.17 91.4 99.5967 91.4672 99.9602 91.6015C100.332 91.7279 100.64 91.9017 100.885 92.123C101.13 92.3363 101.315 92.5694 101.442 92.8222C101.568 93.0672 101.635 93.3082 101.643 93.5452C101.643 93.6005 101.623 93.6558 101.584 93.7111C101.544 93.7585 101.481 93.7822 101.394 93.7822H100.766C100.711 93.7822 100.652 93.7664 100.588 93.7348C100.533 93.7032 100.49 93.644 100.458 93.557C100.411 93.2331 100.229 92.9605 99.9127 92.7393C99.5967 92.518 99.1858 92.4074 98.6802 92.4074C98.1666 92.4074 97.7478 92.5062 97.4239 92.7037C97.1078 92.9012 96.9498 93.2094 96.9498 93.6282C96.9498 93.8968 97.0248 94.122 97.175 94.3037C97.3251 94.4775 97.5621 94.6316 97.8861 94.7659C98.21 94.9003 98.6327 95.0425 99.1542 95.1926C99.7863 95.3664 100.304 95.5521 100.707 95.7496C101.11 95.9393 101.406 96.1803 101.596 96.4726C101.793 96.757 101.892 97.1244 101.892 97.5748C101.892 98.0726 101.762 98.4993 101.501 98.8548C101.24 99.2025 100.873 99.4711 100.399 99.6607C99.9325 99.8425 99.3794 99.9333 98.7394 99.9333ZM105.39 99.8148C105.272 99.8148 105.177 99.7872 105.106 99.7319C105.043 99.6765 104.991 99.6054 104.952 99.5185L102.759 94.0193C102.743 93.9798 102.735 93.9403 102.735 93.9007C102.735 93.8296 102.759 93.7704 102.807 93.723C102.854 93.6756 102.913 93.6519 102.984 93.6519H103.553C103.64 93.6519 103.707 93.6756 103.755 93.723C103.802 93.7704 103.83 93.8138 103.838 93.8533L105.651 98.523L107.452 93.8533C107.468 93.8138 107.496 93.7704 107.535 93.723C107.583 93.6756 107.65 93.6519 107.737 93.6519H108.318C108.381 93.6519 108.436 93.6756 108.484 93.723C108.539 93.7704 108.567 93.8296 108.567 93.9007C108.567 93.9403 108.559 93.9798 108.543 94.0193L106.338 99.5185C106.307 99.6054 106.255 99.6765 106.184 99.7319C106.121 99.7872 106.026 99.8148 105.9 99.8148H105.39ZM112.041 99.9333C111.227 99.9333 110.579 99.6844 110.097 99.1867C109.615 98.681 109.351 97.9936 109.303 97.1244C109.295 97.0217 109.291 96.8914 109.291 96.7333C109.291 96.5674 109.295 96.4331 109.303 96.3304C109.335 95.7694 109.465 95.2795 109.694 94.8607C109.923 94.4341 110.236 94.1062 110.631 93.877C111.034 93.6479 111.504 93.5333 112.041 93.5333C112.641 93.5333 113.143 93.6598 113.546 93.9126C113.957 94.1654 114.269 94.5249 114.482 94.9911C114.696 95.4573 114.802 96.0025 114.802 96.6267V96.8282C114.802 96.9151 114.775 96.9822 114.72 97.0296C114.672 97.077 114.609 97.1007 114.53 97.1007H110.429C110.429 97.1086 110.429 97.1244 110.429 97.1482C110.429 97.1719 110.429 97.1916 110.429 97.2074C110.445 97.5314 110.516 97.8356 110.642 98.12C110.769 98.3965 110.951 98.6217 111.188 98.7956C111.425 98.9694 111.709 99.0563 112.041 99.0563C112.325 99.0563 112.562 99.0128 112.752 98.9259C112.942 98.839 113.096 98.7442 113.214 98.6415C113.333 98.5309 113.412 98.4479 113.451 98.3926C113.522 98.2899 113.578 98.2306 113.617 98.2148C113.657 98.1911 113.72 98.1793 113.807 98.1793H114.376C114.455 98.1793 114.518 98.203 114.565 98.2504C114.621 98.2899 114.644 98.3491 114.637 98.4282C114.629 98.5467 114.565 98.6928 114.447 98.8667C114.328 99.0326 114.159 99.1985 113.937 99.3644C113.716 99.5304 113.447 99.6686 113.131 99.7793C112.815 99.882 112.452 99.9333 112.041 99.9333ZM110.429 96.283H113.677V96.2474C113.677 95.8919 113.609 95.5758 113.475 95.2993C113.349 95.0227 113.163 94.8054 112.918 94.6474C112.673 94.4815 112.381 94.3985 112.041 94.3985C111.701 94.3985 111.409 94.4815 111.164 94.6474C110.927 94.8054 110.745 95.0227 110.619 95.2993C110.492 95.5758 110.429 95.8919 110.429 96.2474V96.283ZM116.504 99.8148C116.425 99.8148 116.358 99.7911 116.303 99.7437C116.255 99.6884 116.231 99.6212 116.231 99.5422V91.6726C116.231 91.5936 116.255 91.5304 116.303 91.483C116.358 91.4277 116.425 91.4 116.504 91.4H117.061C117.148 91.4 117.215 91.4277 117.263 91.483C117.31 91.5304 117.334 91.5936 117.334 91.6726V99.5422C117.334 99.6212 117.31 99.6884 117.263 99.7437C117.215 99.7911 117.148 99.8148 117.061 99.8148H116.504ZM121.507 99.8148C121.065 99.8148 120.705 99.7319 120.429 99.5659C120.152 99.3921 119.951 99.1511 119.825 98.843C119.698 98.5269 119.635 98.1556 119.635 97.7289V94.6H118.71C118.631 94.6 118.564 94.5763 118.509 94.5289C118.462 94.4736 118.438 94.4064 118.438 94.3274V93.9244C118.438 93.8454 118.462 93.7822 118.509 93.7348C118.564 93.6795 118.631 93.6519 118.71 93.6519H119.635V91.6726C119.635 91.5936 119.659 91.5304 119.706 91.483C119.761 91.4277 119.828 91.4 119.907 91.4H120.465C120.544 91.4 120.607 91.4277 120.654 91.483C120.709 91.5304 120.737 91.5936 120.737 91.6726V93.6519H122.207C122.286 93.6519 122.349 93.6795 122.396 93.7348C122.452 93.7822 122.479 93.8454 122.479 93.9244V94.3274C122.479 94.4064 122.452 94.4736 122.396 94.5289C122.349 94.5763 122.286 94.6 122.207 94.6H120.737V97.6459C120.737 98.0173 120.8 98.3096 120.927 98.523C121.053 98.7363 121.278 98.843 121.602 98.843H122.325C122.404 98.843 122.467 98.8706 122.515 98.9259C122.57 98.9733 122.598 99.0365 122.598 99.1156V99.5422C122.598 99.6212 122.57 99.6884 122.515 99.7437C122.467 99.7911 122.404 99.8148 122.325 99.8148H121.507ZM126.185 99.9333C125.371 99.9333 124.723 99.6844 124.241 99.1867C123.759 98.681 123.494 97.9936 123.447 97.1244C123.439 97.0217 123.435 96.8914 123.435 96.7333C123.435 96.5674 123.439 96.4331 123.447 96.3304C123.478 95.7694 123.609 95.2795 123.838 94.8607C124.067 94.4341 124.379 94.1062 124.774 93.877C125.177 93.6479 125.647 93.5333 126.185 93.5333C126.785 93.5333 127.287 93.6598 127.69 93.9126C128.101 94.1654 128.413 94.5249 128.626 94.9911C128.839 95.4573 128.946 96.0025 128.946 96.6267V96.8282C128.946 96.9151 128.918 96.9822 128.863 97.0296C128.816 97.077 128.752 97.1007 128.673 97.1007H124.573C124.573 97.1086 124.573 97.1244 124.573 97.1482C124.573 97.1719 124.573 97.1916 124.573 97.2074C124.588 97.5314 124.66 97.8356 124.786 98.12C124.912 98.3965 125.094 98.6217 125.331 98.7956C125.568 98.9694 125.853 99.0563 126.185 99.0563C126.469 99.0563 126.706 99.0128 126.896 98.9259C127.085 98.839 127.239 98.7442 127.358 98.6415C127.476 98.5309 127.555 98.4479 127.595 98.3926C127.666 98.2899 127.721 98.2306 127.761 98.2148C127.8 98.1911 127.864 98.1793 127.95 98.1793H128.519C128.598 98.1793 128.662 98.203 128.709 98.2504C128.764 98.2899 128.788 98.3491 128.78 98.4282C128.772 98.5467 128.709 98.6928 128.59 98.8667C128.472 99.0326 128.302 99.1985 128.081 99.3644C127.86 99.5304 127.591 99.6686 127.275 99.7793C126.959 99.882 126.595 99.9333 126.185 99.9333ZM124.573 96.283H127.82V96.2474C127.82 95.8919 127.753 95.5758 127.619 95.2993C127.492 95.0227 127.306 94.8054 127.062 94.6474C126.817 94.4815 126.524 94.3985 126.185 94.3985C125.845 94.3985 125.552 94.4815 125.307 94.6474C125.07 94.8054 124.889 95.0227 124.762 95.2993C124.636 95.5758 124.573 95.8919 124.573 96.2474V96.283Z" fill="#F2F2F2"/>
<path d="M35.0092 59.9537C33.4321 59.9537 32.0385 59.662 30.8287 59.0787C29.6404 58.4954 28.7006 57.6528 28.0092 56.5509C27.3179 55.4275 26.9398 54.088 26.875 52.5324C26.8534 52.1867 26.8426 51.7546 26.8426 51.2361C26.8426 50.696 26.8534 50.2531 26.875 49.9074C26.9398 48.3303 27.3071 46.9907 27.9768 45.8889C28.6682 44.7654 29.6188 43.912 30.8287 43.3287C32.0385 42.7454 33.4321 42.4537 35.0092 42.4537C36.4568 42.4537 37.6882 42.659 38.7037 43.0695C39.7191 43.4583 40.5509 43.9553 41.199 44.5602C41.8472 45.1651 42.3225 45.8025 42.625 46.4722C42.949 47.1204 43.1219 47.6929 43.1435 48.1898C43.1651 48.4059 43.0895 48.6003 42.9166 48.7732C42.7654 48.9244 42.5818 49 42.3657 49H38.8981C38.6821 49 38.5092 48.946 38.3796 48.838C38.2716 48.7083 38.1635 48.5355 38.0555 48.3195C37.7531 47.5633 37.3642 47.0232 36.8889 46.6991C36.4135 46.375 35.8194 46.213 35.1064 46.213C34.1342 46.213 33.3672 46.5262 32.8055 47.1528C32.2438 47.7793 31.9413 48.7516 31.8981 50.0695C31.8765 50.912 31.8765 51.679 31.8981 52.3704C31.9629 53.7099 32.2654 54.6821 32.8055 55.287C33.3672 55.892 34.1342 56.1945 35.1064 56.1945C35.8626 56.1945 36.4676 56.0324 36.9213 55.7083C37.375 55.3843 37.7531 54.8441 38.0555 54.088C38.1419 53.8719 38.25 53.7099 38.3796 53.6019C38.5092 53.4722 38.6821 53.4074 38.8981 53.4074H42.3657C42.5818 53.4074 42.7654 53.4938 42.9166 53.6667C43.0895 53.8179 43.1651 54.0016 43.1435 54.2176C43.1219 54.5849 43.0139 55.017 42.8194 55.5139C42.6466 56.0108 42.3549 56.5185 41.9444 57.037C41.5555 57.5556 41.0478 58.0417 40.4213 58.4954C39.7947 58.9275 39.0277 59.284 38.1203 59.5648C37.2345 59.8241 36.1975 59.9537 35.0092 59.9537ZM47.1321 59.6296C46.8945 59.6296 46.7 59.554 46.5488 59.4028C46.3976 59.2516 46.3219 59.0571 46.3219 58.8195V37.4306C46.3219 37.1929 46.3976 36.9985 46.5488 36.8472C46.7 36.696 46.8945 36.6204 47.1321 36.6204H50.3729C50.5889 36.6204 50.7726 36.696 50.9238 36.8472C51.075 36.9985 51.1506 37.1929 51.1506 37.4306V58.8195C51.1506 59.0571 51.075 59.2516 50.9238 59.4028C50.7726 59.554 50.5889 59.6296 50.3729 59.6296H47.1321ZM56.9106 59.6296C56.6945 59.6296 56.5109 59.554 56.3596 59.4028C56.2084 59.2516 56.1328 59.0571 56.1328 58.8195V43.588C56.1328 43.3503 56.2084 43.1559 56.3596 43.0046C56.5109 42.8534 56.6945 42.7778 56.9106 42.7778H60.1513C60.3889 42.7778 60.5834 42.8534 60.7346 43.0046C60.8859 43.1559 60.9615 43.3503 60.9615 43.588V58.8195C60.9615 59.0571 60.8859 59.2516 60.7346 59.4028C60.5834 59.554 60.3889 59.6296 60.1513 59.6296H56.9106ZM56.8133 40.1852C56.5973 40.1852 56.4136 40.1096 56.2624 39.9583C56.1112 39.8071 56.0356 39.6127 56.0356 39.375V36.7824C56.0356 36.5448 56.1112 36.3503 56.2624 36.1991C56.4136 36.0262 56.5973 35.9398 56.8133 35.9398H60.2161C60.4538 35.9398 60.6482 36.0262 60.7994 36.1991C60.9723 36.3503 61.0587 36.5448 61.0587 36.7824V39.375C61.0587 39.6127 60.9723 39.8071 60.7994 39.9583C60.6482 40.1096 60.4538 40.1852 60.2161 40.1852H56.8133ZM72.6709 59.9537C70.1864 59.9537 68.2095 59.2624 66.7404 57.8796C65.2928 56.4969 64.5259 54.4877 64.4395 51.8519C64.4395 51.679 64.4395 51.4522 64.4395 51.1713C64.4395 50.8688 64.4395 50.6312 64.4395 50.4583C64.5259 48.7948 64.904 47.3688 65.5737 46.1806C66.2435 44.9707 67.1833 44.0525 68.3932 43.4259C69.603 42.7778 71.0182 42.4537 72.6385 42.4537C74.4533 42.4537 75.9657 42.8318 77.1756 43.588C78.407 44.3225 79.3253 45.338 79.9302 46.6343C80.5567 47.909 80.87 49.3781 80.87 51.0417V51.787C80.87 52.0031 80.7836 52.1867 80.6107 52.338C80.4595 52.4892 80.2759 52.5648 80.0598 52.5648H69.4626C69.4626 52.5864 69.4626 52.6296 69.4626 52.6945C69.4626 52.7377 69.4626 52.7809 69.4626 52.8241C69.4842 53.5154 69.6138 54.1528 69.8515 54.7361C70.1107 55.2978 70.4672 55.7516 70.9209 56.0972C71.3962 56.4429 71.958 56.6157 72.6061 56.6157C73.1462 56.6157 73.5891 56.5401 73.9348 56.3889C74.2805 56.2377 74.5614 56.054 74.7774 55.838C75.0151 55.6219 75.1879 55.4383 75.2959 55.287C75.4904 55.071 75.6416 54.9414 75.7496 54.8982C75.8793 54.8333 76.0737 54.8009 76.333 54.8009H79.7033C79.9194 54.8009 80.0922 54.8657 80.2219 54.9954C80.3731 55.1034 80.4379 55.2654 80.4163 55.4815C80.3947 55.8272 80.2111 56.2593 79.8654 56.7778C79.5413 57.2747 79.0552 57.7716 78.407 58.2685C77.7589 58.7438 76.9487 59.1435 75.9765 59.4676C75.0259 59.7917 73.924 59.9537 72.6709 59.9537ZM69.4626 49.6157H75.8145V49.5509C75.8145 48.7732 75.6848 48.1034 75.4256 47.5417C75.1879 46.9583 74.8314 46.5046 74.3561 46.1806C73.8808 45.8565 73.3083 45.6945 72.6385 45.6945C71.9688 45.6945 71.3962 45.8565 70.9209 46.1806C70.4456 46.5046 70.0783 46.9583 69.8191 47.5417C69.5814 48.1034 69.4626 48.7732 69.4626 49.5509V49.6157ZM84.8873 59.6296C84.6712 59.6296 84.4876 59.554 84.3363 59.4028C84.1851 59.2516 84.1095 59.0571 84.1095 58.8195V43.588C84.1095 43.3503 84.1851 43.1559 84.3363 43.0046C84.4876 42.8534 84.6712 42.7778 84.8873 42.7778H88.0632C88.3008 42.7778 88.4953 42.8534 88.6465 43.0046C88.7978 43.1559 88.8734 43.3503 88.8734 43.588V44.8519C89.4351 44.1605 90.1589 43.588 91.0447 43.1343C91.9305 42.6806 93.0107 42.4537 94.2854 42.4537C95.5601 42.4537 96.6728 42.7454 97.6234 43.3287C98.5956 43.8904 99.3518 44.7222 99.8919 45.8241C100.454 46.9043 100.734 48.2222 100.734 49.7778V58.8195C100.734 59.0571 100.648 59.2516 100.475 59.4028C100.324 59.554 100.14 59.6296 99.9243 59.6296H96.4891C96.2515 59.6296 96.057 59.554 95.9058 59.4028C95.7545 59.2516 95.6789 59.0571 95.6789 58.8195V49.9722C95.6789 48.8272 95.3981 47.9414 94.8363 47.3148C94.2962 46.6667 93.4968 46.3426 92.4382 46.3426C91.4228 46.3426 90.6126 46.6667 90.0076 47.3148C89.4027 47.9414 89.1002 48.8272 89.1002 49.9722V58.8195C89.1002 59.0571 89.0246 59.2516 88.8734 59.4028C88.7221 59.554 88.5385 59.6296 88.3224 59.6296H84.8873ZM112.529 59.6296C111.19 59.6296 110.045 59.4136 109.094 58.9815C108.143 58.5278 107.42 57.8364 106.923 56.9074C106.447 55.9784 106.21 54.8117 106.21 53.4074V46.6019H103.682C103.444 46.6019 103.25 46.5262 103.099 46.375C102.947 46.2238 102.872 46.0293 102.872 45.7917V43.588C102.872 43.3503 102.947 43.1559 103.099 43.0046C103.25 42.8534 103.444 42.7778 103.682 42.7778H106.21V37.4306C106.21 37.1929 106.285 36.9985 106.437 36.8472C106.61 36.696 106.804 36.6204 107.02 36.6204H110.196C110.434 36.6204 110.628 36.696 110.779 36.8472C110.93 36.9985 111.006 37.1929 111.006 37.4306V42.7778H115.057C115.273 42.7778 115.457 42.8534 115.608 43.0046C115.759 43.1559 115.835 43.3503 115.835 43.588V45.7917C115.835 46.0293 115.759 46.2238 115.608 46.375C115.457 46.5262 115.273 46.6019 115.057 46.6019H111.006V53.0185C111.006 53.8395 111.147 54.4877 111.427 54.963C111.73 55.4167 112.248 55.6435 112.983 55.6435H115.349C115.565 55.6435 115.748 55.7191 115.9 55.8704C116.051 56.0216 116.126 56.2053 116.126 56.4213V58.8195C116.126 59.0571 116.051 59.2516 115.9 59.4028C115.748 59.554 115.565 59.6296 115.349 59.6296H112.529Z" fill="#F2F2F2"/>
</g>
<defs>
<clipPath id="clip0_50_2">
<rect width="350" height="200" fill="white"/>
</clipPath>
</defs>
</svg>
