<svg version="1.1" xmlns="http://www.w3.org/2000/svg" xmlns:xlink="http://www.w3.org/1999/xlink" width="100.35101" height="100.04222" viewBox="0,0,100.35101,100.04222"><g transform="translate(-269.90888,-129.97889)"><g data-paper-data="{&quot;isPaintingLayer&quot;:true}" fill-rule="nonzero" stroke-linejoin="miter" stroke-miterlimit="10" stroke-dasharray="" stroke-dashoffset="0" style="mix-blend-mode: normal"><g stroke="none" stroke-width="0"><path d="M355.92603,154.68322c-0.65766,1.32451 -2.25725,2.84966 -3.38753,4.28267c-1.92002,2.46738 -3.37864,7.06633 -5.86885,8.16927c-1.30018,0.40542 -1.38004,-3.57875 -1.72051,-5.14971c-0.22753,-0.97342 -0.41099,-1.70883 0.24659,-3.03229c0.65766,-1.32459 1.83955,-2.85727 3.38753,-4.28267c1.54805,-1.4254 3.17288,-2.4771 4.54712,-3.02348c1.37311,-0.54638 2.49669,-0.58857 3.04224,0.00392c0.54555,0.59249 0.41107,1.70876 -0.24659,3.03229z" fill="#3d2949" stroke-linecap="round"/><path d="M288.05373,148.86326c0.54555,-0.59249 1.66913,-0.5503 3.04224,-0.00392c1.37424,0.54638 2.99907,1.59808 4.54705,3.02348c1.54805,1.4254 2.72987,2.95808 3.38761,4.28267c0.65759,1.32346 0.73534,2.14883 0.24659,3.03229c-0.77482,1.39428 -1.9876,3.59894 -3.30096,3.02868c-2.37237,-0.89604 -2.88718,-4.05853 -4.2884,-6.04824c-1.04929,-1.48544 -2.72987,-2.95816 -3.38753,-4.28267c-0.65766,-1.32353 -0.79215,-2.4398 -0.24659,-3.03229z" fill="#3d2949" stroke-linecap="butt"/><path d="M298.01282,206.05852c-5.8357,-4.2227 -9.03984,-10.46856 -9.79786,-16.94037c-1.07287,-9.23679 0.4782,-18.34113 4.46078,-26.14242c2.89562,-5.01047 5.49334,-6.71705 9.34423,-8.26352c3.64513,-1.43489 7.39972,0.24569 13.99178,-0.3746c1.47007,-0.02667 2.93269,0.21819 4.41708,0.17781c1.41078,-0.08423 2.82171,-0.63227 4.24477,-0.55143c4.96188,0.28238 10.40919,-0.48716 15.15936,1.49629c3.69576,1.65692 7.31187,4.87878 8.75972,8.81246c2.61708,7.12488 3.5682,14.84345 2.40296,22.66983c-0.96325,6.44469 -3.0723,12.96148 -8.60166,17.57799c-5.52943,4.61651 -13.28258,7.62439 -21.94263,7.92448c-8.66005,0.30016 -16.60283,-2.16382 -22.43853,-6.38652z" fill="#3d2949" stroke-linecap="butt"/><path d="M355.54407,150.91611c-0.65766,1.32451 -2.25725,2.84966 -3.38753,4.28267c-1.92002,2.46738 -3.37864,7.06633 -5.86885,8.16927c-1.30018,0.40542 -1.38004,-3.57875 -1.72051,-5.14971c-0.22753,-0.97342 -0.41099,-1.70883 0.24659,-3.03229c0.65766,-1.32459 1.83955,-2.85727 3.38753,-4.28267c1.54805,-1.4254 3.17288,-2.4771 4.54712,-3.02348c1.37311,-0.54638 2.49669,-0.58857 3.04224,0.00392c0.54555,0.59249 0.41107,1.70876 -0.24659,3.03229z" fill="#5b3e6d" stroke-linecap="round"/><path d="M287.67179,145.09615c0.54555,-0.59249 1.66913,-0.5503 3.04224,-0.00392c1.37424,0.54638 2.99907,1.59808 4.54705,3.02348c1.54805,1.4254 2.72987,2.95808 3.38761,4.28267c0.65759,1.32346 0.73534,2.14883 0.24659,3.03229c-0.77482,1.39428 -1.9876,3.59894 -3.30096,3.02868c-2.37237,-0.89604 -2.88718,-4.05853 -4.2884,-6.04824c-1.04929,-1.48544 -2.72987,-2.95816 -3.38753,-4.28267c-0.65766,-1.32353 -0.79215,-2.4398 -0.24659,-3.03229z" fill="#5b3e6d" stroke-linecap="butt"/><path d="M298.1702,204.17902c-5.8357,-4.2227 -9.03984,-10.46856 -9.79786,-16.94037c-1.07287,-9.23679 0.4782,-18.34113 4.46078,-26.14242c2.89562,-5.01047 5.49334,-6.71705 9.34423,-8.26352c3.64513,-1.43489 7.39972,0.24569 13.99178,-0.3746c1.47007,-0.02667 2.93269,0.21819 4.41708,0.17781c1.41078,-0.08423 2.82171,-0.63227 4.24477,-0.55143c4.96188,0.28238 10.40919,-0.48716 15.15936,1.49629c3.69576,1.65692 7.31187,4.87878 8.75972,8.81246c2.61708,7.12488 3.5682,14.84345 2.40296,22.66983c-0.96325,6.44469 -3.0723,12.96148 -8.60166,17.57799c-5.52943,4.61651 -13.28258,7.62439 -21.94263,7.92448c-8.66005,0.30016 -16.60283,-2.16382 -22.43853,-6.38652z" fill="#5b3e6d" stroke-linecap="butt"/></g></g></g></svg>