<svg version="1.1" xmlns="http://www.w3.org/2000/svg" xmlns:xlink="http://www.w3.org/1999/xlink" width="100.35101" height="100.04222" viewBox="0,0,100.35101,100.04222"><g transform="translate(-269.90888,-129.97889)"><g data-paper-data="{&quot;isPaintingLayer&quot;:true}" fill-rule="nonzero" stroke-linejoin="miter" stroke-miterlimit="10" stroke-dasharray="" stroke-dashoffset="0" style="mix-blend-mode: normal"><path d="M298.31816,206.74434c-5.23095,-4.14932 -10.80649,-9.49986 -11.79465,-15.96036c-1.34473,-8.84654 4.66135,-19.50863 4.6609,-26.05196c-0.00177,-2.33377 -2.22393,8.36331 -5.00816,8.33983c-3.13325,-0.04297 -7.52485,-5.52239 -6.60977,-9.29257c1.4271,-5.80321 6.75816,-10.41893 12.28452,-13.90165c2.94944,-1.84833 7.27194,-0.75164 10.56331,0.21969c4.57808,1.36022 8.47183,4.42261 12.97373,5.99587c1.4302,0.49607 3.00038,0.54835 4.51651,0.57581c1.51435,-0.15724 3.0172,-0.50804 4.46336,-0.96027c4.55548,-1.43243 8.67691,-4.10371 13.38918,-5.1149c3.61161,-0.83801 8.14805,-2.37984 11.22948,-0.35256c5.6442,3.72943 10.67449,8.9493 12.02806,15.00055c0.87389,3.90083 -3.38572,9.80238 -6.48221,9.78244c-2.93836,-0.05226 -4.92179,-11.23701 -5.38287,-9.07864c-1.03246,4.84249 3.87736,15.09754 2.45912,22.58297c-1.16621,6.14913 -5.24512,11.91912 -10.15273,16.02504c-5.50068,4.60642 -11.9191,5.3275 -17.53761,8.55466c-1.55732,0.89293 -1.75265,3.72766 -3.4907,3.74627c-2.00334,0.17762 -3.06239,-2.50917 -4.80175,-3.31264c-5.61584,-2.57828 -12.30756,-2.82984 -17.30774,-6.79756z" fill="#9c0000" stroke="none" stroke-width="0" stroke-linecap="butt"/><path d="M336.72287,183.09923v0v0v0v0v0c0,0 7.65906,8.6583 5.29206,17.64037c-2.36522,8.97942 -17.39853,12.33768 -27.36257,12.1007c-7.38223,-0.1785 -16.91221,-5.66456 -17.7139,-12.76509c-0.74146,-7.05269 12.08875,-14.07306 14.62804,-15.5418l7.62584,-5.61851c2.20843,-0.69008 4.77295,0.36585 6.27845,1.31416l4.93064,2.85864c1.71811,0.56916 5.34389,0.32733 6.32143,0.01153z" fill="#9c0000" stroke="none" stroke-width="0" stroke-linecap="butt"/><path d="M330.66365,201.51119c0,0 -3.18198,4.29061 -10.30775,4.29061c-7.12445,0 -9.03212,-2.82011 -9.03212,-2.82011" fill="#9c0000" stroke="none" stroke-width="0" stroke-linecap="round"/><path d="M310.88395,194.21576c0.648,0 1.23487,0.26265 1.66052,0.68609c0.42476,0.42344 0.68787,1.00855 0.68787,1.65388c0,0.64578 -0.2631,1.23045 -0.68787,1.65433c-0.42565,0.42344 -1.01252,0.68565 -1.66052,0.68565c-0.648,0 -1.23488,-0.26221 -1.66009,-0.68565c-0.42521,-0.42388 -0.6883,-1.00855 -0.6883,-1.65433c0,-0.64534 0.2631,-1.23045 0.68831,-1.65388c0.42521,-0.42344 1.01209,-0.68609 1.66009,-0.68609v0v0v0v0v0v0v0v0v0v0v0v0v0v0v0v0v0v0v0v0v0v0v0v0v0v0v0v0v0v0v0v0v0v0z" fill="#9c0000" stroke="none" stroke-width="0" stroke-linecap="butt"/><path d="M330.59411,193.9943c0.648,0 1.23488,0.26265 1.66053,0.6861c0.42476,0.42344 0.68787,1.00854 0.68787,1.65388c0,0.64578 -0.2631,1.23045 -0.68787,1.65433c-0.42565,0.42344 -1.01253,0.68565 -1.66053,0.68565c-0.648,0 -1.23487,-0.26221 -1.66008,-0.68565c-0.42521,-0.42388 -0.6883,-1.00855 -0.6883,-1.65433c0,-0.64534 0.2631,-1.23044 0.68831,-1.65388c0.42521,-0.42344 1.01208,-0.6861 1.66008,-0.6861v0v0v0v0v0v0v0v0v0v0v0v0v0v0v0v0v0v0v0v0v0v0v0v0v0v0v0v0v0v0v0v0v0v0z" fill="#9c0000" stroke="none" stroke-width="0" stroke-linecap="butt"/><path d="M297.7442,201.00476c-5.23095,-4.14932 -10.80649,-9.49986 -11.79465,-15.96036c-1.34473,-8.84654 4.66135,-19.50863 4.6609,-26.05196c-0.00177,-2.33377 -2.22393,8.36331 -5.00816,8.33983c-3.13325,-0.04297 -7.52485,-5.52239 -6.60977,-9.29257c1.4271,-5.80321 6.75816,-10.41893 12.28452,-13.90165c2.94944,-1.84833 7.27194,-0.75164 10.56331,0.21969c4.57808,1.36022 8.47183,4.42261 12.97373,5.99587c1.4302,0.49607 3.00038,0.54835 4.51651,0.57581c1.51435,-0.15724 3.0172,-0.50804 4.46336,-0.96027c4.55548,-1.43243 8.67691,-4.10371 13.38918,-5.1149c3.61161,-0.83801 8.14805,-2.37984 11.22948,-0.35256c5.6442,3.72943 10.67449,8.9493 12.02806,15.00055c0.87389,3.90083 -3.38572,9.80238 -6.48221,9.78244c-2.93836,-0.05226 -4.92179,-11.23701 -5.38287,-9.07864c-1.03246,4.84249 3.87736,15.09754 2.45912,22.58297c-1.16621,6.14913 -5.24512,11.91912 -10.15273,16.02504c-5.50068,4.60642 -11.9191,5.3275 -17.53761,8.55466c-1.55732,0.89293 -1.75265,3.72766 -3.4907,3.74627c-2.00334,0.17762 -3.06239,-2.50917 -4.80175,-3.31264c-5.61584,-2.57828 -12.30756,-2.82984 -17.30774,-6.79756z" fill="#ff0000" stroke="none" stroke-width="0" stroke-linecap="butt"/><path d="M336.1489,177.35966v0v0v0v0v0c0,0 7.65906,8.6583 5.29206,17.64037c-2.36522,8.97942 -17.39853,12.33768 -27.36257,12.1007c-7.38223,-0.1785 -16.91221,-5.66456 -17.7139,-12.76509c-0.74146,-7.05269 12.08875,-14.07306 14.62804,-15.5418l7.62584,-5.61851c2.20843,-0.69008 4.77295,0.36585 6.27845,1.31416l4.93064,2.85864c1.71811,0.56916 5.34389,0.32733 6.32143,0.01153z" fill="#ff0000" stroke="none" stroke-width="0" stroke-linecap="butt"/><path d="M330.08969,195.77161c0,0 -3.18198,4.29061 -10.30775,4.29061c-7.12445,0 -9.03212,-2.82011 -9.03212,-2.82011" fill="#ff0000" stroke="none" stroke-width="0" stroke-linecap="round"/><path d="M310.30999,188.47618c0.648,0 1.23487,0.26265 1.66052,0.68609c0.42476,0.42344 0.68787,1.00855 0.68787,1.65388c0,0.64578 -0.2631,1.23045 -0.68787,1.65433c-0.42565,0.42344 -1.01252,0.68565 -1.66052,0.68565c-0.648,0 -1.23488,-0.26221 -1.66009,-0.68565c-0.42521,-0.42388 -0.6883,-1.00855 -0.6883,-1.65433c0,-0.64534 0.2631,-1.23045 0.68831,-1.65388c0.42521,-0.42344 1.01209,-0.68609 1.66009,-0.68609v0v0v0v0v0v0v0v0v0v0v0v0v0v0v0v0v0v0v0v0v0v0v0v0v0v0v0v0v0v0v0v0v0v0z" fill="#ff0000" stroke="none" stroke-width="0" stroke-linecap="butt"/><path d="M330.02015,188.25473c0.648,0 1.23488,0.26265 1.66053,0.6861c0.42476,0.42344 0.68787,1.00854 0.68787,1.65388c0,0.64578 -0.2631,1.23045 -0.68787,1.65433c-0.42565,0.42344 -1.01253,0.68565 -1.66053,0.68565c-0.648,0 -1.23487,-0.26221 -1.66008,-0.68565c-0.42521,-0.42388 -0.6883,-1.00855 -0.6883,-1.65433c0,-0.64534 0.2631,-1.23044 0.68831,-1.65388c0.42521,-0.42344 1.01208,-0.6861 1.66008,-0.6861v0v0v0v0v0v0v0v0v0v0v0v0v0v0v0v0v0v0v0v0v0v0v0v0v0v0v0v0v0v0v0v0v0v0z" fill="#ff0000" stroke="none" stroke-width="0" stroke-linecap="butt"/></g></g></svg>