<svg version="1.1" xmlns="http://www.w3.org/2000/svg" xmlns:xlink="http://www.w3.org/1999/xlink" width="100.35101" height="100.04222" viewBox="0,0,100.35101,100.04222"><g transform="translate(-269.82449,-129.97889)"><g data-paper-data="{&quot;isPaintingLayer&quot;:true}" fill-rule="nonzero" stroke-linejoin="miter" stroke-miterlimit="10" stroke-dasharray="" stroke-dashoffset="0" style="mix-blend-mode: normal"><g stroke="none" stroke-width="0"><path d="M321.63552,142.17755c2.76452,-0.29781 1.66242,6.60833 3.76084,9.23573c0.60938,0.75843 0.16214,-3.70068 1.91415,-2.47424c7.12173,5.42372 14.00018,11.45955 19.23203,18.3221c5.3593,7.02728 11.33703,14.71702 12.22832,23.31333c0.66885,5.67194 -4.25264,10.90713 -8.01705,15.20799c-1.76471,2.014 -4.97244,2.38466 -7.61179,3.13549c-7.68152,2.18374 -15.19734,6.18177 -23.21804,6.07895c-7.75499,-0.09985 -14.44834,-4.63197 -21.75426,-6.65487c-1.82684,-0.50595 -1.77551,-0.12457 -2.61235,-0.38389c-2.09073,-0.6271 -4.8062,-0.7811 -5.83263,-2.55957c-2.96856,-5.15154 -6.16413,-10.91565 -5.26964,-16.63709c1.34941,-8.63 6.26862,-16.36971 11.48518,-23.39866c3.97925,-5.36181 10.76537,-8.42308 15.85402,-12.92577c3.48204,-3.23055 5.78852,-9.80777 9.84123,-10.2595z" fill="#009030" stroke-linecap="butt"/><path d="M298.08715,207.51341v0v0v0v0v0v0v0v0v0v0v0v0v0v0v0v0v0v0v0v0v0v0v0v0v0v0v0v0v0l-0.04099,-0.05171c0.03688,0.06601 0.12023,0.79805 -0.10989,0.37013c-0.92186,-1.7117 -2.07514,-3.39763 -2.62893,-5.27261c-0.66718,-2.31112 -1.62242,-4.78407 -1.19503,-7.14348c1.19229,-5.23451 2.6795,-10.74317 5.90662,-15.00136c2.97784,-3.86015 7.61772,-6.45904 12.08626,-8.26603c3.83346,-1.55048 8.22139,-1.35861 12.35935,-1.2926c3.87445,0.06122 8.02952,0.12244 11.47171,1.83688c3.89422,1.7784 7.53787,4.5487 9.70997,8.24839c2.84202,4.83441 5.67779,9.71917 4.83244,16.1157c-0.88285,6.65639 -5.15062,13.01474 -16.14643,15.60679c-10.99641,2.60094 -9.54061,1.66752 -14.23989,2.78528c-1.61763,0.38777 -3.21754,2.23218 -5.08515,2.00974c-1.20522,-0.27286 -1.17518,-2.56558 -2.33325,-3.20576c-4.36542,-2.41242 -13.55781,-5.36234 -13.81592,-5.70662z" fill="#009030" stroke-linecap="round"/><path d="M310.64315,185.23692c0.76878,0 1.465,0.31127 1.96958,0.81349c0.50405,0.50276 0.81653,1.1964 0.81653,1.96236c0,0.76589 -0.31248,1.45953 -0.81653,1.96228c-0.50458,0.50223 -1.20081,0.81349 -1.96958,0.81349c-0.7687,0 -1.46493,-0.31127 -1.96958,-0.81349c-0.50405,-0.50276 -0.81646,-1.1964 -0.81646,-1.96228c0,-0.76596 0.31241,-1.4596 0.81646,-1.96236c0.50466,-0.50223 1.20088,-0.81349 1.96958,-0.81349v0v0v0v0v0v0v0v0v0v0v0v0v0v0v0v0v0v0v0v0v0v0v0v0v0v0v0v0v0v0v0v0z" fill="#009030" stroke-linecap="butt"/><path d="M335.05478,185.42704c0.76878,0 1.465,0.31127 1.96958,0.81349c0.50405,0.50276 0.81653,1.1964 0.81653,1.96236c0,0.76589 -0.31248,1.45953 -0.81653,1.96228c-0.50458,0.50223 -1.20081,0.81349 -1.96958,0.81349c-0.7687,0 -1.46493,-0.31127 -1.96958,-0.81349c-0.50405,-0.50276 -0.81646,-1.1964 -0.81646,-1.96228c0,-0.76596 0.31241,-1.4596 0.81646,-1.96236c0.50466,-0.50223 1.20088,-0.81349 1.96958,-0.81349v0v0v0v0v0v0v0v0v0v0v0v0v0v0v0v0v0v0v0v0v0v0v0v0v0v0v0v0v0v0v0v0z" fill="#009030" stroke-linecap="butt"/><path d="M349.96717,204.13442c0,0 2.64687,-3.6311 4.43333,-10.2887c1.7841,-6.66095 -0.59698,-15.71789 -0.59698,-15.71789c2.9567,4.0553 5.19701,9.25969 4.47273,15.35506c-1.16012,9.7359 -7.13428,13.05611 -10.12025,13.9982l1.81118,-3.34667v0v0v0v0v0v0v0v0v0v0v0v0v0v0v0v0v0v0v0v0v0v0v0v0v0v0v0v0v0v0v0v0v0v0v0z" fill="#009030" stroke-linecap="butt"/><path d="M292.56425,204.32454v0v0v0v0v0v0v0v0v0v0v0v0v0v0v0v0v0v0v0v0v0v0v0v0v0v0v0v0v0v0v0v0v0v0v0v0v0l1.95141,3.34667c-3.21716,-0.94209 -9.65385,-4.2623 -10.90378,-13.9982c-0.78034,-6.09538 1.63345,-11.29977 4.81898,-15.35506c0,0 -2.56543,9.05694 -0.64314,15.71789c1.92472,6.65761 4.77654,10.2887 4.77654,10.2887z" fill="#009030" stroke-linecap="butt"/><path d="M321.25003,138.37512c2.76452,-0.29781 1.66242,6.60833 3.76084,9.23573c0.60938,0.75843 0.16214,-3.70068 1.91415,-2.47424c7.12173,5.42372 14.00018,11.45955 19.23203,18.3221c5.3593,7.02728 11.33703,14.71702 12.22832,23.31333c0.66885,5.67194 -4.25264,10.90713 -8.01705,15.20799c-1.76471,2.014 -4.97244,2.38466 -7.61179,3.13549c-7.68152,2.18374 -15.19734,6.18177 -23.21804,6.07895c-7.75499,-0.09985 -14.44834,-4.63197 -21.75426,-6.65487c-1.82684,-0.50595 -1.77551,-0.12457 -2.61235,-0.38389c-2.09073,-0.6271 -4.8062,-0.7811 -5.83263,-2.55957c-2.96856,-5.15154 -6.16413,-10.91565 -5.26964,-16.63709c1.34941,-8.63 6.26862,-16.36971 11.48518,-23.39866c3.97925,-5.36181 10.76537,-8.42308 15.85402,-12.92577c3.48204,-3.23055 5.78852,-9.80777 9.84123,-10.2595z" fill="#00cc44" stroke-linecap="butt"/><path d="M297.70162,203.71098v0v0v0v0v0v0v0v0v0v0v0v0v0v0v0v0v0v0v0v0v0v0v0v0v0v0v0v0v0l-0.04099,-0.05171c0.03688,0.06601 0.12023,0.79805 -0.10989,0.37013c-0.92186,-1.7117 -2.07514,-3.39763 -2.62893,-5.27261c-0.66718,-2.31112 -1.62242,-4.78407 -1.19503,-7.14348c1.19229,-5.23451 2.6795,-10.74317 5.90662,-15.00136c2.97784,-3.86015 7.61772,-6.45904 12.08626,-8.26603c3.83346,-1.55048 8.22139,-1.35861 12.35935,-1.2926c3.87445,0.06122 8.02952,0.12244 11.47171,1.83688c3.89422,1.7784 7.53787,4.5487 9.70997,8.24839c2.84202,4.83441 5.67779,9.71917 4.83244,16.1157c-0.88285,6.65639 -5.15062,13.01474 -16.14643,15.60679c-10.99641,2.60094 -9.54061,1.66752 -14.23989,2.78528c-1.61763,0.38777 -3.21754,2.23218 -5.08515,2.00974c-1.20522,-0.27286 -1.17518,-2.56558 -2.33325,-3.20576c-4.36542,-2.41242 -13.55781,-5.36234 -13.81592,-5.70662z" fill="#00cc44" stroke-linecap="round"/><path d="M310.25765,181.43449c0.76878,0 1.465,0.31127 1.96958,0.81349c0.50405,0.50276 0.81653,1.1964 0.81653,1.96236c0,0.76589 -0.31248,1.45953 -0.81653,1.96228c-0.50458,0.50223 -1.20081,0.81349 -1.96958,0.81349c-0.7687,0 -1.46493,-0.31127 -1.96958,-0.81349c-0.50405,-0.50276 -0.81646,-1.1964 -0.81646,-1.96228c0,-0.76596 0.31241,-1.4596 0.81646,-1.96236c0.50466,-0.50223 1.20088,-0.81349 1.96958,-0.81349v0v0v0v0v0v0v0v0v0v0v0v0v0v0v0v0v0v0v0v0v0v0v0v0v0v0v0v0v0v0v0v0z" fill="#00cc44" stroke-linecap="butt"/><path d="M334.66927,181.62461c0.76878,0 1.465,0.31127 1.96958,0.81349c0.50405,0.50276 0.81653,1.1964 0.81653,1.96236c0,0.76589 -0.31248,1.45953 -0.81653,1.96228c-0.50458,0.50223 -1.20081,0.81349 -1.96958,0.81349c-0.7687,0 -1.46493,-0.31127 -1.96958,-0.81349c-0.50405,-0.50276 -0.81646,-1.1964 -0.81646,-1.96228c0,-0.76596 0.31241,-1.4596 0.81646,-1.96236c0.50466,-0.50223 1.20088,-0.81349 1.96958,-0.81349v0v0v0v0v0v0v0v0v0v0v0v0v0v0v0v0v0v0v0v0v0v0v0v0v0v0v0v0v0v0v0v0z" fill="#00cc44" stroke-linecap="butt"/><path d="M349.58165,200.33198c0,0 2.64687,-3.6311 4.43333,-10.2887c1.7841,-6.66095 -0.59698,-15.71789 -0.59698,-15.71789c2.9567,4.0553 5.19701,9.25969 4.47273,15.35506c-1.16012,9.7359 -7.13428,13.05611 -10.12025,13.9982l1.81118,-3.34667v0v0v0v0v0v0v0v0v0v0v0v0v0v0v0v0v0v0v0v0v0v0v0v0v0v0v0v0v0v0v0v0v0v0v0z" fill="#00cc44" stroke-linecap="butt"/><path d="M292.17875,200.5221v0v0v0v0v0v0v0v0v0v0v0v0v0v0v0v0v0v0v0v0v0v0v0v0v0v0v0v0v0v0v0v0v0v0v0v0v0l1.95141,3.34667c-3.21716,-0.94209 -9.65385,-4.2623 -10.90378,-13.9982c-0.78034,-6.09538 1.63345,-11.29977 4.81898,-15.35506c0,0 -2.56543,9.05694 -0.64314,15.71789c1.92472,6.65761 4.77654,10.2887 4.77654,10.2887z" fill="#00cc44" stroke-linecap="butt"/></g></g></g></svg>