<svg version="1.1" xmlns="http://www.w3.org/2000/svg" xmlns:xlink="http://www.w3.org/1999/xlink" width="100.35101" height="100.04222" viewBox="0,0,100.35101,100.04222"><g transform="translate(-269.90888,-129.97889)"><g data-paper-data="{&quot;isPaintingLayer&quot;:true}" fill-rule="nonzero" stroke-linejoin="miter" stroke-miterlimit="10" stroke-dasharray="" stroke-dashoffset="0" style="mix-blend-mode: normal"><g stroke="none" stroke-width="0"><path d="M309.86487,148.47703c4.76523,0.3615 9.57238,5.95058 14.73197,7.9326c5.47859,2.10497 12.77205,0.14958 17.14008,4.10796c5.06156,4.58901 7.99549,12.24736 7.79095,18.98158c-0.23628,7.81418 -3.49204,16.09071 -9.13325,21.62993c-5.64177,5.53866 -13.43272,8.96724 -22.03052,8.96724c-8.5978,0 -16.38875,-3.42858 -22.03052,-8.96724c-5.64121,-5.53922 -8.67883,-13.82538 -9.13325,-21.62993c-0.42326,-7.25776 2.01431,-15.37791 7.08267,-20.53976c4.04732,-4.12439 12.18901,-0.45556 16.99843,-3.68299c1.94349,-1.30434 -3.30903,-7.00448 -1.41653,-6.79937z" fill="#005d1f" stroke-linecap="round"/><path d="M288.1555,176.20611c2.84723,0.84573 5.18769,2.41865 6.66871,4.27601c1.48147,1.85804 2.1035,4.00047 1.51365,5.98622c-0.58984,1.98581 -2.28056,3.44127 -4.53609,4.18932c-2.25479,0.7477 -5.07437,0.78793 -7.9216,-0.0578c-2.84729,-0.84573 -5.18769,-2.41865 -6.66877,-4.27596c-1.48141,-1.85804 -2.10344,-4.00047 -1.51359,-5.98628c0.58984,-1.98575 2.28056,-3.44122 4.53609,-4.18932c2.25479,-0.74764 5.07437,-0.78788 7.9216,0.0578z" fill="#005d1f" stroke-linecap="butt"/><path d="M349.80118,177.77013c2.80882,-0.96568 5.62756,-1.04501 7.91209,-0.39363c2.28515,0.65177 4.0361,2.0342 4.70959,3.99321c0.67353,1.95901 0.1429,4.12586 -1.25845,6.04504c-1.40095,1.91844 -3.67257,3.58922 -6.48138,4.5549c-2.80882,0.96568 -5.62761,1.04501 -7.91209,0.39363c-2.28521,-0.65172 -4.0361,-2.0342 -4.70964,-3.99316c-0.67348,-1.95901 -0.14285,-4.12591 1.25845,-6.0451c1.40095,-1.91844 3.67262,-3.58922 6.48144,-4.5549z" fill="#005d1f" stroke-linecap="butt"/><path d="M292.86645,175.81616c1.17233,0 2.23472,0.84142 3.00419,2.20016c0.76946,1.35931 1.24542,3.23593 1.24542,5.30748c0,2.07154 -0.47596,3.94817 -1.24542,5.30748c-0.76946,1.35874 -1.83187,2.20016 -3.00419,2.20016c-1.17233,0 -2.23472,-0.84142 -3.00419,-2.20016c-0.76946,-1.35931 -1.24542,-3.23593 -1.24542,-5.30748c0,-2.07154 0.47596,-3.94817 1.24542,-5.30748c0.76946,-1.35874 1.83187,-2.20016 3.00419,-2.20016z" fill="#005d1f" stroke-linecap="butt"/><path d="M345.08368,175.99691c0.93401,0.0834 1.69157,1.15516 2.16129,2.81896c0.46916,1.66381 0.64985,3.92018 0.43074,6.37231c-0.21911,2.4522 -0.79689,4.6408 -1.55354,6.19502c-0.75722,1.55422 -1.69281,2.47469 -2.62683,2.39122c-0.93401,-0.08346 -1.69157,-1.15521 -2.16129,-2.81902c-0.46916,-1.66375 -0.64985,-3.92012 -0.43074,-6.37231c0.21911,-2.45214 0.79689,-4.64074 1.55354,-6.19496c0.75722,-1.55422 1.69281,-2.47469 2.62683,-2.39122z" fill="#005d1f" stroke-linecap="butt"/><path d="M280.06687,174.21075c1.01464,0.05202 2.25921,0.80799 2.51497,1.79537c0.3334,1.37534 -1.40764,2.68819 -1.62856,4.15317c0.07734,1.33517 1.67475,2.64643 1.21732,3.8659c-0.36988,0.95151 -1.67077,1.58074 -2.68541,1.52873c-1.01458,-0.05207 -1.90155,-0.73496 -2.51492,-1.79543c-0.61336,-1.06099 -0.95265,-2.49996 -0.87236,-4.06477c0.08024,-1.56482 0.56492,-2.96158 1.28355,-3.95423c0.71869,-0.99214 1.67083,-1.58074 2.68541,-1.52873z" fill="#005d1f" stroke-linecap="round"/><path d="M361.65669,179.48329c0.62753,1.05271 0.98597,2.48704 0.92664,4.05276c-0.05932,1.56578 -0.52531,2.96889 -1.23063,3.97106c-0.70538,1.00166 -1.64953,1.60295 -2.66479,1.56448c-1.01521,-0.03847 -2.2549,-0.78096 -2.53871,-1.7616c-0.34705,-1.25533 1.36066,-2.41927 1.55655,-3.7422c-0.08969,-1.47886 -1.70698,-2.94141 -1.2525,-4.28162c0.34257,-0.96075 1.64953,-1.60295 2.66473,-1.56448c1.01521,0.03847 1.91119,0.70946 2.53871,1.7616z" fill="#005d1f" stroke-linecap="round"/><path d="M319.35565,191.96467h-3.54134" fill="#005d1f" stroke-linecap="round"/><path d="M288.21717,172.35967c2.89451,0.85977 5.27382,2.4588 6.77942,4.347c1.50606,1.88889 2.13842,4.06688 1.53879,6.0856c-0.59964,2.01878 -2.31843,3.49841 -4.6114,4.25887c-2.29222,0.76012 -5.15861,0.80102 -8.05313,-0.05876c-2.89456,-0.85977 -5.27382,-2.4588 -6.77948,-4.34694c-1.50601,-1.88889 -2.13837,-4.06688 -1.53873,-6.08566c0.59964,-2.01873 2.31843,-3.49835 4.6114,-4.25887c2.29222,-0.76006 5.15861,-0.80096 8.05313,0.05876z" fill="#009933" stroke-linecap="butt"/><path d="M311.049,145.81212c4.84434,0.3675 9.7313,6.04938 14.97656,8.0643c5.56955,2.13992 12.9841,0.15207 17.42465,4.17615c5.1456,4.66519 8.12824,12.4507 7.92029,19.29671c-0.2402,7.94391 -3.55002,16.35785 -9.28489,21.98904c-5.73544,5.63061 -13.65574,9.11611 -22.39629,9.11611c-8.74055,0 -16.66084,-3.48551 -22.39629,-9.11611c-5.73487,-5.63118 -8.82292,-14.05492 -9.28489,-21.98904c-0.43029,-7.37826 2.04776,-15.63322 7.20027,-20.88078c4.11452,-4.19286 12.39137,-0.46312 17.28064,-3.74414c1.97575,-1.326 -3.36397,-7.12078 -1.44005,-6.91226z" fill="#009933" stroke-linecap="round"/><path d="M350.88633,173.94966c2.85545,-0.98172 5.72098,-1.06236 8.04345,-0.40016c2.32309,0.66259 4.10311,2.06798 4.78777,4.05951c0.68472,1.99153 0.14527,4.19435 -1.27934,6.1454c-1.42421,1.95029 -3.73354,3.64881 -6.58899,4.63052c-2.85545,0.98172 -5.72104,1.06236 -8.04345,0.40016c-2.32315,-0.66254 -4.10311,-2.06798 -4.78783,-4.05945c-0.68466,-1.99153 -0.14522,-4.19441 1.27934,-6.14545c1.42421,-1.95029 3.7336,-3.64881 6.58905,-4.63052z" fill="#009933" stroke-linecap="butt"/><path d="M293.00633,171.96325c1.19178,0 2.27183,0.85539 3.05406,2.23669c0.78224,1.38187 1.26609,3.28966 1.26609,5.3956c0,2.10593 -0.48386,4.01372 -1.26609,5.3956c-0.78224,1.3813 -1.86228,2.23669 -3.05406,2.23669c-1.19178,0 -2.27183,-0.85539 -3.05406,-2.23669c-0.78224,-1.38187 -1.26609,-3.28966 -1.26609,-5.3956c0,-2.10593 0.48386,-4.01372 1.26609,-5.3956c0.78224,-1.3813 1.86228,-2.23669 3.05406,-2.23669z" fill="#009933" stroke-linecap="butt"/><path d="M346.09049,172.147c0.94951,0.08479 1.71965,1.17434 2.19717,2.86576c0.47694,1.69143 0.66064,3.98526 0.43789,6.47811c-0.22275,2.4929 -0.81011,4.71785 -1.57933,6.29787c-0.7698,1.58003 -1.72092,2.51577 -2.67043,2.43092c-0.94951,-0.08485 -1.71965,-1.17439 -2.19717,-2.86582c-0.47694,-1.69137 -0.66064,-3.9852 -0.43789,-6.47811c0.22275,-2.49284 0.81011,-4.71779 1.57933,-6.29781c0.7698,-1.58003 1.72092,-2.51577 2.67043,-2.43092z" fill="#009933" stroke-linecap="butt"/><path d="M279.9847,170.36693c1.03148,0.05288 2.29671,0.82141 2.55673,1.82518c0.33893,1.39818 -1.43101,2.73282 -1.6556,4.22212c0.07863,1.35734 1.70254,2.69036 1.23753,3.93008c-0.37603,0.96732 -1.69851,1.60698 -2.73,1.5541c-1.03142,-0.05294 -1.93312,-0.74716 -2.55667,-1.82524c-0.62354,-1.0786 -0.96847,-2.54147 -0.88684,-4.13226c0.08156,-1.5908 0.57429,-3.01075 1.30486,-4.01988c0.73062,-1.00861 1.69857,-1.60698 2.73,-1.5541z" fill="#009933" stroke-linecap="round"/><path d="M362.93866,175.69126c0.63794,1.07019 1.00233,2.52833 0.94203,4.12005c-0.06031,1.59178 -0.53403,3.01818 -1.25106,4.03699c-0.71709,1.01829 -1.67692,1.62956 -2.70902,1.59045c-1.03206,-0.03911 -2.29234,-0.79393 -2.58086,-1.79085c-0.35281,-1.27618 1.38326,-2.45944 1.58239,-3.80433c-0.09118,-1.50341 -1.73532,-2.99024 -1.2733,-4.35271c0.34826,-0.9767 1.67692,-1.62956 2.70897,-1.59045c1.03206,0.03911 1.94292,0.72123 2.58086,1.79085z" fill="#009933" stroke-linecap="round"/><path d="M316.3352,188.37986h3.60013" fill="#009933" stroke-linecap="round"/></g></g></g></svg>