<svg version="1.1" xmlns="http://www.w3.org/2000/svg" xmlns:xlink="http://www.w3.org/1999/xlink" width="100.35101" height="100.04222" viewBox="0,0,100.35101,100.04222"><g transform="translate(-269.90888,-129.97889)"><g data-paper-data="{&quot;isPaintingLayer&quot;:true}" fill-rule="nonzero" stroke-linejoin="miter" stroke-miterlimit="10" stroke-dasharray="" stroke-dashoffset="0" style="mix-blend-mode: normal"><g stroke-width="0.898" stroke-linecap="round"><g fill="#833116" stroke="#833116"><path d="M297.12805,173.07478c0,0 0.52393,-2.15425 4.98264,-6.73278c4.45644,-4.57627 9.28086,-6.15238 12.48038,-7.46801c3.19896,-1.31558 5.34715,-7.88902 5.34715,-7.88902c0,0 2.94543,3.67554 5.97367,7.01761c3.08967,3.40821 10.28425,6.39485 17.99374,14.17876c0.92007,0.93188 1.70205,1.90724 2.3595,2.90803l0.13295,0.11642c1.72232,1.49813 7.82844,7.47537 7.04589,16.17645c-0.59835,6.62876 -3.6035,8.72367 -5.05931,9.28765l-0.01186,0.04858c0.75043,-1.49134 1.19726,-3.07367 1.4085,-4.67973c0.69521,-5.31262 -2.1578,-8.76602 -3.98772,-13.3864c-2.37243,-5.99247 -8.8622,-9.36399 -17.26583,-9.19615c-15.9931,0.31761 -19.51549,9.3363 -19.51549,9.3363l-0.0118,0.11642c2.96739,5.52621 4.15166,17.78584 -1.92346,21.45458c-6.54329,3.94564 -16.23315,2.56847 -20.00617,-12.6795c-3.45418,-13.95435 6.88803,-18.35152 9.93097,-18.3154l0.12623,-0.29382v0v0zM346.26515,175.08939c0,0 4.19563,6.68703 2.82993,14.95011M297.00125,173.3681c2.94204,0.08024 4.91394,2.19264 4.91394,2.19264M309.00048,182.90723c-0.49527,-0.7748 -0.84059,-1.4128 -0.84059,-1.4128"/><path d="M306.55591,204.7229v0v0l-0.03495,-0.04349c0.18702,-0.10119 0.37186,-0.20856 0.55437,-0.31761c6.08303,-3.67328 4.88577,-15.95996 1.91274,-21.47384l0.02422,-0.09717c0,0 3.52239,-9.01869 19.51887,-9.3363c8.40251,-0.16783 14.89165,3.20368 17.26414,9.19615c1.82993,4.62095 4.68519,8.07434 3.98772,13.3864c-0.7279,5.52854 -4.24915,10.80958 -13.32209,12.96319c-9.07288,2.16042 -8.70893,1.00362 -11.74903,2.31359c-3.0418,1.31841 -3.19783,1.89541 -3.19783,1.89541c0,0 0.97409,-1.91127 -2.9229,-2.88834c-5.88408,-1.46987 -11.30226,-5.0945 -12.03525,-5.59802z"/></g><g fill="#f05a28" stroke="#f05a28"><path d="M297.2417,168.88055c0,0 0.52393,-2.15425 4.98264,-6.73278c4.45644,-4.57627 9.28086,-6.15238 12.48038,-7.46801c3.19896,-1.31558 5.34715,-7.88902 5.34715,-7.88902c0,0 2.94543,3.67554 5.97367,7.01761c3.08967,3.40821 10.28425,6.39485 17.99374,14.17876c0.92007,0.93188 1.70205,1.90724 2.3595,2.90803l0.13295,0.11642c1.72232,1.49813 7.82844,7.47537 7.04589,16.17645c-0.59835,6.62876 -3.6035,8.72367 -5.05931,9.28765l-0.01186,0.04858c0.75043,-1.49134 1.19726,-3.07367 1.4085,-4.67973c0.69521,-5.31262 -2.1578,-8.76602 -3.98772,-13.3864c-2.37243,-5.99247 -8.8622,-9.36399 -17.26583,-9.19615c-15.9931,0.31761 -19.51549,9.3363 -19.51549,9.3363l-0.0118,0.11642c2.96739,5.52621 4.15166,17.78584 -1.92346,21.45458c-6.54329,3.94564 -16.23315,2.56847 -20.00617,-12.6795c-3.45418,-13.95435 6.88803,-18.35152 9.93097,-18.3154l0.12623,-0.29382v0v0zM346.3788,170.89515c0,0 4.19563,6.68703 2.82993,14.95011M297.1149,169.17387c2.94204,0.08024 4.91394,2.19264 4.91394,2.19264M309.11414,178.71298c-0.49527,-0.7748 -0.84059,-1.4128 -0.84059,-1.4128"/><path d="M306.66956,200.52867v0v0l-0.03495,-0.04349c0.18702,-0.10119 0.37186,-0.20856 0.55437,-0.31761c6.08303,-3.67328 4.88577,-15.95996 1.91274,-21.47384l0.02422,-0.09717c0,0 3.52239,-9.01869 19.51887,-9.3363c8.40251,-0.16783 14.89165,3.20368 17.26414,9.19615c1.82993,4.62095 4.68519,8.07434 3.98772,13.3864c-0.7279,5.52854 -4.24915,10.80958 -13.32209,12.96319c-9.07288,2.16042 -8.70893,1.00362 -11.74903,2.31359c-3.0418,1.31841 -3.19783,1.89541 -3.19783,1.89541c0,0 0.97409,-1.91127 -2.9229,-2.88834c-5.88408,-1.46987 -11.30226,-5.0945 -12.03525,-5.59802z"/></g></g></g></g></svg>