<svg version="1.1" xmlns="http://www.w3.org/2000/svg" xmlns:xlink="http://www.w3.org/1999/xlink" width="100.35101" height="100.04222" viewBox="0,0,100.35101,100.04222"><g transform="translate(-269.90888,-129.97889)"><g data-paper-data="{&quot;isPaintingLayer&quot;:true}" fill-rule="nonzero" stroke-linejoin="miter" stroke-miterlimit="10" stroke-dasharray="" stroke-dashoffset="0" style="mix-blend-mode: normal"><g stroke="none" stroke-width="0"><path d="M356.54185,180.97736c0.73745,1.56376 0.2229,3.73555 -0.82856,5.28824c-1.32542,1.95211 -3.66728,3.25802 -5.96459,4.2135c-2.16936,1.15084 -4.72355,2.17209 -7.14844,1.97028c-1.86828,-0.15944 -3.86981,-1.16111 -4.60726,-2.72487c-0.73745,-1.56376 -0.36641,-3.47077 0.8285,-5.28823c1.19546,-1.81772 3.21443,-3.54644 5.77318,-4.75303c2.55868,-1.20664 5.17688,-1.66472 7.33985,-1.43076c2.16243,0.23426 3.86988,1.16111 4.60733,2.72487z" fill="#9a5d5d" stroke-linecap="round"/><path d="M353.00203,178.18678c1.06069,0 2.02232,0.51042 2.71843,1.33581c0.69611,0.82491 1.12677,1.9642 1.12677,3.22148c0,1.25722 -0.43066,2.39657 -1.12677,3.22143c-0.69611,0.82546 -1.65774,1.33587 -2.71843,1.33587c-1.06069,0 -2.02232,-0.51041 -2.71843,-1.33587c-0.69617,-0.82485 -1.12683,-1.96421 -1.12683,-3.22143c0,-1.25728 0.43066,-2.39657 1.12683,-3.22148c0.69611,-0.82539 1.65773,-1.33581 2.71843,-1.33581z" fill="#9a5d5d" stroke-linecap="butt"/><path d="M320.24639,163.83034c8.03225,1.33964 17.07621,2.9733 22.954,7.77732c5.87834,4.80341 9.51674,11.43688 9.51674,18.75801c0,7.32107 -4.08846,14.05282 -9.51674,18.75795c-5.39418,4.67351 -11.75558,4.3485 -17.54225,6.78847c-2.48769,1.0528 -4.79941,4.01425 -7.6904,4.05443c-2.22054,-0.04018 -3.78429,-2.96467 -5.98148,-4.05443c-4.83812,-2.40636 -9.68427,-2.28898 -14.69387,-6.78847c-5.33036,-4.83697 -9.5168,-11.43688 -9.5168,-18.75795c0,-7.32113 4.50721,-13.57487 9.5168,-18.75801c3.98646,-3.69385 5.66699,-1.72726 6.43379,-4.48101c1.464,-5.27608 -1.25272,-11.63991 -0.56967,-17.37151c0.31785,-2.70038 1.11596,-6.6579 3.41795,-7.91116c2.9919,-1.6198 7.17604,-0.51946 10.53879,0.65928c1.87364,0.65727 3.31655,2.55528 4.44338,4.38405c0.69209,1.13261 1.16726,2.51771 1.05389,3.85669c-0.11683,1.33307 -0.7634,2.56519 -1.50966,3.52705c-0.74225,0.87555 -1.86963,1.20251 -2.76286,1.74708c-0.31274,0.19117 -0.64882,0.28411 -0.99688,0.42848c-0.3156,0.15233 -0.64262,0.40945 -0.99694,0.46155c-0.70468,0.10345 -1.34954,0.1516 -1.99381,0c-0.28824,-0.08443 -0.50245,-0.22418 -0.7121,-0.39559c-0.1384,-0.19712 -0.17883,-0.48585 -0.28484,-0.65927c-0.1361,-0.24393 -0.28994,-0.5419 -0.3418,-0.82406c-0.07859,-0.42786 -0.3384,-1.19722 0,-1.31855c0.8209,-0.29335 1.77681,0.50768 2.62044,0.32964c0.87275,-0.18588 1.66004,-0.37182 2.44958,-1.21959c0.48537,-0.54391 0.94448,-1.16495 0.39875,-2.30746c-0.73653,-1.38444 -2.32764,-2.0628 -3.75973,-2.3074c-1.9044,-0.34544 -5.58043,-1.81893 -5.86758,0.56037c-0.58561,5.29717 1.47373,11.49293 4.55735,15.39375c1.5392,1.9422 2.572,-0.83458 6.83595,-0.32964z" fill="#9a5d5d" stroke-linecap="round"/><path d="M325.99294,182.58415c5.38731,1.52327 6.92767,1.81267 9.68427,3.1331c2.34588,1.08525 4.67978,2.38636 6.41726,4.30151c2.3339,2.56695 5.80199,5.27912 5.80199,8.65834c0,3.37922 -2.21823,6.44114 -5.80199,8.65828c-3.58321,2.21714 -8.53239,3.58948 -13.9938,3.58948c-5.46135,0 -10.41059,-1.37234 -13.99375,-3.58948c-3.58377,-2.21714 -5.05348,-5.27049 -5.80199,-8.65828c-0.65004,-2.94631 0.12814,-6.28225 1.56656,-8.88677c1.76769,-2.87562 4.58295,-5.13719 7.54804,-6.69352c4.50204,-0.64657 5.94842,-0.77416 8.57343,-0.51266z" fill="#9a5d5d" stroke-linecap="round"/><path d="M296.08707,193.23489c-1.16221,1.28008 -3.36548,1.63639 -5.20247,1.25959c-2.3108,-0.47686 -4.4139,-2.14018 -6.1763,-3.89656c-1.89382,-1.56327 -3.81524,-3.53173 -4.55736,-5.8491c-0.56809,-1.78696 -0.40926,-4.01953 0.75295,-5.29954c1.16221,-1.28001 3.06594,-1.66746 5.20247,-1.25959c2.1369,0.40829 4.50696,1.61147 6.60137,3.51313c2.09447,1.9016 3.52019,4.14487 4.13229,6.23253c0.61162,2.08735 0.40926,4.01953 -0.75295,5.29954z" fill="#9a5d5d" stroke-linecap="round"/><path d="M283.03848,178.18678c1.06069,0 2.02231,0.51042 2.71842,1.33581c0.69611,0.82491 1.12677,1.9642 1.12677,3.22148c0,1.25722 -0.43066,2.39657 -1.12677,3.22143c-0.69611,0.82546 -1.65773,1.33587 -2.71842,1.33587c-1.06069,0 -2.02231,-0.51041 -2.71842,-1.33587c-0.69617,-0.82485 -1.12683,-1.96421 -1.12683,-3.22143c0,-1.25728 0.43066,-2.39657 1.12683,-3.22148c0.69611,-0.82539 1.65773,-1.33581 2.71842,-1.33581z" fill="#9a5d5d" stroke-linecap="butt"/><path d="M323.594,193.55007c0.58998,-0.00571 1.12665,0.22806 1.51768,0.60973c0.39054,0.38216 0.63551,0.91227 0.64116,1.50012c0.00571,0.58779 -0.22897,1.12252 -0.6121,1.51215c-0.38355,0.38915 -0.91561,0.63326 -1.50559,0.63892c-0.59004,0.00571 -1.12671,-0.22806 -1.51774,-0.60973c-0.39054,-0.38216 -0.63551,-0.91221 -0.64116,-1.50006c-0.00571,-0.58785 0.22897,-1.12252 0.6121,-1.51215c0.38355,-0.3892 0.91561,-0.63326 1.50565,-0.63897v0v0v0v0v0v0v0v0v0v0v0v0v0v0v0v0v0v0v0v0v0v0v0v0v0v0v0v0v0v0v0v0v0z" fill="#9a5d5d" stroke-linecap="butt"/><path d="M338.5471,193.09418c0.58998,-0.00571 1.12665,0.22806 1.51768,0.60973c0.39054,0.38216 0.63551,0.91227 0.64116,1.50012c0.00571,0.58779 -0.22897,1.12252 -0.6121,1.51215c-0.38355,0.38915 -0.91561,0.63326 -1.50559,0.63892c-0.59004,0.00571 -1.12671,-0.22806 -1.51774,-0.60973c-0.39054,-0.38216 -0.63551,-0.9122 -0.64116,-1.50005c-0.00571,-0.58785 0.22897,-1.12252 0.6121,-1.51215c0.38355,-0.3892 0.91561,-0.63326 1.50564,-0.63897v0v0v0v0v0v0v0v0v0v0v0v0v0v0v0v0v0v0v0v0v0v0v0v0v0v0v0v0v0v0v0v0v0v0v0v0z" fill="#9a5d5d" stroke-linecap="butt"/><path d="M356.17118,178.14279c0.73745,1.56376 0.2229,3.73555 -0.82856,5.28824c-1.32542,1.95211 -3.66728,3.25802 -5.96459,4.2135c-2.16936,1.15084 -4.72355,2.17209 -7.14844,1.97028c-1.86828,-0.15944 -3.86981,-1.16111 -4.60726,-2.72487c-0.73745,-1.56376 -0.36641,-3.47077 0.8285,-5.28823c1.19546,-1.81772 3.21443,-3.54644 5.77318,-4.75303c2.55868,-1.20664 5.17688,-1.66472 7.33985,-1.43076c2.16243,0.23426 3.86988,1.16111 4.60733,2.72487z" fill="#ff9999" stroke-linecap="round"/><path d="M352.63137,175.35219c1.06069,0 2.02232,0.51042 2.71843,1.33581c0.69611,0.82491 1.12677,1.9642 1.12677,3.22148c0,1.25722 -0.43066,2.39657 -1.12677,3.22143c-0.69611,0.82546 -1.65774,1.33587 -2.71843,1.33587c-1.06069,0 -2.02232,-0.51041 -2.71843,-1.33587c-0.69617,-0.82485 -1.12683,-1.96421 -1.12683,-3.22143c0,-1.25728 0.43066,-2.39657 1.12683,-3.22148c0.69611,-0.82539 1.65773,-1.33581 2.71843,-1.33581z" fill="#ff9999" stroke-linecap="butt"/><path d="M319.87573,160.99575c8.03225,1.33964 17.07621,2.9733 22.954,7.77732c5.87834,4.80341 9.51674,11.43688 9.51674,18.75801c0,7.32107 -4.08846,14.05282 -9.51674,18.75795c-5.39418,4.67351 -11.75558,4.3485 -17.54225,6.78847c-2.48769,1.0528 -4.79941,4.01425 -7.6904,4.05443c-2.22054,-0.04018 -3.78429,-2.96467 -5.98148,-4.05443c-4.83812,-2.40636 -9.68427,-2.28898 -14.69387,-6.78847c-5.33036,-4.83697 -9.5168,-11.43688 -9.5168,-18.75795c0,-7.32113 4.50721,-13.57487 9.5168,-18.75801c3.98646,-3.69385 5.66699,-1.72726 6.43379,-4.48101c1.464,-5.27608 -1.25272,-11.63991 -0.56967,-17.37151c0.31785,-2.70038 1.11596,-6.6579 3.41795,-7.91116c2.9919,-1.61979 7.17604,-0.51946 10.53879,0.65928c1.87364,0.65727 3.31655,2.55528 4.44338,4.38405c0.69209,1.13261 1.16726,2.51771 1.05389,3.85669c-0.11683,1.33307 -0.7634,2.56519 -1.50966,3.52705c-0.74225,0.87555 -1.86963,1.20251 -2.76286,1.74708c-0.31274,0.19117 -0.64882,0.28411 -0.99688,0.42848c-0.3156,0.15233 -0.64262,0.40945 -0.99694,0.46155c-0.70468,0.10345 -1.34954,0.1516 -1.99381,0c-0.28824,-0.08443 -0.50245,-0.22418 -0.7121,-0.39559c-0.1384,-0.19712 -0.17883,-0.48585 -0.28484,-0.65927c-0.1361,-0.24393 -0.28994,-0.5419 -0.3418,-0.82406c-0.07859,-0.42786 -0.3384,-1.19722 0,-1.31855c0.8209,-0.29335 1.77681,0.50768 2.62044,0.32964c0.87275,-0.18588 1.66004,-0.37182 2.44958,-1.21959c0.48537,-0.54391 0.94448,-1.16495 0.39875,-2.30746c-0.73653,-1.38444 -2.32764,-2.0628 -3.75973,-2.3074c-1.9044,-0.34544 -5.58043,-1.81893 -5.86758,0.56037c-0.58561,5.29717 1.47373,11.49293 4.55735,15.39375c1.5392,1.9422 2.572,-0.83458 6.83595,-0.32964z" fill="#ff9999" stroke-linecap="round"/><path d="M325.62229,179.74957c5.38731,1.52327 6.92767,1.81267 9.68427,3.1331c2.34588,1.08525 4.67978,2.38636 6.41726,4.30151c2.3339,2.56695 5.80199,5.27912 5.80199,8.65834c0,3.37922 -2.21823,6.44114 -5.80199,8.65828c-3.58321,2.21714 -8.53239,3.58948 -13.9938,3.58948c-5.46135,0 -10.41059,-1.37234 -13.99375,-3.58948c-3.58377,-2.21714 -5.05348,-5.27049 -5.80199,-8.65828c-0.65004,-2.94631 0.12814,-6.28225 1.56656,-8.88677c1.76769,-2.87562 4.58295,-5.13719 7.54804,-6.69352c4.50204,-0.64657 5.94842,-0.77416 8.57343,-0.51266z" fill="#ff9999" stroke-linecap="round"/><path d="M295.71643,190.40033c-1.16221,1.28008 -3.36548,1.63639 -5.20247,1.25959c-2.3108,-0.47686 -4.4139,-2.14018 -6.1763,-3.89656c-1.89382,-1.56327 -3.81524,-3.53173 -4.55736,-5.8491c-0.56809,-1.78696 -0.40926,-4.01953 0.75295,-5.29954c1.16221,-1.28001 3.06594,-1.66746 5.20247,-1.25959c2.1369,0.40829 4.50696,1.61147 6.60137,3.51313c2.09447,1.9016 3.52019,4.14487 4.13229,6.23253c0.61162,2.08735 0.40926,4.01953 -0.75295,5.29954z" fill="#ff9999" stroke-linecap="round"/><path d="M282.66782,175.35219c1.06069,0 2.02231,0.51042 2.71842,1.33581c0.69611,0.82491 1.12677,1.9642 1.12677,3.22148c0,1.25722 -0.43066,2.39657 -1.12677,3.22143c-0.69611,0.82546 -1.65773,1.33587 -2.71842,1.33587c-1.06069,0 -2.02231,-0.51041 -2.71842,-1.33587c-0.69617,-0.82485 -1.12683,-1.96421 -1.12683,-3.22143c0,-1.25728 0.43066,-2.39657 1.12683,-3.22148c0.69611,-0.82539 1.65773,-1.33581 2.71842,-1.33581z" fill="#ff9999" stroke-linecap="butt"/><path d="M323.22334,190.71551c0.58998,-0.00571 1.12665,0.22806 1.51768,0.60973c0.39054,0.38216 0.63551,0.91227 0.64116,1.50012c0.00571,0.58779 -0.22897,1.12252 -0.6121,1.51215c-0.38355,0.38915 -0.91561,0.63326 -1.50559,0.63892c-0.59004,0.00571 -1.12671,-0.22806 -1.51774,-0.60973c-0.39054,-0.38216 -0.63551,-0.91221 -0.64116,-1.50006c-0.00571,-0.58785 0.22897,-1.12252 0.6121,-1.51215c0.38355,-0.3892 0.91561,-0.63326 1.50565,-0.63897v0v0v0v0v0v0v0v0v0v0v0v0v0v0v0v0v0v0v0v0v0v0v0v0v0v0v0v0v0v0v0v0v0z" fill="#ff9999" stroke-linecap="butt"/><path d="M338.17645,190.2596c0.58998,-0.00571 1.12665,0.22806 1.51768,0.60973c0.39054,0.38216 0.63551,0.91227 0.64116,1.50012c0.00571,0.58779 -0.22897,1.12252 -0.6121,1.51215c-0.38355,0.38915 -0.91561,0.63326 -1.50559,0.63892c-0.59004,0.00571 -1.12671,-0.22806 -1.51774,-0.60973c-0.39054,-0.38216 -0.63551,-0.9122 -0.64116,-1.50005c-0.00571,-0.58785 0.22897,-1.12252 0.6121,-1.51215c0.38355,-0.3892 0.91561,-0.63326 1.50564,-0.63897v0v0v0v0v0v0v0v0v0v0v0v0v0v0v0v0v0v0v0v0v0v0v0v0v0v0v0v0v0v0v0v0v0v0v0v0z" fill="#ff9999" stroke-linecap="butt"/></g></g></g></svg>