<svg version="1.1" xmlns="http://www.w3.org/2000/svg" xmlns:xlink="http://www.w3.org/1999/xlink" width="100.35101" height="100.04222" viewBox="0,0,100.35101,100.04222"><g transform="translate(-269.90888,-129.97889)"><g data-paper-data="{&quot;isPaintingLayer&quot;:true}" fill-rule="nonzero" stroke-linejoin="miter" stroke-miterlimit="10" stroke-dasharray="" stroke-dashoffset="0" style="mix-blend-mode: normal"><g stroke="none" stroke-width="0"><path d="M316.55551,148.41881c2.94685,-0.00541 5.71779,3.47085 8.48061,4.28226c7.51818,2.19824 14.67259,-1.8832 22.67251,5.23332c5.09205,4.52693 9.96756,15.76278 9.73102,26.76206c-0.22952,10.66369 -4.1951,17.8273 -10.97276,23.96405c-6.77821,6.13623 -16.13789,9.93508 -26.46758,9.93508c-10.32969,0 -19.68937,-3.79886 -26.46705,-9.93508c-6.77767,-6.13676 -10.76275,-13.35181 -10.97332,-23.96405c-0.21544,-10.84016 4.6866,-22.14418 9.73101,-26.99968c7.31844,-6.73328 14.30884,-2.00445 21.33656,-4.5199c1.75708,-0.629 1.7062,-4.58917 2.929,-4.75806z" fill="#caac28" stroke-linecap="butt"/><path d="M320.7993,179.43388c7.86894,0 14.99844,1.9725 20.1614,5.15916c5.1635,3.18721 8.35936,7.588 8.35936,12.44457c0,4.85657 -3.19586,9.25737 -8.35936,12.44457c-5.16295,3.18665 -12.29246,5.15918 -20.1614,5.15918c-7.86894,0 -14.99898,-1.97252 -20.16194,-5.15918c-5.1635,-3.18721 -8.35936,-7.588 -8.35936,-12.44457c0,-4.85657 3.19586,-9.25738 8.35936,-12.44457c5.16295,-3.18665 12.293,-5.15916 20.16194,-5.15916z" fill="#caac28" stroke-linecap="butt"/><path d="M320.31539,210.24597c-8.50443,0.5727 -9.45387,-10.48614 -9.45387,-10.48614c0,0 4.86036,-0.15427 11.13246,-0.54346c6.271,-0.38702 7.77475,0 7.77475,0c0,0 -0.95107,10.45528 -9.45333,11.0296z" fill="#caac28" stroke-linecap="round"/><path d="M336.21996,190.44563v0v0v0c0.51532,0 0.98896,0.33669 1.14161,0.85527c0.18676,0.63333 0.22788,1.28613 0.12504,1.94003c-0.38866,2.4337 -2.7011,4.0955 -5.157,3.71497c-2.46076,-0.38975 -4.14746,-2.68812 -3.76259,-5.12343c0.10123,-0.65066 0.70478,-1.09236 1.35813,-0.99059c0.64902,0.10176 1.09234,0.71019 0.99004,1.35813c-0.17917,1.14323 0.62034,2.22151 1.78414,2.40447c1.15134,0.18133 2.25561,-0.59652 2.43533,-1.73705c0.04817,-0.30366 0.03032,-0.60735 -0.05467,-0.90073c-0.18676,-0.62954 0.17647,-1.29047 0.80492,-1.47451c0.11368,-0.0314 0.22465,-0.04655 0.33506,-0.04655z" fill="#caac28" stroke-linecap="butt"/><path d="M313.55342,190.44563v0v0v0c0.51532,0 0.98896,0.33669 1.14106,0.85527c0.18676,0.63333 0.22735,1.28613 0.12451,1.94003c-0.3865,2.4337 -2.7049,4.0955 -5.157,3.71497c-2.45968,-0.38975 -4.14638,-2.68812 -3.76259,-5.12343c0.1023,-0.65066 0.70588,-1.09236 1.35867,-0.99059c0.64902,0.10176 1.0918,0.71019 0.99059,1.35813c-0.17917,1.14323 0.62032,2.22151 1.78414,2.40447c1.1546,0.18133 2.25561,-0.59652 2.43587,-1.73705c0.04709,-0.30366 0.02869,-0.60735 -0.05575,-0.90073c-0.18622,-0.62954 0.17592,-1.29047 0.80545,-1.47451c0.11314,-0.0314 0.22519,-0.04655 0.33508,-0.04655z" fill="#caac28" stroke-linecap="butt"/><path d="M316.55551,141.40441c2.94685,-0.00541 5.71779,3.47085 8.48061,4.28226c7.51818,2.19824 14.67259,-1.8832 22.67251,5.23332c5.09205,4.52693 9.96756,15.76278 9.73102,26.76206c-0.22952,10.66369 -4.1951,17.8273 -10.97276,23.96405c-6.77821,6.13623 -16.13789,9.93508 -26.46758,9.93508c-10.32969,0 -19.68937,-3.79886 -26.46705,-9.93508c-6.77767,-6.13676 -10.76275,-13.35181 -10.97332,-23.96405c-0.21544,-10.84016 4.6866,-22.14418 9.73101,-26.99968c7.31844,-6.73328 14.30884,-2.00445 21.33656,-4.5199c1.75708,-0.629 1.7062,-4.58917 2.929,-4.75806z" fill="#ffd833" stroke-linecap="butt"/><path d="M320.7993,172.41948c7.86894,0 14.99844,1.9725 20.1614,5.15916c5.1635,3.18721 8.35936,7.588 8.35936,12.44457c0,4.85657 -3.19586,9.25737 -8.35936,12.44457c-5.16295,3.18665 -12.29246,5.15918 -20.1614,5.15918c-7.86894,0 -14.99898,-1.97252 -20.16194,-5.15918c-5.1635,-3.18721 -8.35936,-7.588 -8.35936,-12.44457c0,-4.85657 3.19586,-9.25738 8.35936,-12.44457c5.16295,-3.18665 12.293,-5.15916 20.16194,-5.15916z" fill="#ffd833" stroke-linecap="butt"/><path d="M320.31539,203.23157c-8.50443,0.5727 -9.45387,-10.48614 -9.45387,-10.48614c0,0 4.86036,-0.15427 11.13246,-0.54346c6.271,-0.38702 7.77475,0 7.77475,0c0,0 -0.95107,10.45528 -9.45333,11.0296z" fill="#ffd833" stroke-linecap="round"/><path d="M336.21996,183.43122v0v0v0c0.51532,0 0.98896,0.33669 1.14161,0.85527c0.18676,0.63333 0.22788,1.28613 0.12504,1.94003c-0.38866,2.4337 -2.7011,4.0955 -5.157,3.71497c-2.46076,-0.38975 -4.14746,-2.68812 -3.76259,-5.12343c0.10123,-0.65066 0.70478,-1.09236 1.35813,-0.99059c0.64902,0.10176 1.09234,0.71019 0.99004,1.35813c-0.17917,1.14323 0.62034,2.22151 1.78414,2.40447c1.15134,0.18133 2.25561,-0.59652 2.43533,-1.73705c0.04817,-0.30366 0.03032,-0.60735 -0.05467,-0.90073c-0.18676,-0.62954 0.17647,-1.29047 0.80492,-1.47451c0.11368,-0.0314 0.22465,-0.04655 0.33506,-0.04655z" fill="#ffd833" stroke-linecap="butt"/><path d="M313.55342,183.43122v0v0v0c0.51532,0 0.98896,0.33669 1.14106,0.85527c0.18676,0.63333 0.22735,1.28613 0.12451,1.94003c-0.3865,2.4337 -2.7049,4.0955 -5.157,3.71497c-2.45968,-0.38975 -4.14638,-2.68812 -3.76259,-5.12343c0.1023,-0.65066 0.70588,-1.09236 1.35867,-0.99059c0.64902,0.10176 1.0918,0.71019 0.99059,1.35813c-0.17917,1.14323 0.62032,2.22151 1.78414,2.40447c1.1546,0.18133 2.25561,-0.59652 2.43587,-1.73705c0.04709,-0.30366 0.02869,-0.60735 -0.05575,-0.90073c-0.18622,-0.62954 0.17592,-1.29047 0.80545,-1.47451c0.11314,-0.0314 0.22519,-0.04655 0.33508,-0.04655z" fill="#ffd833" stroke-linecap="butt"/></g></g></g></svg>