<svg version="1.1" xmlns="http://www.w3.org/2000/svg" xmlns:xlink="http://www.w3.org/1999/xlink" width="100.35101" height="100.04222" viewBox="0,0,100.35101,100.04222"><g transform="translate(-269.90888,-129.97889)"><g data-paper-data="{&quot;isPaintingLayer&quot;:true}" fill-rule="nonzero" stroke-width="1" stroke-miterlimit="10" stroke-dasharray="" stroke-dashoffset="0" style="mix-blend-mode: normal"><g><path d="M340.66171,202.79632l4.16916,-9.11345l4.54817,1.17939l-2.77944,9.11345c0,0 -1.76561,3.96559 -4.62592,2.7794c-3.04735,-1.26376 -1.31198,-3.95879 -1.31198,-3.95879z" data-paper-data="{&quot;index&quot;:null}" fill="#faa51d" stroke="#414042" stroke-linecap="butt" stroke-linejoin="miter"/><path d="M344.6711,194.40418l0.03314,-0.00828c0.0082,-0.02242 0.01679,-0.0447 0.02577,-0.06684c-0.07136,-0.28379 -0.01092,-0.50325 0.24632,-0.68984c0.00409,-0.06613 0.00681,-0.12422 0.00681,-0.17079c0,0 0,-0.32165 0.32165,-0.32165c0.20572,0 0.27986,0.13157 0.30659,0.22641l0.2295,-0.01198c0,0 0.04791,0 0.10676,0.0185l0.00596,-0.00199l0.00147,0.0044c0.03793,0.01275 0.07965,0.03328 0.11566,0.06633c0.18753,-0.05349 0.38096,-0.08309 0.5722,-0.08309l0.37185,0.11957c0,0 0.2421,0.0807 0.22313,0.31399c0.13035,0.03013 0.25768,0.06746 0.3792,0.11346c0.03338,0.00575 0.06583,0.01274 0.0971,0.02115c0.1229,-0.21023 0.37275,-0.12695 0.37275,-0.12695c0.35321,0.12343 0.64402,0.05252 0.85141,0.24525c0.48643,-0.2667 1.09097,-0.12174 1.38117,0.36568c0.03038,0.05102 0.02448,0.6579 0.02448,0.76639v0.32165c0,0 0,0.32165 -0.32165,0.32165c-0.32165,0 -0.32165,-0.32165 -0.32165,-0.32165v-0.32165c0,-0.1736 0.06239,-0.35081 0.02449,-0.52021c-0.05943,-0.26558 -0.14025,-0.06585 -0.25621,-0.0287c-0.12704,0.0407 -0.21995,0.08749 -0.2946,0.14295l-0.02627,0.07882l-0.01525,-0.00509c-0.02771,0.14474 -0.07958,0.27833 -0.18024,0.37711l-0.0166,0.0498c-0.04042,0.13143 -0.1628,0.22697 -0.30749,0.22697c-0.15213,0 -0.27959,-0.10561 -0.31307,-0.24752c-0.02754,-0.02978 -0.0567,-0.06283 -0.08668,-0.09758c-0.1284,0.11482 -0.25459,0.23328 -0.44212,0.32062c-0.22565,0.10509 -0.46188,0.08481 -0.69564,0.02619c-0.03391,0.0085 -0.06874,0.00841 -0.10465,-0.00349c-0.15275,-0.0506 -0.27392,-0.09814 -0.3686,-0.14316c-0.10011,-0.03138 -0.19794,-0.05851 -0.29232,-0.07364c-0.26245,-0.04207 -0.53849,-0.02686 -0.78893,-0.11589c-0.10918,-0.03882 -0.23603,-0.06205 -0.34166,-0.11175c-0.0051,0.00175 -0.01026,0.00338 -0.01547,0.00488c-0.05631,0.5072 0.01819,1.09724 0.01819,1.51352v0.10721c0,0 0,0.32165 -0.32165,0.32165c-0.32165,0 -0.32165,-0.32165 -0.32165,-0.32165v-0.10721c0,-0.7136 -0.08683,-1.4737 0.12944,-2.12307zM346.64837,194.71992c0.05971,-0.05089 0.11293,-0.10344 0.14398,-0.15937c-0.12051,-0.00038 -0.24073,-0.00711 -0.35969,-0.0241c-0.1324,-0.01891 -0.24971,-0.06025 -0.3591,-0.1154l-0.41139,-0.10284c-0.03564,-0.00809 -0.06902,-0.02209 -0.09908,-0.04092c-0.0096,0.1523 -0.01206,0.27008 0.00263,0.28969c0.07082,0.09453 0.72447,0.06123 0.86275,0.08501c0.0581,0.00998 0.13407,0.03587 0.21988,0.06795z" data-paper-data="{&quot;index&quot;:null}" fill="#faa51d" stroke="none" stroke-linecap="butt" stroke-linejoin="miter"/><path d="M351.0773,162.85544l3.62394,-2.53033" data-paper-data="{&quot;index&quot;:null}" fill="none" stroke="#414042" stroke-linecap="round" stroke-linejoin="round"/><g data-paper-data="{&quot;index&quot;:null}" fill="#faa51d" stroke="#414042" stroke-linecap="round" stroke-linejoin="round"><path d="M349.87646,203.34061c0,0 -1.6297,6.39014 -0.83629,11.53656c0.23588,1.43671 -0.10721,1.92991 -1.45815,2.42311c-1.43671,0.51464 -8.01984,0.66475 -8.12706,-0.81485c-0.38598,-5.23219 4.65323,-2.18723 4.8891,-4.86766c0.09316,-1.08442 0.13452,-2.09759 0.13925,-3.03155"/><path d="M342.69292,213.63346"/></g><path d="M366.90341,181.29535c0,0 -2.3847,0.81006 -3.51221,0.98025c-1.12272,0.1911 -3.35965,0.35137 -3.35965,0.35137" data-paper-data="{&quot;index&quot;:null}" fill="none" stroke="#414042" stroke-linecap="round" stroke-linejoin="round"/><path d="M359.34889,180.07748c0,0 1.14088,-1.49317 3.1087,-3.0877c2.18331,-1.77587 3.44529,-2.39483 3.44529,-2.39483" data-paper-data="{&quot;index&quot;:null}" fill="none" stroke="#414042" stroke-linecap="round" stroke-linejoin="round"/><path d="M322.81487,178.18748c0,0 -3.08785,-0.4932 -4.65322,-1.05073c-1.84413,-0.6433 -3.08785,-1.71547 -3.08785,-1.71547" data-paper-data="{&quot;index&quot;:null}" fill="none" stroke="#414042" stroke-linecap="round" stroke-linejoin="round"/><path d="M322.49322,182.21885c0,0 -1.84413,0.75052 -3.7526,0.94351c-1.88702,0.19299 -3.15218,0.06433 -3.15218,0.06433" data-paper-data="{&quot;index&quot;:null}" fill="none" stroke="#414042" stroke-linecap="round" stroke-linejoin="round"/><path d="M343.14323,192.49025c4.80333,0 7.67675,1.30805 7.67675,6.0256c0,4.71756 0.72908,11.08625 -7.67675,11.08625c-8.40582,0 -7.20499,-6.99056 -7.20499,-11.72955c0,-4.71756 2.40166,-5.3823 7.20499,-5.3823z" data-paper-data="{&quot;index&quot;:null}" fill="#faa51d" stroke="#414042" stroke-linecap="round" stroke-linejoin="round"/><g data-paper-data="{&quot;index&quot;:null}" fill="#faa51d" stroke="#414042" stroke-linecap="round" stroke-linejoin="round"><path d="M342.18,209.29567c-0.71166,2.1344 -1.28695,4.36465 -0.75224,7.83306c0.23588,1.43671 -0.10722,1.92991 -1.45815,2.42311c-1.43671,0.51464 -8.01984,0.66475 -8.12706,-0.81485c-0.38598,-5.23219 4.65323,-2.18723 4.8891,-4.86766c0.53608,-6.24004 0,-7.65531 0,-7.65531"/><path d="M335.72381,214.4912"/></g><path d="M339.83646,196.75306c0.08103,0.46482 0.16281,0.93111 0.29969,1.38738c0.16833,0.56109 0.55808,0.86597 -0.01366,1.24438l-0.39299,-0.01945c0,-0.37801 -0.03748,-0.72714 -0.0833,-1.07517c-0.07845,0.06461 -0.18921,0.11021 -0.34557,0.11021c-0.06743,0 -0.12638,-0.00848 -0.17791,-0.02331c-0.11659,-0.33316 -0.23747,-0.6651 -0.33595,-1.00332c-0.00689,-0.02367 -0.01348,-0.04727 -0.01979,-0.07078c0.01213,-0.35182 0.06334,-0.70629 0.00724,-1.05277c-0.01684,-0.10399 -0.19127,-0.44069 -0.30931,-0.70235c-0.02904,-0.10494 -0.064,-0.21093 -0.107,-0.31845c0.00171,-0.00714 0.00394,-0.01382 0.00667,-0.02008l0.05558,-0.16744c-0.06513,-0.1084 -0.22577,-0.44896 0.12996,-0.71576c0.04594,-0.03446 0.09065,-0.0603 0.13387,-0.07898l0.08056,-0.24267c0.04437,0.06569 0.09082,0.13346 0.13847,0.20308c0.24073,0.01662 0.39761,0.22579 0.39761,0.22579c0.46557,0.62076 1.04286,1.35603 1.26716,2.10846c0.05967,0.20016 -0.00491,0.41864 0.01684,0.62636c0.07904,0.75475 0.21705,1.42719 0.21705,2.19716l-0.39299,1.05272c-0.32159,-0.28647 -0.70502,-0.51588 -0.96477,-0.85941c-0.11845,-0.15666 -0.06437,-0.3886 -0.12106,-0.57664c-0.06126,-0.20318 -0.12992,-0.40428 -0.20014,-0.60493c-0.35817,-0.10307 -0.35817,-0.51278 -0.35817,-0.51278v-0.42887c0,-0.0441 0.00091,-0.08826 0.00243,-0.13246c-0.16315,-0.60801 -0.13878,-1.16491 -0.30207,-1.75511c-0.0679,-0.15049 -0.11714,-0.27616 -0.10701,-0.31845l0.00667,-0.02008c0.01933,-0.04446 0.06314,-0.06731 0.1171,-0.08121c-0.01306,-0.01727 -0.02599,-0.03443 -0.03877,-0.05147c0,0 -0.00935,-0.01248 -0.02275,-0.03476l0.26384,-0.79475c0.07846,-0.03392 0.152,-0.04422 0.21903,-0.03959c0.15316,0.22373 0.3188,0.46645 0.4682,0.71988l0.01441,-0.00354c0.01147,0.02866 0.02263,0.0574 0.0335,0.08621c0.19079,0.33513 0.34834,0.68713 0.40792,1.03734c0.00626,0.03682 0.00859,0.3705 0.0094,0.70558z" fill="#faa51d" stroke="none" stroke-linecap="butt" stroke-linejoin="miter"/><path d="M332.72765,203.9757l4.16916,-9.11345l4.54817,1.17939l-2.77944,9.11345c0,0 -1.76561,3.96558 -4.62592,2.7794c-3.04735,-1.26376 -1.31198,-3.95879 -1.31198,-3.95879z" fill="#faa51d" stroke="#414042" stroke-linecap="butt" stroke-linejoin="miter"/><path d="M337.17239,195.95566l0.30604,-1.03209c0,0 1.76016,-0.01435 2.87153,0.16794c0.80515,0.13206 2.01867,0.46966 2.01867,0.46966l-0.44821,1.63276z" fill="#faa51d" stroke="none" stroke-linecap="butt" stroke-linejoin="miter"/><path d="M342.4356,160.32511c1.05073,-0.10722 3.21651,-0.21443 4.41735,-0.1501c3.19507,0.1501 6.26148,1.30805 6.26148,1.30805l8.81325,-5.76828l-1.52248,12.82317c-0.42887,-0.53608 7.1621,8.68459 2.35877,16.42566c-4.80333,7.74108 -15.07473,11.19347 -27.76923,8.66314c-12.71595,-2.53033 -15.73947,-9.84253 -14.90318,-13.72379c0.83629,-3.88126 5.63962,-5.29652 5.63962,-5.29652c0,0 0.06433,-3.04496 2.25156,-6.75468c1.30805,-2.20867 5.66106,-5.44663 5.66106,-5.44663l1.92991,-7.82685l5.06065,4.84621z" data-paper-data="{&quot;index&quot;:null}" fill="#faa51d" stroke="#414042" stroke-linecap="round" stroke-linejoin="round"/></g><text transform="translate(276.99301,163.02316) scale(0.38266,0.38266)" font-size="40" xml:space="preserve" fill="#414042" fill-rule="nonzero" stroke="none" stroke-width="1" stroke-linecap="butt" stroke-linejoin="miter" stroke-miterlimit="10" stroke-dasharray="" stroke-dashoffset="0" font-family="'Noto Sans', sans-serif" font-weight="normal" text-anchor="start" style="mix-blend-mode: normal"><tspan x="0" dy="0">M A N.</tspan></text></g></g><style>@import url('https://fonts.googleapis.com/css2?family=Noto+Sans:wght@600&amp;display=swap');</style></svg>