<svg version="1.1" xmlns="http://www.w3.org/2000/svg" xmlns:xlink="http://www.w3.org/1999/xlink" width="100.35101" height="100.04222" viewBox="0,0,100.35101,100.04222"><g transform="translate(-269.90888,-129.97889)"><g data-paper-data="{&quot;isPaintingLayer&quot;:true}" fill-rule="nonzero" stroke-linecap="butt" stroke-linejoin="miter" stroke-miterlimit="10" stroke-dasharray="" stroke-dashoffset="0" style="mix-blend-mode: normal"><g stroke="none" stroke-width="0"><path d="M291.19634,199.95134v0v0v0v0v0v0c-0.03307,-0.05997 -0.9995,-1.74268 -0.9995,-1.74331c-2.68057,-4.48577 -3.27464,-14.631 -3.04158,-17.79724l0.02053,-0.15174c2.90111,-6.84805 4.68967,-14.79374 9.58787,-20.63156c2.21017,-3.03804 7.17961,-2.36164 10.4012,-4.32885c2.1284,-1.30199 3.12599,-6.80971 4.96635,-4.94736l5.95022,5.28319c2.63315,-0.31112 2.76054,-5.08466 4.87076,-6.88585c1.3506,-1.12616 3.14035,-4.60489 4.26543,-1.71724l4.02309,8.89412c1.91532,0.84294 3.15471,-4.38164 5.65973,-5.11854c2.83422,-0.68802 10.77728,-0.41143 9.02688,1.20431l-5.2662,4.7878c1.01513,5.09637 4.89384,6.6138 8.63952,12.82853c0.80151,1.32598 1.73041,2.66822 2.31948,4.21236c2.14212,5.60994 2.45133,15.60869 0.04998,20.56123c-0.4148,0.8762 -0.86638,1.72705 -1.33497,2.56345c-0.12176,0.21489 -0.24424,0.42833 -0.36854,0.63932c-0.42915,0.73555 -0.87711,1.45682 -1.34806,2.15593c-0.06379,0.09314 -0.12185,0.19209 -0.18554,0.28513c-0.5341,0.77789 -1.09763,1.52715 -1.68361,2.2556c-0.13993,0.17573 -0.28731,0.34564 -0.43043,0.5201c-0.5022,0.60152 -1.02258,1.18605 -1.55668,1.74849c-0.12312,0.13148 -0.24306,0.26496 -0.36736,0.3919c-0.64277,0.65485 -1.31244,1.27909 -2.00209,1.87543c-0.15374,0.13085 -0.31112,0.25578 -0.46604,0.38399c-0.57907,0.48176 -1.1776,0.94199 -1.78974,1.38077c-0.17682,0.12494 -0.34919,0.25642 -0.52729,0.37882c-0.74772,0.51229 -1.51361,0.99342 -2.30449,1.43801c-0.1412,0.08005 -0.29112,0.15038 -0.43415,0.2278c-0.67593,0.36655 -1.3675,0.70374 -2.07397,1.01613c-2.9886,1.3208 -6.2339,2.18074 -9.71844,2.44242c-3.98247,0.29885 -7.58759,0.17319 -10.84415,-0.2695c-0.80514,-0.10931 -1.58857,-0.24015 -2.35128,-0.38663c-0.14493,-0.03062 -0.28922,-0.05988 -0.43297,-0.08922c-0.77335,-0.15883 -1.53233,-0.32938 -2.26078,-0.52401c-0.00436,-0.00127 -0.01,-0.00263 -0.01499,-0.00391c-0.72964,-0.19263 -1.43111,-0.40879 -2.1164,-0.63796c-0.11994,-0.03971 -0.24306,-0.07942 -0.36236,-0.11976c-0.6584,-0.22461 -1.29999,-0.46477 -1.91841,-0.71928c-0.10876,-0.04298 -0.21371,-0.09177 -0.32175,-0.13612c-0.61033,-0.25642 -1.20567,-0.52337 -1.77666,-0.80587c-0.02181,-0.01299 -0.04616,-0.02145 -0.06742,-0.03316c-0.58471,-0.29167 -1.14325,-0.59634 -1.68607,-0.9081c-0.10123,-0.05861 -0.20181,-0.11585 -0.30049,-0.17446c-0.52228,-0.30921 -1.02821,-0.62496 -1.51052,-0.95044c-0.07369,-0.04879 -0.14366,-0.09958 -0.2168,-0.14902c-0.45787,-0.31512 -0.90074,-0.63668 -1.32434,-0.96479c-0.04371,-0.03117 -0.09177,-0.06443 -0.13366,-0.09895c-0.44169,-0.34564 -0.85893,-0.69911 -1.26128,-1.0552c-0.07805,-0.06833 -0.15492,-0.1373 -0.22988,-0.20562c-0.39226,-0.35609 -0.76962,-0.71283 -1.12444,-1.07801c-0.04061,-0.03971 -0.07742,-0.08205 -0.11739,-0.1224c-0.33429,-0.34701 -0.65159,-0.69656 -0.95144,-1.04612c-0.04189,-0.05079 -0.08932,-0.10022 -0.13184,-0.14974c-0.3073,-0.36773 -0.97142,-1.24002 -1.02258,-1.30971c-0.26741,-0.36846 -0.52228,-0.73627 -0.7528,-1.10208c-0.01436,-0.0228 -0.02808,-0.04553 -0.04125,-0.06833c-0.22108,-0.35219 -0.42225,-0.69911 -0.61033,-1.04475z" fill="#9b5a00"/><path d="M342.28383,177.35949c2.25415,2.74763 5.78713,5.08193 6.35384,8.70422c0.74809,4.78307 2.16901,7.40141 -2.93264,14.24101c-3.38531,4.53356 -9.28148,10.32632 -24.34999,11.62704c-15.06651,1.29645 -21.56728,-5.94041 -26.2196,-14.82672c-3.11536,-5.95095 4.45061,-13.23069 9.42777,-17.6714c4.80207,-4.2945 11.92716,-4.49413 17.96389,-6.36302c1.51934,-0.61379 1.1249,-0.28686 1.6171,-0.07024c1.38858,0.60179 3.51889,0.89783 4.28878,2.32012c0.54418,1.04412 -0.93717,1.93004 -0.914,2.95298c0.0338,0.67494 0.86548,1.31762 1.37104,2.03899c0.47876,0.79024 1.46872,1.36323 1.58194,2.49594c0.08432,0.95344 -2.12613,2.41017 -1.37104,2.53111c2.42143,0.10686 6.2329,-0.14693 7.73397,-2.07406c1.00186,-1.3029 -2.75118,-2.96779 -2.28505,-4.53493c0.57726,-1.90114 3.86063,-4.32403 4.78099,-3.62093z" fill="#9b5a00"/><path d="M311.48132,188.67632c0.72046,0 1.37304,0.29176 1.84599,0.76244c0.47231,0.47122 0.76517,1.12135 0.76517,1.83917c0,0.71782 -0.29285,1.36787 -0.76517,1.83908c-0.47294,0.47067 -1.12554,0.76244 -1.84599,0.76244c-0.72046,0 -1.37295,-0.29176 -1.8459,-0.76244c-0.4724,-0.47122 -0.76526,-1.12126 -0.76526,-1.83908c0,-0.71782 0.29285,-1.36796 0.76526,-1.83917c0.47294,-0.47067 1.12544,-0.76244 1.8459,-0.76244v0v0v0v0v0v0v0v0v0v0v0v0v0v0v0v0v0v0v0v0v0v0v0v0v0v0v0v0v0v0v0v0z" fill="#9b5a00"/><path d="M334.37905,188.67632c0.72046,0 1.37304,0.29176 1.84599,0.76244c0.47231,0.47122 0.76517,1.12135 0.76517,1.83917c0,0.71782 -0.29285,1.36787 -0.76517,1.83908c-0.47294,0.47067 -1.12554,0.76244 -1.84599,0.76244c-0.72046,0 -1.37295,-0.29176 -1.8459,-0.76244c-0.4724,-0.47122 -0.76526,-1.12126 -0.76526,-1.83908c0,-0.71782 0.29285,-1.36796 0.76526,-1.83917c0.47294,-0.47067 1.12544,-0.76244 1.8459,-0.76244v0v0v0v0v0v0v0v0v0v0v0v0v0v0v0v0v0v0v0v0v0v0v0v0v0v0v0v0v0v0v0v0z" fill="#9b5a00"/><path d="M290.73571,194.89783v0v0v0v0v0v0c-0.03307,-0.05997 -0.9995,-1.74268 -0.9995,-1.74331c-2.68057,-4.48577 -3.27464,-14.631 -3.04158,-17.79724l0.02053,-0.15174c2.90111,-6.84805 4.68967,-14.79374 9.58787,-20.63156c2.21017,-3.03804 7.17961,-2.36164 10.4012,-4.32885c2.1284,-1.30199 3.12599,-6.80971 4.96635,-4.94736l5.95022,5.28319c2.63315,-0.31112 2.76054,-5.08466 4.87076,-6.88585c1.3506,-1.12616 3.14035,-4.60489 4.26543,-1.71724l4.02309,8.89412c1.91532,0.84294 3.15471,-4.38164 5.65973,-5.11854c2.83422,-0.68802 10.77728,-0.41143 9.02688,1.20431l-5.2662,4.7878c1.01513,5.09637 4.89384,6.6138 8.63952,12.82853c0.80151,1.32598 1.73041,2.66822 2.31948,4.21236c2.14212,5.60994 2.45133,15.60869 0.04998,20.56123c-0.4148,0.8762 -0.86638,1.72705 -1.33497,2.56345c-0.12176,0.21489 -0.24424,0.42833 -0.36854,0.63932c-0.42915,0.73555 -0.87711,1.45682 -1.34806,2.15593c-0.06379,0.09314 -0.12185,0.19209 -0.18554,0.28513c-0.5341,0.77789 -1.09763,1.52715 -1.68361,2.2556c-0.13993,0.17573 -0.28731,0.34564 -0.43043,0.5201c-0.5022,0.60152 -1.02258,1.18605 -1.55668,1.74849c-0.12312,0.13148 -0.24306,0.26496 -0.36736,0.3919c-0.64277,0.65485 -1.31244,1.27909 -2.00209,1.87543c-0.15374,0.13085 -0.31112,0.25578 -0.46604,0.38399c-0.57907,0.48176 -1.1776,0.94199 -1.78974,1.38077c-0.17682,0.12494 -0.34919,0.25642 -0.52729,0.37882c-0.74772,0.51229 -1.51361,0.99342 -2.30449,1.43801c-0.1412,0.08005 -0.29112,0.15038 -0.43415,0.2278c-0.67593,0.36655 -1.3675,0.70374 -2.07397,1.01613c-2.9886,1.3208 -6.2339,2.18074 -9.71844,2.44242c-3.98247,0.29885 -7.58759,0.17319 -10.84415,-0.2695c-0.80514,-0.10931 -1.58857,-0.24015 -2.35128,-0.38663c-0.14493,-0.03062 -0.28922,-0.05988 -0.43297,-0.08922c-0.77335,-0.15883 -1.53233,-0.32938 -2.26078,-0.52401c-0.00436,-0.00127 -0.01,-0.00263 -0.01499,-0.00391c-0.72964,-0.19263 -1.43111,-0.40879 -2.1164,-0.63796c-0.11994,-0.03971 -0.24306,-0.07942 -0.36236,-0.11976c-0.6584,-0.22461 -1.29999,-0.46477 -1.91841,-0.71928c-0.10876,-0.04298 -0.21371,-0.09177 -0.32175,-0.13612c-0.61033,-0.25642 -1.20567,-0.52337 -1.77666,-0.80587c-0.02181,-0.01299 -0.04616,-0.02145 -0.06742,-0.03316c-0.58471,-0.29167 -1.14325,-0.59634 -1.68607,-0.9081c-0.10123,-0.05861 -0.20181,-0.11585 -0.30049,-0.17446c-0.52228,-0.30921 -1.02821,-0.62496 -1.51052,-0.95044c-0.07369,-0.04879 -0.14366,-0.09958 -0.2168,-0.14902c-0.45787,-0.31512 -0.90074,-0.63668 -1.32434,-0.96479c-0.04371,-0.03117 -0.09177,-0.06443 -0.13366,-0.09895c-0.44169,-0.34564 -0.85893,-0.69911 -1.26128,-1.0552c-0.07805,-0.06833 -0.15492,-0.1373 -0.22988,-0.20562c-0.39226,-0.35609 -0.76962,-0.71283 -1.12444,-1.07801c-0.04061,-0.03971 -0.07742,-0.08205 -0.11739,-0.1224c-0.33429,-0.34701 -0.65159,-0.69656 -0.95144,-1.04612c-0.04189,-0.05079 -0.08932,-0.10022 -0.13184,-0.14974c-0.3073,-0.36773 -0.97142,-1.24002 -1.02258,-1.30971c-0.26741,-0.36846 -0.52228,-0.73627 -0.7528,-1.10208c-0.01436,-0.0228 -0.02808,-0.04553 -0.04125,-0.06833c-0.22108,-0.35219 -0.42225,-0.69911 -0.61033,-1.04475z" fill="#cc7700"/><path d="M341.82322,172.30597c2.25415,2.74763 5.78713,5.08193 6.35384,8.70422c0.74809,4.78307 2.16901,7.40141 -2.93264,14.24101c-3.38531,4.53356 -9.28148,10.32632 -24.34999,11.62704c-15.06651,1.29645 -21.56728,-5.94041 -26.2196,-14.82672c-3.11536,-5.95095 4.45061,-13.23069 9.42777,-17.6714c4.80207,-4.2945 11.92716,-4.49413 17.96389,-6.36302c1.51934,-0.61379 1.1249,-0.28686 1.6171,-0.07024c1.38858,0.60179 3.51889,0.89783 4.28878,2.32012c0.54418,1.04412 -0.93717,1.93004 -0.914,2.95298c0.0338,0.67494 0.86548,1.31762 1.37104,2.03899c0.47876,0.79024 1.46872,1.36323 1.58194,2.49594c0.08432,0.95344 -2.12613,2.41017 -1.37104,2.53111c2.42143,0.10686 6.2329,-0.14693 7.73397,-2.07406c1.00186,-1.3029 -2.75118,-2.96779 -2.28505,-4.53493c0.57726,-1.90114 3.86063,-4.32403 4.78099,-3.62093z" fill="#cc7700"/><path d="M311.02071,183.62279c0.72046,0 1.37304,0.29176 1.84599,0.76244c0.47231,0.47122 0.76517,1.12135 0.76517,1.83917c0,0.71782 -0.29285,1.36787 -0.76517,1.83908c-0.47294,0.47067 -1.12554,0.76244 -1.84599,0.76244c-0.72046,0 -1.37295,-0.29176 -1.8459,-0.76244c-0.4724,-0.47122 -0.76526,-1.12126 -0.76526,-1.83908c0,-0.71782 0.29285,-1.36796 0.76526,-1.83917c0.47294,-0.47067 1.12544,-0.76244 1.8459,-0.76244v0v0v0v0v0v0v0v0v0v0v0v0v0v0v0v0v0v0v0v0v0v0v0v0v0v0v0v0v0v0v0v0z" fill="#cc7700"/><path d="M333.91843,183.62279c0.72046,0 1.37304,0.29176 1.84599,0.76244c0.47231,0.47122 0.76517,1.12135 0.76517,1.83917c0,0.71782 -0.29285,1.36787 -0.76517,1.83908c-0.47294,0.47067 -1.12554,0.76244 -1.84599,0.76244c-0.72046,0 -1.37295,-0.29176 -1.8459,-0.76244c-0.4724,-0.47122 -0.76526,-1.12126 -0.76526,-1.83908c0,-0.71782 0.29285,-1.36796 0.76526,-1.83917c0.47294,-0.47067 1.12544,-0.76244 1.8459,-0.76244v0v0v0v0v0v0v0v0v0v0v0v0v0v0v0v0v0v0v0v0v0v0v0v0v0v0v0v0v0v0v0v0z" fill="#cc7700"/></g></g></g></svg>