<?xml version="1.0" standalone="no"?>
<!DOCTYPE svg PUBLIC "-//W3C//DTD SVG 20010904//EN"
 "http://www.w3.org/TR/2001/REC-SVG-20010904/DTD/svg10.dtd">
<svg version="1.0" xmlns="http://www.w3.org/2000/svg"
 width="500.000000pt" height="500.000000pt" viewBox="0 0 500.000000 500.000000"
 preserveAspectRatio="xMidYMid meet">
<metadata>
Created by potrace 1.14, written by Peter Selinger 2001-2017
</metadata>
<g transform="translate(0.000000,500.000000) scale(0.100000,-0.100000)"
fill="#000000" stroke="none">
<path d="M1277 3846 c-40 -32 -67 -76 -67 -108 0 -15 9 -50 20 -78 11 -28 20
-61 20 -73 1 -12 9 -40 20 -62 11 -22 19 -52 20 -66 0 -15 9 -46 20 -70 11
-24 20 -55 20 -69 0 -14 9 -43 20 -65 26 -54 26 -134 0 -168 -11 -14 -20 -29
-20 -34 0 -4 -9 -19 -20 -33 -11 -14 -20 -32 -20 -41 0 -9 -9 -28 -20 -42 -11
-14 -20 -31 -20 -37 0 -7 -9 -31 -19 -54 -43 -91 -86 -248 -113 -406 -28 -166
-31 -391 -5 -505 29 -131 61 -199 154 -327 26 -37 154 -148 169 -148 6 0 17
-7 24 -15 14 -17 60 -21 60 -5 0 6 -4 10 -10 10 -5 0 -28 33 -52 72 l-43 73 1
130 c1 111 4 138 23 185 58 139 122 242 201 318 54 53 169 135 230 164 121 57
147 68 166 68 10 0 32 7 47 15 16 8 68 19 115 25 48 6 105 15 127 20 98 23
314 10 515 -30 322 -64 605 -290 702 -560 32 -92 38 -121 38 -221 0 -87 -3
-101 -30 -154 -17 -33 -42 -71 -56 -86 -44 -46 -6 -68 46 -26 15 12 38 29 51
37 41 27 131 114 158 154 45 68 71 110 77 126 3 8 14 35 24 60 24 57 50 192
57 290 7 97 -25 351 -62 495 -41 158 -125 358 -197 467 -27 41 -32 96 -13 148
9 25 21 63 27 85 6 22 19 63 29 90 10 28 19 62 19 75 1 14 9 43 20 65 11 22
19 49 20 60 0 12 9 45 19 75 25 72 18 104 -35 157 -38 37 -49 43 -86 43 -24 0
-52 -7 -62 -15 -11 -8 -27 -15 -36 -15 -8 0 -31 -8 -50 -19 -19 -10 -46 -21
-60 -25 -14 -4 -43 -16 -65 -26 -88 -40 -131 -58 -155 -65 -14 -4 -34 -14 -45
-21 -11 -8 -26 -14 -33 -14 -8 0 -29 -7 -48 -16 -35 -17 -52 -16 -114 7 -180
65 -277 83 -465 87 -111 2 -167 -1 -215 -12 -36 -9 -92 -20 -125 -25 -33 -5
-100 -24 -149 -41 -85 -30 -91 -31 -125 -17 -20 8 -65 27 -101 42 -36 14 -77
33 -92 41 -14 8 -32 14 -38 14 -12 0 -41 12 -156 66 -28 13 -58 24 -66 24 -8
0 -23 7 -34 15 -30 23 -104 18 -137 -9z"/>
<path d="M2426 2495 c-8 -8 -21 -15 -30 -15 -8 0 -28 -12 -45 -26 -29 -24 -31
-31 -31 -89 0 -50 4 -67 18 -77 10 -7 21 -21 25 -30 3 -10 13 -18 22 -18 11 0
15 -12 15 -50 0 -37 -4 -50 -14 -50 -8 0 -18 -9 -21 -20 -6 -17 -15 -20 -73
-20 -76 0 -104 19 -116 77 -4 17 -14 37 -22 44 -8 6 -14 18 -14 26 0 19 -40
52 -63 53 -10 0 -34 -14 -53 -32 -27 -26 -34 -40 -34 -71 0 -24 8 -49 20 -64
11 -14 20 -36 20 -48 0 -35 92 -122 143 -135 23 -5 56 -15 73 -20 38 -12 71
-13 78 -1 4 5 28 12 55 16 29 4 57 15 67 26 21 23 71 25 95 3 16 -15 86 -37
162 -51 15 -3 33 -1 40 5 6 5 31 13 54 17 22 3 56 18 75 31 48 36 98 103 98
133 0 14 7 35 15 45 24 32 18 72 -16 111 -41 46 -67 45 -113 -5 -26 -29 -36
-49 -36 -73 0 -22 -9 -40 -29 -60 -25 -23 -38 -27 -86 -27 -50 0 -61 4 -83 27
-13 15 -27 44 -30 65 -4 34 -2 40 17 45 11 3 21 9 21 13 0 4 11 19 25 34 20
22 25 37 25 82 0 48 -4 58 -30 84 -17 17 -39 30 -49 30 -10 0 -24 7 -31 15 -8
10 -31 15 -71 15 -38 0 -63 -5 -73 -15z"/>
</g>
</svg>
