<?xml version="1.0" standalone="no"?>
<!DOCTYPE svg PUBLIC "-//W3C//DTD SVG 20010904//EN"
 "http://www.w3.org/TR/2001/REC-SVG-20010904/DTD/svg10.dtd">
<svg version="1.0" xmlns="http://www.w3.org/2000/svg"
 width="2000.000000pt" height="2000.000000pt" viewBox="0 0 2000.000000 2000.000000"
 preserveAspectRatio="xMidYMid meet">
<metadata>
Created by potrace 1.14, written by Peter Selinger 2001-2017
</metadata>
<g transform="translate(0.000000,2000.000000) scale(0.100000,-0.100000)"
fill="#000000" stroke="none">
<path d="M14530 15463 c-60 -9 -120 -28 -182 -59 -36 -18 -121 -52 -189 -74
-68 -22 -144 -52 -169 -67 -82 -47 -134 -70 -235 -103 -55 -18 -147 -56 -205
-85 -58 -28 -150 -66 -205 -84 -55 -18 -140 -53 -189 -78 -49 -24 -148 -65
-220 -90 -72 -25 -162 -62 -201 -82 -66 -34 -97 -47 -240 -102 -33 -12 -94
-41 -135 -63 -72 -39 -79 -41 -156 -39 -73 1 -91 6 -180 46 -103 46 -141 60
-284 101 -47 13 -119 38 -160 56 -88 36 -241 77 -326 86 -32 3 -72 10 -89 15
-16 5 -66 14 -110 20 -44 5 -150 26 -235 44 -175 38 -211 43 -435 50 -88 3
-174 8 -190 11 -61 12 -387 8 -630 -8 -203 -14 -289 -24 -455 -56 -113 -22
-263 -50 -335 -62 -171 -29 -310 -64 -415 -104 -47 -18 -146 -52 -220 -76 -74
-23 -172 -60 -217 -82 -58 -27 -101 -40 -145 -44 -59 -5 -68 -3 -153 38 -49
25 -152 66 -228 92 -76 26 -164 62 -195 80 -31 18 -115 52 -187 76 -71 23
-159 59 -195 78 -80 45 -161 79 -219 93 -25 5 -81 29 -125 51 -145 75 -190 95
-226 103 -54 12 -176 61 -228 92 -68 40 -94 51 -216 89 -60 19 -138 50 -172
69 -87 49 -178 69 -283 61 -99 -6 -150 -28 -256 -108 -56 -43 -82 -73 -137
-158 l-68 -106 -6 -89 c-6 -98 -14 -67 90 -385 19 -58 46 -160 60 -226 14 -67
40 -155 57 -195 48 -117 76 -206 99 -319 22 -104 45 -178 80 -255 27 -60 57
-158 80 -265 44 -197 52 -227 87 -305 50 -115 82 -251 89 -380 6 -101 4 -116
-19 -183 -15 -41 -48 -104 -74 -140 -26 -37 -66 -104 -90 -148 -23 -45 -57
-104 -76 -130 -20 -27 -62 -105 -95 -174 -33 -69 -75 -151 -95 -183 -19 -32
-51 -107 -71 -168 -20 -60 -58 -156 -85 -212 -29 -61 -64 -156 -86 -237 -20
-74 -51 -169 -70 -210 -42 -95 -57 -148 -94 -335 -17 -82 -42 -184 -56 -225
-47 -131 -71 -240 -94 -415 -46 -344 -62 -462 -81 -570 -59 -340 -65 -1106
-10 -1320 19 -74 52 -239 69 -340 28 -166 55 -264 103 -362 27 -57 62 -140 78
-185 29 -84 52 -129 104 -209 16 -24 46 -80 67 -124 20 -44 54 -100 76 -125
21 -25 52 -67 67 -94 34 -58 168 -220 241 -291 167 -161 219 -208 300 -270 50
-37 95 -73 100 -79 25 -28 100 -80 153 -106 31 -16 74 -47 96 -69 36 -39 42
-41 95 -41 59 0 101 19 101 46 0 8 -19 26 -42 40 -24 14 -54 44 -68 67 -14 22
-40 60 -57 84 -18 24 -51 79 -74 122 -22 44 -58 99 -80 123 -22 24 -41 52 -44
63 -37 151 -70 421 -69 570 2 206 50 652 79 736 8 22 23 52 33 67 39 54 64
117 91 222 24 93 35 118 78 177 47 63 91 152 107 213 3 14 28 50 56 80 28 30
64 80 82 110 37 66 57 93 124 169 28 31 66 82 84 113 18 30 47 64 64 73 36 21
116 105 116 122 0 7 20 24 45 39 25 14 69 52 98 83 28 32 75 73 102 91 57 38
140 104 171 137 12 12 54 38 94 58 40 20 93 56 119 80 25 23 71 53 101 65 124
49 157 67 195 101 55 49 86 64 185 89 91 24 168 58 212 96 33 27 124 55 273
85 77 15 137 35 200 65 85 41 129 53 300 79 22 3 84 10 137 15 54 5 144 17
200 25 57 9 125 18 152 21 26 2 91 16 143 29 154 40 251 47 708 47 455 0 517
-4 710 -49 61 -14 121 -27 135 -29 107 -16 243 -34 280 -38 357 -40 352 -39
484 -101 88 -41 163 -63 291 -85 56 -9 84 -22 250 -108 33 -18 106 -45 162
-62 82 -24 111 -38 152 -73 31 -27 91 -61 153 -87 72 -31 118 -58 157 -93 29
-27 78 -60 107 -73 29 -13 74 -44 101 -70 26 -26 68 -60 93 -75 136 -88 494
-438 589 -577 21 -31 55 -73 76 -92 20 -19 52 -65 72 -102 19 -37 52 -83 73
-102 24 -21 47 -57 63 -97 50 -125 76 -175 114 -220 21 -25 45 -66 52 -90 7
-24 19 -64 26 -89 8 -25 19 -66 25 -93 6 -26 33 -93 60 -150 53 -109 70 -178
90 -382 14 -139 14 -551 0 -660 -22 -170 -42 -228 -110 -318 -22 -29 -40 -58
-40 -66 0 -26 -62 -130 -96 -160 -18 -17 -43 -48 -53 -70 -19 -37 -83 -101
-101 -101 -33 0 -53 -73 -28 -98 16 -16 38 -15 94 4 25 9 56 17 67 20 12 2 44
25 71 52 28 27 76 61 107 75 31 15 69 39 84 53 16 15 69 58 119 98 237 185
422 375 555 566 32 47 71 96 86 110 15 14 50 72 78 130 28 58 53 107 56 110
32 28 82 128 108 215 8 28 39 101 69 163 57 119 78 192 114 392 12 69 28 145
35 170 7 25 16 63 20 85 4 22 13 60 20 85 44 141 44 984 0 1181 -8 36 -17 99
-21 140 -3 41 -12 99 -19 129 -8 30 -17 89 -20 130 -3 41 -12 93 -20 115 -7
22 -16 81 -19 130 -7 99 -42 288 -59 320 -18 34 -55 144 -62 187 -4 23 -14 56
-21 74 -8 18 -14 48 -14 67 0 66 -74 308 -107 349 -6 7 -14 29 -18 48 -4 19
-13 44 -19 55 -7 11 -16 41 -19 66 -10 71 -53 193 -91 259 -20 33 -52 111 -72
173 -40 126 -66 184 -104 232 -14 18 -34 52 -44 76 -10 24 -24 56 -32 71 -8
14 -14 34 -14 44 0 20 -40 91 -87 152 -18 24 -33 49 -33 55 0 25 -82 173 -114
207 -39 40 -86 126 -86 155 0 11 -8 41 -17 68 -18 50 -19 34 17 272 10 62 31
129 93 295 41 110 62 183 76 260 15 89 36 161 66 225 55 121 75 180 84 254 14
106 45 219 86 315 45 105 75 201 75 238 0 47 48 230 81 310 43 106 61 184 61
265 -1 83 -14 140 -40 174 -11 13 -33 51 -51 84 -42 78 -66 102 -174 176 -85
58 -95 62 -166 70 -80 8 -91 9 -131 2z"/>
<path d="M9870 10044 c-128 -19 -159 -31 -168 -68 -7 -27 -16 -34 -63 -49 -29
-9 -80 -22 -112 -28 -54 -10 -62 -16 -135 -90 -42 -44 -85 -93 -95 -109 -44
-69 -37 -430 9 -511 11 -20 37 -43 62 -54 55 -27 62 -35 73 -86 13 -58 32 -76
96 -95 33 -10 57 -23 64 -37 8 -15 10 -64 5 -162 -8 -177 -9 -182 -55 -195
-55 -15 -77 -35 -102 -95 -20 -48 -27 -56 -58 -62 -47 -10 -426 -9 -471 0 -27
6 -43 19 -70 60 -19 28 -53 61 -74 73 -49 28 -54 36 -65 115 -13 93 -59 205
-102 248 -28 28 -39 50 -49 94 -7 37 -20 65 -33 75 -11 10 -38 36 -59 58 -32
34 -52 45 -103 58 -35 9 -79 16 -98 16 -39 0 -96 -38 -112 -75 -10 -23 -118
-115 -136 -115 -20 0 -52 -89 -60 -163 -13 -134 14 -251 73 -311 53 -54 64
-78 73 -156 9 -76 37 -155 68 -188 12 -13 40 -35 64 -50 30 -19 44 -36 49 -57
13 -60 41 -91 103 -114 44 -16 71 -34 101 -69 23 -26 56 -54 73 -63 18 -9 46
-23 62 -32 17 -8 75 -20 130 -26 55 -6 119 -14 142 -17 26 -3 66 -21 103 -46
l62 -41 93 6 c74 4 101 10 124 26 52 37 94 49 246 70 82 12 150 21 151 21 2 0
29 23 61 51 32 28 82 66 111 85 48 31 59 34 132 34 97 0 118 -8 183 -68 106
-98 133 -107 389 -137 43 -5 73 -17 120 -47 l62 -40 96 4 c81 4 100 9 133 31
52 35 81 43 239 66 75 11 149 27 165 35 15 8 55 40 88 70 33 31 87 70 120 87
79 42 113 75 126 123 10 37 44 80 80 102 8 5 30 32 48 59 29 43 36 65 46 150
18 140 30 178 74 229 52 60 65 102 56 184 -9 95 -21 127 -63 163 -20 18 -48
49 -63 68 -14 20 -48 60 -75 89 l-50 52 -85 0 c-106 -1 -136 -18 -226 -127
-36 -43 -78 -91 -93 -108 -33 -35 -63 -132 -80 -255 -17 -132 -16 -130 -63
-150 -43 -19 -78 -57 -91 -98 -4 -12 -19 -30 -34 -40 -23 -15 -55 -17 -263
-17 -184 1 -240 4 -253 14 -9 7 -28 35 -43 62 -19 36 -38 54 -70 70 -24 11
-47 28 -52 37 -16 31 -32 209 -25 274 7 72 22 93 67 102 64 12 92 38 106 100
12 56 14 58 66 81 29 13 61 34 70 48 37 57 39 474 2 531 -9 13 -38 43 -65 65
-27 23 -55 52 -62 65 -16 31 -66 52 -164 71 -89 16 -102 24 -111 66 -6 25 -14
31 -58 43 -50 14 -131 25 -227 30 -25 1 -83 -4 -130 -10z"/>
<path d="M13720 5625 c-13 -16 -10 -47 6 -52 6 -2 22 5 35 16 20 16 21 21 10
35 -17 20 -35 20 -51 1z"/>
<path d="M6232 5607 c-14 -17 12 -52 33 -44 23 9 20 57 -4 57 -10 0 -23 -6
-29 -13z"/>
</g>
</svg>
