<?xml version="1.0" standalone="no"?>
<!DOCTYPE svg PUBLIC "-//W3C//DTD SVG 20010904//EN"
 "http://www.w3.org/TR/2001/REC-SVG-20010904/DTD/svg10.dtd">
<svg version="1.0" xmlns="http://www.w3.org/2000/svg"
 width="700.000000pt" height="700.000000pt" viewBox="0 0 700.000000 700.000000"
 preserveAspectRatio="xMidYMid meet">
<metadata>
Created by potrace 1.14, written by Peter Selinger 2001-2017
</metadata>
<g transform="translate(0.000000,700.000000) scale(0.100000,-0.100000)"
fill="#000000" stroke="none">
<path d="M656 6773 c-128 -38 -218 -144 -232 -275 -5 -49 -1 -78 25 -168 5
-19 14 -51 19 -70 6 -19 46 -156 91 -305 45 -148 95 -313 110 -365 16 -52 41
-135 56 -185 14 -49 39 -133 55 -185 58 -192 56 -171 22 -221 -139 -207 -311
-567 -415 -864 -73 -212 -158 -527 -181 -679 -4 -21 -8 -41 -10 -45 -2 -3 -7
-35 -10 -70 -4 -36 -9 -67 -11 -70 -2 -4 -6 -31 -9 -61 -4 -30 -8 -68 -11 -85
-2 -16 -7 -68 -10 -115 -4 -47 -9 -101 -11 -120 -6 -55 -6 -442 0 -480 3 -19
8 -57 11 -85 25 -222 88 -439 183 -630 42 -85 103 -189 114 -193 4 -2 8 -8 8
-14 0 -17 92 -131 185 -227 232 -241 500 -407 915 -568 92 -35 253 -88 330
-107 36 -10 79 -21 95 -26 28 -8 160 -35 223 -46 105 -18 142 -24 182 -29 25
-3 56 -8 70 -10 14 -2 54 -7 90 -10 36 -3 76 -8 90 -10 14 -2 65 -7 115 -11
49 -3 101 -8 115 -9 179 -23 1116 -23 1260 -1 14 2 69 7 122 11 53 3 107 8
120 10 13 2 55 6 93 10 39 4 77 9 86 10 9 2 40 6 70 10 44 5 188 31 338 60
301 58 777 246 1033 408 182 115 367 274 470 405 29 37 55 69 58 72 3 3 28 38
55 79 103 157 187 346 238 541 22 82 31 128 52 270 17 106 23 442 11 565 -3
28 -8 84 -11 125 -9 108 -57 433 -70 480 -2 8 -7 30 -10 48 -16 93 -84 339
-141 511 -107 319 -223 570 -394 854 l-77 128 29 97 c17 53 54 178 83 277 53
180 164 550 255 850 40 132 48 171 45 225 -4 114 -71 214 -180 270 -40 21 -63
25 -129 25 -81 0 -82 -1 -366 -118 -157 -66 -303 -127 -325 -137 -22 -10 -92
-39 -155 -65 -63 -25 -128 -53 -145 -60 -16 -7 -124 -52 -238 -100 l-208 -86
-85 36 c-140 60 -388 141 -494 161 -22 4 -53 10 -150 29 -22 5 -112 18 -195
30 -170 24 -675 25 -800 1 -11 -2 -49 -7 -85 -11 -64 -7 -80 -10 -130 -20 -14
-2 -41 -7 -60 -10 -137 -22 -422 -107 -575 -171 -44 -19 -86 -34 -94 -34 -8 0
-317 126 -686 280 -716 298 -724 301 -819 273z"/>
</g>
</svg>
