<?xml version="1.0" standalone="no"?>
<!DOCTYPE svg PUBLIC "-//W3C//DTD SVG 20010904//EN"
 "http://www.w3.org/TR/2001/REC-SVG-20010904/DTD/svg10.dtd">
<svg version="1.0" xmlns="http://www.w3.org/2000/svg"
 width="703.000000pt" height="703.000000pt" viewBox="0 0 703.000000 703.000000"
 preserveAspectRatio="xMidYMid meet">
<metadata>
Created by potrace 1.14, written by Peter Selinger 2001-2017
</metadata>
<g transform="translate(0.000000,703.000000) scale(0.100000,-0.100000)"
fill="#000000" stroke="none">
<path d="M532 6812 c-132 -48 -225 -178 -223 -314 1 -57 -1 -49 82 -326 28
-92 55 -183 61 -202 13 -45 115 -387 179 -600 112 -369 108 -348 72 -401 -82
-120 -251 -442 -317 -604 -16 -38 -37 -88 -46 -110 -22 -52 -91 -247 -123
-350 -61 -194 -111 -409 -150 -640 -26 -152 -32 -192 -42 -300 -3 -33 -8 -78
-11 -100 -3 -22 -6 -152 -8 -290 -4 -319 8 -425 78 -720 34 -144 191 -472 276
-578 5 -7 33 -41 61 -77 104 -130 271 -283 430 -393 57 -39 293 -177 304 -177
2 0 41 -18 87 -39 189 -89 448 -181 648 -231 95 -25 93 -24 210 -46 47 -9 92
-17 100 -19 28 -5 194 -29 285 -40 28 -4 61 -8 75 -10 14 -2 65 -7 114 -10 48
-4 97 -8 107 -10 134 -26 1320 -26 1459 0 8 1 53 6 100 9 47 4 96 8 110 11 14
2 52 7 85 10 366 35 808 146 1130 284 11 5 49 21 85 36 333 140 666 384 860
630 30 39 58 72 62 73 5 2 8 10 8 18 0 8 5 14 10 14 6 0 10 6 10 14 0 8 4 16
8 18 12 5 96 154 135 238 61 131 121 322 142 449 3 19 7 37 9 40 4 6 12 69 26
201 10 97 4 495 -9 630 -16 165 -51 407 -66 460 -2 8 -7 31 -10 50 -17 103
-98 412 -150 565 -72 214 -165 436 -265 630 -92 178 -99 190 -184 323 -27 41
-45 80 -42 90 2 9 19 64 36 121 18 57 33 109 34 115 4 17 36 128 46 156 9 26
11 34 140 465 44 149 96 320 115 380 58 188 66 241 51 314 -19 88 -101 186
-189 226 -94 44 -189 39 -312 -15 -69 -30 -150 -64 -550 -230 -214 -89 -403
-167 -420 -175 -16 -7 -101 -43 -188 -79 l-159 -66 -41 19 c-72 33 -188 77
-287 109 -158 52 -260 77 -475 117 -23 4 -149 21 -245 32 -84 10 -560 10 -670
0 -94 -8 -273 -33 -335 -47 -22 -5 -56 -12 -75 -15 -130 -22 -416 -109 -563
-171 -45 -19 -85 -34 -88 -34 -6 0 -283 113 -404 165 -16 7 -46 19 -65 28 -19
8 -217 90 -440 182 -223 92 -425 176 -450 187 -64 29 -162 33 -228 10z"/>
</g>
</svg>
