<?xml version="1.0" standalone="no"?>
<!DOCTYPE svg PUBLIC "-//W3C//DTD SVG 20010904//EN"
 "http://www.w3.org/TR/2001/REC-SVG-20010904/DTD/svg10.dtd">
<svg version="1.0" xmlns="http://www.w3.org/2000/svg"
 width="700.000000pt" height="700.000000pt" viewBox="0 0 700.000000 700.000000"
 preserveAspectRatio="xMidYMid meet">
<metadata>
Created by potrace 1.14, written by Peter Selinger 2001-2017
</metadata>
<g transform="translate(0.000000,700.000000) scale(0.100000,-0.100000)"
fill="#000000" stroke="none">
<path d="M0 3500 l0 -3500 3500 0 3500 0 0 3500 0 3500 -3500 0 -3500 0 0
-3500z m2378 1615 l375 -155 61 24 c239 95 476 133 761 123 233 -8 427 -50
640 -137 28 -11 53 -2 400 143 204 85 383 157 398 161 38 9 100 -9 138 -41 34
-29 68 -94 69 -129 0 -11 -52 -194 -115 -406 -63 -212 -115 -390 -115 -396 0
-5 19 -41 42 -78 148 -244 265 -568 318 -885 27 -155 38 -460 21 -569 -66
-428 -311 -712 -761 -883 -316 -120 -599 -161 -1115 -161 -556 0 -868 52
-1202 201 -385 172 -607 457 -663 848 -38 267 19 692 136 1026 42 121 142 333
203 434 l43 70 -116 390 c-64 214 -116 399 -116 410 1 31 35 97 63 123 33 31
95 53 131 47 16 -3 197 -75 404 -160z"/>
</g>
</svg>
