<svg width="500" height="500" viewBox="0 0 500 500" fill="none" xmlns="http://www.w3.org/2000/svg">
<path fill-rule="evenodd" clip-rule="evenodd" d="M195.997 144.678L219.109 154.353L226.622 151.692C251.276 142.956 282.483 143.147 304.975 152.172L312.057 155.013L335.89 145.044C348.995 139.558 360.945 135.057 362.439 135.037C366.065 134.988 371.462 139.36 372.403 143.107C373.136 146.023 372.305 149.423 364.809 174.142C358.09 196.299 358.147 195.161 363.325 204.425C375.553 226.303 382.423 252.246 382.661 277.45C382.833 295.321 380.947 304.011 374.45 315.307C362.088 336.803 334.294 351.788 299.291 355.83C284.389 357.551 247.324 357.551 232.393 355.827C205.849 352.767 184.124 343.685 168.784 329.241C154.293 315.596 149.093 301.879 149.153 277.45C149.216 252.43 155.403 227.538 167.032 205.524L172.902 194.411L170.119 184.917C168.589 179.697 165.887 170.516 164.117 164.517C157.897 143.44 157.888 143.307 162.776 137.888C164.347 136.145 166.87 135 169.133 135C171.197 135 183.287 139.354 195.997 144.678H195.997Z" fill="#FF7319"/>
<path d="M298.454 240.963L304.187 242.581C318.726 248.073 331.892 256.663 342.769 267.749L345.682 270.718C355.578 283.174 361.137 297.947 361.332 312.298C361.47 322.475 359.943 327.424 354.685 333.856C344.679 346.097 322.184 354.628 293.854 356.931C281.793 357.91 251.793 357.91 239.71 356.929C218.225 355.185 200.641 350.015 188.225 341.79C176.497 334.02 172.288 326.209 172.338 312.298C172.388 298.052 177.396 283.879 186.808 271.343L191.559 265.014C200.924 255.723 212.156 248.519 224.514 243.876L228.958 242.205L235.038 240.689C254.992 235.715 280.251 235.823 298.454 240.963V240.963Z" fill="#FEFFFF"/>
<path d="M362.237 169.391C356.292 190.403 355.889 191.347 354.097 188.437C350.559 182.69 331.371 164.746 324.578 160.83L317.798 156.923L337.472 148.459C370.155 134.399 371.756 135.75 362.237 169.391H362.237Z" fill="#77500C"/>
<path d="M170.811 139.816C173.762 139.816 210.332 154.4 212.977 156.631C213.591 157.149 211.731 158.779 208.842 160.25C202.689 163.383 188.486 176.297 181.438 185.168C178.723 188.585 176.503 191.033 176.503 190.608C176.503 190.182 173.589 179.955 170.025 167.883C163.951 147.297 163.672 145.741 165.554 142.875C166.794 140.988 168.807 139.816 170.811 139.816Z" fill="#77500C"/>
<path fill-rule="evenodd" clip-rule="evenodd" d="M271.169 249.584C273.972 249.584 276.797 251.173 276.797 253.972C276.797 259.274 272.489 263.572 267.177 263.572C261.865 263.572 257.56 259.274 257.56 253.972C257.56 251.173 260.383 249.584 263.188 249.584H271.169Z" fill="#77500C" stroke="black" stroke-width="9" stroke-miterlimit="10"/>
<path d="M289.34 233.297C283.659 233.297 279.054 228.7 279.054 223.03C279.054 217.36 283.659 212.764 289.34 212.764C295.02 212.764 299.625 217.36 299.625 223.03C299.625 228.7 295.02 233.297 289.34 233.297Z" fill="black"/>
<path d="M232.426 223.08C232.426 217.41 237.031 212.813 242.712 212.813C248.393 212.813 252.998 217.41 252.998 223.08C252.998 228.75 248.393 233.347 242.712 233.347C237.031 233.347 232.426 228.75 232.426 223.08Z" fill="black"/>
<path d="M293.368 271.915C293.368 275.69 291.688 279.13 289.044 281.52C286.728 283.614 283.672 284.901 280.358 284.901C273.261 284.901 267.347 279.234 267.347 271.915C267.347 271.442 267.347 264.378 267.347 264.378C267.347 263.906 267.347 270.734 267.347 270.734C267.347 270.734 267.347 270.97 267.347 271.442C267.347 271.442 267.347 271.442 267.347 271.915C267.347 278.998 261.433 284.901 254.336 284.901C247.24 284.901 241.326 279.234 241.326 271.915" stroke="black" stroke-width="8" stroke-miterlimit="10" stroke-linecap="round"/>
<path d="M281.048 285.877C281.048 285.877 277.485 295.578 267.731 295.794C257.905 296.252 253.045 284.853 253.045 284.853L260.646 283.443L267.046 277.968L274.83 283.39L281.048 285.877Z" fill="black"/>
<path d="M379.195 300.54C378.93 301.003 378.302 301.566 377.673 302.128C376.216 302.526 374.759 302.925 373.467 302.496C371.347 301.903 369.591 301.211 368 299.692C366.973 298.8 366.21 297.446 365.546 296.455C365.447 296.091 365.347 295.728 365.512 294.901C366.899 291.396 368.287 287.891 370.238 285.013C370.767 284.087 372.024 282.962 373.316 283.39C377.192 284.675 381.168 286.324 384.35 289.362C385.378 290.254 383.492 291.941 383.062 293.231C382.104 295.447 380.881 298.125 379.195 300.54V300.54Z" fill="#FF9400"/>
<path d="M386.466 285.658C385.673 287.047 385.772 287.41 385.044 287.61C382.659 287.48 380.175 286.986 377.955 286.03C376.099 284.974 374.773 282.992 373.546 281.373C373.082 281.109 372.354 281.308 372.783 280.019C375.129 274.298 377.938 268.841 380.648 263.02C389.207 244.269 397.666 225.155 406.225 206.404C408.406 201.509 407.283 204.552 408.012 204.353C410.197 203.755 412.118 203.621 414.238 204.214C415.894 204.543 417.385 205.699 418.777 206.491C419.705 207.018 421.097 207.81 421.396 208.901C421.695 209.992 422.653 207.776 420.836 212.571C412.642 231.222 404.447 249.874 395.788 268.261C392.714 274.181 389.64 280.101 386.466 285.658V285.658Z" fill="#FFFF00"/>
<path d="M392.068 257.555C388.136 266.054 384.303 274.917 380.006 283.516C379.048 285.731 379.512 285.995 378.419 286.294C377.691 286.493 376.763 285.965 376.199 285.337C374.708 284.182 373.58 282.927 372.718 281.209C372.518 280.482 371.825 282.234 372.948 279.192C377.903 267.287 383.323 255.646 388.643 243.642C394.228 231.174 400.077 218.244 406.026 205.677C407.513 202.535 407.283 204.551 408.012 204.352C409.468 203.954 410.826 203.193 412.118 203.621C413.774 203.95 415.43 204.279 416.193 205.634C416.856 206.625 416.557 205.534 415.07 208.676C409.386 220.78 403.701 232.884 398.017 244.988C396.001 249.056 394.084 253.487 392.068 257.555H392.068Z" fill="#F6E575"/>
<path d="M382.369 294.984C382.104 295.447 382.104 295.447 381.74 295.546C379.819 295.68 378.163 295.351 376.407 294.659C374.651 293.966 372.796 292.911 371.304 291.755C370.277 290.864 369.249 289.972 368.586 288.981C368.486 288.617 368.222 289.081 368.386 288.254C369.609 285.575 370.931 283.26 372.154 280.581C372.419 280.118 372.419 280.118 372.783 280.019C373.711 280.547 374.01 281.637 374.838 281.802C376.793 283.221 378.649 284.277 380.869 285.234C382.161 285.662 383.717 285.628 384.909 285.692C385.274 285.593 385.638 285.493 386.102 285.757C386.201 286.121 386.102 285.757 385.837 286.221C384.549 290.089 383.691 292.668 382.369 294.984H382.369Z" fill="#C0C8C9"/>
<path d="M383.921 290.652C383.921 290.652 379.252 290.756 377.032 289.799C374.348 288.579 373.984 288.678 370.502 284.55" stroke="#ACB3B4" stroke-width="2" stroke-miterlimit="10" stroke-linecap="round"/>
<path d="M419.276 208.308C418.448 208.144 417.654 209.533 417.19 209.269C416.262 208.741 416.392 206.361 415.1 205.932C413.808 205.504 412.95 208.083 412.022 207.555C411.094 207.027 411.324 205.01 410.396 204.482C409.468 203.954 408.211 205.079 407.283 204.551C406.819 204.287 406.819 204.287 407.713 203.262C412.278 198.497 416.744 193.369 421.773 188.869C423.031 187.744 423.23 188.471 423.165 189.661C423.204 195.512 422.514 201.561 422.089 207.148C422.124 208.702 421.86 209.165 421.595 209.628C421.331 210.091 420.966 210.191 420.867 209.827C420.039 209.663 420.104 208.472 419.276 208.308V208.308Z" fill="#FFFFCC"/>
<path d="M423.395 187.644C423.33 188.834 423.265 190.024 423.299 191.578C423.399 191.941 423.399 191.941 423.035 192.041C422.671 192.141 421.843 191.976 421.379 191.712C420.915 191.448 420.451 191.184 419.887 190.557C419.887 190.557 419.887 190.557 420.152 190.094C421.409 188.968 422.302 187.943 423.395 187.644C423.295 187.281 423.659 187.181 423.395 187.644Z" fill="#464646"/>
<path d="M381.658 279.547L411.367 215.158" stroke="#EDD571" stroke-width="2" stroke-miterlimit="10" stroke-linecap="round"/>
<path d="M147.432 302.645L81 236.607L123.128 194.558L189.289 260.596L147.432 302.645Z" fill="white" stroke="#B5B5B5" stroke-width="0.5" stroke-miterlimit="10"/>
<path d="M125.288 218.008C126.098 219.895 124.478 220.704 124.478 220.704L121.777 221.782C118.267 221.243 116.106 230.677 111.785 232.294C107.195 234.181 103.144 230.407 101.253 236.337C101.253 236.337 100.713 238.224 98.823 237.685C96.9327 237.146 97.4728 235.259 97.4728 235.259C98.2829 232.833 98.553 230.947 100.983 229.599C104.224 227.712 107.195 229.599 110.165 228.521C116.376 226.095 113.946 218.008 121.777 217.469L122.587 216.661C122.587 217.2 124.478 216.122 125.288 218.008V218.008Z" fill="#B5B5B5"/>
<path d="M135.55 234.99C135.55 237.146 133.389 237.146 133.389 237.146L133.929 236.607C130.959 239.572 127.178 242.806 123.668 244.963C122.047 245.771 119.887 244.693 118.267 245.771C115.566 247.928 115.836 250.623 110.705 250.623C110.705 250.623 108.545 250.623 108.545 248.467C108.545 246.311 110.705 246.311 110.705 246.311C112.866 246.311 113.946 243.346 115.836 242.267C117.457 241.189 119.887 242.267 121.237 241.189C124.478 239.033 127.988 236.337 130.689 233.372L133.119 232.833C133.389 233.103 135.55 233.103 135.55 234.99H135.55Z" fill="#B5B5B5"/>
<path d="M147.972 247.928C148.512 249.815 146.622 250.354 146.622 250.354L143.651 251.432C142.031 251.432 140.141 250.084 139.06 251.162C137.44 252.51 136.63 258.171 134.74 260.057C131.229 263.022 128.529 260.866 125.018 264.37C125.018 264.37 123.668 265.718 122.047 264.37C120.697 263.022 122.047 261.405 122.047 261.405C122.587 260.866 125.828 257.631 126.368 257.362C128.258 256.823 130.689 258.171 132.039 256.823C136.9 251.701 133.93 247.389 142.841 247.389L145.272 246.58C145.272 246.58 147.432 246.041 147.972 247.928H147.972Z" fill="#B5B5B5"/>
<path d="M162.555 265.718C162.555 267.874 160.394 267.874 160.394 267.874L160.124 267.335C156.073 271.378 154.993 272.187 149.592 274.074C147.972 274.613 147.432 277.039 146.082 277.578C141.491 279.464 138.25 275.152 136.36 280.812C136.36 280.812 135.82 282.699 133.929 282.16C132.039 281.621 132.579 279.734 132.579 279.734C135.55 271.648 138.79 276.23 144.461 274.074C146.082 273.534 146.622 271.109 147.972 270.569C149.322 270.03 151.753 271.648 152.563 270.3C152.833 269.491 152.023 268.413 152.563 267.604C153.643 266.257 156.073 265.987 157.154 264.64L160.394 264.1C160.394 263.561 162.555 263.561 162.555 265.718V265.718Z" fill="#B5B5B5"/>
</svg>
