<svg width="500" height="500" viewBox="0 0 500 500" fill="none" xmlns="http://www.w3.org/2000/svg">
<path fill-rule="evenodd" clip-rule="evenodd" d="M145.536 123.503L180.105 138.003L191.342 134.015C228.219 120.922 274.898 121.208 308.541 134.734L319.134 138.992L354.782 124.051C374.387 115.831 392.258 109.085 394.495 109.054C399.917 108.983 407.99 115.535 409.4 121.149C410.496 125.52 409.251 130.614 398.039 167.656C387.989 200.862 388.074 199.154 395.82 213.039C414.109 245.823 424.385 284.7 424.743 322.471C424.998 349.253 422.177 362.276 412.459 379.204C393.968 411.417 352.395 433.872 300.039 439.93C277.75 442.509 222.307 442.507 199.975 439.926C160.271 435.337 127.776 421.729 104.83 400.084C83.1544 379.637 75.3772 359.08 75.4676 322.471C75.5618 284.977 84.8161 247.675 102.209 214.685L110.99 198.031L106.829 183.805C104.538 175.982 100.498 162.223 97.8493 153.233C88.5451 121.649 88.5335 121.449 95.8435 113.327C98.1936 110.717 101.967 109 105.354 109C108.44 109 126.524 115.525 145.536 123.503Z" fill="#FF7319"/>
<path d="M202.908 267.519L193.813 269.79L187.167 272.292C172.387 277.856 158.684 285.874 146.624 295.982C140.577 301.051 135.499 307.141 130.767 313.455C116.69 332.24 109.2 353.48 109.124 374.83C109.05 395.676 115.345 407.382 132.889 419.025C151.46 431.35 177.761 439.099 209.896 441.712C227.97 443.181 272.844 443.183 290.884 441.714C333.259 438.264 366.907 425.478 381.873 407.135C389.739 397.496 392.022 390.08 391.815 374.83C391.525 353.322 383.209 331.185 368.406 312.517L364.05 308.069C347.78 291.455 328.087 278.584 306.339 270.353L297.766 267.928C270.535 260.227 232.755 260.063 202.908 267.519Z" fill="white"/>
<path d="M357.151 129.645L327.723 142.33L337.864 148.184C348.026 154.052 376.725 180.942 382.018 189.553C384.697 193.915 385.3 192.502 394.193 161.014C408.43 110.6 406.036 108.573 357.151 129.645Z" fill="#77500C"/>
<path d="M100.001 121.275C97.1858 125.572 97.6012 127.903 106.688 158.754C112.017 176.845 116.377 192.171 116.377 192.807C116.377 193.444 119.698 189.777 123.758 184.657C134.303 171.362 155.546 152.01 164.748 147.315C169.07 145.109 171.855 142.669 170.935 141.892C166.979 138.547 112.277 116.693 107.863 116.693C104.865 116.693 101.853 118.448 100.001 121.275Z" fill="#77500C"/>
<path d="M231.418 235.657C231.418 244.154 224.53 251.042 216.033 251.042C207.536 251.042 200.647 244.154 200.647 235.657C200.647 227.16 207.536 220.272 216.033 220.272C224.53 220.272 231.418 227.16 231.418 235.657Z" fill="black"/>
<path d="M298.793 237.036C298.793 245.533 291.905 252.422 283.408 252.422C274.911 252.422 268.023 245.533 268.023 237.036C268.023 228.539 274.911 221.651 283.408 221.651C291.905 221.651 298.793 228.539 298.793 237.036Z" fill="black"/>
<path fill-rule="evenodd" clip-rule="evenodd" d="M255.596 296.654H244.057V306.682H244.045C244.053 306.895 244.057 307.108 244.057 307.323C244.057 316.882 236.307 324.632 226.748 324.632C217.189 324.632 209.44 316.882 209.44 307.323C209.44 307.108 209.444 306.895 209.451 306.682H197.908C197.903 306.895 197.901 307.109 197.901 307.323C197.901 323.255 210.816 336.171 226.748 336.171C236.185 336.171 244.563 331.639 249.826 324.634C255.089 331.639 263.468 336.171 272.904 336.171C288.836 336.171 301.752 323.255 301.752 307.323C301.752 307.109 301.75 306.895 301.745 306.682H290.201C290.209 306.895 290.213 307.108 290.213 307.323C290.213 316.882 282.464 324.632 272.905 324.632C263.345 324.632 255.596 316.882 255.596 307.323C255.596 307.108 255.6 306.895 255.608 306.682H255.596V296.654Z" fill="black"/>
<mask id="path-3-inside-1_3098_144" fill="white">
<path fill-rule="evenodd" clip-rule="evenodd" d="M240.517 267.807C233.976 267.807 227.389 271.523 227.389 278.064C227.389 290.455 237.434 300.501 249.826 300.501C262.218 300.501 272.263 290.455 272.263 278.064C272.263 271.523 265.676 267.807 259.135 267.807H240.517Z"/>
</mask>
<path fill-rule="evenodd" clip-rule="evenodd" d="M240.517 267.807C233.976 267.807 227.389 271.523 227.389 278.064C227.389 290.455 237.434 300.501 249.826 300.501C262.218 300.501 272.263 290.455 272.263 278.064C272.263 271.523 265.676 267.807 259.135 267.807H240.517Z" fill="#77500C"/>
<path d="M249.826 289.374C243.58 289.374 238.516 284.31 238.516 278.064H216.262C216.262 296.601 231.289 311.628 249.826 311.628V289.374ZM261.136 278.064C261.136 284.31 256.072 289.374 249.826 289.374V311.628C268.363 311.628 283.39 296.601 283.39 278.064H261.136ZM259.135 256.68H240.517V278.934H259.135V256.68ZM283.39 278.064C283.39 270.557 279.441 264.845 274.586 261.404C269.957 258.124 264.336 256.68 259.135 256.68V278.934C259.735 278.934 260.318 279.022 260.816 279.168C261.321 279.316 261.611 279.485 261.718 279.561C261.816 279.631 261.651 279.54 261.454 279.194C261.232 278.802 261.136 278.37 261.136 278.064H283.39ZM238.516 278.064C238.516 278.37 238.421 278.802 238.198 279.194C238.001 279.54 237.836 279.631 237.934 279.561C238.041 279.485 238.331 279.316 238.836 279.168C239.334 279.022 239.917 278.934 240.517 278.934V256.68C235.316 256.68 229.695 258.124 225.066 261.404C220.211 264.845 216.262 270.557 216.262 278.064H238.516Z" fill="black" mask="url(#path-3-inside-1_3098_144)"/>
<mask id="mask0_3098_144" style="mask-type:alpha" maskUnits="userSpaceOnUse" x="73" y="297" width="354" height="147">
<path d="M152.132 324.549L76.9707 297.5C48.4679 425 179.467 449.5 276.473 443C291.504 441.993 322.474 441.5 358.474 425C430.474 392 428.974 336.667 424.974 307.5L342.88 330.955C280.197 348.865 213.472 346.624 152.132 324.549Z" fill="black"/>
</mask>
<g mask="url(#mask0_3098_144)">
<rect x="65.4668" y="289" width="360" height="186" fill="#3A3838"/>
<path d="M199.707 326.581L182.653 324.336L189.834 339.966L240.834 450.966L249.225 469.228L258.011 451.153L310.511 343.153L317.773 328.214L301.214 329.53L251.874 333.45L199.707 326.581Z" fill="#EFEFEF" stroke="#1E1E1E" stroke-width="19"/>
</g>
<path fill-rule="evenodd" clip-rule="evenodd" d="M250.518 355.83L232.967 365.963C230.967 367.118 228.467 365.674 228.467 363.365V343.004C228.467 340.695 230.967 339.252 232.967 340.406L250.518 350.539L268.068 340.406C270.068 339.252 272.568 340.695 272.568 343.004V363.365C272.568 365.674 270.068 367.118 268.068 365.963L250.518 355.83Z" fill="black"/>
<path d="M253.467 371.5C253.467 373.433 251.9 375 249.967 375C248.034 375 246.467 373.433 246.467 371.5C246.467 369.567 248.034 368 249.967 368C251.9 368 253.467 369.567 253.467 371.5Z" fill="black"/>
<path d="M253.467 371.5C253.467 373.433 251.9 375 249.967 375C248.034 375 246.467 373.433 246.467 371.5C246.467 369.567 248.034 368 249.967 368C251.9 368 253.467 369.567 253.467 371.5Z" fill="black"/>
<path d="M253.467 391.5C253.467 393.433 251.9 395 249.967 395C248.034 395 246.467 393.433 246.467 391.5C246.467 389.567 248.034 388 249.967 388C251.9 388 253.467 389.567 253.467 391.5Z" fill="black"/>
<path d="M253.467 391.5C253.467 393.433 251.9 395 249.967 395C248.034 395 246.467 393.433 246.467 391.5C246.467 389.567 248.034 388 249.967 388C251.9 388 253.467 389.567 253.467 391.5Z" fill="black"/>
<path d="M253.467 411.5C253.467 413.433 251.9 415 249.967 415C248.034 415 246.467 413.433 246.467 411.5C246.467 409.567 248.034 408 249.967 408C251.9 408 253.467 409.567 253.467 411.5Z" fill="black"/>
<path d="M253.467 411.5C253.467 413.433 251.9 415 249.967 415C248.034 415 246.467 413.433 246.467 411.5C246.467 409.567 248.034 408 249.967 408C251.9 408 253.467 409.567 253.467 411.5Z" fill="black"/>
</svg>
