<svg width="355" height="371" viewBox="0 0 355 371" fill="none" xmlns="http://www.w3.org/2000/svg">
<path fill-rule="evenodd" clip-rule="evenodd" d="M74.0693 14.5026L108.638 29.0032L119.875 25.0146C156.752 11.9217 203.431 12.2082 237.075 25.7338L247.667 29.9917L283.315 15.0507C302.92 6.83105 320.792 0.0846189 323.028 0.0538483C328.45 -0.0173087 336.523 6.53491 337.933 12.1486C339.029 16.52 337.785 21.6144 326.573 58.6564C316.522 91.8618 316.607 90.154 324.353 104.039C342.643 136.823 352.918 175.7 353.276 213.471C353.532 240.253 350.71 253.277 340.993 270.204C322.501 302.417 280.928 324.872 228.572 330.93C206.283 333.509 150.84 333.507 128.508 330.926C88.8045 326.337 56.3089 312.729 33.3636 291.084C11.6877 270.637 3.91039 250.08 4.00078 213.471C4.09501 175.977 13.3493 138.675 30.7423 105.685L39.5235 89.0309L35.3618 74.8053C33.0713 66.9818 29.0307 53.2235 26.3825 44.2327C17.0783 12.6486 17.0667 12.4486 24.3767 4.32712C26.7268 1.71738 30.5 0 33.8867 0C36.9734 0 55.0569 6.52528 74.0693 14.5026Z" fill="#FF7319"/>
<path d="M131.442 158.518L122.347 160.79L115.7 163.292C100.92 168.856 87.2169 176.874 75.157 186.982C69.1099 192.051 64.0324 198.14 59.3005 204.454C45.2231 223.24 37.733 244.48 37.6568 265.83C37.5836 286.676 43.8783 298.382 61.4221 310.025C79.9932 322.35 106.294 330.099 138.429 332.712C156.504 334.181 201.377 334.182 219.418 332.714C261.793 329.264 295.441 316.478 310.407 298.135C318.272 288.496 320.556 281.08 320.349 265.83C320.059 244.322 311.742 222.185 296.94 203.517L292.584 199.069C276.314 182.454 256.62 169.584 234.872 161.352L226.299 158.928C199.069 151.226 161.288 151.063 131.442 158.518Z" fill="white"/>
<path d="M285.683 20.6449L256.255 33.3301L266.396 39.1842C276.558 45.0518 305.257 71.9415 310.55 80.5534C313.229 84.9151 313.832 83.5016 322.725 52.0136C336.962 1.59982 334.568 -0.427191 285.683 20.6449Z" fill="#77500C"/>
<path d="M28.5332 12.2753C25.7176 16.5717 26.1331 18.9025 35.22 49.7539C40.5491 67.8451 44.9089 83.1708 44.9089 83.8074C44.9089 84.444 48.2302 80.7765 52.29 75.657C62.8347 62.3622 84.0779 43.0094 93.2803 38.3149C97.6016 36.1091 100.386 33.6686 99.4671 32.8916C95.5112 29.5472 40.8087 7.6924 36.395 7.6924C33.3968 7.6924 30.3852 9.44825 28.5332 12.2753Z" fill="#77500C"/>
<path d="M159.328 132.47C159.328 140.967 152.44 147.855 143.943 147.855C135.446 147.855 128.558 140.967 128.558 132.47C128.558 123.972 135.446 117.084 143.943 117.084C152.44 117.084 159.328 123.972 159.328 132.47Z" fill="black"/>
<path d="M229.081 132.47C229.081 140.967 222.192 147.855 213.695 147.855C205.198 147.855 198.31 140.967 198.31 132.47C198.31 123.972 205.198 117.084 213.695 117.084C222.192 117.084 229.081 123.972 229.081 132.47Z" fill="black"/>
<path fill-rule="evenodd" clip-rule="evenodd" d="M221.031 104.628C221.036 104.841 221.038 105.055 221.038 105.269C221.038 121.201 208.123 134.116 192.191 134.116C191.737 134.116 191.285 134.106 190.836 134.085V122.525C191.285 122.56 191.738 122.578 192.195 122.578C201.754 122.578 209.503 114.829 209.503 105.269C209.503 105.055 209.5 104.841 209.492 104.628H221.031ZM136.037 104.629C136.033 104.842 136.031 105.055 136.031 105.269C136.031 121.201 148.946 134.117 164.878 134.117C165.228 134.117 165.577 134.11 165.924 134.098V122.547C165.577 122.568 165.226 122.578 164.873 122.578C155.314 122.578 147.565 114.829 147.565 105.27C147.565 105.055 147.569 104.841 147.577 104.629H136.037ZM172.135 187.655H183.674V208.81H183.681C183.678 208.891 183.676 208.973 183.674 209.054V209.847C183.885 219.223 191.551 226.759 200.978 226.759C202.301 226.759 203.589 226.61 204.827 226.329V238.044C203.569 238.211 202.286 238.298 200.982 238.298C191.545 238.298 183.166 233.766 177.903 226.76C172.64 233.766 164.261 238.298 154.824 238.298C153.52 238.298 152.236 238.211 150.978 238.044V226.329C152.216 226.61 153.505 226.759 154.828 226.759C164.313 226.759 172.017 219.129 172.135 209.671V209.45V209.23C172.133 209.089 172.13 208.949 172.125 208.81H172.135V187.655Z" fill="black"/>
<mask id="path-3-inside-1_2445_166" fill="white">
<path fill-rule="evenodd" clip-rule="evenodd" d="M168.59 158.807C162.05 158.807 155.463 162.523 155.463 169.064C155.463 181.455 165.508 191.501 177.9 191.501C190.291 191.501 200.337 181.455 200.337 169.064C200.337 162.523 193.75 158.807 187.21 158.807H168.59Z"/>
</mask>
<path fill-rule="evenodd" clip-rule="evenodd" d="M168.59 158.807C162.05 158.807 155.463 162.523 155.463 169.064C155.463 181.455 165.508 191.501 177.9 191.501C190.291 191.501 200.337 181.455 200.337 169.064C200.337 162.523 193.75 158.807 187.21 158.807H168.59Z" fill="#77500C"/>
<path d="M177.9 180.373C171.654 180.373 166.59 175.31 166.59 169.064H144.336C144.336 187.601 159.363 202.628 177.9 202.628V180.373ZM189.21 169.064C189.21 175.31 184.146 180.373 177.9 180.373V202.628C196.437 202.628 211.464 187.601 211.464 169.064H189.21ZM187.21 147.68H168.59V169.935H187.21V147.68ZM211.464 169.064C211.464 161.557 207.515 155.846 202.66 152.405C198.031 149.124 192.411 147.68 187.21 147.68V169.935C187.81 169.935 188.393 170.022 188.891 170.168C189.395 170.316 189.685 170.486 189.792 170.561C189.89 170.631 189.725 170.54 189.528 170.194C189.305 169.802 189.21 169.37 189.21 169.064H211.464ZM166.59 169.064C166.59 169.37 166.494 169.802 166.272 170.194C166.075 170.54 165.91 170.631 166.008 170.561C166.115 170.486 166.404 170.316 166.909 170.168C167.407 170.022 167.99 169.935 168.59 169.935V147.68C163.389 147.68 157.768 149.124 153.14 152.405C148.284 155.846 144.336 161.557 144.336 169.064H166.59Z" fill="black" mask="url(#path-3-inside-1_2445_166)"/>
<mask id="mask0_2445_166" style="mask-type:alpha" maskUnits="userSpaceOnUse" x="1" y="190" width="354" height="147">
<path d="M80.1324 217.049L4.97072 190C-23.5321 317.5 107.467 342 204.473 335.5C219.504 334.493 250.474 334 286.474 317.5C358.474 284.5 356.974 229.167 352.974 200L270.88 223.455C208.197 241.365 141.472 239.124 80.1324 217.049Z" fill="black"/>
</mask>
<g mask="url(#mask0_2445_166)">
<rect x="-6.5332" y="181.5" width="360" height="186" fill="#293240"/>
<path d="M127.707 219.081L110.653 216.836L117.834 232.466L168.834 343.466L177.225 361.728L186.011 343.653L238.511 235.653L245.773 220.714L229.214 222.03L179.874 225.95L127.707 219.081Z" fill="#EFEFEF" stroke="#222A36" stroke-width="19"/>
</g>
<path fill-rule="evenodd" clip-rule="evenodd" d="M172.379 270.505L161.406 251.5C160.252 249.5 161.695 247 164.004 247L193.129 247C195.438 247 196.881 249.5 195.727 251.5L185.032 270.023C187.443 271.849 189 274.743 189 278V334C189 339.523 184.523 344 179 344C173.477 344 169 339.523 169 334V278C169 275.016 170.307 272.338 172.379 270.505Z" fill="#E12C2C"/>
<path fill-rule="evenodd" clip-rule="evenodd" d="M300.231 265.99C301.718 266.389 303.079 265.028 302.681 263.541L302.527 262.969L308.016 267.807C309.17 268.826 310.994 268.212 311.299 266.702L314.38 251.422C314.684 249.912 313.241 248.64 311.781 249.131L299.892 253.132L298.646 248.484C298.247 246.996 296.389 246.498 295.3 247.587L284.277 258.61C283.189 259.698 283.687 261.557 285.174 261.956L300.231 265.99Z" fill="white"/>
<path d="M278.767 260.515C279.51 258.584 281.365 257.31 283.434 257.31H313.72C317.229 257.31 319.646 260.83 318.387 264.105L312.233 280.105C311.49 282.036 309.635 283.31 307.566 283.31H277.28C273.771 283.31 271.354 279.79 272.613 276.515L278.767 260.515Z" fill="#1B212B"/>
<path d="M56 370L58.5 202.5L12.0659 179.283L3.5 175L1 337.5L56 370Z" fill="white"/>
<path fill-rule="evenodd" clip-rule="evenodd" d="M12.0659 179.283L14.5 178.908L27.5216 176.748L29.3796 176.616L26 175H3.5L12.0659 179.283Z" fill="white"/>
<path fill-rule="evenodd" clip-rule="evenodd" d="M57 370L60 202.5H81L82.5 370H57Z" fill="#EEF22E"/>
<path fill-rule="evenodd" clip-rule="evenodd" d="M60 202.5H81L27.5216 176.748L14.5 178.908L60 202.5Z" fill="#EEF22E"/>
<path d="M12.0659 179.283L58.5 202.5H60L14.5 178.908L12.0659 179.283Z" fill="white"/>
<path d="M83.5 202.5L29.3796 176.616L27.5216 176.748L81 202.5H83.5Z" fill="white"/>
<path d="M83.5 370V202.5H81L82.5 370H83.5Z" fill="white"/>
<path d="M58.5 202.5L56 370H57L60 202.5H58.5Z" fill="white"/>
<path d="M58.5 202.5L56 370M58.5 202.5L12.0659 179.283M58.5 202.5H60M56 370L1 337.5L3.5 175M56 370H57M83.5 202.5V370H82.5M83.5 202.5L29.3796 176.616M83.5 202.5H81M3.5 175H26L29.3796 176.616M3.5 175L12.0659 179.283M12.0659 179.283L14.5 178.908M29.3796 176.616L27.5216 176.748M14.5 178.908L60 202.5M14.5 178.908L27.5216 176.748M60 202.5L57 370M60 202.5H81M57 370H82.5M27.5216 176.748L81 202.5M81 202.5L82.5 370" stroke="black" stroke-width="0.5"/>
</svg>
