<svg width="355" height="376" viewBox="0 0 355 376" fill="none" xmlns="http://www.w3.org/2000/svg">
<path fill-rule="evenodd" clip-rule="evenodd" d="M75.5693 55.5025L110.138 70.0032L121.375 66.0145C158.252 52.9217 204.931 53.2082 238.575 66.7338L249.167 70.9917L284.815 56.0506C304.42 47.831 322.292 41.0846 324.528 41.0538C329.95 40.9827 338.023 47.5349 339.433 53.1486C340.529 57.52 339.285 62.6144 328.073 99.6564C318.022 132.862 318.107 131.154 325.853 145.039C344.143 177.823 354.418 216.7 354.776 254.471C355.032 281.253 352.21 294.276 342.493 311.204C324.001 343.417 282.428 365.872 230.072 371.93C207.783 374.509 152.34 374.507 130.008 371.926C90.3045 367.337 57.8088 353.729 34.8636 332.084C13.1877 311.637 5.41039 291.08 5.50078 254.471C5.59501 216.977 14.8493 179.675 32.2423 146.685L41.0235 130.031L36.8618 115.805C34.5713 107.982 30.5307 94.2235 27.8825 85.2327C18.5783 53.6486 18.5667 53.4486 25.8767 45.3271C28.2268 42.7174 32 41 35.3867 41C38.4734 41 56.5569 47.5253 75.5693 55.5025Z" fill="#FF7319"/>
<path d="M132.942 199.519L123.847 201.79L117.2 204.292C102.42 209.856 88.7169 217.874 76.657 227.982C70.6099 233.051 65.5323 239.141 60.8005 245.455C46.7231 264.24 39.233 285.48 39.1567 306.83C39.0836 327.676 45.3782 339.382 62.922 351.025C81.4931 363.35 107.794 371.099 139.929 373.712C158.003 375.181 202.877 375.183 220.917 373.714C263.293 370.264 296.94 357.478 311.907 339.135C319.772 329.496 322.055 322.08 321.848 306.83C321.559 285.322 313.242 263.185 298.439 244.517L294.083 240.069C277.814 223.455 258.12 210.584 236.372 202.353L227.799 199.928C200.569 192.227 162.788 192.063 132.942 199.519Z" fill="white"/>
<path d="M287.184 61.6451L257.756 74.3302L267.897 80.1843C278.059 86.0519 306.758 112.942 312.051 121.553C314.73 125.915 315.334 124.502 324.226 93.0138C338.464 42.6 336.069 40.573 287.184 61.6451Z" fill="#77500C"/>
<path d="M30.0345 53.2755C27.219 57.5718 27.6344 59.9027 36.7214 90.754C42.0505 108.845 46.4103 124.171 46.4103 124.807C46.4103 125.444 49.7316 121.777 53.7914 116.657C64.3361 103.362 85.5793 84.0095 94.7816 79.3151C99.103 77.1092 101.888 74.6687 100.968 73.8918C97.0125 70.5474 42.3101 48.6926 37.8964 48.6926C34.8982 48.6926 31.8866 50.4484 30.0345 53.2755Z" fill="#77500C"/>
<path d="M161.451 167.657C161.451 176.154 154.563 183.042 146.066 183.042C137.569 183.042 130.681 176.154 130.681 167.657C130.681 159.16 137.569 152.272 146.066 152.272C154.563 152.272 161.451 159.16 161.451 167.657Z" fill="black"/>
<path d="M228.826 169.036C228.826 177.533 221.938 184.422 213.441 184.422C204.944 184.422 198.056 177.533 198.056 169.036C198.056 160.539 204.944 153.651 213.441 153.651C221.938 153.651 228.826 160.539 228.826 169.036Z" fill="black"/>
<path fill-rule="evenodd" clip-rule="evenodd" d="M185.629 228.654H174.09V238.682H174.078C174.086 238.895 174.09 239.108 174.09 239.323C174.09 248.882 166.341 256.632 156.781 256.632C147.222 256.632 139.473 248.882 139.473 239.323C139.473 239.108 139.477 238.895 139.485 238.682H127.941C127.936 238.895 127.934 239.109 127.934 239.323C127.934 255.255 140.85 268.171 156.782 268.171C166.218 268.171 174.596 263.639 179.86 256.634C185.123 263.639 193.501 268.171 202.938 268.171C218.87 268.171 231.785 255.255 231.785 239.323C231.785 239.109 231.783 238.895 231.778 238.682H220.235C220.242 238.895 220.246 239.108 220.246 239.323C220.246 248.882 212.497 256.632 202.938 256.632C193.379 256.632 185.629 248.882 185.629 239.323C185.629 239.108 185.633 238.895 185.641 238.682H185.629V228.654Z" fill="black"/>
<mask id="path-3-inside-1_3099_149" fill="white">
<path fill-rule="evenodd" clip-rule="evenodd" d="M170.551 199.807C164.01 199.807 157.422 203.523 157.422 210.064C157.422 222.455 167.468 232.501 179.859 232.501C192.251 232.501 202.296 222.455 202.296 210.064C202.296 203.523 195.709 199.807 189.168 199.807H170.551Z"/>
</mask>
<path fill-rule="evenodd" clip-rule="evenodd" d="M170.551 199.807C164.01 199.807 157.422 203.523 157.422 210.064C157.422 222.455 167.468 232.501 179.859 232.501C192.251 232.501 202.296 222.455 202.296 210.064C202.296 203.523 195.709 199.807 189.168 199.807H170.551Z" fill="#77500C"/>
<path d="M179.859 221.374C173.613 221.374 168.55 216.31 168.55 210.064H146.295C146.295 228.601 161.322 243.628 179.859 243.628V221.374ZM191.169 210.064C191.169 216.31 186.105 221.374 179.859 221.374V243.628C198.396 243.628 213.423 228.601 213.423 210.064H191.169ZM189.168 188.68H170.551V210.934H189.168V188.68ZM213.423 210.064C213.423 202.557 209.474 196.845 204.619 193.404C199.99 190.124 194.369 188.68 189.168 188.68V210.934C189.768 210.934 190.351 211.022 190.849 211.168C191.354 211.316 191.644 211.485 191.751 211.561C191.849 211.631 191.684 211.54 191.487 211.194C191.265 210.802 191.169 210.37 191.169 210.064H213.423ZM168.55 210.064C168.55 210.37 168.454 210.802 168.231 211.194C168.034 211.54 167.869 211.631 167.968 211.561C168.074 211.485 168.364 211.316 168.869 211.168C169.367 211.022 169.95 210.934 170.551 210.934V188.68C165.349 188.68 159.729 190.124 155.1 193.404C150.244 196.845 146.295 202.557 146.295 210.064H168.55Z" fill="black" mask="url(#path-3-inside-1_3099_149)"/>
<path d="M83.5 85C83.5 77.8203 89.3203 72 96.5 72H260.5C267.68 72 273.5 77.8203 273.5 85V104.734C273.5 109.778 270.582 114.367 266.014 116.506L194.619 149.949C184.406 154.734 172.594 154.734 162.381 149.949L90.9855 116.506C86.4178 114.367 83.5 109.778 83.5 104.734V85Z" fill="#242424"/>
<rect width="150.129" height="147.772" rx="16" transform="matrix(0.902985 0.429673 -0.902985 0.429673 176.936 -4)" fill="#323232"/>
<ellipse cx="179" cy="57.5" rx="17.5" ry="12.5" fill="#202020"/>
<path fill-rule="evenodd" clip-rule="evenodd" d="M177.005 56.861C176.541 58.3936 177.408 60.0115 178.941 60.4746L260.601 85.1518V183.897C260.601 184.082 260.618 184.263 260.652 184.439C257.792 185.573 255.769 188.364 255.769 191.628C255.769 193.788 256.655 195.741 258.084 197.144L247.775 215C245.465 219 248.352 224 252.971 224H274.029C278.648 224 281.535 219 279.226 215L268.916 197.144C270.345 195.741 271.231 193.788 271.231 191.628C271.231 188.364 269.208 185.573 266.349 184.439C266.382 184.263 266.399 184.082 266.399 183.897V83.399C266.399 82.2987 265.786 81.3416 264.883 80.8505C264.537 80.4535 264.079 80.1458 263.537 79.9822L180.618 54.9245C179.086 54.4614 177.468 55.3283 177.005 56.861Z" fill="#FFD600"/>
</svg>
