<svg version="1.1" xmlns="http://www.w3.org/2000/svg" xmlns:xlink="http://www.w3.org/1999/xlink" width="100.35101" height="100.04222" viewBox="-10,-10,53,49"><defs><linearGradient x1="224.88391" y1="165.554" x2="261.45242" y2="180.02299" gradientUnits="userSpaceOnUse" id="color-1"><stop offset="0.33347" stop-color="#f9a637"/><stop offset="1" stop-color="#ff7319"/></linearGradient><linearGradient x1="224.88391" y1="165.554" x2="261.45242" y2="180.02299" gradientUnits="userSpaceOnUse" id="color-2"><stop offset="0.33347" stop-color="#f9a637"/><stop offset="1" stop-color="#ff7319"/></linearGradient><linearGradient x1="224.88391" y1="165.554" x2="261.45242" y2="180.02299" gradientUnits="userSpaceOnUse" id="color-3"><stop offset="0.33347" stop-color="#f9a637"/><stop offset="1" stop-color="#ff7319"/></linearGradient><linearGradient x1="224.88391" y1="165.554" x2="261.45242" y2="180.02299" gradientUnits="userSpaceOnUse" id="color-4"><stop offset="0.33347" stop-color="#f9a637"/><stop offset="1" stop-color="#ff7319"/></linearGradient><linearGradient x1="224.88391" y1="165.554" x2="261.45242" y2="180.02299" gradientUnits="userSpaceOnUse" id="color-5"><stop offset="0.33347" stop-color="#f9a637"/><stop offset="1" stop-color="#ff7319"/></linearGradient><linearGradient x1="224.88391" y1="165.554" x2="261.45242" y2="180.02299" gradientUnits="userSpaceOnUse" id="color-6"><stop offset="0.33347" stop-color="#f9a637"/><stop offset="1" stop-color="#ff7319"/></linearGradient><linearGradient x1="224.88391" y1="165.554" x2="261.45242" y2="180.02299" gradientUnits="userSpaceOnUse" id="color-7"><stop offset="0.33347" stop-color="#f9a637"/><stop offset="1" stop-color="#ff7319"/></linearGradient><linearGradient x1="224.88391" y1="165.554" x2="261.45242" y2="180.02299" gradientUnits="userSpaceOnUse" id="color-8"><stop offset="0.33347" stop-color="#f9a637"/><stop offset="1" stop-color="#ff7319"/></linearGradient><linearGradient x1="224.88391" y1="165.554" x2="261.45242" y2="180.02299" gradientUnits="userSpaceOnUse" id="color-9"><stop offset="0.33347" stop-color="#f9a637"/><stop offset="1" stop-color="#ff7319"/></linearGradient></defs><g transform="translate(-223.75285,-165.35441)"><g data-paper-data="{&quot;isPaintingLayer&quot;:true}" stroke="none" stroke-linecap="butt" stroke-linejoin="miter" stroke-miterlimit="10" stroke-dasharray="" stroke-dashoffset="0" style="mix-blend-mode: normal"><path d="M223.75285,194.64559v-29.29117h32.49431v29.29117z" fill="#ffffff" fill-rule="nonzero" stroke-width="0"/><path d="M253.1191,169.43725c-0.9375,0.78927 -2.18586,1.84648 -3.5322,2.98696c-0.36377,0.30793 -0.73439,0.62196 -1.10828,0.93841c-2.77429,2.34903 -5.70427,4.8245 -6.97488,5.84651c-0.43665,0.35119 -0.97841,0.55061 -1.56377,0.52638c-0.57109,-0.02364 -1.0749,-0.25467 -1.47868,-0.57089c-1.37039,-1.07331 -4.42407,-3.58359 -7.26504,-5.92619c-0.58252,-0.48031 -1.15553,-0.95313 -1.70369,-1.40543c-0.97919,-0.80795 -1.87904,-1.55045 -2.6119,-2.15331v23.20317c0,0 0,0.00033 -1.35452,0.00033l1.35452,-0.00033c0,0.7481 -0.60645,1.35482 -1.35452,1.35482c-0.74808,0 -1.35453,-0.60639 -1.35453,-1.35449h1.35453c-1.35452,0 -1.35453,0 -1.35453,0v-25.47334c0,-0.29839 0.07302,-1.10001 0.8444,-1.50806c0.80963,-0.42833 1.52732,0.01639 1.77449,0.20996c0.49079,0.38437 2.30283,1.87956 4.45626,3.65647c0.54127,0.44664 1.1041,0.91105 1.67293,1.38009c2.76982,2.28392 5.69581,4.68913 7.08828,5.78637c1.33003,-1.08085 4.07291,-3.39811 6.72005,-5.63952c0.37422,-0.31671 0.74647,-0.63202 1.11252,-0.94207c2.34293,-1.98459 4.43018,-3.75241 5.07673,-4.27242c0.26711,-0.21476 0.76998,-0.5495 1.39857,-0.52544c0.37781,0.01443 0.82517,0.16771 1.15106,0.5675c0.29976,0.36739 0.36148,0.77838 0.36148,1.05443v25.54864c0,0 0,0.00032 -1.35449,0.00032l1.35449,-0.00032c0,0.7481 -0.60671,1.35482 -1.35449,1.35482c-0.7481,0 -1.35482,-0.60671 -1.35482,-1.35449h1.35482c-1.35482,0 -1.35482,0 -1.35482,0z" fill="url(#color-1)" fill-rule="evenodd" stroke-width="1"/><path d="M247.71355,174.38529l4.95134,-3.96107v4.16737" fill="url(#color-2)" fill-rule="nonzero" stroke-width="1"/><path d="M227.30081,174.88836v-4.16737l4.95134,3.96106" fill="url(#color-3)" fill-rule="nonzero" stroke-width="1"/><path d="M243.29898,187.56483c-0.18704,0 -0.33865,-0.68214 -0.33865,-1.52364c0,-0.84166 0.15161,-1.5239 0.33865,-1.5239c0.18702,0 0.33863,0.68224 0.33863,1.5239c0,0.8415 -0.15161,1.52364 -0.33863,1.52364z" fill="url(#color-4)" fill-rule="nonzero" stroke-width="1"/><path d="M237.54227,187.56483c-0.18704,0 -0.33863,-0.68214 -0.33863,-1.52364c0,-0.84166 0.15158,-1.5239 0.33863,-1.5239c0.18702,0 0.33863,0.68224 0.33863,1.5239c0,0.8415 -0.15161,1.52364 -0.33863,1.52364z" fill="url(#color-5)" fill-rule="nonzero" stroke-width="1"/><path d="M244.10528,184.28267c0.08578,0.1633 0.14002,0.3496 0.17693,0.51564c0.07654,0.3445 0.11733,0.78343 0.11733,1.24287c0,0.45912 -0.04079,0.89831 -0.11733,1.24281c-0.0369,0.16589 -0.09114,0.35234 -0.17693,0.51561c-0.04249,0.08099 -0.11197,0.19364 -0.22194,0.29486c-0.11409,0.10514 -0.3126,0.2325 -0.58435,0.2325c-0.27179,0 -0.47028,-0.12735 -0.58438,-0.2325c-0.10997,-0.10123 -0.17944,-0.21388 -0.22195,-0.29486c-0.08578,-0.16327 -0.14002,-0.34972 -0.17691,-0.51561c-0.07654,-0.3445 -0.11733,-0.7837 -0.11733,-1.24281c0,-0.45944 0.04078,-0.89837 0.11733,-1.24287c0.0369,-0.16605 0.09114,-0.35234 0.17691,-0.51564c0.04252,-0.08088 0.11198,-0.19364 0.22195,-0.2949c0.11409,-0.10505 0.31259,-0.2324 0.58438,-0.2324c0.27175,0 0.47025,0.12735 0.58435,0.2324c0.10997,0.10126 0.17946,0.21401 0.22194,0.2949zM238.34856,184.28267c0.08582,0.1633 0.14002,0.3496 0.17691,0.51564c0.07654,0.3445 0.11733,0.78343 0.11733,1.24287c0,0.45912 -0.04079,0.89831 -0.11733,1.24281c-0.0369,0.16589 -0.09111,0.35234 -0.17691,0.51561c-0.04249,0.08099 -0.11194,0.19364 -0.22195,0.29486c-0.11406,0.10514 -0.31259,0.2325 -0.58434,0.2325c-0.27179,0 -0.47028,-0.12735 -0.58438,-0.2325c-0.10997,-0.10123 -0.17944,-0.21388 -0.22191,-0.29486c-0.08582,-0.16327 -0.14002,-0.34972 -0.17691,-0.51561c-0.07658,-0.3445 -0.11736,-0.7837 -0.11736,-1.24281c0,-0.45944 0.04079,-0.89837 0.11736,-1.24287c0.0369,-0.16605 0.09111,-0.35234 0.17691,-0.51564c0.04249,-0.08088 0.11194,-0.19364 0.22191,-0.2949c0.11409,-0.10505 0.31259,-0.2324 0.58438,-0.2324c0.27179,0 0.47028,0.12735 0.58434,0.2324c0.11001,0.10126 0.17946,0.21401 0.22195,0.2949z" fill="url(#color-6)" fill-rule="evenodd" stroke-width="1"/><path d="M240.41974,189.78955c-0.03983,-0.12213 -0.06655,-0.25111 -0.07759,-0.38205c0,0 -0.00833,-0.09927 0.09091,-0.10776c0.00156,0 0.0031,-0.00032 0.00464,-0.00032c-0.01858,-0.04311 -0.01352,-0.05225 0.02765,-0.0578c0.00356,-0.0294 0.01988,-0.08099 0.09016,-0.08686c0.09924,-0.00817 0.14727,0.0529 0.14727,0.0529c-0.1218,0.02711 -0.19703,0.02873 -0.23743,0.03396c-0.00147,0.01241 -0.00079,0.02091 -0.00079,0.02091c0.00111,0.01306 0.00209,0.02612 0.0029,0.03886c-0.00882,-0.00163 -0.01871,-0.00262 -0.02978,-0.00196c0.02674,0.06204 0.10253,0.19462 0.19008,0.48785c0.20448,0.56818 0.71728,0.96166 1.21025,0.37813l0.04846,-0.12506c0,0 0.03694,-0.09241 0.12944,-0.05551c0.0925,0.0369 0.05557,0.12964 0.05557,0.12964l-0.0627,0.15347c-0.55286,0.65438 -1.17391,0.35887 -1.48028,-0.22107z" fill="url(#color-7)" fill-rule="nonzero" stroke-width="1"/><path d="M240.3464,190.10042c-0.30633,0.57994 -0.9274,0.87546 -1.48024,0.22107l-0.06273,-0.15347c0,0 -0.03693,-0.09241 0.05557,-0.12964c0.0925,-0.0369 0.12944,0.05583 0.12944,0.05583l0.04849,0.12474c0.49294,0.58353 1.00575,0.19005 1.21023,-0.37813c0.08755,-0.29323 0.16334,-0.42581 0.19008,-0.48785c-0.01107,-0.00065 -0.02093,0.00033 -0.02978,0.00229c0.00085,-0.01306 0.0018,-0.02612 0.0029,-0.03919c0,0 0.00069,-0.00849 -0.00075,-0.02057c-0.04043,-0.00555 -0.11566,-0.00717 -0.23746,-0.03428c0,0 0.04803,-0.06107 0.1473,-0.05258c0.07024,0.00588 0.08659,0.05715 0.09016,0.08686c0.04115,0.00523 0.04621,0.01437 0.02763,0.05748c0.00154,0 0.00308,0.00033 0.00464,0.00033c0.09924,0.00849 0.09091,0.10776 0.09091,0.10776c-0.01104,0.13094 -0.03775,0.25993 -0.07759,0.38205z" fill="url(#color-8)" fill-rule="nonzero" stroke-width="1"/><path d="M240.49942,189.79412c-0.21169,0.03821 -0.64883,-0.38924 -0.68704,-0.60084c-0.03821,-0.2116 0.38918,-0.23184 0.60083,-0.27004c0.21166,-0.03821 0.6488,-0.00163 0.68701,0.20996c0.03821,0.2116 -0.38913,0.62271 -0.60081,0.66092z" fill="url(#color-9)" fill-rule="nonzero" stroke-width="1"/></g></g></svg>