<svg width="500" height="500" viewBox="0 0 500 500" fill="none" xmlns="http://www.w3.org/2000/svg">
<path fill-rule="evenodd" clip-rule="evenodd" d="M161.569 104.503L196.138 119.003L207.375 115.015C244.252 101.922 290.931 102.208 324.575 115.734L335.167 119.992L370.815 105.051C390.42 96.831 408.292 90.0846 410.528 90.0538C415.95 89.9827 424.023 96.5349 425.433 102.149C426.529 106.52 425.285 111.614 414.073 148.656C404.022 181.862 404.107 180.154 411.853 194.039C430.143 226.823 440.418 265.7 440.776 303.471C441.032 330.253 438.21 343.276 428.493 360.204C410.001 392.417 368.428 414.872 316.072 420.93C293.783 423.509 238.34 423.507 216.008 420.926C176.305 416.337 143.809 402.729 120.864 381.084C99.1877 360.637 91.4104 340.08 91.5008 303.471C91.595 265.977 100.849 228.675 118.242 195.685L127.024 179.031L122.862 164.805C120.571 156.982 116.531 143.223 113.883 134.233C104.578 102.649 104.567 102.449 111.877 94.3271C114.227 91.7174 118 90 121.387 90C124.473 90 142.557 96.5253 161.569 104.503Z" fill="#FF7319"/>
<path d="M218.942 248.519L209.847 250.79L203.2 253.292C188.42 258.856 174.717 266.874 162.657 276.982C156.61 282.051 151.532 288.141 146.8 294.455V294.455C132.723 313.24 125.233 334.48 125.157 355.83C125.084 376.676 131.378 388.382 148.922 400.025C167.493 412.35 193.794 420.099 225.929 422.712C244.003 424.181 288.877 424.183 306.917 422.714C349.293 419.264 382.94 406.478 397.907 388.135C405.772 378.496 408.055 371.08 407.848 355.83C407.559 334.322 399.242 312.185 384.439 293.517L380.083 289.069C363.814 272.455 344.12 259.584 322.372 251.353L313.799 248.928C286.569 241.226 248.788 241.063 218.942 248.519Z" fill="white"/>
<path d="M373.184 110.645L343.756 123.33L353.897 129.184C364.059 135.052 392.758 161.942 398.051 170.553C400.73 174.915 401.334 173.502 410.226 142.014C424.464 91.6 422.069 89.573 373.184 110.645Z" fill="#77500C"/>
<path d="M116.035 102.275C113.219 106.572 113.634 108.903 122.721 139.754C128.05 157.845 132.41 173.171 132.41 173.807C132.41 174.444 135.732 170.777 139.791 165.657C150.336 152.362 171.579 133.01 180.782 128.315C185.103 126.109 187.888 123.669 186.968 122.892C183.013 119.547 128.31 97.6926 123.896 97.6926C120.898 97.6926 117.887 99.4484 116.035 102.275Z" fill="#77500C"/>
<path d="M247.451 216.657C247.451 225.154 240.563 232.042 232.066 232.042C223.569 232.042 216.681 225.154 216.681 216.657C216.681 208.16 223.569 201.272 232.066 201.272C240.563 201.272 247.451 208.16 247.451 216.657Z" fill="black"/>
<path d="M314.826 218.036C314.826 226.533 307.938 233.422 299.441 233.422C290.944 233.422 284.056 226.533 284.056 218.036C284.056 209.539 290.944 202.651 299.441 202.651C307.938 202.651 314.826 209.539 314.826 218.036Z" fill="black"/>
<path fill-rule="evenodd" clip-rule="evenodd" d="M271.629 277.654H260.09V287.682H260.078C260.086 287.895 260.09 288.108 260.09 288.323C260.09 297.882 252.341 305.632 242.781 305.632C233.222 305.632 225.473 297.882 225.473 288.323C225.473 288.108 225.477 287.895 225.485 287.682H213.941C213.936 287.895 213.934 288.109 213.934 288.323C213.934 304.255 226.85 317.171 242.782 317.171C252.218 317.171 260.596 312.639 265.86 305.634C271.123 312.639 279.501 317.171 288.938 317.171C304.87 317.171 317.785 304.255 317.785 288.323C317.785 288.109 317.783 287.895 317.778 287.682H306.235C306.242 287.895 306.246 288.108 306.246 288.323C306.246 297.882 298.497 305.632 288.938 305.632C279.379 305.632 271.629 297.882 271.629 288.323C271.629 288.108 271.633 287.895 271.641 287.682H271.629V277.654Z" fill="black"/>
<mask id="path-3-inside-1_3099_148" fill="white">
<path fill-rule="evenodd" clip-rule="evenodd" d="M256.551 248.807C250.01 248.807 243.422 252.523 243.422 259.064V259.064C243.422 271.455 253.468 281.501 265.859 281.501C278.251 281.501 288.296 271.455 288.296 259.064V259.064C288.296 252.523 281.709 248.807 275.168 248.807H256.551Z"/>
</mask>
<path fill-rule="evenodd" clip-rule="evenodd" d="M256.551 248.807C250.01 248.807 243.422 252.523 243.422 259.064V259.064C243.422 271.455 253.468 281.501 265.859 281.501C278.251 281.501 288.296 271.455 288.296 259.064V259.064C288.296 252.523 281.709 248.807 275.168 248.807H256.551Z" fill="#77500C"/>
<path d="M265.859 270.374C259.613 270.374 254.55 265.31 254.55 259.064H232.295C232.295 277.601 247.322 292.628 265.859 292.628V270.374ZM277.169 259.064C277.169 265.31 272.105 270.374 265.859 270.374V292.628C284.396 292.628 299.423 277.601 299.423 259.064H277.169ZM275.168 237.68H256.551V259.934H275.168V237.68ZM299.423 259.064C299.423 251.557 295.474 245.845 290.619 242.404C285.99 239.124 280.369 237.68 275.168 237.68V259.934C275.768 259.934 276.351 260.022 276.849 260.168C277.354 260.316 277.644 260.485 277.751 260.561C277.849 260.631 277.684 260.54 277.487 260.194C277.265 259.802 277.169 259.37 277.169 259.064H299.423ZM254.55 259.064C254.55 259.37 254.454 259.802 254.231 260.194C254.034 260.54 253.869 260.631 253.968 260.561C254.074 260.485 254.364 260.316 254.869 260.168C255.367 260.022 255.95 259.934 256.551 259.934V237.68C251.349 237.68 245.729 239.124 241.1 242.404C236.244 245.845 232.295 251.557 232.295 259.064H254.55Z" fill="black" mask="url(#path-3-inside-1_3099_148)"/>
<path d="M169.5 134C169.5 126.82 175.32 121 182.5 121H346.5C353.68 121 359.5 126.82 359.5 134V153.734C359.5 158.778 356.582 163.367 352.014 165.506L280.619 198.949C270.406 203.734 258.594 203.734 248.381 198.949L176.986 165.506C172.418 163.367 169.5 158.778 169.5 153.734V134Z" fill="#242424"/>
<rect width="150.129" height="147.772" rx="16" transform="matrix(0.902985 0.429673 -0.902985 0.429673 262.936 45)" fill="#323232"/>
<ellipse cx="265" cy="106.5" rx="17.5" ry="12.5" fill="#202020"/>
<path fill-rule="evenodd" clip-rule="evenodd" d="M263.005 105.861C262.541 107.394 263.408 109.011 264.941 109.475L346.601 134.152V232.897C346.601 233.082 346.618 233.263 346.652 233.439C343.792 234.573 341.769 237.364 341.769 240.628C341.769 242.788 342.655 244.741 344.084 246.144L333.775 264C331.465 268 334.352 273 338.971 273H360.029C364.648 273 367.535 268 365.226 264L354.916 246.144C356.345 244.741 357.231 242.788 357.231 240.628C357.231 237.364 355.208 234.573 352.349 233.439C352.382 233.263 352.399 233.082 352.399 232.897V132.399C352.399 131.299 351.786 130.342 350.883 129.851C350.537 129.453 350.079 129.146 349.537 128.982L266.618 103.925C265.086 103.461 263.468 104.328 263.005 105.861Z" fill="#FFD600"/>
</svg>
