<svg width="171" height="170" viewBox="0 0 171 170" fill="none" xmlns="http://www.w3.org/2000/svg">
<g clip-path="url(#clip0_1271_5597)">
<rect x="-0.254517" y="0.254517" width="153.014" height="153.014" rx="44.0193" transform="matrix(-1 0 0 1 161.493 8)" fill="white"/>
<path fill-rule="evenodd" clip-rule="evenodd" d="M125.385 51.5C122.514 53.9171 118.691 57.1547 114.568 60.6473C113.454 61.5903 112.319 62.552 111.174 63.5211C102.678 70.7148 93.7052 78.2957 89.8141 81.4255C88.4769 82.501 86.8178 83.1117 85.0252 83.0375C83.2763 82.9651 81.7334 82.2576 80.4969 81.2892C76.3002 78.0023 66.9486 70.3148 58.2484 63.1408C56.4645 61.6699 54.7097 60.2219 53.031 58.8368C50.0323 56.3625 47.2766 54.0887 45.0323 52.2425V123.3C45.0323 123.3 45.0323 123.301 40.8842 123.301L45.0323 123.3C45.0323 125.591 43.1751 127.449 40.8842 127.449C38.5933 127.449 36.7361 125.592 36.7361 123.301H40.8842C36.7361 123.301 36.7361 123.301 36.7361 123.301V45.2913C36.7361 44.3775 36.9597 41.9226 39.322 40.673C41.8014 39.3613 43.9993 40.7232 44.7562 41.316C46.2592 42.4931 51.8084 47.072 58.4031 52.5136C60.0607 53.8814 61.7843 55.3036 63.5263 56.74C72.0086 63.7343 80.9692 71.1 85.2335 74.4602C89.3066 71.1502 97.7064 64.0538 105.813 57.1897C106.959 56.2198 108.099 55.2542 109.22 54.3047C116.395 48.2271 122.787 42.8133 124.767 41.2208C125.585 40.5631 127.125 39.538 129.05 39.6117C130.207 39.6559 131.577 40.1253 132.575 41.3496C133.493 42.4747 133.682 43.7333 133.682 44.5787V122.819C133.682 122.819 133.682 122.82 129.534 122.82L133.682 122.819C133.682 125.11 131.824 126.968 129.534 126.968C127.243 126.968 125.385 125.11 125.385 122.82H129.534C125.385 122.82 125.385 122.82 125.385 122.82V51.5Z" fill="url(#paint0_linear_1271_5597)"/>
<path d="M123.994 67.2847V54.5225L108.831 66.6529" fill="url(#paint1_linear_1271_5597)"/>
<path d="M61.4819 67.5617L46.3189 55.4313V68.1935" fill="url(#paint2_linear_1271_5597)"/>
<path d="M96.3488 102.348C96.3488 99.7705 95.8845 97.6812 95.3118 97.6812C94.739 97.6812 94.2747 99.7705 94.2747 102.348C94.2747 104.925 94.739 107.014 95.3118 107.014C95.8845 107.014 96.3488 104.925 96.3488 102.348Z" fill="url(#paint3_linear_1271_5597)"/>
<path d="M78.7194 102.348C78.7194 99.7705 78.2551 97.6812 77.6824 97.6812C77.1096 97.6812 76.6454 99.7705 76.6454 102.348C76.6454 104.925 77.1096 107.014 77.6824 107.014C78.2551 107.014 78.7194 104.925 78.7194 102.348Z" fill="url(#paint4_linear_1271_5597)"/>
<path fill-rule="evenodd" clip-rule="evenodd" d="M97.1013 96.0596C96.7519 95.7379 96.144 95.3479 95.3118 95.3479C94.4795 95.3479 93.8716 95.7379 93.5222 96.0596C93.1854 96.3697 92.9727 96.715 92.8425 96.9627C92.5798 97.4628 92.4137 98.0333 92.3007 98.5418C92.0663 99.5968 91.9414 100.941 91.9414 102.348C91.9414 103.754 92.0663 105.099 92.3007 106.154C92.4137 106.662 92.5798 107.233 92.8425 107.733C92.9727 107.981 93.1854 108.326 93.5222 108.636C93.8716 108.958 94.4795 109.348 95.3118 109.348C96.144 109.348 96.7519 108.958 97.1013 108.636C97.4381 108.326 97.6509 107.981 97.781 107.733C98.0437 107.233 98.2098 106.662 98.3228 106.154C98.5572 105.099 98.6821 103.754 98.6821 102.348C98.6821 100.941 98.5572 99.5968 98.3228 98.5418C98.2098 98.0333 98.0437 97.4628 97.781 96.9627C97.6509 96.715 97.4381 96.3697 97.1013 96.0596ZM79.4719 96.0596C79.1226 95.7379 78.5147 95.3479 77.6824 95.3479C76.8501 95.3479 76.2422 95.7379 75.8928 96.0596C75.556 96.3697 75.3433 96.715 75.2132 96.9627C74.9504 97.4628 74.7844 98.0333 74.6714 98.5418C74.4369 99.5968 74.312 100.941 74.312 102.348C74.312 103.754 74.4369 105.099 74.6714 106.154C74.7844 106.662 74.9504 107.233 75.2132 107.733C75.3433 107.981 75.556 108.326 75.8928 108.636C76.2422 108.958 76.8501 109.348 77.6824 109.348C78.5146 109.348 79.1226 108.958 79.4719 108.636C79.8088 108.326 80.0215 107.981 80.1516 107.733C80.4144 107.233 80.5804 106.662 80.6934 106.154C80.9278 105.099 81.0527 103.754 81.0527 102.348C81.0527 100.941 80.9278 99.5968 80.6934 98.5418C80.5804 98.0333 80.4144 97.4628 80.1516 96.9627C80.0215 96.715 79.8088 96.3697 79.4719 96.0596Z" fill="url(#paint5_linear_1271_5597)"/>
<path d="M86.8276 114.615C87.7658 116.391 89.6677 117.296 91.3608 115.292L91.5528 114.822C91.5528 114.822 91.6659 114.538 91.3826 114.425C91.0993 114.312 90.9862 114.595 90.9862 114.595L90.8378 114.978C89.3281 116.765 87.7577 115.56 87.1315 113.82C86.8634 112.922 86.6313 112.516 86.5494 112.326C86.5833 112.324 86.6136 112.327 86.6406 112.332C86.6381 112.293 86.6351 112.253 86.6317 112.213C86.6317 112.213 86.6296 112.187 86.6341 112.149C86.7578 112.133 86.9882 112.128 87.3612 112.045C87.3612 112.045 87.2141 111.858 86.9102 111.883C86.695 111.901 86.645 112.059 86.6341 112.149C86.508 112.166 86.4925 112.194 86.5494 112.326C86.5447 112.326 86.54 112.327 86.5352 112.327C86.2313 112.353 86.2568 112.657 86.2568 112.657C86.2906 113.058 86.3724 113.453 86.4944 113.827L86.8276 114.615Z" fill="url(#paint6_linear_1271_5597)"/>
<path d="M86.2698 114.779C85.3317 116.555 83.4297 117.46 81.7367 115.456L81.5446 114.986C81.5446 114.986 81.4315 114.703 81.7148 114.589C81.9981 114.476 82.1112 114.76 82.1112 114.76L82.2597 115.142C83.7693 116.929 85.3397 115.724 85.9659 113.984C86.234 113.086 86.4661 112.68 86.548 112.49C86.5141 112.488 86.4839 112.491 86.4568 112.497C86.4594 112.457 86.4623 112.417 86.4657 112.377C86.4657 112.377 86.4678 112.351 86.4634 112.314C86.3396 112.297 86.1092 112.292 85.7362 112.209C85.7362 112.209 85.8833 112.022 86.1873 112.048C86.4024 112.066 86.4525 112.223 86.4634 112.314C86.5894 112.33 86.6049 112.358 86.548 112.49C86.5527 112.49 86.5574 112.491 86.5622 112.491C86.8661 112.517 86.8406 112.821 86.8406 112.821C86.8068 113.222 86.725 113.617 86.603 113.991L86.2698 114.779Z" fill="url(#paint7_linear_1271_5597)"/>
<path d="M88.5783 111.817C88.4613 111.169 87.1226 111.057 86.4744 111.174C85.8262 111.291 84.5174 111.353 84.6344 112.001C84.7514 112.649 86.0901 113.958 86.7384 113.841C87.3866 113.724 88.6953 112.465 88.5783 111.817Z" fill="url(#paint8_linear_1271_5597)"/>
<rect x="-0.254517" y="0.254517" width="153.014" height="153.014" rx="44.0193" transform="matrix(-1 0 0 1 161.493 8)" stroke="white" stroke-width="0.509035"/>
</g>
<rect x="5.47949" y="5" width="160" height="160" rx="80" stroke="url(#paint9_linear_1271_5597)" stroke-width="10"/>
<defs>
<linearGradient id="paint0_linear_1271_5597" x1="38.9174" y1="39.6079" x2="150.905" y2="83.9178" gradientUnits="userSpaceOnUse">
<stop offset="0.333466" stop-color="#F9A637"/>
<stop offset="1" stop-color="#FF7319"/>
</linearGradient>
<linearGradient id="paint1_linear_1271_5597" x1="38.9174" y1="39.6079" x2="150.905" y2="83.9178" gradientUnits="userSpaceOnUse">
<stop offset="0.333466" stop-color="#F9A637"/>
<stop offset="1" stop-color="#FF7319"/>
</linearGradient>
<linearGradient id="paint2_linear_1271_5597" x1="38.9174" y1="39.6079" x2="150.905" y2="83.9178" gradientUnits="userSpaceOnUse">
<stop offset="0.333466" stop-color="#F9A637"/>
<stop offset="1" stop-color="#FF7319"/>
</linearGradient>
<linearGradient id="paint3_linear_1271_5597" x1="38.9174" y1="39.6079" x2="150.905" y2="83.9178" gradientUnits="userSpaceOnUse">
<stop offset="0.333466" stop-color="#F9A637"/>
<stop offset="1" stop-color="#FF7319"/>
</linearGradient>
<linearGradient id="paint4_linear_1271_5597" x1="38.9174" y1="39.6079" x2="150.905" y2="83.9178" gradientUnits="userSpaceOnUse">
<stop offset="0.333466" stop-color="#F9A637"/>
<stop offset="1" stop-color="#FF7319"/>
</linearGradient>
<linearGradient id="paint5_linear_1271_5597" x1="38.9174" y1="39.6079" x2="150.905" y2="83.9178" gradientUnits="userSpaceOnUse">
<stop offset="0.333466" stop-color="#F9A637"/>
<stop offset="1" stop-color="#FF7319"/>
</linearGradient>
<linearGradient id="paint6_linear_1271_5597" x1="38.9174" y1="39.6079" x2="150.905" y2="83.9178" gradientUnits="userSpaceOnUse">
<stop offset="0.333466" stop-color="#F9A637"/>
<stop offset="1" stop-color="#FF7319"/>
</linearGradient>
<linearGradient id="paint7_linear_1271_5597" x1="38.9174" y1="39.6079" x2="150.905" y2="83.9178" gradientUnits="userSpaceOnUse">
<stop offset="0.333466" stop-color="#F9A637"/>
<stop offset="1" stop-color="#FF7319"/>
</linearGradient>
<linearGradient id="paint8_linear_1271_5597" x1="38.9174" y1="39.6079" x2="150.905" y2="83.9178" gradientUnits="userSpaceOnUse">
<stop offset="0.333466" stop-color="#F9A637"/>
<stop offset="1" stop-color="#FF7319"/>
</linearGradient>
<linearGradient id="paint9_linear_1271_5597" x1="157.104" y1="10" x2="-20.473" y2="73.6629" gradientUnits="userSpaceOnUse">
<stop offset="0.333466" stop-color="#F9A637"/>
<stop offset="1" stop-color="#FF7319"/>
</linearGradient>
<clipPath id="clip0_1271_5597">
<rect x="10.4795" y="10" width="150" height="150" rx="75" fill="white"/>
</clipPath>
</defs>
</svg>
