<svg width="500" height="500" viewBox="0 0 500 500" fill="none" xmlns="http://www.w3.org/2000/svg">
<g filter="url(#filter0_d_3098_145)">
<path fill-rule="evenodd" clip-rule="evenodd" d="M145.069 134.503L179.638 149.003L190.875 145.015C227.752 131.922 274.431 132.208 308.075 145.734L318.667 149.992L354.315 135.051C373.92 126.831 391.792 120.085 394.028 120.054C399.45 119.983 407.523 126.535 408.933 132.149C410.029 136.52 408.785 141.614 397.573 178.656C387.522 211.862 387.607 210.154 395.353 224.039C413.643 256.823 423.918 295.7 424.276 333.471C424.532 360.253 421.71 373.276 411.993 390.204C393.501 422.417 351.928 444.872 299.572 450.93C277.283 453.509 221.84 453.507 199.508 450.926C159.805 446.337 127.309 432.729 104.364 411.084C82.6877 390.637 74.9104 370.08 75.0008 333.471C75.095 295.977 84.3493 258.675 101.742 225.685L110.524 209.031L106.362 194.805C104.071 186.982 100.031 173.223 97.3825 164.233C88.0783 132.649 88.0667 132.449 95.3767 124.327C97.7268 121.717 101.5 120 104.887 120C107.973 120 126.057 126.525 145.069 134.503Z" fill="#FF7319"/>
<path d="M202.442 278.519L193.347 280.79L186.7 283.292C171.92 288.856 158.217 296.874 146.157 306.982C140.11 312.051 135.032 318.141 130.3 324.455C116.223 343.24 108.733 364.48 108.657 385.83C108.584 406.676 114.878 418.382 132.422 430.025C150.993 442.35 177.294 450.099 209.429 452.712C227.503 454.181 272.377 454.183 290.417 452.714C332.793 449.264 366.44 436.478 381.407 418.135C389.272 408.496 391.555 401.08 391.348 385.83C391.059 364.322 382.742 342.185 367.939 323.517L363.583 319.069C347.314 302.455 327.62 289.584 305.872 281.353L297.299 278.928C270.069 271.226 232.288 271.063 202.442 278.519Z" fill="white"/>
<path d="M356.684 140.645L327.256 153.33L337.397 159.184C347.559 165.052 376.258 191.942 381.551 200.553C384.23 204.915 384.834 203.502 393.726 172.014C407.964 121.6 405.569 119.573 356.684 140.645Z" fill="#77500C"/>
<path d="M99.5345 132.275C96.719 136.572 97.1344 138.903 106.221 169.754C111.55 187.845 115.91 203.171 115.91 203.807C115.91 204.444 119.232 200.777 123.291 195.657C133.836 182.362 155.079 163.01 164.282 158.315C168.603 156.109 171.388 153.669 170.468 152.892C166.513 149.547 111.81 127.693 107.396 127.693C104.398 127.693 101.387 129.448 99.5345 132.275Z" fill="#77500C"/>
<path d="M230.951 246.657C230.951 255.154 224.063 262.042 215.566 262.042C207.069 262.042 200.181 255.154 200.181 246.657C200.181 238.16 207.069 231.272 215.566 231.272C224.063 231.272 230.951 238.16 230.951 246.657Z" fill="black"/>
<path d="M298.326 248.036C298.326 256.534 291.438 263.422 282.941 263.422C274.444 263.422 267.556 256.534 267.556 248.036C267.556 239.539 274.444 232.651 282.941 232.651C291.438 232.651 298.326 239.539 298.326 248.036Z" fill="black"/>
<path fill-rule="evenodd" clip-rule="evenodd" d="M255.129 307.654H243.59V321H243.384C242.098 329.288 234.93 335.631 226.282 335.632V347.17C231.987 347.17 237.565 345.479 242.309 342.309C245.034 340.488 247.414 338.226 249.36 335.631C251.28 338.192 253.623 340.428 256.302 342.236C260.934 345.361 266.372 347.074 271.958 347.167L272.15 335.629C262.724 335.476 255.13 327.786 255.13 318.323C255.13 318.108 255.133 317.895 255.141 317.682H255.129V307.654Z" fill="black"/>
<mask id="path-3-inside-1_3098_145" fill="white">
<path fill-rule="evenodd" clip-rule="evenodd" d="M240.051 278.807C233.51 278.807 226.922 282.523 226.922 289.064C226.922 301.455 236.968 311.501 249.359 311.501C261.751 311.501 271.796 301.455 271.796 289.064C271.796 282.523 265.209 278.807 258.668 278.807H240.051Z"/>
</mask>
<path fill-rule="evenodd" clip-rule="evenodd" d="M240.051 278.807C233.51 278.807 226.922 282.523 226.922 289.064C226.922 301.455 236.968 311.501 249.359 311.501C261.751 311.501 271.796 301.455 271.796 289.064C271.796 282.523 265.209 278.807 258.668 278.807H240.051Z" fill="#77500C"/>
<path d="M249.359 300.374C243.113 300.374 238.05 295.31 238.05 289.064H215.795C215.795 307.601 230.822 322.628 249.359 322.628V300.374ZM260.669 289.064C260.669 295.31 255.605 300.374 249.359 300.374V322.628C267.896 322.628 282.923 307.601 282.923 289.064H260.669ZM258.668 267.68H240.051V289.934H258.668V267.68ZM282.923 289.064C282.923 281.557 278.974 275.845 274.119 272.404C269.49 269.124 263.869 267.68 258.668 267.68V289.934C259.268 289.934 259.851 290.022 260.349 290.168C260.854 290.316 261.144 290.485 261.251 290.561C261.349 290.631 261.184 290.54 260.987 290.194C260.765 289.802 260.669 289.37 260.669 289.064H282.923ZM238.05 289.064C238.05 289.37 237.954 289.802 237.731 290.194C237.534 290.54 237.369 290.631 237.468 290.561C237.574 290.485 237.864 290.316 238.369 290.168C238.867 290.022 239.45 289.934 240.051 289.934V267.68C234.849 267.68 229.229 269.124 224.6 272.404C219.744 275.845 215.795 281.557 215.795 289.064H238.05Z" fill="black" mask="url(#path-3-inside-1_3098_145)"/>
</g>
<path fill-rule="evenodd" clip-rule="evenodd" d="M145.069 134.503L179.638 149.003L190.875 145.015C227.752 131.922 274.431 132.208 308.075 145.734L318.667 149.992L354.315 135.051C373.92 126.831 391.792 120.085 394.028 120.054C399.45 119.983 407.523 126.535 408.933 132.149C410.029 136.52 408.785 141.614 397.573 178.656C387.522 211.862 387.607 210.154 395.353 224.039C413.643 256.823 423.918 295.7 424.276 333.471C424.532 360.253 421.71 373.276 411.993 390.204C393.501 422.417 351.928 444.872 299.572 450.93C277.283 453.509 221.84 453.507 199.508 450.926C159.805 446.337 127.309 432.729 104.364 411.084C82.6877 390.637 74.9104 370.08 75.0008 333.471C75.095 295.977 84.3493 258.675 101.742 225.685L110.524 209.031L106.362 194.805C104.071 186.982 100.031 173.223 97.3825 164.233C88.0783 132.649 88.0667 132.449 95.3767 124.327C97.7268 121.717 101.5 120 104.887 120C107.973 120 126.057 126.525 145.069 134.503Z" fill="black" fill-opacity="0.54"/>
<mask id="mask0_3098_145" style="mask-type:alpha" maskUnits="userSpaceOnUse" x="73" y="308" width="354" height="147">
<path d="M152.132 335.549L76.9707 308.5C48.4679 436 179.467 460.5 276.473 454C291.504 452.993 322.474 452.5 358.474 436C430.474 403 428.974 347.667 424.974 318.5L342.88 341.955C280.197 359.865 213.472 357.624 152.132 335.549Z" fill="black"/>
</mask>
<g mask="url(#mask0_3098_145)">
<rect x="65.4668" y="300" width="360" height="186" fill="#1F1F1F"/>
<path fill-rule="evenodd" clip-rule="evenodd" d="M243.238 380.097L231.955 357.332C230.967 355.338 232.418 353 234.643 353L264.49 353C266.715 353 268.166 355.338 267.178 357.332L256.152 379.58C258.494 381.41 260 384.261 260 387.464V456C260 461.523 255.523 466 250 466C244.477 466 240 461.523 240 456V387.464C240 384.549 241.248 381.925 243.238 380.097Z" fill="#333333"/>
</g>
<path d="M157.705 135.558C158.839 134.345 160.426 133.656 162.087 133.656L338.713 133.656C340.424 133.656 342.053 134.386 343.192 135.663L371.138 167.007C374.587 170.874 371.841 177 366.66 177H132.777C127.528 177 124.81 170.736 128.395 166.902L157.705 135.558Z" fill="#1F1F1F"/>
<rect x="158.168" y="48" width="182.664" height="102.168" rx="6" fill="url(#paint0_linear_3098_145)"/>
<path fill-rule="evenodd" clip-rule="evenodd" d="M239 246.5C239 261.136 227.136 273 212.5 273C197.864 273 186 261.136 186 246.5C186 231.864 197.864 220 212.5 220C223.395 220 232.754 226.575 236.827 235.973C237.406 235.685 237.995 235.417 238.594 235.169C242.051 233.737 245.757 233 249.5 233C253.243 233 256.949 233.737 260.406 235.169C261.005 235.417 261.594 235.685 262.173 235.973C266.246 226.575 275.605 220 286.5 220C301.136 220 313 231.864 313 246.5C313 261.136 301.136 273 286.5 273C271.864 273 260 261.136 260 246.5C260 244.921 260.138 243.375 260.403 241.872C259.656 241.457 258.885 241.084 258.092 240.756C255.368 239.628 252.449 239.047 249.5 239.047C246.551 239.047 243.632 239.628 240.908 240.756C240.115 241.084 239.344 241.457 238.597 241.872C238.862 243.375 239 244.921 239 246.5Z" fill="black"/>
<defs>
<filter id="filter0_d_3098_145" x="71" y="120" width="357.292" height="341.815" filterUnits="userSpaceOnUse" color-interpolation-filters="sRGB">
<feFlood flood-opacity="0" result="BackgroundImageFix"/>
<feColorMatrix in="SourceAlpha" type="matrix" values="0 0 0 0 0 0 0 0 0 0 0 0 0 0 0 0 0 0 127 0" result="hardAlpha"/>
<feOffset dy="4"/>
<feGaussianBlur stdDeviation="2"/>
<feComposite in2="hardAlpha" operator="out"/>
<feColorMatrix type="matrix" values="0 0 0 0 0 0 0 0 0 0 0 0 0 0 0 0 0 0 0.25 0"/>
<feBlend mode="normal" in2="BackgroundImageFix" result="effect1_dropShadow_3098_145"/>
<feBlend mode="normal" in="SourceGraphic" in2="effect1_dropShadow_3098_145" result="shape"/>
</filter>
<linearGradient id="paint0_linear_3098_145" x1="249.5" y1="94.354" x2="249.5" y2="150.168" gradientUnits="userSpaceOnUse">
<stop stop-color="#1F1F1F"/>
<stop offset="0.515625" stop-color="#1F1F1F"/>
<stop offset="0.515725" stop-color="white"/>
<stop offset="0.760317" stop-color="white"/>
<stop offset="0.760417" stop-color="#1F1F1F"/>
</linearGradient>
</defs>
</svg>
