<svg width="358" height="414" viewBox="0 0 358 414" fill="none" xmlns="http://www.w3.org/2000/svg">
<g filter="url(#filter0_d_0_1)">
<path fill-rule="evenodd" clip-rule="evenodd" d="M74.0693 86.5025L108.638 101.003L119.875 97.0145C156.752 83.9217 203.431 84.2082 237.075 97.7338L247.667 101.992L283.315 87.0506C302.92 78.831 320.792 72.0846 323.028 72.0538C328.45 71.9827 336.523 78.5349 337.933 84.1486C339.029 88.52 337.785 93.6144 326.573 130.656C316.522 163.862 316.607 162.154 324.353 176.039C342.643 208.823 352.918 247.7 353.276 285.471C353.532 312.253 350.71 325.276 340.993 342.204C322.501 374.417 280.928 396.872 228.572 402.93C206.283 405.509 150.84 405.507 128.508 402.926C88.8045 398.337 56.3089 384.729 33.3636 363.084C11.6877 342.637 3.91039 322.08 4.00078 285.471C4.09501 247.977 13.3493 210.675 30.7423 177.685L39.5235 161.031L35.3618 146.805C33.0713 138.982 29.0307 125.223 26.3825 116.233C17.0783 84.6486 17.0667 84.4486 24.3767 76.3271C26.7268 73.7174 30.5 72 33.8867 72C36.9734 72 55.0569 78.5253 74.0693 86.5025Z" fill="#FF7319"/>
<path d="M131.442 230.519L122.347 232.79L115.7 235.292C100.92 240.856 87.2168 248.874 75.157 258.982C69.1099 264.051 64.0323 270.141 59.3005 276.455C45.2231 295.24 37.733 316.48 37.6567 337.83C37.5836 358.676 43.8782 370.382 61.422 382.025C79.9931 394.35 106.294 402.099 138.429 404.712C156.503 406.181 201.377 406.183 219.417 404.714C261.793 401.264 295.44 388.478 310.407 370.135C318.272 360.496 320.555 353.08 320.348 337.83C320.059 316.322 311.742 294.185 296.939 275.517L292.583 271.069C276.314 254.455 256.62 241.584 234.872 233.353L226.299 230.928C199.069 223.226 161.288 223.063 131.442 230.519Z" fill="white"/>
<path d="M285.684 92.6451L256.256 105.33L266.397 111.184C276.559 117.052 305.258 143.942 310.551 152.553C313.23 156.915 313.834 155.502 322.726 124.014C336.964 73.6 334.569 71.573 285.684 92.6451Z" fill="#77500C"/>
<path d="M28.5345 84.2755C25.719 88.5718 26.1344 90.9027 35.2214 121.754C40.5505 139.845 44.9103 155.171 44.9103 155.807C44.9103 156.444 48.2316 152.777 52.2914 147.657C62.8361 134.362 84.0793 115.01 93.2816 110.315C97.603 108.109 100.388 105.669 99.4685 104.892C95.5125 101.547 40.8101 79.6926 36.3964 79.6926C33.3982 79.6926 30.3866 81.4484 28.5345 84.2755Z" fill="#77500C"/>
<path d="M159.951 198.657C159.951 207.154 153.063 214.042 144.566 214.042C136.069 214.042 129.181 207.154 129.181 198.657C129.181 190.16 136.069 183.272 144.566 183.272C153.063 183.272 159.951 190.16 159.951 198.657Z" fill="black"/>
<path d="M227.326 200.036C227.326 208.534 220.438 215.422 211.941 215.422C203.444 215.422 196.556 208.534 196.556 200.036C196.556 191.539 203.444 184.651 211.941 184.651C220.438 184.651 227.326 191.539 227.326 200.036Z" fill="black"/>
<path fill-rule="evenodd" clip-rule="evenodd" d="M184.129 259.654H172.59V273H172.384C171.097 281.288 163.93 287.631 155.281 287.632V299.17C160.987 299.17 166.564 297.479 171.308 294.309C174.034 292.488 176.414 290.226 178.36 287.631C180.28 290.192 182.622 292.428 185.302 294.236C189.933 297.361 195.372 299.074 200.958 299.167L201.15 287.629C191.723 287.476 184.129 279.786 184.129 270.323C184.129 270.108 184.133 269.895 184.141 269.682H184.129V259.654Z" fill="black"/>
<mask id="path-3-inside-1_0_1" fill="white">
<path fill-rule="evenodd" clip-rule="evenodd" d="M169.05 230.807C162.509 230.807 155.922 234.523 155.922 241.064C155.922 253.455 165.968 263.501 178.359 263.501C190.751 263.501 200.796 253.455 200.796 241.064C200.796 234.523 194.209 230.807 187.668 230.807H169.05Z"/>
</mask>
<path fill-rule="evenodd" clip-rule="evenodd" d="M169.05 230.807C162.509 230.807 155.922 234.523 155.922 241.064C155.922 253.455 165.968 263.501 178.359 263.501C190.751 263.501 200.796 253.455 200.796 241.064C200.796 234.523 194.209 230.807 187.668 230.807H169.05Z" fill="#77500C"/>
<path d="M178.359 252.374C172.113 252.374 167.049 247.31 167.049 241.064H144.795C144.795 259.601 159.822 274.628 178.359 274.628V252.374ZM189.669 241.064C189.669 247.31 184.605 252.374 178.359 252.374V274.628C196.896 274.628 211.923 259.601 211.923 241.064H189.669ZM187.668 219.68H169.05V241.934H187.668V219.68ZM211.923 241.064C211.923 233.557 207.974 227.845 203.119 224.404C198.49 221.124 192.869 219.68 187.668 219.68V241.934C188.268 241.934 188.851 242.022 189.349 242.168C189.854 242.316 190.144 242.485 190.251 242.561C190.349 242.631 190.184 242.54 189.987 242.194C189.765 241.802 189.669 241.37 189.669 241.064H211.923ZM167.049 241.064C167.049 241.37 166.954 241.802 166.731 242.194C166.534 242.54 166.369 242.631 166.467 242.561C166.574 242.485 166.864 242.316 167.369 242.168C167.867 242.022 168.45 241.934 169.05 241.934V219.68C163.849 219.68 158.228 221.124 153.599 224.404C148.744 227.845 144.795 233.557 144.795 241.064H167.049Z" fill="black" mask="url(#path-3-inside-1_0_1)"/>
</g>
<path fill-rule="evenodd" clip-rule="evenodd" d="M74.0693 86.5025L108.638 101.003L119.875 97.0145C156.752 83.9217 203.431 84.2082 237.075 97.7338L247.667 101.992L283.315 87.0506C302.92 78.831 320.792 72.0846 323.028 72.0538C328.45 71.9827 336.523 78.5349 337.933 84.1486C339.029 88.52 337.785 93.6144 326.573 130.656C316.522 163.862 316.607 162.154 324.353 176.039C342.643 208.823 352.918 247.7 353.276 285.471C353.532 312.253 350.71 325.276 340.993 342.204C322.501 374.417 280.928 396.872 228.572 402.93C206.283 405.509 150.84 405.507 128.508 402.926C88.8045 398.337 56.3089 384.729 33.3636 363.084C11.6877 342.637 3.91039 322.08 4.00078 285.471C4.09501 247.977 13.3493 210.675 30.7423 177.685L39.5235 161.031L35.3618 146.805C33.0713 138.982 29.0307 125.223 26.3825 116.233C17.0783 84.6486 17.0667 84.4486 24.3767 76.3271C26.7268 73.7174 30.5 72 33.8867 72C36.9734 72 55.0569 78.5253 74.0693 86.5025Z" fill="black" fill-opacity="0.54"/>
<mask id="mask0_0_1" style="mask-type:alpha" maskUnits="userSpaceOnUse" x="2" y="260" width="354" height="147">
<path d="M81.1324 287.549L5.97072 260.5C-22.5321 388 108.467 412.5 205.473 406C220.504 404.993 251.474 404.5 287.474 388C359.474 355 357.974 299.667 353.974 270.5L271.88 293.955C209.197 311.865 142.472 309.624 81.1324 287.549Z" fill="black"/>
</mask>
<g mask="url(#mask0_0_1)">
<rect x="-5.5332" y="252" width="360" height="186" fill="#1F1F1F"/>
<path fill-rule="evenodd" clip-rule="evenodd" d="M172.238 332.097L160.955 309.332C159.967 307.338 161.418 305 163.643 305L193.49 305C195.715 305 197.166 307.338 196.178 309.332L185.152 331.58C187.494 333.41 189 336.261 189 339.464V408C189 413.523 184.523 418 179 418C173.477 418 169 413.523 169 408V339.464C169 336.549 170.247 333.925 172.238 332.097Z" fill="#333333"/>
</g>
<path d="M86.7047 87.558C87.8392 86.3447 89.426 85.656 91.0871 85.656L267.713 85.656C269.424 85.656 271.053 86.3862 272.192 87.663L300.138 119.007C303.586 122.874 300.841 129 295.66 129H61.7772C56.5282 129 53.8097 122.736 57.3948 118.902L86.7047 87.558Z" fill="#1F1F1F"/>
<rect x="87.168" width="182.664" height="102.168" rx="6" fill="url(#paint0_linear_0_1)"/>
<path fill-rule="evenodd" clip-rule="evenodd" d="M168 198.5C168 213.136 156.136 225 141.5 225C126.864 225 115 213.136 115 198.5C115 183.864 126.864 172 141.5 172C152.395 172 161.754 178.575 165.827 187.973C166.406 187.685 166.995 187.417 167.594 187.169C171.051 185.737 174.757 185 178.5 185C182.243 185 185.949 185.737 189.406 187.169C190.005 187.417 190.594 187.685 191.173 187.973C195.246 178.575 204.605 172 215.5 172C230.136 172 242 183.864 242 198.5C242 213.136 230.136 225 215.5 225C200.864 225 189 213.136 189 198.5C189 196.921 189.138 195.375 189.403 193.872C188.656 193.457 187.885 193.084 187.092 192.756C184.368 191.628 181.449 191.047 178.5 191.047C175.551 191.047 172.632 191.628 169.908 192.756C169.115 193.084 168.344 193.457 167.597 193.872C167.862 195.375 168 196.921 168 198.5Z" fill="black"/>
<defs>
<filter id="filter0_d_0_1" x="0" y="72" width="357.292" height="341.815" filterUnits="userSpaceOnUse" color-interpolation-filters="sRGB">
<feFlood flood-opacity="0" result="BackgroundImageFix"/>
<feColorMatrix in="SourceAlpha" type="matrix" values="0 0 0 0 0 0 0 0 0 0 0 0 0 0 0 0 0 0 127 0" result="hardAlpha"/>
<feOffset dy="4"/>
<feGaussianBlur stdDeviation="2"/>
<feComposite in2="hardAlpha" operator="out"/>
<feColorMatrix type="matrix" values="0 0 0 0 0 0 0 0 0 0 0 0 0 0 0 0 0 0 0.25 0"/>
<feBlend mode="normal" in2="BackgroundImageFix" result="effect1_dropShadow_0_1"/>
<feBlend mode="normal" in="SourceGraphic" in2="effect1_dropShadow_0_1" result="shape"/>
</filter>
<linearGradient id="paint0_linear_0_1" x1="178.5" y1="46.354" x2="178.5" y2="102.168" gradientUnits="userSpaceOnUse">
<stop stop-color="#1F1F1F"/>
<stop offset="0.515625" stop-color="#1F1F1F"/>
<stop offset="0.515725" stop-color="white"/>
<stop offset="0.760317" stop-color="white"/>
<stop offset="0.760417" stop-color="#1F1F1F"/>
</linearGradient>
</defs>
</svg>
