<svg width="354" height="335" viewBox="0 0 354 335" fill="none" xmlns="http://www.w3.org/2000/svg">
<path fill-rule="evenodd" clip-rule="evenodd" d="M72.536 14.5025L107.105 29.0032L118.342 25.0145C155.219 11.9217 201.898 12.2082 235.541 25.7338L246.134 29.9917L281.782 15.0506C301.387 6.83105 319.258 0.0846189 321.495 0.0538483C326.917 -0.0173087 334.99 6.53491 336.4 12.1486C337.496 16.52 336.251 21.6144 325.039 58.6564C314.989 91.8617 315.074 90.154 322.82 104.039C341.109 136.823 351.385 175.7 351.743 213.471C351.998 240.253 349.177 253.276 339.459 270.204C320.968 302.417 279.395 324.872 227.039 330.93C204.75 333.509 149.307 333.507 126.975 330.926C87.2713 326.337 54.7756 312.729 31.8304 291.084C10.1544 270.637 2.37719 250.08 2.46757 213.471C2.56181 175.977 11.8161 138.675 29.2091 105.685L37.9903 89.0308L33.8286 74.8052C31.5381 66.9818 27.4975 53.2235 24.8493 44.2327C15.5451 12.6486 15.5335 12.4486 22.8435 4.32711C25.1936 1.71738 28.9668 0 32.3535 0C35.4402 0 53.5237 6.52528 72.536 14.5025Z" fill="#FF7319"/>
<path d="M129.908 158.519L120.813 160.79L114.167 163.292C99.3866 168.856 85.6836 176.874 73.6238 186.982C67.5767 192.051 62.4991 198.141 57.7673 204.455C43.6899 223.24 36.1998 244.48 36.1235 265.83C36.0504 286.676 42.345 298.382 59.8888 310.025C78.4599 322.35 104.761 330.099 136.896 332.712C154.97 334.181 199.844 334.183 217.884 332.714C260.259 329.264 293.907 316.478 308.873 298.135C316.739 288.496 319.022 281.08 318.815 265.83C318.525 244.322 310.209 222.185 295.406 203.517L291.05 199.069C274.78 182.455 255.087 169.584 233.339 161.353L224.766 158.928C197.535 151.227 159.755 151.063 129.908 158.519Z" fill="white"/>
<path d="M284.151 20.6451L254.723 33.3302L264.864 39.1843C275.026 45.0519 303.725 71.9416 309.018 80.5535C311.697 84.9152 312.3 83.5017 321.193 52.0138C335.43 1.59999 333.036 -0.427017 284.151 20.6451Z" fill="#77500C"/>
<path d="M27.0013 12.2755C24.1858 16.5718 24.6012 18.9027 33.6882 49.754C39.0173 67.8452 43.3771 83.1709 43.3771 83.8075C43.3771 84.444 46.6984 80.7766 50.7582 75.6571C61.3029 62.3623 82.5461 43.0095 91.7484 38.3151C96.0698 36.1092 98.8545 33.6687 97.9353 32.8918C93.9793 29.5474 39.2769 7.69257 34.8632 7.69257C31.865 7.69257 28.8533 9.44842 27.0013 12.2755Z" fill="#77500C"/>
<path d="M158.418 126.657C158.418 135.154 151.53 142.042 143.033 142.042C134.536 142.042 127.647 135.154 127.647 126.657C127.647 118.16 134.536 111.272 143.033 111.272C151.53 111.272 158.418 118.16 158.418 126.657Z" fill="black"/>
<path d="M225.793 128.036C225.793 136.533 218.905 143.422 210.408 143.422C201.911 143.422 195.023 136.533 195.023 128.036C195.023 119.539 201.911 112.651 210.408 112.651C218.905 112.651 225.793 119.539 225.793 128.036Z" fill="black"/>
<path fill-rule="evenodd" clip-rule="evenodd" d="M182.596 187.654H171.057V197.682H171.045C171.053 197.895 171.057 198.108 171.057 198.323C171.057 207.882 163.307 215.632 153.748 215.632C144.189 215.632 136.44 207.882 136.44 198.323C136.44 198.108 136.444 197.895 136.451 197.682H124.908C124.903 197.895 124.901 198.109 124.901 198.323C124.901 214.255 137.816 227.171 153.748 227.171C163.185 227.171 171.563 222.639 176.826 215.634C182.089 222.639 190.468 227.171 199.904 227.171C215.836 227.171 228.752 214.255 228.752 198.323C228.752 198.109 228.749 197.895 228.745 197.682H217.201C217.209 197.895 217.213 198.108 217.213 198.323C217.213 207.882 209.464 215.632 199.904 215.632C190.345 215.632 182.596 207.882 182.596 198.323C182.596 198.108 182.6 197.895 182.608 197.682H182.596V187.654Z" fill="black"/>
<mask id="path-3-inside-1_0_1" fill="white">
<path fill-rule="evenodd" clip-rule="evenodd" d="M167.517 158.807C160.976 158.807 154.389 162.523 154.389 169.064C154.389 181.455 164.434 191.501 176.826 191.501C189.217 191.501 199.263 181.455 199.263 169.064C199.263 162.523 192.676 158.807 186.135 158.807H167.517Z"/>
</mask>
<path fill-rule="evenodd" clip-rule="evenodd" d="M167.517 158.807C160.976 158.807 154.389 162.523 154.389 169.064C154.389 181.455 164.434 191.501 176.826 191.501C189.217 191.501 199.263 181.455 199.263 169.064C199.263 162.523 192.676 158.807 186.135 158.807H167.517Z" fill="#77500C"/>
<path d="M176.826 180.374C170.58 180.374 165.516 175.31 165.516 169.064H143.262C143.262 187.601 158.289 202.628 176.826 202.628V180.374ZM188.136 169.064C188.136 175.31 183.072 180.374 176.826 180.374V202.628C195.363 202.628 210.39 187.601 210.39 169.064H188.136ZM186.135 147.68H167.517V169.934H186.135V147.68ZM210.39 169.064C210.39 161.557 206.441 155.845 201.586 152.404C196.957 149.124 191.336 147.68 186.135 147.68V169.934C186.735 169.934 187.318 170.022 187.816 170.168C188.321 170.316 188.611 170.485 188.718 170.561C188.816 170.631 188.651 170.54 188.454 170.194C188.231 169.802 188.136 169.37 188.136 169.064H210.39ZM165.516 169.064C165.516 169.37 165.42 169.802 165.198 170.194C165.001 170.54 164.836 170.631 164.934 170.561C165.041 170.485 165.331 170.316 165.836 170.168C166.334 170.022 166.917 169.934 167.517 169.934V147.68C162.316 147.68 156.695 149.124 152.066 152.404C147.211 155.845 143.262 161.557 143.262 169.064H165.516Z" fill="black" mask="url(#path-3-inside-1_0_1)"/>
<mask id="mask0_0_1" style="mask-type:alpha" maskUnits="userSpaceOnUse" x="0" y="188" width="354" height="147">
<path d="M79.1324 215.549L3.97072 188.5C-24.5321 316 106.467 340.5 203.473 334C218.504 332.993 249.474 332.5 285.474 316C357.474 283 355.974 227.667 351.974 198.5L269.88 221.955C207.197 239.865 140.472 237.624 79.1324 215.549Z" fill="black"/>
</mask>
<g mask="url(#mask0_0_1)">
<rect x="-7.5332" y="180" width="360" height="186" fill="#3A3838"/>
<path d="M126.707 217.581L109.653 215.336L116.834 230.966L167.834 341.966L176.225 360.228L185.011 342.153L237.511 234.153L244.773 219.214L228.214 220.53L178.874 224.45L126.707 217.581Z" fill="#EFEFEF" stroke="#1E1E1E" stroke-width="19"/>
</g>
<path fill-rule="evenodd" clip-rule="evenodd" d="M177.518 246.83L159.967 256.963C157.967 258.118 155.467 256.674 155.467 254.365V234.004C155.467 231.695 157.967 230.252 159.967 231.406L177.518 241.539L195.068 231.406C197.068 230.252 199.568 231.695 199.568 234.004V254.365C199.568 256.674 197.068 258.118 195.068 256.963L177.518 246.83Z" fill="black"/>
<path d="M180.467 262.5C180.467 264.433 178.9 266 176.967 266C175.034 266 173.467 264.433 173.467 262.5C173.467 260.567 175.034 259 176.967 259C178.9 259 180.467 260.567 180.467 262.5Z" fill="black"/>
<path d="M180.467 262.5C180.467 264.433 178.9 266 176.967 266C175.034 266 173.467 264.433 173.467 262.5C173.467 260.567 175.034 259 176.967 259C178.9 259 180.467 260.567 180.467 262.5Z" fill="black"/>
<path d="M180.467 282.5C180.467 284.433 178.9 286 176.967 286C175.034 286 173.467 284.433 173.467 282.5C173.467 280.567 175.034 279 176.967 279C178.9 279 180.467 280.567 180.467 282.5Z" fill="black"/>
<path d="M180.467 282.5C180.467 284.433 178.9 286 176.967 286C175.034 286 173.467 284.433 173.467 282.5C173.467 280.567 175.034 279 176.967 279C178.9 279 180.467 280.567 180.467 282.5Z" fill="black"/>
<path d="M180.467 302.5C180.467 304.433 178.9 306 176.967 306C175.034 306 173.467 304.433 173.467 302.5C173.467 300.567 175.034 299 176.967 299C178.9 299 180.467 300.567 180.467 302.5Z" fill="black"/>
<path d="M180.467 302.5C180.467 304.433 178.9 306 176.967 306C175.034 306 173.467 304.433 173.467 302.5C173.467 300.567 175.034 299 176.967 299C178.9 299 180.467 300.567 180.467 302.5Z" fill="black"/>
</svg>
