<svg width="354" height="407" viewBox="0 0 354 407" fill="none" xmlns="http://www.w3.org/2000/svg">
<path fill-rule="evenodd" clip-rule="evenodd" d="M72.536 86.5025L107.105 101.003L118.342 97.0145C155.219 83.9217 201.898 84.2082 235.541 97.7338L246.134 101.992L281.782 87.0506C301.387 78.831 319.258 72.0846 321.495 72.0538C326.917 71.9827 334.99 78.5349 336.4 84.1486C337.496 88.52 336.251 93.6144 325.039 130.656C314.989 163.862 315.074 162.154 322.82 176.039C341.109 208.823 351.385 247.7 351.743 285.471C351.998 312.253 349.177 325.276 339.459 342.204C320.968 374.417 279.395 396.872 227.039 402.93C204.75 405.509 149.307 405.507 126.975 402.926C87.2713 398.337 54.7756 384.729 31.8304 363.084C10.1544 342.637 2.37719 322.08 2.46757 285.471C2.56181 247.977 11.8161 210.675 29.2091 177.685L37.9903 161.031L33.8286 146.805C31.5381 138.982 27.4975 125.223 24.8493 116.233C15.5451 84.6486 15.5335 84.4486 22.8435 76.3271C25.1936 73.7174 28.9668 72 32.3535 72C35.4402 72 53.5237 78.5253 72.536 86.5025Z" fill="#FF7319"/>
<path d="M129.908 230.519L120.813 232.79L114.167 235.292C99.3866 240.856 85.6836 248.874 73.6238 258.982C67.5767 264.051 62.4991 270.141 57.7673 276.455C43.6899 295.24 36.1998 316.48 36.1235 337.83C36.0504 358.676 42.345 370.382 59.8888 382.025C78.4599 394.35 104.761 402.099 136.896 404.712C154.97 406.181 199.844 406.183 217.884 404.714C260.259 401.264 293.907 388.478 308.873 370.135C316.739 360.496 319.022 353.08 318.815 337.83C318.525 316.322 310.209 294.185 295.406 275.517L291.05 271.069C274.78 254.455 255.087 241.584 233.339 233.353L224.766 230.928C197.535 223.227 159.755 223.063 129.908 230.519Z" fill="white"/>
<path d="M284.151 92.6451L254.723 105.33L264.864 111.184C275.026 117.052 303.725 143.942 309.018 152.553C311.697 156.915 312.3 155.502 321.193 124.014C335.43 73.6 333.036 71.573 284.151 92.6451Z" fill="#77500C"/>
<path d="M27.0013 84.2755C24.1858 88.5718 24.6012 90.9027 33.6882 121.754C39.0173 139.845 43.3771 155.171 43.3771 155.807C43.3771 156.444 46.6984 152.777 50.7582 147.657C61.3029 134.362 82.5461 115.01 91.7484 110.315C96.0698 108.109 98.8545 105.669 97.9353 104.892C93.9793 101.547 39.2769 79.6926 34.8632 79.6926C31.865 79.6926 28.8533 81.4484 27.0013 84.2755Z" fill="#77500C"/>
<path d="M158.418 198.657C158.418 207.154 151.53 214.042 143.033 214.042C134.536 214.042 127.647 207.154 127.647 198.657C127.647 190.16 134.536 183.272 143.033 183.272C151.53 183.272 158.418 190.16 158.418 198.657Z" fill="black"/>
<path d="M225.793 200.036C225.793 208.533 218.905 215.422 210.408 215.422C201.911 215.422 195.023 208.533 195.023 200.036C195.023 191.539 201.911 184.651 210.408 184.651C218.905 184.651 225.793 191.539 225.793 200.036Z" fill="black"/>
<path fill-rule="evenodd" clip-rule="evenodd" d="M182.596 259.654H171.057V269.682H171.045C171.053 269.895 171.057 270.108 171.057 270.323C171.057 279.882 163.307 287.632 153.748 287.632C144.189 287.632 136.44 279.882 136.44 270.323C136.44 270.108 136.444 269.895 136.451 269.682H124.908C124.903 269.895 124.901 270.109 124.901 270.323C124.901 286.255 137.816 299.171 153.748 299.171C163.185 299.171 171.563 294.639 176.826 287.634C182.089 294.639 190.468 299.171 199.904 299.171C215.836 299.171 228.752 286.255 228.752 270.323C228.752 270.109 228.75 269.895 228.745 269.682H217.201C217.209 269.895 217.213 270.108 217.213 270.323C217.213 279.882 209.464 287.632 199.905 287.632C190.345 287.632 182.596 279.882 182.596 270.323C182.596 270.108 182.6 269.895 182.608 269.682H182.596V259.654Z" fill="black"/>
<mask id="path-3-inside-1_1278_6223" fill="white">
<path fill-rule="evenodd" clip-rule="evenodd" d="M167.517 230.807C160.976 230.807 154.389 234.523 154.389 241.064C154.389 253.455 164.434 263.501 176.826 263.501C189.218 263.501 199.263 253.455 199.263 241.064C199.263 234.523 192.676 230.807 186.135 230.807H167.517Z"/>
</mask>
<path fill-rule="evenodd" clip-rule="evenodd" d="M167.517 230.807C160.976 230.807 154.389 234.523 154.389 241.064C154.389 253.455 164.434 263.501 176.826 263.501C189.218 263.501 199.263 253.455 199.263 241.064C199.263 234.523 192.676 230.807 186.135 230.807H167.517Z" fill="#77500C"/>
<path d="M176.826 252.374C170.58 252.374 165.516 247.31 165.516 241.064H143.262C143.262 259.601 158.289 274.628 176.826 274.628V252.374ZM188.136 241.064C188.136 247.31 183.072 252.374 176.826 252.374V274.628C195.363 274.628 210.39 259.601 210.39 241.064H188.136ZM186.135 219.68H167.517V241.934H186.135V219.68ZM210.39 241.064C210.39 233.557 206.441 227.845 201.586 224.404C196.957 221.124 191.336 219.68 186.135 219.68V241.934C186.735 241.934 187.318 242.022 187.816 242.168C188.321 242.316 188.611 242.485 188.718 242.561C188.816 242.631 188.651 242.54 188.454 242.194C188.232 241.802 188.136 241.37 188.136 241.064H210.39ZM165.516 241.064C165.516 241.37 165.421 241.802 165.198 242.194C165.001 242.54 164.836 242.631 164.934 242.561C165.041 242.485 165.331 242.316 165.836 242.168C166.334 242.022 166.917 241.934 167.517 241.934V219.68C162.316 219.68 156.695 221.124 152.066 224.404C147.211 227.845 143.262 233.557 143.262 241.064H165.516Z" fill="black" mask="url(#path-3-inside-1_1278_6223)"/>
<mask id="mask0_1278_6223" style="mask-type:alpha" maskUnits="userSpaceOnUse" x="0" y="260" width="354" height="147">
<path d="M79.1324 287.549L3.97072 260.5C-24.5321 388 106.467 412.5 203.473 406C218.504 404.993 249.474 404.5 285.474 388C357.474 355 355.974 299.667 351.974 270.5L269.88 293.955C207.197 311.865 140.472 309.624 79.1324 287.549Z" fill="black"/>
</mask>
<g mask="url(#mask0_1278_6223)">
<rect x="-7.5332" y="252" width="360" height="186" fill="#ECECEC"/>
<path d="M131 295L89.7816 329.909C84.8461 334.09 82 340.23 82 346.697L82 406" stroke="#8D8D8D" stroke-width="5"/>
<circle cx="119.5" cy="339.5" r="5.5" fill="#8D8D8D"/>
<circle cx="119.5" cy="363.5" r="5.5" fill="#8D8D8D"/>
<circle cx="119.5" cy="390.5" r="5.5" fill="#8D8D8D"/>
<circle cx="203.5" cy="339.5" r="5.5" fill="#8D8D8D"/>
<circle cx="203.5" cy="363.5" r="5.5" fill="#8D8D8D"/>
<circle cx="203.5" cy="390.5" r="5.5" fill="#8D8D8D"/>
</g>
<path fill-rule="evenodd" clip-rule="evenodd" d="M107.5 0C97.2827 0 89 8.28273 89 18.5C89 27.8694 95.9651 35.612 105 36.8325V102C105 105.866 108.134 109 112 109H243C246.866 109 250 105.866 250 102V36.6694C258.544 35.0334 265 27.5207 265 18.5C265 8.28273 256.717 0 246.5 0H243H112H107.5Z" fill="white"/>
<rect x="134" y="18" width="6" height="78" rx="3" fill="#DFDFDF"/>
<rect x="174" y="18" width="6" height="78" rx="3" fill="#DFDFDF"/>
<rect x="214" y="18" width="6" height="78" rx="3" fill="#DFDFDF"/>
</svg>
