<svg width="500" height="500" viewBox="0 0 500 500" fill="none" xmlns="http://www.w3.org/2000/svg">
<path fill-rule="evenodd" clip-rule="evenodd" d="M145.536 133.503L180.105 148.003L191.342 144.015C228.219 130.922 274.898 131.208 308.541 144.734L319.134 148.992L354.782 134.051C374.387 125.831 392.258 119.085 394.495 119.054C399.917 118.983 407.99 125.535 409.4 131.149C410.496 135.52 409.252 140.614 398.039 177.656C387.989 210.862 388.074 209.154 395.82 223.039C414.109 255.823 424.385 294.7 424.743 332.471C424.998 359.253 422.177 372.276 412.459 389.204C393.968 421.417 352.395 443.872 300.039 449.93C277.75 452.509 222.307 452.507 199.975 449.926C160.271 445.337 127.776 431.729 104.83 410.084C83.1544 389.637 75.3772 369.08 75.4676 332.471C75.5618 294.977 84.8161 257.675 102.209 224.685L110.99 208.031L106.829 193.805C104.538 185.982 100.498 172.223 97.8493 163.233C88.5451 131.649 88.5335 131.449 95.8435 123.327C98.1936 120.717 101.967 119 105.354 119C108.44 119 126.524 125.525 145.536 133.503Z" fill="#FF7319"/>
<path d="M202.908 277.519L193.813 279.79L187.167 282.292C172.387 287.856 158.684 295.874 146.624 305.982C140.577 311.051 135.499 317.141 130.767 323.455V323.455C116.69 342.24 109.2 363.48 109.124 384.83C109.05 405.676 115.345 417.382 132.889 429.025C151.46 441.35 177.761 449.099 209.896 451.712C227.97 453.181 272.844 453.183 290.884 451.714C333.259 448.264 366.907 435.478 381.873 417.135C389.739 407.496 392.022 400.08 391.815 384.83C391.525 363.322 383.209 341.185 368.406 322.517L364.05 318.069C347.78 301.455 328.087 288.584 306.339 280.353L297.766 277.928C270.535 270.226 232.755 270.063 202.908 277.519Z" fill="white"/>
<path d="M357.151 139.645L327.723 152.33L337.864 158.184C348.026 164.052 376.725 190.942 382.018 199.553C384.697 203.915 385.3 202.502 394.193 171.014C408.43 120.6 406.036 118.573 357.151 139.645Z" fill="#77500C"/>
<path d="M100.001 131.275C97.1858 135.572 97.6012 137.903 106.688 168.754C112.017 186.845 116.377 202.171 116.377 202.807C116.377 203.444 119.698 199.777 123.758 194.657C134.303 181.362 155.546 162.01 164.748 157.315C169.07 155.109 171.855 152.669 170.935 151.892C166.979 148.547 112.277 126.693 107.863 126.693C104.865 126.693 101.853 128.448 100.001 131.275Z" fill="#77500C"/>
<path d="M231.418 245.657C231.418 254.154 224.53 261.042 216.033 261.042C207.536 261.042 200.647 254.154 200.647 245.657C200.647 237.16 207.536 230.272 216.033 230.272C224.53 230.272 231.418 237.16 231.418 245.657Z" fill="black"/>
<path d="M298.793 247.036C298.793 255.533 291.905 262.422 283.408 262.422C274.911 262.422 268.023 255.533 268.023 247.036C268.023 238.539 274.911 231.651 283.408 231.651C291.905 231.651 298.793 238.539 298.793 247.036Z" fill="black"/>
<path fill-rule="evenodd" clip-rule="evenodd" d="M255.596 306.654H244.057V316.682H244.045C244.053 316.895 244.057 317.108 244.057 317.323C244.057 326.882 236.307 334.632 226.748 334.632C217.189 334.632 209.44 326.882 209.44 317.323C209.44 317.108 209.444 316.895 209.451 316.682H197.908C197.903 316.895 197.901 317.109 197.901 317.323C197.901 333.255 210.816 346.171 226.748 346.171C236.185 346.171 244.563 341.639 249.826 334.634C255.089 341.639 263.468 346.171 272.904 346.171C288.836 346.171 301.752 333.255 301.752 317.323C301.752 317.109 301.75 316.895 301.745 316.682H290.201C290.209 316.895 290.213 317.108 290.213 317.323C290.213 326.882 282.464 334.632 272.905 334.632C263.345 334.632 255.596 326.882 255.596 317.323C255.596 317.108 255.6 316.895 255.608 316.682H255.596V306.654Z" fill="black"/>
<mask id="path-3-inside-1_3099_151" fill="white">
<path fill-rule="evenodd" clip-rule="evenodd" d="M240.517 277.807C233.976 277.807 227.389 281.523 227.389 288.064V288.064C227.389 300.455 237.434 310.501 249.826 310.501C262.218 310.501 272.263 300.455 272.263 288.064V288.064C272.263 281.523 265.676 277.807 259.135 277.807H240.517Z"/>
</mask>
<path fill-rule="evenodd" clip-rule="evenodd" d="M240.517 277.807C233.976 277.807 227.389 281.523 227.389 288.064V288.064C227.389 300.455 237.434 310.501 249.826 310.501C262.218 310.501 272.263 300.455 272.263 288.064V288.064C272.263 281.523 265.676 277.807 259.135 277.807H240.517Z" fill="#77500C"/>
<path d="M249.826 299.374C243.58 299.374 238.516 294.31 238.516 288.064H216.262C216.262 306.601 231.289 321.628 249.826 321.628V299.374ZM261.136 288.064C261.136 294.31 256.072 299.374 249.826 299.374V321.628C268.363 321.628 283.39 306.601 283.39 288.064H261.136ZM259.135 266.68H240.517V288.934H259.135V266.68ZM283.39 288.064C283.39 280.557 279.441 274.845 274.586 271.404C269.957 268.124 264.336 266.68 259.135 266.68V288.934C259.735 288.934 260.318 289.022 260.816 289.168C261.321 289.316 261.611 289.485 261.718 289.561C261.816 289.631 261.651 289.54 261.454 289.194C261.232 288.802 261.136 288.37 261.136 288.064H283.39ZM238.516 288.064C238.516 288.37 238.421 288.802 238.198 289.194C238.001 289.54 237.836 289.631 237.934 289.561C238.041 289.485 238.331 289.316 238.836 289.168C239.334 289.022 239.917 288.934 240.517 288.934V266.68C235.316 266.68 229.695 268.124 225.066 271.404C220.211 274.845 216.262 280.557 216.262 288.064H238.516Z" fill="black" mask="url(#path-3-inside-1_3099_151)"/>
<mask id="mask0_3099_151" style="mask-type:alpha" maskUnits="userSpaceOnUse" x="73" y="309" width="354" height="147">
<path d="M152.132 336.049L76.9707 309C48.4679 436.5 179.467 461 276.473 454.5C291.504 453.493 322.474 453 358.474 436.5C430.474 403.5 428.974 348.167 424.974 319L342.88 342.455C280.197 360.365 213.472 358.124 152.132 336.049Z" fill="black"/>
</mask>
<g mask="url(#mask0_3099_151)">
<rect x="65.4668" y="300.5" width="360" height="186" fill="#ACFFF0"/>
<path d="M198.259 342.507L183.623 341.746L194.743 351.294L245.989 395.294L249.156 398.013L252.397 395.382L305.151 352.572L316.666 343.227L301.843 343.692L251.469 345.271L198.259 342.507Z" fill="#EFEFEF" stroke="#8CDBCD" stroke-width="10"/>
</g>
<circle cx="189.5" cy="402.5" r="15.5" fill="white"/>
<path fill-rule="evenodd" clip-rule="evenodd" d="M177.073 342.401C175.371 349.293 173.51 360.269 173.45 370.898C173.42 376.214 173.84 381.533 175.001 386.249C176.04 390.472 177.715 394.381 180.35 397.346C179.49 398.869 179 400.627 179 402.5C179 408.299 183.701 413 189.5 413C195.299 413 200 408.299 200 402.5C200 396.701 195.299 392 189.5 392C187.397 392 185.438 392.618 183.795 393.684C182.044 391.568 180.739 388.643 179.856 385.054C178.827 380.873 178.422 375.998 178.45 370.926C178.507 360.781 180.296 350.207 181.927 343.599L177.073 342.401Z" fill="#D4D4D4"/>
<path d="M332.449 344C335.782 357.5 339.749 387.1 328.949 397.5" stroke="#D4D4D4" stroke-width="5"/>
<path d="M314.343 406.477C314.74 404.749 315.473 403.116 316.501 401.672C317.529 400.228 318.832 399 320.334 398.059C321.837 397.118 323.51 396.482 325.258 396.187C327.006 395.893 328.795 395.946 330.523 396.343C332.251 396.74 333.884 397.473 335.328 398.501C336.772 399.529 338 400.832 338.941 402.334C339.882 403.837 340.518 405.51 340.812 407.258C341.107 409.006 341.054 410.795 340.657 412.523L337.452 411.787C337.752 410.48 337.792 409.127 337.57 407.804C337.347 406.482 336.866 405.216 336.154 404.08C335.442 402.943 334.514 401.958 333.421 401.18C332.329 400.403 331.094 399.848 329.787 399.548C328.48 399.247 327.126 399.208 325.804 399.43C324.482 399.653 323.216 400.134 322.08 400.846C320.943 401.558 319.958 402.486 319.18 403.579C318.403 404.671 317.848 405.906 317.548 407.213L314.343 406.477Z" fill="#696969"/>
<path d="M314.343 406.477C314.74 404.749 315.474 403.116 316.502 401.672C317.53 400.228 318.832 399 320.335 398.059C321.837 397.118 323.51 396.482 325.258 396.187C327.007 395.893 328.796 395.946 330.524 396.343C332.251 396.74 333.884 397.473 335.328 398.501C336.773 399.529 338.001 400.832 338.942 402.334C339.883 403.837 340.518 405.51 340.813 407.258C341.107 409.006 341.055 410.795 340.658 412.523L337.453 411.787C337.753 410.48 337.793 409.127 337.57 407.804C337.347 406.482 336.866 405.216 336.155 404.08C335.443 402.943 334.514 401.958 333.422 401.18C332.329 400.403 331.094 399.848 329.787 399.548C328.48 399.247 327.127 399.208 325.805 399.43C324.482 399.653 323.217 400.134 322.08 400.846C320.944 401.558 319.958 402.486 319.181 403.579C318.403 404.671 317.848 405.906 317.548 407.213L314.343 406.477Z" fill="#696969"/>
<path d="M311.707 420.308C310.849 420.01 309.902 420.462 309.71 421.35C309.385 422.851 309.318 424.4 309.515 425.93C309.713 427.461 310.17 428.943 310.865 430.312C311.276 431.122 312.307 431.319 313.061 430.813V430.813C313.815 430.307 314.002 429.289 313.623 428.463C313.195 427.53 312.909 426.535 312.777 425.51C312.645 424.485 312.669 423.45 312.847 422.438C313.004 421.544 312.565 420.607 311.707 420.308V420.308Z" fill="#696969"/>
<path d="M334.794 425.582C335.698 425.664 336.375 426.467 336.184 427.355C335.861 428.856 335.283 430.295 334.472 431.608C333.661 432.921 332.633 434.082 331.436 435.043C330.727 435.611 329.706 435.365 329.228 434.593V434.593C328.75 433.821 328.999 432.817 329.685 432.221C330.46 431.548 331.131 430.759 331.674 429.88C332.217 429.001 332.622 428.047 332.877 427.053C333.103 426.173 333.89 425.5 334.794 425.582V425.582Z" fill="#696969"/>
<circle cx="313" cy="431" r="1" fill="#696969"/>
<circle cx="329" cy="435" r="1" fill="#696969"/>
</svg>
