<svg version="1.1" xmlns="http://www.w3.org/2000/svg" xmlns:xlink="http://www.w3.org/1999/xlink" width="100.35101" height="100.04222" viewBox="0,0,100.35101,100.04222"><g transform="translate(-269.90888,-129.97889)"><g data-paper-data="{&quot;isPaintingLayer&quot;:true}" fill-rule="nonzero" stroke-linejoin="miter" stroke-miterlimit="10" stroke-dasharray="" stroke-dashoffset="0" style="mix-blend-mode: normal"><path d="M292.5063,200.4667v0v0v0v0v0v0v0v0v0v0v0v0v0v0v0v0v0v0v0c-0.03264,-0.05543 -0.97239,-1.62913 -0.97239,-1.63093c-2.60645,-4.19355 -3.18404,-13.67642 -2.95783,-16.63605l0.02011,-0.14173c0.74079,-12.54488 3.72189,-17.38623 10.00058,-22.78374c5.4668,-4.69874 20.52335,-3.94542 20.91723,-4.07462l1.15433,-0.18241c1.63896,-1.31976 2.35921,-7.09013 4.43453,-4.10726l6.34172,8.40319c2.1531,0.84497 3.21668,-3.72992 5.47307,-4.35672c2.10884,-0.60578 6.32653,-0.20611 6.40835,1.70379l0.30402,4.95892c1.29875,3.70669 3.11475,6.50268 5.37516,10.5013c0.73052,1.31261 1.68323,2.49421 2.25592,3.93737c2.08246,5.24373 2.3838,14.58978 0.04829,19.21923c-0.40281,0.81904 -0.84274,1.61394 -1.29831,2.39587c-0.11848,0.20074 -0.23829,0.40057 -0.35855,0.59684c-0.41667,0.6876 -0.85257,1.36267 -1.31082,2.0154c-0.06259,0.08717 -0.11759,0.17928 -0.18017,0.26646c-0.51906,0.72695 -1.0676,1.42794 -1.63718,2.10884c-0.13547,0.16453 -0.27897,0.32278 -0.41801,0.48641c-0.4882,0.56198 -0.9943,1.10831 -1.51379,1.63406c-0.11981,0.12384 -0.23605,0.24858 -0.35721,0.3666c-0.625,0.61204 -1.27595,1.19546 -1.94655,1.75297c-0.14977,0.12206 -0.30267,0.23964 -0.45335,0.35946c-0.56332,0.44975 -1.14495,0.87985 -1.74045,1.28982c-0.17168,0.11713 -0.33933,0.24008 -0.51279,0.35407c-0.72695,0.47926 -1.47088,0.92858 -2.24073,1.34435c-0.13681,0.07467 -0.28299,0.14128 -0.42203,0.21371c-0.65719,0.34291 -1.32914,0.65808 -2.0163,0.95002c-2.90642,1.23437 -6.06232,2.03866 -9.45068,2.28321c-3.87166,0.27941 -7.37716,0.16184 -10.54377,-0.25215c-0.78326,-0.10194 -1.54508,-0.22444 -2.28677,-0.36168c-0.14083,-0.02862 -0.28122,-0.05633 -0.4207,-0.08361c-0.75198,-0.14844 -1.49009,-0.30759 -2.19825,-0.48955c-0.00447,-0.00179 -0.00984,-0.00312 -0.01475,-0.00447c-0.70951,-0.17883 -1.39173,-0.3809 -2.05788,-0.5955c-0.11669,-0.03799 -0.23649,-0.07512 -0.3523,-0.11267c-0.64067,-0.20878 -1.26432,-0.43321 -1.86564,-0.67196c-0.1055,-0.03934 -0.20789,-0.08584 -0.31295,-0.12697c-0.59326,-0.23919 -1.17222,-0.48865 -1.72749,-0.75288c-0.02145,-0.01252 -0.04515,-0.02011 -0.06572,-0.03129c-0.56867,-0.27361 -1.11143,-0.55795 -1.63943,-0.84943c-0.09834,-0.05499 -0.19627,-0.10864 -0.29194,-0.16318c-0.50787,-0.28925 -1.00011,-0.58432 -1.46908,-0.88833c-0.07153,-0.0465 -0.13948,-0.09389 -0.21058,-0.13949c-0.44529,-0.29463 -0.87626,-0.59506 -1.28802,-0.90175c-0.04246,-0.02862 -0.08942,-0.05946 -0.13009,-0.09165c-0.4292,-0.32323 -0.83513,-0.65361 -1.22632,-0.98668c-0.07601,-0.06348 -0.15067,-0.12831 -0.22354,-0.19225c-0.38135,-0.33262 -0.74841,-0.66569 -1.09354,-1.00726c-0.03935,-0.03711 -0.0751,-0.0769 -0.114,-0.11445c-0.32502,-0.32457 -0.63349,-0.65139 -0.92499,-0.97775c-0.04069,-0.04783 -0.08717,-0.09388 -0.12831,-0.13994c-0.29909,-0.3438 -0.94468,-1.15927 -0.9943,-1.22453c-0.26019,-0.3438 -0.50786,-0.68761 -0.73229,-1.02961c-0.01385,-0.02102 -0.02726,-0.04248 -0.03979,-0.06348c-0.21505,-0.3295 -0.41086,-0.65317 -0.59371,-0.97595z" fill="#4b3207" stroke="#674409" stroke-width="0.5" stroke-linecap="butt"/><path d="M337.32808,183.9536v0v0v0v0v0v0v0v0v0v0v0v0v0v0v0v0v0v0v0c0,0 7.07628,8.01691 4.89008,16.33337c-2.18574,8.31422 -15.24698,11.83626 -25.28243,11.2041c-13.2669,-0.83647 -16.78491,-8.64281 -17.23422,-16.30968c-0.3666,-6.28228 15.74725,-10.62423 15.11107,-11.81613l-2.64219,-3.5292c1.30635,-1.07655 4.42737,-0.77702 6.46915,-0.0912c2.30288,0.77522 3.49702,5.76009 6.01358,3.98522l7.41113,-4.89815c1.38548,-0.21192 0.80474,2.81923 2.00423,3.7116c0.70547,0.94064 3.25961,1.41007 3.25961,1.41007z" fill="#4b3207" stroke="#674409" stroke-width="0" stroke-linecap="butt"/><path d="M313.41638,190.1393c0.67776,0 1.29205,0.27451 1.73688,0.7171c0.44438,0.4435 0.71979,1.0551 0.71979,1.73062c0,0.67508 -0.27539,1.28667 -0.71979,1.73017c-0.44484,0.44259 -1.05911,0.7171 -1.73688,0.7171c-0.67776,0 -1.29159,-0.27449 -1.73642,-0.7171c-0.44438,-0.4435 -0.72024,-1.05509 -0.72024,-1.73017c0,-0.67552 0.27586,-1.28712 0.72024,-1.73062c0.44484,-0.44259 1.05866,-0.7171 1.73642,-0.7171v0v0v0v0v0v0v0v0v0v0v0v0v0v0v0v0v0v0v0v0v0v0v0v0v0v0v0v0z" fill="#4b3207" stroke="#674409" stroke-width="0.5" stroke-linecap="butt"/><path d="M333.98175,189.91576c0.67776,0 1.29205,0.2745 1.73688,0.7171c0.44438,0.4435 0.71978,1.05511 0.71978,1.73062c0,0.67508 -0.27539,1.28667 -0.71978,1.73017c-0.44484,0.44259 -1.05911,0.7171 -1.73688,0.7171c-0.67776,0 -1.2916,-0.2745 -1.73643,-0.7171c-0.44438,-0.4435 -0.72024,-1.05509 -0.72024,-1.73017c0,-0.67552 0.27584,-1.28712 0.72024,-1.73062c0.44484,-0.44259 1.05867,-0.7171 1.73643,-0.7171v0v0v0v0v0v0v0v0v0v0v0v0v0v0v0v0v0v0v0v0v0v0v0v0v0v0v0v0z" fill="#4b3207" stroke="#674409" stroke-width="0.5" stroke-linecap="butt"/><g fill="#4b3207" stroke="#674409" stroke-width="0.5" stroke-linecap="round"><path d="M348.54199,179.17886c0,0 6.11463,-6.84603 6.4544,-7.17017c0.34021,-0.32413 2.86709,-3.42235 10.15035,-4.48057c0,0 -4.67683,20.79828 -15.572,25.55559c0,-0.00044 1.03631,-5.95144 -1.03275,-13.90486zM348.5845,179.34651c-0.15736,-0.65764 -0.63216,-1.81914 -0.63216,-1.81914M349.05259,194.67844c0,0 0.41845,-0.99697 0.52217,-1.59515"/><path d="M353.91672,189.81473c0,0 -1.09086,-0.83871 -1.21649,-3.59716c-0.08093,-1.71094 0.67061,-4.83151 0.67061,-4.83151l-0.0608,0.0997c0.47704,-0.55124 0.97953,-1.19548 1.43512,-1.9023c0.77165,-1.19547 1.67473,-2.98868 2.50226,-4.75641l0.12787,-0.2432c0,0 2.18842,-3.20061 6.72443,-3.60566l0.05186,0.02862c-0.9554,3.16171 -2.51433,7.79874 -4.24049,10.96671c-1.93627,3.55334 -4.17701,6.13384 -6.07438,7.90604l0.08003,-0.06481v0v0v0zM351.48198,183.26778c0,0 1.59159,-1.55491 1.88888,-1.88173"/></g><g fill="#4b3207" stroke="#674409" stroke-width="0.5" stroke-linecap="round"><path d="M291.08642,192.63621c-10.89427,-4.7573 -15.57156,-25.5556 -15.57156,-25.5556c7.28326,1.05866 9.81056,4.15689 10.15079,4.48057c0.33976,0.32324 6.45441,7.17016 6.45441,7.17016c-2.06996,7.95388 -1.03364,13.90487 -1.03364,13.90487v0zM292.70884,177.0803c0,0 -0.47478,1.16149 -0.63172,1.81914M291.08642,192.63621c0.10418,0.59819 0.52219,1.59516 0.52219,1.59516"/><path d="M286.82444,189.43248c-1.89739,-1.77309 -4.13721,-4.35361 -6.07437,-7.90604c-1.72659,-3.16797 -3.28465,-7.80499 -4.24049,-10.9667l0.05231,-0.02862c4.53644,0.40548 6.72398,3.60565 6.72398,3.60565l0.12831,0.2432c0.82753,1.76772 1.73017,3.56094 2.50226,4.75641c0.45512,0.70683 0.95808,1.35105 1.43466,1.9023l-0.06081,-0.09969c0,0 0.75199,3.12057 0.67106,4.83152c-0.12562,2.75845 -1.21693,3.59715 -1.21693,3.59715l0.08003,0.06483v0v0v0zM287.29031,180.93898c0.29774,0.32681 1.88888,1.88173 1.88888,1.88173"/></g><path d="M330.16509,198.08201c0,0 -4.78413,2.74995 -7.4925,2.87826c-2.52194,0.24589 -7.44645,-1.80842 -7.44645,-1.80842" fill="#4b3207" stroke="#674409" stroke-width="0.5" stroke-linecap="round"/><path d="M291.84466,196.55431v0v0v0v0v0v0v0v0v0v0v0v0v0v0v0v0v0v0v0c-0.03264,-0.05543 -0.97239,-1.62913 -0.97239,-1.63093c-2.60645,-4.19355 -3.18405,-13.67641 -2.95784,-16.63605l0.02012,-0.14173c0.74079,-12.54488 3.72189,-17.38622 10.00058,-22.78374c5.4668,-4.69874 20.52334,-3.94542 20.91722,-4.07462l1.15433,-0.18241c1.63896,-1.31976 2.35921,-7.09013 4.43453,-4.10726l6.34172,8.40319c2.1531,0.84497 3.21668,-3.72992 5.47307,-4.35672c2.10884,-0.60579 6.32653,-0.20611 6.40835,1.70379l0.30401,4.95893c1.29875,3.70668 3.11476,6.50268 5.37517,10.5013c0.73052,1.3126 1.68323,2.49421 2.25592,3.93737c2.08246,5.24373 2.3838,14.58978 0.04829,19.21922c-0.40281,0.81904 -0.84274,1.61394 -1.29831,2.39587c-0.11848,0.20074 -0.23829,0.40057 -0.35855,0.59683c-0.41667,0.6876 -0.85257,1.36267 -1.31082,2.0154c-0.06259,0.08718 -0.11759,0.17928 -0.18017,0.26646c-0.51906,0.72694 -1.0676,1.42794 -1.63718,2.10884c-0.13547,0.16454 -0.27897,0.32278 -0.41801,0.48641c-0.4882,0.56198 -0.9943,1.10831 -1.51379,1.63406c-0.11981,0.12384 -0.23605,0.24858 -0.35721,0.3666c-0.625,0.61204 -1.27595,1.19546 -1.94655,1.75297c-0.14977,0.12205 -0.30267,0.23964 -0.45335,0.35945c-0.56332,0.44975 -1.14495,0.87985 -1.74045,1.28982c-0.17168,0.11713 -0.33933,0.24008 -0.51279,0.35408c-0.72695,0.47925 -1.47088,0.92858 -2.24073,1.34435c-0.13681,0.07466 -0.28299,0.14128 -0.42203,0.2137c-0.65719,0.34291 -1.32914,0.65809 -2.0163,0.95002c-2.90642,1.23438 -6.06232,2.03866 -9.45068,2.28321c-3.87166,0.27941 -7.37716,0.16185 -10.54377,-0.25215c-0.78326,-0.10194 -1.54508,-0.22444 -2.28678,-0.36168c-0.14083,-0.02862 -0.28122,-0.05633 -0.4207,-0.08361c-0.75198,-0.14844 -1.4901,-0.30759 -2.19826,-0.48955c-0.00447,-0.00179 -0.00984,-0.00312 -0.01475,-0.00447c-0.70951,-0.17883 -1.39173,-0.3809 -2.05788,-0.5955c-0.11669,-0.03799 -0.23649,-0.07512 -0.35229,-0.11267c-0.64067,-0.20878 -1.26432,-0.43321 -1.86564,-0.67196c-0.1055,-0.03934 -0.20789,-0.08584 -0.31295,-0.12697c-0.59326,-0.23919 -1.17222,-0.48865 -1.72749,-0.75288c-0.02145,-0.01253 -0.04515,-0.02011 -0.06572,-0.03129c-0.56867,-0.2736 -1.11143,-0.55795 -1.63942,-0.84943c-0.09834,-0.05499 -0.19627,-0.10864 -0.29194,-0.16319c-0.50787,-0.28925 -1.00011,-0.58432 -1.46908,-0.88833c-0.07153,-0.0465 -0.13948,-0.09389 -0.21058,-0.13949c-0.44529,-0.29463 -0.87626,-0.59506 -1.28801,-0.90175c-0.04246,-0.02862 -0.08942,-0.05946 -0.1301,-0.09164c-0.4292,-0.32324 -0.83513,-0.65361 -1.22632,-0.98668c-0.07601,-0.06348 -0.15066,-0.12831 -0.22354,-0.19225c-0.38135,-0.33262 -0.74841,-0.66569 -1.09354,-1.00726c-0.03935,-0.03711 -0.0751,-0.07689 -0.114,-0.11445c-0.32502,-0.32457 -0.63349,-0.65139 -0.92499,-0.97775c-0.04069,-0.04783 -0.08717,-0.09388 -0.12831,-0.13994c-0.29909,-0.3438 -0.94468,-1.15927 -0.9943,-1.22453c-0.26019,-0.3438 -0.50786,-0.68761 -0.7323,-1.02961c-0.01385,-0.02102 -0.02726,-0.04248 -0.03979,-0.06348c-0.21505,-0.3295 -0.41086,-0.65317 -0.59371,-0.97595z" fill="#674409" stroke="#674409" stroke-width="1.15" stroke-linecap="butt"/><path d="M336.66643,180.04122v0v0v0v0v0v0v0v0v0v0v0v0v0v0v0v0v0v0v0c0,0 7.07628,8.01691 4.89008,16.33337c-2.18574,8.31422 -15.24698,11.83626 -25.28243,11.2041c-13.2669,-0.83647 -16.78491,-8.64281 -17.23422,-16.30968c-0.3666,-6.28228 15.74725,-10.62423 15.11107,-11.81614l-2.64219,-3.5292c1.30635,-1.07655 4.42737,-0.77701 6.46915,-0.0912c2.30288,0.77522 3.49702,5.7601 6.01358,3.98522l7.41112,-4.89815c1.38549,-0.21192 0.80473,2.81923 2.00423,3.71159c0.70548,0.94065 3.25961,1.41008 3.25961,1.41008z" fill="#674409" stroke="#674409" stroke-width="1.15" stroke-linecap="butt"/><path d="M312.75473,186.22692c0.67776,0 1.29205,0.27451 1.73689,0.71711c0.44438,0.4435 0.71979,1.05509 0.71979,1.73061c0,0.67508 -0.27539,1.28667 -0.71979,1.73018c-0.44484,0.44259 -1.05911,0.7171 -1.73689,0.7171c-0.67776,0 -1.29159,-0.27449 -1.73642,-0.7171c-0.44438,-0.4435 -0.72024,-1.0551 -0.72024,-1.73018c0,-0.67552 0.27586,-1.28712 0.72024,-1.73061c0.44484,-0.44259 1.05866,-0.71711 1.73642,-0.71711v0v0v0v0v0v0v0v0v0v0v0v0v0v0v0v0v0v0v0v0v0v0v0v0v0v0v0v0z" fill="#674409" stroke="#674409" stroke-width="1.15" stroke-linecap="butt"/><path d="M333.3201,186.00339c0.67777,0 1.29205,0.2745 1.73689,0.7171c0.44438,0.4435 0.71978,1.05511 0.71978,1.73062c0,0.67508 -0.27539,1.28667 -0.71978,1.73017c-0.44484,0.44259 -1.05911,0.7171 -1.73689,0.7171c-0.67776,0 -1.2916,-0.2745 -1.73643,-0.7171c-0.44438,-0.4435 -0.72024,-1.05509 -0.72024,-1.73017c0,-0.67552 0.27584,-1.28712 0.72024,-1.73062c0.44484,-0.44259 1.05867,-0.7171 1.73643,-0.7171v0v0v0v0v0v0v0v0v0v0v0v0v0v0v0v0v0v0v0v0v0v0v0v0v0v0v0v0z" fill="#674409" stroke="#674409" stroke-width="1.15" stroke-linecap="butt"/><g fill="#674409" stroke="#674409" stroke-width="1.15" stroke-linecap="round"><path d="M347.88035,175.26648c0,0 6.11463,-6.84604 6.45439,-7.17017c0.34021,-0.32413 2.86709,-3.42235 10.15035,-4.48057c0,0 -4.67683,20.79828 -15.572,25.5556c0,-0.00044 1.03631,-5.95144 -1.03274,-13.90486zM347.92284,175.43413c-0.15736,-0.65764 -0.63216,-1.81914 -0.63216,-1.81914M348.39092,190.76606c0,0 0.41845,-0.99697 0.52218,-1.59515"/><path d="M353.25506,185.90235c0,0 -1.09086,-0.83871 -1.21649,-3.59716c-0.08093,-1.71094 0.67061,-4.83151 0.67061,-4.83151l-0.0608,0.0997c0.47704,-0.55123 0.97953,-1.19547 1.43511,-1.9023c0.77165,-1.19547 1.67473,-2.98868 2.50227,-4.75641l0.12786,-0.2432c0,0 2.18842,-3.20061 6.72443,-3.60565l0.05187,0.02862c-0.9554,3.16171 -2.51433,7.79873 -4.24049,10.9667c-1.93627,3.55334 -4.17701,6.13384 -6.07438,7.90604l0.08003,-0.06481v0v0v0zM350.82033,179.3554c0,0 1.59159,-1.55491 1.88888,-1.88173"/></g><g fill="#674409" stroke="#674409" stroke-width="1.15" stroke-linecap="round"><path d="M290.42477,188.72383c-10.89427,-4.7573 -15.57156,-25.55559 -15.57156,-25.55559c7.28326,1.05866 9.81056,4.15689 10.15079,4.48057c0.33976,0.32323 6.45441,7.17016 6.45441,7.17016c-2.06996,7.95388 -1.03364,13.90487 -1.03364,13.90487v0v0v0zM292.0472,173.16791c0,0 -0.47479,1.16149 -0.63172,1.81914M290.42477,188.72383c0.10418,0.59819 0.52218,1.59515 0.52218,1.59515"/><path d="M286.1628,185.52009c-1.89739,-1.77309 -4.13721,-4.35361 -6.07437,-7.90604c-1.72659,-3.16797 -3.28465,-7.805 -4.24049,-10.96671l0.05231,-0.02862c4.53644,0.40549 6.72398,3.60566 6.72398,3.60566l0.12831,0.2432c0.82753,1.76772 1.73017,3.56094 2.50226,4.75641c0.45512,0.70683 0.95807,1.35105 1.43466,1.9023l-0.0608,-0.0997c0,0 0.75199,3.12057 0.67106,4.83152c-0.12562,2.75845 -1.21693,3.59715 -1.21693,3.59715l0.08003,0.06482v0v0v0zM286.62867,177.0266c0.29774,0.32682 1.88889,1.88173 1.88889,1.88173"/></g><path d="M329.50343,194.16963c0,0 -4.78413,2.74995 -7.4925,2.87826c-2.52194,0.24589 -7.44645,-1.80841 -7.44645,-1.80841" fill="#674409" stroke="#674409" stroke-width="1.15" stroke-linecap="round"/></g></g></svg>