<?xml version="1.0" encoding="UTF-8" standalone="no"?>
<svg
   version="1.1"
   width="100.35101"
   height="100.04222"
   viewBox="0,0,100.35101,100.04222"
   id="svg48"
   sodipodi:docname="icon_21.svg"
   inkscape:version="1.2.2 (732a01da63, 2022-12-09)"
   xmlns:inkscape="http://www.inkscape.org/namespaces/inkscape"
   xmlns:sodipodi="http://sodipodi.sourceforge.net/DTD/sodipodi-0.dtd"
   xmlns="http://www.w3.org/2000/svg"
   xmlns:svg="http://www.w3.org/2000/svg">
  <defs
     id="defs52" />
  <sodipodi:namedview
     id="namedview50"
     pagecolor="#ffffff"
     bordercolor="#000000"
     borderopacity="0.25"
     inkscape:showpageshadow="2"
     inkscape:pageopacity="0.0"
     inkscape:pagecheckerboard="0"
     inkscape:deskcolor="#d1d1d1"
     showgrid="false"
     inkscape:zoom="4.1826312"
     inkscape:cx="22.473891"
     inkscape:cy="62.520453"
     inkscape:window-width="1366"
     inkscape:window-height="705"
     inkscape:window-x="-8"
     inkscape:window-y="-8"
     inkscape:window-maximized="1"
     inkscape:current-layer="svg48" />
  <path
     d="m 83.82833,59.74722 c 0,16.72038 -15.11949,22.11596 -33.73722,22.11596 -18.61773,0 -33.73722,-5.3363 -33.73722,-22.11596 0,-7.88585 2.2531,-16.83896 7.05576,-24.19119 L 19.43708,22.2746 c -0.7708,-2.54956 1.77876,-4.86196 4.15045,-3.85399 l 13.10356,5.45488 c 3.85399,-1.71947 8.3009,-2.72744 13.40002,-2.72744 4.98054,0 9.42745,1.00797 13.28144,2.78673 l 13.22214,-5.51417 c 2.37168,-0.94867 4.92125,1.36372 4.15045,3.85399 l -4.03186,13.45931 c 4.80266,7.23364 7.11505,16.18675 7.11505,24.01331 z"
     fill="#ff7319"
     stroke="none"
     stroke-width="2"
     stroke-linecap="butt"
     id="path28"
     style="mix-blend-mode:normal;fill-rule:nonzero;stroke-linejoin:miter;stroke-miterlimit:10;stroke-dasharray:6, 3;stroke-dashoffset:0;fill:none;stroke:#808080;stroke-opacity:1;stroke-width:3" />
  <path
     d="m 47.12651,54.11448 c 0,-1.18584 1.30443,-1.5416 2.96461,-1.5416 1.66018,0 2.96461,0.35575 2.96461,1.5416 0,1.18584 -0.88938,2.66814 -2.96461,2.66814 -2.07523,0 -2.96461,-1.4823 -2.96461,-2.66814 z"
     fill="#945600"
     stroke="#000000"
     stroke-width="1.5"
     stroke-linecap="butt"
     id="path32"
     style="mix-blend-mode:normal;fill-rule:nonzero;stroke-linejoin:miter;stroke-miterlimit:10;stroke-dasharray:none;stroke-dashoffset:0;fill:#808080;fill-opacity:1;stroke:#808080;stroke-opacity:1" />
  <path
     d="m 60.11148,56.96846 c 0,2.78673 -2.2531,4.98054 -5.03983,4.98054 -2.78673,0 -5.03983,-2.2531 -5.03983,-4.98054 0,-0.11859 0,-0.11858 0,-0.11858 0,-0.17788 0,-0.29646 0,-0.29646 0,0 0,0.11859 0,0.29646 0,0 0,0 0,0.11858 0,2.78673 -2.2531,4.98054 -5.03983,4.98054 -2.78673,0 -5.03983,-2.2531 -5.03983,-4.98054"
     fill="none"
     stroke="#000000"
     stroke-width="2.5"
     stroke-linecap="round"
     id="path34"
     style="mix-blend-mode:normal;fill:none;fill-opacity:1;fill-rule:nonzero;stroke:#808080;stroke-linejoin:miter;stroke-miterlimit:10;stroke-dasharray:none;stroke-dashoffset:0;stroke-opacity:1" />
  <path
     d="m 41.37517,43.97552 c 0,-1.57182 1.27421,-2.84602 2.84602,-2.84602 1.57182,0 2.84602,1.2742 2.84602,2.84602 0,1.57182 -1.2742,2.84602 -2.84602,2.84602 -1.57182,0 -2.84602,-1.27421 -2.84602,-2.84602 z"
     fill="#000000"
     stroke="none"
     stroke-width="1"
     stroke-linecap="butt"
     id="path36"
     style="mix-blend-mode:normal;fill-rule:nonzero;stroke-linejoin:miter;stroke-miterlimit:10;stroke-dasharray:none;stroke-dashoffset:0;fill:#808080;fill-opacity:1" />
  <path
     d="m 53.05572,43.97552 c 0,-1.57182 1.27421,-2.84602 2.84602,-2.84602 1.57182,0 2.84602,1.2742 2.84602,2.84602 0,1.57182 -1.2742,2.84602 -2.84602,2.84602 -1.57182,0 -2.84602,-1.27421 -2.84602,-2.84602 z"
     fill="#000000"
     stroke="none"
     stroke-width="1"
     stroke-linecap="butt"
     id="path38"
     style="mix-blend-mode:normal;fill-rule:nonzero;stroke-linejoin:miter;stroke-miterlimit:10;stroke-dasharray:none;stroke-dashoffset:0;fill:#808080;fill-opacity:1" />
</svg>
