<svg width="362" height="335" viewBox="0 0 362 335" fill="none" xmlns="http://www.w3.org/2000/svg">
<path fill-rule="evenodd" clip-rule="evenodd" d="M80.536 14.5025L115.105 29.0032L126.342 25.0145C163.219 11.9217 209.898 12.2082 243.541 25.7338L254.134 29.9917L289.782 15.0506C309.387 6.83105 327.258 0.0846189 329.495 0.0538483C334.917 -0.0173087 342.99 6.53491 344.4 12.1486C345.496 16.52 344.251 21.6144 333.039 58.6564C322.989 91.8617 323.074 90.154 330.82 104.039C349.109 136.823 359.385 175.7 359.743 213.471C359.998 240.253 357.177 253.276 347.459 270.204C328.968 302.417 287.395 324.872 235.039 330.93C212.75 333.509 157.307 333.507 134.975 330.926C95.2713 326.337 62.7756 312.729 39.8304 291.084C18.1544 270.637 10.3772 250.08 10.4676 213.471C10.5618 175.977 19.8161 138.675 37.2091 105.685L45.9903 89.0308L41.8286 74.8052C39.5381 66.9818 35.4975 53.2235 32.8493 44.2327C23.5451 12.6486 23.5335 12.4486 30.8435 4.32711C33.1936 1.71738 36.9668 0 40.3535 0C43.4402 0 61.5237 6.52528 80.536 14.5025Z" fill="#FF7319"/>
<path d="M137.908 158.519L128.813 160.79L122.167 163.292C107.387 168.856 93.6836 176.874 81.6238 186.982C75.5767 192.051 70.4991 198.141 65.7673 204.455C51.6899 223.24 44.1998 244.48 44.1235 265.83C44.0504 286.676 50.345 298.382 67.8888 310.025C86.4599 322.35 112.761 330.099 144.896 332.712C162.97 334.181 207.844 334.183 225.884 332.714C268.259 329.264 301.907 316.478 316.873 298.135C324.739 288.496 327.022 281.08 326.815 265.83C326.525 244.322 318.209 222.185 303.406 203.517L299.05 199.069C282.78 182.455 263.087 169.584 241.339 161.353L232.766 158.928C205.535 151.227 167.755 151.063 137.908 158.519Z" fill="white"/>
<path d="M292.151 20.6451L262.723 33.3302L272.864 39.1843C283.026 45.0519 311.725 71.9416 317.018 80.5535C319.697 84.9152 320.3 83.5017 329.193 52.0138C343.43 1.59999 341.036 -0.427017 292.151 20.6451Z" fill="#77500C"/>
<path d="M35.0013 12.2755C32.1858 16.5718 32.6012 18.9027 41.6882 49.754C47.0173 67.8452 51.3771 83.1709 51.3771 83.8075C51.3771 84.444 54.6984 80.7766 58.7582 75.6571C69.3029 62.3623 90.5461 43.0095 99.7484 38.3151C104.07 36.1092 106.855 33.6687 105.935 32.8918C101.979 29.5474 47.2769 7.69257 42.8632 7.69257C39.865 7.69257 36.8533 9.44842 35.0013 12.2755Z" fill="#77500C"/>
<path d="M166.418 126.657C166.418 135.154 159.53 142.042 151.033 142.042C142.536 142.042 135.647 135.154 135.647 126.657C135.647 118.16 142.536 111.272 151.033 111.272C159.53 111.272 166.418 118.16 166.418 126.657Z" fill="black"/>
<path d="M233.793 128.036C233.793 136.533 226.905 143.422 218.408 143.422C209.911 143.422 203.023 136.533 203.023 128.036C203.023 119.539 209.911 112.651 218.408 112.651C226.905 112.651 233.793 119.539 233.793 128.036Z" fill="black"/>
<path fill-rule="evenodd" clip-rule="evenodd" d="M190.596 187.654H179.057V197.682H179.045C179.053 197.895 179.057 198.108 179.057 198.323C179.057 207.882 171.307 215.632 161.748 215.632C152.189 215.632 144.44 207.882 144.44 198.323C144.44 198.108 144.444 197.895 144.451 197.682H132.908C132.903 197.895 132.901 198.109 132.901 198.323C132.901 214.255 145.816 227.171 161.748 227.171C171.185 227.171 179.563 222.639 184.826 215.634C190.089 222.639 198.468 227.171 207.904 227.171C223.836 227.171 236.752 214.255 236.752 198.323C236.752 198.109 236.749 197.895 236.745 197.682H225.201C225.209 197.895 225.213 198.108 225.213 198.323C225.213 207.882 217.464 215.632 207.904 215.632C198.345 215.632 190.596 207.882 190.596 198.323C190.596 198.108 190.6 197.895 190.608 197.682H190.596V187.654Z" fill="black"/>
<mask id="path-3-inside-1_0_1" fill="white">
<path fill-rule="evenodd" clip-rule="evenodd" d="M175.517 158.807C168.976 158.807 162.389 162.523 162.389 169.064C162.389 181.455 172.434 191.501 184.826 191.501C197.217 191.501 207.263 181.455 207.263 169.064C207.263 162.523 200.676 158.807 194.135 158.807H175.517Z"/>
</mask>
<path fill-rule="evenodd" clip-rule="evenodd" d="M175.517 158.807C168.976 158.807 162.389 162.523 162.389 169.064C162.389 181.455 172.434 191.501 184.826 191.501C197.217 191.501 207.263 181.455 207.263 169.064C207.263 162.523 200.676 158.807 194.135 158.807H175.517Z" fill="#77500C"/>
<path d="M184.826 180.374C178.58 180.374 173.516 175.31 173.516 169.064H151.262C151.262 187.601 166.289 202.628 184.826 202.628V180.374ZM196.136 169.064C196.136 175.31 191.072 180.374 184.826 180.374V202.628C203.363 202.628 218.39 187.601 218.39 169.064H196.136ZM194.135 147.68H175.517V169.934H194.135V147.68ZM218.39 169.064C218.39 161.557 214.441 155.845 209.586 152.404C204.957 149.124 199.336 147.68 194.135 147.68V169.934C194.735 169.934 195.318 170.022 195.816 170.168C196.321 170.316 196.611 170.485 196.718 170.561C196.816 170.631 196.651 170.54 196.454 170.194C196.231 169.802 196.136 169.37 196.136 169.064H218.39ZM173.516 169.064C173.516 169.37 173.42 169.802 173.198 170.194C173.001 170.54 172.836 170.631 172.934 170.561C173.041 170.485 173.331 170.316 173.836 170.168C174.334 170.022 174.917 169.934 175.517 169.934V147.68C170.316 147.68 164.695 149.124 160.066 152.404C155.211 155.845 151.262 161.557 151.262 169.064H173.516Z" fill="black" mask="url(#path-3-inside-1_0_1)"/>
<mask id="mask0_0_1" style="mask-type:alpha" maskUnits="userSpaceOnUse" x="8" y="188" width="354" height="147">
<path d="M87.1324 215.549L11.9707 188.5C-16.5321 316 114.467 340.5 211.473 334C226.504 332.993 257.474 332.5 293.474 316C365.474 283 363.974 227.667 359.974 198.5L277.88 221.955C215.197 239.865 148.472 237.624 87.1324 215.549Z" fill="black"/>
</mask>
<g mask="url(#mask0_0_1)">
<rect x="0.466797" y="180" width="360" height="186" fill="#1F1F1F"/>
<path d="M134.707 217.581L117.653 215.336L124.834 230.966L175.834 341.966L184.225 360.228L193.011 342.153L245.511 234.153L252.773 219.214L236.214 220.53L186.874 224.45L134.707 217.581Z" fill="white" stroke="#090A0B" stroke-width="19"/>
<path fill-rule="evenodd" clip-rule="evenodd" d="M178.238 260.097L166.955 237.332C165.967 235.338 167.418 233 169.643 233L199.49 233C201.715 233 203.166 235.338 202.178 237.332L191.152 259.58C193.494 261.41 195 264.261 195 267.464V336C195 341.523 190.523 346 185 346C179.477 346 175 341.523 175 336V267.464C175 264.549 176.247 261.925 178.238 260.097Z" fill="#333333"/>
</g>
<path fill-rule="evenodd" clip-rule="evenodd" d="M99 129C99 121.82 104.82 116 112 116H163.711C170.891 116 176.711 121.82 176.711 129V140H194.289V129C194.289 121.82 200.109 116 207.289 116H259C266.18 116 272 121.82 272 129V154C272 161.18 266.18 167 259 167H207.289C200.109 167 194.289 161.18 194.289 154V143H176.711V154C176.711 161.18 170.891 167 163.711 167H112C104.82 167 99 161.18 99 154V129Z" fill="white" fill-opacity="0.39"/>
<rect x="52.575" y="196" width="5.85" height="36.9136" rx="2.925" fill="#513500"/>
<path d="M0.697902 227.2C1.43343 218.086 10.551 212.589 19.2267 215.478L50.8662 226.011C53.7976 226.987 56.9694 226.966 59.8875 225.951L86.4692 216.706C96.0307 213.381 106.073 220.287 106.389 230.405L107.066 252.062C107.68 271.7 103.598 291.236 95.1873 308.993C89.8743 320.21 76.7211 325.357 65.2178 320.697C60.1105 318.627 54.385 318.702 49.3336 320.904L49.0649 321.022C38.438 325.655 26.0067 322.105 20.2256 312.057C13.6219 300.578 5.80718 285.163 2.77411 272.001C-0.669443 257.058 -0.313402 239.732 0.697902 227.2Z" fill="#E70B0B"/>
</svg>
