<svg width="350" height="334" viewBox="0 0 350 334" fill="none" xmlns="http://www.w3.org/2000/svg">
<path fill-rule="evenodd" clip-rule="evenodd" d="M70.0693 14.5025L104.638 29.0032L115.875 25.0145C152.752 11.9217 199.431 12.2082 233.075 25.7338L243.667 29.9917L279.315 15.0506C298.92 6.83105 316.792 0.0846189 319.028 0.0538483C324.45 -0.0173087 332.523 6.53491 333.933 12.1486C335.029 16.52 333.785 21.6144 322.573 58.6564C312.522 91.8617 312.607 90.1539 320.353 104.039C338.643 136.823 348.918 175.7 349.276 213.471C349.532 240.253 346.71 253.276 336.993 270.204C318.501 302.417 276.928 324.872 224.572 330.93C202.283 333.509 146.84 333.507 124.508 330.926C84.8045 326.337 52.3089 312.729 29.3636 291.084C7.68765 270.637 -0.0896109 250.08 0.000777692 213.471C0.0950126 175.977 9.34927 138.675 26.7423 105.685L35.5235 89.0308L31.3618 74.8052C29.0713 66.9818 25.0307 53.2235 22.3825 44.2327C13.0783 12.6486 13.0667 12.4486 20.3767 4.32711C22.7268 1.71738 26.5 0 29.8867 0C32.9734 0 51.0569 6.52527 70.0693 14.5025Z" fill="#FF7319"/>
<path d="M127.442 158.519L118.347 160.79L111.7 163.292C96.9198 168.856 83.2168 176.874 71.157 186.982C65.1099 192.051 60.0323 198.141 55.3005 204.455C41.2231 223.24 33.733 244.48 33.6567 265.83C33.5836 286.676 39.8782 298.382 57.422 310.025C75.9931 322.35 102.294 330.099 134.429 332.712C152.503 334.181 197.377 334.183 215.417 332.714C257.793 329.264 291.44 316.478 306.407 298.135C314.272 288.496 316.555 281.08 316.348 265.83C316.059 244.322 307.742 222.185 292.939 203.517L288.583 199.069C272.314 182.455 252.62 169.584 230.872 161.353L222.299 158.928C195.069 151.226 157.288 151.063 127.442 158.519Z" fill="white"/>
<path d="M281.684 20.6451L252.256 33.3302L262.397 39.1843C272.559 45.0519 301.258 71.9416 306.551 80.5535C309.23 84.9152 309.834 83.5017 318.726 52.0138C332.964 1.59999 330.569 -0.427017 281.684 20.6451Z" fill="#77500C"/>
<path d="M24.5345 12.2755C21.719 16.5718 22.1344 18.9027 31.2214 49.754C36.5505 67.8452 40.9103 83.1709 40.9103 83.8075C40.9103 84.444 44.2316 80.7766 48.2914 75.6571C58.8361 62.3623 80.0793 43.0095 89.2816 38.3151C93.603 36.1092 96.3877 33.6687 95.4685 32.8918C91.5125 29.5474 36.8101 7.69257 32.3964 7.69257C29.3982 7.69257 26.3866 9.44842 24.5345 12.2755Z" fill="#77500C"/>
<path d="M115.875 70C115.875 78.4971 108.987 85.3853 100.49 85.3853C91.9928 85.3853 85.1046 78.4971 85.1046 70C85.1046 61.5029 91.9928 54.6147 100.49 54.6147C108.987 54.6147 115.875 61.5029 115.875 70Z" fill="black"/>
<path d="M310.086 150C310.086 158.497 303.197 165.385 294.7 165.385C286.203 165.385 279.315 158.497 279.315 150C279.315 141.503 286.203 134.615 294.7 134.615C303.197 134.615 310.086 141.503 310.086 150Z" fill="black"/>
<path fill-rule="evenodd" clip-rule="evenodd" d="M168.359 188.877C168.573 188.884 168.787 188.893 169 188.904L168.649 200.442C168.436 200.428 168.223 200.417 168.008 200.411C158.453 200.12 150.472 207.63 150.181 217.185C150.141 218.506 150.25 219.798 150.493 221.043L150.035 221.029V238.155H150.047C150.039 238.368 150.035 238.581 150.035 238.796C150.035 248.355 157.785 256.104 167.344 256.104C168.666 256.104 169.953 255.956 171.19 255.676V267.389C169.932 267.557 168.648 267.643 167.344 267.643C157.907 267.643 149.529 263.112 144.266 256.107C139.003 263.112 130.625 267.643 121.188 267.643C119.766 267.643 118.367 267.54 117 267.342V255.594C118.341 255.928 119.744 256.104 121.188 256.104C130.741 256.104 138.486 248.366 138.496 238.816V238.796V238.776C138.496 238.568 138.492 238.361 138.485 238.155H138.496V217H138.643C138.645 216.945 138.646 216.889 138.648 216.834C139.132 200.909 152.434 188.393 168.359 188.877Z" fill="black"/>
<mask id="path-3-inside-1_2449_53" fill="white">
<path fill-rule="evenodd" clip-rule="evenodd" d="M166.05 173.807C159.509 173.807 152.922 177.523 152.922 184.064C152.922 196.455 162.967 206.501 175.359 206.501C187.75 206.501 197.796 196.455 197.796 184.064C197.796 177.523 191.208 173.807 184.667 173.807H166.05Z"/>
</mask>
<path fill-rule="evenodd" clip-rule="evenodd" d="M166.05 173.807C159.509 173.807 152.922 177.523 152.922 184.064C152.922 196.455 162.967 206.501 175.359 206.501C187.75 206.501 197.796 196.455 197.796 184.064C197.796 177.523 191.208 173.807 184.667 173.807H166.05Z" fill="#77500C"/>
<path d="M175.359 195.374C169.113 195.374 164.049 190.31 164.049 184.064H141.795C141.795 202.601 156.822 217.628 175.359 217.628V195.374ZM186.668 184.064C186.668 190.31 181.605 195.374 175.359 195.374V217.628C193.896 217.628 208.923 202.601 208.923 184.064H186.668ZM184.667 162.68H166.05V184.934H184.667V162.68ZM208.923 184.064C208.923 176.557 204.974 170.845 200.118 167.404C195.489 164.124 189.869 162.68 184.667 162.68V184.934C185.268 184.934 185.851 185.022 186.349 185.168C186.854 185.316 187.144 185.485 187.25 185.561C187.349 185.631 187.184 185.54 186.987 185.194C186.764 184.802 186.668 184.37 186.668 184.064H208.923ZM164.049 184.064C164.049 184.37 163.953 184.802 163.731 185.194C163.534 185.54 163.369 185.631 163.467 185.561C163.574 185.485 163.864 185.316 164.369 185.168C164.867 185.022 165.45 184.934 166.05 184.934V162.68C160.849 162.68 155.228 164.124 150.599 167.404C145.744 170.845 141.795 176.557 141.795 184.064H164.049Z" fill="black" mask="url(#path-3-inside-1_2449_53)"/>
</svg>
