<svg width="500" height="500" viewBox="0 0 500 500" fill="none" xmlns="http://www.w3.org/2000/svg">
<mask id="mask0_3099_153" style="mask-type:alpha" maskUnits="userSpaceOnUse" x="68" y="92" width="350" height="333">
<path fill-rule="evenodd" clip-rule="evenodd" d="M138.068 106.503L172.637 121.003L183.874 117.015C220.751 103.922 267.43 104.208 301.074 117.734L311.667 121.992L347.314 107.051C366.919 98.831 384.791 92.0846 387.028 92.0538C392.449 91.9827 400.522 98.5349 401.932 104.149C403.028 108.52 401.784 113.614 390.572 150.656C380.521 183.862 380.606 182.154 388.353 196.039C406.642 228.823 416.917 267.7 417.275 305.471C417.531 332.253 414.71 345.276 404.992 362.204C386.501 394.417 344.928 416.872 292.571 422.93C270.282 425.509 214.839 425.507 192.507 422.926L143 410L97.3629 383.084L76 348L68 305.471L76 250L94.7416 197.685L103.523 181.031L99.361 166.805C99.361 166.805 93.03 145.223 90.3818 136.233L84 112L88.3759 96.3271C90.726 93.7174 97.886 92 97.886 92C100.973 92 119.056 98.5253 138.068 106.503Z" fill="#FF7319"/>
</mask>
<g mask="url(#mask0_3099_153)">
<g filter="url(#filter0_d_3099_153)">
<path fill-rule="evenodd" clip-rule="evenodd" d="M138.069 106.503L172.638 121.003L183.875 117.015C220.752 103.922 267.431 104.208 301.075 117.734L311.667 121.992L347.315 107.051C366.92 98.831 384.792 92.0846 387.028 92.0538C392.45 91.9827 400.523 98.5349 401.933 104.149C403.029 108.52 401.785 113.614 390.573 150.656C380.522 183.862 380.607 182.154 388.353 196.039C406.643 228.823 416.918 267.7 417.276 305.471C417.532 332.253 414.71 345.276 404.993 362.204C386.501 394.417 344.928 416.872 292.572 422.93C270.283 425.509 214.84 425.507 192.508 422.926C152.805 418.337 120.309 404.729 97.3636 383.084C75.6877 362.637 67.9104 342.08 68.0008 305.471C68.095 267.977 77.3493 230.675 94.7423 197.685L103.524 181.031L99.3618 166.805C97.0713 158.982 93.0307 145.223 90.3825 136.233C81.0783 104.649 81.0667 104.449 88.3767 96.3271C90.7268 93.7174 94.5 92 97.8867 92C100.973 92 119.057 98.5253 138.069 106.503Z" fill="#FF7319"/>
<path d="M195.442 250.519L186.347 252.79L179.7 255.292C164.92 260.856 151.217 268.874 139.157 278.982C133.11 284.051 128.032 290.141 123.3 296.455C109.223 315.24 101.733 336.48 101.657 357.83C101.584 378.676 107.878 390.382 125.422 402.025C143.993 414.35 170.294 422.099 202.429 424.712C220.503 426.181 265.377 426.183 283.417 424.714C325.793 421.264 359.44 408.478 374.407 390.135C382.272 380.496 384.555 373.08 384.348 357.83C384.059 336.322 375.742 314.185 360.939 295.517L356.583 291.069C340.314 274.455 320.62 261.584 298.872 253.353L290.299 250.928C263.069 243.226 225.288 243.063 195.442 250.519Z" fill="white"/>
<path d="M349.684 112.645L320.256 125.33L330.397 131.184C340.559 137.052 369.258 163.942 374.551 172.553C377.23 176.915 377.834 175.502 386.726 144.014C400.964 93.6 398.569 91.573 349.684 112.645Z" fill="#77500C"/>
<path d="M92.5345 104.275L99.2214 141.754C104.55 159.845 108.91 175.171 108.91 175.807C108.91 176.444 112.232 172.777 116.291 167.657C126.836 154.362 148.079 135.01 157.282 130.315C161.603 128.109 164.388 125.669 163.468 124.892C159.513 121.547 100.396 99.6926 100.396 99.6926L92.5345 104.275Z" fill="#FF0000"/>
<path d="M223.951 218.657C223.951 227.154 217.063 234.042 208.566 234.042C200.069 234.042 193.181 227.154 193.181 218.657C193.181 210.16 200.069 203.272 208.566 203.272C217.063 203.272 223.951 210.16 223.951 218.657Z" fill="#FF0000"/>
<path d="M291.326 220.036C291.326 228.534 284.438 235.422 275.941 235.422C267.444 235.422 260.556 228.534 260.556 220.036C260.556 211.539 267.444 204.651 275.941 204.651C284.438 204.651 291.326 211.539 291.326 220.036Z" fill="black"/>
<path fill-rule="evenodd" clip-rule="evenodd" d="M248.129 279.654H236.59V289.682H236.578C236.586 289.895 236.59 290.108 236.59 290.323C236.59 299.882 228.841 307.632 219.281 307.632C209.722 307.632 201.973 299.882 201.973 290.323C201.973 290.108 201.977 289.895 201.985 289.682H190.441C190.436 289.895 190.434 290.109 190.434 290.323C190.434 306.255 203.35 319.171 219.282 319.171C228.718 319.171 237.096 314.639 242.36 307.634C247.623 314.639 256.001 319.171 265.438 319.171C281.37 319.171 294.285 306.255 294.285 290.323C294.285 290.109 294.283 289.895 294.278 289.682H282.735C282.742 289.895 282.746 290.108 282.746 290.323C282.746 299.882 274.997 307.632 265.438 307.632C255.879 307.632 248.129 299.882 248.129 290.323C248.129 290.108 248.133 289.895 248.141 289.682H248.129V279.654Z" fill="black"/>
<mask id="path-4-inside-1_3099_153" fill="white">
<path fill-rule="evenodd" clip-rule="evenodd" d="M233.051 250.807C226.51 250.807 219.922 254.523 219.922 261.064C219.922 273.455 229.968 283.501 242.359 283.501C254.751 283.501 264.796 273.455 264.796 261.064C264.796 254.523 258.209 250.807 251.668 250.807H233.051Z"/>
</mask>
<path fill-rule="evenodd" clip-rule="evenodd" d="M233.051 250.807C226.51 250.807 219.922 254.523 219.922 261.064C219.922 273.455 229.968 283.501 242.359 283.501C254.751 283.501 264.796 273.455 264.796 261.064C264.796 254.523 258.209 250.807 251.668 250.807H233.051Z" fill="#77500C"/>
<path d="M242.359 272.374C236.113 272.374 231.05 267.31 231.05 261.064H208.795C208.795 279.601 223.822 294.628 242.359 294.628V272.374ZM253.669 261.064C253.669 267.31 248.605 272.374 242.359 272.374V294.628C260.896 294.628 275.923 279.601 275.923 261.064H253.669ZM251.668 239.68H233.051V261.934H251.668V239.68ZM275.923 261.064C275.923 253.557 271.974 247.845 267.119 244.404C262.49 241.124 256.869 239.68 251.668 239.68V261.934C252.268 261.934 252.851 262.022 253.349 262.168C253.854 262.316 254.144 262.485 254.251 262.561C254.349 262.631 254.184 262.54 253.987 262.194C253.765 261.802 253.669 261.37 253.669 261.064H275.923ZM231.05 261.064C231.05 261.37 230.954 261.802 230.731 262.194C230.534 262.54 230.369 262.631 230.468 262.561C230.574 262.485 230.864 262.316 231.369 262.168C231.867 262.022 232.45 261.934 233.051 261.934V239.68C227.849 239.68 222.229 241.124 217.6 244.404C212.744 247.845 208.795 253.557 208.795 261.064H231.05Z" fill="black" mask="url(#path-4-inside-1_3099_153)"/>
</g>
<rect x="68" y="92" width="175" height="334" fill="black" fill-opacity="0.54"/>
<rect x="229" y="261" width="14" height="13" fill="black"/>
</g>
<defs>
<filter id="filter0_d_3099_153" x="64" y="92" width="357.292" height="341.815" filterUnits="userSpaceOnUse" color-interpolation-filters="sRGB">
<feFlood flood-opacity="0" result="BackgroundImageFix"/>
<feColorMatrix in="SourceAlpha" type="matrix" values="0 0 0 0 0 0 0 0 0 0 0 0 0 0 0 0 0 0 127 0" result="hardAlpha"/>
<feOffset dy="4"/>
<feGaussianBlur stdDeviation="2"/>
<feComposite in2="hardAlpha" operator="out"/>
<feColorMatrix type="matrix" values="0 0 0 0 0 0 0 0 0 0 0 0 0 0 0 0 0 0 0.25 0"/>
<feBlend mode="normal" in2="BackgroundImageFix" result="effect1_dropShadow_3099_153"/>
<feBlend mode="normal" in="SourceGraphic" in2="effect1_dropShadow_3099_153" result="shape"/>
</filter>
</defs>
</svg>
