<svg version="1.1" xmlns="http://www.w3.org/2000/svg" xmlns:xlink="http://www.w3.org/1999/xlink" width="100.35101" height="100.04222" viewBox="0,0,100.35101,100.04222"><g transform="translate(-269.90888,-129.97889)"><g data-paper-data="{&quot;isPaintingLayer&quot;:true}" fill-rule="nonzero" stroke-linejoin="miter" stroke-miterlimit="10" stroke-dasharray="" stroke-dashoffset="0" style="mix-blend-mode: normal"><path d="M350.31954,190.5793c0,18.3 -16.5,24.2 -36.9,24.2c-20.4,0 -36.9,-5.9 -36.9,-24.2c0,-8.6 2.4,-18.5 7.7,-26.5l-4.3,-14.5c-0.8,-2.7 2,-5.3 4.6,-4.2l14.3,6c4.2,-1.9 9,-3 14.6,-3c5.5,0 10.3,1.2 14.5,3.1l14.4,-6c2.6,-1.1 5.4,1.5 4.6,4.2l-4.4,14.7c5.2,7.9 7.7,17.7 7.8,26.2z" fill="#ff7319" stroke="none" stroke-width="1" stroke-linecap="butt"/><path d="M342.21954,202.1793c0,9.6 -12.9,12.7 -28.9,12.7c-16,0 -28.9,-3.1 -28.9,-12.7c0,-9.6 8.6,-22.1 28.9,-22.1c19.9,0 28.9,12.5 28.9,22.1z" fill="#ffffff" stroke="none" stroke-width="1" stroke-linecap="butt"/><path d="M310.11954,184.4793c0,-1.3 1.4,-1.7 3.2,-1.7c1.8,0 3.2,0.4 3.2,1.7c0,1.3 -1,2.9 -3.2,2.9c-2.2,0 -3.2,-1.6 -3.2,-2.9z" fill="#945600" stroke="#000000" stroke-width="1.5" stroke-linecap="butt"/><path d="M303.95169,173.4793c0,-1.71208 1.38792,-3.1 3.1,-3.1c1.71208,0 3.1,1.38792 3.1,3.1c0,1.71208 -1.38792,3.1 -3.1,3.1c-1.71208,0 -3.1,-1.38792 -3.1,-3.1z" fill="#000000" stroke="none" stroke-width="1" stroke-linecap="butt"/><path d="M316.75169,173.4793c0,-1.71208 1.38792,-3.1 3.1,-3.1c1.71208,0 3.1,1.38792 3.1,3.1c0,1.71208 -1.38792,3.1 -3.1,3.1c-1.71208,0 -3.1,-1.38792 -3.1,-3.1z" fill="#000000" stroke="none" stroke-width="1" stroke-linecap="butt"/><path d="M290.91954,156.8793c-2.1,1.8 -3.8,3.5 -5.4,6.1l-3.9,-13.5c-0.3,-1.6 1.2,-3 2.8,-2.5l12.9,5.4c-2.9,1.2 -4.6,2.8 -6.4,4.5z" fill="#77500c" stroke="none" stroke-width="1" stroke-linecap="butt"/><path d="M329.71954,152.3793l12.9,-5.4c1.6,-0.5 3.1,0.9 2.8,2.5l-3.8,13.5c-1.5,-2.6 -3.3,-4.3 -5.3,-6.1c-2,-1.7 -3.7,-3.3 -6.6,-4.5z" fill="#77500c" stroke="none" stroke-width="1" stroke-linecap="butt"/><g><path d="M343.81263,193.40107c-1.16583,-2.68748 -4.07969,-9.54415 -4.78893,-11.1572c-0.29668,-0.67473 -0.13607,-1.36548 0.40479,-1.60329c2.25889,-0.99322 17.50623,-7.74502 21.26397,-9.409c0.33132,-0.14672 0.76003,0.00806 1.02474,0.12452c0.15674,0.06896 0.2115,0.02331 0.27546,0.16879c0.56054,1.27484 3.71146,8.44103 5.04619,11.47661c0.37854,0.86091 0.1584,1.41763 -0.33029,1.63251c-2.18468,0.96059 -18.20645,8.00525 -21.80236,9.58634c-0.46366,0.20386 -0.79953,-0.14146 -1.09356,-0.81927z" fill="#d0d0d0" stroke="#949494" stroke-width="1.5" stroke-linecap="butt"/><path d="M361.55779,171.85202l-7.71779,11.0984l-14.73221,-1.72305" fill="none" stroke="#949494" stroke-width="1.5" stroke-linecap="round"/><path d="M344.72379,193.83345l6.53789,-10.93077" fill="none" stroke="#949494" stroke-width="1.5" stroke-linecap="round"/><path d="M367.11994,183.92586l-11.66479,-3.11309" fill="none" stroke="#949494" stroke-width="1.5" stroke-linecap="round"/><path d="M355.67684,182.92297c-0.10848,0.62997 -0.12566,1.4169 -0.56006,1.82881c-0.61956,0.58749 -2.87027,0.761 -3.76828,0.62605c-1.52765,-0.22958 -1.46699,-1.75776 -1.20378,-3.28622c0.09444,-0.54841 0.03282,-1.28127 0.38189,-1.66997c0.62381,-0.69464 1.88122,-0.82907 2.86075,-0.68187c1.06969,0.16075 2.33673,0.66996 2.64382,1.62811c0.13148,0.41021 -0.27544,1.09688 -0.35435,1.55508z" fill="#f14141" stroke="none" stroke-width="1" stroke-linecap="butt"/><path d="M355.69745,182.92297c-0.26321,1.52846 -1.71499,2.58141 -3.24265,2.35184c-0.49881,-0.07496 -0.94403,-0.27739 -1.30832,-0.56926c-0.75138,-0.60201 -1.15843,-1.58455 -0.98116,-2.61393c0.26321,-1.52846 1.71499,-2.58141 3.24265,-2.35184c1.52765,0.22958 2.55269,1.65474 2.28947,3.18319z" fill="#f14141" stroke="#8e2626" stroke-width="0.5" stroke-linecap="butt"/><path d="M355.19771,182.84787c-0.21565,1.25231 -1.40515,2.11503 -2.6568,1.92693c-1.25166,-0.1881 -2.09149,-1.35578 -1.87584,-2.60809c0.21565,-1.25231 1.40515,-2.11503 2.6568,-1.92693c1.25166,0.1881 2.09149,1.35578 1.87584,2.60809z" fill="#f14141" stroke="#8e2626" stroke-width="0.5" stroke-linecap="butt"/><path d="M352.16634,184.00314c0,0 -0.77145,-1.8515 -0.84616,-2.0308c-0.01165,-0.02797 0.01408,-0.03854 0.05488,-0.02669c0.15491,0.04498 1.14099,0.36424 1.40709,0.44151c0.04283,0.01243 0.08161,-0.00572 0.10613,-0.04939c0.14496,-0.25818 0.63492,-1.19612 0.69878,-1.30986c0.01304,-0.02323 0.03089,-0.02194 0.04179,0.0042c0.0723,0.17352 0.84366,2.0248 0.84366,2.0248" fill="none" stroke="#8e2626" stroke-width="0.5" stroke-linecap="round"/><path d="M351.72536,182.50179l-0.13802,-0.33126l0.52475,0.15087" fill="#8e2626" stroke="#8e2626" stroke-width="0.5" stroke-linecap="round"/><path d="M353.35092,181.83291l0.26238,-0.47884l0.13802,0.33126" data-paper-data="{&quot;index&quot;:null}" fill="#8e2626" stroke="#8e2626" stroke-width="0.5" stroke-linecap="round"/><path d="M353.14774,182.76176c-0.0349,-0.08376 -0.04391,-0.15968 -0.02013,-0.16959c0.02378,-0.00991 0.07134,0.04996 0.10624,0.13371c0.0349,0.08376 0.04391,0.15968 0.02013,0.16959c-0.02378,0.00991 -0.07134,-0.04996 -0.10624,-0.13371z" fill="#8e2626" stroke="#8e2626" stroke-width="0.5" stroke-linecap="butt"/><path d="M352.76991,182.93556c-0.0349,-0.08376 -0.04391,-0.15968 -0.02013,-0.16959c0.02378,-0.00991 0.07134,0.04996 0.10624,0.13371c0.0349,0.08376 0.04391,0.15968 0.02013,0.16959c-0.02378,0.00991 -0.07134,-0.04996 -0.10624,-0.13371z" fill="#8e2626" stroke="#8e2626" stroke-width="0.5" stroke-linecap="butt"/><g fill="#8e2626" stroke="#8e2626" stroke-width="0" stroke-linecap="butt"><path d="M353.37173,183.16833c0.00832,0.00851 -0.00018,0.01683 -0.00018,0.01683l-0.01281,0.01253c-0.06243,0.05924 -0.13896,0.07564 -0.19305,0.03182c-0.00714,0.07804 -0.06207,0.13916 -0.15311,0.0924l-0.01398,-0.01406c0,0 -0.00832,-0.00851 0.00018,-0.01683c0.00851,-0.00832 0.01683,0.00018 0.01683,0.00018l0.01109,0.01155c0.08118,0.04169 0.11966,-0.02526 0.11611,-0.09733c-0.01149,-0.01544 -0.02126,-0.03472 -0.02878,-0.05811c0,0 -0.00364,-0.01133 0.00769,-0.01497c0.01133,-0.00364 0.01497,0.00769 0.01497,0.00769c0.00048,0.0015 0.00098,0.00298 0.00148,0.00444c0.00101,-0.00069 0.00224,-0.0013 0.00371,-0.00178c0.01133,-0.00364 0.01497,0.00769 0.01497,0.00769c0.00482,0.01498 0.00779,0.03042 0.009,0.04571c0.04548,0.05507 0.11772,0.0443 0.17623,-0.01542l0.01281,-0.01253c0,0 0.00851,-0.00832 0.01683,0.00018z"/><path d="M353.07382,183.11672c-0.00551,-0.0251 0.04103,-0.0492 0.06613,-0.05472c0.0251,-0.00551 0.07316,-0.02294 0.07867,0.00216c0.00551,0.0251 -0.02306,0.09233 -0.04816,0.09784c-0.0251,0.00551 -0.09113,-0.02019 -0.09664,-0.04529z"/></g></g><path d="M324.42447,187.5543c0,3 -2.5,5.5 -5.5,5.5c-3,0 -5.5,-2.4 -5.5,-5.5c0,-0.2 0,-0.2 0,-0.2c0,-0.2 0,-0.3 0,-0.3c0,0 0,0.1 0,0.3c0,0 0,0 0,0.2c0,3 -2.5,5.5 -5.5,5.5c-3,0 -5.5,-2.4 -5.5,-5.5" fill="none" stroke="#000000" stroke-width="2.5" stroke-linecap="round"/></g></g></svg>