<svg version="1.1" xmlns="http://www.w3.org/2000/svg" xmlns:xlink="http://www.w3.org/1999/xlink" width="80" height="100" viewBox="0,0,71.13496,34.91418"><g transform="translate(-204.43252,-162.54291)"><g data-paper-data="{&quot;isPaintingLayer&quot;:true}" fill-rule="nonzero" stroke-linejoin="miter" stroke-miterlimit="10" stroke-dasharray="" stroke-dashoffset="0" style="mix-blend-mode: normal"><path d="M204.68252,178.16224c1.28281,-1.1348 2.71365,-2.12158 4.19382,-3.05902c-0.49339,-6.16738 2.61497,-11.49599 4.14448,-12.23607c1.82554,-0.8881 8.14094,6.46341 9.07838,7.59821c4.14448,-0.64141 8.38763,-0.64141 12.53211,0c0.93744,-1.1348 7.25283,-8.48631 9.07838,-7.59821c1.52951,0.74009 4.63787,6.0687 4.14448,12.23607c1.48017,0.8881 2.911,1.92422 4.19382,3.00968h20.30917c1.63495,0 2.96034,1.32539 2.96034,2.96034v10.65723c0,1.63495 -1.32539,2.96034 -2.96034,2.96034h-47.74166h-1.60352c-0.98678,0 -1.48017,0.37004 -1.97356,0.74009l-1.03612,1.03612c-0.49339,0.37004 -0.98678,0.74009 -1.97356,0.74009h-2.36827c-0.98678,0 -1.48017,-0.37004 -1.97356,-0.74009l-1.03612,-1.03612c-0.49339,-0.37004 -0.98678,-0.74009 -1.97356,-0.74009h-3.03435c-1.63495,0 -2.96034,-1.32539 -2.96034,-2.96034z" fill="#ffbf00" stroke="#cc9900" stroke-width="0.5" stroke-linecap="butt"/><text transform="translate(218.99083,188.81946) scale(0.49339,0.49339)" font-size="16" xml:space="preserve" fill="#ffffff" fill-rule="nonzero" stroke="none" stroke-width="1" stroke-linecap="butt" stroke-linejoin="miter" stroke-miterlimit="10" stroke-dasharray="" stroke-dashoffset="0" font-family="&quot;Helvetica Neue&quot;, Helvetica, sans-serif" font-weight="500" text-anchor="middle" style="mix-blend-mode: normal"><tspan x="0" dy="0">when</tspan></text><text transform="translate(259.07878,188.81946) scale(0.49339,0.49339)" font-size="16" xml:space="preserve" fill="#ffffff" fill-rule="nonzero" stroke="none" stroke-width="1" stroke-linecap="butt" stroke-linejoin="miter" stroke-miterlimit="10" stroke-dasharray="" stroke-dashoffset="0" font-family="&quot;Helvetica Neue&quot;, Helvetica, sans-serif" font-weight="500" text-anchor="middle" style="mix-blend-mode: normal"><tspan x="0" dy="0">clicked</tspan></text><g stroke="none" stroke-width="1" stroke-linecap="butt"><g><path d="M216.6719,177.2248c-0.09868,-0.2467 0.09868,-0.54273 0.34537,-0.59207l1.97356,-0.49339l-1.67753,-1.08546c-0.2467,-0.14802 -0.29603,-0.44405 -0.14802,-0.69075c0.14802,-0.2467 0.44405,-0.29603 0.69075,-0.14802l3.45373,2.36827l-4.09514,1.03612c0,0 -0.04934,0 -0.09868,0c-0.2467,0 -0.44405,-0.14802 -0.44405,-0.39471z" fill-opacity="0" fill="#000000"/><path d="M235.47006,177.61951c-0.04934,0 -0.09868,0 -0.09868,0l-4.09514,-1.03612l3.45373,-2.36827c0.2467,-0.14802 0.54273,-0.09868 0.69075,0.14802c0.14802,0.2467 0.09868,0.54273 -0.14802,0.69075l-1.67753,1.1348l1.97356,0.49339c0.2467,0.04934 0.44405,0.34537 0.34537,0.59207c-0.04934,0.19736 -0.2467,0.34537 -0.44405,0.34537z" fill-opacity="0" fill="#000000"/><path d="M232.21369,176.53405c0,-0.92647 0.75105,-1.67753 1.67753,-1.67753c0.92647,0 1.67753,0.75105 1.67753,1.67753c0,0.92647 -0.75105,1.67753 -1.67753,1.67753c-0.92647,0 -1.67753,-0.75105 -1.67753,-1.67753z" fill-opacity="0.6" fill="#000000"/><path d="M217.36265,176.53405c0,-0.92647 0.75105,-1.67753 1.67753,-1.67753c0.92647,0 1.67753,0.75105 1.67753,1.67753c0,0.92647 -0.75105,1.67753 -1.67753,1.67753c-0.92647,0 -1.67753,-0.75105 -1.67753,-1.67753z" fill-opacity="0.6" fill="#000000"/><path d="M227.18111,178.21158c-0.44405,0 -0.83876,-0.14802 -1.1348,-0.44405c-0.29603,0.29603 -0.64141,0.44405 -1.08546,0.44405c-0.44405,0 -0.8881,-0.14802 -1.1348,-0.44405c-0.49339,-0.54273 -0.54273,-1.28281 -0.54273,-1.38149c0,-0.2467 0.2467,-0.49339 0.49339,-0.49339v0c0.29603,0 0.49339,0.2467 0.49339,0.49339c0,0.19736 0.04934,0.83876 0.69075,0.83876c0.2467,0 0.34537,-0.09868 0.39471,-0.14802c0.14802,-0.14802 0.19736,-0.49339 0.19736,-0.64141c0,-0.04934 0,-0.04934 0,-0.09868c0,-0.2467 0.2467,-0.49339 0.49339,-0.49339v0c0.2467,0 0.49339,0.19736 0.49339,0.49339c0,0 0,0.04934 0,0.09868c0,0.14802 0.04934,0.44405 0.19736,0.59207c0.04934,0.04934 0.14802,0.14802 0.39471,0.14802c0.2467,0 0.34537,-0.09868 0.39471,-0.14802c0.14802,-0.19736 0.19736,-0.54273 0.14802,-0.64141c0,-0.2467 0.19736,-0.49339 0.44405,-0.54273c0.2467,0 0.49339,0.19736 0.54273,0.44405c0,0.09868 0.04934,0.8881 -0.39471,1.38149c-0.14802,0.29603 -0.49339,0.54273 -1.08546,0.54273z" fill-opacity="0.6" fill="#000000"/></g><path d="M240.74934,170.46535c0.83876,-2.07224 2.22026,-4.48985 2.86166,-4.19382c0.78942,0.39471 2.66431,3.89778 2.46695,7.59821c0,0.29603 -0.34537,0.34537 -0.54273,0.2467c-1.48017,-0.78942 -3.1577,-1.38149 -4.24315,-1.7762c-0.69075,-0.2467 -0.8881,-0.93744 -0.54273,-1.87488z" fill="#ffd5e6"/><path d="M215.19173,172.34023c-1.08546,0.39471 -2.76298,0.98678 -4.24315,1.7762c-0.19736,0.09868 -0.54273,0.04934 -0.54273,-0.2467c-0.19736,-3.70043 1.67753,-7.2035 2.46695,-7.59821c0.64141,-0.29603 2.0229,2.12158 2.86166,4.19382c0.39471,0.93744 0.19736,1.62819 -0.54273,1.87488z" fill="#ffd5e6"/></g><path d="M233.22411,182.08868v8.79879" fill="none" stroke="#45993d" stroke-width="2" stroke-linecap="round"/><path d="M233.63796,187.56861l-0.04934,-5.47663c0,0 1.65659,-0.55269 2.68274,-0.2789c1.19136,0.31787 1.8741,1.42577 2.67325,1.53105c0.60105,0.07918 3.02267,-0.82604 3.02267,-0.82604l-0.18839,5.19854c0,0 -1.04852,0.98678 -2.61497,0.98678c-0.80401,0 -1.44048,-0.2467 -2.12158,-0.74009c-0.39428,-0.28562 -1.00623,-0.74009 -1.57885,-0.74009c-0.89417,0 -1.82554,0.34537 -1.82554,0.34537z" fill="#4cbf56" stroke="#45993d" stroke-width="0.5" stroke-linecap="butt"/><path d="M233.22411,182.11485v8.65675" fill="none" stroke="#4cbf56" stroke-width="1" stroke-linecap="round"/></g></g></svg>