<svg width="99" height="95" viewBox="0 0 99 95" fill="none" xmlns="http://www.w3.org/2000/svg">
<path fill-rule="evenodd" clip-rule="evenodd" d="M19.8598 4.11047L29.6577 8.2204L32.8426 7.08989C43.2946 3.37897 56.5248 3.46018 66.0605 7.29376L69.0628 8.50057L79.1665 4.26582C84.7231 1.93613 89.7886 0.0239836 90.4225 0.0152623C91.9591 -0.00490582 94.2473 1.85219 94.6469 3.44329C94.9576 4.68227 94.6049 6.12619 91.4271 16.625C88.5785 26.0365 88.6024 25.5524 90.798 29.4879C95.9818 38.78 98.8942 49.7988 98.9956 60.5042C99.0681 68.0951 98.2684 71.7864 95.5141 76.5842C90.2731 85.7143 78.4901 92.0787 63.6507 93.7957C57.3332 94.5267 41.619 94.5262 35.2895 93.7947C24.0362 92.4941 14.8259 88.6371 8.32255 82.5022C2.17892 76.7068 -0.0253985 70.8804 0.000220422 60.5042C0.0269295 49.8773 2.64987 39.3049 7.57961 29.9545L10.0685 25.2341L8.8889 21.2021C8.2397 18.9847 7.09448 15.0852 6.3439 12.5369C3.70679 3.58501 3.70352 3.52833 5.77538 1.22644C6.44147 0.48676 7.51093 0 8.47082 0C9.34568 0 14.4711 1.84946 19.8598 4.11047Z" fill="#DC143C"/>
<path d="M36.1209 44.9291L33.5431 45.5728L31.6592 46.2821C27.4701 47.8591 23.5862 50.1316 20.1681 52.9966C18.4542 54.4332 17.015 56.1592 15.6739 57.9487V57.9487C11.6839 63.2731 9.56098 69.2932 9.53936 75.3445C9.51863 81.2529 11.3027 84.5706 16.2752 87.8706C21.5388 91.364 28.9933 93.5602 38.1013 94.3008C43.2242 94.7174 55.9427 94.7177 61.0559 94.3014C73.0664 93.3237 82.6032 89.6997 86.8451 84.5008C89.0743 81.7688 89.7215 79.6669 89.6629 75.3445C89.5808 69.2485 87.2236 62.9742 83.0281 57.6831L81.7934 56.4223C77.1821 51.7133 71.6003 48.0655 65.4363 45.7324L63.0063 45.0452C55.2885 42.8623 44.5803 42.816 36.1209 44.9291Z" fill="white"/>
<path d="M79.8381 5.85145L71.4972 9.44682L74.3714 11.1061C77.2516 12.7691 85.3859 20.3905 86.886 22.8313C87.6453 24.0676 87.8164 23.667 90.3369 14.7423C94.3722 0.453488 93.6935 -0.12103 79.8381 5.85145Z" fill="#840C24"/>
<path d="M6.95385 3.47925C6.15585 4.69696 6.27359 5.3576 8.84911 14.1018C10.3595 19.2294 11.5952 23.5732 11.5952 23.7536C11.5952 23.9341 12.5366 22.8946 13.6873 21.4436C16.676 17.6754 22.697 12.1902 25.3052 10.8597C26.53 10.2345 27.3193 9.54276 27.0587 9.32254C25.9375 8.37464 10.4331 2.18031 9.18215 2.18031C8.33237 2.18031 7.47876 2.67797 6.95385 3.47925Z" fill="#840C24"/>
<path d="M44.2014 35.8985C44.2014 38.3068 42.249 40.2591 39.8407 40.2591C37.4324 40.2591 35.48 38.3068 35.48 35.8985C35.48 33.4901 37.4324 31.5378 39.8407 31.5378C42.249 31.5378 44.2014 33.4901 44.2014 35.8985Z" fill="black"/>
<path d="M63.2976 36.2895C63.2976 38.6978 61.3453 40.6501 58.937 40.6501C56.5286 40.6501 54.5763 38.6978 54.5763 36.2895C54.5763 33.8812 56.5286 31.9288 58.937 31.9288C61.3453 31.9288 63.2976 33.8812 63.2976 36.2895Z" fill="black"/>
<path fill-rule="evenodd" clip-rule="evenodd" d="M51.0541 53.187H47.7836V56.2054C47.7836 56.2073 47.7835 56.2091 47.7835 56.2109C47.7835 58.9203 45.5872 61.1167 42.8778 61.1167C40.1684 61.1167 37.972 58.9203 37.972 56.2109C37.972 56.1116 37.8929 56.0292 37.7936 56.0292H34.8853C34.7843 56.0292 34.7015 56.1099 34.7015 56.2109C34.7015 60.7266 38.3622 64.3872 42.8778 64.3872C45.5524 64.3872 47.9271 63.1029 49.4188 61.1174C50.9106 63.1029 53.2852 64.3872 55.9599 64.3872C60.4755 64.3872 64.1361 60.7266 64.1361 56.2109C64.1361 56.1099 64.0534 56.0292 63.9524 56.0292H61.0441C60.9448 56.0292 60.8656 56.1116 60.8656 56.2109C60.8656 58.9203 58.6693 61.1167 55.9599 61.1167C53.2505 61.1167 51.0541 58.9203 51.0541 56.2109C51.0541 56.2102 51.0541 56.2095 51.0541 56.2088V53.187Z" fill="black"/>
<mask id="path-3-inside-1_3449_170" fill="white">
<path fill-rule="evenodd" clip-rule="evenodd" d="M46.7804 45.0107C44.9265 45.0107 43.0594 46.0639 43.0594 47.9179V47.9179C43.0594 51.43 45.9066 54.2772 49.4188 54.2772C52.9309 54.2772 55.7781 51.43 55.7781 47.9179V47.9179C55.7781 46.0639 53.911 45.0107 52.0571 45.0107H46.7804Z"/>
</mask>
<path fill-rule="evenodd" clip-rule="evenodd" d="M46.7804 45.0107C44.9265 45.0107 43.0594 46.0639 43.0594 47.9179V47.9179C43.0594 51.43 45.9066 54.2772 49.4188 54.2772C52.9309 54.2772 55.7781 51.43 55.7781 47.9179V47.9179C55.7781 46.0639 53.911 45.0107 52.0571 45.0107H46.7804Z" fill="#840C24"/>
<path d="M49.4188 43.15C52.052 43.15 54.1866 45.2846 54.1866 47.9179H31.9323C31.9323 57.5754 39.7612 65.4043 49.4188 65.4043V43.15ZM44.6509 47.9179C44.6509 45.2847 46.7855 43.15 49.4188 43.15V65.4043C59.0763 65.4043 66.9052 57.5754 66.9052 47.9179H44.6509ZM52.0571 33.8836H46.7804V56.1379H52.0571V33.8836ZM66.9052 47.9179C66.9052 42.7548 64.1363 38.8803 61.0468 36.6907C58.1838 34.6616 54.915 33.8836 52.0571 33.8836V56.1379C51.0531 56.1379 49.6448 55.8865 48.1788 54.8475C46.4863 53.648 44.6509 51.227 44.6509 47.9179H66.9052ZM54.1866 47.9179C54.1866 51.227 52.3512 53.648 50.6587 54.8475C49.1927 55.8865 47.7844 56.1379 46.7804 56.1379V33.8836C43.9225 33.8836 40.6538 34.6616 37.7907 36.6907C34.7012 38.8803 31.9323 42.7548 31.9323 47.9179H54.1866Z" fill="black" mask="url(#path-3-inside-1_3449_170)"/>
</svg>
