<svg width="354" height="368" viewBox="0 0 354 368" fill="none" xmlns="http://www.w3.org/2000/svg">
<path fill-rule="evenodd" clip-rule="evenodd" d="M72.536 45.5025L107.105 60.0032L118.342 56.0145C155.219 42.9217 201.898 43.2082 235.541 56.7338L246.134 60.9917L281.782 46.0506C301.387 37.831 319.258 31.0846 321.495 31.0538C326.917 30.9827 334.99 37.5349 336.4 43.1486C337.496 47.52 336.251 52.6144 325.039 89.6564C314.989 122.862 315.074 121.154 322.82 135.039C341.109 167.823 351.385 206.7 351.743 244.471C351.998 271.253 349.177 284.276 339.459 301.204C320.968 333.417 279.395 355.872 227.039 361.93C204.75 364.509 149.307 364.507 126.975 361.926C87.2713 357.337 54.7756 343.729 31.8304 322.084C10.1544 301.637 2.37719 281.08 2.46757 244.471C2.56181 206.977 11.8161 169.675 29.2091 136.685L37.9903 120.031L33.8286 105.805C31.5381 97.9818 27.4975 84.2235 24.8493 75.2327C15.5451 43.6486 15.5335 43.4486 22.8435 35.3271C25.1936 32.7174 28.9668 31 32.3535 31C35.4402 31 53.5237 37.5253 72.536 45.5025Z" fill="#FF7319"/>
<path d="M129.908 189.519L120.813 191.79L114.167 194.292C99.3866 199.856 85.6836 207.874 73.6238 217.982C67.5767 223.051 62.4991 229.141 57.7673 235.455C43.6899 254.24 36.1998 275.48 36.1235 296.83C36.0504 317.676 42.345 329.382 59.8888 341.025C78.4599 353.35 104.761 361.099 136.896 363.712C154.97 365.181 199.844 365.183 217.884 363.714C260.259 360.264 293.907 347.478 308.873 329.135C316.739 319.496 319.022 312.08 318.815 296.83C318.525 275.322 310.209 253.185 295.406 234.517L291.05 230.069C274.78 213.455 255.087 200.584 233.339 192.353L224.766 189.928C197.535 182.227 159.755 182.063 129.908 189.519Z" fill="white"/>
<path d="M284.151 51.6451L254.723 64.3302L264.864 70.1843C275.026 76.0519 303.725 102.942 309.018 111.553C311.697 115.915 312.3 114.502 321.193 83.0138C335.43 32.6 333.036 30.573 284.151 51.6451Z" fill="#77500C"/>
<path d="M27.0013 43.2755C24.1858 47.5718 24.6012 49.9027 33.6882 80.754C39.0173 98.8452 43.3771 114.171 43.3771 114.807C43.3771 115.444 46.6984 111.777 50.7582 106.657C61.3029 93.3623 82.5461 74.0095 91.7484 69.3151C96.0698 67.1092 98.8545 64.6687 97.9353 63.8918C93.9793 60.5474 39.2769 38.6926 34.8632 38.6926C31.865 38.6926 28.8533 40.4484 27.0013 43.2755Z" fill="#77500C"/>
<path d="M158.418 157.657C158.418 166.154 151.53 173.042 143.033 173.042C134.536 173.042 127.647 166.154 127.647 157.657C127.647 149.16 134.536 142.272 143.033 142.272C151.53 142.272 158.418 149.16 158.418 157.657Z" fill="black"/>
<path d="M225.793 159.036C225.793 167.533 218.905 174.422 210.408 174.422C201.911 174.422 195.023 167.533 195.023 159.036C195.023 150.539 201.911 143.651 210.408 143.651C218.905 143.651 225.793 150.539 225.793 159.036Z" fill="black"/>
<path fill-rule="evenodd" clip-rule="evenodd" d="M182.596 218.654H171.057V228.682H171.045C171.053 228.895 171.057 229.108 171.057 229.323C171.057 238.882 163.307 246.632 153.748 246.632C144.189 246.632 136.44 238.882 136.44 229.323C136.44 229.108 136.444 228.895 136.451 228.682H124.908C124.903 228.895 124.901 229.109 124.901 229.323C124.901 245.255 137.816 258.171 153.748 258.171C163.185 258.171 171.563 253.639 176.826 246.634C182.089 253.639 190.468 258.171 199.904 258.171C215.836 258.171 228.752 245.255 228.752 229.323C228.752 229.109 228.749 228.895 228.745 228.682H217.201C217.209 228.895 217.213 229.108 217.213 229.323C217.213 238.882 209.464 246.632 199.904 246.632C190.345 246.632 182.596 238.882 182.596 229.323C182.596 229.108 182.6 228.895 182.608 228.682H182.596V218.654Z" fill="black"/>
<mask id="path-3-inside-1_1278_6089" fill="white">
<path fill-rule="evenodd" clip-rule="evenodd" d="M167.517 189.807C160.976 189.807 154.389 193.523 154.389 200.064C154.389 212.455 164.434 222.501 176.826 222.501C189.217 222.501 199.263 212.455 199.263 200.064C199.263 193.523 192.676 189.807 186.135 189.807H167.517Z"/>
</mask>
<path fill-rule="evenodd" clip-rule="evenodd" d="M167.517 189.807C160.976 189.807 154.389 193.523 154.389 200.064C154.389 212.455 164.434 222.501 176.826 222.501C189.217 222.501 199.263 212.455 199.263 200.064C199.263 193.523 192.676 189.807 186.135 189.807H167.517Z" fill="#77500C"/>
<path d="M176.826 211.374C170.58 211.374 165.516 206.31 165.516 200.064H143.262C143.262 218.601 158.289 233.628 176.826 233.628V211.374ZM188.136 200.064C188.136 206.31 183.072 211.374 176.826 211.374V233.628C195.363 233.628 210.39 218.601 210.39 200.064H188.136ZM186.135 178.68H167.517V200.934H186.135V178.68ZM210.39 200.064C210.39 192.557 206.441 186.845 201.586 183.404C196.957 180.124 191.336 178.68 186.135 178.68V200.934C186.735 200.934 187.318 201.022 187.816 201.168C188.321 201.316 188.611 201.485 188.718 201.561C188.816 201.631 188.651 201.54 188.454 201.194C188.231 200.802 188.136 200.37 188.136 200.064H210.39ZM165.516 200.064C165.516 200.37 165.42 200.802 165.198 201.194C165.001 201.54 164.836 201.631 164.934 201.561C165.041 201.485 165.331 201.316 165.836 201.168C166.334 201.022 166.917 200.934 167.517 200.934V178.68C162.316 178.68 156.695 180.124 152.066 183.404C147.211 186.845 143.262 192.557 143.262 200.064H165.516Z" fill="black" mask="url(#path-3-inside-1_1278_6089)"/>
<mask id="mask0_1278_6089" style="mask-type:alpha" maskUnits="userSpaceOnUse" x="0" y="221" width="354" height="147">
<path d="M79.1324 248.049L3.97072 221C-24.5321 348.5 106.467 373 203.473 366.5C218.504 365.493 249.474 365 285.474 348.5C357.474 315.5 355.974 260.167 351.974 231L269.88 254.455C207.197 272.365 140.472 270.124 79.1324 248.049Z" fill="black"/>
</mask>
<g mask="url(#mask0_1278_6089)">
<rect x="-7.5332" y="212.5" width="360" height="186" fill="#ACFFF0"/>
<path d="M125.259 254.507L110.623 253.746L121.743 263.294L172.989 307.294L176.156 310.013L179.397 307.382L232.151 264.572L243.666 255.227L228.843 255.692L178.469 257.271L125.259 254.507Z" fill="#EFEFEF" stroke="#8CDBCD" stroke-width="10"/>
</g>
<circle cx="116.5" cy="314.5" r="15.5" fill="white"/>
<path fill-rule="evenodd" clip-rule="evenodd" d="M104.073 254.401C102.371 261.293 100.51 272.269 100.45 282.898C100.42 288.214 100.84 293.533 102.001 298.249C103.04 302.472 104.715 306.381 107.35 309.346C106.49 310.869 106 312.627 106 314.5C106 320.299 110.701 325 116.5 325C122.299 325 127 320.299 127 314.5C127 308.701 122.299 304 116.5 304C114.396 304 112.437 304.618 110.795 305.684C109.044 303.568 107.739 300.643 106.856 297.054C105.827 292.873 105.422 287.998 105.45 282.926C105.507 272.781 107.296 262.207 108.927 255.599L104.073 254.401Z" fill="#D4D4D4"/>
<path d="M259.449 256C262.782 269.5 266.749 299.1 255.949 309.5" stroke="#D4D4D4" stroke-width="5"/>
<path d="M241.343 318.477C241.74 316.749 242.473 315.116 243.501 313.672C244.529 312.228 245.832 311 247.334 310.059C248.837 309.118 250.51 308.482 252.258 308.187C254.006 307.893 255.795 307.946 257.523 308.343C259.251 308.74 260.884 309.473 262.328 310.501C263.772 311.529 265 312.832 265.941 314.334C266.882 315.837 267.518 317.51 267.813 319.258C268.107 321.006 268.054 322.795 267.657 324.523L264.452 323.787C264.753 322.48 264.792 321.127 264.57 319.804C264.347 318.482 263.866 317.216 263.154 316.08C262.442 314.943 261.514 313.958 260.421 313.18C259.329 312.403 258.094 311.848 256.787 311.548C255.48 311.247 254.127 311.208 252.804 311.43C251.482 311.653 250.216 312.134 249.08 312.846C247.943 313.558 246.958 314.486 246.18 315.579C245.403 316.671 244.848 317.906 244.548 319.213L241.343 318.477Z" fill="#696969"/>
<path d="M241.343 318.477C241.74 316.749 242.473 315.116 243.501 313.672C244.529 312.228 245.832 311 247.334 310.059C248.837 309.118 250.51 308.482 252.258 308.187C254.006 307.893 255.795 307.946 257.523 308.343C259.251 308.74 260.884 309.473 262.328 310.501C263.772 311.529 265 312.832 265.941 314.334C266.882 315.837 267.518 317.51 267.813 319.258C268.107 321.006 268.054 322.795 267.657 324.523L264.452 323.787C264.753 322.48 264.792 321.127 264.57 319.804C264.347 318.482 263.866 317.216 263.154 316.08C262.442 314.943 261.514 313.958 260.421 313.18C259.329 312.403 258.094 311.848 256.787 311.548C255.48 311.247 254.127 311.208 252.804 311.43C251.482 311.653 250.216 312.134 249.08 312.846C247.943 313.558 246.958 314.486 246.18 315.579C245.403 316.671 244.848 317.906 244.548 319.213L241.343 318.477Z" fill="#696969"/>
<path d="M238.707 332.308C237.849 332.01 236.901 332.462 236.709 333.35C236.385 334.851 236.318 336.4 236.515 337.93C236.712 339.461 237.17 340.943 237.865 342.312C238.276 343.122 239.307 343.319 240.061 342.813C240.815 342.307 241.002 341.289 240.623 340.463C240.195 339.53 239.908 338.535 239.776 337.51C239.644 336.485 239.669 335.45 239.846 334.438C240.003 333.544 239.564 332.607 238.707 332.308Z" fill="#696969"/>
<path d="M261.794 337.582C262.698 337.664 263.375 338.467 263.184 339.355C262.861 340.856 262.283 342.295 261.472 343.608C260.661 344.921 259.633 346.082 258.436 347.043C257.727 347.611 256.706 347.365 256.228 346.593C255.75 345.821 255.999 344.817 256.685 344.221C257.46 343.548 258.131 342.759 258.674 341.88C259.217 341.001 259.622 340.047 259.877 339.053C260.103 338.173 260.89 337.5 261.794 337.582Z" fill="#696969"/>
<rect x="242.032" y="316.131" width="3.29571" height="19" rx="1.64785" transform="rotate(17.1645 242.032 316.131)" fill="#D9D9D9"/>
<rect x="265.032" y="322.131" width="3.29571" height="19" rx="1.64785" transform="rotate(17.1645 265.032 322.131)" fill="#D9D9D9"/>
<circle cx="240" cy="343" r="1" fill="#696969"/>
<circle cx="256" cy="347" r="1" fill="#696969"/>
</svg>
