<svg width="500" height="500" viewBox="0 0 500 500" fill="none" xmlns="http://www.w3.org/2000/svg">
<path fill-rule="evenodd" clip-rule="evenodd" d="M145.069 123.503L179.638 138.003L190.875 134.015C227.752 120.922 274.431 121.208 308.075 134.734L318.667 138.992L354.315 124.051C373.92 115.831 391.792 109.085 394.028 109.054C399.45 108.983 407.523 115.535 408.933 121.149C410.029 125.52 408.785 130.614 397.573 167.656C387.522 200.862 387.607 199.154 395.353 213.039C413.643 245.823 423.918 284.7 424.276 322.471C424.532 349.253 421.71 362.277 411.993 379.204C393.501 411.417 351.928 433.872 299.572 439.93C277.283 442.509 221.84 442.507 199.508 439.926C159.805 435.337 127.309 421.729 104.364 400.084C82.6877 379.637 74.9104 359.08 75.0008 322.471C75.095 284.977 84.3493 247.675 101.742 214.685L110.524 198.031L106.362 183.805C104.071 175.982 100.031 162.224 97.3825 153.233C88.0783 121.649 88.0667 121.449 95.3767 113.327C97.7268 110.717 101.5 109 104.887 109C107.973 109 126.057 115.525 145.069 123.503Z" fill="#FF7319"/>
<path d="M202.442 267.518L193.347 269.79L186.7 272.292C171.92 277.856 158.217 285.874 146.157 295.982C140.11 301.051 135.032 307.14 130.301 313.454C116.223 332.24 108.733 353.48 108.657 374.83C108.584 395.676 114.878 407.382 132.422 419.025C150.993 431.35 177.294 439.099 209.429 441.712C227.504 443.181 272.377 443.182 290.418 441.714C332.793 438.264 366.441 425.478 381.407 407.135C389.272 397.496 391.556 390.08 391.349 374.83C391.059 353.322 382.742 331.185 367.94 312.517L363.584 308.069C347.314 291.454 327.62 278.584 305.872 270.352L297.299 267.928C270.069 260.226 232.288 260.063 202.442 267.518Z" fill="white"/>
<path d="M356.683 129.645L327.255 142.33L337.396 148.184C347.558 154.052 376.257 180.941 381.55 189.553C384.229 193.915 384.832 192.502 393.725 161.014C407.962 110.6 405.568 108.573 356.683 129.645Z" fill="#77500C"/>
<path d="M99.5332 121.275C96.7176 125.572 97.133 127.903 106.22 158.754C111.549 176.845 115.909 192.171 115.909 192.807C115.909 193.444 119.23 189.776 123.29 184.657C133.835 171.362 155.078 152.009 164.28 147.315C168.602 145.109 171.386 142.669 170.467 141.892C166.511 138.547 111.809 116.692 107.395 116.692C104.397 116.692 101.385 118.448 99.5332 121.275Z" fill="#77500C"/>
<path d="M230.328 241.47C230.328 249.967 223.44 256.855 214.943 256.855C206.446 256.855 199.558 249.967 199.558 241.47C199.558 232.972 206.446 226.084 214.943 226.084C223.44 226.084 230.328 232.972 230.328 241.47Z" fill="black"/>
<path d="M300.081 241.47C300.081 249.967 293.192 256.855 284.695 256.855C276.198 256.855 269.31 249.967 269.31 241.47C269.31 232.972 276.198 226.084 284.695 226.084C293.192 226.084 300.081 232.972 300.081 241.47Z" fill="black"/>
<path fill-rule="evenodd" clip-rule="evenodd" d="M207.038 213.628C207.033 213.841 207.031 214.055 207.031 214.269C207.031 230.201 219.946 243.116 235.878 243.116C236.229 243.116 236.577 243.11 236.925 243.098V231.546C236.577 231.567 236.227 231.578 235.874 231.578C226.315 231.578 218.566 223.829 218.566 214.269C218.566 214.055 218.57 213.841 218.577 213.628H207.038ZM292.031 213.628C292.036 213.841 292.038 214.055 292.038 214.269C292.038 230.201 279.123 243.116 263.191 243.116C262.737 243.116 262.285 243.106 261.836 243.085V231.525C262.285 231.56 262.738 231.578 263.195 231.578C272.754 231.578 280.504 223.829 280.504 214.269C280.504 214.055 280.5 213.841 280.492 213.628H292.031ZM243.555 298.162H255.094V308.189H255.106C255.098 308.402 255.094 308.616 255.094 308.83C255.094 318.389 262.843 326.139 272.403 326.139C281.962 326.139 289.711 318.389 289.711 308.83C289.711 308.616 289.707 308.402 289.699 308.189H301.243C301.248 308.403 301.25 308.616 301.25 308.831C301.25 324.763 288.334 337.678 272.402 337.678C262.966 337.678 254.588 333.147 249.324 326.142C244.061 333.147 235.683 337.678 226.246 337.678C210.314 337.678 197.399 324.763 197.399 308.831C197.399 308.616 197.401 308.403 197.406 308.189H208.949C208.942 308.402 208.938 308.616 208.938 308.83C208.938 318.389 216.687 326.139 226.246 326.139C235.805 326.139 243.555 318.389 243.555 308.83C243.555 308.616 243.551 308.402 243.543 308.189H243.555V298.162Z" fill="black"/>
<mask id="path-3-inside-1_3099_146" fill="white">
<path fill-rule="evenodd" clip-rule="evenodd" d="M239.59 267.808C233.05 267.808 226.463 271.523 226.463 278.064C226.463 290.455 236.508 300.501 248.9 300.501C261.291 300.501 271.337 290.455 271.337 278.064C271.337 271.523 264.75 267.808 258.21 267.808H239.59Z"/>
</mask>
<path fill-rule="evenodd" clip-rule="evenodd" d="M239.59 267.808C233.05 267.808 226.463 271.523 226.463 278.064C226.463 290.455 236.508 300.501 248.9 300.501C261.291 300.501 271.337 290.455 271.337 278.064C271.337 271.523 264.75 267.808 258.21 267.808H239.59Z" fill="#77500C"/>
<path d="M248.9 289.374C242.654 289.374 237.59 284.31 237.59 278.064H215.336C215.336 296.601 230.363 311.628 248.9 311.628V289.374ZM260.21 278.064C260.21 284.31 255.146 289.374 248.9 289.374V311.628C267.437 311.628 282.464 296.601 282.464 278.064H260.21ZM258.21 256.68H239.59V278.935H258.21V256.68ZM282.464 278.064C282.464 270.557 278.515 264.846 273.66 261.405C269.031 258.124 263.411 256.68 258.21 256.68V278.935C258.81 278.935 259.393 279.022 259.891 279.168C260.395 279.316 260.685 279.486 260.792 279.561C260.89 279.631 260.725 279.541 260.528 279.194C260.305 278.802 260.21 278.37 260.21 278.064H282.464ZM237.59 278.064C237.59 278.37 237.494 278.802 237.272 279.194C237.075 279.541 236.91 279.631 237.008 279.561C237.115 279.486 237.404 279.316 237.909 279.168C238.407 279.022 238.99 278.935 239.59 278.935V256.68C234.389 256.68 228.768 258.124 224.14 261.405C219.284 264.846 215.336 270.557 215.336 278.064H237.59Z" fill="black" mask="url(#path-3-inside-1_3099_146)"/>
<rect x="351.591" y="286.173" width="34.2436" height="118.196" rx="9" transform="rotate(15 351.591 286.173)" fill="#8D5332"/>
<path d="M386.471 156C399.168 171.233 404.981 191.048 402.524 210.726L391.596 298.249C390.441 307.499 381.381 313.596 372.377 311.184L346.731 304.312L386.471 156Z" fill="url(#paint0_linear_3099_146)"/>
<defs>
<linearGradient id="paint0_linear_3099_146" x1="419.482" y1="160.843" x2="296.769" y2="224.024" gradientUnits="userSpaceOnUse">
<stop stop-color="#D9D9D9"/>
<stop offset="0.385317" stop-color="#D9D9D9"/>
<stop offset="0.385417" stop-color="white"/>
<stop offset="0.65625" stop-color="white"/>
<stop offset="0.65635" stop-color="#D9D9D9"/>
<stop offset="1" stop-color="#DCDCDC"/>
<stop offset="1" stop-color="#D9D9D9"/>
</linearGradient>
</defs>
</svg>
