<?xml version="1.0" encoding="UTF-8"?>
<svg id="Layer_1" data-name="Layer 1" xmlns="http://www.w3.org/2000/svg" viewBox="0 0 210.06 210.06">
  <defs>
    <style>
      .cls-1 {
        fill: #ffda67;
        stroke: #c9982c;
      }

      .cls-1, .cls-2 {
        stroke-miterlimit: 10;
      }

      .cls-1, .cls-3, .cls-4 {
        stroke-width: 3px;
      }

      .cls-2 {
        stroke: #665729;
        stroke-width: 4px;
      }

      .cls-2, .cls-3, .cls-4 {
        stroke-linecap: round;
      }

      .cls-2, .cls-4 {
        fill: none;
      }

      .cls-3 {
        fill: #54b956;
      }

      .cls-3, .cls-4 {
        stroke: #459945;
        stroke-linejoin: round;
      }

      .cls-5 {
        fill: #fad4e4;
      }

      .cls-5, .cls-6 {
        stroke-width: 0px;
      }

      .cls-6 {
        fill: #665729;
      }
    </style>
  </defs>
  <path class="cls-1" d="m39.26,161.04c4.28,0,7.75,3.46,7.75,7.75s3.46,7.75,7.75,7.75h14.36c4.28,0,7.75-3.46,7.75-7.75s3.46-7.75,7.75-7.75,7.75,3.46,7.75,7.75,3.46,7.75,7.75,7.75h14.36c4.28,0,7.75-3.46,7.75-7.75s3.46-7.75,7.75-7.75h118.05c7.52,0,13.6-6.08,13.6-13.6v-50.3c0-7.52-6.08-13.6-13.6-13.6h-62c-2.52-2.32-5.53-4.75-9.07-7.09-1.48-.98-2.94-1.85-4.34-2.64-.11-8.19-1.13-14.83-2.08-19.46-2.08-10.18-3.76-17.86-9.45-20.21-.62-.26-3.19-1.25-7.93,0-14.03,3.69-21.41,20.18-23.24,24.56-5.64-1.25-13.12-2.34-21.91-2.08-7.54.22-14.01,1.37-19.08,2.64-1.95-2.51-17.51-22.43-25.69-25.12-.55-.18-1.91-.63-3.59-.38-1.03.15-5.08,1-8.88,9.07-6.59,13.99-1.66,26.74-8,32.35-.49.43-2.19,1.83-4.01,3.26-2.87,2.24-5.31,3.97-6.97,5.1,0,0,0,69.76,0,69.76,0,4.28,3.46,7.75,7.75,7.75"/>
  <g>
    <path class="cls-5" d="m52.78,70.39c-2.44-.86-1.99-8.94-.43-14.83,1.26-4.76,2.42-9.11,5.28-9.83,4.89-1.23,13.59,8.4,11.85,15.42-.07.28-.29,1.1-.84,2.04-2.18,3.7-5.85,2.9-13.78,6.64-1.06.5-1.52.76-2.08.56Z"/>
    <path class="cls-5" d="m165.27,71.62c2.44-.86,1.99-8.94.43-14.83-1.26-4.76-2.42-9.11-5.28-9.83-4.89-1.23-13.59,8.4-11.85,15.42.07.28.29,1.1.84,2.04,2.18,3.7,5.85,2.9,13.78,6.64,1.06.5,1.52.76,2.08.56Z"/>
  </g>
  <g>
    <circle class="cls-6" cx="79.03" cy="81.91" r="6.8"/>
    <circle class="cls-6" cx="127.39" cy="81.91" r="6.8"/>
    <path class="cls-2" d="m93.94,81.87c0,2.34,1.73,4.24,3.86,4.24"/>
    <path class="cls-2" d="m97.8,86.11c2.13,0,3.86-1.9,3.86-4.24"/>
    <path class="cls-2" d="m101.66,81.87c0,2.34,1.73,4.24,3.86,4.24"/>
    <path class="cls-2" d="m105.51,86.11c2.13,0,3.86-1.9,3.86-4.24"/>
  </g>
  <path class="cls-3" d="m88.62,110.67c1.94-.54,4.78-1.02,7.93-.28,4.88,1.14,6.44,4.23,10.48,4.63,1.93.19,4.75-.21,8.41-3.02v16.76c-3.65,2.82-6.47,3.21-8.41,3.02-4.05-.4-5.61-3.49-10.48-4.63-3.16-.74-6-.26-7.93.28"/>
  <line class="cls-4" x1="87.87" y1="108.87" x2="87.87" y2="139.38"/>
</svg>