<svg width="500" height="500" viewBox="0 0 500 500" fill="none" xmlns="http://www.w3.org/2000/svg">
<path fill-rule="evenodd" clip-rule="evenodd" d="M148.017 94.8591L183.548 109.713L195.098 105.627C232.999 92.215 280.976 92.5085 315.554 106.365L326.441 110.726L363.08 95.4206C383.228 86.9982 401.599 80.0867 403.895 80.0561C409.469 79.9821 417.768 86.6944 419.214 92.4472C420.341 96.9239 419.063 102.143 407.539 140.095C397.21 174.114 397.297 172.366 405.258 186.589C424.056 220.18 434.618 260.01 434.984 298.707C435.247 326.144 432.349 339.487 422.361 356.829C403.355 389.832 360.627 412.838 306.815 419.046C283.905 421.687 226.923 421.687 203.969 419.04C163.162 414.342 129.764 400.399 106.18 378.222C83.9022 357.273 75.9086 336.212 76.0008 298.707C76.0981 260.293 85.61 222.076 103.487 188.276L112.512 171.215L108.234 156.639C105.881 148.625 101.728 134.529 99.006 125.318C89.4429 92.9576 89.4301 92.7535 96.9449 84.4332C99.3593 81.7584 103.238 80 106.718 80C109.89 80 128.476 86.6843 148.017 94.8591H148.017Z" fill="#FF7319"/>
<path d="M304.478 242.826L313.29 245.309C335.643 253.741 355.883 266.929 372.605 283.95L377.083 288.508C392.297 307.632 400.843 330.314 401.143 352.347C401.355 367.972 399.007 375.57 390.924 385.445C375.541 404.24 340.958 417.338 297.406 420.873C278.863 422.376 232.743 422.376 214.167 420.87C181.138 418.193 154.105 410.255 135.018 397.627C116.987 385.698 110.517 373.705 110.594 352.347C110.671 330.475 118.37 308.714 132.839 289.468L140.144 279.751C154.541 265.487 171.808 254.425 190.806 247.297L197.637 244.732L206.985 242.404C237.661 234.768 276.492 234.934 304.478 242.825V242.826Z" fill="#FEFFFF"/>
<path d="M403.586 133.288C394.445 165.549 393.825 166.998 391.07 162.529C385.632 153.706 356.134 126.157 345.69 120.144L335.267 114.146L365.513 101.15C415.758 79.5634 418.218 81.6385 403.586 133.288H403.586Z" fill="#77500C"/>
<path d="M109.296 87.8812C113.833 87.8812 170.054 110.272 174.12 113.697C175.065 114.493 172.205 116.995 167.763 119.253C158.305 124.064 136.47 143.89 125.634 157.512C121.461 162.756 118.048 166.516 118.048 165.863C118.048 165.209 113.567 149.508 108.088 130.973C98.7498 99.3663 98.3223 96.9774 101.216 92.5773C103.12 89.6805 106.216 87.8812 109.296 87.8812Z" fill="#77500C"/>
<path fill-rule="evenodd" clip-rule="evenodd" d="M263.083 288.003H263.091C263.089 288.084 263.086 288.167 263.083 288.25V289.133C263.32 299.203 271.582 307.295 281.741 307.295C283.167 307.295 284.556 307.134 285.891 306.832V319.424C284.537 319.604 283.151 319.697 281.746 319.697C271.571 319.697 262.535 314.824 256.862 307.295C251.186 314.824 242.15 319.697 231.975 319.697C230.568 319.697 229.185 319.604 227.828 319.424V306.832C229.163 307.134 230.552 307.295 231.981 307.295C242.217 307.295 250.531 299.075 250.641 288.895V288.691V288.488C250.638 288.325 250.636 288.164 250.63 288.003H250.641V265.266H263.083L263.083 288.003Z" fill="black"/>
<path fill-rule="evenodd" clip-rule="evenodd" d="M263.58 256.41C267.89 256.41 272.233 258.85 272.233 263.147C272.233 271.288 265.611 277.886 257.445 277.886C249.278 277.886 242.659 271.288 242.659 263.147C242.659 258.85 246.999 256.41 251.311 256.41H263.58Z" fill="#77500C" stroke="black" stroke-width="9" stroke-miterlimit="10"/>
<path d="M291.516 231.404C282.783 231.404 275.703 224.347 275.703 215.641C275.703 206.936 282.783 199.879 291.516 199.879C300.249 199.879 307.329 206.936 307.329 215.641C307.329 224.347 300.249 231.404 291.516 231.404Z" fill="black"/>
<path fill-rule="evenodd" clip-rule="evenodd" d="M297.988 185.82C297.98 186.047 297.977 186.277 297.977 186.507C297.977 196.764 306.32 205.08 316.61 205.08C316.988 205.08 317.366 205.069 317.742 205.048V217.443C317.366 217.457 316.991 217.462 316.615 217.462C299.463 217.462 285.561 203.604 285.561 186.507C285.561 186.277 285.564 186.047 285.569 185.82H297.988Z" fill="black"/>
<path d="M204.021 215.718C204.021 207.013 211.1 199.956 219.833 199.956C228.567 199.956 235.646 207.013 235.646 215.718C235.646 224.424 228.567 231.481 219.833 231.481C211.1 231.481 204.021 224.424 204.021 215.718Z" fill="black"/>
<path fill-rule="evenodd" clip-rule="evenodd" d="M225.78 185.896C225.785 186.123 225.788 186.353 225.788 186.583C225.788 203.681 211.886 217.539 194.734 217.539C194.358 217.539 193.983 217.533 193.607 217.52V205.125C193.983 205.146 194.361 205.157 194.739 205.157C205.029 205.157 213.372 196.84 213.372 186.583C213.372 186.353 213.369 186.123 213.361 185.896H225.78Z" fill="black"/>
</svg>
