<svg width="71" height="71" viewBox="0 0 71 71" fill="none" xmlns="http://www.w3.org/2000/svg">
<g clip-path="url(#clip0_3450_7)">
<path d="M65.859 46.4317C65.859 61.3698 52.8988 66.1902 36.9399 66.1902C20.9811 66.1902 8.02087 61.4227 8.02087 46.4317C8.02087 39.3864 9.9522 31.3877 14.069 24.8192L10.6637 12.9535C10.003 10.6757 12.1885 8.60976 14.2214 9.51029L25.4536 14.3837C28.7572 12.8475 32.5691 11.947 36.9399 11.947C41.2092 11.947 45.021 12.8475 48.3246 14.4367L59.6584 9.51029C61.6914 8.66274 63.8769 10.7286 63.2162 12.9535L59.7601 24.9781C63.8769 31.4406 65.859 39.4394 65.859 46.4317Z" fill="#00E4C9"/>
<path d="M59.5568 55.8607C59.5568 63.7006 49.392 66.1903 36.8892 66.1903C24.3864 66.1903 14.2215 63.7006 14.2215 55.8607C14.2215 48.0209 20.9811 37.8503 36.8892 37.8503C52.4414 37.7973 59.5568 48.0209 59.5568 55.8607Z" fill="white"/>
<path d="M34.3987 41.3992C34.3987 40.3398 35.5168 40.022 36.9399 40.022C38.363 40.022 39.4811 40.3398 39.4811 41.3992C39.4811 42.4587 38.7188 43.783 36.9399 43.783C35.1611 43.783 34.3987 42.4587 34.3987 41.3992Z" fill="#945600" stroke="black" stroke-width="1.5" stroke-miterlimit="10"/>
<path d="M45.5293 44.8425C45.5293 47.3322 43.598 49.2921 41.2093 49.2921C38.8205 49.2921 36.8892 47.2792 36.8892 44.8425M36.8892 44.8425C36.8892 44.7365 36.8892 44.7365 36.8892 44.7365C36.8892 44.5776 36.8892 44.4717 36.8892 44.4717M36.8892 44.8425C36.8892 47.3322 34.9579 49.2921 32.5691 49.2921C30.1804 49.2921 28.249 47.2792 28.249 44.8425" stroke="black" stroke-width="2.5" stroke-miterlimit="10" stroke-linecap="round"/>
<path d="M29.4688 32.3415C29.4688 30.9372 30.561 29.7988 31.9083 29.7988C33.2557 29.7988 34.3479 30.9372 34.3479 32.3415C34.3479 33.7457 33.2557 34.8841 31.9083 34.8841C30.561 34.8841 29.4688 33.7457 29.4688 32.3415Z" fill="black"/>
<path d="M39.4812 32.3415C39.4812 30.9372 40.5734 29.7988 41.9208 29.7988C43.2681 29.7988 44.3603 30.9372 44.3603 32.3415C44.3603 33.7457 43.2681 34.8841 41.9208 34.8841C40.5734 34.8841 39.4812 33.7457 39.4812 32.3415Z" fill="black"/>
<path d="M19.2531 18.8867C17.6267 20.4228 16.2544 21.8001 15.0346 23.919L11.9852 12.9008C11.7819 11.5765 12.9508 10.4641 14.2215 10.8349L24.3355 15.2316C22.0484 16.1851 20.727 17.4564 19.2531 18.8867Z" fill="#007365"/>
<path d="M49.7478 15.2311L59.8618 10.8344C61.1324 10.4636 62.3014 11.5761 62.0981 12.9003L59.0486 23.9185C57.8288 21.7996 56.4566 20.4224 54.8302 18.8862C53.3563 17.4559 52.0349 16.1846 49.7478 15.2311Z" fill="#007365"/>
</g>
<defs>
<clipPath id="clip0_3450_7">
<rect width="71" height="71" fill="white"/>
</clipPath>
</defs>
</svg>
