<svg width="350" height="334" viewBox="0 0 350 334" fill="none" xmlns="http://www.w3.org/2000/svg">
<path fill-rule="evenodd" clip-rule="evenodd" d="M70.0693 14.5025L104.638 29.0032L115.875 25.0145C152.752 11.9217 199.431 12.2082 233.075 25.7338L243.667 29.9917L279.315 15.0506C298.92 6.83105 316.792 0.0846189 319.028 0.0538483C324.45 -0.0173087 332.523 6.53491 333.933 12.1486C335.029 16.52 333.785 21.6144 322.573 58.6564C312.522 91.8617 312.607 90.1539 320.353 104.039C338.643 136.823 348.918 175.7 349.276 213.471C349.532 240.253 346.71 253.276 336.993 270.204C318.501 302.417 276.928 324.872 224.572 330.93C202.283 333.509 146.84 333.507 124.508 330.926C84.8045 326.337 52.3089 312.729 29.3636 291.084C7.68765 270.637 -0.0896109 250.08 0.000777692 213.471C0.0950126 175.977 9.34927 138.675 26.7423 105.685L35.5235 89.0308L31.3618 74.8052C29.0713 66.9818 25.0307 53.2235 22.3825 44.2327C13.0783 12.6486 13.0667 12.4486 20.3767 4.32711C22.7268 1.71738 26.5 0 29.8867 0C32.9734 0 51.0569 6.52527 70.0693 14.5025Z" fill="#F537F9"/>
<path d="M127.442 158.519L118.347 160.79L111.7 163.292C96.9198 168.856 83.2168 176.874 71.157 186.982C65.1099 192.051 60.0323 198.141 55.3005 204.455V204.455C41.2231 223.24 33.733 244.48 33.6567 265.83C33.5836 286.676 39.8782 298.382 57.422 310.025C75.9931 322.35 102.294 330.099 134.429 332.712C152.503 334.181 197.377 334.183 215.417 332.714C257.793 329.264 291.44 316.478 306.407 298.135C314.272 288.496 316.555 281.08 316.348 265.83C316.059 244.322 307.742 222.185 292.939 203.517L288.583 199.069C272.314 182.455 252.62 169.584 230.872 161.353L222.299 158.928C195.069 151.226 157.288 151.063 127.442 158.519Z" fill="white"/>
<path d="M281.684 20.6451L252.256 33.3302L262.397 39.1843C272.559 45.0519 301.258 71.9416 306.551 80.5535C309.23 84.9152 309.834 83.5017 318.726 52.0138C332.964 1.59999 330.569 -0.427017 281.684 20.6451Z" fill="#822092"/>
<path d="M24.5345 12.2755C21.719 16.5718 22.1344 18.9027 31.2214 49.754C36.5505 67.8452 40.9103 83.1709 40.9103 83.8075C40.9103 84.444 44.2316 80.7766 48.2914 75.6571C58.8361 62.3623 80.0793 43.0095 89.2816 38.3151C93.603 36.1092 96.3877 33.6687 95.4685 32.8918C91.5125 29.5474 36.8101 7.69257 32.3964 7.69257C29.3982 7.69257 26.3866 9.44842 24.5345 12.2755Z" fill="#822092"/>
<path d="M155.951 126.657C155.951 135.154 149.063 142.042 140.566 142.042C132.069 142.042 125.181 135.154 125.181 126.657C125.181 118.16 132.069 111.272 140.566 111.272C149.063 111.272 155.951 118.16 155.951 126.657Z" fill="black"/>
<path d="M223.326 128.036C223.326 136.534 216.438 143.422 207.941 143.422C199.444 143.422 192.556 136.534 192.556 128.036C192.556 119.539 199.444 112.651 207.941 112.651C216.438 112.651 223.326 119.539 223.326 128.036Z" fill="black"/>
<path fill-rule="evenodd" clip-rule="evenodd" d="M180.129 187.654H168.59V198.302C168.59 198.309 168.59 198.316 168.59 198.323C168.59 207.882 160.841 215.632 151.281 215.632C141.722 215.632 133.973 207.882 133.973 198.323C133.973 197.973 133.694 197.682 133.343 197.682H123.082C122.726 197.682 122.434 197.967 122.434 198.323C122.434 214.255 135.349 227.171 151.281 227.171C160.718 227.171 169.096 222.639 174.36 215.634C179.623 222.639 188.001 227.171 197.438 227.171C213.37 227.171 226.285 214.255 226.285 198.323C226.285 197.967 225.993 197.682 225.637 197.682H215.376C215.025 197.682 214.746 197.973 214.746 198.323C214.746 207.882 206.997 215.632 197.438 215.632C187.878 215.632 180.129 207.882 180.129 198.323C180.129 198.32 180.129 198.316 180.129 198.312V187.654Z" fill="black"/>
<mask id="path-3-inside-1_3449_38" fill="white">
<path fill-rule="evenodd" clip-rule="evenodd" d="M165.05 158.807C158.509 158.807 151.922 162.523 151.922 169.064V169.064C151.922 181.455 161.968 191.501 174.359 191.501C186.751 191.501 196.796 181.455 196.796 169.064V169.064C196.796 162.523 190.209 158.807 183.668 158.807H165.05Z"/>
</mask>
<path fill-rule="evenodd" clip-rule="evenodd" d="M165.05 158.807C158.509 158.807 151.922 162.523 151.922 169.064V169.064C151.922 181.455 161.968 191.501 174.359 191.501C186.751 191.501 196.796 181.455 196.796 169.064V169.064C196.796 162.523 190.209 158.807 183.668 158.807H165.05Z" fill="#822092"/>
<path d="M174.359 180.374C168.113 180.374 163.049 175.31 163.049 169.064H140.795C140.795 187.601 155.822 202.628 174.359 202.628V180.374ZM185.669 169.064C185.669 175.31 180.605 180.374 174.359 180.374V202.628C192.896 202.628 207.923 187.601 207.923 169.064H185.669ZM183.668 147.68H165.05V169.934H183.668V147.68ZM207.923 169.064C207.923 161.557 203.974 155.845 199.119 152.404C194.49 149.124 188.869 147.68 183.668 147.68V169.934C184.268 169.934 184.851 170.022 185.349 170.168C185.854 170.316 186.144 170.485 186.251 170.561C186.349 170.631 186.184 170.54 185.987 170.194C185.765 169.802 185.669 169.37 185.669 169.064H207.923ZM163.049 169.064C163.049 169.37 162.954 169.802 162.731 170.194C162.534 170.54 162.369 170.631 162.467 170.561C162.574 170.485 162.864 170.316 163.369 170.168C163.867 170.022 164.45 169.934 165.05 169.934V147.68C159.849 147.68 154.228 149.124 149.599 152.404C144.744 155.845 140.795 161.557 140.795 169.064H163.049Z" fill="black" mask="url(#path-3-inside-1_3449_38)"/>
</svg>
