<svg width="500" height="500" viewBox="0 0 500 500" fill="none" xmlns="http://www.w3.org/2000/svg">
<path fill-rule="evenodd" clip-rule="evenodd" d="M143.069 97.5025L177.638 112.003L188.875 108.015C225.752 94.9217 272.431 95.2082 306.075 108.734L316.667 112.992L352.315 98.0506C371.92 89.831 389.792 83.0846 392.028 83.0538C397.45 82.9827 405.523 89.5349 406.933 95.1486C408.029 99.52 406.785 104.614 395.573 141.656C385.522 174.862 385.607 173.154 393.353 187.039C411.643 219.823 421.918 258.7 422.276 296.471C422.532 323.253 419.71 336.276 409.993 353.204C391.501 385.417 349.928 407.872 297.572 413.93C275.283 416.509 219.84 416.507 197.508 413.926C157.805 409.337 125.309 395.729 102.364 374.084C80.6877 353.637 72.9104 333.08 73.0008 296.471C73.095 258.977 82.3493 221.675 99.7423 188.685L108.524 172.031L104.362 157.805C102.071 149.982 98.0307 136.223 95.3825 127.233C86.0783 95.6486 86.0667 95.4486 93.3767 87.3271C95.7268 84.7174 99.5 83 102.887 83C105.973 83 124.057 89.5253 143.069 97.5025Z" fill="#FF7319"/>
<path d="M200.442 241.519L191.347 243.79L184.7 246.292C169.92 251.856 156.217 259.874 144.157 269.982C138.11 275.051 133.032 281.141 128.3 287.455C114.223 306.24 106.733 327.48 106.657 348.83C106.584 369.676 112.878 381.382 130.422 393.025C148.993 405.35 175.294 413.099 207.429 415.712C225.503 417.181 270.377 417.183 288.417 415.714C330.793 412.264 364.44 399.478 379.407 381.135C387.272 371.496 389.555 364.08 389.348 348.83C389.059 327.322 380.742 305.185 365.939 286.517L361.583 282.069C345.314 265.455 325.62 252.584 303.872 244.353L295.299 241.928C268.069 234.226 230.288 234.063 200.442 241.519Z" fill="white"/>
<path d="M354.684 103.645L325.256 116.33L335.397 122.184C345.559 128.052 374.258 154.942 379.551 163.553C382.23 167.915 382.834 166.502 391.726 135.014C405.964 84.6 403.569 82.573 354.684 103.645Z" fill="#77500C"/>
<path d="M97.5345 95.2755C94.719 99.5718 95.1344 101.903 104.221 132.754C109.55 150.845 113.91 166.171 113.91 166.807C113.91 167.444 117.232 163.777 121.291 158.657C131.836 145.362 153.079 126.01 162.282 121.315C166.603 119.109 169.388 116.669 168.468 115.892C164.513 112.547 109.81 90.6926 105.396 90.6926C102.398 90.6926 99.3866 92.4484 97.5345 95.2755Z" fill="#77500C"/>
<path d="M228.951 209.657C228.951 218.154 222.063 225.042 213.566 225.042C205.069 225.042 198.181 218.154 198.181 209.657C198.181 201.16 205.069 194.272 213.566 194.272C222.063 194.272 228.951 201.16 228.951 209.657Z" fill="black"/>
<path d="M296.326 211.036C296.326 219.534 289.438 226.422 280.941 226.422C272.444 226.422 265.556 219.534 265.556 211.036C265.556 202.539 272.444 195.651 280.941 195.651C289.438 195.651 296.326 202.539 296.326 211.036Z" fill="black"/>
<path fill-rule="evenodd" clip-rule="evenodd" d="M253.129 270.654H241.59V291.809H241.578C241.586 292.015 241.59 292.223 241.59 292.431V292.45V292.47C241.579 302.02 233.834 309.759 224.281 309.759C222.959 309.759 221.672 309.611 220.435 309.33V321.043C221.693 321.211 222.977 321.298 224.281 321.298C233.718 321.298 242.096 316.767 247.359 309.762C252.622 316.767 261.001 321.298 270.437 321.298C271.741 321.298 273.025 321.211 274.284 321.043V309.33C273.047 309.611 271.759 309.759 270.437 309.759C260.878 309.759 253.129 302.01 253.129 292.45C253.129 292.236 253.133 292.022 253.141 291.809H253.129V270.654Z" fill="black"/>
<mask id="path-3-inside-1_3099_147" fill="white">
<path fill-rule="evenodd" clip-rule="evenodd" d="M238.05 241.807C231.509 241.807 224.922 245.523 224.922 252.064C224.922 264.455 234.967 274.501 247.359 274.501C259.75 274.501 269.796 264.455 269.796 252.064C269.796 245.523 263.208 241.807 256.667 241.807H238.05Z"/>
</mask>
<path fill-rule="evenodd" clip-rule="evenodd" d="M238.05 241.807C231.509 241.807 224.922 245.523 224.922 252.064C224.922 264.455 234.967 274.501 247.359 274.501C259.75 274.501 269.796 264.455 269.796 252.064C269.796 245.523 263.208 241.807 256.667 241.807H238.05Z" fill="#77500C"/>
<path d="M247.359 263.374C241.113 263.374 236.049 258.31 236.049 252.064H213.795C213.795 270.601 228.822 285.628 247.359 285.628V263.374ZM258.668 252.064C258.668 258.31 253.605 263.374 247.359 263.374V285.628C265.896 285.628 280.923 270.601 280.923 252.064H258.668ZM256.667 230.68H238.05V252.934H256.667V230.68ZM280.923 252.064C280.923 244.557 276.974 238.845 272.118 235.404C267.489 232.124 261.869 230.68 256.667 230.68V252.934C257.268 252.934 257.851 253.022 258.349 253.168C258.854 253.316 259.144 253.485 259.25 253.561C259.349 253.631 259.184 253.54 258.987 253.194C258.764 252.802 258.668 252.37 258.668 252.064H280.923ZM236.049 252.064C236.049 252.37 235.953 252.802 235.731 253.194C235.534 253.54 235.369 253.631 235.467 253.561C235.574 253.485 235.864 253.316 236.369 253.168C236.867 253.022 237.45 252.934 238.05 252.934V230.68C232.849 230.68 227.228 232.124 222.599 235.404C217.744 238.845 213.795 244.557 213.795 252.064H236.049Z" fill="black" mask="url(#path-3-inside-1_3099_147)"/>
<path d="M234.409 214.065C233.427 218.215 231.26 221.99 228.172 224.931C225.084 227.872 221.208 229.852 217.015 230.631C212.822 231.409 208.493 230.952 204.555 229.315C200.617 227.678 197.24 224.931 194.834 221.41L197.674 219.47C199.703 222.441 202.553 224.758 205.875 226.139C209.197 227.52 212.85 227.906 216.387 227.25C219.925 226.593 223.195 224.922 225.801 222.441C228.406 219.96 230.234 216.775 231.063 213.273L234.409 214.065Z" fill="#CC5B14"/>
<path d="M259.591 215.065C260.573 219.215 262.74 222.99 265.828 225.931C268.916 228.872 272.792 230.852 276.985 231.631C281.178 232.409 285.507 231.952 289.445 230.315C293.383 228.678 296.76 225.931 299.166 222.41L296.326 220.47C294.297 223.441 291.447 225.758 288.125 227.139C284.803 228.52 281.15 228.906 277.613 228.25C274.075 227.593 270.805 225.922 268.199 223.441C265.594 220.96 263.766 217.775 262.937 214.273L259.591 215.065Z" fill="#CC5B14"/>
<rect x="240" y="209" width="3" height="14" rx="1.5" fill="#CC5B14"/>
<rect x="250" y="209" width="3" height="14" rx="1.5" fill="#CC5B14"/>
<rect x="310.899" y="223" width="3" height="14" rx="1.5" transform="rotate(45 310.899 223)" fill="#CC5B14"/>
<rect width="3" height="14" rx="1.5" transform="matrix(-0.707107 0.707107 0.707107 0.707107 187.121 223)" fill="#CC5B14"/>
<path fill-rule="evenodd" clip-rule="evenodd" d="M189 219C189 211.305 195.238 205.068 202.932 205.068H226.699C233.715 205.068 239.519 210.253 240.489 217H254.142C255.112 210.253 260.917 205.068 267.932 205.068H291.699C299.394 205.068 305.632 211.305 305.632 219C305.632 226.695 299.394 232.932 291.699 232.932H267.932C260.917 232.932 255.112 227.747 254.142 221H240.489C239.519 227.747 233.715 232.932 226.699 232.932H202.932C195.238 232.932 189 226.695 189 219Z" fill="#F3FFFF" fill-opacity="0.5"/>
<path fill-rule="evenodd" clip-rule="evenodd" d="M93.3197 285.874C93.3323 285.578 93.3566 285.278 93.3928 284.974C93.7093 282.327 94.2167 279.699 94.9138 277.112C96.9169 269.678 100.443 262.742 105.268 256.742C110.094 250.743 116.113 245.811 122.945 242.261C129.777 238.711 137.272 236.619 144.954 236.118C152.637 235.617 160.34 236.718 167.575 239.351C174.81 241.984 181.419 246.092 186.983 251.414C192.546 256.736 196.943 263.156 199.895 270.267C200.922 272.742 201.766 275.281 202.424 277.865C204.467 285.893 197.414 292.583 189.132 292.411L169.592 292.006C166.192 291.936 163.607 289.011 162.303 285.87C161.513 283.968 160.337 282.25 158.848 280.826C157.359 279.402 155.591 278.303 153.655 277.598C151.719 276.894 149.658 276.599 147.603 276.733C145.547 276.867 143.542 277.427 141.714 278.377C139.886 279.327 138.275 280.646 136.984 282.251C135.693 283.857 134.75 285.713 134.214 287.702C134.143 287.965 134.063 288.229 133.976 288.49C133.992 288.825 134 289.161 134 289.5V394.5C134 405.822 124.822 415 113.5 415C102.178 415 93 405.822 93 394.5V289.5C93 288.263 93.1096 287.051 93.3197 285.874Z" fill="#99440F"/>
<rect x="184" y="128" width="117" height="4" rx="2" fill="#CC5B14"/>
<rect x="172" y="142" width="141" height="4" rx="2" fill="#CC5B14"/>
<rect x="158" y="156" width="169" height="4" rx="2" fill="#CC5B14"/>
</svg>
