<svg version="1.1" xmlns="http://www.w3.org/2000/svg" xmlns:xlink="http://www.w3.org/1999/xlink" width="56.33456" height="51.0438" viewBox="0,0,56.33456,51.0438"><defs><linearGradient x1="213.10027" y1="154.47806" x2="278.17546" y2="180.22623" gradientUnits="userSpaceOnUse" id="color-1"><stop offset="0.33347" stop-color="#f9a637"/><stop offset="1" stop-color="#ff7319"/></linearGradient><linearGradient x1="213.10027" y1="154.47806" x2="278.17546" y2="180.22623" gradientUnits="userSpaceOnUse" id="color-2"><stop offset="0.33347" stop-color="#f9a637"/><stop offset="1" stop-color="#ff7319"/></linearGradient><linearGradient x1="213.10027" y1="154.47806" x2="278.17546" y2="180.22623" gradientUnits="userSpaceOnUse" id="color-3"><stop offset="0.33347" stop-color="#f9a637"/><stop offset="1" stop-color="#ff7319"/></linearGradient><linearGradient x1="213.10027" y1="154.47806" x2="278.17546" y2="180.22623" gradientUnits="userSpaceOnUse" id="color-4"><stop offset="0.33347" stop-color="#f9a637"/><stop offset="1" stop-color="#ff7319"/></linearGradient><linearGradient x1="213.10027" y1="154.47806" x2="278.17546" y2="180.22623" gradientUnits="userSpaceOnUse" id="color-5"><stop offset="0.33347" stop-color="#f9a637"/><stop offset="1" stop-color="#ff7319"/></linearGradient><linearGradient x1="213.10027" y1="154.47806" x2="278.17546" y2="180.22623" gradientUnits="userSpaceOnUse" id="color-6"><stop offset="0.33347" stop-color="#f9a637"/><stop offset="1" stop-color="#ff7319"/></linearGradient><linearGradient x1="213.10027" y1="154.47806" x2="278.17545" y2="180.22623" gradientUnits="userSpaceOnUse" id="color-7"><stop offset="0.33347" stop-color="#f9a637"/><stop offset="1" stop-color="#ff7319"/></linearGradient><linearGradient x1="213.10027" y1="154.47806" x2="278.17546" y2="180.22623" gradientUnits="userSpaceOnUse" id="color-8"><stop offset="0.33347" stop-color="#f9a637"/><stop offset="1" stop-color="#ff7319"/></linearGradient><linearGradient x1="213.10027" y1="154.47806" x2="278.17546" y2="180.22623" gradientUnits="userSpaceOnUse" id="color-9"><stop offset="0.33347" stop-color="#f9a637"/><stop offset="1" stop-color="#ff7319"/></linearGradient></defs><g transform="translate(-211.83272,-154.4781)"><g data-paper-data="{&quot;isPaintingLayer&quot;:true}" stroke="none" stroke-width="1" stroke-linecap="butt" stroke-linejoin="miter" stroke-miterlimit="10" stroke-dasharray="" stroke-dashoffset="0" style="mix-blend-mode: normal"><path d="M263.34596,161.38848c-1.66832,1.40455 -3.88983,3.2859 -6.28568,5.31543c-0.64734,0.54798 -1.30687,1.10681 -1.97223,1.66995c-4.93697,4.1802 -10.15099,8.58541 -12.41209,10.40411c-0.77704,0.62497 -1.74112,0.97984 -2.78279,0.93672c-1.01628,-0.04208 -1.91284,-0.45319 -2.63136,-1.01592c-2.43867,-1.91 -7.87283,-6.37715 -12.92845,-10.54591c-1.03661,-0.85473 -2.05631,-1.69615 -3.03179,-2.50102c-1.74253,-1.43779 -3.34384,-2.75909 -4.64799,-3.83191v41.291c0,0 0,0.00058 -2.41043,0.00058l2.41043,-0.00058c0,1.33128 -1.0792,2.41096 -2.41043,2.41096c-1.33123,0 -2.41044,-1.07909 -2.41044,-2.41037h2.41044c-2.41043,0 -2.41044,0 -2.41044,0v-45.33087c0,-0.531 0.12994,-1.95752 1.50265,-2.68365c1.44076,-0.76223 2.71794,0.02917 3.15777,0.37364c0.87338,0.684 4.09798,3.34476 7.93011,6.50684c0.96321,0.79482 1.96478,1.62125 2.97705,2.45593c4.929,4.06434 10.13594,8.34449 12.6139,10.29708c2.36685,-1.92342 7.24792,-6.04709 11.9586,-10.03576c0.66593,-0.5636 1.32838,-1.1247 1.97979,-1.67645c4.16934,-3.53165 7.88369,-6.67757 9.03425,-7.60296c0.47533,-0.38218 1.37022,-0.97786 2.48882,-0.93504c0.67233,0.02569 1.46842,0.29844 2.04835,1.00988c0.53344,0.65378 0.64327,1.38516 0.64327,1.87641v45.46487c0,0 0,0.00057 -2.41037,0.00057l2.41037,-0.00057c0,1.33128 -1.07966,2.41096 -2.41037,2.41096c-1.33128,0 -2.41096,-1.07967 -2.41096,-2.41038h2.41096c-2.41096,0 -2.41096,0 -2.41096,0z" fill="url(#color-1)" fill-rule="evenodd"/><path d="M253.72656,170.19372l8.8111,-7.0489v7.41602" fill="url(#color-2)" fill-rule="nonzero"/><path d="M217.40124,171.08895v-7.41601l8.8111,7.04888" fill="url(#color-3)" fill-rule="nonzero"/><path d="M245.87065,193.64726c-0.33285,0 -0.60265,-1.2139 -0.60265,-2.71138c0,-1.49776 0.2698,-2.71185 0.60265,-2.71185c0.3328,0 0.60259,1.21408 0.60259,2.71185c0,1.49748 -0.2698,2.71138 -0.60259,2.71138z" fill="url(#color-4)" fill-rule="nonzero"/><path d="M235.62633,193.64726c-0.33285,0 -0.60259,-1.2139 -0.60259,-2.71138c0,-1.49776 0.26974,-2.71185 0.60259,-2.71185c0.3328,0 0.6026,1.21408 0.6026,2.71185c0,1.49748 -0.2698,2.71138 -0.6026,2.71138z" fill="url(#color-5)" fill-rule="nonzero"/><path d="M247.30548,187.80652c0.15266,0.2906 0.24918,0.62212 0.31484,0.9176c0.13621,0.61306 0.20879,1.39416 0.20879,2.21175c0,0.81701 -0.07258,1.59859 -0.20879,2.21164c-0.06567,0.2952 -0.16218,0.627 -0.31484,0.91755c-0.0756,0.14411 -0.19926,0.34458 -0.39497,0.52472c-0.20303,0.18711 -0.55628,0.41375 -1.03987,0.41375c-0.48364,0 -0.83688,-0.22663 -1.03992,-0.41375c-0.19571,-0.18014 -0.31931,-0.38062 -0.39497,-0.52472c-0.15266,-0.29055 -0.24918,-0.62235 -0.31484,-0.91755c-0.13621,-0.61306 -0.20879,-1.39462 -0.20879,-2.21164c0,-0.81759 0.07258,-1.5987 0.20879,-2.21175c0.06567,-0.29549 0.16218,-0.627 0.31484,-0.9176c0.07566,-0.14393 0.19926,-0.34459 0.39497,-0.52479c0.20303,-0.18694 0.55627,-0.41357 1.03992,-0.41357c0.48359,0 0.83683,0.22663 1.03987,0.41357c0.19571,0.18019 0.31936,0.38085 0.39497,0.52479zM237.06117,187.80652c0.15272,0.2906 0.24918,0.62212 0.31484,0.9176c0.13621,0.61306 0.20879,1.39416 0.20879,2.21175c0,0.81701 -0.07258,1.59859 -0.20879,2.21164c-0.06567,0.2952 -0.16213,0.627 -0.31484,0.91755c-0.0756,0.14411 -0.1992,0.34458 -0.39497,0.52472c-0.20298,0.18711 -0.55628,0.41375 -1.03986,0.41375c-0.48364,0 -0.83688,-0.22663 -1.03992,-0.41375c-0.19571,-0.18014 -0.31932,-0.38062 -0.39491,-0.52472c-0.15272,-0.29055 -0.24917,-0.62235 -0.31483,-0.91755c-0.13626,-0.61306 -0.20884,-1.39462 -0.20884,-2.21164c0,-0.81759 0.07258,-1.5987 0.20884,-2.21175c0.06567,-0.29549 0.16213,-0.627 0.31483,-0.9176c0.0756,-0.14393 0.1992,-0.34459 0.39491,-0.52479c0.20303,-0.18694 0.55627,-0.41357 1.03992,-0.41357c0.48364,0 0.83689,0.22663 1.03986,0.41357c0.19576,0.18019 0.31937,0.38085 0.39497,0.52479z" fill="url(#color-6)" fill-rule="evenodd"/><path d="M240.74691,197.60624c-0.07089,-0.21732 -0.11843,-0.44686 -0.13807,-0.67988c0,0 -0.01482,-0.17665 0.16178,-0.19176c0.00278,0 0.00553,-0.00057 0.00825,-0.00057c-0.03307,-0.07671 -0.02406,-0.09297 0.04922,-0.10285c0.00634,-0.0523 0.03538,-0.14412 0.16044,-0.15458c0.17659,-0.01453 0.26208,0.09414 0.26208,0.09414c-0.21675,0.04823 -0.35063,0.05113 -0.42252,0.06043c-0.00262,0.02208 -0.0014,0.03719 -0.0014,0.03719c0.00198,0.02324 0.00372,0.04648 0.00517,0.06915c-0.01568,-0.00291 -0.03329,-0.00465 -0.05299,-0.00348c0.04759,0.1104 0.18246,0.34633 0.33825,0.86815c0.36388,1.0111 1.27643,1.71132 2.1537,0.67291l0.08623,-0.22256c0,0 0.06572,-0.16445 0.23034,-0.09879c0.16462,0.06567 0.0989,0.23069 0.0989,0.23069l-0.11158,0.27312c-0.98385,1.16451 -2.08902,0.63862 -2.63421,-0.3934z" fill="url(#color-7)" fill-rule="nonzero"/><path d="M240.6164,198.15944c-0.54512,1.03203 -1.65036,1.55791 -2.63415,0.3934l-0.11163,-0.27311c0,0 -0.06572,-0.16445 0.09891,-0.23069c0.16462,-0.06567 0.23034,0.09937 0.23034,0.09937l0.08629,0.22197c0.87722,1.03841 1.78977,0.3382 2.15365,-0.6729c0.1558,-0.52182 0.29066,-0.75774 0.33826,-0.86815c-0.0197,-0.00116 -0.03725,0.00058 -0.053,0.00407c0.00151,-0.02324 0.0032,-0.04649 0.00518,-0.06973c0,0 0.00122,-0.01511 -0.00134,-0.03661c-0.07194,-0.00988 -0.20582,-0.01278 -0.42257,-0.061c0,0 0.08548,-0.10867 0.26213,-0.09356c0.12499,0.01046 0.1541,0.10169 0.16044,0.15458c0.07322,0.0093 0.08223,0.02557 0.04916,0.10227c0.00274,0 0.00547,0.00058 0.00825,0.00058c0.17659,0.01511 0.16178,0.19176 0.16178,0.19176c-0.01963,0.23302 -0.06718,0.46256 -0.13807,0.67988z" fill="url(#color-8)" fill-rule="nonzero"/><path d="M240.88871,197.61438c-0.37672,0.06799 -1.15462,-0.69267 -1.22261,-1.06921c-0.06799,-0.37655 0.69254,-0.41257 1.0692,-0.48056c0.37667,-0.06799 1.15457,-0.00291 1.22257,0.37364c0.06799,0.37655 -0.69249,1.10814 -1.06915,1.17613z" fill="url(#color-9)" fill-rule="nonzero"/></g></g></svg>