<svg width="354" height="388" viewBox="0 0 354 388" fill="none" xmlns="http://www.w3.org/2000/svg">
<ellipse cx="177.5" cy="59" rx="124.5" ry="59" fill="#293240"/>
<path fill-rule="evenodd" clip-rule="evenodd" d="M72.536 66.5025L107.105 81.0032L118.342 77.0145C155.219 63.9217 201.898 64.2082 235.541 77.7338L246.134 81.9917L281.782 67.0506C301.387 58.831 319.258 52.0846 321.495 52.0538C326.917 51.9827 334.99 58.5349 336.4 64.1486C337.496 68.52 336.251 73.6144 325.039 110.656C314.989 143.862 315.074 142.154 322.82 156.039C341.109 188.823 351.385 227.7 351.743 265.471C351.998 292.253 349.177 305.276 339.459 322.204C320.968 354.417 279.395 376.872 227.039 382.93C204.75 385.509 149.307 385.507 126.975 382.926C87.2713 378.337 54.7756 364.729 31.8304 343.084C10.1544 322.637 2.37719 302.08 2.46757 265.471C2.56181 227.977 11.8161 190.675 29.2091 157.685L37.9903 141.031L33.8286 126.805C31.5381 118.982 27.4975 105.223 24.8493 96.2327C15.5451 64.6486 15.5335 64.4486 22.8435 56.3271C25.1936 53.7174 28.9668 52 32.3535 52C35.4402 52 53.5237 58.5253 72.536 66.5025Z" fill="#FF7319"/>
<path d="M129.908 210.519L120.813 212.79L114.167 215.292C99.3866 220.856 85.6836 228.874 73.6238 238.982C67.5767 244.051 62.4991 250.141 57.7673 256.455C43.6899 275.24 36.1998 296.48 36.1235 317.83C36.0504 338.676 42.345 350.382 59.8888 362.025C78.4599 374.35 104.761 382.099 136.896 384.712C154.97 386.181 199.844 386.183 217.884 384.714C260.259 381.264 293.907 368.478 308.873 350.135C316.739 340.496 319.022 333.08 318.815 317.83C318.525 296.322 310.209 274.185 295.406 255.517L291.05 251.069C274.78 234.455 255.087 221.584 233.339 213.353L224.766 210.928C197.535 203.227 159.755 203.063 129.908 210.519Z" fill="white"/>
<path d="M284.151 72.6451L254.723 85.3302L264.864 91.1843C275.026 97.0519 303.725 123.942 309.018 132.553C311.697 136.915 312.3 135.502 321.193 104.014C335.43 53.6 333.036 51.573 284.151 72.6451Z" fill="#77500C"/>
<path d="M27.0013 64.2755C24.1858 68.5718 24.6012 70.9027 33.6882 101.754C39.0173 119.845 43.3771 135.171 43.3771 135.807C43.3771 136.444 46.6984 132.777 50.7582 127.657C61.3029 114.362 82.5461 95.0095 91.7484 90.3151C96.0698 88.1092 98.8545 85.6687 97.9353 84.8918C93.9793 81.5474 39.2769 59.6926 34.8632 59.6926C31.865 59.6926 28.8533 61.4484 27.0013 64.2755Z" fill="#77500C"/>
<path d="M158.418 178.657C158.418 187.154 151.53 194.042 143.033 194.042C134.536 194.042 127.647 187.154 127.647 178.657C127.647 170.16 134.536 163.272 143.033 163.272C151.53 163.272 158.418 170.16 158.418 178.657Z" fill="black"/>
<path d="M225.793 180.036C225.793 188.533 218.905 195.422 210.408 195.422C201.911 195.422 195.023 188.533 195.023 180.036C195.023 171.539 201.911 164.651 210.408 164.651C218.905 164.651 225.793 171.539 225.793 180.036Z" fill="black"/>
<path fill-rule="evenodd" clip-rule="evenodd" d="M182.596 239.654H171.057V249.682H171.045C171.053 249.895 171.057 250.108 171.057 250.323C171.057 259.882 163.307 267.632 153.748 267.632C144.189 267.632 136.44 259.882 136.44 250.323C136.44 250.108 136.444 249.895 136.451 249.682H124.908C124.903 249.895 124.901 250.109 124.901 250.323C124.901 266.255 137.816 279.171 153.748 279.171C163.185 279.171 171.563 274.639 176.826 267.634C182.089 274.639 190.468 279.171 199.904 279.171C215.836 279.171 228.752 266.255 228.752 250.323C228.752 250.109 228.75 249.895 228.745 249.682H217.201C217.209 249.895 217.213 250.108 217.213 250.323C217.213 259.882 209.464 267.632 199.905 267.632C190.345 267.632 182.596 259.882 182.596 250.323C182.596 250.108 182.6 249.895 182.608 249.682H182.596V239.654Z" fill="black"/>
<mask id="path-4-inside-1_0_1" fill="white">
<path fill-rule="evenodd" clip-rule="evenodd" d="M167.517 210.807C160.976 210.807 154.389 214.523 154.389 221.064C154.389 233.455 164.434 243.501 176.826 243.501C189.218 243.501 199.263 233.455 199.263 221.064C199.263 214.523 192.676 210.807 186.135 210.807H167.517Z"/>
</mask>
<path fill-rule="evenodd" clip-rule="evenodd" d="M167.517 210.807C160.976 210.807 154.389 214.523 154.389 221.064C154.389 233.455 164.434 243.501 176.826 243.501C189.218 243.501 199.263 233.455 199.263 221.064C199.263 214.523 192.676 210.807 186.135 210.807H167.517Z" fill="#77500C"/>
<path d="M176.826 232.374C170.58 232.374 165.516 227.31 165.516 221.064H143.262C143.262 239.601 158.289 254.628 176.826 254.628V232.374ZM188.136 221.064C188.136 227.31 183.072 232.374 176.826 232.374V254.628C195.363 254.628 210.39 239.601 210.39 221.064H188.136ZM186.135 199.68H167.517V221.934H186.135V199.68ZM210.39 221.064C210.39 213.557 206.441 207.845 201.586 204.404C196.957 201.124 191.336 199.68 186.135 199.68V221.934C186.735 221.934 187.318 222.022 187.816 222.168C188.321 222.316 188.611 222.485 188.718 222.561C188.816 222.631 188.651 222.54 188.454 222.194C188.232 221.802 188.136 221.37 188.136 221.064H210.39ZM165.516 221.064C165.516 221.37 165.421 221.802 165.198 222.194C165.001 222.54 164.836 222.631 164.934 222.561C165.041 222.485 165.331 222.316 165.836 222.168C166.334 222.022 166.917 221.934 167.517 221.934V199.68C162.316 199.68 156.695 201.124 152.066 204.404C147.211 207.845 143.262 213.557 143.262 221.064H165.516Z" fill="black" mask="url(#path-4-inside-1_0_1)"/>
<mask id="mask0_0_1" style="mask-type:alpha" maskUnits="userSpaceOnUse" x="0" y="241" width="354" height="147">
<path d="M79.1324 268.049L3.97072 241C-24.5321 368.5 106.467 393 203.473 386.5C218.504 385.493 249.474 385 285.474 368.5C357.474 335.5 355.974 280.167 351.974 251L269.88 274.455C207.197 292.365 140.472 290.124 79.1324 268.049Z" fill="black"/>
</mask>
<g mask="url(#mask0_0_1)">
<rect x="-7.5332" y="232.5" width="360" height="186" fill="#293240"/>
<mask id="mask1_0_1" style="mask-type:alpha" maskUnits="userSpaceOnUse" x="279" y="284" width="34" height="33">
<path d="M295.995 285C292.344 287.842 285.212 287.842 283.206 285C279.862 290.554 278.738 298.028 281.758 303.729C285.182 310.192 294.646 316 295.995 316C297.344 316 321.581 302.179 307.749 285C303.803 288.746 297.796 286.421 295.995 285Z" fill="#D9D9D9" stroke="white"/>
</mask>
<g mask="url(#mask1_0_1)">
<rect x="278.795" y="294.3" width="34.1341" height="22.475" fill="#FFC700"/>
<mask id="path-10-inside-2_0_1" fill="white">
<path d="M278.795 283.192H312.692V294.817H278.795V283.192Z"/>
</mask>
<path d="M278.795 283.192H312.692V294.817H278.795V283.192Z" fill="#FFC700"/>
<path d="M312.692 292.817H278.795V296.817H312.692V292.817Z" fill="#FFC700" mask="url(#path-10-inside-2_0_1)"/>
</g>
<path d="M82.7576 320.303C82.7576 318.646 84.1007 317.303 85.7576 317.303H132.242C133.899 317.303 135.242 318.646 135.242 320.303V363.746C135.242 365.517 133.716 366.902 131.953 366.732L85.4686 362.233C83.9309 362.084 82.7576 360.792 82.7576 359.247V320.303Z" fill="#293240" stroke="#191E26" stroke-width="2"/>
<path d="M80 312C80 307.582 83.5817 304 88 304H130C134.418 304 138 307.582 138 312V336.076L133.17 332.68C126.747 328.163 118.575 326.927 111.104 329.341L107.939 330.364L102.345 328.394C97.0353 326.524 91.2495 326.502 85.9249 328.33L80 330.364V312Z" fill="#293240"/>
<path d="M81 312C81 308.134 84.134 305 88 305H130C133.866 305 137 308.134 137 312V334.15L133.745 331.862C127.065 327.165 118.567 325.879 110.796 328.389L107.953 329.308L102.677 327.451C97.155 325.506 91.1378 325.483 85.6002 327.384L81 328.963V312Z" stroke="black" stroke-opacity="0.4" stroke-width="2"/>
<circle cx="108.56" cy="322.015" r="2.19697" fill="#191E26"/>
<path d="M273.242 320.303C273.242 318.646 271.899 317.303 270.242 317.303H223.758C222.101 317.303 220.758 318.646 220.758 320.303V363.746C220.758 365.517 222.284 366.902 224.047 366.732L270.531 362.233C272.069 362.084 273.242 360.792 273.242 359.247V320.303Z" fill="#293240" stroke="#191E26" stroke-width="2"/>
<path d="M276 312C276 307.582 272.418 304 268 304H226C221.582 304 218 307.582 218 312V336.076L222.83 332.68C229.253 328.163 237.425 326.927 244.896 329.341L248.061 330.364L253.655 328.394C258.965 326.524 264.75 326.502 270.075 328.33L276 330.364V312Z" fill="#293240"/>
<path d="M275 312C275 308.134 271.866 305 268 305H226C222.134 305 219 308.134 219 312V334.15L222.255 331.862C228.935 327.165 237.433 325.879 245.204 328.389L248.047 329.308L253.323 327.451C258.845 325.506 264.862 325.483 270.4 327.384L275 328.963V312Z" stroke="black" stroke-opacity="0.4" stroke-width="2"/>
<circle r="2.19697" transform="matrix(-1 0 0 1 247.44 322.015)" fill="#191E26"/>
<path d="M167.366 301.068L161.466 286H198.471L192.101 300.555C190.385 304.474 189.5 308.706 189.5 312.984V389H169.5V312.371C169.5 308.503 168.776 304.669 167.366 301.068Z" fill="#293240" stroke="#191E26" stroke-width="2"/>
</g>
<rect x="38" y="244" width="47" height="54.6216" rx="11" fill="#282828"/>
<rect x="68" y="215" width="6" height="37" rx="3" fill="#282828"/>
<rect x="73.5676" y="255.432" width="2.54054" height="26.6757" rx="1.27027" transform="rotate(90 73.5676 255.432)" fill="#1C1C1C"/>
<rect x="73.5676" y="263.054" width="2.54054" height="26.6757" rx="1.27027" transform="rotate(90 73.5676 263.054)" fill="#1C1C1C"/>
<rect x="73.5676" y="270.676" width="2.54054" height="26.6757" rx="1.27027" transform="rotate(90 73.5676 270.676)" fill="#1C1C1C"/>
<rect x="73.5676" y="277.027" width="2.54054" height="26.6757" rx="1.27027" transform="rotate(90 73.5676 277.027)" fill="#1C1C1C"/>
<rect x="73.5676" y="284.649" width="2.54054" height="26.6757" rx="1.27027" transform="rotate(90 73.5676 284.649)" fill="#1C1C1C"/>
<circle cx="179.5" cy="295.5" r="2.5" fill="#191E26"/>
<circle cx="179.5" cy="311.5" r="2.5" fill="#191E26"/>
<path d="M182 327.5C182 328.881 180.881 330 179.5 330C178.119 330 177 328.881 177 327.5C177 326.119 178.119 325 179.5 325C180.881 325 182 326.119 182 327.5Z" fill="#191E26"/>
<circle cx="179.5" cy="343.5" r="2.5" fill="#191E26"/>
<path d="M89.481 65.0336C90.0508 64.3771 90.8773 64 91.7466 64H268.797C269.773 64 270.688 64.4748 271.25 65.2727L291.671 94.2727C293.071 96.2603 291.649 99 289.218 99H66.5762C64.0044 99 62.6248 95.9758 64.3106 94.0336L89.481 65.0336Z" fill="#232323"/>
</svg>
