<svg version="1.1" xmlns="http://www.w3.org/2000/svg" xmlns:xlink="http://www.w3.org/1999/xlink" width="70.23124" height="58.25205" viewBox="0,0,70.23124,58.25205"><defs><linearGradient x1="217.34811" y1="158.50832" x2="272.14707" y2="180.19052" gradientUnits="userSpaceOnUse" id="color-1"><stop offset="0.33347" stop-color="#f9a637"/><stop offset="1" stop-color="#ff7319"/></linearGradient><linearGradient x1="217.3481" y1="158.50832" x2="272.14707" y2="180.19052" gradientUnits="userSpaceOnUse" id="color-2"><stop offset="0.33347" stop-color="#f9a637"/><stop offset="1" stop-color="#ff7319"/></linearGradient><linearGradient x1="217.34811" y1="158.50832" x2="272.14707" y2="180.19052" gradientUnits="userSpaceOnUse" id="color-3"><stop offset="0.33347" stop-color="#f9a637"/><stop offset="1" stop-color="#ff7319"/></linearGradient><linearGradient x1="217.34811" y1="158.50832" x2="272.14707" y2="180.19052" gradientUnits="userSpaceOnUse" id="color-4"><stop offset="0.33347" stop-color="#f9a637"/><stop offset="1" stop-color="#ff7319"/></linearGradient><linearGradient x1="217.34811" y1="158.50832" x2="272.14707" y2="180.19052" gradientUnits="userSpaceOnUse" id="color-5"><stop offset="0.33347" stop-color="#f9a637"/><stop offset="1" stop-color="#ff7319"/></linearGradient><linearGradient x1="217.34811" y1="158.50832" x2="272.14707" y2="180.19052" gradientUnits="userSpaceOnUse" id="color-6"><stop offset="0.33347" stop-color="#f9a637"/><stop offset="1" stop-color="#ff7319"/></linearGradient><linearGradient x1="217.34811" y1="158.50832" x2="272.14708" y2="180.19052" gradientUnits="userSpaceOnUse" id="color-7"><stop offset="0.33347" stop-color="#f9a637"/><stop offset="1" stop-color="#ff7319"/></linearGradient><linearGradient x1="217.34811" y1="158.50832" x2="272.14708" y2="180.19052" gradientUnits="userSpaceOnUse" id="color-8"><stop offset="0.33347" stop-color="#f9a637"/><stop offset="1" stop-color="#ff7319"/></linearGradient><linearGradient x1="217.34811" y1="158.50832" x2="272.14708" y2="180.19052" gradientUnits="userSpaceOnUse" id="color-9"><stop offset="0.33347" stop-color="#f9a637"/><stop offset="1" stop-color="#ff7319"/></linearGradient></defs><g transform="translate(-204.88438,-150.87397)"><g data-paper-data="{&quot;isPaintingLayer&quot;:true}" stroke="none" stroke-linecap="butt" stroke-linejoin="miter" stroke-miterlimit="10" stroke-dasharray="" stroke-dashoffset="0" style="mix-blend-mode: normal"><path d="M204.88438,209.12603v-58.25205h70.23124v58.25205z" fill="#ffffff" fill-rule="nonzero" stroke-width="0"/><path d="M259.65935,164.32749c-1.40487,1.18275 -3.27558,2.76701 -5.2931,4.47605c-0.54512,0.46144 -1.1005,0.93203 -1.66079,1.40624c-4.15736,3.52009 -8.54802,7.22966 -10.45206,8.76117c-0.65433,0.52627 -1.46618,0.82511 -2.34336,0.7888c-0.85579,-0.03543 -1.61077,-0.38163 -2.21584,-0.85549c-2.05357,-1.60839 -6.6296,-5.37012 -10.88688,-8.88057c-0.87292,-0.71976 -1.73159,-1.4283 -2.55303,-2.10608c-1.46735,-1.21074 -2.8158,-2.32339 -3.91401,-3.22679v34.77062c0,0 0,0.00049 -2.02979,0.00049l2.02979,-0.00049c0,1.12105 -0.90878,2.03023 -2.02979,2.03023c-1.12102,0 -2.0298,-0.90869 -2.0298,-2.02974h2.0298c-2.02979,0 -2.0298,0 -2.0298,0v-38.17254c0,-0.44715 0.10942,-1.6484 1.26536,-2.25987c1.21325,-0.64186 2.28874,0.02456 2.65913,0.31463c0.73547,0.57599 3.45086,2.81658 6.67784,5.47933c0.81111,0.6693 1.65452,1.36524 2.50694,2.06811c4.15065,3.42252 8.53534,7.02679 10.622,8.67104c1.99309,-1.61968 6.10338,-5.09217 10.07019,-8.45099c0.56078,-0.4746 1.1186,-0.9471 1.66715,-1.41172c3.51095,-2.97396 6.63875,-5.62309 7.60762,-6.40235c0.40027,-0.32183 1.15384,-0.82344 2.0958,-0.78739c0.56616,0.02163 1.23654,0.25132 1.72489,0.85041c0.4492,0.55055 0.54169,1.16642 0.54169,1.5801v38.28538c0,0 0,0.00048 -2.02974,0.00048l2.02974,-0.00048c0,1.12105 -0.90917,2.03023 -2.02974,2.03023c-1.12105,0 -2.03023,-0.90917 -2.03023,-2.02974h2.03023c-2.03023,0 -2.03023,0 -2.03023,0z" fill="url(#color-1)" fill-rule="evenodd" stroke-width="1"/><path d="M251.55898,171.74227l7.41972,-5.93578v6.24493" fill="url(#color-2)" fill-rule="nonzero" stroke-width="1"/><path d="M220.9699,172.49613v-6.24493l7.41972,5.93577" fill="url(#color-3)" fill-rule="nonzero" stroke-width="1"/><path d="M244.94362,191.49219c-0.28029,0 -0.50748,-1.02221 -0.50748,-2.28322c0,-1.26125 0.22719,-2.28361 0.50748,-2.28361c0.28025,0 0.50744,1.02236 0.50744,2.28361c0,1.26101 -0.22719,2.28322 -0.50744,2.28322z" fill="url(#color-4)" fill-rule="nonzero" stroke-width="1"/><path d="M236.31702,191.49219c-0.28029,0 -0.50744,-1.02221 -0.50744,-2.28322c0,-1.26125 0.22715,-2.28361 0.50744,-2.28361c0.28025,0 0.50744,1.02236 0.50744,2.28361c0,1.26101 -0.22719,2.28322 -0.50744,2.28322z" fill="url(#color-5)" fill-rule="nonzero" stroke-width="1"/><path d="M246.15188,186.57378c0.12855,0.24471 0.20983,0.52388 0.26513,0.7727c0.1147,0.51625 0.17582,1.174 0.17582,1.86248c0,0.688 -0.06112,1.34615 -0.17582,1.86239c-0.0553,0.24859 -0.13657,0.52799 -0.26513,0.77266c-0.06367,0.12136 -0.16779,0.29017 -0.33259,0.44186c-0.17097,0.15756 -0.46844,0.34841 -0.87566,0.34841c-0.40728,0 -0.70473,-0.19084 -0.87571,-0.34841c-0.1648,-0.15169 -0.26889,-0.32051 -0.3326,-0.44186c-0.12855,-0.24467 -0.20983,-0.52407 -0.26511,-0.77266c-0.1147,-0.51625 -0.17582,-1.17439 -0.17582,-1.86239c0,-0.68848 0.06111,-1.34624 0.17582,-1.86248c0.0553,-0.24883 0.13657,-0.52799 0.26511,-0.7727c0.06372,-0.1212 0.1678,-0.29018 0.3326,-0.44192c0.17097,-0.15742 0.46843,-0.34826 0.87571,-0.34826c0.40722,0 0.70469,0.19084 0.87566,0.34826c0.1648,0.15174 0.26893,0.3207 0.33259,0.44192zM237.52527,186.57378c0.1286,0.24471 0.20983,0.52388 0.26511,0.7727c0.1147,0.51625 0.17582,1.174 0.17582,1.86248c0,0.688 -0.06112,1.34615 -0.17582,1.86239c-0.0553,0.24859 -0.13653,0.52799 -0.26511,0.77266c-0.06367,0.12136 -0.16774,0.29017 -0.3326,0.44186c-0.17092,0.15756 -0.46843,0.34841 -0.87565,0.34841c-0.40728,0 -0.70473,-0.19084 -0.87571,-0.34841c-0.1648,-0.15169 -0.2689,-0.32051 -0.33254,-0.44186c-0.1286,-0.24467 -0.20983,-0.52407 -0.26511,-0.77266c-0.11475,-0.51625 -0.17587,-1.17439 -0.17587,-1.86239c0,-0.68848 0.06112,-1.34624 0.17587,-1.86248c0.0553,-0.24883 0.13653,-0.52799 0.26511,-0.7727c0.06367,-0.1212 0.16774,-0.29018 0.33254,-0.44192c0.17097,-0.15742 0.46843,-0.34826 0.87571,-0.34826c0.40728,0 0.70473,0.19084 0.87565,0.34826c0.16485,0.15174 0.26893,0.3207 0.3326,0.44192z" fill="url(#color-6)" fill-rule="evenodd" stroke-width="1"/><path d="M240.629,194.826c-0.05969,-0.18301 -0.09973,-0.37629 -0.11627,-0.57251c0,0 -0.01248,-0.14876 0.13623,-0.16148c0.00234,0 0.00465,-0.00048 0.00695,-0.00048c-0.02785,-0.0646 -0.02026,-0.0783 0.04144,-0.08661c0.00534,-0.04405 0.02979,-0.12136 0.1351,-0.13016c0.14871,-0.01224 0.22069,0.07927 0.22069,0.07927c-0.18252,0.04062 -0.29526,0.04306 -0.35579,0.05089c-0.00221,0.01859 -0.00118,0.03133 -0.00118,0.03133c0.00167,0.01957 0.00313,0.03914 0.00435,0.05823c-0.01321,-0.00245 -0.02803,-0.00392 -0.04463,-0.00294c0.04007,0.09297 0.15365,0.29164 0.28484,0.73105c0.30642,0.85143 1.07486,1.44108 1.8136,0.56664l0.07262,-0.18741c0,0 0.05535,-0.13848 0.19397,-0.08319c0.13862,0.0553 0.08328,0.19427 0.08328,0.19427l-0.09396,0.22998c-0.82848,0.98061 -1.75914,0.53778 -2.21824,-0.33128z" fill="url(#color-7)" fill-rule="nonzero" stroke-width="1"/><path d="M240.51909,195.29184c-0.45904,0.86906 -1.38974,1.3119 -2.21818,0.33128l-0.094,-0.22998c0,0 -0.05534,-0.13848 0.08328,-0.19427c0.13862,-0.0553 0.19397,0.08367 0.19397,0.08367l0.07266,0.18692c0.73869,0.87444 1.50715,0.28479 1.81356,-0.56664c0.13119,-0.43941 0.24477,-0.63809 0.28484,-0.73105c-0.01659,-0.00098 -0.03137,0.00049 -0.04463,0.00343c0.00127,-0.01957 0.00269,-0.03914 0.00435,-0.05872c0,0 0.00103,-0.01272 -0.00113,-0.03082c-0.06058,-0.00832 -0.17332,-0.01075 -0.35584,-0.05137c0,0 0.07198,-0.09151 0.22074,-0.07879c0.10525,0.00881 0.12976,0.08564 0.1351,0.13016c0.06166,0.00783 0.06925,0.02153 0.04141,0.08613c0.00231,0 0.00461,0.00049 0.00695,0.00049c0.14871,0.01272 0.13623,0.16148 0.13623,0.16148c-0.01654,0.19622 -0.05657,0.38952 -0.11627,0.57251z" fill="url(#color-8)" fill-rule="nonzero" stroke-width="1"/><path d="M240.7484,194.83285c-0.31723,0.05726 -0.97229,-0.58329 -1.02955,-0.90037c-0.05726,-0.31709 0.58319,-0.34742 0.90036,-0.40467c0.31718,-0.05726 0.97225,-0.00245 1.02951,0.31463c0.05726,0.31709 -0.58313,0.93315 -0.90033,0.99041z" fill="url(#color-9)" fill-rule="nonzero" stroke-width="1"/></g></g></svg>