<svg width="500" height="500" viewBox="0 0 500 500" fill="none" xmlns="http://www.w3.org/2000/svg">
<ellipse cx="250.033" cy="90" rx="124.5" ry="59" fill="#293240"/>
<path fill-rule="evenodd" clip-rule="evenodd" d="M145.069 97.5025L179.638 112.003L190.875 108.015C227.752 94.9217 274.431 95.2082 308.075 108.734L318.667 112.992L354.315 98.0506C373.92 89.831 391.792 83.0846 394.028 83.0538C399.45 82.9827 407.523 89.5349 408.933 95.1486C410.029 99.52 408.785 104.614 397.573 141.656C387.522 174.862 387.607 173.154 395.353 187.039C413.643 219.823 423.918 258.7 424.276 296.471C424.532 323.253 421.71 336.276 411.993 353.204C393.501 385.417 351.928 407.872 299.572 413.93C277.283 416.509 221.84 416.507 199.508 413.926C159.805 409.337 127.309 395.729 104.364 374.084C82.6877 353.637 74.9104 333.08 75.0008 296.471C75.095 258.977 84.3493 221.675 101.742 188.685L110.524 172.031L106.362 157.805C104.071 149.982 100.031 136.223 97.3825 127.233C88.0783 95.6486 88.0667 95.4486 95.3767 87.3271C97.7268 84.7174 101.5 83 104.887 83C107.973 83 126.057 89.5253 145.069 97.5025Z" fill="#FF7319"/>
<path d="M202.442 241.519L193.347 243.79L186.7 246.292C171.92 251.856 158.217 259.874 146.157 269.982C140.11 275.051 135.032 281.141 130.3 287.455C116.223 306.24 108.733 327.48 108.657 348.83C108.584 369.676 114.878 381.382 132.422 393.025C150.993 405.35 177.294 413.099 209.429 415.712C227.503 417.181 272.377 417.183 290.417 415.714C332.793 412.264 366.44 399.478 381.407 381.135C389.272 371.496 391.555 364.08 391.348 348.83C391.059 327.322 382.742 305.185 367.939 286.517L363.583 282.069C347.314 265.455 327.62 252.584 305.872 244.353L297.299 241.928C270.069 234.227 232.288 234.063 202.442 241.519Z" fill="white"/>
<path d="M356.684 103.645L327.256 116.33L337.397 122.184C347.559 128.052 376.258 154.942 381.551 163.553C384.23 167.915 384.834 166.502 393.726 135.014C407.964 84.6 405.569 82.573 356.684 103.645Z" fill="#77500C"/>
<path d="M99.5345 95.2755C96.719 99.5718 97.1344 101.903 106.221 132.754C111.55 150.845 115.91 166.171 115.91 166.807C115.91 167.444 119.232 163.777 123.291 158.657C133.836 145.362 155.079 126.01 164.282 121.315C168.603 119.109 171.388 116.669 170.468 115.892C166.513 112.547 111.81 90.6926 107.396 90.6926C104.398 90.6926 101.387 92.4484 99.5345 95.2755Z" fill="#77500C"/>
<path d="M230.951 209.657C230.951 218.154 224.063 225.042 215.566 225.042C207.069 225.042 200.181 218.154 200.181 209.657C200.181 201.16 207.069 194.272 215.566 194.272C224.063 194.272 230.951 201.16 230.951 209.657Z" fill="black"/>
<path d="M298.326 211.036C298.326 219.533 291.438 226.422 282.941 226.422C274.444 226.422 267.556 219.533 267.556 211.036C267.556 202.539 274.444 195.651 282.941 195.651C291.438 195.651 298.326 202.539 298.326 211.036Z" fill="black"/>
<path fill-rule="evenodd" clip-rule="evenodd" d="M255.129 270.654H243.59V280.682H243.578C243.586 280.895 243.59 281.108 243.59 281.323C243.59 290.882 235.841 298.632 226.281 298.632C216.722 298.632 208.973 290.882 208.973 281.323C208.973 281.108 208.977 280.895 208.985 280.682H197.441C197.436 280.895 197.434 281.109 197.434 281.323C197.434 297.255 210.35 310.171 226.282 310.171C235.718 310.171 244.096 305.639 249.36 298.634C254.623 305.639 263.001 310.171 272.438 310.171C288.37 310.171 301.285 297.255 301.285 281.323C301.285 281.109 301.283 280.895 301.278 280.682H289.735C289.742 280.895 289.746 281.108 289.746 281.323C289.746 290.882 281.997 298.632 272.438 298.632C262.879 298.632 255.129 290.882 255.129 281.323C255.129 281.108 255.133 280.895 255.141 280.682H255.129V270.654Z" fill="black"/>
<mask id="path-4-inside-1_3095_645" fill="white">
<path fill-rule="evenodd" clip-rule="evenodd" d="M240.051 241.807C233.51 241.807 226.922 245.523 226.922 252.064C226.922 264.455 236.968 274.501 249.359 274.501C261.751 274.501 271.796 264.455 271.796 252.064C271.796 245.523 265.209 241.807 258.668 241.807H240.051Z"/>
</mask>
<path fill-rule="evenodd" clip-rule="evenodd" d="M240.051 241.807C233.51 241.807 226.922 245.523 226.922 252.064C226.922 264.455 236.968 274.501 249.359 274.501C261.751 274.501 271.796 264.455 271.796 252.064C271.796 245.523 265.209 241.807 258.668 241.807H240.051Z" fill="#77500C"/>
<path d="M249.359 263.374C243.113 263.374 238.05 258.31 238.05 252.064H215.795C215.795 270.601 230.822 285.628 249.359 285.628V263.374ZM260.669 252.064C260.669 258.31 255.605 263.374 249.359 263.374V285.628C267.896 285.628 282.923 270.601 282.923 252.064H260.669ZM258.668 230.68H240.051V252.934H258.668V230.68ZM282.923 252.064C282.923 244.557 278.974 238.845 274.119 235.404C269.49 232.124 263.869 230.68 258.668 230.68V252.934C259.268 252.934 259.851 253.022 260.349 253.168C260.854 253.316 261.144 253.485 261.251 253.561C261.349 253.631 261.184 253.54 260.987 253.194C260.765 252.802 260.669 252.37 260.669 252.064H282.923ZM238.05 252.064C238.05 252.37 237.954 252.802 237.731 253.194C237.534 253.54 237.369 253.631 237.468 253.561C237.574 253.485 237.864 253.316 238.369 253.168C238.867 253.022 239.45 252.934 240.051 252.934V230.68C234.849 230.68 229.229 232.124 224.6 235.404C219.744 238.845 215.795 244.557 215.795 252.064H238.05Z" fill="black" mask="url(#path-4-inside-1_3095_645)"/>
<mask id="mask0_3095_645" style="mask-type:alpha" maskUnits="userSpaceOnUse" x="73" y="272" width="354" height="147">
<path d="M152.132 299.049L76.9707 272C48.4679 399.5 179.467 424 276.473 417.5C291.504 416.493 322.474 416 358.474 399.5C430.474 366.5 428.974 311.167 424.974 282L342.88 305.455C280.197 323.365 213.472 321.124 152.132 299.049Z" fill="black"/>
</mask>
<g mask="url(#mask0_3095_645)">
<rect x="65.4668" y="263.5" width="360" height="186" fill="#293240"/>
<mask id="mask1_3095_645" style="mask-type:alpha" maskUnits="userSpaceOnUse" x="352" y="315" width="34" height="33">
<path d="M368.995 316C365.344 318.842 358.212 318.842 356.206 316C352.862 321.554 351.738 329.028 354.758 334.729C358.182 341.192 367.646 347 368.995 347C370.344 347 394.581 333.179 380.749 316C376.803 319.746 370.796 317.421 368.995 316Z" fill="#D9D9D9" stroke="white"/>
</mask>
<g mask="url(#mask1_3095_645)">
<rect x="351.795" y="325.3" width="34.1341" height="22.475" fill="#FFC700"/>
<mask id="path-10-inside-2_3095_645" fill="white">
<path d="M351.795 314.192H385.692V325.817H351.795V314.192Z"/>
</mask>
<path d="M351.795 314.192H385.692V325.817H351.795V314.192Z" fill="#FFC700"/>
<path d="M385.692 323.817H351.795V327.817H385.692V323.817Z" fill="#FFC700" mask="url(#path-10-inside-2_3095_645)"/>
</g>
<path d="M155.758 351.303C155.758 349.646 157.101 348.303 158.758 348.303H205.243C206.9 348.303 208.243 349.646 208.243 351.303V394.746C208.243 396.517 206.716 397.902 204.954 397.732L158.469 393.233C156.931 393.084 155.758 391.792 155.758 390.247V351.303Z" fill="#293240" stroke="#191E26" stroke-width="2"/>
<path d="M153 343C153 338.582 156.582 335 161 335H203C207.418 335 211 338.582 211 343V367.076L206.17 363.68C199.747 359.163 191.575 357.927 184.104 360.341L180.939 361.364L175.345 359.394C170.035 357.524 164.25 357.502 158.925 359.33L153 361.364V343Z" fill="#293240"/>
<path d="M154 343C154 339.134 157.134 336 161 336H203C206.866 336 210 339.134 210 343V365.15L206.745 362.862C200.065 358.165 191.567 356.879 183.796 359.389L180.953 360.308L175.677 358.451C170.155 356.506 164.138 356.483 158.6 358.384L154 359.963V343Z" stroke="black" stroke-opacity="0.4" stroke-width="2"/>
<circle cx="181.561" cy="353.015" r="2.19697" fill="#191E26"/>
<path d="M346.242 351.303C346.242 349.646 344.899 348.303 343.242 348.303H296.757C295.1 348.303 293.757 349.646 293.757 351.303V394.746C293.757 396.517 295.284 397.902 297.046 397.732L343.531 393.233C345.069 393.084 346.242 391.792 346.242 390.247V351.303Z" fill="#293240" stroke="#191E26" stroke-width="2"/>
<path d="M349 343C349 338.582 345.418 335 341 335H299C294.582 335 291 338.582 291 343V367.076L295.83 363.68C302.253 359.163 310.425 357.927 317.896 360.341L321.061 361.364L326.655 359.394C331.965 357.524 337.75 357.502 343.075 359.33L349 361.364V343Z" fill="#293240"/>
<path d="M348 343C348 339.134 344.866 336 341 336H299C295.134 336 292 339.134 292 343V365.15L295.255 362.862C301.935 358.165 310.433 356.879 318.204 359.389L321.047 360.308L326.323 358.451C331.845 356.506 337.862 356.483 343.4 358.384L348 359.963V343Z" stroke="black" stroke-opacity="0.4" stroke-width="2"/>
<circle r="2.19697" transform="matrix(-1 0 0 1 320.439 353.015)" fill="#191E26"/>
<path d="M240.366 332.068L234.466 317H271.471L265.101 331.555C263.385 335.474 262.5 339.706 262.5 343.984V420H242.5V343.371C242.5 339.503 241.776 335.669 240.366 332.068Z" fill="#293240" stroke="#191E26" stroke-width="2"/>
</g>
<rect x="111" y="275" width="47" height="54.6216" rx="11" fill="#282828"/>
<rect x="141" y="246" width="6" height="37" rx="3" fill="#282828"/>
<rect x="146.567" y="286.432" width="2.54054" height="26.6757" rx="1.27027" transform="rotate(90 146.567 286.432)" fill="#1C1C1C"/>
<rect x="146.567" y="294.054" width="2.54054" height="26.6757" rx="1.27027" transform="rotate(90 146.567 294.054)" fill="#1C1C1C"/>
<rect x="146.567" y="301.676" width="2.54054" height="26.6757" rx="1.27027" transform="rotate(90 146.567 301.676)" fill="#1C1C1C"/>
<rect x="146.567" y="308.027" width="2.54054" height="26.6757" rx="1.27027" transform="rotate(90 146.567 308.027)" fill="#1C1C1C"/>
<rect x="146.567" y="315.649" width="2.54054" height="26.6757" rx="1.27027" transform="rotate(90 146.567 315.649)" fill="#1C1C1C"/>
<circle cx="252.5" cy="326.5" r="2.5" fill="#191E26"/>
<circle cx="252.5" cy="342.5" r="2.5" fill="#191E26"/>
<path d="M255 358.5C255 359.881 253.881 361 252.5 361C251.119 361 250 359.881 250 358.5C250 357.119 251.119 356 252.5 356C253.881 356 255 357.119 255 358.5Z" fill="#191E26"/>
<circle cx="252.5" cy="374.5" r="2.5" fill="#191E26"/>
<circle cx="252.5" cy="390.5" r="2.5" fill="#191E26"/>
<circle cx="252.5" cy="406.5" r="2.5" fill="#191E26"/>
<path d="M162.481 96.0336C163.051 95.3771 163.877 95 164.747 95H341.797C342.773 95 343.688 95.4748 344.25 96.2727L364.671 125.273C366.071 127.26 364.649 130 362.218 130H139.576C137.004 130 135.625 126.976 137.311 125.034L162.481 96.0336Z" fill="#232323"/>
</svg>
