<svg width="350" height="379" viewBox="0 0 350 379" fill="none" xmlns="http://www.w3.org/2000/svg">
<path fill-rule="evenodd" clip-rule="evenodd" d="M70.536 59.5025L105.105 74.0032L116.342 70.0145C153.219 56.9217 199.898 57.2082 233.541 70.7338L244.134 74.9917L279.782 60.0506C299.387 51.831 317.258 45.0846 319.495 45.0538C324.917 44.9827 332.99 51.5349 334.4 57.1486C335.496 61.52 334.251 66.6144 323.039 103.656C312.989 136.862 313.074 135.154 320.82 149.039C339.109 181.823 349.385 220.7 349.743 258.471C349.998 285.253 347.177 298.276 337.459 315.204C318.968 347.417 277.395 369.872 225.039 375.93C202.75 378.509 147.307 378.507 124.975 375.926C85.2713 371.337 52.7756 357.729 29.8304 336.084C8.15445 315.637 0.377186 295.08 0.467575 258.471C0.561809 220.977 9.81606 183.675 27.2091 150.685L35.9903 134.031L31.8286 119.805C29.5381 111.982 25.4975 98.2235 22.8493 89.2327C13.5451 57.6486 13.5335 57.4486 20.8435 49.3271C23.1936 46.7174 26.9668 45 30.3535 45C33.4402 45 51.5237 51.5253 70.536 59.5025Z" fill="#FF7319"/>
<path d="M127.908 203.519L118.813 205.79L112.167 208.292C97.3866 213.856 83.6836 221.874 71.6238 231.982C65.5767 237.051 60.4991 243.141 55.7673 249.455C41.6899 268.24 34.1998 289.48 34.1235 310.83C34.0504 331.676 40.345 343.382 57.8888 355.025C76.4599 367.35 102.761 375.099 134.896 377.712C152.97 379.181 197.844 379.183 215.884 377.714C258.259 374.264 291.907 361.478 306.873 343.135C314.739 333.496 317.022 326.08 316.815 310.83C316.525 289.322 308.209 267.185 293.406 248.517L289.05 244.069C272.78 227.455 253.087 214.584 231.339 206.353L222.766 203.928C195.535 196.227 157.755 196.063 127.908 203.519Z" fill="white"/>
<path d="M282.151 65.6451L252.723 78.3302L262.864 84.1843C273.026 90.0519 301.725 116.942 307.018 125.553C309.697 129.915 310.3 128.502 319.193 97.0138C333.43 46.6 331.036 44.573 282.151 65.6451Z" fill="#77500C"/>
<path d="M25.0013 57.2755C22.1858 61.5718 22.6012 63.9027 31.6882 94.754C37.0173 112.845 41.3771 128.171 41.3771 128.807C41.3771 129.444 44.6984 125.777 48.7582 120.657C59.3029 107.362 80.5461 88.0095 89.7484 83.3151C94.0698 81.1092 96.8545 78.6687 95.9353 77.8918C91.9793 74.5474 37.2769 52.6926 32.8632 52.6926C29.865 52.6926 26.8533 54.4484 25.0013 57.2755Z" fill="#77500C"/>
<path d="M156.418 171.657C156.418 180.154 149.53 187.042 141.033 187.042C132.536 187.042 125.647 180.154 125.647 171.657C125.647 163.16 132.536 156.272 141.033 156.272C149.53 156.272 156.418 163.16 156.418 171.657Z" fill="black"/>
<path d="M223.793 173.036C223.793 181.533 216.905 188.422 208.408 188.422C199.911 188.422 193.023 181.533 193.023 173.036C193.023 164.539 199.911 157.651 208.408 157.651C216.905 157.651 223.793 164.539 223.793 173.036Z" fill="black"/>
<path fill-rule="evenodd" clip-rule="evenodd" d="M180.596 232.654H169.057V242.682H169.045C169.053 242.895 169.057 243.108 169.057 243.323C169.057 252.882 161.307 260.632 151.748 260.632C142.189 260.632 134.44 252.882 134.44 243.323C134.44 243.108 134.444 242.895 134.451 242.682H122.908C122.903 242.895 122.901 243.109 122.901 243.323C122.901 259.255 135.816 272.171 151.748 272.171C161.185 272.171 169.563 267.639 174.826 260.634C180.089 267.639 188.468 272.171 197.904 272.171C213.836 272.171 226.752 259.255 226.752 243.323C226.752 243.109 226.749 242.895 226.745 242.682H215.201C215.209 242.895 215.213 243.108 215.213 243.323C215.213 252.882 207.464 260.632 197.904 260.632C188.345 260.632 180.596 252.882 180.596 243.323C180.596 243.108 180.6 242.895 180.608 242.682H180.596V232.654Z" fill="black"/>
<mask id="path-3-inside-1_0_1" fill="white">
<path fill-rule="evenodd" clip-rule="evenodd" d="M165.517 203.807C158.976 203.807 152.389 207.523 152.389 214.064C152.389 226.455 162.434 236.501 174.826 236.501C187.217 236.501 197.263 226.455 197.263 214.064C197.263 207.523 190.676 203.807 184.135 203.807H165.517Z"/>
</mask>
<path fill-rule="evenodd" clip-rule="evenodd" d="M165.517 203.807C158.976 203.807 152.389 207.523 152.389 214.064C152.389 226.455 162.434 236.501 174.826 236.501C187.217 236.501 197.263 226.455 197.263 214.064C197.263 207.523 190.676 203.807 184.135 203.807H165.517Z" fill="#77500C"/>
<path d="M174.826 225.374C168.58 225.374 163.516 220.31 163.516 214.064H141.262C141.262 232.601 156.289 247.628 174.826 247.628V225.374ZM186.136 214.064C186.136 220.31 181.072 225.374 174.826 225.374V247.628C193.363 247.628 208.39 232.601 208.39 214.064H186.136ZM184.135 192.68H165.517V214.934H184.135V192.68ZM208.39 214.064C208.39 206.557 204.441 200.845 199.586 197.404C194.957 194.124 189.336 192.68 184.135 192.68V214.934C184.735 214.934 185.318 215.022 185.816 215.168C186.321 215.316 186.611 215.485 186.718 215.561C186.816 215.631 186.651 215.54 186.454 215.194C186.231 214.802 186.136 214.37 186.136 214.064H208.39ZM163.516 214.064C163.516 214.37 163.42 214.802 163.198 215.194C163.001 215.54 162.836 215.631 162.934 215.561C163.041 215.485 163.331 215.316 163.836 215.168C164.334 215.022 164.917 214.934 165.517 214.934V192.68C160.316 192.68 154.695 194.124 150.066 197.404C145.211 200.845 141.262 206.557 141.262 214.064H163.516Z" fill="black" mask="url(#path-3-inside-1_0_1)"/>
<path d="M81 89C81 81.8203 86.8203 76 94 76H258C265.18 76 271 81.8203 271 89V108.734C271 113.778 268.082 118.367 263.514 120.506L192.119 153.949C181.906 158.734 170.094 158.734 159.881 153.949L88.4855 120.506C83.9178 118.367 81 113.778 81 108.734V89Z" fill="#242424"/>
<rect width="150.129" height="147.772" rx="16" transform="matrix(0.902985 0.429673 -0.902985 0.429673 174.436 0)" fill="#323232"/>
<ellipse cx="176.5" cy="61.5" rx="17.5" ry="12.5" fill="#202020"/>
<path fill-rule="evenodd" clip-rule="evenodd" d="M174.505 60.861C174.041 62.3936 174.908 64.0115 176.441 64.4746L258.101 89.1518V187.897C258.101 188.082 258.118 188.263 258.152 188.439C255.292 189.573 253.269 192.364 253.269 195.628C253.269 197.788 254.155 199.741 255.584 201.144L245.274 219C242.965 223 245.852 228 250.471 228H271.529C276.148 228 279.035 223 276.726 219L266.416 201.144C267.845 199.741 268.731 197.788 268.731 195.628C268.731 192.364 266.708 189.573 263.848 188.439C263.882 188.263 263.899 188.082 263.899 187.897V87.399C263.899 86.2987 263.286 85.3416 262.383 84.8505C262.037 84.4535 261.579 84.1458 261.037 83.9822L178.118 58.9245C176.586 58.4614 174.968 59.3283 174.505 60.861Z" fill="#FFD600"/>
</svg>
