<svg width="512" height="512" viewBox="0 0 512 512" fill="none" xmlns="http://www.w3.org/2000/svg">
<rect width="512" height="512" fill="#F9A535"/>
<path d="M189.905 115.774L247.504 138.299C258.852 134.802 271.656 132.93 286.112 133.209C300.567 132.93 313.372 134.802 324.719 138.299L382.318 115.774C394.11 113.659 404.435 123.597 402.237 134.948L394.086 190.798C404.001 214.381 407.327 238.177 407.327 252.573C407.327 289.556 391.148 335.666 286.112 335.666C181.075 335.666 164.896 289.556 164.896 252.573C164.896 238.177 168.222 214.381 178.137 190.798L169.986 134.948C167.789 123.597 178.113 113.659 189.905 115.774Z" fill="white"/>
<path fill-rule="evenodd" clip-rule="evenodd" d="M192.02 108.437L191.273 108.303C174.579 105.309 159.29 119.354 162.416 136.189L170.246 189.838C160.537 213.771 157.225 237.665 157.225 252.573C157.225 272.073 161.494 295.307 180.831 313.492C200.036 331.551 232.659 343.258 286.113 343.258C339.566 343.258 372.189 331.551 391.393 313.492C410.731 295.307 415 272.073 415 252.573C415 237.664 411.687 213.771 401.978 189.838L409.808 136.19C412.936 119.354 397.645 105.309 380.951 108.303L380.205 108.437L324.368 130.272C312.902 127.036 300.19 125.357 286.113 125.615C272.035 125.357 259.323 127.036 247.857 130.272L192.02 108.437ZM247.505 138.298C258.853 134.802 271.657 132.93 286.113 133.209C300.568 132.93 313.373 134.802 324.72 138.298L382.319 115.774C394.111 113.659 404.436 123.596 402.238 134.947L394.087 190.798C404.002 214.38 407.328 238.177 407.328 252.573C407.328 289.555 391.148 335.666 286.113 335.666C181.076 335.666 164.897 289.555 164.897 252.573C164.897 238.177 168.223 214.38 178.138 190.798L169.986 134.947C167.789 123.596 178.113 113.659 189.905 115.774L247.505 138.298Z" fill="#F9A535"/>
<path d="M129.676 176.005L187.276 198.529C198.624 195.033 211.428 193.161 225.884 193.44C240.339 193.161 253.144 195.033 264.491 198.529L322.09 176.005C333.882 173.89 344.207 183.827 342.009 195.178L333.858 251.029C343.773 274.611 347.099 298.407 347.099 312.803C347.099 349.786 330.919 395.897 225.884 395.897C120.847 395.897 104.668 349.786 104.668 312.803C104.668 298.407 107.994 274.611 117.909 251.029L109.757 195.178C107.56 183.827 117.884 173.89 129.676 176.005Z" fill="white"/>
<path fill-rule="evenodd" clip-rule="evenodd" d="M131.791 168.668L131.045 168.534C114.35 165.54 99.0612 179.585 102.188 196.42L110.018 250.069C100.308 274.001 96.9963 297.895 96.9963 312.803C96.9963 332.303 101.265 355.538 120.603 373.722C139.807 391.782 172.431 403.489 225.884 403.489C279.337 403.489 311.96 391.782 331.165 373.722C350.502 355.538 354.771 332.303 354.771 312.803C354.771 297.895 351.459 274.001 341.75 250.069L349.58 196.42C352.707 179.584 337.416 165.54 320.722 168.534L319.976 168.668L264.139 190.503C252.674 187.267 239.961 185.588 225.884 185.846C211.806 185.588 199.094 187.267 187.628 190.503L131.791 168.668ZM187.276 198.529C198.624 195.032 211.428 193.16 225.884 193.439C240.339 193.16 253.144 195.032 264.491 198.529L322.09 176.004C333.882 173.89 344.207 183.827 342.009 195.178L333.858 251.028C343.773 274.611 347.099 298.407 347.099 312.803C347.099 349.786 330.92 395.896 225.884 395.896C120.847 395.896 104.668 349.786 104.668 312.803C104.668 298.407 107.994 274.611 117.909 251.028L109.758 195.178C107.561 183.827 117.885 173.89 129.677 176.004L187.276 198.529Z" fill="#F9A535"/>
<path d="M240.461 255.437V279.732C240.461 286.441 245.957 291.88 252.736 291.88C259.515 291.88 265.011 286.441 265.011 279.732V255.437C265.011 248.728 259.515 243.289 252.736 243.289C245.957 243.289 240.461 248.728 240.461 255.437Z" fill="#F9A535"/>
<path d="M186.757 255.437V279.732C186.757 286.441 192.253 291.88 199.032 291.88C205.812 291.88 211.307 286.441 211.307 279.732V255.437C211.307 248.728 205.812 243.289 199.032 243.289C192.253 243.289 186.757 248.728 186.757 255.437Z" fill="#F9A535"/>
<path fill-rule="evenodd" clip-rule="evenodd" d="M229.335 302.799C233.143 301.721 235.857 298.948 235.857 295.984C235.857 292.182 231.392 291.125 225.884 291.125C220.376 291.125 215.91 292.182 215.91 295.984C215.91 298.948 218.625 301.721 222.432 302.799V308.587C222.432 314.038 217.968 318.457 212.461 318.457C209.456 318.457 206.762 317.142 204.934 315.061C203.846 313.823 201.815 313.389 200.65 314.556L200.113 315.094C198.876 316.334 198.616 318.296 199.779 319.606C202.871 323.091 207.407 325.29 212.461 325.29C217.935 325.29 222.801 322.71 225.884 318.711C228.967 322.71 233.832 325.29 239.307 325.29C244.361 325.29 248.896 323.091 251.989 319.606C253.152 318.296 252.891 316.334 251.654 315.094L251.117 314.556C249.953 313.389 247.922 313.823 246.834 315.061C245.006 317.142 242.311 318.457 239.307 318.457C233.8 318.457 229.335 314.038 229.335 308.587V302.799Z" fill="#F9A535"/>
</svg>
