<svg width="500" height="500" viewBox="0 0 500 500" fill="none" xmlns="http://www.w3.org/2000/svg">
<path fill-rule="evenodd" clip-rule="evenodd" d="M145.536 122.503L180.105 137.003L191.342 133.015C228.219 119.922 274.898 120.208 308.541 133.734L319.134 137.992L354.782 123.051C374.387 114.831 392.258 108.085 394.495 108.054C399.917 107.983 407.99 114.535 409.4 120.149C410.496 124.52 409.251 129.614 398.039 166.656C387.989 199.862 388.074 198.154 395.82 212.039C414.109 244.823 424.385 283.7 424.743 321.471C424.998 348.253 422.177 361.276 412.459 378.204C393.968 410.417 352.395 432.872 300.039 438.93C277.75 441.509 222.307 441.507 199.975 438.926C160.271 434.337 127.776 420.729 104.83 399.084C83.1544 378.637 75.3772 358.08 75.4676 321.471C75.5618 283.977 84.8161 246.675 102.209 213.685L110.99 197.031L106.829 182.805C104.538 174.982 100.498 161.223 97.8493 152.233C88.5451 120.649 88.5335 120.449 95.8435 112.327C98.1936 109.717 101.967 108 105.354 108C108.44 108 126.524 114.525 145.536 122.503Z" fill="#FF7319"/>
<path d="M202.908 266.519L193.813 268.79L187.167 271.292C172.387 276.856 158.684 284.874 146.624 294.982C140.577 300.051 135.499 306.141 130.767 312.455C116.69 331.24 109.2 352.48 109.124 373.83C109.05 394.676 115.345 406.382 132.889 418.025C151.46 430.35 177.761 438.099 209.896 440.712C227.97 442.181 272.844 442.183 290.884 440.714C333.259 437.264 366.907 424.478 381.873 406.135C389.739 396.496 392.022 389.08 391.815 373.83C391.525 352.322 383.209 330.185 368.406 311.517L364.05 307.069C347.78 290.455 328.087 277.584 306.339 269.353L297.766 266.928C270.535 259.227 232.755 259.063 202.908 266.519Z" fill="white"/>
<path d="M357.151 128.645L327.723 141.33L337.864 147.184C348.026 153.052 376.725 179.942 382.018 188.553C384.697 192.915 385.3 191.502 394.193 160.014C408.43 109.6 406.036 107.573 357.151 128.645Z" fill="#77500C"/>
<path d="M100.001 120.275C97.1858 124.572 97.6012 126.903 106.688 157.754C112.017 175.845 116.377 191.171 116.377 191.807C116.377 192.444 119.698 188.777 123.758 183.657C134.303 170.362 155.546 151.01 164.748 146.315C169.07 144.109 171.855 141.669 170.935 140.892C166.979 137.547 112.277 115.693 107.863 115.693C104.865 115.693 101.853 117.448 100.001 120.275Z" fill="#77500C"/>
<path d="M231.418 234.657C231.418 243.154 224.53 250.042 216.033 250.042C207.536 250.042 200.647 243.154 200.647 234.657C200.647 226.16 207.536 219.272 216.033 219.272C224.53 219.272 231.418 226.16 231.418 234.657Z" fill="black"/>
<path d="M298.793 236.036C298.793 244.533 291.905 251.422 283.408 251.422C274.911 251.422 268.023 244.533 268.023 236.036C268.023 227.539 274.911 220.651 283.408 220.651C291.905 220.651 298.793 227.539 298.793 236.036Z" fill="black"/>
<path fill-rule="evenodd" clip-rule="evenodd" d="M255.596 295.654H244.057V305.682H244.045C244.053 305.895 244.057 306.108 244.057 306.323C244.057 315.882 236.307 323.632 226.748 323.632C217.189 323.632 209.44 315.882 209.44 306.323C209.44 306.108 209.444 305.895 209.451 305.682H197.908C197.903 305.895 197.901 306.109 197.901 306.323C197.901 322.255 210.816 335.171 226.748 335.171C236.185 335.171 244.563 330.639 249.826 323.634C255.089 330.639 263.468 335.171 272.904 335.171C288.836 335.171 301.752 322.255 301.752 306.323C301.752 306.109 301.75 305.895 301.745 305.682H290.201C290.209 305.895 290.213 306.108 290.213 306.323C290.213 315.882 282.464 323.632 272.905 323.632C263.345 323.632 255.596 315.882 255.596 306.323C255.596 306.108 255.6 305.895 255.608 305.682H255.596V295.654Z" fill="black"/>
<mask id="path-3-inside-1_3099_152" fill="white">
<path fill-rule="evenodd" clip-rule="evenodd" d="M240.517 266.807C233.976 266.807 227.389 270.523 227.389 277.064C227.389 289.455 237.434 299.501 249.826 299.501C262.218 299.501 272.263 289.455 272.263 277.064C272.263 270.523 265.676 266.807 259.135 266.807H240.517Z"/>
</mask>
<path fill-rule="evenodd" clip-rule="evenodd" d="M240.517 266.807C233.976 266.807 227.389 270.523 227.389 277.064C227.389 289.455 237.434 299.501 249.826 299.501C262.218 299.501 272.263 289.455 272.263 277.064C272.263 270.523 265.676 266.807 259.135 266.807H240.517Z" fill="#77500C"/>
<path d="M249.826 288.374C243.58 288.374 238.516 283.31 238.516 277.064H216.262C216.262 295.601 231.289 310.628 249.826 310.628V288.374ZM261.136 277.064C261.136 283.31 256.072 288.374 249.826 288.374V310.628C268.363 310.628 283.39 295.601 283.39 277.064H261.136ZM259.135 255.68H240.517V277.934H259.135V255.68ZM283.39 277.064C283.39 269.557 279.441 263.845 274.586 260.404C269.957 257.124 264.336 255.68 259.135 255.68V277.934C259.735 277.934 260.318 278.022 260.816 278.168C261.321 278.316 261.611 278.485 261.718 278.561C261.816 278.631 261.651 278.54 261.454 278.194C261.232 277.802 261.136 277.37 261.136 277.064H283.39ZM238.516 277.064C238.516 277.37 238.421 277.802 238.198 278.194C238.001 278.54 237.836 278.631 237.934 278.561C238.041 278.485 238.331 278.316 238.836 278.168C239.334 278.022 239.917 277.934 240.517 277.934V255.68C235.316 255.68 229.695 257.124 225.066 260.404C220.211 263.845 216.262 269.557 216.262 277.064H238.516Z" fill="black" mask="url(#path-3-inside-1_3099_152)"/>
<mask id="mask0_3099_152" style="mask-type:alpha" maskUnits="userSpaceOnUse" x="73" y="296" width="354" height="147">
<path d="M152.132 323.549L76.9707 296.5C48.4679 424 179.467 448.5 276.473 442C291.504 440.993 322.474 440.5 358.474 424C430.474 391 428.974 335.667 424.974 306.5L342.88 329.955C280.197 347.865 213.472 345.624 152.132 323.549Z" fill="black"/>
</mask>
<g mask="url(#mask0_3099_152)">
<rect x="65.4668" y="288" width="360" height="186" fill="#293240"/>
<path d="M199.707 325.581L182.653 323.336L189.834 338.966L240.834 449.966L249.225 468.228L258.011 450.153L310.511 342.153L317.773 327.214L301.214 328.53L251.874 332.45L199.707 325.581Z" fill="#EFEFEF" stroke="#222A36" stroke-width="19"/>
</g>
<path fill-rule="evenodd" clip-rule="evenodd" d="M243.379 365.505L232.406 346.5C231.252 344.5 232.695 342 235.004 342H264.129C266.438 342 267.881 344.5 266.727 346.5L256.032 365.023C258.443 366.849 260 369.743 260 373V429C260 434.523 255.523 439 250 439C244.477 439 240 434.523 240 429V373C240 370.016 241.307 367.338 243.379 365.505Z" fill="#E12C2C"/>
<path fill-rule="evenodd" clip-rule="evenodd" d="M356.231 366.681C357.718 367.079 359.079 365.718 358.681 364.231L358.528 363.659L364.016 368.498C365.171 369.516 366.995 368.902 367.299 367.393L370.38 352.112C370.684 350.602 369.241 349.33 367.782 349.821L355.892 353.822L354.646 349.174C354.248 347.687 352.389 347.189 351.3 348.277L340.277 359.3C339.189 360.389 339.687 362.247 341.174 362.646L356.231 366.681Z" fill="white"/>
<path d="M334.767 361.205C335.51 359.274 337.365 358 339.434 358H369.72C373.229 358 375.646 361.52 374.387 364.795L368.233 380.795C367.49 382.726 365.635 384 363.566 384H333.28C329.771 384 327.354 380.48 328.613 377.205L334.767 361.205Z" fill="#1B212B"/>
</svg>
