<svg width="500" height="500" viewBox="0 0 500 500" fill="none" xmlns="http://www.w3.org/2000/svg">
<path fill-rule="evenodd" clip-rule="evenodd" d="M236.5 407C334.531 407 414 333.575 414 243C414 212.922 405.236 184.735 389.939 160.5C390.727 156.843 391.709 152.717 392.758 148.315C398.447 124.425 406.074 92.3928 395 83C386.584 75.8618 355.969 86.1144 335.291 93.0394C328.646 95.2648 323.026 97.1466 319.5 97.9972C317.507 97.0212 315.491 96.0792 313.454 95.1722C290.174 84.8081 264.071 79 236.5 79C206.516 79 178.268 85.8692 153.5 97.9972C149.973 97.1466 144.354 95.2648 137.709 93.0394C117.031 86.1144 86.4161 75.8618 78 83C66.9257 92.3928 74.5535 124.425 80.2423 148.315C81.2907 152.717 82.2732 156.843 83.0607 160.5C67.7637 184.735 59 212.922 59 243C59 333.575 138.469 407 236.5 407Z" fill="#3764A8"/>
<path fill-rule="evenodd" clip-rule="evenodd" d="M132.536 98.5025L167.105 113.003L178.342 109.015C215.219 95.9217 261.898 96.2082 295.541 109.734L306.134 113.992L341.782 99.0506C361.387 90.831 379.258 84.0846 381.495 84.0538C386.917 83.9827 394.99 90.5349 396.4 96.1486C397.496 100.52 396.251 105.614 385.039 142.656C374.989 175.862 375.074 174.154 382.82 188.039C401.109 220.823 411.385 259.7 411.743 297.471C411.998 324.253 409.177 337.276 399.459 354.204C380.968 386.417 339.395 408.872 287.039 414.93C264.75 417.509 209.307 417.507 186.975 414.926C147.271 410.337 114.776 396.729 91.8304 375.084C70.1544 354.637 62.3772 334.08 62.4676 297.471C62.5618 259.977 71.8161 222.675 89.2091 189.685L97.9903 173.031L93.8286 158.805C91.5381 150.982 87.4975 137.223 84.8493 128.233C75.5451 96.6486 75.5335 96.4486 82.8435 88.3271C85.1936 85.7174 88.9668 84 92.3535 84C95.4402 84 113.524 90.5253 132.536 98.5025Z" fill="#FF7319"/>
<path d="M189.908 242.519L180.813 244.79L174.167 247.292C159.387 252.856 145.684 260.874 133.624 270.982C127.577 276.051 122.499 282.141 117.767 288.455C103.69 307.24 96.1998 328.48 96.1235 349.83C96.0504 370.676 102.345 382.382 119.889 394.025C138.46 406.35 164.761 414.099 196.896 416.712C214.97 418.181 259.844 418.183 277.884 416.714C320.259 413.264 353.907 400.478 368.873 382.135C376.739 372.496 379.022 365.08 378.815 349.83C378.525 328.322 370.209 306.185 355.406 287.517L351.05 283.069C334.78 266.455 315.087 253.584 293.339 245.353L284.766 242.928C257.535 235.227 219.755 235.063 189.908 242.519Z" fill="white"/>
<path d="M344.151 104.645L314.723 117.33L324.864 123.184C335.026 129.052 363.725 155.942 369.018 164.553C371.697 168.915 372.3 167.502 381.193 136.014C395.43 85.6 393.036 83.573 344.151 104.645Z" fill="#77500C"/>
<path d="M87.0013 96.2755C84.1858 100.572 84.6012 102.903 93.6882 133.754C99.0173 151.845 103.377 167.171 103.377 167.807C103.377 168.444 106.698 164.777 110.758 159.657C121.303 146.362 142.546 127.01 151.748 122.315C156.07 120.109 158.855 117.669 157.935 116.892C153.979 113.547 99.2769 91.6926 94.8632 91.6926C91.865 91.6926 88.8533 93.4484 87.0013 96.2755Z" fill="#77500C"/>
<path d="M218.418 210.657C218.418 219.154 211.53 226.042 203.033 226.042C194.536 226.042 187.647 219.154 187.647 210.657C187.647 202.16 194.536 195.272 203.033 195.272C211.53 195.272 218.418 202.16 218.418 210.657Z" fill="black"/>
<path d="M285.793 212.036C285.793 220.533 278.905 227.422 270.408 227.422C261.911 227.422 255.023 220.533 255.023 212.036C255.023 203.539 261.911 196.651 270.408 196.651C278.905 196.651 285.793 203.539 285.793 212.036Z" fill="black"/>
<path fill-rule="evenodd" clip-rule="evenodd" d="M242.596 271.654H231.057V281.682H231.045C231.053 281.895 231.057 282.108 231.057 282.323C231.057 291.882 223.307 299.632 213.748 299.632C204.189 299.632 196.44 291.882 196.44 282.323C196.44 282.108 196.444 281.895 196.451 281.682H184.908C184.903 281.895 184.901 282.109 184.901 282.323C184.901 298.255 197.816 311.171 213.748 311.171C223.185 311.171 231.563 306.639 236.826 299.634C242.089 306.639 250.468 311.171 259.904 311.171C275.836 311.171 288.752 298.255 288.752 282.323C288.752 282.109 288.75 281.895 288.745 281.682H277.201C277.209 281.895 277.213 282.108 277.213 282.323C277.213 291.882 269.464 299.632 259.905 299.632C250.345 299.632 242.596 291.882 242.596 282.323C242.596 282.108 242.6 281.895 242.608 281.682H242.596V271.654Z" fill="black"/>
<mask id="path-4-inside-1_3097_19" fill="white">
<path fill-rule="evenodd" clip-rule="evenodd" d="M227.517 242.807C220.976 242.807 214.389 246.523 214.389 253.064C214.389 265.455 224.434 275.501 236.826 275.501C249.218 275.501 259.263 265.455 259.263 253.064C259.263 246.523 252.676 242.807 246.135 242.807H227.517Z"/>
</mask>
<path fill-rule="evenodd" clip-rule="evenodd" d="M227.517 242.807C220.976 242.807 214.389 246.523 214.389 253.064C214.389 265.455 224.434 275.501 236.826 275.501C249.218 275.501 259.263 265.455 259.263 253.064C259.263 246.523 252.676 242.807 246.135 242.807H227.517Z" fill="#77500C"/>
<path d="M236.826 264.374C230.58 264.374 225.516 259.31 225.516 253.064H203.262C203.262 271.601 218.289 286.628 236.826 286.628V264.374ZM248.136 253.064C248.136 259.31 243.072 264.374 236.826 264.374V286.628C255.363 286.628 270.39 271.601 270.39 253.064H248.136ZM246.135 231.68H227.517V253.934H246.135V231.68ZM270.39 253.064C270.39 245.557 266.441 239.845 261.586 236.404C256.957 233.124 251.336 231.68 246.135 231.68V253.934C246.735 253.934 247.318 254.022 247.816 254.168C248.321 254.316 248.611 254.485 248.718 254.561C248.816 254.631 248.651 254.54 248.454 254.194C248.232 253.802 248.136 253.37 248.136 253.064H270.39ZM225.516 253.064C225.516 253.37 225.421 253.802 225.198 254.194C225.001 254.54 224.836 254.631 224.934 254.561C225.041 254.485 225.331 254.316 225.836 254.168C226.334 254.022 226.917 253.934 227.517 253.934V231.68C222.316 231.68 216.695 233.124 212.066 236.404C207.211 239.845 203.262 245.557 203.262 253.064H225.516Z" fill="black" mask="url(#path-4-inside-1_3097_19)"/>
<mask id="mask0_3097_19" style="mask-type:alpha" maskUnits="userSpaceOnUse" x="60" y="272" width="354" height="147">
<path d="M139.132 299.549L63.9707 272.5C35.4679 400 166.467 424.5 263.473 418C278.504 416.993 309.474 416.5 345.474 400C417.474 367 415.974 311.667 411.974 282.5L329.88 305.955C267.197 323.865 200.472 321.624 139.132 299.549Z" fill="black"/>
</mask>
<g mask="url(#mask0_3097_19)">
<rect x="52.4668" y="264" width="360" height="186" fill="#3C7CDD"/>
<path fill-rule="evenodd" clip-rule="evenodd" d="M194.002 350.461C192.045 352.145 191.11 354.858 191.823 357.518C192.815 361.219 196.618 363.415 200.318 362.423C204.019 361.432 206.215 357.628 205.223 353.928C204.41 350.893 201.705 348.87 198.717 348.788C191.289 330.172 188.735 313.519 188.399 307.212L183.406 307.479C183.769 314.291 186.42 331.393 194.002 350.461Z" fill="white"/>
<path fill-rule="evenodd" clip-rule="evenodd" d="M275.96 351.905C273.424 352.385 271.257 354.268 270.545 356.928C269.553 360.628 271.749 364.432 275.449 365.423C279.15 366.415 282.953 364.219 283.945 360.519C284.758 357.484 283.427 354.379 280.88 352.814C283.756 332.978 289.87 317.279 292.732 311.649L288.275 309.383C285.184 315.465 278.928 331.601 275.96 351.905Z" fill="white"/>
</g>
</svg>
