<svg width="500" height="500" viewBox="0 0 500 500" fill="none" xmlns="http://www.w3.org/2000/svg">
<path fill-rule="evenodd" clip-rule="evenodd" d="M126.141 139.254L160.252 153.567L171.341 149.63C207.729 136.707 253.789 136.989 286.986 150.341L297.438 154.543L332.614 139.795C351.957 131.68 369.594 125.021 371.799 124.991C377.151 124.92 385.118 131.387 386.506 136.93C387.588 141.244 386.361 146.273 375.297 182.841C365.381 215.62 365.465 213.936 373.107 227.641C391.155 260.006 401.295 298.385 401.646 335.671C401.899 362.108 399.117 374.964 389.527 391.674C371.281 423.474 330.259 445.642 278.597 451.622C256.601 454.168 201.896 454.168 179.858 451.617C140.681 447.09 108.617 433.655 85.9748 412.288C64.5866 392.102 56.9123 371.809 57.0008 335.671C57.0942 298.658 66.2261 261.833 83.3888 229.266L92.0538 212.826L87.9462 198.782C85.6872 191.06 81.7001 177.478 79.0871 168.603C69.906 137.422 69.8937 137.226 77.1083 129.209C79.4263 126.631 83.1504 124.937 86.491 124.937C89.5367 124.937 107.38 131.378 126.141 139.254H126.141Z" fill="#FF7319"/>
<path d="M276.352 281.357L284.813 283.75C306.273 291.875 325.704 304.582 341.758 320.983L346.058 325.375C360.664 343.802 368.869 365.656 369.157 386.887C369.361 401.942 367.107 409.263 359.346 418.778C344.578 436.887 311.376 449.508 269.563 452.914C251.761 454.362 207.483 454.362 189.649 452.911C157.939 450.332 131.986 442.684 113.661 430.515C96.3505 419.021 90.1388 407.465 90.2126 386.887C90.2863 365.811 97.6779 344.844 111.569 326.299L118.582 316.937C132.404 303.193 148.982 292.534 167.221 285.666L173.779 283.194L182.754 280.952C212.205 273.594 249.485 273.753 276.352 281.357V281.357Z" fill="#FEFFFF"/>
<path d="M371.502 175.813C362.726 206.898 362.132 208.295 359.487 203.989C354.266 195.487 325.945 168.942 315.919 163.149L305.912 157.369L334.95 144.847C383.188 124.047 385.55 126.047 371.502 175.813H371.502Z" fill="#77500C"/>
<path d="M88.966 132.062C93.3218 132.062 147.298 153.636 151.201 156.937C152.108 157.704 149.362 160.114 145.098 162.29C136.017 166.926 115.054 186.029 104.651 199.154C100.645 204.207 97.3679 207.83 97.3679 207.2C97.3679 206.571 93.0662 191.442 87.8058 173.583C78.8409 143.128 78.4304 140.826 81.2081 136.587C83.037 133.795 86.0089 132.062 88.966 132.062Z" fill="#77500C"/>
<path fill-rule="evenodd" clip-rule="evenodd" d="M302.01 326.088H302.018C302.016 326.165 302.013 326.245 302.01 326.325V327.176C302.237 336.88 310.17 344.676 319.923 344.676C321.292 344.676 322.626 344.521 323.907 344.23V356.363C322.607 356.536 321.277 356.626 319.928 356.626C310.159 356.626 301.484 351.931 296.038 344.676C290.589 351.931 281.914 356.626 272.145 356.626C270.794 356.626 269.466 356.536 268.164 356.363V344.23C269.445 344.521 270.778 344.676 272.15 344.676C281.978 344.676 289.96 336.756 290.065 326.947V326.751V326.555C290.063 326.397 290.06 326.243 290.055 326.088H290.065V304.179H302.01L302.01 326.088Z" fill="black"/>
<path fill-rule="evenodd" clip-rule="evenodd" d="M302.488 295.646C306.626 295.646 310.795 297.997 310.795 302.138C310.795 309.981 304.438 316.34 296.598 316.34C288.758 316.34 282.402 309.981 282.402 302.138C282.402 297.997 286.57 295.646 290.709 295.646H302.488Z" fill="#77500C" stroke="black" stroke-width="9" stroke-miterlimit="10"/>
<path d="M243.539 265.001C243.539 256.613 250.336 249.813 258.72 249.813C267.105 249.813 273.902 256.613 273.902 265.001C273.902 273.389 267.105 280.189 258.72 280.189C250.336 280.189 243.539 273.389 243.539 265.001Z" fill="black"/>
<path d="M327.54 280.263C319.156 280.263 312.359 273.463 312.359 265.075C312.359 256.687 319.156 249.887 327.54 249.887C335.925 249.887 342.722 256.687 342.722 265.075C342.722 273.463 335.925 280.263 327.54 280.263Z" fill="black"/>
<path fill-rule="evenodd" clip-rule="evenodd" d="M301.55 162.831C315.92 160.36 382.397 152.707 402.961 151.972C416.289 151.253 440.144 149.323 440.157 163.196C440.337 181.131 346.614 189.473 346.614 189.473C346.614 189.473 301.229 168.581 301.55 162.831V162.831Z" fill="#305959"/>
<path fill-rule="evenodd" clip-rule="evenodd" d="M167.466 188.046C167.466 188.046 144.5 192.152 134.122 194.478C123.433 196.874 104.239 202.216 104.239 202.216C88.0161 144.331 121.324 67.3659 211.122 53.8749L167.466 188.046Z" fill="#68A19A"/>
<path fill-rule="evenodd" clip-rule="evenodd" d="M347.169 189.879C347.169 189.879 314.766 180.036 259 180.103C199.829 180.175 167.466 188.046 167.466 188.046C167.466 188.046 144.423 103.811 211.122 53.8749C307.473 62.851 351.629 125.207 347.169 189.879Z" fill="#508276"/>
<path d="M222.889 55.016C223.156 58.8986 218.236 60.2121 212.143 60.6313C206.049 61.0505 200.996 60.4227 200.73 56.5402C200.463 52.6576 203.453 47.5758 211.209 47.0423C218.965 46.5088 222.622 51.1334 222.889 55.0159L222.889 55.016Z" fill="#281446"/>
<path d="M414.756 287.844L371.461 331.157" stroke="#7B7B7B" stroke-width="3.5" stroke-miterlimit="10" stroke-linecap="round"/>
<path opacity="0.5" d="M406.376 265.838C406.376 250.12 418.945 237.545 434.657 237.545C450.368 237.545 462.938 250.12 462.938 265.838C462.938 281.557 450.368 294.132 434.657 294.132C418.945 294.132 406.376 281.557 406.376 265.838Z" fill="white"/>
<path d="M406.376 265.838C406.376 250.12 418.945 237.545 434.657 237.545C450.368 237.545 462.938 250.12 462.938 265.838C462.938 281.557 450.368 294.132 434.657 294.132C418.945 294.132 406.376 281.557 406.376 265.838Z" stroke="#7B7B7B" stroke-width="3.5" stroke-miterlimit="10"/>
<path d="M271.428 252.97H225.136" stroke="black" stroke-width="4" stroke-miterlimit="10" stroke-linecap="round"/>
<path fill-rule="evenodd" clip-rule="evenodd" d="M333.253 223.229C333.245 223.447 333.242 223.669 333.242 223.89C333.242 233.773 341.252 241.787 351.131 241.787C351.494 241.787 351.857 241.776 352.217 241.756V253.699C351.857 253.712 351.496 253.717 351.136 253.717C334.669 253.717 321.322 240.365 321.322 223.89C321.322 223.669 321.324 223.447 321.33 223.229H333.253Z" fill="black"/>
</svg>
