<svg width="500" height="500" viewBox="0 0 500 500" fill="none" xmlns="http://www.w3.org/2000/svg">
<path fill-rule="evenodd" clip-rule="evenodd" d="M145.536 105.503L180.105 120.003L191.342 116.015C228.219 102.922 274.898 103.208 308.541 116.734L319.134 120.992L354.782 106.051C374.387 97.831 392.258 91.0846 394.495 91.0538C399.917 90.9827 407.99 97.5349 409.4 103.149C410.496 107.52 409.251 112.614 398.039 149.656C387.989 182.862 388.074 181.154 395.82 195.039C414.109 227.823 424.385 266.7 424.743 304.471C424.998 331.253 422.177 344.276 412.459 361.204C393.968 393.417 352.395 415.872 300.039 421.93C277.75 424.509 222.307 424.507 199.975 421.926C160.271 417.337 127.776 403.729 104.83 382.084C83.1544 361.637 75.3772 341.08 75.4676 304.471C75.5618 266.977 84.8161 229.675 102.209 196.685L110.99 180.031L106.829 165.805C104.538 157.982 100.498 144.223 97.8493 135.233C88.5451 103.649 88.5335 103.449 95.8435 95.3271C98.1936 92.7174 101.967 91 105.354 91C108.44 91 126.524 97.5253 145.536 105.503Z" fill="#FF7319"/>
<path d="M202.908 249.519L193.813 251.79L187.167 254.292C172.387 259.856 158.684 267.874 146.624 277.982C140.577 283.051 135.499 289.141 130.767 295.455C116.69 314.24 109.2 335.48 109.124 356.83C109.05 377.676 115.345 389.382 132.889 401.025C151.46 413.35 177.761 421.099 209.896 423.712C227.97 425.181 272.844 425.183 290.884 423.714C333.259 420.264 366.907 407.478 381.873 389.135C389.739 379.496 392.022 372.08 391.815 356.83C391.525 335.322 383.209 313.185 368.406 294.517L364.05 290.069C347.78 273.455 328.087 260.584 306.339 252.353L297.766 249.928C270.535 242.227 232.755 242.063 202.908 249.519Z" fill="white"/>
<path d="M357.151 111.645L327.723 124.33L337.864 130.184C348.026 136.052 376.725 162.942 382.018 171.553C384.697 175.915 385.3 174.502 394.193 143.014C408.43 92.6 406.036 90.573 357.151 111.645Z" fill="#77500C"/>
<path d="M100.001 103.275C97.1858 107.572 97.6012 109.903 106.688 140.754C112.017 158.845 116.377 174.171 116.377 174.807C116.377 175.444 119.698 171.777 123.758 166.657C134.303 153.362 155.546 134.01 164.748 129.315C169.07 127.109 171.855 124.669 170.935 123.892C166.979 120.547 112.277 98.6926 107.863 98.6926C104.865 98.6926 101.853 100.448 100.001 103.275Z" fill="#77500C"/>
<path d="M231.418 217.657C231.418 226.154 224.53 233.042 216.033 233.042C207.536 233.042 200.647 226.154 200.647 217.657C200.647 209.16 207.536 202.272 216.033 202.272C224.53 202.272 231.418 209.16 231.418 217.657Z" fill="black"/>
<path d="M298.793 219.036C298.793 227.533 291.905 234.422 283.408 234.422C274.911 234.422 268.023 227.533 268.023 219.036C268.023 210.539 274.911 203.651 283.408 203.651C291.905 203.651 298.793 210.539 298.793 219.036Z" fill="black"/>
<path fill-rule="evenodd" clip-rule="evenodd" d="M255.596 278.654H244.057V288.682H244.045C244.053 288.895 244.057 289.108 244.057 289.323C244.057 298.882 236.307 306.632 226.748 306.632C217.189 306.632 209.44 298.882 209.44 289.323C209.44 289.108 209.444 288.895 209.451 288.682H197.908C197.903 288.895 197.901 289.109 197.901 289.323C197.901 305.255 210.816 318.171 226.748 318.171C236.185 318.171 244.563 313.639 249.826 306.634C255.089 313.639 263.468 318.171 272.904 318.171C288.836 318.171 301.752 305.255 301.752 289.323C301.752 289.109 301.75 288.895 301.745 288.682H290.201C290.209 288.895 290.213 289.108 290.213 289.323C290.213 298.882 282.464 306.632 272.905 306.632C263.345 306.632 255.596 298.882 255.596 289.323C255.596 289.108 255.6 288.895 255.608 288.682H255.596V278.654Z" fill="black"/>
<mask id="path-3-inside-1_3097_20" fill="white">
<path fill-rule="evenodd" clip-rule="evenodd" d="M240.517 249.807C233.976 249.807 227.389 253.523 227.389 260.064C227.389 272.455 237.434 282.501 249.826 282.501C262.218 282.501 272.263 272.455 272.263 260.064C272.263 253.523 265.676 249.807 259.135 249.807H240.517Z"/>
</mask>
<path fill-rule="evenodd" clip-rule="evenodd" d="M240.517 249.807C233.976 249.807 227.389 253.523 227.389 260.064C227.389 272.455 237.434 282.501 249.826 282.501C262.218 282.501 272.263 272.455 272.263 260.064C272.263 253.523 265.676 249.807 259.135 249.807H240.517Z" fill="#77500C"/>
<path d="M249.826 271.374C243.58 271.374 238.516 266.31 238.516 260.064H216.262C216.262 278.601 231.289 293.628 249.826 293.628V271.374ZM261.136 260.064C261.136 266.31 256.072 271.374 249.826 271.374V293.628C268.363 293.628 283.39 278.601 283.39 260.064H261.136ZM259.135 238.68H240.517V260.934H259.135V238.68ZM283.39 260.064C283.39 252.557 279.441 246.845 274.586 243.404C269.957 240.124 264.336 238.68 259.135 238.68V260.934C259.735 260.934 260.318 261.022 260.816 261.168C261.321 261.316 261.611 261.485 261.718 261.561C261.816 261.631 261.651 261.54 261.454 261.194C261.232 260.802 261.136 260.37 261.136 260.064H283.39ZM238.516 260.064C238.516 260.37 238.421 260.802 238.198 261.194C238.001 261.54 237.836 261.631 237.934 261.561C238.041 261.485 238.331 261.316 238.836 261.168C239.334 261.022 239.917 260.934 240.517 260.934V238.68C235.316 238.68 229.695 240.124 225.066 243.404C220.211 246.845 216.262 252.557 216.262 260.064H238.516Z" fill="black" mask="url(#path-3-inside-1_3097_20)"/>
<mask id="mask0_3097_20" style="mask-type:alpha" maskUnits="userSpaceOnUse" x="73" y="279" width="354" height="147">
<path d="M152.132 306.549L76.9707 279.5C48.4679 407 179.467 431.5 276.473 425C291.504 423.993 322.474 423.5 358.474 407C430.474 374 428.974 318.667 424.974 289.5L342.88 312.955C280.197 330.865 213.472 328.624 152.132 306.549Z" fill="black"/>
</mask>
<g mask="url(#mask0_3097_20)">
<rect x="65.4668" y="271" width="360" height="186" fill="#1F1F1F"/>
<path d="M199.707 308.581L182.653 306.336L189.834 321.966L240.834 432.966L249.225 451.228L258.011 433.153L310.511 325.153L317.773 310.214L301.214 311.53L251.874 315.45L199.707 308.581Z" fill="white" stroke="#090A0B" stroke-width="19"/>
<path fill-rule="evenodd" clip-rule="evenodd" d="M243.238 351.097L231.955 328.332C230.967 326.338 232.418 324 234.643 324L264.49 324C266.715 324 268.166 326.338 267.178 328.332L256.152 350.58C258.494 352.41 260 355.261 260 358.464V427C260 432.523 255.523 437 250 437C244.477 437 240 432.523 240 427V358.464C240 355.549 241.248 352.925 243.238 351.097Z" fill="#333333"/>
</g>
<path fill-rule="evenodd" clip-rule="evenodd" d="M164 220C164 212.82 169.82 207 177 207H228.711C235.891 207 241.711 212.82 241.711 220V231H259.289V220C259.289 212.82 265.109 207 272.289 207H324C331.18 207 337 212.82 337 220V245C337 252.18 331.18 258 324 258H272.289C265.109 258 259.289 252.18 259.289 245V234H241.711V245C241.711 252.18 235.891 258 228.711 258H177C169.82 258 164 252.18 164 245V220Z" fill="white" fill-opacity="0.39"/>
<rect x="117.575" y="287" width="5.85" height="36.9136" rx="2.925" fill="#513500"/>
<path d="M65.6979 318.2C66.4334 309.086 75.551 303.589 84.2267 306.478L115.866 317.011C118.798 317.987 121.969 317.966 124.887 316.951L151.469 307.706C161.031 304.381 171.073 311.287 171.389 321.405L172.066 343.062C172.68 362.7 168.598 382.236 160.187 399.993C154.874 411.21 141.721 416.357 130.218 411.697C125.11 409.627 119.385 409.702 114.334 411.904L114.065 412.022C103.438 416.655 91.0067 413.105 85.2256 403.057C78.6219 391.578 70.8072 376.163 67.7741 363.001C64.3306 348.058 64.6866 330.732 65.6979 318.2Z" fill="#E70B0B"/>
</svg>
