<svg width="500" height="500" viewBox="0 0 500 500" fill="none" xmlns="http://www.w3.org/2000/svg">
<path fill-rule="evenodd" clip-rule="evenodd" d="M141.873 139.452L176.442 153.952L187.679 149.964C224.556 136.871 271.235 137.157 304.879 150.683L315.472 154.941L351.119 140C370.724 131.78 388.596 125.034 390.833 125.003C396.254 124.932 404.327 131.484 405.737 137.098C406.833 141.469 405.589 146.563 394.377 183.606C384.326 216.811 384.411 215.103 392.158 228.988C410.447 261.772 420.722 300.649 421.08 338.42C421.336 365.202 418.514 378.226 408.797 395.153C390.306 427.366 348.733 449.821 296.376 455.879C274.087 458.458 218.644 458.456 196.312 455.875C156.609 451.286 124.113 437.678 101.168 416.033C79.4918 395.586 71.7146 375.029 71.805 338.42C71.8992 300.926 81.1535 263.624 98.5465 230.635L107.328 213.98L103.166 199.754C100.875 191.931 96.8349 178.173 94.1867 169.182C84.8825 137.598 84.8709 137.398 92.1809 129.276C94.531 126.666 98.3042 124.949 101.691 124.949C104.778 124.949 122.861 131.474 141.873 139.452Z" fill="#FF7319"/>
<path d="M199.246 283.468L190.151 285.739L183.504 288.241C168.724 293.805 155.021 301.823 142.961 311.932C136.914 317 131.837 323.09 127.105 329.404V329.404C113.027 348.189 105.537 369.429 105.461 390.779C105.388 411.625 111.682 423.331 129.226 434.974C147.797 447.299 174.098 455.048 206.233 457.661C224.308 459.131 269.181 459.132 287.222 457.663C329.597 454.214 363.245 441.427 378.211 423.084C386.076 413.445 388.359 406.029 388.152 390.779C387.863 369.272 379.546 347.134 364.744 328.466L360.387 324.018C344.118 307.404 324.424 294.533 302.676 286.302L294.103 283.877C266.873 276.176 229.092 276.012 199.246 283.468Z" fill="white"/>
<path d="M353.489 145.594L324.06 158.279L334.201 164.133C344.363 170.001 373.063 196.891 378.355 205.503C381.034 209.864 381.638 208.451 390.531 176.963C404.768 126.549 402.373 124.522 353.489 145.594Z" fill="#77500C"/>
<path d="M96.3387 137.225C93.5232 141.521 93.9386 143.852 103.026 174.703C108.355 192.794 112.714 208.12 112.714 208.757C112.714 209.393 116.036 205.726 120.096 200.606C130.64 187.311 151.884 167.959 161.086 163.264C165.407 161.058 168.192 158.618 167.273 157.841C163.317 154.496 108.614 132.642 104.201 132.642C101.202 132.642 98.1908 134.398 96.3387 137.225Z" fill="#77500C"/>
<path d="M227.755 251.606C227.755 260.103 220.867 266.991 212.37 266.991C203.873 266.991 196.985 260.103 196.985 251.606C196.985 243.109 203.873 236.221 212.37 236.221C220.867 236.221 227.755 243.109 227.755 251.606Z" fill="black"/>
<path d="M295.131 252.986C295.131 261.483 288.242 268.371 279.745 268.371C271.248 268.371 264.36 261.483 264.36 252.986C264.36 244.488 271.248 237.6 279.745 237.6C288.242 237.6 295.131 244.488 295.131 252.986Z" fill="black"/>
<path fill-rule="evenodd" clip-rule="evenodd" d="M251.933 312.603H240.394V322.631H240.382C240.39 322.844 240.394 323.058 240.394 323.272C240.394 332.831 232.645 340.581 223.086 340.581C213.526 340.581 205.777 332.831 205.777 323.272C205.777 323.058 205.781 322.844 205.789 322.631H194.245C194.241 322.844 194.238 323.058 194.238 323.272C194.238 339.204 207.154 352.12 223.086 352.12C232.522 352.12 240.901 347.589 246.164 340.583C251.427 347.589 259.805 352.12 269.242 352.12C285.174 352.12 298.089 339.204 298.089 323.272C298.089 323.058 298.087 322.844 298.082 322.631H286.539C286.546 322.844 286.55 323.058 286.55 323.272C286.55 332.831 278.801 340.581 269.242 340.581C259.683 340.581 251.933 332.831 251.933 323.272C251.933 323.058 251.937 322.844 251.945 322.631H251.933V312.603Z" fill="black"/>
<mask id="path-3-inside-1_3098_114" fill="white">
<path fill-rule="evenodd" clip-rule="evenodd" d="M236.855 283.756C230.314 283.756 223.727 287.472 223.727 294.013V294.013C223.727 306.405 233.772 316.45 246.163 316.45C258.555 316.45 268.6 306.405 268.6 294.013V294.013C268.6 287.472 262.013 283.756 255.472 283.756H236.855Z"/>
</mask>
<path fill-rule="evenodd" clip-rule="evenodd" d="M236.855 283.756C230.314 283.756 223.727 287.472 223.727 294.013V294.013C223.727 306.405 233.772 316.45 246.163 316.45C258.555 316.45 268.6 306.405 268.6 294.013V294.013C268.6 287.472 262.013 283.756 255.472 283.756H236.855Z" fill="#77500C"/>
<path d="M246.163 305.323C239.917 305.323 234.854 300.259 234.854 294.013H212.599C212.599 312.55 227.627 327.577 246.163 327.577V305.323ZM257.473 294.013C257.473 300.259 252.41 305.323 246.163 305.323V327.577C264.7 327.577 279.727 312.55 279.727 294.013H257.473ZM255.472 272.629H236.855V294.883H255.472V272.629ZM279.727 294.013C279.727 286.506 275.779 280.794 270.923 277.353C266.294 274.073 260.674 272.629 255.472 272.629V294.883C256.072 294.883 256.655 294.971 257.153 295.117C257.658 295.265 257.948 295.434 258.055 295.51C258.153 295.58 257.988 295.49 257.792 295.143C257.569 294.751 257.473 294.319 257.473 294.013H279.727ZM234.854 294.013C234.854 294.319 234.758 294.751 234.535 295.143C234.339 295.49 234.174 295.58 234.272 295.51C234.379 295.434 234.669 295.265 235.173 295.117C235.672 294.971 236.255 294.883 236.855 294.883V272.629C231.653 272.629 226.033 274.073 221.404 277.353C216.548 280.794 212.599 286.506 212.599 294.013H234.854Z" fill="black" mask="url(#path-3-inside-1_3098_114)"/>
<mask id="mask0_3098_114" style="mask-type:alpha" maskUnits="userSpaceOnUse" x="67" y="313" width="355" height="147">
<path d="M146.97 340.481L71.8081 313.432C43.3053 440.932 174.304 465.432 271.311 458.932C286.342 457.924 317.312 457.432 353.312 440.932C425.312 407.932 423.812 352.598 419.812 323.432L337.717 346.887C275.035 364.796 208.309 362.555 146.97 340.481Z" fill="black"/>
</mask>
<g mask="url(#mask0_3098_114)">
<rect x="60.3042" y="304.932" width="360" height="186" fill="#ECECEC"/>
<path d="M198.837 347.932L157.619 382.841C152.683 387.021 149.837 393.161 149.837 399.629L149.837 458.932" stroke="#8D8D8D" stroke-width="5"/>
<circle cx="187.337" cy="392.432" r="5.5" fill="#8D8D8D"/>
<circle cx="187.337" cy="416.432" r="5.5" fill="#8D8D8D"/>
<circle cx="187.337" cy="443.432" r="5.5" fill="#8D8D8D"/>
<circle cx="271.337" cy="392.432" r="5.5" fill="#8D8D8D"/>
<circle cx="271.337" cy="416.432" r="5.5" fill="#8D8D8D"/>
<circle cx="271.337" cy="443.432" r="5.5" fill="#8D8D8D"/>
</g>
<path fill-rule="evenodd" clip-rule="evenodd" d="M179.755 52.9705C169.538 52.9705 161.255 61.2532 161.255 71.4705C161.255 80.8399 168.22 88.5825 177.255 89.803V154.97C177.255 158.836 180.389 161.97 184.255 161.97H315.255C319.121 161.97 322.255 158.836 322.255 154.97V89.6398C330.799 88.0039 337.255 80.4911 337.255 71.4705C337.255 61.2532 328.972 52.9705 318.755 52.9705H315.255H184.255H179.755Z" fill="white"/>
<rect x="206.255" y="70.9705" width="6" height="78" rx="3" fill="#DFDFDF"/>
<rect x="246.255" y="70.9705" width="6" height="78" rx="3" fill="#DFDFDF"/>
<rect x="286.255" y="70.9705" width="6" height="78" rx="3" fill="#DFDFDF"/>
</svg>

