<svg version="1.1" xmlns="http://www.w3.org/2000/svg" xmlns:xlink="http://www.w3.org/1999/xlink" width="100.35101" height="100.04222" viewBox="0,0,100.35101,100.04222"><g transform="translate(-269.90888,-129.97889)"><g data-paper-data="{&quot;isPaintingLayer&quot;:true}" stroke-width="1" stroke-linecap="butt" stroke-linejoin="miter" stroke-miterlimit="10" stroke-dasharray="" stroke-dashoffset="0" style="mix-blend-mode: normal"><g fill-rule="evenodd"><path d="M323.64671,158.79102l8.19789,-8.31904l2.62333,11.53127c0,0 4.91873,2.47099 8.03393,8.23663c3.1152,5.68332 2.62333,10.37815 2.62333,10.37815c0,0 5.49254,0.74134 6.31233,7.90716c1.47562,13.6728 -14.59224,22.73309 -35.33284,20.83871c-15.65801,-1.31786 -27.62693,-11.44896 -26.97109,-23.88622c0.65583,-11.20181 5.98451,-15.1554 5.98451,-15.1554l-1.80353,-18.94424l13.28058,9.30734c0,0 4.01692,-2.05911 8.60773,-2.30625c4.59082,-0.08232 8.44387,0.41187 8.44387,0.41187z" fill="#6b3c00" stroke="#6b3c00"/><path d="M323.0932,155.1762l8.19789,-8.31904l2.62333,11.53127c0,0 4.91873,2.47099 8.03393,8.23663c3.1152,5.68332 2.62333,10.37815 2.62333,10.37815c0,0 5.49254,0.74134 6.31233,7.90716c1.47562,13.6728 -14.59224,22.73309 -35.33284,20.83871c-15.65801,-1.31786 -27.62693,-11.44896 -26.97109,-23.88622c0.65583,-11.20181 5.98451,-15.1554 5.98451,-15.1554l-1.80353,-18.94424l13.28058,9.30734c0,0 4.01692,-2.05911 8.60773,-2.30625c4.59082,-0.08232 8.44387,0.41187 8.44387,0.41187z" fill="#d97900" stroke="#d97900"/></g></g></g></svg>