<svg width="500" height="500" viewBox="0 0 500 500" fill="none" xmlns="http://www.w3.org/2000/svg">
<path fill-rule="evenodd" clip-rule="evenodd" d="M156.069 151.503L190.638 166.003L201.875 162.015C238.752 148.922 285.431 149.208 319.075 162.734L329.667 166.992L365.315 152.051C384.92 143.831 402.792 137.085 405.028 137.054C410.45 136.983 418.523 143.535 419.933 149.149C421.029 153.52 419.785 158.614 408.573 195.656C398.522 228.862 398.607 227.154 406.353 241.039C424.643 273.823 434.918 312.7 435.276 350.471C435.532 377.253 432.71 390.276 422.993 407.204C404.501 439.417 362.928 461.872 310.572 467.93C288.283 470.509 232.84 470.507 210.508 467.926C170.805 463.337 138.309 449.729 115.364 428.084C93.6877 407.637 85.9104 387.08 86.0008 350.471C86.095 312.977 95.3493 275.675 112.742 242.685L121.524 226.031L117.362 211.805C115.071 203.982 111.031 190.223 108.383 181.233C99.0783 149.649 99.0667 149.449 106.377 141.327C108.727 138.717 112.5 137 115.887 137C118.973 137 137.057 143.525 156.069 151.503Z" fill="#FF7319"/>
<path d="M213.442 295.519L204.347 297.79L197.7 300.292C182.92 305.856 169.217 313.874 157.157 323.982C151.11 329.051 146.032 335.141 141.3 341.455V341.455C127.223 360.24 119.733 381.48 119.657 402.83C119.584 423.676 125.878 435.382 143.422 447.025C161.993 459.35 188.294 467.099 220.429 469.712C238.503 471.181 283.377 471.183 301.417 469.714C343.793 466.264 377.44 453.478 392.407 435.135C400.272 425.496 402.555 418.08 402.348 402.83C402.059 381.322 393.742 359.185 378.939 340.517L374.583 336.069C358.314 319.455 338.62 306.584 316.872 298.353L308.299 295.928C281.069 288.226 243.288 288.063 213.442 295.519Z" fill="white"/>
<path d="M367.684 157.645L338.256 170.33L348.397 176.184C358.559 182.052 387.258 208.942 392.551 217.553C395.23 221.915 395.834 220.502 404.726 189.014C418.964 138.6 416.569 136.573 367.684 157.645Z" fill="#77500C"/>
<path d="M110.535 149.275C107.719 153.572 108.134 155.903 117.221 186.754C122.55 204.845 126.91 220.171 126.91 220.807C126.91 221.444 130.232 217.777 134.291 212.657C144.836 199.362 166.079 180.01 175.282 175.315C179.603 173.109 182.388 170.669 181.468 169.892C177.513 166.547 122.81 144.693 118.396 144.693C115.398 144.693 112.387 146.448 110.535 149.275Z" fill="#77500C"/>
<path d="M241.951 263.657C241.951 272.154 235.063 279.042 226.566 279.042C218.069 279.042 211.181 272.154 211.181 263.657C211.181 255.16 218.069 248.272 226.566 248.272C235.063 248.272 241.951 255.16 241.951 263.657Z" fill="black"/>
<path d="M309.326 265.036C309.326 273.533 302.438 280.422 293.941 280.422C285.444 280.422 278.556 273.533 278.556 265.036C278.556 256.539 285.444 249.651 293.941 249.651C302.438 249.651 309.326 256.539 309.326 265.036Z" fill="black"/>
<path fill-rule="evenodd" clip-rule="evenodd" d="M266.129 324.654H254.59V334.682H254.578C254.586 334.895 254.59 335.108 254.59 335.323C254.59 344.882 246.841 352.632 237.281 352.632C227.722 352.632 219.973 344.882 219.973 335.323C219.973 335.108 219.977 334.895 219.985 334.682H208.441C208.436 334.895 208.434 335.109 208.434 335.323C208.434 351.255 221.35 364.171 237.282 364.171C246.718 364.171 255.096 359.639 260.36 352.634C265.623 359.639 274.001 364.171 283.438 364.171C299.37 364.171 312.285 351.255 312.285 335.323C312.285 335.109 312.283 334.895 312.278 334.682H300.735C300.742 334.895 300.746 335.108 300.746 335.323C300.746 344.882 292.997 352.632 283.438 352.632C273.879 352.632 266.129 344.882 266.129 335.323C266.129 335.108 266.133 334.895 266.141 334.682H266.129V324.654Z" fill="black"/>
<mask id="path-3-inside-1_3098_143" fill="white">
<path fill-rule="evenodd" clip-rule="evenodd" d="M251.051 295.807C244.51 295.807 237.922 299.523 237.922 306.064V306.064C237.922 318.455 247.968 328.501 260.359 328.501C272.751 328.501 282.796 318.455 282.796 306.064V306.064C282.796 299.523 276.209 295.807 269.668 295.807H251.051Z"/>
</mask>
<path fill-rule="evenodd" clip-rule="evenodd" d="M251.051 295.807C244.51 295.807 237.922 299.523 237.922 306.064V306.064C237.922 318.455 247.968 328.501 260.359 328.501C272.751 328.501 282.796 318.455 282.796 306.064V306.064C282.796 299.523 276.209 295.807 269.668 295.807H251.051Z" fill="#77500C"/>
<path d="M260.359 317.374C254.113 317.374 249.05 312.31 249.05 306.064H226.795C226.795 324.601 241.822 339.628 260.359 339.628V317.374ZM271.669 306.064C271.669 312.31 266.605 317.374 260.359 317.374V339.628C278.896 339.628 293.923 324.601 293.923 306.064H271.669ZM269.668 284.68H251.051V306.934H269.668V284.68ZM293.923 306.064C293.923 298.557 289.974 292.845 285.119 289.404C280.49 286.124 274.869 284.68 269.668 284.68V306.934C270.268 306.934 270.851 307.022 271.349 307.168C271.854 307.316 272.144 307.485 272.251 307.561C272.349 307.631 272.184 307.54 271.987 307.194C271.765 306.802 271.669 306.37 271.669 306.064H293.923ZM249.05 306.064C249.05 306.37 248.954 306.802 248.731 307.194C248.534 307.54 248.369 307.631 248.468 307.561C248.574 307.485 248.864 307.316 249.369 307.168C249.867 307.022 250.45 306.934 251.051 306.934V284.68C245.849 284.68 240.229 286.124 235.6 289.404C230.744 292.845 226.795 298.557 226.795 306.064H249.05Z" fill="black" mask="url(#path-3-inside-1_3098_143)"/>
<path fill-rule="evenodd" clip-rule="evenodd" d="M217 30C197.118 30 181 46.1178 181 66V151H165.126C147.383 151 133 165.383 133 183.126C133 200.868 147.383 215.251 165.126 215.251H356.772C374.515 215.251 388.898 200.868 388.898 183.126C388.898 165.383 374.515 151 356.772 151H341.629V66C341.629 46.1177 325.511 30 305.629 30H217Z" fill="#191919"/>
<circle cx="294.5" cy="264.5" r="36.5" fill="#F0F0F0" fill-opacity="0.49" stroke="#FF9900" stroke-width="6"/>
<rect x="339" y="274" width="6" height="133" rx="3" fill="#C87800"/>
<circle r="12" transform="matrix(-1 0 0 1 342 266)" fill="#FF9900"/>
<path d="M192.339 330.839C192.339 338.303 190.869 345.694 188.012 352.59C185.156 359.486 180.969 365.752 175.691 371.03C170.413 376.308 164.147 380.495 157.251 383.351C150.355 386.208 142.964 387.678 135.5 387.678C128.036 387.678 120.645 386.208 113.749 383.351C106.853 380.495 100.587 376.308 95.3088 371.03C90.0309 365.752 85.8441 359.486 82.9877 352.59C80.1313 345.694 78.6611 338.303 78.6611 330.839L135.5 330.839H192.339Z" fill="#BABABA"/>
</svg>
