<svg version="1.1" xmlns="http://www.w3.org/2000/svg" xmlns:xlink="http://www.w3.org/1999/xlink" width="100.65306" height="100.04222" viewBox="0,0,100.65306,100.04222"><g transform="translate(-269.42349,-129.97889)"><g data-paper-data="{&quot;isPaintingLayer&quot;:true}" fill-rule="nonzero" stroke-linejoin="miter" stroke-miterlimit="10" stroke-dasharray="" stroke-dashoffset="0" style="mix-blend-mode: normal"><path d="M361.27198,180.97928c-8.18802,18.56564 -27.11185,23.93777 -41.26474,24.66091c-14.39716,0.73562 -36.19761,-10.51184 -42.10526,-21.11769c-5.90765,-10.60584 10.8381,-35.0154 10.8381,-35.0154l12.50549,20.84249c0,0 7.28792,-4.01184 14.1729,-3.96007c6.88498,0.05176 13.54763,4.1685 13.54763,4.1685l16.25715,-22.09305c0,0 24.23674,13.94866 16.04872,32.5143z" data-paper-data="{&quot;index&quot;:null}" fill="#dcddde" stroke="#dcddde" stroke-width="7.5" stroke-linecap="round"/><path d="M297.53111,181.60454c0,-2.74211 2.22291,-4.96501 4.96501,-4.96501c2.7421,0 4.96501,2.22291 4.96501,4.96501c0,2.74211 -2.22291,4.96502 -4.96501,4.96502c-2.7421,0 -4.96501,-2.22291 -4.96501,-4.96502z" data-paper-data="{&quot;index&quot;:null}" fill="#36383f" stroke="none" stroke-width="0.5" stroke-linecap="butt"/><path d="M319.62415,181.39612c0,-2.74211 2.22291,-4.96501 4.96502,-4.96501c2.7421,0 4.96501,2.22291 4.96501,4.96501c0,2.74211 -2.2229,4.96501 -4.96501,4.96501c-2.7421,0 -4.96502,-2.22291 -4.96502,-4.96501z" data-paper-data="{&quot;index&quot;:null}" fill="#36383f" stroke="none" stroke-width="0.5" stroke-linecap="butt"/><path d="M277.90197,184.5225c-5.90765,-10.60584 10.8381,-35.0154 10.8381,-35.0154l12.50549,20.84249c0,0 -17.43595,24.77875 -23.3436,14.17291z" data-paper-data="{&quot;index&quot;:null}" fill="#c3c3c3" stroke="#dcddde" stroke-width="0" stroke-linecap="round"/><path d="M361.27198,180.97928c-8.18802,18.56564 -32.30588,-10.42125 -32.30588,-10.42125l16.25715,-22.09305c0,0 24.23674,13.94866 16.04872,32.5143z" data-paper-data="{&quot;index&quot;:null}" fill="#c3c3c3" stroke="#dcddde" stroke-width="0" stroke-linecap="round"/><path d="M326.39216,194.28417c0,0 -3.58596,5.74314 -7.02218,4.08046c-3.43622,-1.66269 -4.79486,-5.32089 -4.79486,-5.32089c0,0 -1.31586,3.66217 -4.22009,5.22599c-2.90422,1.56382 -6.54769,-4.17534 -6.54769,-4.17534" fill="none" stroke="#36383f" stroke-width="4" stroke-linecap="round"/><path d="M321.16229,189.69936c0,1.49364 -3.14393,2.70448 -7.02217,2.70448c-3.87824,0 -7.02218,-1.21083 -7.02218,-2.70448c0,-1.49364 3.14393,-2.70449 7.02218,-2.70449c3.87824,0 7.02217,1.21084 7.02217,2.70449z" fill="#ff7bb6" stroke="#36383f" stroke-width="3.5" stroke-linecap="butt"/></g></g></svg>