<svg version="1.1" xmlns="http://www.w3.org/2000/svg" xmlns:xlink="http://www.w3.org/1999/xlink" width="100.35101" height="100.04222" viewBox="0,0,100.35101,100.04222"><g transform="translate(-269.90888,-129.97889)"><g data-paper-data="{&quot;isPaintingLayer&quot;:true}" fill-rule="nonzero" stroke-miterlimit="10" stroke-dasharray="" stroke-dashoffset="0" style="mix-blend-mode: normal"><g stroke-linecap="round" stroke-linejoin="round"><path d="M344.0088,198.6124l-0.26648,0.86815c-1.47834,4.38524 -3.57989,6.90897 -3.57989,6.90897c0,0 0.07541,-0.78288 0.03504,-2.04071l-0.06554,-0.02574c-0.18933,0.66223 -0.50027,1.51625 -1.01709,2.57123c-1.13337,2.31679 -4.46153,4.25904 -4.46153,4.25904c0,0 0.20688,-0.7965 0.3365,-2.09975l-0.04664,-0.19938c-0.36072,0.31247 -0.73491,0.59965 -1.11313,0.87926c-0.11129,0.08281 -0.22253,0.16355 -0.3356,0.24177c-0.34413,0.24081 -0.69454,0.47047 -1.05213,0.68498c-0.14129,0.08377 -0.28801,0.16153 -0.43115,0.24177c-0.2611,0.1469 -0.52584,0.28567 -0.79457,0.41995c-0.19742,0.09739 -0.39616,0.19433 -0.59855,0.28466c-0.20951,0.09492 -0.42487,0.1802 -0.63887,0.26907c-0.39347,0.15844 -0.79277,0.30635 -1.20109,0.44265c-0.13322,0.04441 -0.26648,0.0888 -0.40199,0.13019c-0.29115,0.08988 -0.5846,0.17767 -0.88337,0.25545l0.00089,0.00101c-1.49992,0.39321 -3.09129,0.64961 -4.7949,0.76769c-1.84309,0.12722 -3.51392,0.10652 -5.07433,-0.01565v0c-1.23473,-0.09739 -2.39047,-0.26397 -3.48476,-0.48908c-0.05293,-0.01059 -0.10635,-0.02169 -0.15973,-0.0323c-0.3383,-0.07221 -0.67121,-0.14892 -0.99779,-0.23167c-0.11398,-0.02983 -0.22302,-0.06213 -0.3365,-0.0929c-0.43389,-0.11606 -0.85561,-0.24328 -1.27151,-0.37857c-0.2629,-0.08578 -0.52405,-0.17364 -0.77931,-0.26699c-0.15165,-0.05399 -0.30377,-0.11056 -0.45228,-0.16759c-0.40558,-0.1575 -0.80757,-0.31746 -1.19745,-0.49009l-0.06778,0.07317c0.14717,1.18568 0.51058,1.82367 0.8009,2.1275c0.59178,0.62034 1.73091,0.76774 1.73091,0.76774c0,0 -3.48207,0.54818 -5.37809,-2.4763c-0.20145,-0.3215 -0.40469,-0.65465 -0.5976,-1.0095l-0.08302,-0.20292c-0.41186,-0.15492 -0.8291,-0.36086 -1.24101,-0.62588c-2.51157,-1.62782 -2.82699,-2.97042 -2.82699,-2.97042l0.05249,0.49211c0.24187,1.28262 0.47784,2.09218 0.47784,2.09218c0,0 -3.00601,-2.14012 -4.34485,-5.34726c-1.07944,-2.58889 -1.16516,-4.15711 -1.17233,-4.42063l-0.10098,-0.94183c-0.06504,-3.6882 0.13865,-7.82513 0.58913,-11.89494l0.02781,-0.10849c0.40154,-3.14609 0.01211,-8.35817 3.72253,-13.69131c6.95291,-9.99104 14.05609,-9.64376 18.30447,-17.02769c3.12493,-5.43215 2.3223,-11.66226 2.3223,-11.66226c0,0 1.91626,3.05224 2.68078,4.84462c0.74029,1.74691 1.53081,3.99861 1.53081,3.99861l0.02557,-0.01918c0.0175,-0.06565 0.03319,-0.13277 0.04664,-0.19988c0.20867,-1.04534 0.1261,-2.5909 0.1261,-2.5909c0,0 1.82696,6.02367 4.77645,9.97282c2.9477,3.94719 7.20819,5.07528 12.58718,18.59294c0.66942,1.6798 1.2917,3.0936 1.62461,4.66088l0.15076,0.90197c0.46887,2.81854 0.28447,10.60526 -0.70082,13.96946v0v0v0v0zM309.55072,185.37385c0,0 -3.48431,4.07177 -3.2546,9.73761c0.20324,5.01316 1.35812,6.5617 1.9804,6.94935c0.63982,0.39623 1.63178,0.16153 1.63178,0.16153c0,0 -2.80592,1.67173 -5.09322,-0.59663c-1.52992,-1.51625 -3.19491,-3.47218 -3.66109,-8.98904M338.54548,194.40276c0,0 0.43293,1.39413 -0.62232,4.30804c-1.18714,3.2829 -3.69203,4.29846 -3.69203,4.29846c0,0 2.08132,-5.05762 0.33471,-9.81286c-0.76227,-2.07754 -3.11506,-3.62507 -5.57102,-4.71785c-3.32816,-1.482 -6.84527,-2.12807 -6.84527,-2.12807M340.14716,204.2681c-0.18754,0.67029 -0.50291,1.54501 -1.03502,2.62825c-1.13291,2.31679 -4.46107,4.25904 -4.46107,4.25904c0,0 0.60124,-2.32385 0.39621,-5.52348M301.86379,196.70187c-0.34189,0.71374 -0.60478,1.47891 -0.75195,2.28702c-0.92424,5.03844 0.70217,10.58817 0.70217,10.58817c0,0 -3.00512,-2.13916 -4.34485,-5.34732c-1.18758,-2.8473 -1.17233,-4.45999 -1.17233,-4.45999M343.74007,199.48409c-1.47924,4.38524 -3.58035,6.90897 -3.58035,6.90897c0,0 0.43389,-4.44782 -1.31636,-9.20357c-0.07894,-0.21503 -0.16826,-0.42399 -0.2629,-0.6269M322.15001,186.35049c0,0 0.59587,0.17767 2.16794,1.58543c1.57213,1.40776 2.15045,2.94368 2.15045,2.94368c0,0 -4.64184,-1.37541 -7.21177,-2.41519c-2.56725,-1.04079 -11.23044,-3.69477 -11.23044,-3.69477M307.451,207.28949c1.25846,2.22394 2.56769,3.43383 2.56769,3.43383c0,0 -3.07918,1.07257 -5.90802,-0.75916c-2.51157,-1.62777 -2.82699,-2.97042 -2.82699,-2.97042M334.94002,208.85727c-3.31874,2.87253 -7.34459,4.28029 -12.2413,4.61945c-5.83795,0.4043 -10.10515,-0.55519 -13.75234,-2.16484M308.84272,211.01807c0.11039,1.42239 0.51687,2.15985 0.83588,2.49295c0.59222,0.62034 1.73136,0.76774 1.73136,0.76774c0,0 -3.48296,0.54818 -5.37854,-2.4763c-0.20145,-0.3215 -0.40469,-0.65465 -0.5976,-1.0095M322.48696,186.51909c0,0 12.71595,1.74495 12.71595,9.55287" fill="#510d14" stroke="#510d14" stroke-width="0.90025"/><path d="M344.09826,195.528l-0.26648,0.86815c-1.47834,4.38524 -3.57989,6.90897 -3.57989,6.90897c0,0 0.07541,-0.78288 0.03504,-2.04071l-0.06554,-0.02574c-0.18933,0.66223 -0.50027,1.51625 -1.01709,2.57123c-1.13337,2.31679 -4.46153,4.25904 -4.46153,4.25904c0,0 0.20688,-0.7965 0.3365,-2.09975l-0.04664,-0.19938c-0.36072,0.31247 -0.73491,0.59965 -1.11313,0.87926c-0.11129,0.08281 -0.22253,0.16355 -0.3356,0.24177c-0.34413,0.24081 -0.69454,0.47047 -1.05213,0.68498c-0.14129,0.08377 -0.28801,0.16153 -0.43115,0.24177c-0.2611,0.1469 -0.52584,0.28567 -0.79457,0.41995c-0.19742,0.09739 -0.39616,0.19433 -0.59855,0.28466c-0.20951,0.09492 -0.42487,0.1802 -0.63887,0.26907c-0.39347,0.15844 -0.79277,0.30635 -1.20109,0.44265c-0.13322,0.04441 -0.26648,0.0888 -0.40199,0.13019c-0.29115,0.08988 -0.5846,0.17767 -0.88337,0.25545l0.00089,0.00101c-1.49992,0.39321 -3.09129,0.64961 -4.7949,0.76769c-1.84309,0.12722 -3.51392,0.10652 -5.07433,-0.01565v0c-1.23473,-0.09739 -2.39047,-0.26397 -3.48476,-0.48908c-0.05293,-0.01059 -0.10635,-0.02169 -0.15973,-0.0323c-0.3383,-0.07221 -0.67121,-0.14892 -0.99779,-0.23167c-0.11398,-0.02983 -0.22302,-0.06213 -0.3365,-0.0929c-0.43389,-0.11606 -0.85561,-0.24328 -1.27151,-0.37857c-0.2629,-0.08578 -0.52405,-0.17364 -0.77931,-0.26699c-0.15165,-0.05399 -0.30377,-0.11056 -0.45228,-0.16759c-0.40558,-0.1575 -0.80757,-0.31746 -1.19745,-0.49009l-0.06778,0.07317c0.14717,1.18568 0.51058,1.82367 0.8009,2.1275c0.59178,0.62034 1.73091,0.76774 1.73091,0.76774c0,0 -3.48207,0.54818 -5.37809,-2.4763c-0.20145,-0.3215 -0.40469,-0.65465 -0.5976,-1.0095l-0.08302,-0.20292c-0.41186,-0.15492 -0.8291,-0.36086 -1.24101,-0.62588c-2.51157,-1.62782 -2.82699,-2.97042 -2.82699,-2.97042l0.05249,0.49211c0.24187,1.28262 0.47784,2.09218 0.47784,2.09218c0,0 -3.00601,-2.14012 -4.34485,-5.34726c-1.07944,-2.58889 -1.16516,-4.15711 -1.17233,-4.42063l-0.10098,-0.94183c-0.06504,-3.6882 0.13865,-7.82513 0.58913,-11.89494l0.02781,-0.10849c0.40154,-3.14609 0.01211,-8.35817 3.72253,-13.69131c6.95291,-9.99104 14.05609,-9.64376 18.30447,-17.02769c3.12493,-5.43215 2.3223,-11.66226 2.3223,-11.66226c0,0 1.91626,3.05224 2.68078,4.84462c0.74029,1.74691 1.53081,3.99861 1.53081,3.99861l0.02557,-0.01918c0.0175,-0.06565 0.03319,-0.13277 0.04664,-0.19988c0.20867,-1.04534 0.1261,-2.5909 0.1261,-2.5909c0,0 1.82696,6.02367 4.77645,9.97282c2.9477,3.94719 7.20819,5.07528 12.58718,18.59294c0.66942,1.6798 1.2917,3.0936 1.62461,4.66088l0.15076,0.90197c0.46887,2.81854 0.28447,10.60526 -0.70082,13.96946v0v0v0v0zM309.64018,182.28943c0,0 -3.48431,4.07177 -3.2546,9.73761c0.20324,5.01316 1.35812,6.5617 1.9804,6.94935c0.63982,0.39623 1.63178,0.16153 1.63178,0.16153c0,0 -2.80592,1.67173 -5.09322,-0.59663c-1.52992,-1.51625 -3.19491,-3.47218 -3.66109,-8.98904M338.63495,191.31835c0,0 0.43293,1.39413 -0.62232,4.30804c-1.18714,3.2829 -3.69203,4.29846 -3.69203,4.29846c0,0 2.08132,-5.05762 0.33471,-9.81286c-0.76227,-2.07754 -3.11506,-3.62507 -5.57102,-4.71785c-3.32816,-1.482 -6.84527,-2.12807 -6.84527,-2.12807M340.23663,201.18368c-0.18754,0.67029 -0.50291,1.54501 -1.03502,2.62825c-1.13291,2.31679 -4.46107,4.25904 -4.46107,4.25904c0,0 0.60124,-2.32385 0.39621,-5.52348M301.95326,193.61749c-0.34189,0.71374 -0.60478,1.47891 -0.75195,2.28702c-0.92424,5.03844 0.70217,10.58817 0.70217,10.58817c0,0 -3.00512,-2.13916 -4.34485,-5.34732c-1.18758,-2.8473 -1.17233,-4.45999 -1.17233,-4.45999M343.82955,196.39969c-1.47924,4.38524 -3.58035,6.90897 -3.58035,6.90897c0,0 0.43389,-4.44782 -1.31636,-9.20357c-0.07894,-0.21503 -0.16826,-0.42399 -0.2629,-0.6269M322.23947,183.2661c0,0 0.59587,0.17767 2.16794,1.58543c1.57213,1.40776 2.15045,2.94368 2.15045,2.94368c0,0 -4.64184,-1.37541 -7.21177,-2.41519c-2.56725,-1.04079 -11.23044,-3.69477 -11.23044,-3.69477M307.54047,204.20508c1.25846,2.22394 2.56769,3.43383 2.56769,3.43383c0,0 -3.07918,1.07257 -5.90802,-0.75916c-2.51157,-1.62777 -2.82699,-2.97042 -2.82699,-2.97042M335.02948,205.77286c-3.31874,2.87253 -7.34459,4.28029 -12.2413,4.61945c-5.83795,0.4043 -10.10515,-0.55519 -13.75234,-2.16484M308.93219,207.93367c0.11039,1.42239 0.51687,2.15985 0.83588,2.49295c0.59222,0.62034 1.73136,0.76774 1.73136,0.76774c0,0 -3.48296,0.54818 -5.37854,-2.4763c-0.20145,-0.3215 -0.40469,-0.65465 -0.5976,-1.0095M322.57643,183.4347c0,0 12.71595,1.74495 12.71595,9.55287" fill="#be1e2d" stroke="#be1e2d" stroke-width="0.90024"/></g></g></g></svg>