<svg version="1.1" xmlns="http://www.w3.org/2000/svg" xmlns:xlink="http://www.w3.org/1999/xlink" width="100.35101" height="100.04222" viewBox="0,0,100.35101,100.04222"><g transform="translate(-269.90888,-129.97889)"><g data-paper-data="{&quot;isPaintingLayer&quot;:true}" fill-rule="nonzero" stroke-linejoin="miter" stroke-miterlimit="10" stroke-dasharray="" stroke-dashoffset="0" style="mix-blend-mode: normal"><g stroke="none" stroke-width="0"><path d="M354.95756,188.45346c0.79239,0 1.50983,0.6818 2.03023,1.78497c0.51987,1.10211 0.84165,2.624 0.84165,4.30415c0,1.67963 -0.32177,3.20205 -0.84165,4.30363c-0.52039,1.10316 -1.23784,1.78497 -2.03023,1.78497c-0.79239,0 -1.51037,-0.68181 -2.03023,-1.78497c-0.52039,-1.10158 -0.84218,-2.62399 -0.84218,-4.30363c0,-1.68015 0.32178,-3.20204 0.84218,-4.30415c0.51987,-1.10316 1.23785,-1.78497 2.03023,-1.78497z" fill="#00abab" stroke-linecap="butt"/><path d="M285.04289,187.09525c0.79239,0 1.50983,0.6818 2.03023,1.78497c0.51988,1.10211 0.84165,2.62399 0.84165,4.30414c0,1.67963 -0.32177,3.20205 -0.84165,4.30363c-0.52039,1.10316 -1.23785,1.78497 -2.03023,1.78497c-0.79239,0 -1.51035,-0.68181 -2.03023,-1.78497c-0.52039,-1.10158 -0.84217,-2.62399 -0.84217,-4.30363c0,-1.68015 0.32177,-3.20203 0.84217,-4.30414c0.51987,-1.10316 1.23785,-1.78497 2.03023,-1.78497z" fill="#00abab" stroke-linecap="butt"/><path d="M297.64047,213.39328c-6.07339,-4.39429 -9.39596,-10.89532 -10.19621,-17.62903c-1.11992,-9.48924 1.04132,-18.76258 4.64218,-27.20527c1.75301,-4.01015 5.95914,-6.6745 10.04266,-8.22836c4.41891,-1.59368 10.6008,2.28546 14.242,-0.76095c4.12963,-3.46616 2.96934,-15.09255 4.83241,-15.08626c2.03914,-0.17452 0.43918,11.13376 4.18152,14.69741c3.33043,3.16115 8.15918,-0.52774 13.67967,1.78286c3.81206,2.79798 7.39979,2.95887 11.21185,8.94473c3.86445,6.80603 3.71352,15.44682 2.50083,23.59185c-1.00253,6.70647 -3.19732,13.48839 -8.95155,18.29249c-5.75423,4.8041 -13.82274,7.93434 -22.83457,8.24668c-9.01235,0.31235 -17.2779,-2.25192 -23.35077,-6.64619z" fill="#00abab" stroke-linecap="butt"/><path d="M338.60925,186.841v0v0v0v0v0v0c0,0 8.14765,9.21149 5.63004,18.76625c-2.51656,9.55267 -18.50947,13.12522 -29.10921,12.87313c-7.8531,-0.19023 -17.44088,-5.97592 -18.8438,-13.57958c-1.41969,-7.69485 7.64348,-19.24944 12.51887,-19.95903l14.4773,-2.30693c2.9007,-0.02044 5.7013,1.14142 8.39238,1.85258c2.35778,0.62154 6.93338,2.35462 6.93443,2.35358z" fill="#00abab" stroke-linecap="butt"/><path d="M332.38965,206.15436c0,0 -3.38545,4.56461 -10.96605,4.56461c-7.57851,0 -9.6082,-3.00028 -9.6082,-3.00028" fill="#00abab" stroke-linecap="round"/><path d="M311.41708,198.55386c0.68914,0 1.3133,0.27933 1.7661,0.7295c0.45176,0.45122 0.73211,1.07328 0.73211,1.75981c0,0.68705 -0.28037,1.30912 -0.73211,1.75981c-0.4528,0.45017 -1.07696,0.72949 -1.7661,0.72949c-0.68967,0 -1.31385,-0.27933 -1.76663,-0.72949c-0.45176,-0.45069 -0.73211,-1.07276 -0.73211,-1.75981c0,-0.68652 0.28037,-1.30859 0.73211,-1.75981c0.4528,-0.45017 1.07696,-0.7295 1.76663,-0.7295v0v0v0v0v0v0v0v0v0v0v0v0v0v0v0v0v0v0v0v0v0v0v0v0v0v0v0v0z" fill="#00abab" stroke-linecap="butt"/><path d="M332.37969,198.29182c0.68915,0 1.31332,0.27933 1.7661,0.72949c0.45176,0.45122 0.73211,1.07328 0.73211,1.75981c0,0.68705 -0.28037,1.30912 -0.73211,1.75981c-0.45278,0.45017 -1.07695,0.72949 -1.7661,0.72949c-0.68967,0 -1.31383,-0.27933 -1.76663,-0.72949c-0.45176,-0.45069 -0.73211,-1.07276 -0.73211,-1.75981c0,-0.68652 0.28037,-1.30859 0.73211,-1.75981c0.45278,-0.45017 1.07696,-0.72949 1.76663,-0.72949v0v0v0v0v0v0v0v0v0v0v0v0v0v0v0v0v0v0v0v0v0v0v0v0v0v0v0v0z" fill="#00abab" stroke-linecap="butt"/><path d="M354.95755,183.90693c0.79239,0 1.50983,0.6818 2.03023,1.78497c0.51987,1.1021 0.84165,2.624 0.84165,4.30415c0,1.67963 -0.32177,3.20205 -0.84165,4.30363c-0.52039,1.10316 -1.23784,1.78497 -2.03023,1.78497c-0.79239,0 -1.51036,-0.6818 -2.03023,-1.78497c-0.52039,-1.10158 -0.84218,-2.624 -0.84218,-4.30363c0,-1.68015 0.32178,-3.20204 0.84218,-4.30415c0.51987,-1.10316 1.23784,-1.78497 2.03023,-1.78497z" fill="#00cccc" stroke-linecap="butt"/><path d="M285.04289,182.54872c0.79239,0 1.50983,0.6818 2.03023,1.78497c0.51988,1.1021 0.84165,2.624 0.84165,4.30415c0,1.67963 -0.32177,3.20205 -0.84165,4.30363c-0.52039,1.10316 -1.23784,1.78497 -2.03023,1.78497c-0.79239,0 -1.51035,-0.6818 -2.03023,-1.78497c-0.52039,-1.10158 -0.84217,-2.624 -0.84217,-4.30363c0,-1.68015 0.32177,-3.20204 0.84217,-4.30415c0.51987,-1.10316 1.23784,-1.78497 2.03023,-1.78497z" fill="#00cccc" stroke-linecap="butt"/><path d="M297.64047,208.84675c-6.07338,-4.39429 -9.39596,-10.89532 -10.19621,-17.62904c-1.11992,-9.48924 1.04132,-18.76258 4.64218,-27.20527c1.75301,-4.01015 5.95914,-6.6745 10.04266,-8.22835c4.41891,-1.59367 10.60079,2.28545 14.242,-0.76095c4.12963,-3.46617 2.96935,-15.09255 4.83241,-15.08626c2.03914,-0.17452 0.43917,11.13377 4.18152,14.69741c3.33043,3.16115 8.15918,-0.52774 13.67968,1.78286c3.81206,2.79798 7.39979,2.95887 11.21185,8.94473c3.86445,6.80603 3.71352,15.44682 2.50083,23.59185c-1.00253,6.70647 -3.19732,13.48839 -8.95155,18.29249c-5.75423,4.8041 -13.82274,7.93434 -22.83457,8.24668c-9.01235,0.31235 -17.2779,-2.25191 -23.35077,-6.64619z" fill="#00cccc" stroke-linecap="butt"/><path d="M338.60925,182.29446v0v0v0v0v0v0c0,0 8.14764,9.21149 5.63004,18.76625c-2.51656,9.55267 -18.50947,13.12522 -29.10921,12.87313c-7.8531,-0.19023 -17.44088,-5.97592 -18.8438,-13.57958c-1.41969,-7.69485 7.64349,-19.24944 12.51887,-19.95903l14.4773,-2.30693c2.9007,-0.02044 5.7013,1.14142 8.39238,1.85258c2.35778,0.62154 6.93338,2.35462 6.93443,2.35358z" fill="#00cccc" stroke-linecap="butt"/><path d="M332.38965,201.60784c0,0 -3.38546,4.56461 -10.96605,4.56461c-7.57851,0 -9.6082,-3.00027 -9.6082,-3.00027" fill="#00cccc" stroke-linecap="round"/><path d="M311.41708,194.00733c0.68914,0 1.3133,0.27933 1.7661,0.7295c0.45176,0.45122 0.73211,1.07328 0.73211,1.75981c0,0.68705 -0.28037,1.30912 -0.73211,1.75981c-0.4528,0.45017 -1.07696,0.7295 -1.7661,0.7295c-0.68967,0 -1.31384,-0.27933 -1.76663,-0.7295c-0.45176,-0.45069 -0.73211,-1.07276 -0.73211,-1.75981c0,-0.68652 0.28037,-1.30859 0.73211,-1.75981c0.4528,-0.45017 1.07696,-0.7295 1.76663,-0.7295v0v0v0v0v0v0v0v0v0v0v0v0v0v0v0v0v0v0v0v0v0v0v0v0v0v0v0v0z" fill="#00cccc" stroke-linecap="butt"/><path d="M332.37969,193.74529c0.68915,0 1.31332,0.27933 1.7661,0.7295c0.45176,0.45122 0.73211,1.07328 0.73211,1.75981c0,0.68705 -0.28037,1.30912 -0.73211,1.75981c-0.45278,0.45017 -1.07695,0.7295 -1.7661,0.7295c-0.68967,0 -1.31383,-0.27933 -1.76663,-0.7295c-0.45176,-0.45069 -0.73211,-1.07276 -0.73211,-1.75981c0,-0.68652 0.28037,-1.30859 0.73211,-1.75981c0.45278,-0.45017 1.07696,-0.7295 1.76663,-0.7295v0v0v0v0v0v0v0v0v0v0v0v0v0v0v0v0v0v0v0v0v0v0v0v0v0v0v0v0z" fill="#00cccc" stroke-linecap="butt"/></g></g></g></svg>