<svg width="355" height="340" viewBox="0 0 355 340" fill="none" xmlns="http://www.w3.org/2000/svg">
<path fill-rule="evenodd" clip-rule="evenodd" d="M177.5 328C275.531 328 355 254.575 355 164C355 133.922 346.236 105.735 330.939 81.5C331.727 77.8432 332.709 73.7172 333.758 69.3147C339.447 45.425 347.074 13.3928 336 4C327.584 -3.13816 296.969 7.11436 276.291 14.0394C269.646 16.2648 264.026 18.1466 260.5 18.9972C258.507 18.0212 256.491 17.0792 254.454 16.1722C231.174 5.80806 205.071 0 177.5 0C147.516 0 119.268 6.86917 94.5 18.9972C90.9735 18.1466 85.3543 16.2648 78.709 14.0394C58.0306 7.11436 27.4161 -3.13816 19 4C7.92567 13.3928 15.5535 45.4249 21.2423 69.3146C22.2907 73.7172 23.2732 77.8432 24.0607 81.5C8.76373 105.735 0 133.922 0 164C0 254.575 79.4695 328 177.5 328Z" fill="#3764A8"/>
<path fill-rule="evenodd" clip-rule="evenodd" d="M73.536 19.5025L108.105 34.0032L119.342 30.0145C156.219 16.9217 202.898 17.2082 236.541 30.7338L247.134 34.9917L282.782 20.0506C302.387 11.831 320.258 5.08462 322.495 5.05385C327.917 4.98269 335.99 11.5349 337.4 17.1486C338.496 21.52 337.251 26.6144 326.039 63.6564C315.989 96.8617 316.074 95.154 323.82 109.039C342.109 141.823 352.385 180.7 352.743 218.471C352.998 245.253 350.177 258.276 340.459 275.204C321.968 307.417 280.395 329.872 228.039 335.93C205.75 338.509 150.307 338.507 127.975 335.926C88.2713 331.337 55.7756 317.729 32.8304 296.084C11.1544 275.637 3.37719 255.08 3.46757 218.471C3.56181 180.977 12.8161 143.675 30.2091 110.685L38.9903 94.0308L34.8286 79.8052C32.5381 71.9818 28.4975 58.2235 25.8493 49.2327C16.5451 17.6486 16.5335 17.4486 23.8435 9.32711C26.1936 6.71738 29.9668 5 33.3535 5C36.4402 5 54.5237 11.5253 73.536 19.5025Z" fill="#FF7319"/>
<path d="M130.908 163.519L121.813 165.79L115.167 168.292C100.387 173.856 86.6836 181.874 74.6238 191.982C68.5767 197.051 63.4991 203.141 58.7673 209.455C44.6899 228.24 37.1998 249.48 37.1235 270.83C37.0504 291.676 43.345 303.382 60.8888 315.025C79.4599 327.35 105.761 335.099 137.896 337.712C155.97 339.181 200.844 339.183 218.884 337.714C261.259 334.264 294.907 321.478 309.873 303.135C317.739 293.496 320.022 286.08 319.815 270.83C319.525 249.322 311.209 227.185 296.406 208.517L292.05 204.069C275.78 187.455 256.087 174.584 234.339 166.353L225.766 163.928C198.535 156.227 160.755 156.063 130.908 163.519Z" fill="white"/>
<path d="M285.151 25.6451L255.723 38.3302L265.864 44.1843C276.026 50.0519 304.725 76.9416 310.018 85.5535C312.697 89.9152 313.3 88.5017 322.193 57.0138C336.43 6.59999 334.036 4.57298 285.151 25.6451Z" fill="#77500C"/>
<path d="M28.0013 17.2755C25.1858 21.5718 25.6012 23.9027 34.6882 54.754C40.0173 72.8452 44.3771 88.1709 44.3771 88.8075C44.3771 89.444 47.6984 85.7766 51.7582 80.6571C62.3029 67.3623 83.5461 48.0095 92.7484 43.3151C97.0698 41.1092 99.8545 38.6687 98.9353 37.8918C94.9793 34.5474 40.2769 12.6926 35.8632 12.6926C32.865 12.6926 29.8533 14.4484 28.0013 17.2755Z" fill="#77500C"/>
<path d="M159.418 131.657C159.418 140.154 152.53 147.042 144.033 147.042C135.536 147.042 128.647 140.154 128.647 131.657C128.647 123.16 135.536 116.272 144.033 116.272C152.53 116.272 159.418 123.16 159.418 131.657Z" fill="black"/>
<path d="M226.793 133.036C226.793 141.533 219.905 148.422 211.408 148.422C202.911 148.422 196.023 141.533 196.023 133.036C196.023 124.539 202.911 117.651 211.408 117.651C219.905 117.651 226.793 124.539 226.793 133.036Z" fill="black"/>
<path fill-rule="evenodd" clip-rule="evenodd" d="M183.596 192.654H172.057V202.682H172.045C172.053 202.895 172.057 203.108 172.057 203.323C172.057 212.882 164.307 220.632 154.748 220.632C145.189 220.632 137.44 212.882 137.44 203.323C137.44 203.108 137.444 202.895 137.451 202.682H125.908C125.903 202.895 125.901 203.109 125.901 203.323C125.901 219.255 138.816 232.171 154.748 232.171C164.185 232.171 172.563 227.639 177.826 220.634C183.089 227.639 191.468 232.171 200.904 232.171C216.836 232.171 229.752 219.255 229.752 203.323C229.752 203.109 229.749 202.895 229.745 202.682H218.201C218.209 202.895 218.213 203.108 218.213 203.323C218.213 212.882 210.464 220.632 200.904 220.632C191.345 220.632 183.596 212.882 183.596 203.323C183.596 203.108 183.6 202.895 183.608 202.682H183.596V192.654Z" fill="black"/>
<mask id="path-4-inside-1_0_1" fill="white">
<path fill-rule="evenodd" clip-rule="evenodd" d="M168.517 163.807C161.976 163.807 155.389 167.523 155.389 174.064C155.389 186.455 165.434 196.501 177.826 196.501C190.217 196.501 200.263 186.455 200.263 174.064C200.263 167.523 193.676 163.807 187.135 163.807H168.517Z"/>
</mask>
<path fill-rule="evenodd" clip-rule="evenodd" d="M168.517 163.807C161.976 163.807 155.389 167.523 155.389 174.064C155.389 186.455 165.434 196.501 177.826 196.501C190.217 196.501 200.263 186.455 200.263 174.064C200.263 167.523 193.676 163.807 187.135 163.807H168.517Z" fill="#77500C"/>
<path d="M177.826 185.374C171.58 185.374 166.516 180.31 166.516 174.064H144.262C144.262 192.601 159.289 207.628 177.826 207.628V185.374ZM189.136 174.064C189.136 180.31 184.072 185.374 177.826 185.374V207.628C196.363 207.628 211.39 192.601 211.39 174.064H189.136ZM187.135 152.68H168.517V174.934H187.135V152.68ZM211.39 174.064C211.39 166.557 207.441 160.845 202.586 157.404C197.957 154.124 192.336 152.68 187.135 152.68V174.934C187.735 174.934 188.318 175.022 188.816 175.168C189.321 175.316 189.611 175.485 189.718 175.561C189.816 175.631 189.651 175.54 189.454 175.194C189.231 174.802 189.136 174.37 189.136 174.064H211.39ZM166.516 174.064C166.516 174.37 166.42 174.802 166.198 175.194C166.001 175.54 165.836 175.631 165.934 175.561C166.041 175.485 166.331 175.316 166.836 175.168C167.334 175.022 167.917 174.934 168.517 174.934V152.68C163.316 152.68 157.695 154.124 153.066 157.404C148.211 160.845 144.262 166.557 144.262 174.064H166.516Z" fill="black" mask="url(#path-4-inside-1_0_1)"/>
<mask id="mask0_0_1" style="mask-type:alpha" maskUnits="userSpaceOnUse" x="1" y="193" width="354" height="147">
<path d="M80.1324 220.549L4.97072 193.5C-23.5321 321 107.467 345.5 204.473 339C219.504 337.993 250.474 337.5 286.474 321C358.474 288 356.974 232.667 352.974 203.5L270.88 226.955C208.197 244.865 141.472 242.624 80.1324 220.549Z" fill="black"/>
</mask>
<g mask="url(#mask0_0_1)">
<rect x="-6.5332" y="185" width="360" height="186" fill="#3C7CDD"/>
<path fill-rule="evenodd" clip-rule="evenodd" d="M135.001 271.461C133.045 273.145 132.11 275.858 132.823 278.519C133.814 282.219 137.618 284.415 141.318 283.423C145.019 282.432 147.214 278.628 146.223 274.928C145.41 271.893 142.705 269.87 139.717 269.788C132.289 251.172 129.735 234.519 129.398 228.212L124.406 228.479C124.769 235.291 127.42 252.393 135.001 271.461Z" fill="white"/>
<path fill-rule="evenodd" clip-rule="evenodd" d="M216.96 272.905C214.423 273.385 212.257 275.268 211.544 277.928C210.553 281.628 212.749 285.432 216.449 286.423C220.149 287.415 223.953 285.219 224.944 281.519C225.758 278.484 224.427 275.379 221.88 273.814C224.756 253.978 230.87 238.279 233.732 232.649L229.275 230.383C226.183 236.465 219.928 252.601 216.96 272.905Z" fill="white"/>
</g>
</svg>
