<svg width="71" height="71" viewBox="0 0 71 71" fill="none" xmlns="http://www.w3.org/2000/svg">
<path d="M65.2285 44.4317C65.2285 59.3698 52.1299 64.1902 36.0008 64.1902C19.8716 64.1902 6.77313 59.4227 6.77313 44.4317C6.77313 37.3864 8.72507 29.3877 12.8858 22.8192L9.44419 10.9535C8.77642 8.67567 10.9852 6.60976 13.0399 7.51029L24.3919 12.3837C27.7307 10.8475 31.5833 9.947 36.0008 9.947C40.3156 9.947 44.1681 10.8475 47.5069 12.4367L58.9617 7.51029C61.0164 6.66274 63.2252 8.72865 62.5574 10.9535L59.0645 22.9781C63.2252 29.4406 65.2285 37.4394 65.2285 44.4317Z" fill="#F537F9"/>
<path d="M58.859 53.8607C58.859 61.7006 48.5857 64.1903 35.9495 64.1903C23.3133 64.1903 13.0399 61.7006 13.0399 53.8607C13.0399 46.0209 19.8717 35.8503 35.9495 35.8503C51.6677 35.7973 58.859 46.0209 58.859 53.8607Z" fill="white"/>
<path d="M33.4324 39.3992C33.4324 38.3398 34.5625 38.022 36.0008 38.022C37.439 38.022 38.5691 38.3398 38.5691 39.3992C38.5691 40.4587 37.7986 41.783 36.0008 41.783C34.2029 41.783 33.4324 40.4587 33.4324 39.3992Z" fill="#945600" stroke="black" stroke-width="1.5" stroke-miterlimit="10"/>
<path d="M44.6818 42.8425C44.6818 45.3322 42.7299 47.2921 40.3156 47.2921C37.9014 47.2921 35.9495 45.2792 35.9495 42.8425M35.9495 42.8425C35.9495 42.7365 35.9495 42.7365 35.9495 42.7365C35.9495 42.5776 35.9495 42.4717 35.9495 42.4717M35.9495 42.8425C35.9495 45.3322 33.9975 47.2921 31.5833 47.2921C29.169 47.2921 27.2171 45.2792 27.2171 42.8425" stroke="black" stroke-width="2.5" stroke-miterlimit="10" stroke-linecap="round"/>
<path d="M28.4499 30.3415C28.4499 28.9372 29.5538 27.7988 30.9155 27.7988C32.2772 27.7988 33.3811 28.9372 33.3811 30.3415C33.3811 31.7457 32.2772 32.8841 30.9155 32.8841C29.5538 32.8841 28.4499 31.7457 28.4499 30.3415Z" fill="black"/>
<path d="M38.5692 30.3415C38.5692 28.9372 39.673 27.7988 41.0348 27.7988C42.3965 27.7988 43.5004 28.9372 43.5004 30.3415C43.5004 31.7457 42.3965 32.8841 41.0348 32.8841C39.673 32.8841 38.5692 31.7457 38.5692 30.3415Z" fill="black"/>
<path d="M18.1252 16.8867C16.4814 18.4228 15.0945 19.8001 13.8617 21.919L10.7797 10.9008C10.5743 9.57653 11.7557 8.46412 13.0399 8.83493L23.2618 13.2316C20.9503 14.1851 19.6148 15.4564 18.1252 16.8867Z" fill="#822092"/>
<path d="M48.9453 13.2311L59.1672 8.83444C60.4514 8.46364 61.6328 9.57605 61.4274 10.9003L58.3454 21.9185C57.1126 19.7996 55.7256 18.4224 54.0819 16.8862C52.5923 15.4559 51.2568 14.1846 48.9453 13.2311Z" fill="#822092"/>
</svg>
