<svg width="71" height="71" viewBox="0 0 71 71" fill="none" xmlns="http://www.w3.org/2000/svg">
<g clip-path="url(#clip0_3450_5)">
<path d="M64 44.2053C64 59.1707 50.7794 64 34.5 64C18.2206 64 5 59.2238 5 44.2053C5 37.1471 6.97012 29.1337 11.1696 22.5532L7.69595 10.6657C7.02196 8.38377 9.25131 6.31407 11.3251 7.21625L22.7829 12.0986C26.1529 10.5596 30.0413 9.65742 34.5 9.65742C38.855 9.65742 42.7434 10.5596 46.1133 12.1517L57.6749 7.21625C59.7487 6.36715 61.978 8.43684 61.304 10.6657L57.7786 22.7124C61.978 29.1868 64 37.2002 64 44.2053Z" fill="#DC143C"/>
<path d="M57.5971 53.8607C57.5971 61.7006 47.2167 64.1903 34.4489 64.1903C21.6811 64.1903 11.3007 61.7006 11.3007 53.8607C11.3007 46.0209 18.2037 35.8503 34.4489 35.8503C50.3308 35.7973 57.5971 46.0209 57.5971 53.8607Z" fill="white"/>
<path d="M31.9057 39.3992C31.9057 38.3398 33.0475 38.022 34.5008 38.022C35.954 38.022 37.0959 38.3398 37.0959 39.3992C37.0959 40.4587 36.3174 41.783 34.5008 41.783C32.6842 41.783 31.9057 40.4587 31.9057 39.3992Z" fill="#945600" stroke="black" stroke-width="1.5" stroke-miterlimit="10"/>
<path d="M43.2722 42.8425C43.2722 45.3322 41.3 47.2921 38.8606 47.2921C36.4212 47.2921 34.4489 45.2792 34.4489 42.8425M34.4489 42.8425C34.4489 42.7365 34.4489 42.7365 34.4489 42.7365C34.4489 42.5776 34.4489 42.4717 34.4489 42.4717M34.4489 42.8425C34.4489 45.3322 32.4767 47.2921 30.0373 47.2921C27.5979 47.2921 25.6256 45.2792 25.6256 42.8425" stroke="black" stroke-width="2.5" stroke-miterlimit="10" stroke-linecap="round"/>
<path d="M26.8712 30.3415C26.8712 28.9372 27.9866 27.7988 29.3625 27.7988C30.7384 27.7988 31.8538 28.9372 31.8538 30.3415C31.8538 31.7457 30.7384 32.8841 29.3625 32.8841C27.9866 32.8841 26.8712 31.7457 26.8712 30.3415Z" fill="black"/>
<path d="M37.0959 30.3415C37.0959 28.9372 38.2113 27.7988 39.5872 27.7988C40.9631 27.7988 42.0785 28.9372 42.0785 30.3415C42.0785 31.7457 40.9631 32.8841 39.5872 32.8841C38.2113 32.8841 37.0959 31.7457 37.0959 30.3415Z" fill="black"/>
<path d="M16.439 16.8867C14.7781 18.4228 13.3768 19.8001 12.1312 21.919L9.01703 10.9008C8.80942 9.57653 10.0032 8.46412 11.3007 8.83493L21.6292 13.2316C19.2936 14.1851 17.9442 15.4564 16.439 16.8867Z" fill="#840C24"/>
<path d="M47.5801 13.2311L57.9085 8.83444C59.2061 8.46364 60.3998 9.57605 60.1922 10.9003L57.0781 21.9185C55.8325 19.7996 54.4311 18.4224 52.7702 16.8862C51.2651 15.4559 49.9157 14.1846 47.5801 13.2311Z" fill="#840C24"/>
</g>
<defs>
<clipPath id="clip0_3450_5">
<rect width="71" height="71" fill="white"/>
</clipPath>
</defs>
</svg>
