<svg width="71" height="71" viewBox="0 0 71 71" fill="none" xmlns="http://www.w3.org/2000/svg">
<g clip-path="url(#clip0_3449_68)">
<path d="M65.782 43.9215C65.782 58.8595 52.2742 63.68 35.641 63.68C19.0078 63.68 5.5 58.9125 5.5 43.9215C5.5 36.8762 7.51293 28.8774 11.8036 22.3089L8.25453 10.4432C7.56589 8.16542 9.84369 6.0995 11.9626 7.00003L23.6694 11.8734C27.1125 10.3373 31.0854 9.43674 35.641 9.43674C40.0906 9.43674 44.0635 10.3373 47.5067 11.9264L59.3194 7.00003C61.4383 6.15248 63.7161 8.21839 63.0275 10.4432L59.4254 22.4678C63.7161 28.9304 65.782 36.9292 65.782 43.9215Z" fill="#14DC58"/>
<path d="M59.0733 53.8607C59.0733 61.7006 48.4789 64.1903 35.4478 64.1903C22.4168 64.1903 11.8224 61.7006 11.8224 53.8607C11.8224 46.0209 18.8676 35.8503 35.4478 35.8503C51.6572 35.7973 59.0733 46.0209 59.0733 53.8607Z" fill="white"/>
<path d="M32.8522 39.3992C32.8522 38.3398 34.0176 38.022 35.5008 38.022C36.984 38.022 38.1494 38.3398 38.1494 39.3992C38.1494 40.4587 37.3548 41.783 35.5008 41.783C33.6468 41.783 32.8522 40.4587 32.8522 39.3992Z" fill="#945600" stroke="black" stroke-width="1.5" stroke-miterlimit="10"/>
<path d="M44.4531 42.8425C44.4531 45.3322 42.4402 47.2921 39.9505 47.2921C37.4608 47.2921 35.4479 45.2792 35.4479 42.8425M35.4479 42.8425C35.4479 42.7365 35.4479 42.7365 35.4479 42.7365C35.4479 42.5776 35.4479 42.4717 35.4479 42.4717M35.4479 42.8425C35.4479 45.3322 33.4349 47.2921 30.9453 47.2921C28.4556 47.2921 26.4426 45.2792 26.4426 42.8425" stroke="black" stroke-width="2.5" stroke-miterlimit="10" stroke-linecap="round"/>
<path d="M27.7139 30.3415C27.7139 28.9372 28.8523 27.7988 30.2566 27.7988C31.6608 27.7988 32.7992 28.9372 32.7992 30.3415C32.7992 31.7457 31.6608 32.8841 30.2566 32.8841C28.8523 32.8841 27.7139 31.7457 27.7139 30.3415Z" fill="black"/>
<path d="M38.1494 30.3415C38.1494 28.9372 39.2878 27.7988 40.6921 27.7988C42.0963 27.7988 43.2347 28.9372 43.2347 30.3415C43.2347 31.7457 42.0963 32.8841 40.6921 32.8841C39.2878 32.8841 38.1494 31.7457 38.1494 30.3415Z" fill="black"/>
<path d="M17.0666 16.8867C15.3715 18.4228 13.9412 19.8001 12.6699 21.919L9.49158 10.9008C9.27969 9.57653 10.4981 8.46412 11.8224 8.83493L22.3638 13.2316C19.98 14.1851 18.6028 15.4564 17.0666 16.8867Z" fill="#0C842D"/>
<path d="M48.8497 13.2311L59.3911 8.83444C60.7154 8.46364 61.9338 9.57605 61.7219 10.9003L58.5436 21.9185C57.2723 19.7996 55.842 18.4224 54.1469 16.8862C52.6107 15.4559 51.2335 14.1846 48.8497 13.2311Z" fill="#0C842D"/>
</g>
<defs>
<clipPath id="clip0_3449_68">
<rect width="71" height="71" fill="white"/>
</clipPath>
</defs>
</svg>
