<svg width="500" height="500" viewBox="0 0 500 500" fill="none" xmlns="http://www.w3.org/2000/svg">
<path fill-rule="evenodd" clip-rule="evenodd" d="M143.069 79.5026L177.638 94.0032L188.875 90.0146C225.752 76.9217 272.431 77.2082 306.075 90.7338L316.667 94.9917L352.315 80.0507C371.92 71.8311 389.792 65.0846 392.028 65.0538C397.45 64.9827 405.523 71.5349 406.933 77.1486C408.029 81.52 406.785 86.6144 395.573 123.656C385.522 156.862 385.607 155.154 393.353 169.039C411.643 201.823 421.918 240.7 422.276 278.471C422.532 305.253 419.71 318.277 409.993 335.204C391.501 367.417 349.928 389.872 297.572 395.93C275.283 398.509 219.84 398.507 197.508 395.926C157.805 391.337 125.309 377.729 102.364 356.084C80.6877 335.637 72.9104 315.08 73.0008 278.471C73.095 240.977 82.3493 203.675 99.7423 170.685L108.524 154.031L104.362 139.805C102.071 131.982 98.0307 118.224 95.3825 109.233C86.0783 77.6486 86.0667 77.4486 93.3767 69.3271C95.7268 66.7174 99.5 65 102.887 65C105.973 65 124.057 71.5253 143.069 79.5026Z" fill="#FF7319"/>
<path d="M200.442 223.518L191.347 225.79L184.7 228.292C169.92 233.856 156.217 241.874 144.157 251.982C138.11 257.051 133.032 263.14 128.301 269.454C114.223 288.24 106.733 309.48 106.657 330.83C106.584 351.676 112.878 363.382 130.422 375.025C148.993 387.35 175.294 395.099 207.429 397.712C225.504 399.181 270.377 399.182 288.418 397.714C330.793 394.264 364.441 381.478 379.407 363.135C387.272 353.496 389.556 346.08 389.349 330.83C389.059 309.322 380.742 287.185 365.94 268.517L361.584 264.069C345.314 247.454 325.62 234.584 303.872 226.352L295.299 223.928C268.069 216.226 230.288 216.063 200.442 223.518Z" fill="white"/>
<path d="M354.683 85.6449L325.255 98.3301L335.396 104.184C345.558 110.052 374.257 136.941 379.55 145.553C382.229 149.915 382.832 148.502 391.725 117.014C405.962 66.5998 403.568 64.5728 354.683 85.6449Z" fill="#77500C"/>
<path d="M97.5332 77.2753C94.7176 81.5717 95.1331 83.9025 104.22 114.754C109.549 132.845 113.909 148.171 113.909 148.807C113.909 149.444 117.23 145.776 121.29 140.657C131.835 127.362 153.078 108.009 162.28 103.315C166.602 101.109 169.386 98.6686 168.467 97.8916C164.511 94.5472 109.809 72.6924 105.395 72.6924C102.397 72.6924 99.3852 74.4483 97.5332 77.2753Z" fill="#77500C"/>
<path d="M228.328 197.47C228.328 205.967 221.44 212.855 212.943 212.855C204.446 212.855 197.558 205.967 197.558 197.47C197.558 188.972 204.446 182.084 212.943 182.084C221.44 182.084 228.328 188.972 228.328 197.47Z" fill="black"/>
<path d="M298.081 197.47C298.081 205.967 291.192 212.855 282.695 212.855C274.198 212.855 267.31 205.967 267.31 197.47C267.31 188.972 274.198 182.084 282.695 182.084C291.192 182.084 298.081 188.972 298.081 197.47Z" fill="black"/>
<path fill-rule="evenodd" clip-rule="evenodd" d="M290.031 169.628C290.036 169.841 290.038 170.055 290.038 170.269C290.038 186.201 277.123 199.116 261.191 199.116C260.737 199.116 260.285 199.106 259.837 199.085V187.525C260.285 187.56 260.738 187.578 261.195 187.578C270.754 187.578 278.504 179.828 278.504 170.269C278.504 170.055 278.5 169.841 278.492 169.628H290.031ZM205.038 169.628C205.033 169.841 205.031 170.055 205.031 170.269C205.031 186.201 217.946 199.116 233.878 199.116C234.229 199.116 234.577 199.11 234.925 199.098V187.546C234.577 187.567 234.227 187.578 233.874 187.578C224.314 187.578 216.565 179.829 216.565 170.269C216.565 170.055 216.569 169.841 216.577 169.628H205.038ZM241.135 252.655H252.674V273.81H252.681C252.679 273.891 252.676 273.972 252.674 274.054V274.847C252.885 284.223 260.552 291.759 269.978 291.759C271.301 291.759 272.59 291.61 273.827 291.329V303.044C272.57 303.211 271.286 303.298 269.983 303.298C260.545 303.298 252.166 298.766 246.903 291.759C241.64 298.766 233.261 303.298 223.824 303.298C222.52 303.298 221.236 303.211 219.978 303.043V291.329C221.216 291.61 222.505 291.759 223.828 291.759C233.314 291.759 241.017 284.129 241.135 274.671V274.45V274.229C241.134 274.089 241.13 273.949 241.125 273.81H241.135V252.655Z" fill="black"/>
<mask id="path-3-inside-1_3095_701" fill="white">
<path fill-rule="evenodd" clip-rule="evenodd" d="M237.59 223.807C231.049 223.807 224.463 227.523 224.463 234.064V234.064C224.463 246.455 234.508 256.5 246.9 256.5C259.291 256.5 269.337 246.455 269.337 234.064V234.064C269.337 227.523 262.75 223.807 256.21 223.807H237.59Z"/>
</mask>
<path fill-rule="evenodd" clip-rule="evenodd" d="M237.59 223.807C231.049 223.807 224.463 227.523 224.463 234.064V234.064C224.463 246.455 234.508 256.5 246.9 256.5C259.291 256.5 269.337 246.455 269.337 234.064V234.064C269.337 227.523 262.75 223.807 256.21 223.807H237.59Z" fill="#77500C"/>
<path d="M246.9 245.373C240.654 245.373 235.59 240.31 235.59 234.064H213.336C213.336 252.601 228.363 267.628 246.9 267.628V245.373ZM258.21 234.064C258.21 240.31 253.146 245.373 246.9 245.373V267.628C265.437 267.628 280.464 252.601 280.464 234.064H258.21ZM256.21 212.68H237.59V234.935H256.21V212.68ZM280.464 234.064C280.464 226.557 276.515 220.846 271.66 217.405C267.031 214.124 261.411 212.68 256.21 212.68V234.935C256.81 234.935 257.393 235.022 257.891 235.168C258.395 235.316 258.685 235.486 258.792 235.561C258.89 235.631 258.725 235.54 258.528 235.194C258.305 234.802 258.21 234.37 258.21 234.064H280.464ZM235.59 234.064C235.59 234.37 235.494 234.802 235.272 235.194C235.075 235.54 234.91 235.631 235.008 235.561C235.115 235.486 235.404 235.316 235.909 235.168C236.407 235.022 236.99 234.935 237.59 234.935V212.68C232.389 212.68 226.768 214.124 222.14 217.405C217.284 220.846 213.336 226.557 213.336 234.064H235.59Z" fill="black" mask="url(#path-3-inside-1_3095_701)"/>
<mask id="mask0_3095_701" style="mask-type:alpha" maskUnits="userSpaceOnUse" x="70" y="255" width="354" height="147">
<path d="M149.132 282.049L73.9707 255C45.4679 382.5 176.467 407 273.473 400.5C288.504 399.493 319.474 399 355.474 382.5C427.474 349.5 425.974 294.167 421.974 265L339.88 288.455C277.197 306.365 210.472 304.124 149.132 282.049Z" fill="black"/>
</mask>
<g mask="url(#mask0_3095_701)">
<rect x="62.4668" y="246.5" width="360" height="186" fill="#293240"/>
<path d="M196.707 284.081L179.653 281.836L186.834 297.466L237.834 408.466L246.225 426.728L255.011 408.653L307.511 300.653L314.773 285.714L298.214 287.03L248.874 290.95L196.707 284.081Z" fill="#EFEFEF" stroke="#222A36" stroke-width="19"/>
</g>
<path fill-rule="evenodd" clip-rule="evenodd" d="M241.379 335.505L230.406 316.5C229.252 314.5 230.695 312 233.004 312H262.129C264.438 312 265.881 314.5 264.727 316.5L254.032 335.023C256.443 336.849 258 339.743 258 343V399C258 404.523 253.523 409 248 409C242.477 409 238 404.523 238 399V343C238 340.016 239.307 337.338 241.379 335.505Z" fill="#E12C2C"/>
<path fill-rule="evenodd" clip-rule="evenodd" d="M369.231 330.99C370.718 331.389 372.079 330.028 371.681 328.541L371.528 327.969L377.016 332.807C378.171 333.826 379.995 333.212 380.299 331.702L383.38 316.422C383.684 314.912 382.241 313.64 380.782 314.131L368.892 318.132L367.646 313.484C367.248 311.996 365.389 311.498 364.3 312.587L353.277 323.61C352.189 324.698 352.687 326.557 354.174 326.956L369.231 330.99Z" fill="white"/>
<path d="M347.767 325.515C348.51 323.584 350.365 322.31 352.434 322.31H382.72C386.229 322.31 388.646 325.83 387.387 329.105L381.233 345.105C380.49 347.036 378.635 348.31 376.566 348.31H346.28C342.771 348.31 340.354 344.79 341.613 341.515L347.767 325.515Z" fill="#1B212B"/>
<path d="M125 435L127.5 267.5L81.0659 244.283L72.5 240L70 402.5L125 435Z" fill="white"/>
<path fill-rule="evenodd" clip-rule="evenodd" d="M81.0659 244.283L83.5 243.908L96.5216 241.748L98.3796 241.616L95 240H72.5L81.0659 244.283Z" fill="white"/>
<path fill-rule="evenodd" clip-rule="evenodd" d="M126 435L129 267.5H150L151.5 435H126Z" fill="#EEF22E"/>
<path fill-rule="evenodd" clip-rule="evenodd" d="M129 267.5H150L96.5216 241.748L83.5 243.908L129 267.5Z" fill="#EEF22E"/>
<path d="M81.0659 244.283L127.5 267.5H129L83.5 243.908L81.0659 244.283Z" fill="white"/>
<path d="M152.5 267.5L98.3796 241.616L96.5216 241.748L150 267.5H152.5Z" fill="white"/>
<path d="M152.5 435V267.5H150L151.5 435H152.5Z" fill="white"/>
<path d="M127.5 267.5L125 435H126L129 267.5H127.5Z" fill="white"/>
<path d="M127.5 267.5L125 435M127.5 267.5L81.0659 244.283M127.5 267.5H129M125 435L70 402.5L72.5 240M125 435H126M152.5 267.5V435H151.5M152.5 267.5L98.3796 241.616M152.5 267.5H150M72.5 240H95L98.3796 241.616M72.5 240L81.0659 244.283M81.0659 244.283L83.5 243.908M98.3796 241.616L96.5216 241.748M83.5 243.908L129 267.5M83.5 243.908L96.5216 241.748M129 267.5L126 435M129 267.5H150M126 435H151.5M96.5216 241.748L150 267.5M150 267.5L151.5 435" stroke="black" stroke-width="0.5"/>
</svg>
