<svg version="1.1" xmlns="http://www.w3.org/2000/svg" xmlns:xlink="http://www.w3.org/1999/xlink" width="41.50797" height="37.60967" viewBox="0,0,41.50797,37.60967"><defs><linearGradient x1="220.17996" y1="161.19514" x2="268.12812" y2="180.16669" gradientUnits="userSpaceOnUse" id="color-1"><stop offset="0.33347" stop-color="#f9a637"/><stop offset="1" stop-color="#ff7319"/></linearGradient><linearGradient x1="220.17996" y1="161.19514" x2="268.12812" y2="180.16669" gradientUnits="userSpaceOnUse" id="color-2"><stop offset="0.33347" stop-color="#f9a637"/><stop offset="1" stop-color="#ff7319"/></linearGradient><linearGradient x1="220.17996" y1="161.19514" x2="268.12812" y2="180.16669" gradientUnits="userSpaceOnUse" id="color-3"><stop offset="0.33347" stop-color="#f9a637"/><stop offset="1" stop-color="#ff7319"/></linearGradient><linearGradient x1="220.17996" y1="161.19514" x2="268.12812" y2="180.16669" gradientUnits="userSpaceOnUse" id="color-4"><stop offset="0.33347" stop-color="#f9a637"/><stop offset="1" stop-color="#ff7319"/></linearGradient><linearGradient x1="220.17996" y1="161.19514" x2="268.12812" y2="180.16669" gradientUnits="userSpaceOnUse" id="color-5"><stop offset="0.33347" stop-color="#f9a637"/><stop offset="1" stop-color="#ff7319"/></linearGradient><linearGradient x1="220.17996" y1="161.19514" x2="268.12812" y2="180.16669" gradientUnits="userSpaceOnUse" id="color-6"><stop offset="0.33347" stop-color="#f9a637"/><stop offset="1" stop-color="#ff7319"/></linearGradient><linearGradient x1="220.17996" y1="161.19514" x2="268.12812" y2="180.16669" gradientUnits="userSpaceOnUse" id="color-7"><stop offset="0.33347" stop-color="#f9a637"/><stop offset="1" stop-color="#ff7319"/></linearGradient><linearGradient x1="220.17996" y1="161.19514" x2="268.12812" y2="180.16669" gradientUnits="userSpaceOnUse" id="color-8"><stop offset="0.33347" stop-color="#f9a637"/><stop offset="1" stop-color="#ff7319"/></linearGradient><linearGradient x1="220.17996" y1="161.19514" x2="268.12812" y2="180.16669" gradientUnits="userSpaceOnUse" id="color-9"><stop offset="0.33347" stop-color="#f9a637"/><stop offset="1" stop-color="#ff7319"/></linearGradient></defs><g transform="translate(-219.24602,-161.19516)"><g data-paper-data="{&quot;isPaintingLayer&quot;:true}" stroke="none" stroke-width="1" stroke-linecap="butt" stroke-linejoin="miter" stroke-miterlimit="10" stroke-dasharray="" stroke-dashoffset="0" style="mix-blend-mode: normal"><path d="M257.20158,166.28681c-1.22924,1.03489 -2.86608,2.42109 -4.63137,3.91647c-0.47697,0.40375 -0.96292,0.81551 -1.45316,1.23044c-3.63762,3.08002 -7.47937,6.32583 -9.14537,7.66587c-0.57253,0.46048 -1.28288,0.72196 -2.0504,0.69019c-0.7488,-0.031 -1.4094,-0.33392 -1.93882,-0.74854c-1.79684,-1.40731 -5.80079,-4.69876 -9.52583,-7.77035c-0.76379,-0.62978 -1.51511,-1.24974 -2.23386,-1.84278c-1.28391,-1.05938 -2.46378,-2.03293 -3.42469,-2.82339v30.4237c0,0 0,0.00043 -1.77603,0.00043l1.77603,-0.00043c0,0.9809 -0.79517,1.77642 -1.77603,1.77642c-0.98087,0 -1.77604,-0.79509 -1.77604,-1.77599h1.77604c-1.77603,0 -1.77604,0 -1.77604,0v-33.40032c0,-0.39125 0.09574,-1.44232 1.10717,-1.97735c1.06157,-0.56162 2.00261,0.02149 2.32669,0.2753c0.64352,0.50398 3.01944,2.46446 5.843,4.79432c0.70971,0.58563 1.44768,1.19456 2.19353,1.80956c3.63175,2.99465 7.46828,6.14832 9.29407,7.58701c1.74392,-1.41719 5.34035,-4.45556 8.81124,-7.39447c0.49067,-0.41527 0.97876,-0.8287 1.45873,-1.23523c3.07202,-2.60216 5.80879,-4.92011 6.65654,-5.60195c0.35023,-0.2816 1.00959,-0.7205 1.83379,-0.68895c0.49538,0.01893 1.08195,0.2199 1.50925,0.74409c0.39304,0.48172 0.47397,1.0206 0.47397,1.38256v33.49905c0,0 0,0.00042 -1.77599,0.00042l1.77599,-0.00042c0,0.9809 -0.79551,1.77642 -1.77599,1.77642c-0.9809,0 -1.77642,-0.79551 -1.77642,-1.77599h1.77642c-1.77642,0 -1.77642,0 -1.77642,0z" fill="url(#color-1)" fill-rule="evenodd"/><path d="M250.11389,172.77462l6.49213,-5.19371v5.46421" fill="url(#color-2)" fill-rule="nonzero"/><path d="M223.34896,173.43423v-5.46421l6.49213,5.1937" fill="url(#color-3)" fill-rule="nonzero"/><path d="M244.32556,190.05546c-0.24525,0 -0.44404,-0.89442 -0.44404,-1.99778c0,-1.10357 0.19879,-1.99812 0.44404,-1.99812c0.24521,0 0.444,0.89455 0.444,1.99812c0,1.10336 -0.19879,1.99778 -0.444,1.99778z" fill="url(#color-4)" fill-rule="nonzero"/><path d="M236.77743,190.05546c-0.24525,0 -0.444,-0.89442 -0.444,-1.99778c0,-1.10357 0.19875,-1.99812 0.444,-1.99812c0.24521,0 0.444,0.89455 0.444,1.99812c0,1.10336 -0.19879,1.99778 -0.444,1.99778z" fill="url(#color-5)" fill-rule="nonzero"/><path d="M245.38276,185.75194c0.11248,0.21412 0.1836,0.45839 0.23198,0.6761c0.10036,0.45171 0.15384,1.02723 0.15384,1.62964c0,0.60199 -0.05348,1.17786 -0.15384,1.62956c-0.04839,0.21751 -0.1195,0.46198 -0.23198,0.67606c-0.05571,0.10619 -0.14681,0.25389 -0.29101,0.38662c-0.1496,0.13786 -0.40988,0.30485 -0.76619,0.30485c-0.35636,0 -0.61663,-0.16698 -0.76623,-0.30485c-0.1442,-0.13273 -0.23527,-0.28044 -0.29102,-0.38662c-0.11248,-0.21408 -0.1836,-0.45855 -0.23197,-0.67606c-0.10036,-0.45171 -0.15384,-1.02757 -0.15384,-1.62956c0,-0.60241 0.05347,-1.17794 0.15384,-1.62964c0.04839,-0.21772 0.1195,-0.46198 0.23197,-0.6761c0.05575,-0.10605 0.14682,-0.2539 0.29102,-0.38667c0.1496,-0.13774 0.40987,-0.30472 0.76623,-0.30472c0.35631,0 0.61659,0.16698 0.76619,0.30472c0.1442,0.13277 0.23531,0.28061 0.29101,0.38667zM237.83463,185.75194c0.11252,0.21412 0.1836,0.45839 0.23197,0.6761c0.10036,0.45171 0.15384,1.02723 0.15384,1.62964c0,0.60199 -0.05348,1.17786 -0.15384,1.62956c-0.04839,0.21751 -0.11946,0.46198 -0.23197,0.67606c-0.05571,0.10619 -0.14677,0.25389 -0.29102,0.38662c-0.14955,0.13786 -0.40987,0.30485 -0.76618,0.30485c-0.35636,0 -0.61663,-0.16698 -0.76623,-0.30485c-0.1442,-0.13273 -0.23528,-0.28044 -0.29097,-0.38662c-0.11252,-0.21408 -0.1836,-0.45855 -0.23197,-0.67606c-0.1004,-0.45171 -0.15388,-1.02757 -0.15388,-1.62956c0,-0.60241 0.05348,-1.17794 0.15388,-1.62964c0.04839,-0.21772 0.11946,-0.46198 0.23197,-0.6761c0.05571,-0.10605 0.14677,-0.2539 0.29097,-0.38667c0.1496,-0.13774 0.40987,-0.30472 0.76623,-0.30472c0.35636,0 0.61663,0.16698 0.76618,0.30472c0.14424,0.13277 0.23531,0.28061 0.29102,0.38667z" fill="url(#color-6)" fill-rule="evenodd"/><path d="M240.55034,192.97249c-0.05223,-0.16013 -0.08726,-0.32925 -0.10173,-0.50094c0,0 -0.01092,-0.13016 0.1192,-0.14129c0.00205,0 0.00407,-0.00042 0.00608,-0.00042c-0.02437,-0.05652 -0.01773,-0.06851 0.03626,-0.07578c0.00467,-0.03854 0.02607,-0.10619 0.11821,-0.11389c0.13012,-0.01071 0.1931,0.06936 0.1931,0.06936c-0.1597,0.03554 -0.25835,0.03768 -0.31131,0.04453c-0.00193,0.01627 -0.00103,0.02741 -0.00103,0.02741c0.00146,0.01712 0.00274,0.03425 0.00381,0.05095c-0.01156,-0.00214 -0.02453,-0.00343 -0.03905,-0.00257c0.03506,0.08135 0.13444,0.25518 0.24923,0.63966c0.26811,0.74499 0.94048,1.26092 1.58687,0.4958l0.06354,-0.16398c0,0 0.04843,-0.12117 0.16972,-0.07279c0.12129,0.04839 0.07287,0.16998 0.07287,0.16998l-0.08221,0.20123c-0.72491,0.85802 -1.53922,0.47055 -1.94092,-0.28986z" fill="url(#color-7)" fill-rule="nonzero"/><path d="M240.45417,193.38009c-0.40165,0.76041 -1.216,1.14789 -1.94087,0.28986l-0.08225,-0.20123c0,0 -0.04842,-0.12117 0.07287,-0.16998c0.12129,-0.04839 0.16972,0.07321 0.16972,0.07321l0.06358,0.16355c0.64634,0.76512 1.31873,0.24919 1.58683,-0.4958c0.11479,-0.38448 0.21417,-0.55832 0.24923,-0.63966c-0.01452,-0.00086 -0.02745,0.00043 -0.03905,0.003c0.00111,-0.01712 0.00235,-0.03425 0.00381,-0.05138c0,0 0.0009,-0.01113 -0.00099,-0.02697c-0.05301,-0.00728 -0.15165,-0.00941 -0.31135,-0.04495c0,0 0.06298,-0.08007 0.19314,-0.06894c0.09209,0.00771 0.11354,0.07493 0.11821,0.11389c0.05395,0.00685 0.06059,0.01884 0.03623,0.07536c0.00202,0 0.00403,0.00043 0.00608,0.00043c0.13012,0.01113 0.1192,0.14129 0.1192,0.14129c-0.01447,0.17169 -0.0495,0.34082 -0.10173,0.50094z" fill="url(#color-8)" fill-rule="nonzero"/><path d="M240.65481,192.97848c-0.27757,0.0501 -0.85074,-0.51037 -0.90084,-0.78781c-0.0501,-0.27745 0.51028,-0.30399 0.7878,-0.35408c0.27753,-0.0501 0.8507,-0.00214 0.9008,0.2753c0.0501,0.27745 -0.51023,0.81649 -0.78777,0.86659z" fill="url(#color-9)" fill-rule="nonzero"/></g></g></svg>