<svg width="500" height="500" viewBox="0 0 500 500" fill="none" xmlns="http://www.w3.org/2000/svg">
<path fill-rule="evenodd" clip-rule="evenodd" d="M145.069 97.5025L179.638 112.003L190.875 108.015C227.752 94.9217 274.431 95.2082 308.075 108.734L318.667 112.992L354.315 98.0506C373.92 89.831 391.792 83.0846 394.028 83.0538C399.45 82.9827 407.523 89.5349 408.933 95.1486C410.029 99.52 408.785 104.614 397.573 141.656C387.522 174.862 387.607 173.154 395.353 187.039C413.643 219.823 423.918 258.7 424.276 296.471C424.532 323.253 421.71 336.276 411.993 353.204C393.501 385.417 351.928 407.872 299.572 413.93C277.283 416.509 221.84 416.507 199.508 413.926C159.805 409.337 127.309 395.729 104.364 374.084C82.6877 353.637 74.9104 333.08 75.0008 296.471C75.095 258.977 84.3493 221.675 101.742 188.685L110.524 172.031L106.362 157.805C104.071 149.982 100.031 136.223 97.3825 127.233C88.0783 95.6486 88.0667 95.4486 95.3767 87.3271C97.7268 84.7174 101.5 83 104.887 83C107.973 83 126.057 89.5253 145.069 97.5025Z" fill="#FF7319"/>
<path d="M202.442 241.519L193.347 243.79L186.7 246.292C171.92 251.856 158.217 259.874 146.157 269.982C140.11 275.051 135.032 281.141 130.3 287.455C116.223 306.24 108.733 327.48 108.657 348.83C108.584 369.676 114.878 381.382 132.422 393.025C150.993 405.35 177.294 413.099 209.429 415.712C227.503 417.181 272.377 417.183 290.417 415.714C332.793 412.264 366.44 399.478 381.407 381.135C389.272 371.496 391.555 364.08 391.348 348.83C391.059 327.322 382.742 305.185 367.939 286.517L363.583 282.069C347.314 265.455 327.62 252.584 305.872 244.353L297.299 241.928C270.069 234.226 232.288 234.063 202.442 241.519Z" fill="white"/>
<path d="M356.684 103.645L327.256 116.33L337.397 122.184C347.559 128.052 376.258 154.942 381.551 163.553C384.23 167.915 384.834 166.502 393.726 135.014C407.964 84.6 405.569 82.573 356.684 103.645Z" fill="#77500C"/>
<path d="M99.5345 95.2755C96.719 99.5718 97.1344 101.903 106.221 132.754C111.55 150.845 115.91 166.171 115.91 166.807C115.91 167.444 119.232 163.777 123.291 158.657C133.836 145.362 155.079 126.01 164.282 121.315C168.603 119.109 171.388 116.669 170.468 115.892C166.513 112.547 111.81 90.6926 107.396 90.6926C104.398 90.6926 101.387 92.4484 99.5345 95.2755Z" fill="#77500C"/>
<path d="M190.875 153C190.875 161.497 183.987 168.385 175.49 168.385C166.993 168.385 160.105 161.497 160.105 153C160.105 144.503 166.993 137.615 175.49 137.615C183.987 137.615 190.875 144.503 190.875 153Z" fill="black"/>
<path d="M385.086 233C385.086 241.497 378.197 248.385 369.7 248.385C361.203 248.385 354.315 241.497 354.315 233C354.315 224.503 361.203 217.615 369.7 217.615C378.197 217.615 385.086 224.503 385.086 233Z" fill="black"/>
<path fill-rule="evenodd" clip-rule="evenodd" d="M243.359 271.877C243.573 271.884 243.787 271.892 244 271.904L243.649 283.442C243.436 283.428 243.223 283.417 243.008 283.411C233.453 283.12 225.472 290.63 225.181 300.185C225.141 301.506 225.25 302.798 225.493 304.043L225.035 304.029V321.155H225.047C225.039 321.368 225.035 321.581 225.035 321.796C225.035 331.355 232.785 339.104 242.344 339.104C243.666 339.104 244.953 338.956 246.19 338.676V350.389C244.932 350.557 243.648 350.643 242.344 350.643C232.907 350.643 224.529 346.112 219.266 339.107C214.003 346.112 205.625 350.643 196.188 350.643C194.766 350.643 193.367 350.54 192 350.342V338.594C193.341 338.928 194.744 339.104 196.188 339.104C205.741 339.104 213.486 331.366 213.496 321.816V321.796V321.776C213.496 321.568 213.492 321.361 213.485 321.155H213.496V300H213.643C213.645 299.945 213.646 299.889 213.648 299.834C214.132 283.909 227.434 271.393 243.359 271.877Z" fill="black"/>
<mask id="path-3-inside-1_3095_699" fill="white">
<path fill-rule="evenodd" clip-rule="evenodd" d="M241.05 256.807C234.509 256.807 227.922 260.523 227.922 267.064C227.922 279.455 237.967 289.501 250.359 289.501C262.75 289.501 272.796 279.455 272.796 267.064C272.796 260.523 266.208 256.807 259.667 256.807H241.05Z"/>
</mask>
<path fill-rule="evenodd" clip-rule="evenodd" d="M241.05 256.807C234.509 256.807 227.922 260.523 227.922 267.064C227.922 279.455 237.967 289.501 250.359 289.501C262.75 289.501 272.796 279.455 272.796 267.064C272.796 260.523 266.208 256.807 259.667 256.807H241.05Z" fill="#77500C"/>
<path d="M250.359 278.374C244.113 278.374 239.049 273.31 239.049 267.064H216.795C216.795 285.601 231.822 300.628 250.359 300.628V278.374ZM261.668 267.064C261.668 273.31 256.605 278.374 250.359 278.374V300.628C268.896 300.628 283.923 285.601 283.923 267.064H261.668ZM259.667 245.68H241.05V267.934H259.667V245.68ZM283.923 267.064C283.923 259.557 279.974 253.845 275.118 250.404C270.489 247.124 264.869 245.68 259.667 245.68V267.934C260.268 267.934 260.851 268.022 261.349 268.168C261.854 268.316 262.144 268.485 262.25 268.561C262.349 268.631 262.184 268.54 261.987 268.194C261.764 267.802 261.668 267.37 261.668 267.064H283.923ZM239.049 267.064C239.049 267.37 238.953 267.802 238.731 268.194C238.534 268.54 238.369 268.631 238.467 268.561C238.574 268.485 238.864 268.316 239.369 268.168C239.867 268.022 240.45 267.934 241.05 267.934V245.68C235.849 245.68 230.228 247.124 225.599 250.404C220.744 253.845 216.795 259.557 216.795 267.064H239.049Z" fill="black" mask="url(#path-3-inside-1_3095_699)"/>
</svg>
