<svg width="366" height="441" viewBox="0 0 366 441" fill="none" xmlns="http://www.w3.org/2000/svg">
<path fill-rule="evenodd" clip-rule="evenodd" d="M86.0693 121.503L120.638 136.003L131.875 132.015C168.752 118.922 215.431 119.208 249.075 132.734L259.667 136.992L295.315 122.051C314.92 113.831 332.792 107.085 335.028 107.054C340.45 106.983 348.523 113.535 349.933 119.149C351.029 123.52 349.785 128.614 338.573 165.656C328.522 198.862 328.607 197.154 336.353 211.039C354.643 243.823 364.918 282.7 365.276 320.471C365.532 347.253 362.71 360.276 352.993 377.204C334.501 409.417 292.928 431.872 240.572 437.93C218.283 440.509 162.84 440.507 140.508 437.926C100.805 433.337 68.3088 419.729 45.3636 398.084C23.6877 377.637 15.9104 357.08 16.0008 320.471C16.095 282.977 25.3493 245.675 42.7423 212.685L51.5235 196.031L47.3618 181.805C45.0713 173.982 41.0307 160.223 38.3825 151.233C29.0783 119.649 29.0667 119.449 36.3767 111.327C38.7268 108.717 42.5 107 45.8867 107C48.9734 107 67.0569 113.525 86.0693 121.503Z" fill="#FF7319"/>
<path d="M143.442 265.519L134.347 267.79L127.7 270.292C112.92 275.856 99.2169 283.874 87.157 293.982C81.1099 299.051 76.0323 305.141 71.3005 311.455C57.2231 330.24 49.733 351.48 49.6567 372.83C49.5836 393.676 55.8782 405.382 73.422 417.025C91.9931 429.35 118.294 437.099 150.429 439.712C168.503 441.181 213.377 441.183 231.417 439.714C273.793 436.264 307.44 423.478 322.407 405.135C330.272 395.496 332.555 388.08 332.348 372.83C332.059 351.322 323.742 329.185 308.939 310.517L304.583 306.069C288.314 289.455 268.62 276.584 246.872 268.353L238.299 265.928C211.069 258.227 173.288 258.063 143.442 265.519Z" fill="white"/>
<path d="M297.684 127.645L268.256 140.33L278.397 146.184C288.559 152.052 317.258 178.942 322.551 187.553C325.23 191.915 325.834 190.502 334.726 159.014C348.964 108.6 346.569 106.573 297.684 127.645Z" fill="#77500C"/>
<path d="M40.5345 119.275C37.719 123.572 38.1344 125.903 47.2214 156.754C52.5505 174.845 56.9103 190.171 56.9103 190.807C56.9103 191.444 60.2316 187.777 64.2914 182.657C74.8361 169.362 96.0793 150.01 105.282 145.315C109.603 143.109 112.388 140.669 111.468 139.892C107.513 136.547 52.8101 114.693 48.3964 114.693C45.3982 114.693 42.3866 116.448 40.5345 119.275Z" fill="#77500C"/>
<path d="M171.951 233.657C171.951 242.154 165.063 249.042 156.566 249.042C148.069 249.042 141.181 242.154 141.181 233.657C141.181 225.16 148.069 218.272 156.566 218.272C165.063 218.272 171.951 225.16 171.951 233.657Z" fill="black"/>
<path d="M239.326 235.036C239.326 243.533 232.438 250.422 223.941 250.422C215.444 250.422 208.556 243.533 208.556 235.036C208.556 226.539 215.444 219.651 223.941 219.651C232.438 219.651 239.326 226.539 239.326 235.036Z" fill="black"/>
<path fill-rule="evenodd" clip-rule="evenodd" d="M196.129 294.654H184.59V304.682H184.578C184.586 304.895 184.59 305.108 184.59 305.323C184.59 314.882 176.841 322.632 167.281 322.632C157.722 322.632 149.973 314.882 149.973 305.323C149.973 305.108 149.977 304.895 149.985 304.682H138.441C138.436 304.895 138.434 305.109 138.434 305.323C138.434 321.255 151.35 334.171 167.282 334.171C176.718 334.171 185.096 329.639 190.36 322.634C195.623 329.639 204.001 334.171 213.438 334.171C229.37 334.171 242.285 321.255 242.285 305.323C242.285 305.109 242.283 304.895 242.278 304.682H230.735C230.742 304.895 230.746 305.108 230.746 305.323C230.746 314.882 222.997 322.632 213.438 322.632C203.879 322.632 196.129 314.882 196.129 305.323C196.129 305.108 196.133 304.895 196.141 304.682H196.129V294.654Z" fill="black"/>
<mask id="path-3-inside-1_0_1" fill="white">
<path fill-rule="evenodd" clip-rule="evenodd" d="M181.051 265.807C174.51 265.807 167.922 269.523 167.922 276.064C167.922 288.455 177.968 298.501 190.359 298.501C202.751 298.501 212.796 288.455 212.796 276.064C212.796 269.523 206.209 265.807 199.668 265.807H181.051Z"/>
</mask>
<path fill-rule="evenodd" clip-rule="evenodd" d="M181.051 265.807C174.51 265.807 167.922 269.523 167.922 276.064C167.922 288.455 177.968 298.501 190.359 298.501C202.751 298.501 212.796 288.455 212.796 276.064C212.796 269.523 206.209 265.807 199.668 265.807H181.051Z" fill="#77500C"/>
<path d="M190.359 287.374C184.113 287.374 179.05 282.31 179.05 276.064H156.795C156.795 294.601 171.822 309.628 190.359 309.628V287.374ZM201.669 276.064C201.669 282.31 196.605 287.374 190.359 287.374V309.628C208.896 309.628 223.923 294.601 223.923 276.064H201.669ZM199.668 254.68H181.051V276.934H199.668V254.68ZM223.923 276.064C223.923 268.557 219.974 262.845 215.119 259.404C210.49 256.124 204.869 254.68 199.668 254.68V276.934C200.268 276.934 200.851 277.022 201.349 277.168C201.854 277.316 202.144 277.485 202.251 277.561C202.349 277.631 202.184 277.54 201.987 277.194C201.765 276.802 201.669 276.37 201.669 276.064H223.923ZM179.05 276.064C179.05 276.37 178.954 276.802 178.731 277.194C178.534 277.54 178.369 277.631 178.468 277.561C178.574 277.485 178.864 277.316 179.369 277.168C179.867 277.022 180.45 276.934 181.051 276.934V254.68C175.849 254.68 170.229 256.124 165.6 259.404C160.744 262.845 156.795 268.557 156.795 276.064H179.05Z" fill="black" mask="url(#path-3-inside-1_0_1)"/>
<path fill-rule="evenodd" clip-rule="evenodd" d="M147 0C127.118 0 111 16.1178 111 36V121H95.1257C77.3832 121 63 135.383 63 153.126C63 170.868 77.3832 185.251 95.1257 185.251H286.772C304.515 185.251 318.898 170.868 318.898 153.126C318.898 135.383 304.515 121 286.772 121H271.629V36C271.629 16.1177 255.511 0 235.629 0H147Z" fill="#191919"/>
<circle cx="224.5" cy="234.5" r="36.5" fill="#F0F0F0" fill-opacity="0.49" stroke="#FF9900" stroke-width="6"/>
<rect x="269" y="244" width="6" height="133" rx="3" fill="#C87800"/>
<circle r="12" transform="matrix(-1 0 0 1 272 236)" fill="#FF9900"/>
<rect y="343.603" width="131" height="22.7355" rx="11.3678" fill="#D9D9D9"/>
<path d="M122.339 300.839C122.339 308.303 120.869 315.694 118.012 322.59C115.156 329.486 110.969 335.752 105.691 341.03C100.413 346.308 94.1473 350.495 87.2513 353.351C80.3553 356.208 72.9642 357.678 65.5 357.678C58.0358 357.678 50.6447 356.208 43.7487 353.351C36.8527 350.495 30.5868 346.308 25.3088 341.03C20.0309 335.752 15.8441 329.486 12.9877 322.59C10.1313 315.694 8.66113 308.303 8.66113 300.839L65.5 300.839H122.339Z" fill="#BABABA"/>
</svg>
