<svg version="1.1" xmlns="http://www.w3.org/2000/svg" xmlns:xlink="http://www.w3.org/1999/xlink" width="100.35101" height="100.04222" viewBox="0,0,100.35101,100.04222"><g transform="translate(-269.90888,-129.97889)"><g data-paper-data="{&quot;isPaintingLayer&quot;:true}" fill-rule="nonzero" stroke-linejoin="miter" stroke-miterlimit="10" stroke-dasharray="" stroke-dashoffset="0" style="mix-blend-mode: normal"><path d="M353.73721,189.72611c0,16.72038 -15.11949,22.11596 -33.73722,22.11596c-18.61773,0 -33.73722,-5.3363 -33.73722,-22.11596c0,-7.88585 2.2531,-16.83896 7.05576,-24.19119l-3.97257,-13.28143c-0.7708,-2.54956 1.77876,-4.86196 4.15045,-3.85399l13.10356,5.45488c3.85399,-1.71947 8.3009,-2.72744 13.40002,-2.72744c4.98054,0 9.42745,1.00797 13.28144,2.78673l13.22214,-5.51417c2.37168,-0.94867 4.92125,1.36372 4.15045,3.85399l-4.03186,13.45931c4.80266,7.23364 7.11505,16.18675 7.11505,24.01331z" fill="#cccccc" stroke="none" stroke-width="1" stroke-linecap="butt"/><path d="M346.38497,200.28011c0,8.77524 -11.85842,11.56197 -26.44428,11.56197c-14.58586,0 -26.44428,-2.78673 -26.44428,-11.56197c0,-8.77524 7.88585,-20.15932 26.44428,-20.15932c18.14339,-0.05929 26.44428,11.38409 26.44428,20.15932z" fill="#ffffff" stroke="none" stroke-width="1" stroke-linecap="butt"/><path d="M317.03539,184.09337c0,-1.18584 1.30443,-1.5416 2.96461,-1.5416c1.66018,0 2.96461,0.35575 2.96461,1.5416c0,1.18584 -0.88938,2.66814 -2.96461,2.66814c-2.07523,0 -2.96461,-1.4823 -2.96461,-2.66814z" fill="#949494" stroke="#000000" stroke-width="1.5" stroke-linecap="butt"/><path d="M311.28405,173.95441c0,-1.57182 1.27421,-2.84602 2.84602,-2.84602c1.57182,0 2.84602,1.2742 2.84602,2.84602c0,1.57182 -1.2742,2.84602 -2.84602,2.84602c-1.57182,0 -2.84602,-1.27421 -2.84602,-2.84602z" fill="#000000" stroke="none" stroke-width="1" stroke-linecap="butt"/><path d="M322.9646,173.95441c0,-1.57182 1.27421,-2.84602 2.84602,-2.84602c1.57182,0 2.84602,1.2742 2.84602,2.84602c0,1.57182 -1.2742,2.84602 -2.84602,2.84602c-1.57182,0 -2.84602,-1.27421 -2.84602,-2.84602z" fill="#000000" stroke="none" stroke-width="1" stroke-linecap="butt"/><path d="M299.36633,158.89421c-1.89735,1.71947 -3.49824,3.26106 -4.92125,5.63275l-3.55753,-12.33276c-0.23717,-1.48231 1.12655,-2.72744 2.60886,-2.31239l11.79913,4.92125c-2.66815,1.06726 -4.20974,2.49027 -5.92921,4.09116z" fill="#787878" stroke="none" stroke-width="1" stroke-linecap="butt"/><path d="M334.94161,154.80305l11.79913,-4.92125c1.48231,-0.41504 2.84602,0.83009 2.60885,2.31239l-3.55753,12.33276c-1.42301,-2.37168 -3.0239,-3.91328 -4.92125,-5.63275c-1.71947,-1.60089 -3.26106,-3.0239 -5.92921,-4.09116z" fill="#787878" stroke="none" stroke-width="1" stroke-linecap="butt"/><path d="M314.40001,193.25668c3,0 5.5,-2.5 5.5,-5.5c0,-0.2 0,-0.2 0,-0.2c0,-0.2 0,-0.3 0,-0.3c0,0 0,0.1 0,0.3c0,0 0,0 0,0.2c0,3.1 2.5,5.5 5.5,5.5" fill="none" stroke="#000000" stroke-width="2.5" stroke-linecap="round"/></g></g></svg>