<svg version="1.1" xmlns="http://www.w3.org/2000/svg" xmlns:xlink="http://www.w3.org/1999/xlink" width="100.35101" height="100.04222" viewBox="0,0,100.35101,100.04222"><g transform="translate(-269.90888,-129.97889)"><g data-paper-data="{&quot;isPaintingLayer&quot;:true}" fill-rule="nonzero" stroke-miterlimit="10" stroke-dasharray="" stroke-dashoffset="0" style="mix-blend-mode: normal"><g stroke-width="0.77378" stroke-linecap="round" stroke-linejoin="round"><path d="M350.3304,189.45308c0.05892,0.21027 1.46324,5.34756 -2.08592,10.1053c-2.4041,3.22008 -6.59254,7.33513 -17.2956,8.2585c-5.24069,0.45094 -9.90549,-0.90091 -13.25897,-2.96689c0.04943,0.03046 0.0959,0.06241 0.14586,0.09235l-0.04795,-0.02898c-3.11572,-1.40677 -7.06645,-3.58318 -9.6898,-7.22625c0,0 -1.41181,2.94546 -7.7416,3.06828c-7.99886,0.1578 -11.22797,-4.27633 -11.64147,-7.61878c-0.41996,-3.3904 0.61577,-7.27665 7.3756,-8.42327c5.65916,-0.95738 8.73545,0.75208 9.58641,1.33287l0.06596,0.07538c0.62371,-1.92915 1.66345,-2.81761 1.66345,-2.81761l-0.08539,-0.03046c-2.38209,-0.89387 -5.51634,-2.32169 -9.35167,-4.6029c-8.0288,-4.77671 -7.94942,-13.20301 -5.72861,-16.23283c2.29877,-3.13224 9.10848,-7.06748 18.72838,-1.71043c5.41346,3.01233 8.15311,7.65221 9.51495,11.12948l0.28765,-0.11385c0.37103,-0.21375 0.77557,-0.42448 1.20857,-0.62371l0.05641,-0.09888c-2.10993,-4.95704 -5.29509,-15.14973 3.77344,-15.93627c8.62457,-0.74808 7.88243,9.64436 7.18682,14.063l0.06789,0.01052c1.11415,0.07835 2.24578,0.2417 3.37691,0.50735c-0.02497,-0.05195 -1.31138,-2.75165 0.34058,-6.68438c1.29447,-3.07829 7.09246,-10.45839 11.80224,-6.5371c4.96846,4.13796 2.27128,8.81832 -0.31463,11.68885c-2.2403,2.48549 -4.81718,3.50128 -5.98625,3.9497l0.03298,0.02097c0.28765,0.18077 0.57531,0.36904 0.85941,0.56982c7.90799,5.56526 7.2298,17.08734 7.2298,17.08734l-0.01749,-0.0819c-0.02994,-0.12882 -0.05144,-0.20375 -0.05795,-0.22525zM341.09612,171.39842c0.47792,0.25222 0.94531,0.5249 1.3998,0.81604M332.9749,169.42532c-0.10184,0.55433 -0.21821,1.10569 -0.34555,1.65402M323.29666,173.69112c-0.47546,-0.89891 -0.90143,-1.82479 -1.29744,-2.76113M305.29841,189.70576c-0.05047,-1.10815 0.05292,-2.22675 0.35659,-3.29546M299.10841,184.43015M298.09914,200.60961" fill="#0b304d" stroke="#0b304d"/><path d="M350.3304,186.50352c0.05892,0.21027 1.46324,5.34756 -2.08592,10.1053c-2.4041,3.22008 -6.59254,7.33513 -17.2956,8.2585c-5.24069,0.45094 -9.90549,-0.90091 -13.25897,-2.96689c0.04943,0.03046 0.0959,0.06241 0.14586,0.09235l-0.04795,-0.02898c-3.11572,-1.40677 -7.06645,-3.58318 -9.6898,-7.22625c0,0 -1.41181,2.94546 -7.7416,3.06828c-7.99886,0.1578 -11.22797,-4.27633 -11.64147,-7.61878c-0.41996,-3.3904 0.61577,-7.27665 7.3756,-8.42327c5.65916,-0.95738 8.73545,0.75208 9.58641,1.33287l0.06596,0.07538c0.62371,-1.92915 1.66345,-2.81761 1.66345,-2.81761l-0.08539,-0.03046c-2.38209,-0.89387 -5.51634,-2.32169 -9.35167,-4.6029c-8.0288,-4.77671 -7.94942,-13.20301 -5.72861,-16.23283c2.29877,-3.13224 9.10848,-7.06748 18.72838,-1.71043c5.41346,3.01233 8.15311,7.65221 9.51495,11.12948l0.28765,-0.11385c0.37103,-0.21375 0.77557,-0.42448 1.20857,-0.62371l0.05641,-0.09888c-2.10993,-4.95704 -5.29509,-15.14973 3.77344,-15.93627c8.62457,-0.74808 7.88243,9.64436 7.18682,14.063l0.06789,0.01052c1.11415,0.07835 2.24578,0.2417 3.37691,0.50735c-0.02497,-0.05195 -1.31138,-2.75165 0.34058,-6.68438c1.29447,-3.07829 7.09246,-10.45839 11.80224,-6.5371c4.96846,4.13796 2.27128,8.81832 -0.31463,11.68885c-2.2403,2.48549 -4.81718,3.50128 -5.98625,3.9497l0.03298,0.02097c0.28765,0.18077 0.57531,0.36904 0.85941,0.56982c7.90799,5.56526 7.2298,17.08734 7.2298,17.08734l-0.01749,-0.0819c-0.02994,-0.12882 -0.05144,-0.20375 -0.05795,-0.22525zM341.09612,168.44886c0.47792,0.25222 0.94531,0.5249 1.3998,0.81604M332.9749,166.47576c-0.10184,0.55433 -0.21821,1.10569 -0.34555,1.65402M323.29666,170.74158c-0.47546,-0.89891 -0.90143,-1.82479 -1.29744,-2.76113M305.29841,186.75619c-0.05047,-1.10815 0.05292,-2.22675 0.35659,-3.29546M299.10841,181.48059M298.09914,197.66004" fill="#1b75bb" stroke="#1b75bb"/></g></g></g></svg>