<svg version="1.1" xmlns="http://www.w3.org/2000/svg" xmlns:xlink="http://www.w3.org/1999/xlink" width="100.65306" height="100.04222" viewBox="0,0,100.65306,100.04222"><g transform="translate(-269.42349,-129.97889)"><g data-paper-data="{&quot;isPaintingLayer&quot;:true}" fill-rule="nonzero" stroke-linejoin="miter" stroke-miterlimit="10" stroke-dasharray="" stroke-dashoffset="0" style="mix-blend-mode: normal"><path d="M362.89912,211.28503c0,0 0.25,-1.4996 0.25,-2.2831c0,-0.83118 -0.25,-2.56939 -0.25,-2.56939h3.96122c0,0 0,1.73822 0,2.56939c0,0.7835 0,2.2831 0,2.2831z" fill="#ffffff" stroke="none" stroke-width="0" stroke-linecap="butt"/><path d="M358.43415,191.11532c0,19.10828 -17.22465,25.27425 -38.43415,25.27425c-21.20976,0 -38.43415,-6.09845 -38.43415,-25.27425c0,-9.01224 2.56678,-19.24397 8.03804,-27.64621l-4.52563,-15.17821c-0.87811,-2.91366 2.02642,-5.55629 4.72829,-4.40437l14.92783,6.2339c4.39053,-1.96504 9.45653,-3.11694 15.26561,-3.11694c5.67377,0 10.7398,1.1519 15.13056,3.18473l15.06266,-6.30169c2.70183,-1.08415 5.60625,1.55848 4.7284,4.40441l-4.59334,15.38146c5.47157,8.2667 8.10587,18.49858 8.10587,27.44291z" fill="#ff7319" stroke="none" stroke-width="1" stroke-linecap="butt"/><path d="M350.05817,203.17641c0,10.02852 -13.50916,13.21317 -30.1257,13.21317c-16.61661,0 -30.12591,-3.18465 -30.12591,-13.21317c0,-10.02852 8.98368,-23.03835 30.12591,-23.03835c20.66928,-0.06775 30.1257,13.00984 30.1257,23.03835z" fill="#ffffff" stroke="none" stroke-width="1" stroke-linecap="butt"/><path d="M316.62259,184.67812c0,-1.35542 1.48601,-1.76208 3.37741,-1.76208c1.89113,0 3.3771,0.40666 3.3771,1.76208c0,1.35504 -1.01291,3.04885 -3.3771,3.04885c-2.3642,0 -3.37741,-1.6938 -3.37741,-3.04885z" fill="#945600" stroke="#000000" stroke-width="1.5" stroke-linecap="butt"/><path d="M314.19091,194.77417c3.17467,0 5.74156,-2.50712 5.74156,-5.69178c0,-0.13543 0,-0.13543 0,-0.13543c0,-0.20333 0,-0.33876 0,-0.33876c0,0 0,0.13543 0,0.33876c0,0 0,0 0,0.13543c0,3.11675 2.56678,5.69178 5.7413,5.69178" fill="none" stroke="#000000" stroke-width="2.5" stroke-linecap="round"/><path d="M310.07056,173.091c0,-1.7963 1.4516,-3.25244 3.24223,-3.25244c1.79067,0 3.24224,1.45614 3.24224,3.25244c0,1.79633 -1.45157,3.25248 -3.24224,3.25248c-1.79063,0 -3.24223,-1.45618 -3.24223,-3.25248z" fill="#000000" stroke="none" stroke-width="1" stroke-linecap="butt"/><path d="M323.3771,173.091c0,-1.7963 1.45183,-3.25244 3.24242,-3.25244c1.79059,0 3.24204,1.45614 3.24204,3.25244c0,1.79633 -1.45146,3.25248 -3.24204,3.25248c-1.79059,0 -3.24242,-1.45618 -3.24242,-3.25248z" fill="#000000" stroke="none" stroke-width="1" stroke-linecap="butt"/><path d="M296.49364,155.88001c-2.1615,1.96504 -3.98526,3.72678 -5.60636,6.43721l-4.05282,-14.09406c-0.27018,-1.69401 1.28339,-3.11696 2.97209,-2.64264l13.44178,5.62406c-3.03962,1.21969 -4.79585,2.84593 -6.7547,4.67546z" fill="#77500c" stroke="none" stroke-width="1" stroke-linecap="butt"/><path d="M337.02169,151.20458l13.44164,-5.62406c1.68893,-0.47431 3.24242,0.94865 2.97231,2.64263l-4.05275,14.09406c-1.6214,-2.71039 -3.44501,-4.47217 -5.60662,-6.43721c-1.95866,-1.8295 -3.71512,-3.45574 -6.75458,-4.67543z" fill="#77500c" stroke="none" stroke-width="1" stroke-linecap="butt"/><path d="M317.3832,175.2804c0.40211,0.24127 0.16084,0.64338 0.16084,0.64338l-0.22679,0.37695c-0.50636,0.75752 -1.1937,1.82513 -2.14453,2.05836c-1.91572,0.46991 -4.35662,-0.04282 -5.73912,-1.41394c0,0 -0.33159,-0.33159 0,-0.66318c0.33159,-0.33159 0.66318,0 0.66318,0c1.179,1.19075 3.23043,1.4988 4.86046,1.16434c0.659,-0.13522 1.24386,-1.16065 1.57965,-1.66581l0.20293,-0.33924c0,0 0.24126,-0.40212 0.64338,-0.16084z" fill="#cc5b14" stroke="none" stroke-width="0.5" stroke-linecap="butt"/><path d="M309.21441,178.39772c-0.33159,0.33159 -0.66318,0 -0.66318,0l-0.07176,-0.08464c-0.40118,-0.26853 -0.80741,-0.47128 -1.23873,-0.68694c0,0 -0.41943,-0.20972 -0.20971,-0.62915c0.20971,-0.41943 0.62914,-0.20972 0.62914,-0.20972c0.46584,0.23292 0.90502,0.4568 1.33954,0.74544l0.21471,0.20183c0,0 0.33159,0.33159 0,0.66318z" fill="#cc5b14" stroke="none" stroke-width="0.5" stroke-linecap="butt"/><path d="M319.64545,175.9943c0.28136,0.37515 -0.09379,0.65651 -0.09379,0.65651l-0.11694,-0.03147c-0.08364,0.28212 -0.12825,0.5796 -0.1252,0.87384c0,0 0,0.46894 -0.46894,0.46894c-0.46894,0 -0.46894,-0.46894 -0.46894,-0.46894c0.00305,-0.38096 0.05946,-0.76437 0.16128,-1.13149l0.45601,-0.46118c0,0 0.37515,-0.28136 0.65651,0.09379z" fill="#cc5b14" stroke="none" stroke-width="0.5" stroke-linecap="butt"/><path d="M323.74702,175.52653l0.20293,0.33924c0.33578,0.50516 0.92064,1.53059 1.57965,1.66581c1.63004,0.33447 3.68146,0.02643 4.86046,-1.16433c0,0 0.33159,-0.33159 0.66318,0c0.33159,0.33159 0,0.66318 0,0.66318c-1.38249,1.37112 -3.82341,1.88385 -5.73912,1.41394c-0.95084,-0.23323 -1.63816,-1.30084 -2.14453,-2.05836l-0.22679,-0.37695c0,0 -0.24126,-0.40211 0.16084,-0.64338c0.40211,-0.24127 0.64338,0.16085 0.64338,0.16085z" data-paper-data="{&quot;index&quot;:null}" fill="#cc5b14" stroke="none" stroke-width="0.5" stroke-linecap="butt"/><path d="M331.27243,177.81982l0.21471,-0.20183c0.43453,-0.28864 0.8737,-0.51251 1.33954,-0.74544c0,0 0.41943,-0.20972 0.62915,0.20971c0.20971,0.41943 -0.20971,0.62915 -0.20971,0.62915c-0.43133,0.21566 -0.83755,0.41841 -1.23873,0.68694l-0.07176,0.08465c0,0 -0.33159,0.33159 -0.66318,0c-0.33159,-0.33159 0,-0.66318 0,-0.66318z" data-paper-data="{&quot;index&quot;:null}" fill="#cc5b14" stroke="none" stroke-width="0.5" stroke-linecap="butt"/><path d="M321.49791,175.98579l0.45601,0.46118c0.10182,0.36712 0.15823,0.75052 0.16128,1.13149c0,0 -0.00001,0.46894 -0.46894,0.46894c-0.46894,0 -0.46894,-0.46894 -0.46894,-0.46894c0.00306,-0.29423 -0.04155,-0.59172 -0.1252,-0.87384l-0.11694,0.03147c0,0 -0.37515,-0.28136 -0.09379,-0.65651c0.28136,-0.37515 0.65651,-0.09379 0.65651,-0.09379z" data-paper-data="{&quot;index&quot;:null}" fill="#cc5b14" stroke="none" stroke-width="0.5" stroke-linecap="butt"/><path d="M327.76329,153.26034c0,0.46894 -0.46894,0.46894 -0.46894,0.46894c-1.79047,0 -4.08227,0 -5.87273,0c-3.60922,0 -7.26302,-0.08582 -10.75723,0.913c0,0 -0.45089,0.12883 -0.57972,-0.32207c-0.12883,-0.45089 0.32207,-0.57973 0.32207,-0.57973c3.58067,-1.02257 7.3166,-0.94908 11.01488,-0.94908c1.79047,0 3.58093,0 5.3714,0h0.50133c0,0 0.46894,0 0.46894,0.46894z" fill="#cc5b14" stroke="none" stroke-width="0.5" stroke-linecap="butt"/><path d="M328.12138,156.41156c0,0.46894 -0.46894,0.46894 -0.46894,0.46894h-0.21485c-2.10827,0 -4.18761,0.35657 -6.30245,0.35809c-3.83673,-0.0036 -8.02948,-0.27839 -11.78698,0.56178c0,0 -0.45777,0.10173 -0.5595,-0.35605c-0.10173,-0.45777 0.35605,-0.5595 0.35605,-0.5595c3.83743,-0.84791 8.07359,-0.5807 11.99043,-0.58412c2.1144,0.00161 4.19345,-0.35809 6.30245,-0.35809h0.21485c0,0 0.46894,0 0.46894,0.46894z" fill="#cc5b14" stroke="none" stroke-width="0.5" stroke-linecap="butt"/><path d="M330.32137,159.92088c0,0.46894 -0.46894,0.46894 -0.46894,0.46894c-2.74083,0 -5.98299,0 -8.72382,0c-1.70554,0 -3.45758,-0.11401 -5.15911,0.01169c-1.10684,0.08177 -2.17046,0.48929 -3.27233,0.56008c-1.77466,0.11401 -3.57958,-0.15466 -5.34649,0.06917c0,0 -0.46531,0.05817 -0.52348,-0.40715c-0.05817,-0.46532 0.40715,-0.52348 0.40715,-0.52348c1.78633,-0.22058 3.60316,0.03441 5.39633,-0.07406c1.09799,-0.06642 2.16487,-0.47764 3.26944,-0.55988c1.72454,-0.12839 3.49984,-0.01425 5.22848,-0.01425c2.74083,0 5.48166,0 8.22249,0h0.50134c0,0 0.46894,0.00001 0.46894,0.46894z" fill="#cc5b14" stroke="none" stroke-width="0.5" stroke-linecap="butt"/><path d="M313.83474,197.74213c-0.33159,0.33159 -0.66317,0 -0.66317,0l-0.07162,-0.07161c-0.39756,-0.39829 -0.63855,-0.83478 -0.96907,-1.26052c-0.4515,-0.58156 -0.85567,-0.36737 -1.26733,-1.08154c0,0 -0.20972,-0.41943 0.20971,-0.62915c0.41943,-0.20971 0.62915,0.20972 0.62915,0.20972c0.15539,0.4561 0.7864,0.48691 1.1677,0.92379c0.32522,0.37263 0.52358,0.80581 0.89302,1.17452l0.07161,0.07162c0,0 0.33159,0.33159 0,0.66318z" fill="#cccccc" stroke="none" stroke-width="0.5" stroke-linecap="butt"/><path d="M326.65665,197.59394l0.07161,-0.07162c0.36944,-0.36871 0.56779,-0.80189 0.89301,-1.17452c0.3813,-0.43688 1.01232,-0.46768 1.16771,-0.92378c0,0 0.20971,-0.41943 0.62914,-0.20972c0.41943,0.20971 0.20971,0.62914 0.20971,0.62914c-0.41165,0.71417 -0.81583,0.49998 -1.26733,1.08154c-0.33052,0.42574 -0.57151,0.86223 -0.96907,1.26052l-0.07162,0.07162c0,0 -0.33158,0.33159 -0.66317,0c-0.33159,-0.33159 0,-0.66318 0,-0.66318z" data-paper-data="{&quot;index&quot;:null}" fill="#cccccc" stroke="none" stroke-width="0.5" stroke-linecap="butt"/><path d="M317.51901,188.36344c0.4354,0.17416 0.26124,0.60956 0.26124,0.60956l-0.15921,0.39365c-0.57037,1.13569 -1.36412,2.08727 -2.71123,2.12131c0,0 -0.46894,-0.00001 -0.46894,-0.46894c0,-0.46894 0.46894,-0.46894 0.46894,-0.46894c0.94049,0.03878 1.49472,-0.84376 1.87237,-1.60287l0.12727,-0.32254c0,0 0.17416,-0.4354 0.60955,-0.26124z" fill="#cccccc" stroke="none" stroke-width="0.5" stroke-linecap="butt"/><path d="M324.94633,190.6664c-0.07709,0.46255 -0.53965,0.38546 -0.53965,0.38546l-0.53734,-0.10315c-1.07157,-0.4597 -1.2474,-1.08697 -2.00895,-1.81828c0,0 -0.33159,-0.33158 0,-0.66318c0.33159,-0.33159 0.66318,0 0.66318,0c0.6997,0.71988 0.74961,1.20602 1.71522,1.61942l0.32208,0.04009c0,0 0.46255,0.07709 0.38546,0.53965z" fill="#cccccc" stroke="none" stroke-width="0.5" stroke-linecap="butt"/><path d="M286.81127,213.6449c0,0 -5.31093,-42.88228 8.26532,-43.20144c10.78484,-0.25354 10.48765,16.1694 5.45887,15.95618c-1.67556,-0.07105 -3.045,-1.62991 -3.045,-2.59094c0,-1.2053 0.39353,-5.9944 -2.62299,-5.9944c-3.3951,0 -1.90911,35.88856 -1.90911,35.88856z" data-paper-data="{&quot;index&quot;:null}" fill="#99440f" stroke="#000000" stroke-width="0" stroke-linecap="round"/></g></g></svg>