<svg width="368" height="442" viewBox="0 0 368 442" fill="none" xmlns="http://www.w3.org/2000/svg">
<path fill-rule="evenodd" clip-rule="evenodd" d="M88.0693 122.503L122.638 137.003L133.875 133.015C170.752 119.922 217.431 120.208 251.075 133.734L261.667 137.992L297.315 123.051C316.92 114.831 334.792 108.085 337.028 108.054C342.45 107.983 350.523 114.535 351.933 120.149C353.029 124.52 351.785 129.614 340.573 166.656C330.522 199.862 330.607 198.154 338.353 212.039C356.643 244.823 366.918 283.7 367.276 321.471C367.532 348.253 364.71 361.276 354.993 378.204C336.501 410.417 294.928 432.872 242.572 438.93C220.283 441.509 164.84 441.507 142.508 438.926C102.805 434.337 70.3089 420.729 47.3636 399.084C25.6877 378.637 17.9104 358.08 18.0008 321.471C18.095 283.977 27.3493 246.675 44.7423 213.685L53.5235 197.031L49.3618 182.805C47.0713 174.982 43.0307 161.223 40.3825 152.233C31.0783 120.649 31.0667 120.449 38.3767 112.327C40.7268 109.717 44.5 108 47.8867 108C50.9734 108 69.0569 114.525 88.0693 122.503Z" fill="#FF7319"/>
<path d="M145.442 266.519L136.347 268.79L129.7 271.292C114.92 276.856 101.217 284.874 89.157 294.982C83.1099 300.051 78.0323 306.141 73.3005 312.455V312.455C59.2231 331.24 51.733 352.48 51.6567 373.83C51.5836 394.676 57.8782 406.382 75.422 418.025C93.9931 430.35 120.294 438.099 152.429 440.712C170.503 442.181 215.377 442.183 233.417 440.714C275.793 437.264 309.44 424.478 324.407 406.135C332.272 396.496 334.555 389.08 334.348 373.83C334.059 352.322 325.742 330.185 310.939 311.517L306.583 307.069C290.314 290.455 270.62 277.584 248.872 269.353L240.299 266.928C213.069 259.226 175.288 259.063 145.442 266.519Z" fill="white"/>
<path d="M299.684 128.645L270.256 141.33L280.397 147.184C290.559 153.052 319.258 179.942 324.551 188.553C327.23 192.915 327.834 191.502 336.726 160.014C350.964 109.6 348.569 107.573 299.684 128.645Z" fill="#77500C"/>
<path d="M42.5345 120.275C39.719 124.572 40.1344 126.903 49.2214 157.754C54.5505 175.845 58.9103 191.171 58.9103 191.807C58.9103 192.444 62.2316 188.777 66.2914 183.657C76.8361 170.362 98.0793 151.01 107.282 146.315C111.603 144.109 114.388 141.669 113.468 140.892C109.513 137.547 54.8101 115.693 50.3964 115.693C47.3982 115.693 44.3866 117.448 42.5345 120.275Z" fill="#77500C"/>
<path d="M173.951 234.657C173.951 243.154 167.063 250.042 158.566 250.042C150.069 250.042 143.181 243.154 143.181 234.657C143.181 226.16 150.069 219.272 158.566 219.272C167.063 219.272 173.951 226.16 173.951 234.657Z" fill="black"/>
<path d="M241.326 236.036C241.326 244.533 234.438 251.422 225.941 251.422C217.444 251.422 210.556 244.533 210.556 236.036C210.556 227.539 217.444 220.651 225.941 220.651C234.438 220.651 241.326 227.539 241.326 236.036Z" fill="black"/>
<path fill-rule="evenodd" clip-rule="evenodd" d="M198.129 295.654H186.59V305.682H186.578C186.586 305.891 186.59 306.102 186.59 306.314V306.323V306.332C186.585 315.887 178.838 323.631 169.281 323.631C159.722 323.631 151.973 315.882 151.973 306.323C151.973 306.108 151.977 305.894 151.985 305.682H140.441C140.436 305.895 140.434 306.109 140.434 306.323C140.434 322.255 153.35 335.17 169.282 335.17C178.718 335.17 187.096 330.639 192.359 323.634C197.622 330.639 206.001 335.17 215.437 335.17C231.369 335.17 244.285 322.255 244.285 306.323C244.285 306.109 244.282 305.895 244.278 305.682H232.734C232.742 305.894 232.746 306.108 232.746 306.323C232.746 315.882 224.997 323.631 215.437 323.631C205.881 323.631 198.134 315.887 198.129 306.332V306.323V306.314C198.129 306.102 198.133 305.891 198.141 305.682H198.129V295.654Z" fill="black"/>
<mask id="path-3-inside-1_3800_34" fill="white">
<path fill-rule="evenodd" clip-rule="evenodd" d="M183.05 266.808C176.509 266.808 169.922 270.523 169.922 277.064V277.064C169.922 289.456 179.967 299.501 192.359 299.501C204.75 299.501 214.796 289.456 214.796 277.064V277.064C214.796 270.523 208.208 266.808 201.667 266.808H183.05Z"/>
</mask>
<path fill-rule="evenodd" clip-rule="evenodd" d="M183.05 266.808C176.509 266.808 169.922 270.523 169.922 277.064V277.064C169.922 289.456 179.967 299.501 192.359 299.501C204.75 299.501 214.796 289.456 214.796 277.064V277.064C214.796 270.523 208.208 266.808 201.667 266.808H183.05Z" fill="#77500C"/>
<path d="M192.359 288.374C186.113 288.374 181.049 283.311 181.049 277.064H158.795C158.795 295.601 173.822 310.629 192.359 310.629V288.374ZM203.668 277.064C203.668 283.311 198.605 288.374 192.359 288.374V310.629C210.896 310.629 225.923 295.601 225.923 277.064H203.668ZM201.667 255.68H183.05V277.935H201.667V255.68ZM225.923 277.064C225.923 269.558 221.974 263.846 217.118 260.405C212.489 257.124 206.869 255.68 201.667 255.68V277.935C202.267 277.935 202.851 278.022 203.349 278.168C203.854 278.316 204.144 278.486 204.25 278.562C204.349 278.631 204.184 278.541 203.987 278.195C203.764 277.802 203.668 277.371 203.668 277.064H225.923ZM181.049 277.064C181.049 277.371 180.953 277.802 180.731 278.195C180.534 278.541 180.369 278.631 180.467 278.562C180.574 278.486 180.864 278.316 181.369 278.168C181.867 278.022 182.45 277.935 183.05 277.935V255.68C177.849 255.68 172.228 257.124 167.599 260.405C162.744 263.846 158.795 269.558 158.795 277.064H181.049Z" fill="black" mask="url(#path-3-inside-1_3800_34)"/>
<path d="M245 69L191.5 125.5L142 69L92.5 130L292 135.5L245 69Z" fill="#FFC700"/>
<path d="M91 70.5L145 101L193.5 52.5L240 101L294 70.5V162C294 162 236.188 142.302 193.5 142C150.093 141.693 91 162 91 162V70.5Z" fill="#FFF500"/>
</svg>
