<svg version="1.1" xmlns="http://www.w3.org/2000/svg" xmlns:xlink="http://www.w3.org/1999/xlink" width="22.68629" height="21.43416" viewBox="0,0,22.68629,21.43416"><g transform="translate(-308.65686,-168.93511)"><g data-paper-data="{&quot;isPaintingLayer&quot;:true}" fill-rule="nonzero" stroke="#ffffff" stroke-linejoin="miter" stroke-miterlimit="10" stroke-dasharray="" stroke-dashoffset="0" style="mix-blend-mode: normal"><g><path d="M319.13047,184.10421c0,-0.34781 0.3826,-0.46955 0.86954,-0.46955c0.48694,0 0.86954,0.10434 0.86954,0.46955c0,0.3652 -0.27825,0.78258 -0.86954,0.78258c-0.59128,0 -0.86954,-0.43477 -0.86954,-0.78258z" fill="#ffffff" stroke-width="0.5" stroke-linecap="butt"/><path d="M322.48687,185.07809c0,0.67824 -0.57389,1.25213 -1.25213,1.25213c-0.67824,0 -1.25213,-0.53911 -1.25213,-1.25213c0,-0.05217 0,-0.05217 0,-0.05217c0,-0.05217 0,-0.06956 0,-0.06956c0,0 0,0.01739 0,0.06956c0,0 0,0 0,0.05217c0,0.67824 -0.57389,1.25213 -1.25213,1.25213c-0.67824,0 -1.25213,-0.53911 -1.25213,-1.25213" fill="none" stroke-width="1" stroke-linecap="round"/><path d="M317.77398,181.80863c0,-0.46955 0.3826,-0.85214 0.85214,-0.85214c0.46955,0 0.85214,0.3826 0.85214,0.85214c0,0.46955 -0.3826,0.85214 -0.85214,0.85214c-0.46955,0 -0.85214,-0.3826 -0.85214,-0.85214z" fill="#ffffff" stroke-width="0" stroke-linecap="butt"/><path d="M320.53911,181.80863c0,-0.46955 0.3826,-0.85214 0.85214,-0.85214c0.46955,0 0.85214,0.3826 0.85214,0.85214c0,0.46955 -0.3826,0.85214 -0.85214,0.85214c-0.46955,0 -0.85214,-0.3826 -0.85214,-0.85214z" fill="#ffffff" stroke-width="0" stroke-linecap="butt"/><path d="M310.15686,188.86926v0.69563v-19.12979h0.76519l9.04317,8.12147h0.06956l9.04317,-8.12147h0.76519v19.12979v-0.69563" fill="none" stroke-width="3" stroke-linecap="round"/></g></g></g></svg>