<svg version="1.1" xmlns="http://www.w3.org/2000/svg" xmlns:xlink="http://www.w3.org/1999/xlink" width="125.17341" height="28.95844" viewBox="0,0,125.17341,28.95844"><g transform="translate(-256.9133,-165.02078)"><g data-paper-data="{&quot;isPaintingLayer&quot;:true}" fill-rule="nonzero" stroke="#f9a637" stroke-linejoin="miter" stroke-miterlimit="10" stroke-dasharray="" stroke-dashoffset="0" style="mix-blend-mode: normal"><path d="M270.80027,185.38929c0,-0.48012 0.52812,-0.64816 1.20029,-0.64816c0.67216,0 1.20029,0.14404 1.20029,0.64816c0,0.50412 -0.38409,1.08026 -1.20029,1.08026c-0.81619,0 -1.20029,-0.60014 -1.20029,-1.08026z" fill="#f9a637" stroke-width="0.5" stroke-linecap="butt"/><path d="M275.43336,186.73361c0,0.93623 -0.79219,1.72841 -1.72841,1.72841c-0.93622,0 -1.72841,-0.74417 -1.72841,-1.72841c0,-0.07201 0,-0.07202 0,-0.07202c0,-0.07201 0,-0.09602 0,-0.09602c0,0 0,0.024 0,0.09602c0,0 0,0.00001 0,0.07202c0,0.93623 -0.79219,1.72841 -1.72842,1.72841c-0.93622,0 -1.72841,-0.74417 -1.72841,-1.72841" fill="none" stroke-width="1" stroke-linecap="round"/><path d="M268.9278,182.22053c0,-0.64816 0.52813,-1.17628 1.17628,-1.17628c0.64815,0 1.17628,0.52812 1.17628,1.17628c0,0.64816 -0.52813,1.17628 -1.17628,1.17628c-0.64815,0 -1.17628,-0.52812 -1.17628,-1.17628z" fill="#f9a637" stroke-width="0" stroke-linecap="butt"/><path d="M272.74473,182.22053c0,-0.64816 0.52813,-1.17628 1.17629,-1.17628c0.64815,0 1.17628,0.52812 1.17628,1.17628c0,0.64816 -0.52813,1.17628 -1.17628,1.17628c-0.64815,0 -1.17629,-0.52812 -1.17629,-1.17628z" fill="#f9a637" stroke-width="0" stroke-linecap="butt"/><path d="M258.4133,191.96686v0.96023v-26.40631h1.05625l12.48299,11.21068h0.09602l12.48298,-11.21068h1.05626v26.40631v-0.96023" fill="none" stroke-width="3" stroke-linecap="round"/><g fill="#f9a637" stroke-width="1" stroke-linecap="butt"><path d="M305.51256,183.80491h0.024v1.39233c0,0.19205 -0.07202,0.36008 -0.21605,0.48012c-0.14403,0.12003 -0.28807,0.19205 -0.45611,0.19205h-10.85059c0.12003,1.82443 0.62414,3.14475 1.53636,3.93694c0.91222,0.76818 2.32855,1.15228 4.24901,1.15228c1.15227,0 2.20853,-0.33608 3.16876,-1.00824c0.33608,-0.26406 0.62414,-0.24006 0.88821,0.07202c0.14403,0.14404 0.4081,0.4321 0.79219,0.8642c0.12003,0.14404 0.16804,0.31208 0.16804,0.52813c-0.024,0.19205 -0.09602,0.36008 -0.26407,0.48011c-1.41634,1.05625 -3.00072,1.56038 -4.75313,1.56038c-2.54461,0 -4.48907,-0.57614 -5.85739,-1.75242c-1.63239,-1.39233 -2.47259,-3.7689 -2.47259,-7.05769v-0.024c0,-3.24078 0.67216,-5.54532 1.99247,-6.91365c1.17628,-1.2483 2.83267,-1.84844 5.0172,-1.84844c2.18452,0 3.86492,0.62416 5.0412,1.84844c1.2483,1.22429 1.89645,3.26478 1.99248,6.09745zM293.98982,183.80491h9.07416c-0.07202,-2.1125 -0.50412,-3.60086 -1.32031,-4.41706c-0.67216,-0.74418 -1.72841,-1.10426 -3.21677,-1.10426c-1.46435,0 -2.56862,0.36008 -3.24078,1.10426c-0.8402,0.8402 -1.2483,2.30455 -1.29631,4.41706z"/><path d="M323.46886,184.21301c0,0.12003 -0.02401,0.26406 -0.02401,0.4321c0.024,0.16804 0.02401,0.31207 0.02401,0.4321c0,1.53636 -0.16804,2.88069 -0.50412,4.00896c-0.33608,1.12827 -0.86421,2.01648 -1.60838,2.71264c-1.15227,1.08026 -2.73666,1.6324 -4.82516,1.68041h-0.07201c-2.0645,-0.04801 -3.67288,-0.60014 -4.77714,-1.68041c-1.39233,-1.32031 -2.1125,-3.55285 -2.1125,-6.7216c0,-0.12003 0,-0.26406 0,-0.4321c0,-0.16804 0,-0.31207 0,-0.4321c0,-3.16876 0.69617,-5.40129 2.1125,-6.72161c1.12827,-1.08026 2.71265,-1.63239 4.77714,-1.6804h0.07201c2.0645,0.04801 3.67288,0.60014 4.82516,1.6804c1.39233,1.32031 2.1125,3.55285 2.1125,6.72161zM320.97226,185.05321c0,-0.14404 0,-0.26406 0,-0.38409v-0.07201c0,-0.16804 0,-0.28807 0,-0.3841c0,-1.22429 -0.09602,-2.20853 -0.26406,-3.00072c-0.16804,-0.79219 -0.52813,-1.41634 -1.05626,-1.92046c-0.67216,-0.62415 -1.70441,-0.96023 -3.14475,-1.00824c-1.41634,0.04801 -2.47259,0.38409 -3.14475,1.00824c-0.50412,0.50412 -0.8402,1.15228 -1.00824,1.92046c-0.16804,0.79219 -0.26407,1.77643 -0.26407,3.00072c0,0.12003 0,0.24006 0,0.3841v0.07201c0,0.14404 0,0.26406 0,0.38409c0,1.22429 0.09602,2.20853 0.26407,3.00072c0.16804,0.79219 0.52812,1.41634 1.00824,1.92046c0.67216,0.62415 1.70441,0.93623 3.14475,0.96023c1.41634,-0.024 2.47259,-0.33608 3.14475,-0.96023c0.52812,-0.50412 0.86421,-1.15227 1.05626,-1.92046c0.19205,-0.76818 0.26406,-1.77643 0.26406,-3.00072z"/><path d="M350.69136,176.50717c0.14403,0.19205 0.16804,0.3841 0.09602,0.60015c-1.10426,3.26478 -2.83268,8.42601 -5.20925,15.48369c-0.09602,0.31207 -0.31207,0.45611 -0.64815,0.45611h-1.63238c-0.31207,0 -0.52813,-0.14404 -0.64816,-0.45611l-3.96095,-11.85883l-3.96095,11.85883c-0.09602,0.31207 -0.31207,0.45611 -0.64815,0.45611h-1.63239c-0.31207,0 -0.52813,-0.14404 -0.64816,-0.45611c-0.26407,-0.8402 -1.12826,-3.40882 -2.56861,-7.70584c-1.44034,-4.29702 -2.32855,-6.88965 -2.61662,-7.77785c-0.07202,-0.21605 -0.04801,-0.4081 0.09602,-0.60015c0.12003,-0.19205 0.31208,-0.28807 0.55213,-0.28807h1.17628c0.33608,0 0.55213,0.14404 0.64815,0.45611l4.177,12.45897c2.28055,-6.76961 3.67288,-10.92261 4.177,-12.45897c0.09602,-0.31207 0.31208,-0.45611 0.64816,-0.45611h1.22429c0.33608,0 0.55213,0.14404 0.67216,0.45611l4.12899,12.45897c2.28055,-6.76961 3.67287,-10.92261 4.17699,-12.45897c0.12003,-0.31207 0.33608,-0.45611 0.64816,-0.45611h1.22429c0.21605,0 0.3841,0.09602 0.52813,0.28807z"/><path d="M367.90347,183.80491v0l0.024,1.39233c0,0.19205 -0.07202,0.36008 -0.21605,0.48012c-0.14403,0.12003 -0.28806,0.19205 -0.4561,0.19205h-10.85059c0.12003,1.82443 0.62415,3.14475 1.53637,3.93694c0.91222,0.76818 2.32855,1.15228 4.24901,1.15228c1.15227,0 2.20853,-0.33608 3.16876,-1.00824c0.33608,-0.26406 0.62414,-0.24006 0.88821,0.07202c0.14403,0.14404 0.4081,0.4321 0.79219,0.8642c0.12003,0.14404 0.16804,0.31208 0.16804,0.52813c-0.024,0.19205 -0.09602,0.36008 -0.26406,0.48011c-1.41634,1.05625 -3.00072,1.56038 -4.75314,1.56038c-2.54461,0 -4.48907,-0.57614 -5.8574,-1.75242c-1.63239,-1.39233 -2.47259,-3.7689 -2.47259,-7.05769v-0.024c0,-3.24078 0.67216,-5.54532 1.99247,-6.91365c1.17628,-1.2483 2.83268,-1.84844 5.0172,-1.84844c2.18452,0 3.86492,0.62416 5.0412,1.84844c1.22429,1.22429 1.89646,3.26478 1.99248,6.09745zM356.35671,183.80491h9.07416c-0.07202,-2.1125 -0.50412,-3.60086 -1.32031,-4.41706c-0.67216,-0.74418 -1.72841,-1.10426 -3.21677,-1.10426c-1.46435,0 -2.56861,0.36008 -3.24077,1.10426c-0.81619,0.8402 -1.2483,2.30455 -1.29631,4.41706z"/><path d="M380.98658,175.85901c0.16804,0.024 0.31207,0.09602 0.4321,0.21605c0.12003,0.12003 0.16804,0.26406 0.16804,0.45611v1.22429c0,0.24006 -0.09602,0.4321 -0.26407,0.55213c-0.16804,0.12003 -0.38409,0.16804 -0.60014,0.12003c-0.21605,-0.07201 -0.43211,-0.09602 -0.67216,-0.09602c-0.76819,-0.024 -1.51236,0.24006 -2.23253,0.79219c-0.72017,0.55213 -1.34432,1.15228 -1.84844,1.82443c-0.45611,0.60014 -0.79219,1.2483 -1.03225,1.96847v9.45826c0,0.19205 -0.07202,0.36008 -0.21605,0.48012c-0.14403,0.12003 -0.28807,0.19204 -0.45611,0.19204h-1.15227c-0.19205,0 -0.36009,-0.07201 -0.48012,-0.19204c-0.12003,-0.12003 -0.19205,-0.28807 -0.19205,-0.48012v-15.4837c0,-0.19205 0.07202,-0.36008 0.19205,-0.48011c0.12003,-0.12003 0.28807,-0.19205 0.48012,-0.19205h1.15227c0.19205,0 0.36009,0.07202 0.48012,0.19205c0.12003,0.12003 0.19205,0.28807 0.19205,0.48011v2.13651c0.07202,-0.14404 0.12003,-0.24006 0.16804,-0.28807c1.48836,-1.99248 3.31279,-2.97671 5.4253,-2.9287c0.19205,0 0.33607,0.02401 0.4561,0.04801z"/></g></g></g></svg>