<?xml version="1.0" encoding="UTF-8" standalone="no"?>
<svg
   width="1293"
   height="192"
   viewBox="0 0 1292.9999 192"
   fill="none"
   version="1.1"
   id="svg312"
   sodipodi:docname="logo.svg"
   inkscape:version="1.2.2 (b0a8486541, 2022-12-01)"
   xmlns:inkscape="http://www.inkscape.org/namespaces/inkscape"
   xmlns:sodipodi="http://sodipodi.sourceforge.net/DTD/sodipodi-0.dtd"
   xmlns="http://www.w3.org/2000/svg"
   xmlns:svg="http://www.w3.org/2000/svg">
  <sodipodi:namedview
     id="namedview314"
     pagecolor="#ffffff"
     bordercolor="#000000"
     borderopacity="0.25"
     inkscape:showpageshadow="2"
     inkscape:pageopacity="0.0"
     inkscape:pagecheckerboard="0"
     inkscape:deskcolor="#d1d1d1"
     showgrid="false"
     inkscape:zoom="0.5"
     inkscape:cx="598"
     inkscape:cy="114"
     inkscape:window-width="1366"
     inkscape:window-height="653"
     inkscape:window-x="0"
     inkscape:window-y="0"
     inkscape:window-maximized="1"
     inkscape:current-layer="layer1"
     showguides="false" />
  <defs
     id="defs310">
    <clipPath
       id="clip0_1588_2">
      <rect
         width="720"
         height="192"
         fill="#ffffff"
         id="rect307"
         x="0"
         y="0" />
    </clipPath>
  </defs>
  <g
     inkscape:groupmode="layer"
     id="layer1"
     inkscape:label="Layer 1">
    <path
       d="m 879.5307,139.0465 v 4.22 8.018 c 0,0.985 -0.352,1.829 -1.055,2.532 -0.563,0.703 -1.336,1.055 -2.321,1.055 h -55.70395 c 0.844,4.923 2.743,8.581 5.697,10.972 3.657,3.235 9.847,4.853 18.568,4.853 5.486,0 10.47995,-1.407 14.98095,-4.22 1.688,-1.125 3.165,-0.914 4.431,0.633 1.407,1.547 5.064,5.697 10.972,12.449 0.703,0.703 0.985,1.547 0.844,2.532 0,0.985 -0.422,1.829 -1.266,2.532 -8.862,6.33 -18.849,9.495 -29.96195,9.495 -14.489,0 -25.742,-3.517 -33.76,-10.55 -9.706,-8.159 -14.559,-21.592 -14.559,-40.301 v -0.211 c 0,-18.146 3.939,-31.369 11.816,-39.668 7.033,-7.4552 16.95,-11.1829 29.751,-11.1829 12.801,0 22.71795,3.7277 29.75095,11.1829 7.315,7.596 11.253,19.482 11.816,35.659 z m -59.71295,0 h 36.29195 c -0.141,-9.425 -1.899,-15.895 -5.27495,-19.412 -2.532,-2.673 -6.822,-4.009 -12.871,-4.009 -6.049,0 -10.339,1.336 -12.871,4.009 -3.376,3.517 -5.134,9.987 -5.275,19.412 z m 155.27095,1.899 c 0,0 0,0.774 0,2.321 0,1.407 0,2.11 0,2.11 0,17.865 -4.1489,30.736 -12.449,38.613 -6.892,6.471 -16.387,9.847 -28.4849,10.128 h -0.4221 c -12.0969,-0.281 -21.592,-3.657 -28.4849,-10.128 -8.299,-7.877 -12.449,-20.748 -12.449,-38.613 0,-0.844 0,-1.547 0,-2.11 0,-0.703 0,-1.477 0,-2.321 0,-17.865 4.15,-30.736 12.449,-38.613 6.893,-6.4706 16.388,-9.8466 28.4849,-10.1279 h 0.4221 c 12.0979,0.2813 21.593,3.6573 28.4849,10.1279 8.3,7.877 12.449,20.748 12.449,38.613 z m -23.421,4.431 c 0,-0.563 0,-1.196 0,-1.899 v -0.633 c 0,-1.266 0,-1.899 0,-1.899 0,-5.627 -0.351,-10.128 -1.055,-13.504 -0.562,-3.376 -1.899,-6.049 -4.009,-8.018 -2.532,-2.391 -6.752,-3.657 -12.66,-3.798 -5.908,0.141 -10.128,1.407 -12.66,3.798 -2.11,1.969 -3.516,4.642 -4.22,8.018 -0.562,3.376 -0.844,7.877 -0.844,13.504 0,0.703 0,1.336 0,1.899 v 0.633 c 0,0.563 0,1.196 0,1.899 0,2.251 0,4.079 0,5.486 0,1.407 0.071,3.024 0.211,4.853 0.282,1.688 0.563,3.165 0.844,4.431 0.422,1.266 0.915,2.532 1.477,3.798 0.704,1.125 1.548,2.11 2.532,2.954 2.532,2.391 6.752,3.657 12.66,3.798 5.908,-0.141 10.128,-1.407 12.66,-3.798 1.407,-1.407 2.532,-3.306 3.376,-5.697 0.844,-2.391 1.337,-4.642 1.477,-6.752 0.1411,-2.251 0.211,-5.275 0.211,-9.073 z m 170.2571,-51.0619 c 1.1259,0 2.0399,0.4923 2.7429,1.477 0.704,0.9847 0.915,2.0397 0.633,3.165 -1.969,6.3299 -6.892,22.1549 -14.77,47.4749 -7.736,25.32 -12.0969,39.668 -13.082,43.044 -0.562,1.688 -1.688,2.532 -3.376,2.532 h -19.201 c -1.828,0 -2.954,-0.844 -3.376,-2.532 l -17.0909,-55.282 c -9.002,29.54 -14.629,47.967 -16.8801,55.282 -0.5619,1.688 -1.688,2.532 -3.376,2.532 h -19.412 c -1.688,0 -2.743,-0.844 -3.165,-2.532 -1.125,-3.376 -3.6569,-11.464 -7.596,-24.265 -3.938,-12.941 -7.9469,-26.023 -12.027,-39.246 -4.079,-13.223 -6.8219,-22.225 -8.229,-27.0079 -0.422,-1.1253 -0.281,-2.1803 0.422,-3.165 0.704,-0.9847 1.688,-1.477 2.954,-1.477 h 17.091 c 1.688,0 2.814,0.844 3.376,2.532 l 16.88,55.2819 c 9.144,-29.54 14.841,-47.967 17.091,-55.2819 0.422,-1.688 1.548,-2.532 3.376,-2.532 h 19.201 c 1.688,0 2.814,0.844 3.376,2.532 l 16.88,55.2819 c 9.144,-29.54 14.841,-47.967 17.091,-55.2819 0.422,-1.688 1.548,-2.532 3.376,-2.532 z m 94.794,44.7319 v 4.22 8.018 c 0,0.985 -0.352,1.829 -1.055,2.532 -0.5631,0.703 -1.336,1.055 -2.321,1.055 h -55.704 c 0.844,4.923 2.743,8.581 5.697,10.972 3.6569,3.235 9.847,4.853 18.568,4.853 5.486,0 10.48,-1.407 14.981,-4.22 1.688,-1.125 3.165,-0.914 4.431,0.633 1.407,1.547 5.064,5.697 10.972,12.449 0.703,0.703 0.9849,1.547 0.844,2.532 0,0.985 -0.422,1.829 -1.266,2.532 -8.8621,6.33 -18.849,9.495 -29.962,9.495 -14.489,0 -25.742,-3.517 -33.76,-10.55 -9.706,-8.159 -14.559,-21.592 -14.559,-40.301 v -0.211 c 0,-18.146 3.939,-31.369 11.816,-39.668 7.033,-7.4552 16.95,-11.1829 29.751,-11.1829 12.801,0 22.718,3.7277 29.751,11.1829 7.315,7.596 11.2529,19.482 11.816,35.659 z m -59.713,0 h 36.292 c -0.1411,-9.425 -1.899,-15.895 -5.2751,-19.412 -2.5319,-2.673 -6.8219,-4.009 -12.871,-4.009 -6.049,0 -10.339,1.336 -12.871,4.009 -3.376,3.517 -5.134,9.987 -5.2749,19.412 z m 131.85,-46.8419 c 0.844,0.1407 1.547,0.4923 2.1099,1.055 0.703,0.5627 1.0551,1.266 1.0551,2.11 v 22.1549 c 0,1.266 -0.492,2.251 -1.4771,2.954 -0.9849,0.703 -2.04,0.844 -3.165,0.422 -3.2349,-1.125 -6.049,-1.688 -8.44,-1.688 -3.2349,-0.141 -6.26,0.422 -9.073,1.688 -2.673,1.125 -4.923,2.673 -6.752,4.642 -1.688,1.969 -3.024,3.728 -4.009,5.275 -0.985,1.407 -1.758,2.884 -2.321,4.431 v 53.172 c 0,0.985 -0.352,1.829 -1.055,2.532 -0.703,0.703 -1.547,1.055 -2.532,1.055 h -16.247 c -0.985,0 -1.829,-0.352 -2.532,-1.055 -0.703,-0.703 -1.055,-1.547 -1.055,-2.532 V 97.9016 c 0,-0.9847 0.352,-1.8287 1.055,-2.532 0.703,-0.7033 1.547,-1.055 2.532,-1.055 h 16.247 c 0.985,0 1.829,0.3517 2.532,1.055 0.703,0.7033 1.055,1.5473 1.055,2.532 v 7.3849 c 9.003,-9.0026 19.693,-13.3632 32.0721,-13.0819 z"
       fill="#f9a535"
       id="path299"
       style="fill:#57e389" />
    <path
       fill-rule="evenodd"
       clip-rule="evenodd"
       d="m 572.29175,6.5075 c 0,-2.20914 1.79086,-4 4,-4 h 8.5 7.0624 3.2565 c 0.9867,0 1.9385,0.36468 2.6726,1.02395 l 2.4229,2.17588 72.7606,65.34297 c 1.52,1.3652 3.825,1.3652 5.345,0 l 72.761,-65.34296 2.423,-2.1759 c 0.734,-0.65926 1.686,-1.02394 2.672,-1.02394 h 3.257 7.062 8.5 c 2.209,0 4,1.79086 4,4 v 8.5 166.134 8.5 c 0,2.21 -1.791,4 -4,4 h -17 c -2.209,0 -4,-1.79 -4,-4 v -8.5 V 45.66 c 0,-3.461 -4.097,-5.2886 -6.672,-2.976 l -63.002,56.5791 -2.423,2.1759 c -0.734,0.6595 -1.686,1.0235 -2.673,1.0235 h -3.256 -0.642 -3.257 c -0.9866,0 -1.9385,-0.364 -2.6726,-1.0235 l -2.4229,-2.1759 -63.0018,-56.5791 c -2.5751,-2.3126 -6.6727,-0.485 -6.6727,2.9761 v 135.4814 8.5 c 0,2.21 -1.7909,4 -4,4 h -17 c -2.20914,0 -4,-1.79 -4,-4 v -8.5 -166.134 z"
       fill="#f9a535"
       id="path301"
       style="fill:#57e389" />
    <path
       fill-rule="evenodd"
       clip-rule="evenodd"
       d="m 655.09445,119.9775 c 0,-4.334 3.5312,-7.865 7.8649,-7.865 4.3337,0 7.8649,3.531 7.8649,7.865 0,4.333 -3.5312,7.864 -7.8649,7.864 -4.3337,0 -7.8649,-3.531 -7.8649,-7.864 z m 20.5453,16.853 c -4.4946,0 -8.0257,1.123 -8.0257,4.333 0,2.624 1.7152,5.783 5.3207,6.85 -0.455,4.499 -4.4236,8.195 -9.0127,8.195 -4.9247,0 -9.0566,-3.902 -9.0566,-9.056 0,-1.381 -1.1193,-2.5 -2.5,-2.5 -1.3807,0 -2.5,1.119 -2.5,2.5 0,8.006 6.4617,14.056 14.0566,14.056 4.7033,0 8.9427,-2.431 11.5067,-6.083 2.561,3.723 6.863,6.083 11.606,6.083 7.641,0 14.057,-6.416 14.057,-14.056 0,-1.381 -1.119,-2.5 -2.5,-2.5 -1.381,0 -2.5,1.119 -2.5,2.5 0,4.878 -4.177,9.056 -9.057,9.056 -4.614,0 -8.532,-3.425 -9.008,-8.097 3.822,-0.939 5.638,-4.114 5.638,-6.948 0,-3.37 -3.531,-4.333 -8.025,-4.333 z m 12.84,-24.718 c -4.334,0 -7.865,3.531 -7.865,7.865 0,4.333 3.531,7.864 7.865,7.864 4.334,0 7.865,-3.531 7.865,-7.864 0,-4.334 -3.531,-7.865 -7.865,-7.865 z"
       fill="#f9a535"
       id="path303"
       style="fill:#57e389" />
    <path
       id="text586"
       style="font-size:209.333px;fill:#57e389"
       d="m 5.9355469,60.427734 c -0.9768863,0 -1.8139428,0.349099 -2.5117188,1.046875 -0.6977759,0.558221 -1.046875,1.325848 -1.046875,2.302735 V 187.07422 c 0,0.97689 0.3490991,1.81394 1.046875,2.51172 0.697776,0.69777 1.5348325,1.04687 2.5117188,1.04687 H 53.873047 c 11.30397,0 21.003455,-3.97699 29.097656,-11.93164 8.094201,-8.0942 12.140625,-17.86311 12.140625,-29.30664 0,-5.02399 -1.047297,-9.49089 -3.140625,-13.39844 -1.953773,-4.0471 -4.185272,-7.11565 -6.697265,-9.20898 -2.372439,-2.23288 -5.163278,-4.11724 -8.373047,-5.65234 -3.070215,-1.67467 -5.234238,-2.65253 -6.490235,-2.93165 -1.255996,-0.41866 -2.231911,-0.69638 -2.929687,-0.83593 l 1.882812,-0.21094 c 1.395552,-0.13956 3.071618,-0.62751 5.025391,-1.46484 1.953773,-0.97689 3.905602,-2.16305 5.859375,-3.5586 1.953773,-1.39555 3.560409,-3.48819 4.816406,-6.27929 1.395552,-2.93066 2.091797,-6.28084 2.091797,-10.048832 0,-6.419539 -1.604684,-12.350317 -4.814453,-17.792969 C 79.271583,72.569066 75.014918,68.312402 69.572266,65.242188 64.129613,62.032418 58.198836,60.427734 51.779297,60.427734 Z M 232.43359,63.357422 c -0.83733,0.139555 -1.60495,0.560036 -2.30273,1.257812 -0.69778,0.558221 -1.04688,1.325848 -1.04688,2.302735 v 25.537109 h -6.48828 c -0.69777,0 -1.32654,0.140812 -1.88476,0.419922 -0.55822,0.27911 -0.97675,0.697639 -1.25586,1.255859 -0.27911,0.558221 -0.41797,1.115608 -0.41797,1.673829 v 16.328122 c 0,0.97689 0.3491,1.81395 1.04687,2.51172 0.69778,0.55822 1.53484,0.83789 2.51172,0.83789 h 6.48828 v 43.33203 c 0,11.02486 2.65199,19.46681 7.95508,25.32813 5.02399,5.72176 11.93263,8.58398 20.72461,8.58398 8.79198,0 17.58302,-2.44174 26.375,-7.32617 0.83733,-0.55822 1.32724,-1.32585 1.4668,-2.30273 0.27911,-0.97689 0.1383,-1.88533 -0.41992,-2.72266 -4.74488,-6.69865 -7.95425,-11.23303 -9.62891,-13.60547 -1.11644,-1.53511 -2.51284,-1.95363 -4.1875,-1.25586 -0.41866,0.13956 -1.60482,0.62751 -3.55859,1.46485 -1.81422,0.69777 -3.27809,1.25516 -4.39453,1.67382 -2.65155,0.97689 -5.16468,0.69917 -7.53711,-0.83593 -2.37244,-1.67467 -3.5586,-3.90812 -3.5586,-6.69922 v -45.42578 h 27.00391 c 0.97689,0 1.74451,-0.3491 2.30273,-1.04688 0.69778,-0.69777 1.04688,-1.53483 1.04688,-2.51172 V 95.804688 c 0,-0.976887 -0.3491,-1.744514 -1.04688,-2.302735 -0.69777,-0.697776 -1.4654,-1.046875 -2.30273,-1.046875 H 252.32031 V 66.917969 66.707031 66.498047 c -0.13955,-0.558221 -0.34784,-1.046178 -0.62695,-1.464844 v -0.208984 h -0.21094 v -0.208985 h -0.20898 c 0,-0.139555 -0.0694,-0.280366 -0.20899,-0.419922 h -0.20898 v -0.208984 c -0.55822,-0.27911 -1.18699,-0.489351 -1.88477,-0.628906 h -0.20898 z m 86.2461,0 c -0.83733,0.139555 -1.60496,0.560036 -2.30274,1.257812 -0.69777,0.558221 -1.04687,1.325848 -1.04687,2.302735 v 25.537109 h -6.49024 c -0.69777,0 -1.32459,0.140812 -1.88281,0.419922 -0.55822,0.27911 -0.97675,0.697639 -1.25586,1.255859 -0.27911,0.558221 -0.41992,1.115608 -0.41992,1.673829 v 16.328122 c 0,0.97689 0.3491,1.81395 1.04687,2.51172 0.69778,0.55822 1.53484,0.83789 2.51172,0.83789 h 6.49024 v 43.33203 c 0,11.02486 2.65198,19.46681 7.95508,25.32813 5.02398,5.72176 11.93068,8.58398 20.72265,8.58398 8.79198,0 17.58498,-2.44174 26.37696,-7.32617 0.83733,-0.55822 1.32528,-1.32585 1.46484,-2.30273 0.27911,-0.97689 0.14025,-1.88533 -0.41797,-2.72266 -4.74488,-6.69865 -7.95424,-11.23303 -9.62891,-13.60547 -1.11644,-1.53511 -2.51283,-1.95363 -4.1875,-1.25586 -0.41866,0.13956 -1.60482,0.62751 -3.55859,1.46485 -1.81422,0.69777 -3.28004,1.25516 -4.39648,1.67382 -2.65155,0.97689 -5.16272,0.69917 -7.53516,-0.83593 -2.37244,-1.67467 -3.55859,-3.90812 -3.55859,-6.69922 v -45.42578 h 27.0039 c 0.97689,0 1.74452,-0.3491 2.30274,-1.04688 0.69777,-0.69777 1.04687,-1.53483 1.04687,-2.51172 V 95.804688 c 0,-0.976887 -0.3491,-1.744514 -1.04687,-2.302735 -0.69778,-0.697776 -1.46541,-1.046875 -2.30274,-1.046875 h -27.0039 V 66.917969 66.707031 66.498047 c -0.13956,-0.558221 -0.3498,-1.046178 -0.62891,-1.464844 v -0.208984 h -0.20898 v -0.208985 h -0.20899 c 0,-0.139555 -0.0694,-0.280366 -0.20898,-0.419922 h -0.20899 v -0.208984 c -0.55822,-0.27911 -1.18699,-0.489351 -1.88476,-0.628906 h -0.20899 z M 25.613281,83.455078 h 26.166016 c 3.349324,0 6.211546,1.255585 8.583984,3.767578 2.511994,2.372438 3.767578,5.232707 3.767578,8.582032 0,3.349322 -1.255584,6.280972 -3.767578,8.792972 -2.372438,2.37243 -5.23466,3.55859 -8.583984,3.55859 H 25.613281 Z m 132.716799,8.164063 c -12.69952,0 -22.53787,3.697325 -29.51563,11.093749 -7.81509,8.23376 -11.72265,21.35285 -11.72265,39.35547 v 0.20898 c 0,18.56084 4.81405,31.88822 14.44336,39.98243 7.95464,6.97776 19.11995,10.46679 33.49414,10.46679 11.02486,0 20.93263,-3.13994 29.72461,-9.41992 0.83733,-0.69778 1.25586,-1.53483 1.25586,-2.51172 0.13955,-0.97688 -0.13817,-1.81589 -0.83594,-2.51367 -5.86132,-6.69865 -9.49117,-10.8145 -10.88672,-12.34961 -1.256,-1.53511 -2.71987,-1.74535 -4.39453,-0.62891 -4.46577,2.79111 -9.42063,4.1875 -14.86328,4.1875 -8.65242,0 -14.79344,-1.60468 -18.42188,-4.81445 -2.93066,-2.37244 -4.81501,-6.00033 -5.65234,-10.88476 h 55.26367 c 0.97689,0 1.74451,-0.3491 2.30273,-1.04688 0.69778,-0.69778 1.04688,-1.53483 1.04688,-2.51172 v -7.95508 -4.1875 C 199.01014,122.041 195.10257,110.24887 187.8457,102.71289 180.86794,95.316466 171.0296,91.619141 158.33008,91.619141 Z m 274.85351,0 c -12.69952,0 -22.53786,3.697325 -29.51562,11.093749 -7.81509,8.23376 -11.72266,21.35285 -11.72266,39.35547 v 0.20898 c 0,18.56084 4.81601,31.88822 14.44531,39.98243 7.95465,6.97776 19.11801,10.46679 33.49219,10.46679 11.02486,0 20.93459,-3.13994 29.72657,-9.41992 0.83733,-0.69778 1.25585,-1.53483 1.25585,-2.51172 0.13956,-0.97688 -0.14011,-1.81589 -0.83789,-2.51367 -5.86131,-6.69865 -9.48921,-10.8145 -10.88476,-12.34961 -1.256,-1.53511 -2.72182,-1.74535 -4.39649,-0.62891 -4.46576,2.79111 -9.42063,4.1875 -14.86328,4.1875 -8.65242,0 -14.79344,-1.60468 -18.42187,-4.81445 -2.93066,-2.37244 -4.81306,-6.00033 -5.65039,-10.88476 h 55.26367 c 0.97689,0 1.74451,-0.3491 2.30273,-1.04688 0.69778,-0.69778 1.04688,-1.53483 1.04688,-2.51172 v -7.95508 -4.1875 C 473.86561,122.041 469.95804,110.24887 462.70117,102.71289 455.72341,95.316466 445.88312,91.619141 433.18359,91.619141 Z m 121.01563,0 c -11.31705,0.27802 -21.1638,4.605204 -29.53711,12.978519 v -7.328129 c 0,-0.976886 -0.3491,-1.813943 -1.04688,-2.511719 -0.69777,-0.697775 -1.53483,-1.046874 -2.51171,-1.046874 h -16.11719 c -0.97689,0 -1.8159,0.349099 -2.51367,1.046874 -0.69778,0.697776 -1.04493,1.534833 -1.04493,2.511719 v 89.804689 c 0,0.97689 0.34715,1.81394 1.04493,2.51172 0.69777,0.69777 1.53678,1.04687 2.51367,1.04687 h 16.11719 c 0.97688,0 1.81394,-0.3491 2.51171,-1.04687 0.69778,-0.69778 1.04688,-1.53483 1.04688,-2.51172 v -52.75195 c 0.55822,-1.53511 1.32585,-3.00094 2.30273,-4.39649 0.97689,-1.53511 2.30386,-3.27865 3.97852,-5.23242 1.81422,-1.95377 4.04572,-3.48903 6.69726,-4.60547 2.79111,-1.256 5.79219,-1.81534 9.00196,-1.67578 2.37244,0 5.16328,0.55934 8.37304,1.67578 1.11645,0.41867 2.16374,0.27785 3.14063,-0.41992 0.97689,-0.69778 1.46484,-1.67369 1.46484,-2.92969 V 94.757812 c 0,-0.837331 -0.3491,-1.535529 -1.04687,-2.09375 -0.55822,-0.55822 -1.25447,-0.905366 -2.0918,-1.044921 -0.76755,-0.01744 -1.52873,-0.01853 -2.2832,0 z M 158.33008,114.85352 c 6.00087,0 10.25754,1.32696 12.76953,3.97851 3.34932,3.48888 5.09287,9.90762 5.23242,19.25781 h -36.00391 c 0.13956,-9.35019 1.8831,-15.76893 5.23243,-19.25781 2.51199,-2.65155 6.76866,-3.97851 12.76953,-3.97851 z m 274.85351,0 c 6.00088,0 10.25754,1.32696 12.76953,3.97851 3.34933,3.48888 5.09482,9.90762 5.23438,19.25781 h -36.00586 c 0.13956,-9.35019 1.88505,-15.76893 5.23438,-19.25781 2.51199,-2.65155 6.7667,-3.97851 12.76757,-3.97851 z m -407.570309,16.5371 h 28.259766 c 3.209769,0 6.210849,0.83901 9.001953,2.51368 2.791104,1.5351 4.953174,3.69717 6.488281,6.48828 1.674663,2.7911 2.511719,5.79218 2.511719,9.00195 0,5.02399 -1.743542,9.28065 -5.232422,12.76953 -3.48888,3.48888 -7.745544,5.23242 -12.769531,5.23242 H 25.613281 Z" />
  </g>
</svg>
