<svg width="720" height="192" viewBox="0 0 720 192" fill="none" xmlns="http://www.w3.org/2000/svg">
<g clip-path="url(#clip0_1588_2)">
<path d="M307.739 137.039V141.259V149.277C307.739 150.262 307.387 151.106 306.684 151.809C306.121 152.512 305.348 152.864 304.363 152.864H248.659C249.503 157.787 251.402 161.445 254.356 163.836C258.013 167.071 264.203 168.689 272.924 168.689C278.41 168.689 283.404 167.282 287.905 164.469C289.593 163.344 291.07 163.555 292.336 165.102C293.743 166.649 297.4 170.799 303.308 177.551C304.011 178.254 304.293 179.098 304.152 180.083C304.152 181.068 303.73 181.912 302.886 182.615C294.024 188.945 284.037 192.11 272.924 192.11C258.435 192.11 247.182 188.593 239.164 181.56C229.458 173.401 224.605 159.968 224.605 141.259V141.048C224.605 122.902 228.544 109.679 236.421 101.38C243.454 93.9248 253.371 90.1971 266.172 90.1971C278.973 90.1971 288.89 93.9248 295.923 101.38C303.238 108.976 307.176 120.862 307.739 137.039ZM248.026 137.039H284.318C284.177 127.614 282.419 121.144 279.043 117.627C276.511 114.954 272.221 113.618 266.172 113.618C260.123 113.618 255.833 114.954 253.301 117.627C249.925 121.144 248.167 127.614 248.026 137.039ZM403.297 138.938C403.297 138.938 403.297 139.712 403.297 141.259C403.297 142.666 403.297 143.369 403.297 143.369C403.297 161.234 399.148 174.105 390.848 181.982C383.956 188.453 374.461 191.829 362.363 192.11H361.941C349.844 191.829 340.349 188.453 333.456 181.982C325.157 174.105 321.007 161.234 321.007 143.369C321.007 142.525 321.007 141.822 321.007 141.259C321.007 140.556 321.007 139.782 321.007 138.938C321.007 121.073 325.157 108.202 333.456 100.325C340.349 93.8544 349.844 90.4784 361.941 90.1971H362.363C374.461 90.4784 383.956 93.8544 390.848 100.325C399.148 108.202 403.297 121.073 403.297 138.938ZM379.876 143.369C379.876 142.806 379.876 142.173 379.876 141.47V140.837C379.876 139.571 379.876 138.938 379.876 138.938C379.876 133.311 379.525 128.81 378.821 125.434C378.259 122.058 376.922 119.385 374.812 117.416C372.28 115.025 368.06 113.759 362.152 113.618C356.244 113.759 352.024 115.025 349.492 117.416C347.382 119.385 345.976 122.058 345.272 125.434C344.71 128.81 344.428 133.311 344.428 138.938C344.428 139.641 344.428 140.274 344.428 140.837V141.47C344.428 142.033 344.428 142.666 344.428 143.369C344.428 145.62 344.428 147.448 344.428 148.855C344.428 150.262 344.499 151.879 344.639 153.708C344.921 155.396 345.202 156.873 345.483 158.139C345.905 159.405 346.398 160.671 346.96 161.937C347.664 163.062 348.508 164.047 349.492 164.891C352.024 167.282 356.244 168.548 362.152 168.689C368.06 168.548 372.28 167.282 374.812 164.891C376.219 163.484 377.344 161.585 378.188 159.194C379.032 156.803 379.525 154.552 379.665 152.442C379.806 150.191 379.876 147.167 379.876 143.369ZM550.133 92.3071C551.259 92.3071 552.173 92.7994 552.876 93.7841C553.58 94.7688 553.791 95.8238 553.509 96.9491C551.54 103.279 546.617 119.104 538.739 144.424C531.003 169.744 526.642 184.092 525.657 187.468C525.095 189.156 523.969 190 522.281 190H503.08C501.252 190 500.126 189.156 499.704 187.468L482.613 132.186C473.611 161.726 467.984 180.153 465.733 187.468C465.171 189.156 464.045 190 462.357 190H442.945C441.257 190 440.202 189.156 439.78 187.468C438.655 184.092 436.123 176.004 432.184 163.203C428.246 150.262 424.237 137.18 420.157 123.957C416.078 110.734 413.335 101.732 411.928 96.9491C411.506 95.8238 411.647 94.7688 412.35 93.7841C413.054 92.7994 414.038 92.3071 415.304 92.3071H432.395C434.083 92.3071 435.209 93.1511 435.771 94.8391L452.651 150.121C461.795 120.581 467.492 102.154 469.742 94.8391C470.164 93.1511 471.29 92.3071 473.118 92.3071H492.319C494.007 92.3071 495.133 93.1511 495.695 94.8391L512.575 150.121C521.719 120.581 527.416 102.154 529.666 94.8391C530.088 93.1511 531.214 92.3071 533.042 92.3071H550.133ZM644.927 137.039V141.259V149.277C644.927 150.262 644.575 151.106 643.872 151.809C643.309 152.512 642.536 152.864 641.551 152.864H585.847C586.691 157.787 588.59 161.445 591.544 163.836C595.201 167.071 601.391 168.689 610.112 168.689C615.598 168.689 620.592 167.282 625.093 164.469C626.781 163.344 628.258 163.555 629.524 165.102C630.931 166.649 634.588 170.799 640.496 177.551C641.199 178.254 641.481 179.098 641.34 180.083C641.34 181.068 640.918 181.912 640.074 182.615C631.212 188.945 621.225 192.11 610.112 192.11C595.623 192.11 584.37 188.593 576.352 181.56C566.646 173.401 561.793 159.968 561.793 141.259V141.048C561.793 122.902 565.732 109.679 573.609 101.38C580.642 93.9248 590.559 90.1971 603.36 90.1971C616.161 90.1971 626.078 93.9248 633.111 101.38C640.426 108.976 644.364 120.862 644.927 137.039ZM585.214 137.039H621.506C621.365 127.614 619.607 121.144 616.231 117.627C613.699 114.954 609.409 113.618 603.36 113.618C597.311 113.618 593.021 114.954 590.489 117.627C587.113 121.144 585.355 127.614 585.214 137.039ZM717.064 90.1971C717.908 90.3378 718.611 90.6894 719.174 91.2521C719.877 91.8148 720.229 92.5181 720.229 93.3621V115.517C720.229 116.783 719.737 117.768 718.752 118.471C717.767 119.174 716.712 119.315 715.587 118.893C712.352 117.768 709.538 117.205 707.147 117.205C703.912 117.064 700.887 117.627 698.074 118.893C695.401 120.018 693.151 121.566 691.322 123.535C689.634 125.504 688.298 127.263 687.313 128.81C686.328 130.217 685.555 131.694 684.992 133.241V186.413C684.992 187.398 684.64 188.242 683.937 188.945C683.234 189.648 682.39 190 681.405 190H665.158C664.173 190 663.329 189.648 662.626 188.945C661.923 188.242 661.571 187.398 661.571 186.413V95.8941C661.571 94.9094 661.923 94.0654 662.626 93.3621C663.329 92.6588 664.173 92.3071 665.158 92.3071H681.405C682.39 92.3071 683.234 92.6588 683.937 93.3621C684.64 94.0654 684.992 94.9094 684.992 95.8941V103.279C693.995 94.2764 704.685 89.9158 717.064 90.1971Z" fill="#F9A535"/>
<path fill-rule="evenodd" clip-rule="evenodd" d="M0.5 4.5C0.5 2.29086 2.29086 0.5 4.5 0.5H13H20.0624H23.3189C24.3056 0.5 25.2574 0.86468 25.9915 1.52395L28.4144 3.69983L101.175 69.0428C102.695 70.408 105 70.408 106.52 69.0428L179.281 3.69984L181.704 1.52394C182.438 0.864679 183.39 0.5 184.376 0.5H187.633H194.695H203.195C205.404 0.5 207.195 2.29086 207.195 4.5V13V179.134V187.634C207.195 189.844 205.404 191.634 203.195 191.634H186.195C183.986 191.634 182.195 189.844 182.195 187.634V179.134V43.6525C182.195 40.1915 178.098 38.3639 175.523 40.6765L112.521 97.2556L110.098 99.4315C109.364 100.091 108.412 100.455 107.425 100.455H104.169H103.527H100.27C99.2834 100.455 98.3315 100.091 97.5974 99.4315L95.1745 97.2556L32.1727 40.6765C29.5976 38.3639 25.5 40.1915 25.5 43.6526V179.134V187.634C25.5 189.844 23.7091 191.634 21.5 191.634H4.5C2.29086 191.634 0.5 189.844 0.5 187.634V179.134V13V4.5Z" fill="#F9A535"/>
<path fill-rule="evenodd" clip-rule="evenodd" d="M83.3027 117.97C83.3027 113.636 86.8339 110.105 91.1676 110.105C95.5013 110.105 99.0325 113.636 99.0325 117.97C99.0325 122.303 95.5013 125.834 91.1676 125.834C86.8339 125.834 83.3027 122.303 83.3027 117.97ZM103.848 134.823C99.3534 134.823 95.8223 135.946 95.8223 139.156C95.8223 141.78 97.5375 144.939 101.143 146.006C100.688 150.505 96.7194 154.201 92.1303 154.201C87.2056 154.201 83.0737 150.299 83.0737 145.145C83.0737 143.764 81.9544 142.645 80.5737 142.645C79.193 142.645 78.0737 143.764 78.0737 145.145C78.0737 153.151 84.5354 159.201 92.1303 159.201C96.8336 159.201 101.073 156.77 103.637 153.118C106.198 156.841 110.5 159.201 115.243 159.201C122.884 159.201 129.3 152.785 129.3 145.145C129.3 143.764 128.181 142.645 126.8 142.645C125.419 142.645 124.3 143.764 124.3 145.145C124.3 150.023 120.123 154.201 115.243 154.201C110.629 154.201 106.711 150.776 106.235 146.104C110.057 145.165 111.873 141.99 111.873 139.156C111.873 135.786 108.342 134.823 103.848 134.823ZM116.688 110.105C112.354 110.105 108.823 113.636 108.823 117.97C108.823 122.303 112.354 125.834 116.688 125.834C121.022 125.834 124.553 122.303 124.553 117.97C124.553 113.636 121.022 110.105 116.688 110.105Z" fill="#F9A535"/>
</g>
<defs>
<clipPath id="clip0_1588_2">
<rect width="720" height="192" fill="white"/>
</clipPath>
</defs>
</svg>
