<svg version="1.2" xmlns="http://www.w3.org/2000/svg" viewBox="0 0 203 38" width="203" height="38">
	<title>logo-svg</title>
	<style>
		.s0 { fill: #3ff006;stroke: #3ff006;stroke-width: .5;stroke-dasharray: NaN } 
		.s1 { fill: none;stroke: #3ff006;stroke-linecap: round;stroke-dasharray: NaN } 
		.s2 { fill: #3ff006;stroke: #f9a637;stroke-width: 0;stroke-dasharray: NaN } 
		.s3 { fill: none;stroke: #3ff006;stroke-linecap: round;stroke-width: 3;stroke-dasharray: NaN } 
		.s4 { fill: #3ff006;stroke: #3ff006;stroke-dasharray: NaN } 
		.s5 { opacity: 0;fill: #000000 } 
		.s6 { fill: #3ff006 } 
	</style>
	<g id="g114">
		<g id="g112">
			<path id="path86" class="s0" d="m91.5 23.7c0-0.5 0.5-0.7 1.2-0.7 0.7 0 1.2 0.2 1.2 0.7 0 0.5-0.4 1.1-1.2 1.1-0.8 0-1.2-0.6-1.2-1.1z"/>
			<path id="path88" class="s1" d="m96.2 25c0 1-0.8 1.8-1.8 1.8-0.9 0-1.7-0.8-1.7-1.8 0 0 0 0 0 0q0-0.1 0-0.1 0 0 0 0.1c0 0 0 0 0 0 0 1-0.8 1.8-1.7 1.8-1 0-1.8-0.8-1.8-1.8"/>
			<path id="path90" class="s2" d="m89.6 20.5c0-0.6 0.6-1.2 1.2-1.2 0.7 0 1.2 0.6 1.2 1.2 0 0.7-0.5 1.2-1.2 1.2-0.6 0-1.2-0.5-1.2-1.2z"/>
			<path id="path92" class="s2" d="m93.5 20.5c0-0.6 0.5-1.2 1.1-1.2 0.7 0 1.2 0.6 1.2 1.2 0 0.7-0.5 1.2-1.2 1.2-0.6 0-1.1-0.5-1.1-1.2z"/>
			<path id="path94" class="s3" d="m79.1 30.3v0.9-26.4h1.1l12.5 11.2h0.1l12.4-11.2h1.1v26.4-0.9"/>
			<g id="g106">
				<path id="path96" fill-rule="evenodd" class="s4" d="m126.2 22.1h0.1v1.4q0 0.3-0.3 0.5-0.2 0.2-0.4 0.2h-10.9q0.2 2.7 1.6 3.9 1.3 1.2 4.2 1.2 1.7 0 3.2-1 0.5-0.4 0.9 0 0.2 0.2 0.8 0.9 0.1 0.2 0.1 0.5 0 0.3-0.2 0.5-2.2 1.6-4.8 1.6-3.8 0-5.8-1.8c-1.7-1.4-2.5-3.8-2.5-7.1q0-4.8 2-6.9c1.2-1.2 2.8-1.8 5-1.8q3.3 0 5 1.8 1.9 1.9 2 6.1zm-11.5 0h9.1q-0.1-3.2-1.3-4.4-1-1.1-3.3-1.1c-1.4 0-2.5 0.3-3.2 1.1-0.8 0.8-1.2 2.3-1.3 4.4z"/>
				<path id="path98" fill-rule="evenodd" class="s4" d="m144.2 22.5q0 0.2 0 0.4 0 0.3 0 0.5 0 2.3-0.5 4-0.5 1.7-1.6 2.7c-1.2 1.1-2.8 1.6-4.9 1.7q-3.1-0.1-4.8-1.7-2.1-2-2.1-6.7 0-0.2 0-0.5 0-0.2 0-0.4 0-4.7 2.1-6.7 1.7-1.6 4.8-1.7 3.1 0.1 4.9 1.7 2.1 2 2.1 6.7zm-2.5 0.9q0-0.3 0-0.4c0-0.2 0-0.4 0-0.5q0-1.8-0.3-3-0.2-1.2-1-1.9-1-0.9-3.2-1-2.1 0.1-3.1 1-0.8 0.8-1 1.9-0.3 1.2-0.3 3 0 0.2 0 0.4c0 0.1 0 0.3 0 0.5q0 1.8 0.3 3c0.1 0.7 0.5 1.4 1 1.9q1 0.9 3.1 0.9 2.2 0 3.2-0.9 0.8-0.8 1-1.9 0.3-1.2 0.3-3z"/>
				<path id="path100" class="s4" d="m171.4 14.8q0.2 0.3 0.1 0.6-1.6 4.9-5.2 15.5-0.1 0.5-0.7 0.4h-1.6q-0.5 0.1-0.6-0.4l-4-11.9-4 11.9q-0.1 0.5-0.6 0.4h-1.6q-0.5 0.1-0.7-0.4-0.4-1.3-2.6-7.7-2.1-6.5-2.6-7.8-0.1-0.3 0.1-0.6 0.2-0.3 0.6-0.3h1.2q0.5 0 0.6 0.5l4.2 12.4q3.4-10.1 4.2-12.4 0.1-0.5 0.6-0.5h1.2q0.5 0 0.7 0.5l4.1 12.4q3.5-10.1 4.2-12.4 0.2-0.5 0.7-0.5h1.2q0.3 0 0.5 0.3z"/>
				<path id="path102" fill-rule="evenodd" class="s4" d="m188.6 22.1v1.4q0 0.3-0.2 0.5-0.2 0.2-0.4 0.2h-10.9q0.2 2.7 1.6 3.9 1.3 1.2 4.2 1.2 1.7 0 3.2-1 0.5-0.4 0.9 0 0.2 0.2 0.8 0.9 0.1 0.2 0.1 0.5 0 0.3-0.2 0.5-2.2 1.6-4.8 1.6-3.8 0-5.8-1.8c-1.7-1.4-2.5-3.8-2.5-7.1q0-4.8 2-6.9c1.1-1.2 2.8-1.8 5-1.8q3.3 0 5 1.8 1.9 1.9 2 6.1zm-11.5 0h9q-0.1-3.2-1.3-4.4-1-1.1-3.2-1.1c-1.5 0-2.6 0.3-3.2 1.1q-1.3 1.2-1.3 4.4z"/>
				<path id="path104" class="s4" d="m201.7 14.2q0.3 0 0.4 0.2 0.2 0.1 0.2 0.4v1.3q0 0.3-0.3 0.5-0.2 0.2-0.6 0.1-0.3-0.1-0.6-0.1-1.2 0-2.3 0.8-1.1 0.8-1.8 1.8-0.7 0.9-1 2v9.5q0 0.3-0.3 0.5-0.2 0.1-0.4 0.1h-1.2q-0.3 0-0.4-0.1-0.2-0.2-0.2-0.5v-15.5q0-0.3 0.2-0.5 0.1-0.2 0.4-0.2h1.2q0.3 0 0.5 0.2 0.1 0.2 0.2 0.5v2.1q0.1-0.2 0.1-0.3 2.3-3 5.4-2.9 0.3 0 0.5 0.1z"/>
			</g>
			<path id="tspan124" class="s5" aria-label="Better"  d="m9.4 18.3h-4.4v7.4h4.4q2.3 0 3.3-0.9 1.1-0.9 1.1-2.8 0-1.9-1.1-2.8-1-0.9-3.3-0.9zm-0.3-8.4h-4.1v6.1h4.1q2 0 3-0.7 1-0.8 1-2.4 0-1.5-1-2.3-1-0.7-3-0.7zm-6.9 18.1v-20.4h7.1q3.2 0 4.9 1.3 1.7 1.3 1.7 3.7 0 1.9-0.9 3-0.9 1.1-2.6 1.4 2.1 0.4 3.2 1.8 1.1 1.4 1.1 3.5 0 2.7-1.8 4.2-1.9 1.5-5.3 1.5zm32.2-8.3v1.3h-11.6q0.2 2.5 1.6 3.9 1.4 1.4 3.9 1.4 1.5 0 2.8-0.4 1.4-0.3 2.7-1.1v2.4q-1.3 0.6-2.8 0.9-1.4 0.3-2.9 0.3-3.6 0-5.8-2.1-2.1-2.2-2.1-5.8 0-3.8 2-6 2.1-2.2 5.5-2.2 3.1 0 4.9 2 1.8 2 1.8 5.4zm-11.5-0.7h9q0-2.1-1.2-3.3-1.1-1.2-3-1.2-2.1 0-3.3 1.2-1.3 1.1-1.5 3.3zm15.6-10.6h2.5v4.3h5.2v2h-5.2v8.3q0 1.8 0.5 2.4 0.6 0.5 2.1 0.5h2.6v2.1h-2.6q-2.9 0-4-1.1-1.1-1.1-1.1-3.9v-8.3h-1.9v-2h1.9zm11 0h2.5v4.3h5.2v2h-5.2v8.3q0 1.9 0.5 2.4 0.5 0.5 2.1 0.5h2.6v2.1h-2.6q-2.9 0-4-1-1.1-1.1-1.1-4v-8.3h-1.9v-2h1.9zm24.1 11.4v1.2h-11.6q0.2 2.6 1.6 4 1.4 1.4 3.9 1.4 1.5 0 2.8-0.4 1.4-0.4 2.7-1.1v2.4q-1.3 0.6-2.7 0.9-1.5 0.3-2.9 0.3-3.7 0-5.8-2.1-2.2-2.2-2.2-5.8 0-3.8 2-6 2.1-2.2 5.5-2.2 3.1 0 4.9 2 1.8 2 1.8 5.4zm-11.5-0.7h9q0-2.1-1.2-3.3-1.1-1.2-2.9-1.2-2.2 0-3.4 1.1-1.3 1.2-1.5 3.4zm24.5-6.5v2.5q-0.4-0.2-0.9-0.3-0.5-0.1-1.1-0.1-2.1 0-3.3 1.4-1.1 1.3-1.1 3.9v8.1h-2.5v-15.3h2.5v2.4q0.8-1.4 2.1-2.1 1.2-0.7 3-0.7 0.3 0 0.6 0.1 0.3 0 0.7 0.1z"/>
			<path id="path4637" class="s5" d="m77.8 17.2v-13.8h1.4 1.5l5.9 5.3c3.3 2.9 6 5.3 6.1 5.3 0.1 0 2.9-2.4 6.1-5.3l5.9-5.3h1.5 1.6v13.8 13.9h-1.5-1.5v-12l-0.1-11.9-5.6 5.1c-5 4.4-5.8 5-6.4 5-0.6 0-1.4-0.6-6.3-5.1-3.2-2.8-5.8-5.1-5.8-5.1-0.1 0-0.1 5.4-0.1 12v12h-1.4-1.3z"/>
			<path id="path4639" class="s5" d="m77.8 17.2v-13.8h1.4 1.5l5.9 5.3c3.3 2.9 6 5.3 6.1 5.3 0.1 0 2.9-2.4 6.1-5.3l5.9-5.3h1.5 1.6v13.8 13.9h-1.5-1.5v-12l-0.1-11.9-5.6 5.1c-5 4.4-5.8 5-6.4 5-0.6 0-1.4-0.6-6.3-5.1-3.2-2.8-5.8-5.1-5.8-5.1-0.1 0-0.1 5.4-0.1 12v12h-1.4-1.3z"/>
			<path id="path4641" class="s5" d="m77.8 17.2v-13.8h1.4 1.5l5.9 5.3c3.3 2.9 6 5.3 6.1 5.3 0.1 0 2.9-2.4 6.1-5.3l5.9-5.3h1.5 1.6v13.8 13.9h-1.5-1.5v-12l-0.1-11.9-5.6 5.1c-5 4.4-5.8 5-6.4 5-0.6 0-1.4-0.6-6.3-5.1-3.2-2.8-5.8-5.1-5.8-5.1-0.1 0-0.1 5.4-0.1 12v12h-1.4-1.3z"/>
			<path id="path4643" class="s5" d="m77.8 17.2v-13.8h1.4 1.5l5.9 5.3c3.3 2.9 6 5.3 6.1 5.3 0.1 0 2.9-2.4 6.1-5.3l5.9-5.3h1.5 1.6v13.8 13.9h-1.5-1.5v-12l-0.1-11.9-5.6 5.1c-5 4.4-5.8 5-6.4 5-0.6 0-1.4-0.6-6.3-5.1-3.2-2.8-5.8-5.1-5.8-5.1-0.1 0-0.1 5.4-0.1 12v12h-1.4-1.3z"/>
			<path id="path4645" class="s5" d="m77.8 17.2v-13.8h1.4 1.5l5.9 5.3c3.3 2.9 6 5.3 6.1 5.3 0.1 0 2.9-2.4 6.1-5.3l5.9-5.3h1.5 1.6v13.8 13.9h-1.5-1.5v-12l-0.1-11.9-5.6 5.1c-5 4.4-5.8 5-6.4 5-0.6 0-1.4-0.6-6.3-5.1-3.2-2.8-5.8-5.1-5.8-5.1-0.1 0-0.1 5.4-0.1 12v12h-1.4-1.3z"/>
			<path id="path4647" class="s5" d="m77.8 17.2v-13.8h1.4 1.5l5.9 5.3c3.3 2.9 6 5.3 6.1 5.3 0.1 0 2.9-2.4 6.1-5.3l5.9-5.3h1.5 1.6v13.8 13.9h-1.5-1.5v-12l-0.1-11.9-5.6 5.1c-5 4.4-5.8 5-6.4 5-0.6 0-1.4-0.6-6.3-5.1-3.2-2.8-5.8-5.1-5.8-5.1-0.1 0-0.1 5.4-0.1 12v12h-1.4-1.3z"/>
			<path id="Better" class="s6" aria-label="Better"  d="m10.6 17.7h-0.2q0.1 0.1 0.4 0.1 0.2 0.1 0.8 0.4 0.7 0.3 1.1 0.7 0.5 0.4 0.9 1.2 0.4 0.7 0.4 1.7 0 2.2-1.6 3.7-1.6 1.5-3.8 1.5h-6.3q-0.2 0-0.3-0.1-0.2-0.2-0.2-0.3v-15.6q0-0.2 0.2-0.3 0.1-0.2 0.3-0.2h6q1.3 0 2.4 0.7 1 0.5 1.6 1.6 0.7 1 0.7 2.2 0 0.7-0.3 1.3-0.2 0.5-0.6 0.8-0.4 0.2-0.8 0.4-0.4 0.2-0.7 0.2zm-2.3-4.2h-3.4v3.1h3.4q0.7 0 1.1-0.5 0.5-0.4 0.5-1.1 0-0.6-0.5-1.1-0.4-0.4-1.1-0.4zm-3.4 10.6h3.7q1 0 1.7-0.7 0.7-0.7 0.7-1.6 0-0.6-0.4-1.1-0.3-0.6-0.8-0.9-0.6-0.3-1.2-0.3h-3.7zm22.9-3.7v0.5 1q0 0.2-0.2 0.4-0.1 0.1-0.3 0.1h-7.2q0.1 0.9 0.7 1.4 0.7 0.6 2.4 0.6 1.1 0 2-0.6 0.3-0.2 0.6 0.1 0.2 0.3 1.4 1.6 0.1 0.1 0.1 0.3 0 0.2-0.2 0.3-1.7 1.2-3.9 1.2-2.8 0-4.4-1.3-1.9-1.5-1.9-5.1 0-3.4 1.6-5 1.3-1.4 3.8-1.4 2.6 0 3.9 1.4 1.5 1.5 1.6 4.5zm-7.8 0h4.7q0-1.8-0.7-2.4-0.5-0.5-1.7-0.5-1.1 0-1.6 0.5-0.7 0.6-0.7 2.4zm19 5.4q0.2 0.1 0.1 0.3 0 0.2-0.2 0.3-1.7 0.9-3.5 0.9-1.7 0-2.7-1.1-1-1.1-1-3.2v-5.4h-0.9q-0.2 0-0.3-0.2-0.2-0.1-0.2-0.3v-2q0-0.1 0.1-0.2 0-0.2 0.2-0.2 0.1-0.1 0.2-0.1h0.9v-3.2q0-0.2 0.1-0.3 0.1-0.1 0.3-0.1h2.1 0.1q0.1 0 0.2 0v0.1h0.1q0 0 0 0 0 0 0 0v0.1q0.1 0.1 0.1 0.2 0 0 0 0v3.2h3.6q0.1 0 0.3 0.2 0.1 0.1 0.1 0.3v2q0 0.2-0.1 0.3-0.1 0.2-0.3 0.2h-3.6v5.7q0 0.5 0.5 0.9 0.5 0.3 1 0.1 0.2-0.1 0.6-0.2 0.3-0.2 0.4-0.2 0.4-0.2 0.6 0.1 0.3 0.5 1.2 1.8zm11.4 0q0.1 0.1 0.1 0.3-0.1 0.2-0.2 0.3-1.8 0.9-3.5 0.9-1.7 0-2.7-1.1-1.1-1.1-1.1-3.2v-5.4h-0.8q-0.2 0-0.4-0.2-0.1-0.1-0.1-0.3v-2q0-0.1 0-0.2 0.1-0.2 0.2-0.2 0.1-0.1 0.3-0.1h0.8v-3.2q0-0.2 0.2-0.3 0.1-0.1 0.3-0.1h2.1q0.2 0 0.3 0v0.1q0 0 0 0 0.1 0 0.1 0v0.1q0 0.1 0.1 0.2 0 0 0 0v3.2h3.5q0.2 0 0.3 0.2 0.2 0.1 0.2 0.3v2q0 0.2-0.2 0.3-0.1 0.2-0.3 0.2h-3.5v5.7q0 0.5 0.4 0.9 0.5 0.3 1 0.1 0.3-0.1 0.6-0.2 0.4-0.2 0.5-0.2 0.3-0.2 0.5 0.1 0.4 0.5 1.3 1.8zm13.6-5.4v0.5 1q0 0.2-0.2 0.4-0.1 0.1-0.3 0.1h-7.3q0.2 0.9 0.8 1.4 0.7 0.6 2.4 0.6 1.1 0 2-0.6 0.3-0.2 0.5 0.1 0.3 0.3 1.5 1.6 0.1 0.1 0.1 0.3 0 0.2-0.2 0.3-1.7 1.2-3.9 1.2-2.8 0-4.4-1.3-1.9-1.5-1.9-5.1 0-3.4 1.5-5 1.4-1.4 3.9-1.4 2.5 0 3.9 1.4 1.4 1.5 1.6 4.5zm-7.8 0h4.7q0-1.8-0.7-2.4-0.5-0.5-1.7-0.5-1.2 0-1.7 0.5-0.6 0.6-0.6 2.4zm18.6-5.9q0.1 0.1 0.2 0.2 0.2 0.1 0.2 0.2v2.8q0 0.3-0.2 0.4-0.2 0.1-0.4 0-0.7-0.2-1.1-0.2-0.7 0-1.2 0.2-0.5 0.2-0.9 0.6-0.3 0.4-0.5 0.7-0.2 0.2-0.3 0.5v6.7q0 0.2-0.2 0.3-0.1 0.2-0.3 0.2h-2.1q-0.2 0-0.3-0.2-0.2-0.1-0.2-0.3v-11.3q0-0.2 0.2-0.4 0.1-0.1 0.3-0.1h2.1q0.2 0 0.3 0.1 0.2 0.2 0.2 0.4v0.9q1.7-1.7 4.2-1.7z"/>
		</g>
	</g>
</svg>