<svg width="1850" height="611" viewBox="0 0 1850 611" fill="none" xmlns="http://www.w3.org/2000/svg">
<path d="M1038.68 272.659C1059.99 273.205 1077.21 282.083 1090.33 299.292C1103.44 316.228 1109.87 338.9 1109.59 367.309V459.502C1109.59 461.414 1108.91 463.053 1107.54 464.418C1106.45 465.784 1104.95 466.467 1103.03 466.467H1071.06C1069.15 466.467 1067.51 465.784 1066.14 464.418C1065.05 463.053 1064.5 461.414 1064.5 459.502V367.309C1064.5 358.022 1063.27 349.69 1060.81 342.315C1058.35 334.94 1054.67 329.203 1049.75 325.106C1045.1 320.735 1039.5 318.413 1032.94 318.14C1026.66 318.14 1020.78 319.233 1015.31 321.418C1010.12 323.603 1005.75 326.608 1002.2 330.432C998.918 334.257 996.322 337.671 994.409 340.676C992.496 343.408 990.993 346.276 989.9 349.281V459.911C989.9 461.55 989.354 462.916 988.261 464.009V464.418H987.851V464.828H987.441C986.348 465.921 984.981 466.467 983.342 466.467H950.959C949.593 466.467 948.226 465.921 946.86 464.828V464.418H946.45L946.04 464.009C945.221 462.916 944.674 461.55 944.401 459.911V367.309C944.401 358.022 943.171 349.69 940.712 342.315C938.525 334.94 934.973 329.203 930.054 325.106C925.408 320.735 919.806 318.413 913.248 318.14C906.963 318.14 901.087 319.233 895.622 321.418C890.43 323.603 886.058 326.608 882.505 330.432C879.226 334.257 876.63 337.671 874.717 340.676C872.804 343.408 871.301 346.276 870.208 349.281V459.502C870.208 461.414 869.525 463.053 868.158 464.418C866.792 465.784 865.152 466.467 863.24 466.467H831.677C829.764 466.467 828.124 465.784 826.758 464.418C825.392 463.053 824.708 461.414 824.708 459.502V283.722C824.708 281.81 825.392 280.171 826.758 278.805C828.124 277.439 829.764 276.756 831.677 276.756H863.24C865.152 276.756 866.792 277.439 868.158 278.805C869.525 280.171 870.208 281.81 870.208 283.722V298.063C878.679 289.595 886.877 283.312 894.802 279.215C902.727 274.844 912.975 272.659 925.545 272.659C934.016 272.659 942.215 274.844 950.139 279.215C958.338 283.312 964.349 287.409 968.175 291.507L973.914 298.063C974.46 297.243 975.144 296.287 975.963 295.194C976.783 293.829 978.969 291.78 982.522 289.048C986.348 286.044 990.447 283.449 994.819 281.263C999.465 278.805 1005.61 276.756 1013.26 275.117C1021.19 273.478 1029.66 272.659 1038.68 272.659Z" fill="white"/>
<path d="M1321.49 363.622V387.387C1321.49 389.299 1320.8 390.938 1319.44 392.304C1318.35 393.669 1316.84 394.352 1314.93 394.352H1206.71C1208.35 403.913 1212.04 411.015 1217.78 415.659C1224.89 421.942 1236.91 425.083 1253.85 425.083C1264.51 425.083 1274.21 422.351 1282.96 416.888C1286.24 414.703 1289.11 415.113 1291.56 418.117C1294.3 421.122 1301.4 429.18 1312.88 442.292C1314.25 443.658 1314.79 445.297 1314.52 447.209C1314.52 449.121 1313.7 450.76 1312.06 452.126C1294.84 464.418 1275.44 470.565 1253.85 470.565C1225.71 470.565 1203.85 463.735 1188.27 450.077C1169.41 434.234 1159.99 408.147 1159.99 371.816V371.407C1159.99 336.169 1167.64 310.492 1182.94 294.375C1196.6 279.897 1215.87 272.659 1240.74 272.659C1265.6 272.659 1284.87 279.897 1298.53 294.375C1312.74 309.126 1320.39 332.208 1321.49 363.622ZM1205.48 363.622H1275.99C1275.72 345.32 1272.3 332.754 1265.74 325.925C1260.82 320.735 1252.49 318.14 1240.74 318.14C1228.99 318.14 1220.65 320.735 1215.73 325.925C1209.17 332.754 1205.76 345.32 1205.48 363.622Z" fill="white"/>
<path d="M1529.26 205.461C1530.9 205.461 1532.4 206.144 1533.77 207.509C1535.14 208.875 1535.82 210.378 1535.82 212.017V458.272C1535.82 460.184 1535.14 461.823 1533.77 463.189C1532.4 464.282 1530.9 464.828 1529.26 464.828H1497.29C1495.38 464.828 1493.74 464.282 1492.37 463.189C1491 461.823 1490.32 460.184 1490.32 458.272V444.341C1479.12 461.823 1460.26 470.565 1433.75 470.565C1414.08 470.565 1398.09 461.687 1385.79 443.931C1373.5 425.903 1367.35 400.362 1367.35 367.309C1367.35 338.081 1372.95 315.135 1384.16 298.472C1395.63 281.81 1412.03 273.205 1433.34 272.659C1459.85 272.112 1478.84 281.946 1490.32 302.16V212.017C1490.32 210.924 1490.59 209.831 1491.14 208.739C1491.96 207.646 1492.78 206.827 1493.6 206.28C1494.69 205.734 1495.92 205.461 1497.29 205.461H1529.26ZM1490.32 400.089V349.281C1489.23 346.549 1487.72 343.681 1485.81 340.676C1483.9 337.671 1481.17 334.257 1477.61 330.432C1474.06 326.608 1469.42 323.603 1463.68 321.418C1458.21 319.233 1452.2 318.14 1445.64 318.14C1435.53 318.413 1427.47 323.194 1421.46 332.481C1415.72 341.495 1412.85 353.105 1412.85 367.309C1412.85 386.977 1416.95 402.274 1425.15 413.201C1430.88 421.122 1437.44 425.083 1444.82 425.083C1450.01 425.083 1454.93 424.4 1459.58 423.034C1464.5 421.669 1468.46 420.166 1471.47 418.527C1474.74 416.615 1477.75 414.43 1480.48 411.971C1483.22 409.513 1485.27 407.328 1486.63 405.415C1488 403.503 1489.23 401.728 1490.32 400.089Z" fill="white"/>
<path d="M1634.2 206.28C1636.12 206.28 1637.76 206.963 1639.12 208.329C1640.49 209.422 1641.17 210.924 1641.17 212.836V246.435C1641.17 248.347 1640.49 249.986 1639.12 251.352C1637.76 252.718 1636.12 253.401 1634.2 253.401H1602.64C1600.73 253.401 1599.09 252.718 1597.72 251.352C1596.36 249.986 1595.67 248.347 1595.67 246.435V212.836C1595.67 210.924 1596.36 209.422 1597.72 208.329C1599.09 206.963 1600.73 206.28 1602.64 206.28H1634.2ZM1634.2 276.756C1636.12 276.756 1637.76 277.439 1639.12 278.805C1640.49 280.171 1641.17 281.81 1641.17 283.722V459.502C1641.17 461.414 1640.49 463.053 1639.12 464.418C1637.76 465.784 1636.12 466.467 1634.2 466.467H1602.64C1601.27 466.467 1600.05 466.194 1598.95 465.648C1597.86 465.101 1597.04 464.282 1596.49 463.189C1595.95 462.097 1595.67 460.867 1595.67 459.502V283.722C1595.67 281.81 1596.36 280.171 1597.72 278.805C1599.09 277.439 1600.73 276.756 1602.64 276.756H1634.2Z" fill="white"/>
<path d="M1849.36 455.814C1849.36 456.087 1849.49 457.043 1849.77 458.682C1850.31 460.594 1849.9 462.37 1848.54 464.009C1847.17 465.648 1845.39 466.467 1843.21 466.467H1811.64C1807.82 466.467 1805.63 464.555 1805.09 460.731C1804.54 458.272 1804.13 456.633 1803.86 455.814C1803.04 449.531 1802.63 443.112 1802.63 436.556V436.146C1800.17 443.248 1795.93 449.531 1789.92 454.994C1783.91 460.458 1777.76 464.418 1771.47 466.877C1765.19 469.335 1759.31 470.565 1753.85 470.565C1736.36 470.565 1721.88 465.648 1710.4 455.814C1697.28 444.614 1690.72 429.044 1690.72 409.103C1690.72 393.806 1694.41 382.333 1701.79 374.685C1709.44 366.763 1720.78 360.07 1735.81 354.607C1751.39 348.598 1773.66 345.593 1802.63 345.593V328.793C1802.63 321.691 1796.2 318.14 1783.36 318.14C1765.6 318.14 1752.89 323.194 1745.24 333.301C1743.33 336.305 1740.59 336.988 1737.04 335.349C1732.94 333.71 1723.11 329.476 1707.53 322.647C1705.89 321.828 1704.66 320.462 1703.84 318.55C1703.29 316.638 1703.57 314.726 1704.66 312.813C1711.76 300.794 1722.29 291.097 1736.22 283.722C1750.43 276.346 1766.15 272.659 1783.36 272.659C1802.49 272.659 1817.93 277.849 1829.68 288.229C1841.7 298.609 1847.72 312.131 1847.72 328.793V436.556C1847.72 443.112 1848.26 449.531 1849.36 455.814ZM1802.63 401.728V383.699C1786.23 383.699 1772.84 384.928 1762.46 387.387C1754.26 389.026 1747.84 391.348 1743.19 394.352C1738.54 397.357 1736.22 402.274 1736.22 409.103C1736.22 415.113 1737.45 419.21 1739.91 421.395C1742.92 423.854 1747.56 425.083 1753.85 425.083C1762.32 425.083 1771.06 423.034 1780.08 418.937C1789.1 414.566 1796.61 408.83 1802.63 401.728Z" fill="white"/>
<path fill-rule="evenodd" clip-rule="evenodd" d="M1.62829 14.328C1.62829 7.29786 7.34786 1.59882 14.4033 1.59882H74.5063C77.6576 1.59882 80.6974 2.75934 83.042 4.85733L323.16 219.722C328.014 224.066 335.376 224.066 340.231 219.722L580.35 4.8573C582.694 2.75934 585.735 1.59882 588.884 1.59882H648.987C656.042 1.59882 661.762 7.29786 661.762 14.328V597.114C661.762 604.147 656.042 609.843 648.987 609.843H594.693C587.638 609.843 581.918 604.147 581.918 597.114V138.923C581.918 127.909 568.833 122.093 560.609 129.452L351.658 316.428C349.314 318.526 346.273 319.685 343.121 319.685H320.27C317.119 319.685 314.078 318.526 311.734 316.428L102.783 129.452C94.559 122.093 81.4723 127.909 81.4723 138.923V597.114C81.4723 604.147 75.7525 609.843 68.6972 609.843H14.4033C7.34786 609.843 1.62829 604.147 1.62829 597.114V14.328Z" fill="white"/>
<path fill-rule="evenodd" clip-rule="evenodd" d="M266.076 375.418C266.076 361.626 277.354 350.389 291.194 350.389C305.035 350.389 316.313 361.626 316.313 375.418C316.313 389.207 305.035 400.443 291.194 400.443C277.354 400.443 266.076 389.207 266.076 375.418ZM331.693 429.049C317.338 429.049 306.06 432.623 306.06 442.838C306.06 451.188 311.538 461.241 323.053 464.637C321.6 478.954 308.926 490.715 294.269 490.715C278.541 490.715 265.344 478.298 265.344 461.897C265.344 457.502 261.77 453.941 257.36 453.941C252.95 453.941 249.376 457.502 249.376 461.897C249.376 487.374 270.013 506.627 294.269 506.627C309.29 506.627 322.83 498.891 331.019 487.269C339.198 499.117 352.937 506.627 368.085 506.627C392.489 506.627 412.98 486.209 412.98 461.897C412.98 457.502 409.406 453.941 404.996 453.941C400.585 453.941 397.011 457.502 397.011 461.897C397.011 477.42 383.671 490.715 368.085 490.715C353.349 490.715 340.836 479.816 339.316 464.948C351.523 461.96 357.322 451.856 357.322 442.838C357.322 432.114 346.045 429.049 331.693 429.049ZM372.7 350.389C358.859 350.389 347.582 361.626 347.582 375.418C347.582 389.207 358.859 400.443 372.7 400.443C386.542 400.443 397.819 389.207 397.819 375.418C397.819 361.626 386.542 350.389 372.7 350.389Z" fill="white"/>
</svg>
