<svg version="1.1" xmlns="http://www.w3.org/2000/svg" xmlns:xlink="http://www.w3.org/1999/xlink" width="25" height="21" viewBox="0,0,25,21"><g transform="translate(-227.5,-169.5)"><g data-paper-data="{&quot;isPaintingLayer&quot;:true}" fill="none" fill-rule="nonzero" stroke="#ffffff" stroke-width="3" stroke-linecap="round" stroke-linejoin="round" stroke-miterlimit="10" stroke-dasharray="" stroke-dashoffset="0" style="mix-blend-mode: normal"><path d="M229,189v-2c0,-2.20914 1.79086,-4 4,-4h8c2.20914,0 4,1.79086 4,4v2"/><path d="M233,175c0,-2.20914 1.79086,-4 4,-4c2.20914,0 4,1.79086 4,4c0,2.20914 -1.79086,4 -4,4c-2.20914,0 -4,-1.79086 -4,-4z"/><path d="M248,183.13c1.765,0.45572 2.99864,2.04712 3,3.87v2"/><path d="M244,171.13c1.76991,0.45317 3.00785,2.04799 3.00785,3.875c0,1.82701 -1.23793,3.42183 -3.00785,3.875"/></g></g></svg>