<svg width="132" height="120" viewBox="0 0 132 120" fill="none" xmlns="http://www.w3.org/2000/svg">
<path fill-rule="evenodd" clip-rule="evenodd" d="M17.3599 0.206383L17.7404 0.274611L46.2093 11.4076C52.0554 9.75766 58.5367 8.90142 65.7144 9.033C72.8916 8.90142 79.3732 9.75764 85.2191 11.4075L113.688 0.274611L114.068 0.206383C122.58 -1.32002 130.376 5.8405 128.781 14.4245L124.789 41.7777C129.74 53.9798 131.428 66.1622 131.428 73.7632C131.428 83.7054 129.252 95.5517 119.393 104.823C109.601 114.031 92.9679 120 65.7144 120C38.4607 120 21.8275 114.031 12.0359 104.823C2.17656 95.5517 0 83.7054 0 73.7632C0 66.1622 1.6887 53.9798 6.63902 41.7777L2.64682 14.4242C1.05279 5.84079 8.8481 -1.32008 17.3599 0.206383ZM45.7653 56.9025V44.5153C45.7653 41.0946 48.5674 38.3216 52.0238 38.3216C55.4803 38.3216 58.2823 41.0946 58.2823 44.5153V56.9025C58.2823 60.3231 55.4803 63.0961 52.0238 63.0961C48.5674 63.0961 45.7653 60.3231 45.7653 56.9025ZM73.1461 56.9025V44.5153C73.1461 41.0946 75.9481 38.3216 79.4046 38.3216C82.861 38.3216 85.6631 41.0946 85.6631 44.5153V56.9025C85.6631 60.3231 82.861 63.0961 79.4046 63.0961C75.9481 63.0961 73.1461 60.3231 73.1461 56.9025ZM67.4741 68.6619C69.4152 68.1124 70.7994 66.6986 70.7994 65.1872C70.7994 63.2489 68.5227 62.7098 65.7143 62.7098C62.9059 62.7098 60.6293 63.2489 60.6293 65.1872C60.6293 66.6986 62.0134 68.1124 63.9544 68.6619V71.6131C63.9544 74.3924 61.6782 76.6454 58.8704 76.6454C57.3385 76.6454 55.9649 75.9748 55.0328 74.914C54.478 74.2825 53.4424 74.0613 52.8488 74.6563L52.575 74.9308C51.9442 75.5631 51.8114 76.5633 52.4044 77.2313C53.9812 79.008 56.2935 80.1294 58.8704 80.1294C61.6616 80.1294 64.1424 78.8137 65.7143 76.7748C67.2862 78.8137 69.767 80.1294 72.5582 80.1294C75.135 80.1294 77.4473 79.008 79.0242 77.2314C79.6171 76.5633 79.4843 75.5631 78.8535 74.9308L78.5797 74.6563C77.9861 74.0614 76.9506 74.2826 76.3957 74.914C75.4636 75.9748 74.09 76.6454 72.5582 76.6454C69.7503 76.6454 67.4741 74.3924 67.4741 71.6131V68.6619Z" fill="#FEFEFE"/>
</svg>
