<svg version="1.1" xmlns="http://www.w3.org/2000/svg" xmlns:xlink="http://www.w3.org/1999/xlink" width="256.77155" height="79.9532" viewBox="0,0,256.77155,79.9532"><g transform="translate(-124.84101,-156.05465)"><g data-paper-data="{&quot;isPaintingLayer&quot;:true}" fill-rule="nonzero" stroke-linejoin="miter" stroke-miterlimit="10" stroke-dasharray="" stroke-dashoffset="0" style="mix-blend-mode: normal"><path d="M198.64101,203.25091c0,18.3 -16.5,24.2 -36.9,24.2c-20.4,0 -36.9,-5.9 -36.9,-24.2c0,-8.6 2.4,-18.5 7.7,-26.5l-4.3,-14.5c-0.8,-2.7 2,-5.3 4.6,-4.2l14.3,6c4.2,-1.9 9,-3 14.6,-3c5.5,0 10.3,1.2 14.5,3.1l14.4,-6c2.6,-1.1 5.4,1.5 4.6,4.2l-4.4,14.7c5.2,7.9 7.7,17.7 7.8,26.2z" fill="#ff7319" stroke="none" stroke-width="1" stroke-linecap="butt"/><path d="M190.541,214.85091c0,9.6 -12.9,12.7 -28.9,12.7c-16,0 -28.9,-3.1 -28.9,-12.7c0,-9.6 8.6,-22.1 28.9,-22.1c19.9,0 28.9,12.5 28.9,22.1z" fill="#ffffff" stroke="none" stroke-width="1" stroke-linecap="butt"/><path d="M163.64265,185.94367c0,-1.71208 1.38792,-3.1 3.1,-3.1c1.71208,0 3.1,1.38792 3.1,3.1c0,1.71208 -1.38792,3.1 -3.1,3.1c-1.71208,0 -3.1,-1.38792 -3.1,-3.1z" fill="#000000" stroke="none" stroke-width="1" stroke-linecap="butt"/><path d="M177.69384,184.7987c0,-1.71208 1.38792,-3.1 3.1,-3.1c1.71208,0 3.1,1.38792 3.1,3.1c0,1.71208 -1.38792,3.1 -3.1,3.1c-1.71208,0 -3.1,-1.38792 -3.1,-3.1z" fill="#000000" stroke="none" stroke-width="1" stroke-linecap="butt"/><path d="M139.24101,169.55091c-2.1,1.8 -3.8,3.5 -5.4,6.1l-3.9,-13.5c-0.3,-1.6 1.2,-3 2.8,-2.5l12.9,5.4c-2.9,1.2 -4.6,2.8 -6.4,4.5z" fill="#77500c" stroke="none" stroke-width="1" stroke-linecap="butt"/><path d="M178.041,165.05091l12.9,-5.4c1.6,-0.5 3.1,0.9 2.8,2.5l-3.8,13.5c-1.5,-2.6 -3.3,-4.3 -5.3,-6.1c-2,-1.7 -3.7,-3.3 -6.6,-4.5z" fill="#77500c" stroke="none" stroke-width="1" stroke-linecap="butt"/><path d="M175.08883,203.03735v-6.53572" fill="none" stroke="#000000" stroke-width="2.5" stroke-linecap="round"/><path d="M171.7378,193.77037c0,-1.3 1.4,-1.7 3.2,-1.7c1.8,0 3.2,0.4 3.2,1.7c0,1.3 -1,2.9 -3.2,2.9c-2.2,0 -3.2,-1.6 -3.2,-2.9z" fill="#945600" stroke="#000000" stroke-width="1.5" stroke-linecap="butt"/><path d="M209.44013,211.23631v-19.24655h11.67414v19.24656z" fill="#f0e19f" stroke="none" stroke-width="0" stroke-linecap="butt"/><path d="M213.43062,203.52504v-3.81704h3.81704v3.81704z" fill="#3496f0" stroke="none" stroke-width="0" stroke-linecap="butt"/><path d="M233.06113,222.28309l-6.65257,-0.10906l-11.12395,-7.19785v-12.97795" fill="none" stroke="#3a98ed" stroke-width="2" stroke-linecap="round"/><path d="M242.14456,222.27143l10.57867,-5.34386" fill="none" stroke="#3a98ed" stroke-width="2" stroke-linecap="round"/><g stroke="none" stroke-linecap="butt"><g><path d="M303.20858,182.69142h42.26233v40.62108h-42.26233z" fill="#004502" stroke-width="0"/><path d="M329.46867,209.39994c-2.5,0 -2.5,-2.5 -2.5,-2.5v-1.64126c0,-3.05937 -1.02771,-9.3646 1.96041,-11.53479c1.74804,-1.26955 4.38015,1.05181 6.46346,0.47978c0.32111,-0.08817 -0.17263,-0.65423 -0.15566,-0.9868c0.16369,-3.20799 0.55365,-5.46299 -0.37606,-8.60771c0,0 -0.6868,-2.40381 1.71701,-3.09061c2.40381,-0.6868 3.09061,1.71701 3.09061,1.71701c0.99079,3.56541 1.53412,7.42216 0.44457,11.08736c-0.41105,1.38275 -0.56956,3.17898 -1.79692,3.93697c-1.5179,0.93743 -3.55011,0.5567 -5.33182,0.46561c-0.51915,-0.02654 -0.83725,-0.95714 -1.33476,-0.80645c-0.36991,0.11204 0.26468,0.73606 0.29499,1.12138c0.03317,0.42166 0.02416,5.99141 0.02416,6.21827v1.64126c0,0 0,2.5 -2.5,2.5z" fill="#006603" stroke-width="0.5"/><path d="M340.99557,216.74748c0,2.5 -2.5,2.5 -2.5,2.5h-2.05157c-2.99757,0 -8.36494,0.74839 -11.08536,-0.14093c-1.30494,-0.42659 -2.42987,-1.43014 -3.24792,-2.5327c-0.54982,-0.74104 -0.00482,-2.01763 -0.63106,-2.69533c-0.34275,-0.37092 -0.94485,0.40411 -1.44821,0.44519c-4.01302,0.32749 -6.41861,0.20884 -10.28791,1.51296c0,0 -2.37171,0.79057 -3.16228,-1.58114c-0.79057,-2.37171 1.58114,-3.16228 1.58114,-3.16228c4.1051,-1.35497 7.50769,-1.99405 11.86904,-1.76955c1.43783,0.07401 3.11906,-0.38379 4.29618,0.44519c1.45633,1.0256 0.92386,4.35976 2.68604,4.61951c2.83832,0.41837 6.53665,-0.14093 9.43033,-0.14093h2.05157c0,0 2.5,0 2.5,2.5z" fill="#006603" stroke-width="0.5"/></g><path d="M250.27808,158.10622c0,0 1.66754,-2.05157 6.97534,-2.05157c12.14516,0 61.25224,0 82.47309,0c6.06131,0 7.79596,2.46188 7.79596,2.46188c0,0 2.05157,2.72852 2.05157,7.38565c0,4.24707 0,13.51046 0,23.44916c-3.78885,-0.32101 -7.11721,0.10079 -10.28389,2.99968c-1.03136,0.94414 -2.1315,1.85649 -2.92121,3.01038c-0.05019,0.07334 -0.67656,3.34521 -1.74537,3.39827c-1.97796,0.09821 -3.82279,-1.15635 -5.79832,-1.29514c-4.69196,-0.32965 -10.11999,0.59923 -13.19986,4.61484c-0.97013,1.26488 -2.58757,5.25964 -3.28359,6.88892c-0.56634,2.02417 -0.86841,4.13447 -0.94091,6.23512c-0.01722,0.4989 0.22015,1.15567 -0.15054,1.49c-0.49886,0.44992 -1.41079,0.05138 -1.97046,0.42295c-3.09741,2.05638 -4.97702,4.5734 -6.18052,7.46071c-20.34485,0 -41.12786,0 -47.89753,0c-4.41142,0 -5.33408,-2.87219 -5.33408,-2.87219c0,0 -3.28251,-2.4371 -3.28251,-9.84754c0,-13.63578 0,-34.3858 0,-42.26233c0,-6.033 3.69282,-11.48879 3.69282,-11.48879z" fill="#444444" stroke-width="NaN"/><path d="M256.43279,166.72281h86.98654v23.14751c-1.42043,0.471 -2.78928,1.25411 -4.12918,2.4807c-1.03136,0.94414 -2.1315,1.85649 -2.92121,3.01038c-0.05019,0.07334 -0.67656,3.34521 -1.74537,3.39827c-1.97796,0.09821 -3.82279,-1.15635 -5.79832,-1.29514c-4.69196,-0.32965 -10.11999,0.59923 -13.19986,4.61484c-0.97013,1.26488 -2.58757,5.25964 -3.28359,6.88892c-0.48691,1.74027 -0.77848,3.5442 -0.89676,5.35093h-55.01226z" fill="#787878" stroke-width="0"/><path d="M320.85208,162.20936h6.97534v35.20498c-2.32027,-0.06988 -4.76296,0.18701 -6.97534,0.97974z" fill="#444444" stroke-width="0"/><path d="M294.18167,159.74748h8.20627v59.49551h-8.20627z" fill="#444444" stroke-width="0"/><path d="M270.38347,162.20936h7.38565v57.03363h-7.38565z" fill="#444444" stroke-width="0"/><path d="M308.54266,209.80577c-1.13305,0 -2.05157,-0.91852 -2.05157,-2.05157c0,-1.13305 0.91852,-2.05157 2.05157,-2.05157c1.13305,0 2.05157,0.91852 2.05157,2.05157c0,1.13305 -0.91852,2.05157 -2.05157,2.05157z" fill="#00ff52" stroke-width="0"/><path d="M285.77024,210.21609c-1.01975,0 -1.84642,-0.91852 -1.84642,-2.05157c0,-1.13305 0.82667,-2.05157 1.84642,-2.05157c1.01975,0 1.84641,0.91852 1.84641,2.05157c0,1.13305 -0.82666,2.05157 -1.84641,2.05157z" fill="#00ff52" stroke-width="0"/><path d="M264.43391,210.21609c-0.79314,0 -1.4361,-0.64296 -1.4361,-1.4361c0,-0.79314 0.64296,-1.4361 1.4361,-1.4361c0.79314,0 1.4361,0.64297 1.4361,1.4361c0,0.79314 -0.64296,1.4361 -1.4361,1.4361z" fill="#00ff52" stroke-width="0"/><g><path d="M364.36677,217.08041c-1.13296,0.01462 -2.06325,-0.89197 -2.07788,-2.02492c-0.01462,-1.13296 0.89197,-2.06325 2.02492,-2.07788c1.13296,-0.01462 2.06325,0.89197 2.07788,2.02492c0.01462,1.13296 -0.89197,2.06325 -2.02492,2.07788z" fill="#00ff52" stroke-width="0"/><g><path d="M381.60911,217.67855c0.08764,6.79021 -1.52461,9.04734 -1.52461,9.04734c0,0 -1.1023,2.47631 -5.71214,2.53581c-7.59413,0.09802 -20.1672,0.26031 -33.51426,0.43258c0.76649,-1.19571 1.79358,-2.28408 3.19554,-3.24897c0.87723,-0.60374 2.27677,-0.42105 2.93734,-1.25632c2.06236,-2.60781 1.22857,-6.53819 2.06816,-9.53555c0.29462,-0.70999 1.98019,-4.86935 2.39065,-5.4518c2.50836,-3.55944 7.85467,-3.0795 11.52637,-2.5437c1.58198,0.23086 3.19968,1.15633 4.74039,0.72953c1.60418,-0.44438 2.83105,-1.84403 3.89731,-3.12229c0.57754,-0.69237 0.37022,-1.80427 0.8493,-2.56808c2.21821,-3.53656 5.37859,-3.99612 8.90454,-3.72289c0.08628,6.68447 0.17226,13.34595 0.24142,18.70432z" fill="#444444" stroke-width="NaN"/><path d="M375.4708,218.98883l-26.89363,0.34713c0.08611,-1.27963 0.16415,-2.54791 0.48196,-3.6825c0.29462,-0.70999 1.98019,-4.86935 2.39065,-5.4518c2.50836,-3.55944 7.85467,-3.0795 11.52637,-2.5437c1.58198,0.23086 3.19968,1.15633 4.74039,0.72953c1.60418,-0.44438 2.83105,-1.84403 3.89731,-3.12229c0.57754,-0.69237 0.37022,-1.80427 0.8493,-2.56808c0.80558,-1.28435 1.73542,-2.16289 2.7619,-2.74788z" fill="#787878" stroke-width="0"/><path d="M359.9649,225.75454l-6.97475,0.09003l-0.21939,-16.99729c1.8891,-1.40362 4.4991,-1.65734 6.95613,-1.53258z" fill="#444444" stroke-width="0"/></g></g><path d="M313.94497,233.34081c0,1.47297 -1.10222,2.66704 -2.46188,2.66704c-1.35966,0 -2.46188,-1.19407 -2.46188,-2.66704c0,-1.47297 1.10222,-2.66704 2.46188,-2.66704c1.35966,0 2.46188,1.19407 2.46188,2.66704z" fill="#444444" stroke-width="0"/><path d="M329.12658,229.23767c0,0.79314 -0.64296,1.4361 -1.4361,1.4361c-0.79314,0 -1.4361,-0.64296 -1.4361,-1.4361c0,-0.79314 0.64296,-1.4361 1.4361,-1.4361c0.79314,0 1.4361,0.64296 1.4361,1.4361z" fill="#444444" stroke-width="0"/><path d="M340.54714,199.06586c1.38071,0 2.5,1.11929 2.5,2.5c0,1.38071 -1.11929,2.5 -2.5,2.5c-1.38071,0 -2.5,-1.11929 -2.5,-2.5c0,-1.38071 1.11929,-2.5 2.5,-2.5z" fill="#ffffff" stroke-width="0.5"/><path d="M340.95746,206.86183c1.38071,0 2.5,1.11929 2.5,2.5c0,1.38071 -1.11929,2.5 -2.5,2.5c-1.38071,0 -2.5,-1.11929 -2.5,-2.5c0,-1.38071 1.11929,-2.5 2.5,-2.5z" fill="#ffffff" stroke-width="0.5"/><path d="M341.36777,213.83716c1.38071,0 2.5,1.11929 2.5,2.5c0,1.38071 -1.11929,2.5 -2.5,2.5c-1.38071,0 -2.5,-1.11929 -2.5,-2.5c0,-1.38071 1.11929,-2.5 2.5,-2.5z" fill="#ffffff" stroke-width="0.5"/></g><path d="M236.42326,223.10819l-2.43389,-1.21695l0.64427,-2.14755" fill="none" stroke="#8c4422" stroke-width="1" stroke-linecap="round"/><path d="M233.63145,224.03879l0.21476,-2.29072" fill="none" stroke="#8c4422" stroke-width="1" stroke-linecap="round"/><path d="M238.57082,222.67868l2.8634,-0.14317l1.71804,2.64865" fill="none" stroke="#8c4422" stroke-width="1" stroke-linecap="round"/><path d="M241.14788,222.60709l-1.00219,2.50548" fill="none" stroke="#8c4422" stroke-width="1" stroke-linecap="round"/><path d="M169.55342,206.03668c3,0 5.5,-2.5 5.5,-5.5c0,-0.2 0,-0.2 0,-0.2c0,-0.2 0,-0.3 0,-0.3c0,0 0,0.1 0,0.3c0,0 0,0 0,0.2c0,3.1 2.5,5.5 5.5,5.5" fill="none" stroke="#000000" stroke-width="2.5" stroke-linecap="round"/></g></g></svg>