<svg version="1.1" xmlns="http://www.w3.org/2000/svg" xmlns:xlink="http://www.w3.org/1999/xlink" width="40" height="36" viewBox="0,0,40,36"><g transform="translate(-223.5,-167.5)"><g data-paper-data="{&quot;isPaintingLayer&quot;:true}" fill="#ffffff" fill-rule="nonzero" stroke="none" stroke-width="1" stroke-linecap="butt" stroke-linejoin="miter" stroke-miterlimit="10" stroke-dasharray="" stroke-dashoffset="0" style="mix-blend-mode: normal"><path d="M226.5,203.5c-0.83333,0 -1.54167,-0.29167 -2.125,-0.875c-0.58333,-0.58333 -0.875,-1.29167 -0.875,-2.125v-33l3.35,3.35l3.3,-3.35l3.35,3.35l3.35,-3.35l3.3,3.35l3.35,-3.35l3.35,3.35l3.3,-3.35l3.35,3.35l3.35,-3.35l3.3,3.35l3.35,-3.35v33c0,0.83333 -0.29167,1.54167 -0.875,2.125c-0.58333,0.58333 -1.29167,0.875 -2.125,0.875zM226.5,200.5h15.5v-14h-15.5zM245,200.5h15.5v-5.5h-15.5zM245,192h15.5v-5.5h-15.5zM226.5,183.5h34v-6h-34z"/></g></g></svg>