<svg version="1.1" xmlns="http://www.w3.org/2000/svg" xmlns:xlink="http://www.w3.org/1999/xlink" width="26.81788" height="26.81788" viewBox="0,0,26.81788,26.81788"><g transform="translate(-306.59106,-166.59106)"><g data-paper-data="{&quot;isPaintingLayer&quot;:true}" fill="none" fill-rule="nonzero" stroke="#ffffff" stroke-width="2.5" stroke-linecap="round" stroke-linejoin="round" stroke-miterlimit="10" stroke-dasharray="" stroke-dashoffset="0" style="mix-blend-mode: normal"><path d="M316.68393,180c0,-1.83141 1.48466,-3.31607 3.31607,-3.31607c1.83141,0 3.31607,1.48466 3.31607,3.31607c0,1.83141 -1.48466,3.31607 -3.31607,3.31607c-1.83141,0 -3.31607,-1.48466 -3.31607,-3.31607z"/><path d="M328.17965,183.31608c-0.30104,0.68211 -0.1566,1.47876 0.36477,2.01175l0.06632,0.06632c0.41512,0.41466 0.64837,0.97734 0.64837,1.56408c0,0.58675 -0.23325,1.14942 -0.64837,1.56408c-0.41466,0.41512 -0.97734,0.64837 -1.56408,0.64837c-0.58675,0 -1.14942,-0.23325 -1.56408,-0.64837l-0.06632,-0.06632c-0.53299,-0.52136 -1.32965,-0.66581 -2.01175,-0.36477c-0.66816,0.28637 -1.10246,0.94216 -1.10536,1.66909v0.18791c0,1.22095 -0.98977,2.21072 -2.21072,2.21072c-1.22095,0 -2.21072,-0.98977 -2.21072,-2.21072v-0.09948c-0.01751,-0.74869 -0.49092,-1.41058 -1.19379,-1.66909c-0.68211,-0.30104 -1.47876,-0.1566 -2.01175,0.36477l-0.06632,0.06632c-0.41466,0.41512 -0.97734,0.64837 -1.56408,0.64837c-0.58675,0 -1.14942,-0.23325 -1.56408,-0.64837c-0.41512,-0.41466 -0.64837,-0.97734 -0.64837,-1.56408c0,-0.58675 0.23325,-1.14942 0.64837,-1.56408l0.06632,-0.06632c0.52136,-0.53299 0.66581,-1.32965 0.36477,-2.01175c-0.28637,-0.66816 -0.94216,-1.10246 -1.66909,-1.10536h-0.18791c-1.22095,0 -2.21072,-0.98977 -2.21072,-2.21072c0,-1.22095 0.98977,-2.21072 2.21072,-2.21072h0.09948c0.74869,-0.01751 1.41058,-0.49092 1.66909,-1.19379c0.30104,-0.68211 0.1566,-1.47876 -0.36477,-2.01175l-0.06632,-0.06632c-0.41512,-0.41466 -0.64837,-0.97734 -0.64837,-1.56408c0,-0.58675 0.23325,-1.14942 0.64837,-1.56408c0.41466,-0.41512 0.97734,-0.64837 1.56408,-0.64837c0.58675,0 1.14942,0.23325 1.56408,0.64837l0.06632,0.06632c0.53299,0.52136 1.32965,0.66581 2.01175,0.36477h0.08843c0.66816,-0.28637 1.10246,-0.94216 1.10536,-1.66909v-0.18791c0,-1.22095 0.98977,-2.21072 2.21072,-2.21072c1.22095,0 2.21072,0.98977 2.21072,2.21072v0.09948c0.0029,0.72693 0.4372,1.38273 1.10536,1.66909c0.68211,0.30104 1.47876,0.1566 2.01175,-0.36477l0.06632,-0.06632c0.41466,-0.41512 0.97734,-0.64837 1.56408,-0.64837c0.58675,0 1.14942,0.23325 1.56408,0.64837c0.41512,0.41466 0.64837,0.97734 0.64837,1.56408c0,0.58675 -0.23325,1.14942 -0.64837,1.56408l-0.06632,0.06632c-0.52136,0.53299 -0.66581,1.32965 -0.36477,2.01175v0.08843c0.28637,0.66816 0.94216,1.10246 1.66909,1.10536h0.18791c1.22095,0 2.21072,0.98977 2.21072,2.21072c0,1.22095 -0.98977,2.21072 -2.21072,2.21072h-0.09948c-0.72693,0.0029 -1.38273,0.4372 -1.66909,1.10536z"/></g></g></svg>