<!-- Originally from https://icon-sets.iconify.design/uil/shield/ -->
<svg xmlns="http://www.w3.org/2000/svg" height="16" width="14" viewBox="6 2 12 20"><path fill="white" d="M19.63 3.65a1 1 0 0 0-.84-.2a8 8 0 0 1-6.22-1.27a1 1 0 0 0-1.14 0a8 8 0 0 1-6.22 1.27a1 1 0 0 0-.84.2a1 1 0 0 0-.37.78v7.45a9 9 0 0 0 3.77 7.33l3.65 2.6a1 1 0 0 0 1.16 0l3.65-2.6A9 9 0 0 0 20 11.88V4.43a1 1 0 0 0-.37-.78ZM18 11.88a7 7 0 0 1-2.93 5.7L12 19.77l-3.07-2.19A7 7 0 0 1 6 11.88v-6.3a10 10 0 0 0 6-1.39a10 10 0 0 0 6 1.39Z"/></svg>